<svg width="200" height="164" viewBox="0 0 200 164" fill="none" xmlns="http://www.w3.org/2000/svg">
<path d="M20 144.294C21.3592 144.125 22.8349 141.46 23.7708 140.524C27.7468 136.548 31.676 132.554 35.9098 128.85C53.3212 113.615 72.0142 100.248 89.6829 85.3559C106.572 71.1206 125.823 57.8106 145.212 47.1826C153.765 42.4947 162.471 38.2903 171.143 33.8556C172.256 33.2864 178.06 30.392 175.276 29" stroke="#BDED98" stroke-width="39" stroke-linecap="round"/>
<ellipse cx="149.337" cy="36.5" rx="50.5" ry="36.5" fill="#BDED98"/>
<g filter="url(#filter0_di_2534_4417)">
<ellipse cx="149.837" cy="35.5" rx="37" ry="26.5" fill="#7CD67A"/>
</g>
<path d="M147.513 31.4216L144.897 33.7908L145.68 37.3181C145.722 37.5024 145.71 37.6954 145.646 37.8729C145.583 38.0503 145.47 38.2044 145.323 38.3158C145.175 38.4271 144.999 38.4909 144.817 38.4991C144.635 38.5073 144.454 38.4595 144.298 38.3618L141.334 36.4958L138.376 38.3618C138.22 38.4595 138.039 38.5073 137.857 38.4991C137.674 38.4909 137.499 38.4271 137.351 38.3158C137.203 38.2044 137.091 38.0503 137.027 37.8729C136.964 37.6954 136.952 37.5024 136.993 37.3181L137.776 33.7944L135.159 31.4216C135.021 31.2977 134.921 31.1342 134.872 30.9516C134.822 30.7689 134.826 30.5753 134.883 30.3949C134.939 30.2145 135.046 30.0555 135.189 29.9376C135.332 29.8198 135.506 29.7485 135.688 29.7326L139.136 29.4226L140.482 26.0904C140.553 25.9155 140.671 25.7662 140.823 25.6611C140.975 25.5561 141.153 25.5 141.336 25.5C141.519 25.5 141.697 25.5561 141.849 25.6611C142.001 25.7662 142.119 25.9155 142.19 26.0904L143.54 29.4226L146.987 29.7326C147.169 29.7485 147.343 29.8198 147.486 29.9376C147.629 30.0555 147.736 30.2145 147.792 30.3949C147.848 30.5753 147.852 30.7689 147.803 30.9516C147.754 31.1342 147.654 31.2977 147.516 31.4216H147.513Z" fill="#D1F8B8"/>
<path d="M154.229 27.9H155.685V37H154.112V29.356L152.149 30.019V28.654L154.229 27.9ZM161.101 37.13C159.151 37.13 157.955 36.064 157.955 34.14V30.773C157.955 28.849 159.151 27.77 161.101 27.77C163.064 27.77 164.26 28.849 164.26 30.773V34.127C164.26 36.064 163.064 37.13 161.101 37.13ZM161.101 29.135C160.048 29.135 159.567 29.798 159.567 30.825V34.088C159.567 35.102 160.048 35.765 161.101 35.765C162.18 35.765 162.661 35.102 162.661 34.088V30.825C162.661 29.798 162.18 29.135 161.101 29.135Z" fill="#D1F8B8"/>
<defs>
<filter id="filter0_di_2534_4417" x="108.837" y="7" width="82" height="61" filterUnits="userSpaceOnUse" color-interpolation-filters="sRGB">
<feFlood flood-opacity="0" result="BackgroundImageFix"/>
<feColorMatrix in="SourceAlpha" type="matrix" values="0 0 0 0 0 0 0 0 0 0 0 0 0 0 0 0 0 0 127 0" result="hardAlpha"/>
<feOffset dy="2"/>
<feGaussianBlur stdDeviation="2"/>
<feComposite in2="hardAlpha" operator="out"/>
<feColorMatrix type="matrix" values="0 0 0 0 0.033 0 0 0 0 0.22435 0 0 0 0 0.3 0 0 0 0.25 0"/>
<feBlend mode="normal" in2="BackgroundImageFix" result="effect1_dropShadow_2534_4417"/>
<feBlend mode="normal" in="SourceGraphic" in2="effect1_dropShadow_2534_4417" result="shape"/>
<feColorMatrix in="SourceAlpha" type="matrix" values="0 0 0 0 0 0 0 0 0 0 0 0 0 0 0 0 0 0 127 0" result="hardAlpha"/>
<feOffset dy="-5"/>
<feGaussianBlur stdDeviation="1"/>
<feComposite in2="hardAlpha" operator="arithmetic" k2="-1" k3="1"/>
<feColorMatrix type="matrix" values="0 0 0 0 0.033 0 0 0 0 0.22435 0 0 0 0 0.3 0 0 0 0.29 0"/>
<feBlend mode="multiply" in2="shape" result="effect2_innerShadow_2534_4417"/>
</filter>
</defs>
</svg>
