<svg width="194" height="150" viewBox="0 0 194 150" fill="none" xmlns="http://www.w3.org/2000/svg">
<path d="M45.2332 35.7156C44.9391 33.3632 46.9443 36.9307 48.1259 38.1434C51.7523 41.8653 55.7588 44.6935 59.6966 48.0096C73.2428 59.4168 87.8729 69.4227 101.434 80.759C117.413 94.1162 135.287 105.031 152.573 116.608C158.627 120.663 166.373 127.832 173.545 129.625" stroke="#BDED98" stroke-width="39" stroke-linecap="round"/>
<ellipse cx="50.5" cy="36.5" rx="50.5" ry="36.5" fill="#BDED98"/>
<g filter="url(#filter0_di_2534_4430)">
<ellipse cx="51" cy="34.5" rx="37" ry="26.5" fill="#7CD67A"/>
</g>
<path d="M48.6752 30.4216L46.0596 32.7908L46.8431 36.3181C46.8845 36.5024 46.8727 36.6954 46.8091 36.8729C46.7454 37.0503 46.6328 37.2044 46.4852 37.3158C46.3377 37.4271 46.1618 37.4909 45.9795 37.4991C45.7973 37.5073 45.6167 37.4595 45.4604 37.3618L42.4962 35.4958L39.5384 37.3618C39.3821 37.4595 39.2016 37.5073 39.0193 37.4991C38.837 37.4909 38.6611 37.4271 38.5136 37.3158C38.366 37.2044 38.2534 37.0503 38.1898 36.8729C38.1261 36.6954 38.1143 36.5024 38.1558 36.3181L38.9381 32.7944L36.3219 30.4216C36.1835 30.2977 36.0835 30.1342 36.0343 29.9516C35.9851 29.7689 35.9889 29.5753 36.0454 29.3949C36.1018 29.2145 36.2083 29.0555 36.3514 28.9376C36.4946 28.8198 36.6682 28.7485 36.8502 28.7326L40.2987 28.4226L41.6448 25.0904C41.7151 24.9155 41.8337 24.7662 41.9856 24.6611C42.1375 24.5561 42.316 24.5 42.4985 24.5C42.6811 24.5 42.8596 24.5561 43.0115 24.6611C43.1634 24.7662 43.282 24.9155 43.3523 25.0904L44.7024 28.4226L48.1498 28.7326C48.3318 28.7485 48.5054 28.8198 48.6486 28.9376C48.7917 29.0555 48.8982 29.2145 48.9546 29.3949C49.0111 29.5753 49.0149 29.7689 48.9657 29.9516C48.9165 30.1342 48.8165 30.2977 48.6781 30.4216H48.6752Z" fill="#D1F8B8"/>
<path d="M55.392 26.9H56.848V36H55.275V28.356L53.312 29.019V27.654L55.392 26.9ZM62.2638 36.13C60.3138 36.13 59.1178 35.064 59.1178 33.14V29.773C59.1178 27.849 60.3138 26.77 62.2638 26.77C64.2268 26.77 65.4228 27.849 65.4228 29.773V33.127C65.4228 35.064 64.2268 36.13 62.2638 36.13ZM62.2638 28.135C61.2108 28.135 60.7298 28.798 60.7298 29.825V33.088C60.7298 34.102 61.2108 34.765 62.2638 34.765C63.3428 34.765 63.8238 34.102 63.8238 33.088V29.825C63.8238 28.798 63.3428 28.135 62.2638 28.135Z" fill="#D1F8B8"/>
<defs>
<filter id="filter0_di_2534_4430" x="10" y="6" width="82" height="61" filterUnits="userSpaceOnUse" color-interpolation-filters="sRGB">
<feFlood flood-opacity="0" result="BackgroundImageFix"/>
<feColorMatrix in="SourceAlpha" type="matrix" values="0 0 0 0 0 0 0 0 0 0 0 0 0 0 0 0 0 0 127 0" result="hardAlpha"/>
<feOffset dy="2"/>
<feGaussianBlur stdDeviation="2"/>
<feComposite in2="hardAlpha" operator="out"/>
<feColorMatrix type="matrix" values="0 0 0 0 0.033 0 0 0 0 0.22435 0 0 0 0 0.3 0 0 0 0.25 0"/>
<feBlend mode="normal" in2="BackgroundImageFix" result="effect1_dropShadow_2534_4430"/>
<feBlend mode="normal" in="SourceGraphic" in2="effect1_dropShadow_2534_4430" result="shape"/>
<feColorMatrix in="SourceAlpha" type="matrix" values="0 0 0 0 0 0 0 0 0 0 0 0 0 0 0 0 0 0 127 0" result="hardAlpha"/>
<feOffset dy="-5"/>
<feGaussianBlur stdDeviation="1"/>
<feComposite in2="hardAlpha" operator="arithmetic" k2="-1" k3="1"/>
<feColorMatrix type="matrix" values="0 0 0 0 0.033 0 0 0 0 0.22435 0 0 0 0 0.3 0 0 0 0.29 0"/>
<feBlend mode="multiply" in2="shape" result="effect2_innerShadow_2534_4430"/>
</filter>
</defs>
</svg>
