<svg width="1920" height="690" viewBox="0 0 1920 690" fill="none" xmlns="http://www.w3.org/2000/svg">
<path fill-rule="evenodd" clip-rule="evenodd" d="M1920 116.632L1813.33 103.175C1809.89 102.769 1806.33 102.349 1802.66 101.916C1692.88 88.9596 1486.44 64.5964 1280 64.5964C1184.82 64.5964 1089.64 69.7754 994.462 74.9543L994.461 74.9543C876.308 81.3834 758.154 87.8125 640 84.3342C437.121 78.3617 234.242 42.3676 123.104 22.6499L123.102 22.6496C117.376 21.6337 111.893 20.661 106.667 19.7378L0 0V117V210V349V426V529.589L106.667 548.098C110.115 548.656 113.674 549.234 117.342 549.829C227.125 567.649 433.563 601.157 640 601.157C735.18 601.157 830.359 594.034 925.539 586.911C1043.69 578.069 1161.85 569.226 1280 574.01C1482.88 582.225 1685.76 631.729 1796.9 658.848C1802.62 660.246 1808.11 661.584 1813.33 662.853L1920 690V426V349V210V117V116.632Z" fill="#00A1B2"/>
</svg>
