<svg width="1440" height="834" viewBox="0 0 1440 834" fill="none" xmlns="http://www.w3.org/2000/svg">
<g clip-path="url(#clip0_1603_2547)">
<rect width="1440" height="834" fill="url(#paint0_linear_1603_2547)"/>
<path d="M0 0H1440V720H0V0Z" fill="url(#paint1_linear_1603_2547)"/>
<path fill-rule="evenodd" clip-rule="evenodd" d="M1329.32 1132.49C1539.22 1107.05 1701 946.167 1701 751.5C1701 539.147 1508.48 367 1271 367C1149.71 367 1040.16 411.901 961.983 484.127C856.134 444.458 735.511 422 607.5 422C187.487 422 -153 663.766 -153 962C-153 1260.23 187.487 1502 607.5 1502C943.608 1502 1228.79 1347.18 1329.32 1132.49Z" fill="url(#paint2_linear_1603_2547)"/>
<path fill-rule="evenodd" clip-rule="evenodd" d="M12.2956 114.047C11.9105 65.515 59.5829 23.4521 121.367 18.9781C178.387 14.8491 228.126 44.1336 240.654 86.4688C249.434 82.8918 259.23 80.5528 269.645 79.7986C310.554 76.8362 345.529 99.4443 347.763 130.295C349.997 161.146 318.644 188.557 277.735 191.519C266.488 192.334 255.69 191.215 245.898 188.525C236.238 217.552 200.594 240.835 156.594 244.022C125.156 246.298 96.4611 237.807 77.6268 222.804C60.934 237.518 36.2201 247.769 8.09062 249.806C-45.2993 253.672 -90.776 226.485 -93.4845 189.081C-96.193 151.678 -55.1075 118.223 -1.71762 114.357C3.02399 114.013 7.70319 113.915 12.2956 114.047Z" fill="#FCFCFC"/>
<path fill-rule="evenodd" clip-rule="evenodd" d="M12.2956 114.047C11.9105 65.515 59.5829 23.4521 121.367 18.9781C178.387 14.8491 228.126 44.1336 240.654 86.4688C249.434 82.8918 259.23 80.5528 269.645 79.7986C310.554 76.8362 345.529 99.4443 347.763 130.295C349.997 161.146 318.644 188.557 277.735 191.519C266.488 192.334 255.69 191.215 245.898 188.525C236.238 217.552 200.594 240.835 156.594 244.022C125.156 246.298 96.4611 237.807 77.6268 222.804C60.934 237.518 36.2201 247.769 8.09062 249.806C-45.2993 253.672 -90.776 226.485 -93.4845 189.081C-96.193 151.678 -55.1075 118.223 -1.71762 114.357C3.02399 114.013 7.70319 113.915 12.2956 114.047Z" fill="url(#paint3_linear_1603_2547)" style="mix-blend-mode:multiply"/>
<path fill-rule="evenodd" clip-rule="evenodd" d="M957.667 257.376C967.102 237.015 990.727 222.351 1018.61 221.887C1050.97 221.348 1078.24 240.111 1084.45 265.414C1086.32 265.183 1088.24 265.048 1090.18 265.016C1113.65 264.625 1132.92 279.308 1133.22 297.811C1133.53 316.314 1114.76 331.631 1091.3 332.021C1088.31 332.071 1085.38 331.876 1082.56 331.459C1074.51 346.375 1054.84 357.111 1031.68 357.497C1013.64 357.797 997.518 351.758 987.229 342.161C977.231 350.388 962.791 355.678 946.657 355.947C916.035 356.456 890.909 338.684 890.535 316.251C890.818 283.805 909.515 257.789 952.196 257.078C954.066 257.047 955.89 257.15 957.667 257.376Z" fill="#FCFCFC"/>
<path fill-rule="evenodd" clip-rule="evenodd" d="M957.893 256.893C967.477 236.783 990.948 222.347 1018.61 221.887C1050.97 221.348 1078.24 240.111 1084.45 265.414C1086.32 265.183 1088.24 265.048 1090.18 265.016C1113.65 264.625 1132.92 279.308 1133.22 297.811C1133.53 316.314 1114.76 331.631 1091.3 332.021C1088.31 332.071 1085.38 331.876 1082.56 331.459C1074.51 346.375 1054.84 357.11 1031.68 357.496C1013.64 357.796 997.518 351.758 987.229 342.161C977.231 350.388 962.791 355.678 946.657 355.946C916.035 356.456 890.909 338.684 890.535 316.251C890.04 286.491 908.48 255.249 956.967 256.897C957.278 256.892 957.586 256.891 957.893 256.893Z" fill="url(#paint4_linear_1603_2547)" style="mix-blend-mode:multiply"/>
<path fill-rule="evenodd" clip-rule="evenodd" d="M1456.07 107.937C1454.8 91.2602 1434.31 78 1409.22 78C1386.06 78 1366.82 89.2942 1362.99 104.145C1359.34 103.135 1355.32 102.575 1351.09 102.575C1334.47 102.575 1321 111.209 1321 121.86C1321 132.511 1334.47 141.145 1351.09 141.145C1355.65 141.145 1359.98 140.492 1363.86 139.325C1368.61 149.053 1383.7 156.163 1401.57 156.163C1414.34 156.163 1425.68 152.534 1432.85 146.912C1440.03 151.551 1450.31 154.456 1461.74 154.456C1483.42 154.456 1501 143.988 1501 131.076C1501 118.163 1483.42 107.695 1461.74 107.695C1459.81 107.695 1457.92 107.778 1456.07 107.937Z" fill="#FCFCFC"/>
<path fill-rule="evenodd" clip-rule="evenodd" d="M1456.07 107.937C1454.8 91.2602 1434.31 78 1409.22 78C1386.06 78 1366.82 89.2942 1362.99 104.145C1359.34 103.135 1355.32 102.575 1351.09 102.575C1334.47 102.575 1321 111.209 1321 121.86C1321 132.511 1334.47 141.145 1351.09 141.145C1355.65 141.145 1359.98 140.492 1363.86 139.325C1368.61 149.053 1383.7 156.163 1401.57 156.163C1414.34 156.163 1425.68 152.534 1432.85 146.912C1440.03 151.551 1450.31 154.456 1461.74 154.456C1483.42 154.456 1501 143.988 1501 131.076C1501 118.163 1483.42 107.695 1461.74 107.695C1459.81 107.695 1457.92 107.778 1456.07 107.937Z" fill="url(#paint5_linear_1603_2547)" style="mix-blend-mode:multiply"/>
<rect x="495" y="187" width="450" height="537.391" rx="13.0145" fill="#FCFCFC"/>
<path d="M627.263 248.843C627.263 252.197 624.533 254.355 620.295 254.355C616.369 254.355 613.951 252.509 613.951 249.415C613.951 247.777 614.679 246.867 616.005 246.867C616.967 246.867 617.617 247.387 617.617 248.167C617.617 248.895 617.253 249.259 617.253 249.883C617.253 250.793 618.371 251.339 620.243 251.339C622.609 251.339 623.883 250.585 623.883 249.181C623.883 247.413 622.089 246.945 620.061 246.477C617.383 245.853 614.237 245.177 614.237 241.147C614.237 237.533 616.811 235.141 620.867 235.141C622.609 235.141 624.533 235.635 625.625 236.363C626.561 236.987 626.795 237.689 626.795 239.249V240.315C626.795 242.265 626.405 242.889 625.131 242.863C623.961 242.837 623.545 242.187 623.545 240.159V239.249C622.739 238.703 621.803 238.443 620.763 238.443C618.761 238.443 617.643 239.275 617.643 240.809C617.643 242.577 619.437 243.045 621.439 243.513C624.117 244.137 627.263 244.813 627.263 248.843ZM635.905 254.355C631.927 254.355 629.431 251.833 629.431 247.777C629.431 243.721 631.901 240.991 635.567 240.991C638.713 240.991 640.793 243.045 640.793 246.139C640.793 246.685 640.741 247.153 640.663 247.595C640.507 248.349 639.961 248.791 639.155 248.817L632.629 249.077C633.071 250.455 634.293 251.261 635.957 251.261C637.023 251.261 637.803 251.079 638.245 250.715C638.583 250.455 638.921 250.325 639.233 250.325C640.091 250.325 640.793 251.131 640.793 251.937C640.793 252.353 640.611 252.769 640.143 253.107C638.947 253.965 637.491 254.355 635.905 254.355ZM635.333 244.163C633.851 244.163 632.837 245.073 632.525 246.633L637.699 246.425V246.295C637.699 244.969 636.789 244.163 635.333 244.163ZM645.935 239.067C644.271 239.067 643.413 238.209 643.413 236.571C643.413 234.985 644.193 234.205 645.779 234.205C647.443 234.205 648.275 235.011 648.275 236.675C648.275 238.261 647.469 239.067 645.935 239.067ZM646.377 241.173C647.495 241.173 647.963 241.693 647.963 242.785V254.719C647.963 258.151 646.403 259.893 643.361 259.893C640.683 259.893 639.149 258.801 639.149 256.929C639.149 255.525 639.903 254.823 641.411 254.823C642.347 254.823 642.997 255.369 642.997 256.149C642.997 256.955 642.633 257.267 642.633 257.683C642.633 257.839 642.971 257.943 643.517 257.943C644.297 257.943 644.661 257.553 644.661 256.747C644.661 256.227 644.583 255.759 644.583 254.537V246.087C644.583 245.333 644.765 244.839 645.129 244.527L644.869 244.605C644.453 244.735 644.115 244.813 643.829 244.813C642.685 244.813 642.087 244.215 642.087 243.149C642.087 242.135 643.413 241.875 644.297 241.667C645.155 241.459 645.701 241.173 646.377 241.173ZM654.039 254.355C652.063 254.355 650.659 253.237 650.659 251.261C650.659 248.791 652.817 247.413 656.301 247.413C656.561 247.413 656.847 247.413 658.043 247.491V246.945C658.043 244.579 657.575 243.929 655.911 243.929C655.469 243.929 655.027 243.955 654.585 244.059V244.345C654.585 245.905 654.039 246.503 652.843 246.503C651.621 246.503 651.179 245.879 651.179 244.189V243.955C651.179 242.785 651.543 242.239 652.635 241.719C653.649 241.251 655.157 240.991 656.561 240.991C659.837 240.991 661.423 242.681 661.423 246.217V249.727C661.423 250.325 661.319 250.793 661.059 251.105H661.241C662.775 251.105 663.555 251.547 663.555 252.561C663.555 253.679 662.697 254.199 660.773 254.199H660.643C658.927 254.199 658.251 253.601 658.251 251.937V251.677C657.549 253.341 655.989 254.355 654.039 254.355ZM654.455 250.689C654.455 251.391 654.871 251.781 655.625 251.781C656.899 251.781 658.017 250.975 658.017 250.039V249.545C656.821 249.493 656.717 249.493 656.613 249.493C655.261 249.493 654.455 249.909 654.455 250.689ZM671.82 254.043C671.196 254.043 670.832 253.783 670.832 253.263V239.067C670.832 238.313 671.014 237.819 671.378 237.507L671.118 237.585C670.702 237.715 670.364 237.793 670.078 237.793C668.934 237.793 668.336 237.195 668.336 236.129C668.336 235.115 669.662 234.855 670.546 234.647C671.404 234.439 671.95 234.153 672.626 234.153C673.744 234.153 674.212 234.673 674.212 235.765V243.097C674.94 241.823 676.292 240.991 677.852 240.991C680.79 240.991 682.688 243.643 682.688 247.725C682.688 251.729 680.426 254.355 676.968 254.355C675.538 254.355 674.316 253.809 673.25 252.691L672.938 253.471C672.782 253.835 672.392 254.043 671.82 254.043ZM674.212 246.737V250.871C674.94 251.443 675.72 251.703 676.552 251.703C678.346 251.703 679.282 250.377 679.282 247.803C679.282 245.229 678.476 243.955 676.838 243.955C675.226 243.955 674.212 245.047 674.212 246.737ZM691.257 254.355C687.279 254.355 684.783 251.833 684.783 247.777C684.783 243.721 687.253 240.991 690.919 240.991C694.065 240.991 696.145 243.045 696.145 246.139C696.145 246.685 696.093 247.153 696.015 247.595C695.859 248.349 695.313 248.791 694.507 248.817L687.981 249.077C688.423 250.455 689.645 251.261 691.309 251.261C692.375 251.261 693.155 251.079 693.597 250.715C693.935 250.455 694.273 250.325 694.585 250.325C695.443 250.325 696.145 251.131 696.145 251.937C696.145 252.353 695.963 252.769 695.495 253.107C694.299 253.965 692.843 254.355 691.257 254.355ZM690.685 244.163C689.203 244.163 688.189 245.073 687.877 246.633L693.051 246.425V246.295C693.051 244.969 692.141 244.163 690.685 244.163ZM701.468 241.173C702.43 241.173 702.924 241.875 702.924 243.175V243.461C703.678 241.953 705.264 240.991 707.11 240.991C708.878 240.991 710.126 241.823 710.698 243.357C711.452 241.901 713.012 240.991 714.832 240.991C717.328 240.991 718.758 242.655 718.758 245.567V249.857C718.758 250.403 718.628 250.845 718.394 251.183H718.498C720.188 251.209 720.734 251.833 720.734 252.821C720.734 253.809 720.292 254.121 718.992 254.121C718.654 254.121 717.406 254.043 716.938 254.043C716.548 254.043 715.56 254.121 714.988 254.121C714 254.121 713.662 253.809 713.662 252.821C713.662 251.885 714.052 251.235 715.222 251.235H715.378V245.983C715.378 244.761 714.728 244.137 713.48 244.137C711.92 244.137 711.036 245.073 711.036 246.737V249.857C711.036 250.377 710.906 250.819 710.672 251.183H710.724C712.44 251.183 713.012 251.755 713.012 252.821C713.012 253.783 712.57 254.121 711.296 254.121C710.49 254.121 709.736 254.043 709.216 254.043C708.904 254.043 707.838 254.121 707.396 254.121C706.33 254.121 705.94 253.783 705.94 252.821C705.94 251.911 706.356 251.235 707.552 251.235H707.656V245.983C707.656 244.761 707.006 244.137 705.758 244.137C704.198 244.137 703.314 245.073 703.314 246.737V249.857C703.314 250.377 703.184 250.819 702.95 251.183H703.054C704.64 251.183 705.16 251.807 705.16 252.821C705.16 253.783 704.744 254.121 703.548 254.121C703.47 254.121 701.962 254.043 701.494 254.043C701.104 254.043 699.726 254.121 699.544 254.121C698.27 254.121 697.828 253.783 697.828 252.821C697.828 251.833 698.296 251.209 699.778 251.209H699.934V246.087C699.934 245.333 700.116 244.839 700.48 244.527L700.22 244.605C699.804 244.735 699.466 244.813 699.18 244.813C698.036 244.813 697.438 244.215 697.438 243.149C697.438 242.135 698.504 241.875 699.388 241.667C700.246 241.459 700.792 241.173 701.468 241.173ZM732.561 254.147C730.793 254.147 729.935 253.679 729.545 252.587C728.739 250.169 728.011 247.803 727.361 245.333C727.257 244.891 727.231 244.527 727.309 244.163H727.205C726.087 244.163 725.541 243.487 725.541 242.525C725.541 241.563 725.931 241.225 727.049 241.225C727.257 241.225 728.427 241.303 728.843 241.303C729.103 241.303 730.117 241.225 730.481 241.225C731.677 241.225 732.145 241.589 732.145 242.525C732.145 243.383 731.573 244.111 730.663 244.111H730.585C731.079 246.399 731.599 248.453 732.431 251.027H733.003C733.679 248.843 734.199 247.049 734.667 245.125C734.745 244.761 734.875 244.449 735.057 244.111H734.953C734.043 244.111 733.601 243.409 733.601 242.525C733.601 241.563 733.991 241.225 735.109 241.225C735.369 241.225 736.513 241.303 736.747 241.303C736.877 241.303 737.995 241.199 738.203 241.199C739.321 241.199 739.789 241.589 739.789 242.525C739.789 243.357 739.347 244.085 738.385 244.085H738.307C737.501 247.023 736.747 249.753 735.811 252.587C735.421 253.731 734.563 254.147 732.561 254.147ZM744.298 239.067C742.556 239.067 741.776 238.157 741.776 236.571C741.776 234.725 742.79 234.205 744.142 234.205C745.806 234.205 746.638 235.011 746.638 236.675C746.638 238.521 745.598 239.067 744.298 239.067ZM748.302 252.821C748.302 253.783 747.86 254.121 746.56 254.121C746.482 254.121 744.974 254.043 744.506 254.043C744.116 254.043 742.738 254.121 742.556 254.121C741.282 254.121 740.84 253.783 740.84 252.821C740.84 251.833 741.308 251.209 742.79 251.209H742.946V246.087C742.946 245.333 743.128 244.839 743.492 244.527L743.232 244.605C742.816 244.735 742.478 244.813 742.192 244.813C741.048 244.813 740.45 244.215 740.45 243.149C740.45 242.135 741.776 241.875 742.66 241.667C743.518 241.459 744.064 241.173 744.74 241.173C745.858 241.173 746.326 241.693 746.326 242.785V249.857C746.326 250.377 746.196 250.819 745.962 251.183H746.066C747.756 251.183 748.302 251.807 748.302 252.821ZM752.834 241.173C753.796 241.173 754.29 241.875 754.29 243.175V243.461C755.07 241.875 756.734 240.991 758.71 240.991C761.206 240.991 762.662 242.681 762.662 245.567V249.857C762.662 250.377 762.532 250.819 762.298 251.183H762.35C763.962 251.183 764.508 251.755 764.508 252.821C764.508 253.783 764.092 254.121 762.922 254.121C762.896 254.121 761.362 254.043 760.842 254.043C760.53 254.043 759.204 254.121 759.022 254.121C757.748 254.121 757.306 253.783 757.306 252.821C757.306 251.885 757.774 251.209 759.178 251.209H759.282V245.983C759.282 244.787 758.58 244.137 757.28 244.137C755.616 244.137 754.68 245.073 754.68 246.737V249.857C754.68 250.377 754.55 250.819 754.316 251.183H754.42C756.11 251.183 756.656 251.807 756.656 252.821C756.656 253.783 756.214 254.121 754.914 254.121C754.836 254.121 753.328 254.043 752.86 254.043C752.47 254.043 751.092 254.121 750.91 254.121C749.636 254.121 749.194 253.783 749.194 252.821C749.194 251.807 749.662 251.183 751.144 251.183H751.3V246.087C751.3 245.333 751.482 244.839 751.846 244.527L751.586 244.605C751.17 244.735 750.832 244.813 750.546 244.813C749.402 244.813 748.804 244.215 748.804 243.149C748.804 242.135 749.87 241.875 750.754 241.667C751.612 241.459 752.158 241.173 752.834 241.173ZM770.488 254.355C767.55 254.355 765.652 251.703 765.652 247.621C765.652 243.669 767.888 240.991 771.216 240.991C772.386 240.991 773.322 241.355 774.128 242.135V239.067C774.128 238.313 774.31 237.819 774.674 237.507L774.414 237.585C773.998 237.715 773.66 237.793 773.374 237.793C772.23 237.793 771.632 237.195 771.632 236.129C771.632 235.115 772.958 234.855 773.842 234.647C774.7 234.439 775.246 234.153 775.922 234.153C777.04 234.153 777.508 234.673 777.508 235.765V249.727C777.508 250.351 777.404 250.819 777.144 251.157H777.326C778.86 251.157 779.64 251.599 779.64 252.613C779.64 253.731 778.782 254.251 776.858 254.251H776.728C775.012 254.251 774.336 253.653 774.336 251.989V251.781C773.712 253.315 772.23 254.355 770.488 254.355ZM769.058 247.543C769.058 250.117 769.864 251.391 771.502 251.391C773.114 251.391 774.128 250.299 774.128 248.609V244.475C773.4 243.903 772.62 243.643 771.788 243.643C769.994 243.643 769.058 244.969 769.058 247.543ZM793.292 247.569C793.292 251.703 790.848 254.355 787.026 254.355C783.256 254.355 780.76 251.729 780.76 247.777C780.76 243.643 783.204 240.991 787.026 240.991C790.796 240.991 793.292 243.617 793.292 247.569ZM784.01 247.777C784.01 249.857 785.284 251.339 787 251.339C788.82 251.339 790.042 249.805 790.042 247.569C790.042 245.489 788.768 244.007 787.026 244.007C785.232 244.007 784.01 245.541 784.01 247.777ZM797.734 248.063C796.642 248.063 796.252 247.465 796.2 246.373L795.706 236.597C795.628 235.063 796.564 234.361 797.734 234.361C798.93 234.361 799.84 235.089 799.762 236.597L799.268 246.373C799.216 247.465 798.826 248.063 797.734 248.063ZM797.812 254.355C796.07 254.355 795.134 253.471 795.134 251.703C795.134 250.013 795.966 249.181 797.656 249.181C799.398 249.181 800.308 250.065 800.308 251.807C800.308 253.497 799.476 254.355 797.812 254.355Z" fill="#08394D"/>
<g filter="url(#filter0_d_1603_2547)">
<rect width="370.913" height="48.6319" rx="10.4116" transform="matrix(1 0 0 -1 534.043 600.038)" fill="#BE2C53"/>
<path d="M690.356 579.406V568.206H692.292V577.726H697.236V579.406H690.356ZM702.952 579.566C700.264 579.566 698.536 578.094 698.536 575.342V572.286C698.536 569.534 700.264 568.046 702.952 568.046C705.64 568.046 707.368 569.534 707.368 572.27V575.342C707.368 578.094 705.64 579.566 702.952 579.566ZM702.952 569.726C701.288 569.726 700.504 570.75 700.504 572.35V575.294C700.504 576.862 701.288 577.886 702.952 577.886C704.616 577.886 705.4 576.862 705.4 575.278V572.334C705.4 570.75 704.616 569.726 702.952 569.726ZM713.857 579.566C711.297 579.566 709.585 578.094 709.585 575.342V572.286C709.585 569.534 711.313 568.046 714.001 568.046C716.369 568.046 717.745 569.342 717.889 571.342H715.985C715.809 570.254 715.185 569.726 713.873 569.726C712.337 569.726 711.553 570.75 711.553 572.35V575.294C711.553 576.862 712.337 577.886 713.953 577.886C715.425 577.886 716.065 577.022 716.065 575.742V575.198H713.713V573.534H717.889V575.47C717.889 578.318 716.609 579.566 713.857 579.566ZM720.472 579.406V568.206H722.408V579.406H720.472ZM731.443 579.406L727.299 571.134V579.406H725.427V568.206H727.731L731.875 576.478V568.206H733.747V579.406H731.443Z" fill="white"/>
</g>
<path d="M541.931 331.542L536.699 322.246V331.542H535.483V320.342H536.971L542.187 329.654V320.342H543.419V331.542H541.931ZM549.16 331.702C547.128 331.702 545.816 330.534 545.816 328.246V327.03C545.816 324.742 547.128 323.574 549.16 323.574C551.192 323.574 552.52 324.742 552.52 327.03V328.246C552.52 330.534 551.192 331.702 549.16 331.702ZM549.16 324.662C547.736 324.662 547.096 325.606 547.096 327.03V328.23C547.096 329.686 547.736 330.614 549.16 330.614C550.584 330.614 551.24 329.686 551.24 328.23V327.03C551.24 325.606 550.584 324.662 549.16 324.662ZM556.041 327.094V331.542H554.777V323.734H556.041V325.222C556.521 324.118 557.433 323.574 558.537 323.574C559.785 323.574 560.585 324.118 560.873 325.238C561.385 324.134 562.345 323.574 563.529 323.574C565.145 323.574 566.025 324.47 566.025 326.358V331.542H564.761V326.614C564.761 325.318 564.281 324.662 563.113 324.662C561.961 324.662 561.033 325.558 561.033 327.094V331.542H559.769V326.614C559.769 325.318 559.289 324.662 558.121 324.662C556.969 324.662 556.041 325.558 556.041 327.094ZM574.671 329.206C574.495 330.822 573.295 331.702 571.519 331.702C569.535 331.702 568.207 330.534 568.207 328.246V327.03C568.207 324.742 569.519 323.574 571.535 323.574C573.471 323.574 574.719 324.758 574.719 327.062V327.782H569.503C569.503 328.038 569.519 328.294 569.535 328.534C569.599 329.846 570.239 330.646 571.583 330.646C571.711 330.646 571.823 330.646 571.935 330.63C572.847 330.518 573.359 330.022 573.471 329.206H574.671ZM569.503 326.87L569.599 326.982H573.535C573.471 325.35 572.879 324.614 571.535 324.614C570.159 324.614 569.519 325.494 569.503 326.87ZM586.209 331.542V330.262C585.777 331.222 584.929 331.702 583.809 331.702C582.017 331.702 580.769 330.534 580.769 328.246V327.046C580.769 324.742 582.017 323.574 583.809 323.574C584.977 323.574 585.793 324.102 586.209 324.998V319.862H587.457V331.542H586.209ZM584.097 324.662C582.689 324.662 582.033 325.606 582.033 327.046V328.214C582.033 329.686 582.689 330.614 584.113 330.614C585.409 330.614 586.209 329.798 586.209 328.15V327.014C586.209 325.574 585.393 324.662 584.097 324.662ZM596.186 329.206C596.01 330.822 594.81 331.702 593.034 331.702C591.05 331.702 589.722 330.534 589.722 328.246V327.03C589.722 324.742 591.034 323.574 593.05 323.574C594.986 323.574 596.234 324.758 596.234 327.062V327.782H591.018C591.018 328.038 591.034 328.294 591.05 328.534C591.114 329.846 591.754 330.646 593.098 330.646C593.226 330.646 593.338 330.646 593.45 330.63C594.362 330.518 594.874 330.022 594.986 329.206H596.186ZM591.018 326.87L591.114 326.982H595.05C594.986 325.35 594.394 324.614 593.05 324.614C591.674 324.614 591.034 325.494 591.018 326.87ZM607.581 331.542V329.974C607.133 331.158 606.253 331.702 605.101 331.702C603.421 331.702 602.525 330.822 602.525 328.966V323.734H603.773V328.71C603.773 330.006 604.301 330.662 605.517 330.662C606.653 330.662 607.581 329.766 607.581 328.23V323.734H608.845V331.542H607.581ZM613.993 324.55C612.857 324.55 612.409 324.95 612.409 325.75C612.409 326.486 612.793 326.742 613.801 326.982L614.809 327.206C616.601 327.606 617.257 328.086 617.257 329.398C617.257 330.886 616.233 331.702 614.233 331.702C612.217 331.702 611.113 330.87 610.937 329.046H612.121C612.249 330.23 612.905 330.742 614.265 330.742C615.513 330.742 616.009 330.278 616.009 329.478C616.009 328.662 615.673 328.454 614.441 328.166L613.337 327.942C611.881 327.638 611.161 327.094 611.161 325.782C611.161 324.47 612.041 323.574 613.993 323.574C616.057 323.574 617.001 324.47 617.081 326.07H615.881C615.785 325.03 615.241 324.55 613.993 324.55ZM624.175 331.542V329.974C623.727 331.158 622.847 331.702 621.695 331.702C620.015 331.702 619.119 330.822 619.119 328.966V323.734H620.367V328.71C620.367 330.006 620.895 330.662 622.111 330.662C623.247 330.662 624.175 329.766 624.175 328.23V323.734H625.439V331.542H624.175ZM633.339 320.342L631.467 322.47H630.331L631.851 320.342H633.339ZM632.475 331.542V330.454C632.075 331.286 631.339 331.702 630.075 331.702C628.459 331.702 627.563 330.902 627.563 329.622V329.142C627.563 328.006 628.299 327.174 630.315 327.174H632.475V326.518C632.475 325.174 632.011 324.662 630.763 324.662C629.627 324.662 629.131 325.206 629.035 325.99H627.819C628.011 324.55 628.891 323.574 630.875 323.574C632.795 323.574 633.723 324.454 633.723 326.358V331.542H632.475ZM630.443 330.79C631.739 330.79 632.475 330.198 632.475 328.742V327.974H630.427C629.227 327.974 628.811 328.422 628.811 329.158V329.494C628.811 330.342 629.339 330.79 630.443 330.79ZM637.51 327.174V331.542H636.246V323.734H637.51V325.11C638.006 324.07 638.838 323.574 639.878 323.574H640.262V324.79H639.846C638.47 324.79 637.51 325.606 637.51 327.174ZM642.448 322.214C641.952 322.214 641.568 321.862 641.568 321.398C641.568 320.934 641.952 320.582 642.448 320.582C642.976 320.582 643.344 320.934 643.344 321.398C643.344 321.862 642.976 322.214 642.448 322.214ZM641.824 331.542V323.734H643.088V331.542H641.824ZM648.707 331.702C646.675 331.702 645.363 330.534 645.363 328.246V327.03C645.363 324.742 646.675 323.574 648.707 323.574C650.739 323.574 652.067 324.742 652.067 327.03V328.246C652.067 330.534 650.739 331.702 648.707 331.702ZM648.707 324.662C647.283 324.662 646.643 325.606 646.643 327.03V328.23C646.643 329.686 647.283 330.614 648.707 330.614C650.131 330.614 650.787 329.686 650.787 328.23V327.03C650.787 325.606 650.131 324.662 648.707 324.662ZM661.472 331.702C659.44 331.702 658.128 330.534 658.128 328.246V327.03C658.128 324.742 659.44 323.574 661.472 323.574C663.504 323.574 664.832 324.742 664.832 327.03V328.246C664.832 330.534 663.504 331.702 661.472 331.702ZM661.472 324.662C660.048 324.662 659.408 325.606 659.408 327.03V328.23C659.408 329.686 660.048 330.614 661.472 330.614C662.896 330.614 663.552 329.686 663.552 328.23V327.03C663.552 325.606 662.896 324.662 661.472 324.662ZM671.925 331.542V329.974C671.477 331.158 670.597 331.702 669.445 331.702C667.765 331.702 666.869 330.822 666.869 328.966V323.734H668.117V328.71C668.117 330.006 668.645 330.662 669.861 330.662C670.997 330.662 671.925 329.766 671.925 328.23V323.734H673.189V331.542H671.925ZM680.093 331.542V320.342H687.133V321.43H681.341V325.206H686.157V326.278H681.341V330.454H687.133V331.542H680.093ZM690.244 327.094V331.542H688.98V323.734H690.244V325.222C690.724 324.118 691.636 323.574 692.74 323.574C693.988 323.574 694.788 324.118 695.076 325.238C695.588 324.134 696.548 323.574 697.732 323.574C699.348 323.574 700.228 324.47 700.228 326.358V331.542H698.964V326.614C698.964 325.318 698.484 324.662 697.316 324.662C696.164 324.662 695.236 325.558 695.236 327.094V331.542H693.972V326.614C693.972 325.318 693.492 324.662 692.324 324.662C691.172 324.662 690.244 325.558 690.244 327.094ZM707.178 331.542V330.454C706.778 331.286 706.042 331.702 704.778 331.702C703.162 331.702 702.266 330.902 702.266 329.622V329.142C702.266 328.006 703.002 327.174 705.018 327.174H707.178V326.518C707.178 325.174 706.714 324.662 705.466 324.662C704.33 324.662 703.834 325.206 703.738 325.99H702.522C702.714 324.55 703.594 323.574 705.578 323.574C707.498 323.574 708.426 324.454 708.426 326.358V331.542H707.178ZM705.146 330.79C706.442 330.79 707.178 330.198 707.178 328.742V327.974H705.13C703.93 327.974 703.514 328.422 703.514 329.158V329.494C703.514 330.342 704.042 330.79 705.146 330.79ZM711.573 322.214C711.077 322.214 710.693 321.862 710.693 321.398C710.693 320.934 711.077 320.582 711.573 320.582C712.101 320.582 712.469 320.934 712.469 321.398C712.469 321.862 712.101 322.214 711.573 322.214ZM710.949 331.542V323.734H712.213V331.542H710.949ZM716.04 329.59C716.04 330.326 716.264 330.534 716.904 330.534H717.144V331.622H716.856C715.384 331.622 714.776 331.19 714.776 329.606V319.862H716.04V329.59Z" fill="#08394D"/>
<rect x="534.043" y="340.446" width="370.913" height="47.1188" rx="10.4116" fill="white"/>
<path d="M564.013 368.858L561.181 359.114L558.349 368.858H556.973L553.853 357.658H555.229L557.725 367.21L560.541 357.658H561.997L564.733 367.226L567.293 357.658H568.605L565.485 368.858H564.013ZM574.684 368.858V367.77C574.284 368.602 573.548 369.018 572.284 369.018C570.668 369.018 569.772 368.218 569.772 366.938V366.458C569.772 365.322 570.508 364.49 572.524 364.49H574.684V363.834C574.684 362.49 574.22 361.978 572.972 361.978C571.836 361.978 571.34 362.522 571.244 363.306H570.028C570.22 361.866 571.1 360.89 573.084 360.89C575.004 360.89 575.932 361.77 575.932 363.674V368.858H574.684ZM572.652 368.106C573.948 368.106 574.684 367.514 574.684 366.058V365.29H572.636C571.436 365.29 571.02 365.738 571.02 366.474V366.81C571.02 367.658 571.548 368.106 572.652 368.106ZM580.219 364.41V368.858H578.955V361.05H580.219V362.522C580.715 361.434 581.627 360.89 582.747 360.89C584.443 360.89 585.371 361.786 585.371 363.674V368.858H584.123V363.93C584.123 362.634 583.595 361.978 582.331 361.978C581.163 361.978 580.219 362.874 580.219 364.41ZM593.497 368.858V367.578C593.065 368.538 592.217 369.018 591.097 369.018C589.305 369.018 588.057 367.85 588.057 365.562V364.362C588.057 362.058 589.305 360.89 591.097 360.89C592.265 360.89 593.081 361.418 593.497 362.314V357.178H594.745V368.858H593.497ZM591.385 361.978C589.977 361.978 589.321 362.922 589.321 364.362V365.53C589.321 367.002 589.977 367.93 591.401 367.93C592.697 367.93 593.497 367.114 593.497 365.466V364.33C593.497 362.89 592.681 361.978 591.385 361.978ZM602.278 368.858V367.77C601.878 368.602 601.142 369.018 599.878 369.018C598.262 369.018 597.366 368.218 597.366 366.938V366.458C597.366 365.322 598.102 364.49 600.118 364.49H602.278V363.834C602.278 362.49 601.814 361.978 600.566 361.978C599.43 361.978 598.934 362.522 598.838 363.306H597.622C597.814 361.866 598.694 360.89 600.678 360.89C602.598 360.89 603.526 361.77 603.526 363.674V368.858H602.278ZM600.246 368.106C601.542 368.106 602.278 367.514 602.278 366.058V365.29H600.23C599.03 365.29 598.614 365.738 598.614 366.474V366.81C598.614 367.658 599.142 368.106 600.246 368.106ZM610.709 368.858H609.333L605.493 357.658H606.853L610.053 367.29L613.237 357.658H614.533L610.709 368.858ZM617.204 359.53C616.708 359.53 616.324 359.178 616.324 358.714C616.324 358.25 616.708 357.898 617.204 357.898C617.732 357.898 618.1 358.25 618.1 358.714C618.1 359.178 617.732 359.53 617.204 359.53ZM616.58 368.858V361.05H617.844V368.858H616.58ZM623.499 361.866C622.363 361.866 621.915 362.266 621.915 363.066C621.915 363.802 622.299 364.058 623.307 364.298L624.315 364.522C626.107 364.922 626.763 365.402 626.763 366.714C626.763 368.202 625.739 369.018 623.739 369.018C621.723 369.018 620.619 368.186 620.443 366.362H621.627C621.755 367.546 622.411 368.058 623.771 368.058C625.019 368.058 625.515 367.594 625.515 366.794C625.515 365.978 625.179 365.77 623.947 365.482L622.843 365.258C621.387 364.954 620.667 364.41 620.667 363.098C620.667 361.786 621.547 360.89 623.499 360.89C625.563 360.89 626.507 361.786 626.587 363.386H625.387C625.291 362.346 624.747 361.866 623.499 361.866ZM629.954 359.53C629.458 359.53 629.074 359.178 629.074 358.714C629.074 358.25 629.458 357.898 629.954 357.898C630.482 357.898 630.85 358.25 630.85 358.714C630.85 359.178 630.482 359.53 629.954 359.53ZM629.33 368.858V361.05H630.594V368.858H629.33ZM636.713 369.018C634.681 369.018 633.369 367.85 633.369 365.562V364.346C633.369 362.058 634.681 360.89 636.713 360.89C638.745 360.89 640.073 362.058 640.073 364.346V365.562C640.073 367.85 638.745 369.018 636.713 369.018ZM636.713 361.978C635.289 361.978 634.649 362.922 634.649 364.346V365.546C634.649 367.002 635.289 367.93 636.713 367.93C638.137 367.93 638.793 367.002 638.793 365.546V364.346C638.793 362.922 638.137 361.978 636.713 361.978ZM644.094 364.41V368.858H642.83V361.05H644.094V362.522C644.59 361.434 645.502 360.89 646.622 360.89C648.318 360.89 649.246 361.786 649.246 363.674V368.858H647.998V363.93C647.998 362.634 647.47 361.978 646.206 361.978C645.038 361.978 644.094 362.874 644.094 364.41Z" fill="#08394D" fill-opacity="0.5"/>
<rect x="534.694" y="341.097" width="369.612" height="45.8174" rx="9.76087" stroke="#08394D" stroke-opacity="0.5" stroke-width="1.30145"/>
<path d="M538.475 413.815C536.843 413.815 536.315 414.567 536.315 415.559C536.315 416.631 536.779 416.999 538.283 417.543L539.467 417.975C541.611 418.775 542.251 419.607 542.251 421.175C542.251 423.127 541.147 424.247 538.667 424.247C536.283 424.247 534.987 423.175 534.747 420.855H535.947C536.155 422.407 536.971 423.159 538.683 423.159C540.299 423.159 540.971 422.535 540.971 421.223C540.971 420.167 540.539 419.655 538.955 419.063L537.771 418.631C535.771 417.911 535.035 417.223 535.035 415.575C535.035 413.959 536.059 412.727 538.475 412.727C540.811 412.727 541.995 413.927 542.043 416.119H540.843C540.747 414.567 540.091 413.815 538.475 413.815ZM550.499 421.751C550.323 423.367 549.123 424.247 547.347 424.247C545.363 424.247 544.035 423.079 544.035 420.791V419.575C544.035 417.287 545.347 416.119 547.363 416.119C549.299 416.119 550.547 417.303 550.547 419.607V420.327H545.331C545.331 420.583 545.347 420.839 545.363 421.079C545.427 422.391 546.067 423.191 547.411 423.191C547.539 423.191 547.651 423.191 547.763 423.175C548.675 423.063 549.187 422.567 549.299 421.751H550.499ZM545.331 419.415L545.427 419.527H549.363C549.299 417.895 548.707 417.159 547.363 417.159C545.987 417.159 545.347 418.039 545.331 419.415ZM554.041 419.639V424.087H552.777V416.279H554.041V417.751C554.537 416.663 555.449 416.119 556.569 416.119C558.265 416.119 559.193 417.015 559.193 418.903V424.087H557.945V419.159C557.945 417.863 557.417 417.207 556.153 417.207C554.985 417.207 554.041 418.103 554.041 419.639ZM562.979 419.639V424.087H561.715V412.407H562.979V417.783C563.475 416.663 564.387 416.119 565.507 416.119C567.219 416.119 568.131 417.015 568.131 418.903V424.087H566.883V419.159C566.883 417.863 566.355 417.207 565.091 417.207C563.923 417.207 562.979 418.103 562.979 419.639ZM575.084 424.087V422.999C574.684 423.831 573.948 424.247 572.684 424.247C571.068 424.247 570.172 423.447 570.172 422.167V421.687C570.172 420.551 570.908 419.719 572.924 419.719H575.084V419.063C575.084 417.719 574.62 417.207 573.372 417.207C572.236 417.207 571.74 417.751 571.644 418.535H570.428C570.62 417.095 571.5 416.119 573.484 416.119C575.404 416.119 576.332 416.999 576.332 418.903V424.087H575.084ZM573.052 423.335C574.348 423.335 575.084 422.743 575.084 421.287V420.519H573.036C571.836 420.519 571.42 420.967 571.42 421.703V422.039C571.42 422.887 571.948 423.335 573.052 423.335Z" fill="#08394D"/>
<rect x="534.043" y="435.096" width="370.913" height="51.3797" rx="10.4116" fill="white"/>
<path d="M558.035 464.169C555.835 464.169 554.075 462.409 554.075 460.209C554.075 458.009 555.835 456.249 558.035 456.249C560.235 456.249 561.995 458.009 561.995 460.209C561.995 462.409 560.235 464.169 558.035 464.169ZM570.068 464.169C567.868 464.169 566.108 462.409 566.108 460.209C566.108 458.009 567.868 456.249 570.068 456.249C572.268 456.249 574.028 458.009 574.028 460.209C574.028 462.409 572.268 464.169 570.068 464.169ZM582.102 464.169C579.902 464.169 578.142 462.409 578.142 460.209C578.142 458.009 579.902 456.249 582.102 456.249C584.302 456.249 586.062 458.009 586.062 460.209C586.062 462.409 584.302 464.169 582.102 464.169ZM594.135 464.169C591.935 464.169 590.175 462.409 590.175 460.209C590.175 458.009 591.935 456.249 594.135 456.249C596.335 456.249 598.095 458.009 598.095 460.209C598.095 462.409 596.335 464.169 594.135 464.169ZM606.168 464.169C603.968 464.169 602.208 462.409 602.208 460.209C602.208 458.009 603.968 456.249 606.168 456.249C608.368 456.249 610.128 458.009 610.128 460.209C610.128 462.409 608.368 464.169 606.168 464.169ZM618.201 464.169C616.001 464.169 614.241 462.409 614.241 460.209C614.241 458.009 616.001 456.249 618.201 456.249C620.401 456.249 622.161 458.009 622.161 460.209C622.161 462.409 620.401 464.169 618.201 464.169ZM630.234 464.169C628.034 464.169 626.274 462.409 626.274 460.209C626.274 458.009 628.034 456.249 630.234 456.249C632.434 456.249 634.194 458.009 634.194 460.209C634.194 462.409 632.434 464.169 630.234 464.169ZM642.268 464.169C640.068 464.169 638.308 462.409 638.308 460.209C638.308 458.009 640.068 456.249 642.268 456.249C644.468 456.249 646.228 458.009 646.228 460.209C646.228 462.409 644.468 464.169 642.268 464.169Z" fill="#08394D" fill-opacity="0.5"/>
<path fill-rule="evenodd" clip-rule="evenodd" d="M855.678 455.58C852.873 455.58 850.437 457.584 848.915 460.608C848.89 460.657 848.871 460.694 848.856 460.726C848.842 460.754 848.834 460.773 848.828 460.785C848.834 460.798 848.842 460.817 848.856 460.845C848.871 460.877 848.89 460.913 848.915 460.963C850.437 463.986 852.873 465.991 855.678 465.991C858.483 465.991 860.919 463.986 862.442 460.963C862.466 460.913 862.485 460.877 862.5 460.845C862.514 460.817 862.523 460.798 862.528 460.785C862.523 460.773 862.514 460.754 862.5 460.726C862.485 460.694 862.466 460.657 862.442 460.608C860.919 457.584 858.483 455.58 855.678 455.58ZM847.365 459.827C849.048 456.485 851.965 453.844 855.678 453.844C859.392 453.844 862.309 456.485 863.991 459.827C863.998 459.84 864.004 459.852 864.01 459.865C864.089 460.021 864.192 460.223 864.238 460.471C864.274 460.669 864.274 460.901 864.238 461.099C864.192 461.348 864.089 461.55 864.01 461.706C864.004 461.719 863.998 461.731 863.991 461.743C862.309 465.085 859.392 467.726 855.678 467.726C851.965 467.726 849.048 465.085 847.365 461.743C847.359 461.731 847.353 461.719 847.346 461.706C847.267 461.55 847.165 461.348 847.119 461.099C847.082 460.901 847.082 460.669 847.119 460.471C847.165 460.223 847.267 460.021 847.346 459.865C847.353 459.852 847.359 459.84 847.365 459.827ZM855.678 459.05C854.72 459.05 853.943 459.827 853.943 460.785C853.943 461.744 854.72 462.521 855.678 462.521C856.637 462.521 857.413 461.744 857.413 460.785C857.413 459.827 856.637 459.05 855.678 459.05ZM852.208 460.785C852.208 458.869 853.761 457.315 855.678 457.315C857.595 457.315 859.149 458.869 859.149 460.785C859.149 462.702 857.595 464.256 855.678 464.256C853.761 464.256 852.208 462.702 852.208 460.785Z" fill="#08394C"/>
<rect x="534.694" y="435.746" width="369.612" height="50.0783" rx="9.76087" stroke="#08394D" stroke-opacity="0.5" stroke-width="1.30145"/>
<path d="M808.092 515.951V506.851H813.812V507.735H809.106V510.803H813.019V511.674H809.106V515.067H813.812V515.951H808.092ZM817.367 510.27C816.444 510.27 816.08 510.595 816.08 511.245C816.08 511.843 816.392 512.051 817.211 512.246L818.03 512.428C819.486 512.753 820.019 513.143 820.019 514.209C820.019 515.418 819.187 516.081 817.562 516.081C815.924 516.081 815.027 515.405 814.884 513.923H815.846C815.95 514.885 816.483 515.301 817.588 515.301C818.602 515.301 819.005 514.924 819.005 514.274C819.005 513.611 818.732 513.442 817.731 513.208L816.834 513.026C815.651 512.779 815.066 512.337 815.066 511.271C815.066 510.205 815.781 509.477 817.367 509.477C819.044 509.477 819.811 510.205 819.876 511.505H818.901C818.823 510.66 818.381 510.27 817.367 510.27ZM826.834 518.551H825.82V514.911C825.469 515.691 824.78 516.081 823.87 516.081C822.414 516.081 821.4 515.132 821.4 513.273V512.298C821.4 510.426 822.414 509.477 823.87 509.477C824.819 509.477 825.482 509.906 825.82 510.634V509.607H826.834V518.551ZM824.104 510.361C822.96 510.361 822.427 511.128 822.427 512.298V513.247C822.427 514.443 822.96 515.197 824.117 515.197C825.17 515.197 825.82 514.534 825.82 513.195V512.272C825.82 511.102 825.157 510.361 824.104 510.361ZM832.99 515.951V514.677C832.626 515.639 831.911 516.081 830.975 516.081C829.61 516.081 828.882 515.366 828.882 513.858V509.607H829.896V513.65C829.896 514.703 830.325 515.236 831.313 515.236C832.236 515.236 832.99 514.508 832.99 513.26V509.607H834.017V515.951H832.99ZM841.112 514.053C840.969 515.366 839.994 516.081 838.551 516.081C836.939 516.081 835.86 515.132 835.86 513.273V512.285C835.86 510.426 836.926 509.477 838.564 509.477C840.137 509.477 841.151 510.439 841.151 512.311V512.896H836.913C836.913 513.104 836.926 513.312 836.939 513.507C836.991 514.573 837.511 515.223 838.603 515.223C838.707 515.223 838.798 515.223 838.889 515.21C839.63 515.119 840.046 514.716 840.137 514.053H841.112ZM836.913 512.155L836.991 512.246H840.189C840.137 510.92 839.656 510.322 838.564 510.322C837.446 510.322 836.926 511.037 836.913 512.155ZM845.355 515.197C846.278 515.197 846.72 514.807 846.876 513.975H847.851C847.656 515.366 846.746 516.081 845.329 516.081C843.73 516.081 842.677 515.132 842.677 513.286V512.298C842.677 510.426 843.743 509.477 845.342 509.477C846.876 509.477 847.708 510.322 847.786 511.596H846.798C846.681 510.79 846.213 510.361 845.342 510.361C844.211 510.361 843.717 511.089 843.717 512.311V513.26C843.717 514.469 844.237 515.197 845.355 515.197ZM849.996 508.372C849.593 508.372 849.281 508.086 849.281 507.709C849.281 507.332 849.593 507.046 849.996 507.046C850.425 507.046 850.724 507.332 850.724 507.709C850.724 508.086 850.425 508.372 849.996 508.372ZM849.489 515.951V509.607H850.516V515.951H849.489ZM859.615 515.951V515.067C859.29 515.743 858.692 516.081 857.665 516.081C856.352 516.081 855.624 515.431 855.624 514.391V514.001C855.624 513.078 856.222 512.402 857.86 512.402H859.615V511.869C859.615 510.777 859.238 510.361 858.224 510.361C857.301 510.361 856.898 510.803 856.82 511.44H855.832C855.988 510.27 856.703 509.477 858.315 509.477C859.875 509.477 860.629 510.192 860.629 511.739V515.951H859.615ZM857.964 515.34C859.017 515.34 859.615 514.859 859.615 513.676V513.052H857.951C856.976 513.052 856.638 513.416 856.638 514.014V514.287C856.638 514.976 857.067 515.34 857.964 515.34ZM868.11 510.27C867.187 510.27 866.823 510.595 866.823 511.245C866.823 511.843 867.135 512.051 867.954 512.246L868.773 512.428C870.229 512.753 870.762 513.143 870.762 514.209C870.762 515.418 869.93 516.081 868.305 516.081C866.667 516.081 865.77 515.405 865.627 513.923H866.589C866.693 514.885 867.226 515.301 868.331 515.301C869.345 515.301 869.748 514.924 869.748 514.274C869.748 513.611 869.475 513.442 868.474 513.208L867.577 513.026C866.394 512.779 865.809 512.337 865.809 511.271C865.809 510.205 866.524 509.477 868.11 509.477C869.787 509.477 870.554 510.205 870.619 511.505H869.644C869.566 510.66 869.124 510.27 868.11 510.27ZM877.408 514.053C877.265 515.366 876.29 516.081 874.847 516.081C873.235 516.081 872.156 515.132 872.156 513.273V512.285C872.156 510.426 873.222 509.477 874.86 509.477C876.433 509.477 877.447 510.439 877.447 512.311V512.896H873.209C873.209 513.104 873.222 513.312 873.235 513.507C873.287 514.573 873.807 515.223 874.899 515.223C875.003 515.223 875.094 515.223 875.185 515.21C875.926 515.119 876.342 514.716 876.433 514.053H877.408ZM873.209 512.155L873.287 512.246H876.485C876.433 510.92 875.952 510.322 874.86 510.322C873.742 510.322 873.222 511.037 873.209 512.155ZM880.286 512.337V515.951H879.259V509.607H880.286V510.803C880.689 509.919 881.43 509.477 882.34 509.477C883.718 509.477 884.472 510.205 884.472 511.739V515.951H883.458V511.947C883.458 510.894 883.029 510.361 882.002 510.361C881.053 510.361 880.286 511.089 880.286 512.337ZM887.548 512.337V515.951H886.521V506.461H887.548V510.829C887.951 509.919 888.692 509.477 889.602 509.477C890.993 509.477 891.734 510.205 891.734 511.739V515.951H890.72V511.947C890.72 510.894 890.291 510.361 889.264 510.361C888.315 510.361 887.548 511.089 887.548 512.337ZM897.383 515.951V515.067C897.058 515.743 896.46 516.081 895.433 516.081C894.12 516.081 893.392 515.431 893.392 514.391V514.001C893.392 513.078 893.99 512.402 895.628 512.402H897.383V511.869C897.383 510.777 897.006 510.361 895.992 510.361C895.069 510.361 894.666 510.803 894.588 511.44H893.6C893.756 510.27 894.471 509.477 896.083 509.477C897.643 509.477 898.397 510.192 898.397 511.739V515.951H897.383ZM895.732 515.34C896.785 515.34 897.383 514.859 897.383 513.676V513.052H895.719C894.744 513.052 894.406 513.416 894.406 514.014V514.287C894.406 514.976 894.835 515.34 895.732 515.34Z" fill="#08394D"/>
<path d="M806.922 517.706H899.385V518.356H806.922V517.706Z" fill="#08394D"/>
<path d="M610.903 672.681C608.327 672.681 606.695 671.289 606.695 668.585V665.273C606.695 662.569 608.327 661.161 610.903 661.161C613.463 661.161 615.095 662.569 615.095 665.257V668.585C615.095 671.273 613.463 672.681 610.903 672.681ZM610.903 662.249C608.903 662.249 607.975 663.433 607.975 665.273V668.601C607.975 670.409 608.903 671.593 610.903 671.593C612.887 671.593 613.831 670.409 613.831 668.569V665.257C613.831 663.433 612.887 662.249 610.903 662.249ZM622.364 672.521V670.953C621.916 672.137 621.036 672.681 619.884 672.681C618.204 672.681 617.308 671.801 617.308 669.945V664.713H618.556V669.689C618.556 670.985 619.084 671.641 620.3 671.641C621.436 671.641 622.364 670.745 622.364 669.209V664.713H623.628V672.521H622.364ZM636.516 670.185C636.34 671.801 635.14 672.681 633.364 672.681C631.38 672.681 630.052 671.513 630.052 669.225V668.009C630.052 665.721 631.364 664.553 633.38 664.553C635.316 664.553 636.564 665.737 636.564 668.041V668.761H631.348C631.348 669.017 631.364 669.273 631.38 669.513C631.444 670.825 632.084 671.625 633.428 671.625C633.556 671.625 633.668 671.625 633.78 671.609C634.692 671.497 635.204 671.001 635.316 670.185H636.516ZM631.348 667.849L631.444 667.961H635.38C635.316 666.329 634.724 665.593 633.38 665.593C632.004 665.593 631.364 666.473 631.348 667.849ZM640.059 668.073V672.521H638.795V664.713H640.059V666.185C640.555 665.097 641.467 664.553 642.587 664.553C644.283 664.553 645.211 665.449 645.211 667.337V672.521H643.963V667.593C643.963 666.297 643.435 665.641 642.171 665.641C641.003 665.641 640.059 666.537 640.059 668.073ZM651.636 671.545V672.601H650.5C648.772 672.601 648.052 671.881 648.052 670.201V665.769H646.836V664.713H648.052V662.409H649.3V664.713H651.636V665.769H649.3V670.217C649.3 671.097 649.668 671.545 650.724 671.545H651.636ZM654.746 668.153V672.521H653.482V664.713H654.746V666.089C655.242 665.049 656.074 664.553 657.114 664.553H657.498V665.769H657.082C655.706 665.769 654.746 666.585 654.746 668.153ZM663.367 672.521V671.433C662.967 672.265 662.231 672.681 660.967 672.681C659.351 672.681 658.455 671.881 658.455 670.601V670.121C658.455 668.985 659.191 668.153 661.207 668.153H663.367V667.497C663.367 666.153 662.903 665.641 661.655 665.641C660.519 665.641 660.023 666.185 659.927 666.969H658.711C658.903 665.529 659.783 664.553 661.767 664.553C663.687 664.553 664.615 665.433 664.615 667.337V672.521H663.367ZM661.335 671.769C662.631 671.769 663.367 671.177 663.367 669.721V668.953H661.319C660.119 668.953 659.703 669.401 659.703 670.137V670.473C659.703 671.321 660.231 671.769 661.335 671.769ZM668.402 668.153V672.521H667.138V664.713H668.402V666.089C668.898 665.049 669.73 664.553 670.77 664.553H671.154V665.769H670.738C669.362 665.769 668.402 666.585 668.402 668.153ZM679.817 671.593C680.953 671.593 681.497 671.113 681.689 670.089H682.889C682.649 671.801 681.529 672.681 679.785 672.681C677.817 672.681 676.521 671.513 676.521 669.241V668.025C676.521 665.721 677.833 664.553 679.801 664.553C681.689 664.553 682.713 665.593 682.809 667.161H681.593C681.449 666.169 680.873 665.641 679.801 665.641C678.409 665.641 677.801 666.537 677.801 668.041V669.209C677.801 670.697 678.441 671.593 679.817 671.593ZM687.755 672.681C685.723 672.681 684.411 671.513 684.411 669.225V668.009C684.411 665.721 685.723 664.553 687.755 664.553C689.787 664.553 691.115 665.721 691.115 668.009V669.225C691.115 671.513 689.787 672.681 687.755 672.681ZM687.755 665.641C686.331 665.641 685.691 666.585 685.691 668.009V669.209C685.691 670.665 686.331 671.593 687.755 671.593C689.179 671.593 689.835 670.665 689.835 669.209V668.009C689.835 666.585 689.179 665.641 687.755 665.641ZM694.637 668.073V672.521H693.373V664.713H694.637V666.201C695.117 665.097 696.029 664.553 697.133 664.553C698.381 664.553 699.181 665.097 699.469 666.217C699.981 665.113 700.941 664.553 702.125 664.553C703.741 664.553 704.621 665.449 704.621 667.337V672.521H703.357V667.593C703.357 666.297 702.877 665.641 701.709 665.641C700.557 665.641 699.629 666.537 699.629 668.073V672.521H698.365V667.593C698.365 666.297 697.885 665.641 696.717 665.641C695.565 665.641 694.637 666.537 694.637 668.073ZM710.146 672.681C708.114 672.681 706.802 671.513 706.802 669.225V668.009C706.802 665.721 708.114 664.553 710.146 664.553C712.178 664.553 713.506 665.721 713.506 668.009V669.225C713.506 671.513 712.178 672.681 710.146 672.681ZM710.146 665.641C708.722 665.641 708.082 666.585 708.082 668.009V669.209C708.082 670.665 708.722 671.593 710.146 671.593C711.57 671.593 712.226 670.665 712.226 669.209V668.009C712.226 666.585 711.57 665.641 710.146 665.641ZM723.264 672.521H721.824L718.944 664.713H720.288L722.576 671.225L724.864 664.713H726.16L723.264 672.521ZM728.434 663.193C727.938 663.193 727.554 662.841 727.554 662.377C727.554 661.913 727.938 661.561 728.434 661.561C728.962 661.561 729.33 661.913 729.33 662.377C729.33 662.841 728.962 663.193 728.434 663.193ZM727.81 672.521V664.713H729.074V672.521H727.81ZM734.229 665.529C733.093 665.529 732.645 665.929 732.645 666.729C732.645 667.465 733.029 667.721 734.037 667.961L735.045 668.185C736.837 668.585 737.493 669.065 737.493 670.377C737.493 671.865 736.469 672.681 734.469 672.681C732.453 672.681 731.349 671.849 731.173 670.025H732.357C732.485 671.209 733.141 671.721 734.501 671.721C735.749 671.721 736.245 671.257 736.245 670.457C736.245 669.641 735.909 669.433 734.677 669.145L733.573 668.921C732.117 668.617 731.397 668.073 731.397 666.761C731.397 665.449 732.277 664.553 734.229 664.553C736.293 664.553 737.237 665.449 737.317 667.049H736.117C736.021 666.009 735.477 665.529 734.229 665.529ZM740.184 663.193C739.688 663.193 739.304 662.841 739.304 662.377C739.304 661.913 739.688 661.561 740.184 661.561C740.712 661.561 741.08 661.913 741.08 662.377C741.08 662.841 740.712 663.193 740.184 663.193ZM739.56 672.521V664.713H740.824V672.521H739.56ZM747.355 671.545V672.601H746.219C744.491 672.601 743.771 671.881 743.771 670.201V665.769H742.555V664.713H743.771V662.409H745.019V664.713H747.355V665.769H745.019V670.217C745.019 671.097 745.387 671.545 746.443 671.545H747.355ZM753.554 672.521V671.433C753.154 672.265 752.418 672.681 751.154 672.681C749.538 672.681 748.642 671.881 748.642 670.601V670.121C748.642 668.985 749.378 668.153 751.394 668.153H753.554V667.497C753.554 666.153 753.09 665.641 751.842 665.641C750.706 665.641 750.21 666.185 750.114 666.969H748.898C749.09 665.529 749.97 664.553 751.954 664.553C753.874 664.553 754.802 665.433 754.802 667.337V672.521H753.554ZM751.522 671.769C752.818 671.769 753.554 671.177 753.554 669.721V668.953H751.506C750.306 668.953 749.89 669.401 749.89 670.137V670.473C749.89 671.321 750.418 671.769 751.522 671.769ZM758.59 668.073V672.521H757.326V664.713H758.59V666.185C759.086 665.097 759.998 664.553 761.118 664.553C762.814 664.553 763.742 665.449 763.742 667.337V672.521H762.494V667.593C762.494 666.297 761.966 665.641 760.702 665.641C759.534 665.641 758.59 666.537 758.59 668.073ZM770.167 671.545V672.601H769.031C767.303 672.601 766.583 671.881 766.583 670.201V665.769H765.367V664.713H766.583V662.409H767.831V664.713H770.167V665.769H767.831V670.217C767.831 671.097 768.199 671.545 769.255 671.545H770.167ZM777.86 670.185C777.684 671.801 776.484 672.681 774.708 672.681C772.724 672.681 771.396 671.513 771.396 669.225V668.009C771.396 665.721 772.708 664.553 774.724 664.553C776.66 664.553 777.908 665.737 777.908 668.041V668.761H772.692C772.692 669.017 772.708 669.273 772.724 669.513C772.788 670.825 773.428 671.625 774.772 671.625C774.9 671.625 775.012 671.625 775.124 671.609C776.036 671.497 776.548 671.001 776.66 670.185H777.86ZM772.692 667.849L772.788 667.961H776.724C776.66 666.329 776.068 665.593 774.724 665.593C773.348 665.593 772.708 666.473 772.692 667.849Z" fill="#08394D"/>
<path d="M605.623 674.681H778.82V675.481H605.623V674.681Z" fill="#08394D"/>
<g filter="url(#filter1_d_1603_2547)">
<path d="M683.718 75.1109C683.718 75.1109 682.477 71.8701 678.558 69.4393C674.64 67.0084 670.231 67.3717 670.231 67.3717C670.231 67.3717 661.234 45.8298 635.036 45C613.934 45.1896 601.153 59.1161 596.796 73.6867C591.501 91.3947 598.734 107.046 607.835 115.659C627.006 133.255 647.535 123.782 647.535 123.782C647.535 123.782 658.144 133.444 662.41 137.238C666.29 140.392 670.465 141.943 673.788 141.899C677.111 141.855 679.942 140.556 681.873 138.997C685.736 135.878 688.326 131.758 687.981 126.843C691.89 126.517 697.875 124.876 702.493 120.97C707.152 124.543 713.18 126.511 718.812 126.925C724.444 127.34 733.169 127.605 739.615 122.927C745.479 126.298 749.419 126.699 756.615 127.109C763.811 127.518 773.01 125.244 777.331 122.056C780.889 124.614 784.128 125.896 788.478 126.711C792.828 127.525 799.487 126.921 802.99 125.411C809.41 127.436 817.086 127.41 822.611 126.56C828.135 125.71 833.359 123.773 837.093 120.655C840.827 117.537 842.894 113.996 843.632 109.435C844.37 104.874 843.525 99.9134 840.383 96.1493C840.806 95.7386 844.996 92.8899 845 85.9694C844.979 76.198 835.651 71.6378 835.651 71.6378C835.651 71.6378 831.098 68.7185 824.175 67.7678C817.251 66.8172 812.484 67.718 812.484 67.718C812.484 67.718 810.43 65.7249 806.451 64.492C803.627 63.6172 801.078 63.4873 799.329 63.3437C799.168 58.9461 798.056 53.9882 795.291 50.4372C792.526 46.8862 788.925 45.1665 783.957 45.0252C781.228 44.9476 778.829 45.504 776.74 46.5993C774.787 47.6235 773.884 48.0647 771.521 51.0978C769.157 54.1309 767.576 58.8656 766.964 63.6975C764.182 64.1511 760.478 64.5323 756.758 67.4924C750.968 68.0021 748.803 68.9753 746.778 69.712C743.253 71.0842 740.313 73.3011 740.313 73.3011C740.313 73.3011 733.821 67.5611 723.466 67.3981C713.622 66.9315 707.077 70.9468 707.077 70.9468C707.077 70.9468 702.413 66.2792 694.643 67.5178C685.925 68.5098 683.718 75.1109 683.718 75.1109Z" fill="#F8FBFC"/>
</g>
<path d="M815.229 120.017C809.537 120.017 805.01 119.079 801.646 117.204C798.283 115.328 796.601 112.902 796.601 109.927C796.601 107.857 797.28 106.337 798.638 105.367C800.061 104.332 801.743 103.814 803.684 103.814C805.236 103.814 806.368 104.073 807.079 104.59C807.856 105.108 808.535 105.625 809.117 106.143C809.699 106.66 810.411 106.919 811.251 106.919C812.61 106.919 813.289 106.434 813.289 105.464C813.289 104.17 812.513 103.232 810.96 102.65C809.473 102.068 807.597 101.259 805.333 100.224C802.228 98.7367 799.997 97.0226 798.638 95.0821C797.28 93.077 796.601 91.0394 796.601 88.9696C796.601 86.5117 797.474 84.1831 799.22 81.9839C800.967 79.7847 803.425 77.9736 806.594 76.5505C809.828 75.1275 813.677 74.416 818.14 74.416C821.892 74.416 825.255 74.9335 828.231 75.9684C831.206 77.0033 833.567 78.4263 835.313 80.2374C837.06 81.9839 837.933 83.9244 837.933 86.0589C837.933 88.064 837.286 89.5841 835.993 90.619C834.699 91.6539 833.017 92.1714 830.947 92.1714C829.783 92.1714 828.845 92.0097 828.134 91.6863C827.487 91.2982 826.872 90.9424 826.29 90.619C825.773 90.2956 825.029 90.1339 824.059 90.1339C823.541 90.1339 823.088 90.3279 822.7 90.716C822.312 91.0394 822.118 91.4599 822.118 91.9773C822.118 92.3654 822.28 92.7535 822.603 93.1416C822.927 93.5297 823.476 93.8531 824.253 94.1119C826.258 94.7587 828.198 95.5996 830.074 96.6345C832.015 97.6047 833.599 98.8984 834.828 100.515C836.122 102.068 836.769 104.073 836.769 106.531C836.769 110.735 834.796 114.034 830.85 116.427C826.905 118.821 821.698 120.017 815.229 120.017Z" fill="#F18322"/>
<path d="M816.292 76.9126C815.167 76.8743 814.052 77.2199 813.321 77.5006C812.893 77.6647 812.402 78.1461 812.393 78.8618C812.401 79.7693 813.191 80.33 813.85 80.313C814.377 80.2994 814.896 79.9835 815.642 79.8557C816.294 79.8154 816.164 79.8156 817.202 79.8476C817.985 79.8717 818.697 79.1539 818.651 78.3914C818.605 77.6289 818.25 76.867 816.292 76.9126Z" fill="#F49E52"/>
<path d="M792.65 120.017C790.386 120.017 788.09 119.564 785.761 118.659C783.433 117.753 781.331 116.427 779.455 114.681C777.644 112.934 776.318 110.832 775.477 108.374C774.895 106.757 774.474 104.752 774.216 102.358C773.957 99.9652 773.763 97.4103 773.633 94.6936C773.569 91.9769 773.536 89.3249 773.536 86.7376C771.014 86.673 768.588 86.4466 766.259 86.0585C763.996 85.6704 762.12 84.9589 760.632 83.924C759.209 82.8243 758.498 81.2396 758.498 79.1698C758.498 76.6472 759.177 74.7714 760.535 73.5424C761.893 72.2487 763.705 71.4079 765.968 71.0198C768.297 70.567 770.82 70.3083 773.536 70.2436C773.601 68.2384 773.763 66.2009 774.021 64.1311C774.345 61.9965 774.862 60.0237 775.574 58.2126C776.285 56.4015 777.288 54.9461 778.581 53.8465C779.875 52.6822 781.557 52.1001 783.627 52.1001C786.408 52.1001 788.413 52.9733 789.642 54.7197C790.936 56.4662 791.744 58.7301 792.068 61.5114C792.391 64.2928 792.521 67.2035 792.456 70.2436C795.819 70.1789 798.795 70.3082 801.382 70.6317C803.969 70.9551 806.007 71.6666 807.495 72.7662C808.982 73.8658 809.726 75.6122 809.726 78.0055C809.726 80.4634 808.885 82.3069 807.204 83.5359C805.522 84.7648 803.323 85.6057 800.606 86.0585C797.889 86.4466 795.011 86.673 791.971 86.7376C791.971 87.9666 791.938 89.2603 791.874 90.6186C791.874 91.9122 791.874 93.2382 791.874 94.5966C791.874 98.2835 792.132 100.903 792.65 102.456C793.038 103.62 793.555 104.364 794.202 104.687C794.914 105.01 795.787 105.205 796.822 105.269C797.857 105.269 799.118 105.463 800.606 105.851C802.094 106.175 803.258 106.983 804.099 108.277C804.94 109.506 805.36 111.091 805.36 113.031C805.36 115.23 804.196 116.944 801.867 118.173C799.603 119.402 796.531 120.017 792.65 120.017Z" fill="#BE0503"/>
<path d="M779.202 65.7287C779.394 65.4953 779.391 65.3563 779.416 65.1399C779.412 62.5249 780.098 59.6033 782.773 56.5669C783.042 56.2648 783.255 55.419 782.406 54.882C781.161 54.2556 780.684 54.7542 779.449 56.5252C777.484 59.2419 776.581 62.4705 776.752 65.1147C776.81 65.3629 776.903 65.6356 777.364 65.9744C778.267 66.5274 779.051 65.9868 779.202 65.7287Z" fill="#F43634"/>
<path d="M796.862 86.7461C797.563 86.7106 798.257 86.6684 798.94 86.6147C799.66 86.5581 800.369 86.4914 801.068 86.4146C801.768 86.3377 802.457 86.2501 803.136 86.1531C803.476 86.0965 803.807 86.0342 804.131 85.9654C804.454 85.8967 804.769 85.8223 805.077 85.7415C805.384 85.6606 805.684 85.573 805.975 85.48C806.266 85.387 806.548 85.2886 806.823 85.1835C807.098 85.0784 807.365 84.9667 807.624 84.8495C807.883 84.7322 808.133 84.6098 808.376 84.4804C808.618 84.351 808.852 84.2153 809.079 84.0738C809.305 83.9323 809.524 83.7846 809.734 83.6309C809.839 83.5541 809.941 83.4749 810.04 83.3932C810.138 83.3116 810.234 83.2282 810.326 83.1418C810.418 83.0554 810.506 82.9665 810.591 82.8753C810.677 82.7841 810.759 82.6898 810.838 82.5938C810.917 82.4978 810.992 82.3994 811.064 82.2986C811.137 82.1977 811.206 82.0952 811.272 81.9895C811.338 81.8839 811.399 81.7759 811.458 81.6655C811.517 81.5551 811.573 81.4417 811.626 81.3265C811.679 81.2113 811.728 81.0937 811.774 80.9737C811.82 80.8537 811.863 80.7319 811.902 80.6071C811.942 80.4823 811.977 80.3539 812.01 80.2243C812.043 80.0947 812.073 79.9634 812.099 79.8289C812.125 79.6945 812.148 79.5578 812.168 79.4186C812.187 79.2794 812.205 79.1373 812.218 78.9932C812.231 78.8492 812.24 78.7029 812.246 78.5541C812.253 78.4053 812.257 78.2536 812.257 78.1C812.257 77.9504 812.253 77.8041 812.248 77.6596C812.242 77.5151 812.233 77.3725 812.221 77.233C812.21 77.0935 812.196 76.9571 812.179 76.8226C812.161 76.6882 812.141 76.5567 812.118 76.4273C812.094 76.2979 812.068 76.1713 812.039 76.047C812.01 75.9227 811.977 75.7997 811.942 75.6804C811.908 75.5612 811.87 75.4456 811.83 75.3314C811.789 75.2172 811.745 75.1052 811.698 74.9961C810.908 75.1488 810.142 75.3283 809.404 75.5416C809.409 75.5572 809.416 75.5709 809.42 75.5866C809.49 75.8251 809.548 76.0735 809.594 76.3322C809.641 76.591 809.676 76.8602 809.699 77.1392C809.723 77.4181 809.734 77.707 809.734 78.0062C809.734 78.3134 809.72 78.6114 809.694 78.8994C809.668 79.1875 809.629 79.4651 809.577 79.7339C809.524 80.0027 809.458 80.2624 809.379 80.512C809.3 80.7617 809.209 81.0022 809.104 81.2326C809.051 81.3479 808.995 81.46 808.936 81.5704C808.877 81.6808 808.814 81.7888 808.748 81.8945C808.683 82.0001 808.614 82.1039 808.542 82.2047C808.47 82.3055 808.394 82.404 808.315 82.5C808.237 82.596 808.154 82.689 808.069 82.7802C807.984 82.8714 807.895 82.9603 807.803 83.0467C807.619 83.2195 807.422 83.3835 807.212 83.5371C807.002 83.6907 806.783 83.8372 806.556 83.9787C806.33 84.1202 806.096 84.256 805.853 84.3853C805.611 84.5147 805.36 84.6384 805.102 84.7556C804.843 84.8729 804.576 84.9833 804.301 85.0884C804.026 85.1935 803.742 85.2932 803.451 85.3862C803.16 85.4792 802.862 85.5655 802.554 85.6464C802.247 85.7272 801.932 85.8029 801.609 85.8716C801.285 85.9403 800.954 86.0027 800.614 86.0593C799.935 86.1563 799.245 86.2427 798.546 86.3195C798.013 86.378 797.468 86.4253 796.923 86.4721C796.9 86.5631 796.883 86.6547 796.862 86.7461Z" fill="#DF5D0E"/>
<path d="M804.213 118.363C804.274 118.332 804.336 118.301 804.395 118.268C804.541 118.191 804.682 118.114 804.818 118.033C804.955 117.952 805.087 117.87 805.215 117.785C805.342 117.701 805.464 117.614 805.583 117.526C805.701 117.438 805.815 117.348 805.924 117.256C806.033 117.164 806.138 117.07 806.238 116.975C806.338 116.879 806.434 116.781 806.525 116.682C806.616 116.582 806.702 116.48 806.784 116.377C806.865 116.273 806.942 116.168 807.015 116.061C807.088 115.954 807.157 115.846 807.22 115.735C807.284 115.624 807.343 115.51 807.398 115.396C807.452 115.281 807.502 115.165 807.548 115.047C807.593 114.928 807.634 114.807 807.671 114.685C807.707 114.563 807.738 114.438 807.766 114.312C807.793 114.186 807.816 114.058 807.834 113.928C807.853 113.798 807.865 113.667 807.875 113.533C807.884 113.399 807.888 113.264 807.888 113.126C807.888 112.884 807.883 112.647 807.869 112.416C807.856 112.184 807.836 111.958 807.809 111.738C807.783 111.517 807.751 111.303 807.712 111.093C807.672 110.884 807.626 110.681 807.573 110.483C807.52 110.285 807.461 110.092 807.395 109.905C807.33 109.718 807.258 109.536 807.179 109.361C807.1 109.185 807.014 109.015 806.922 108.85C806.83 108.685 806.732 108.526 806.627 108.372C806.522 108.211 806.412 108.056 806.297 107.909C806.182 107.763 806.062 107.624 805.937 107.493C805.811 107.361 805.68 107.237 805.545 107.121C805.409 107.005 805.269 106.897 805.123 106.796C804.978 106.695 804.827 106.602 804.672 106.516C804.516 106.43 804.356 106.351 804.19 106.28C804.024 106.21 803.853 106.146 803.677 106.09C803.501 106.035 803.32 105.987 803.134 105.946C802.762 105.849 802.404 105.765 802.061 105.692C801.717 105.62 801.388 105.558 801.072 105.51C800.757 105.461 800.456 105.425 800.169 105.401C800.026 105.389 799.885 105.38 799.749 105.373C799.612 105.367 799.48 105.365 799.351 105.365C799.138 105.351 798.936 105.329 798.737 105.305C798.706 105.326 798.674 105.345 798.644 105.367C798.62 105.384 798.598 105.403 798.574 105.421C798.882 105.469 799.203 105.526 799.539 105.597C799.882 105.67 800.24 105.756 800.612 105.853C800.798 105.893 800.979 105.941 801.155 105.997C801.331 106.052 801.501 106.115 801.667 106.185C801.832 106.256 801.994 106.335 802.15 106.421C802.305 106.507 802.456 106.6 802.601 106.701C802.747 106.802 802.887 106.911 803.023 107.027C803.158 107.144 803.288 107.268 803.413 107.399C803.538 107.53 803.659 107.669 803.775 107.816C803.89 107.962 804 108.117 804.105 108.278C804.21 108.432 804.308 108.59 804.4 108.755C804.492 108.92 804.578 109.091 804.657 109.267C804.735 109.443 804.807 109.624 804.873 109.811C804.939 109.998 804.998 110.19 805.051 110.388C805.103 110.586 805.149 110.79 805.188 111C805.228 111.209 805.261 111.424 805.287 111.644C805.314 111.864 805.333 112.089 805.346 112.321C805.359 112.552 805.366 112.79 805.366 113.033C805.366 113.17 805.361 113.305 805.352 113.439C805.343 113.573 805.329 113.705 805.311 113.834C805.293 113.964 805.271 114.092 805.243 114.219C805.216 114.345 805.183 114.468 805.147 114.59C805.111 114.712 805.07 114.833 805.024 114.952C804.979 115.07 804.929 115.187 804.874 115.302C804.82 115.417 804.762 115.529 804.698 115.64C804.634 115.751 804.566 115.86 804.493 115.967C804.42 116.075 804.343 116.179 804.261 116.283C804.179 116.386 804.092 116.487 804.001 116.587C803.91 116.686 803.815 116.785 803.715 116.881C803.615 116.977 803.51 117.07 803.401 117.162C803.291 117.254 803.179 117.344 803.06 117.432C802.942 117.521 802.819 117.607 802.691 117.691C802.679 117.699 802.664 117.706 802.652 117.714C803.149 117.949 803.671 118.164 804.213 118.363Z" fill="#DF5D0E"/>
<path d="M773.559 89.0739C773.778 89.0716 773.996 89.0682 774.208 89.0539C774.464 89.0371 774.714 89.0123 774.957 88.9788C775.201 88.9452 775.438 88.9029 775.669 88.8525C775.9 88.8021 776.125 88.7433 776.343 88.6761C776.562 88.6088 776.773 88.5336 776.979 88.4496C777.185 88.3657 777.384 88.2727 777.577 88.1719C777.77 88.0711 777.957 87.9629 778.137 87.8454C778.318 87.7278 778.492 87.6007 778.66 87.4663C778.828 87.3319 778.986 87.1898 779.133 87.0397C779.28 86.8896 779.416 86.7326 779.542 86.5668C779.668 86.4009 779.784 86.2267 779.889 86.0451C779.994 85.8635 780.088 85.6744 780.172 85.4771C780.256 85.2798 780.33 85.0747 780.393 84.8616C780.456 84.6485 780.509 84.4273 780.551 84.1985C780.593 83.9697 780.624 83.7325 780.645 83.4879C780.666 83.2433 780.676 82.9913 780.676 82.731C780.676 82.4539 780.662 82.1799 780.633 81.9091C780.605 81.6383 780.562 81.3704 780.506 81.1059C780.449 80.8414 780.378 80.5797 780.293 80.3215C780.208 80.0632 780.11 79.809 779.997 79.5571C779.883 79.3051 779.755 79.0558 779.614 78.8102C779.472 78.5646 779.316 78.3214 779.146 78.0821C778.976 77.8427 778.791 77.607 778.593 77.374C778.394 77.1409 778.181 76.9114 777.955 76.6846C777.728 76.4495 777.492 76.2203 777.245 75.9978C776.999 75.7753 776.741 75.5597 776.475 75.3497C776.208 75.1398 775.932 74.9353 775.645 74.738C775.359 74.5406 775.062 74.3497 774.756 74.165C774.449 73.9802 774.133 73.8017 773.806 73.6295C773.48 73.4574 773.143 73.2924 772.797 73.1329C772.45 72.9733 772.095 72.8194 771.728 72.6725C771.362 72.5255 770.985 72.3852 770.599 72.2509C770.212 72.1165 769.82 71.9906 769.421 71.873C769.022 71.7555 768.617 71.646 768.205 71.5453C767.794 71.4444 767.377 71.3515 766.953 71.2675C766.561 71.19 766.163 71.1218 765.761 71.0586C763.599 71.4626 761.858 72.2868 760.544 73.5382C759.185 74.7672 758.506 76.6429 758.506 79.1655C758.506 81.2353 759.217 82.8199 760.64 83.9195C762.128 84.9544 764.003 85.6657 766.267 86.0538C768.596 86.4419 771.022 86.6685 773.545 86.7332C773.545 87.5038 773.553 88.2919 773.559 89.0739Z" fill="#9C0402"/>
<path d="M776.847 111.337C776.92 111.251 776.998 111.167 777.068 111.079C777.228 110.88 777.381 110.677 777.525 110.47C777.669 110.263 777.805 110.052 777.933 109.838C778.061 109.624 778.181 109.406 778.293 109.185C778.405 108.963 778.51 108.738 778.606 108.509C778.702 108.281 778.79 108.047 778.87 107.811C778.95 107.575 779.022 107.335 779.086 107.092C779.15 106.848 779.206 106.601 779.254 106.35C779.302 106.099 779.342 105.845 779.374 105.587C779.406 105.329 779.429 105.067 779.445 104.801C779.461 104.536 779.47 104.266 779.47 103.993C779.47 103.674 779.459 103.363 779.438 103.059C779.417 102.754 779.386 102.456 779.344 102.167C779.302 101.877 779.249 101.595 779.186 101.32C779.123 101.045 779.05 100.777 778.966 100.516C778.882 100.256 778.787 100.004 778.682 99.7582C778.577 99.5126 778.463 99.2735 778.337 99.0426C778.211 98.8117 778.073 98.5883 777.926 98.372C777.779 98.1558 777.623 97.9468 777.455 97.7452C777.295 97.5353 777.129 97.3304 776.958 97.131C776.787 96.9315 776.61 96.7382 776.428 96.5492C776.245 96.3603 776.056 96.176 775.862 95.9975C775.668 95.8191 775.469 95.6463 775.263 95.4783C775.057 95.3104 774.846 95.1479 774.629 94.9904C774.411 94.833 774.188 94.6807 773.959 94.5338C773.855 94.4667 773.745 94.4047 773.638 94.3398C773.64 94.4574 773.641 94.5711 773.643 94.6889C773.773 97.4056 773.968 99.9609 774.226 102.354C774.485 104.747 774.905 106.752 775.488 108.369C775.849 109.425 776.306 110.412 776.847 111.337Z" fill="#9C0402"/>
<path d="M757.403 120.017C751.711 120.017 747.183 119.079 743.82 117.204C740.456 115.328 738.775 112.902 738.775 109.927C738.775 107.857 739.454 106.337 740.812 105.367C742.235 104.332 743.917 103.814 745.857 103.814C747.41 103.814 748.542 104.073 749.253 104.59C750.029 105.108 750.708 105.625 751.291 106.143C751.873 106.66 752.584 106.919 753.425 106.919C754.783 106.919 755.463 106.434 755.463 105.464C755.463 104.17 754.686 103.232 753.134 102.65C751.646 102.068 749.771 101.259 747.507 100.224C744.402 98.7367 742.17 97.0226 740.812 95.0821C739.454 93.077 738.775 91.0394 738.775 88.9696C738.775 86.5117 739.648 84.1831 741.394 81.9839C743.141 79.7847 745.599 77.9736 748.768 76.5505C752.002 75.1275 755.851 74.416 760.314 74.416C764.065 74.416 767.429 74.9335 770.404 75.9684C773.38 77.0033 775.741 78.4263 777.487 80.2374C779.233 81.9839 780.107 83.9244 780.107 86.0589C780.107 88.064 779.46 89.5841 778.166 90.619C776.873 91.6539 775.191 92.1714 773.121 92.1714C771.957 92.1714 771.019 92.0097 770.307 91.6863C769.66 91.2982 769.046 90.9424 768.464 90.619C767.946 90.2956 767.203 90.1339 766.232 90.1339C765.715 90.1339 765.262 90.3279 764.874 90.716C764.486 91.0394 764.292 91.4599 764.292 91.9773C764.292 92.3654 764.454 92.7535 764.777 93.1416C765.1 93.5297 765.65 93.8531 766.426 94.1119C768.432 94.7587 770.372 95.5996 772.248 96.6345C774.188 97.6047 775.773 98.8984 777.002 100.515C778.296 102.068 778.942 104.073 778.942 106.531C778.942 110.735 776.97 114.034 773.024 116.427C769.078 118.821 763.871 120.017 757.403 120.017Z" fill="#03A64B"/>
<path d="M747.997 83.0376C748.331 83.0329 748.454 82.9332 748.665 82.8034C751.018 80.9731 754.089 79.4983 758.536 79.5853C758.98 79.5959 759.879 79.1816 759.818 78.105C759.586 76.6404 758.831 76.5945 756.446 76.8126C752.741 77.0884 749.255 78.5984 746.982 80.5862C746.796 80.8078 746.609 81.0746 746.599 81.6919C746.68 82.8238 747.669 83.0934 747.997 83.0376Z" fill="#0DCF63"/>
<path d="M743.261 97.646C743.342 97.5528 743.427 97.4637 743.506 97.3683C743.709 97.1229 743.903 96.8713 744.091 96.6114C744.185 96.477 744.277 96.3399 744.365 96.201C744.454 96.0621 744.539 95.9203 744.622 95.7769C744.704 95.6335 744.783 95.4882 744.86 95.3403C744.936 95.1924 745.009 95.0423 745.08 94.8899C745.15 94.7376 745.218 94.5826 745.282 94.4258C745.347 94.2689 745.41 94.1104 745.469 93.9491C745.528 93.7878 745.583 93.6245 745.636 93.4587C745.689 93.2929 745.738 93.1248 745.785 92.9545C745.832 92.7842 745.877 92.6114 745.918 92.4366C745.959 92.2618 745.998 92.0854 746.033 91.9061C746.068 91.7269 746.1 91.5444 746.129 91.3607C746.159 91.1769 746.186 90.9922 746.209 90.804C746.233 90.6157 746.253 90.4249 746.271 90.2322C746.288 90.0395 746.304 89.8439 746.316 89.6467C746.327 89.4495 746.336 89.2504 746.342 89.0487C746.348 88.8471 746.351 88.6431 746.351 88.4369C746.351 88.2308 746.348 88.0261 746.34 87.8214C746.333 87.6167 746.322 87.4117 746.307 87.2084C746.293 87.0051 746.274 86.8023 746.252 86.6004C746.23 86.3984 746.205 86.1979 746.176 85.9974C746.147 85.7968 746.113 85.5972 746.077 85.3981C746.041 85.199 746.001 85.0003 745.957 84.8026C745.913 84.6049 745.866 84.4072 745.815 84.2108C745.765 84.0145 745.71 83.819 745.652 83.6241C745.593 83.4292 745.532 83.2359 745.466 83.0423C745.401 82.8488 745.332 82.6552 745.259 82.4631C745.186 82.271 745.109 82.0796 745.029 81.8889C744.948 81.6981 744.864 81.5077 744.777 81.3184C744.69 81.129 744.599 80.9408 744.504 80.7529C744.41 80.565 744.311 80.3777 744.209 80.1912C744.107 80.0046 744.002 79.8196 743.893 79.6345C743.871 79.5986 743.849 79.5627 743.828 79.5269C742.897 80.2848 742.075 81.1021 741.374 81.9852C740.936 82.5366 740.554 83.0965 740.226 83.6641C740.239 83.6868 740.253 83.709 740.267 83.7317C740.372 83.8974 740.474 84.0638 740.572 84.2309C740.671 84.3979 740.767 84.5655 740.859 84.7338C740.951 84.9021 741.039 85.0709 741.124 85.2405C741.209 85.41 741.292 85.5801 741.37 85.7509C741.449 85.9217 741.526 86.093 741.598 86.2651C741.67 86.4372 741.739 86.6097 741.805 86.783C741.87 86.9564 741.933 87.1314 741.992 87.306C742.051 87.4806 742.107 87.6556 742.16 87.8314C742.212 88.0073 742.261 88.1835 742.307 88.3606C742.353 88.5377 742.396 88.7152 742.435 88.8936C742.475 89.072 742.511 89.2506 742.544 89.4303C742.577 89.6099 742.606 89.7911 742.633 89.972C742.659 90.1529 742.682 90.334 742.702 90.5162C742.721 90.6984 742.737 90.8807 742.75 91.0642C742.764 91.2476 742.774 91.4325 742.78 91.6171C742.787 91.8018 742.791 91.9866 742.791 92.1726C742.791 92.5445 742.779 92.909 742.758 93.2648C742.737 93.6205 742.706 93.9674 742.663 94.3069C742.642 94.4767 742.618 94.6454 742.592 94.8111C742.565 94.9769 742.536 95.1398 742.504 95.3015C742.472 95.4632 742.438 95.623 742.4 95.7807C742.363 95.9384 742.323 96.095 742.28 96.2486C742.241 96.3921 742.198 96.5327 742.154 96.6727C742.493 97.005 742.863 97.3289 743.261 97.646Z" fill="#03834F"/>
<path d="M722.524 120.017C717.673 120.017 713.404 119.079 709.717 117.204C706.095 115.263 703.248 112.643 701.179 109.345C699.173 105.981 698.171 102.133 698.171 97.7988C698.171 93.5944 699.173 89.7135 701.179 86.1559C703.248 82.5984 706.062 79.7523 709.62 77.6178C713.242 75.4833 717.382 74.416 722.039 74.416C726.372 74.416 730.092 75.2892 733.197 77.0357C736.301 78.7821 738.662 81.0136 740.279 83.7303C741.961 86.3823 742.802 89.196 742.802 92.1714C742.802 95.1468 742.123 97.6047 740.764 99.5452C739.406 101.421 737.627 102.876 735.428 103.911C733.294 104.882 730.997 105.528 728.539 105.852C726.081 106.175 723.721 106.24 721.457 106.046C719.193 105.787 717.285 105.399 715.732 104.882C716.897 106.757 718.352 108.051 720.098 108.762C721.909 109.409 723.785 109.7 725.726 109.636C727.731 109.506 729.542 109.28 731.159 108.957C733.164 108.504 734.814 108.601 736.107 109.248C737.401 109.894 738.08 110.929 738.145 112.352C738.21 113.517 737.789 114.681 736.883 115.845C736.043 117.01 734.49 118.012 732.226 118.853C729.962 119.629 726.728 120.017 722.524 120.017ZM716.023 93.0446C716.67 94.0795 717.608 94.8234 718.837 95.2762C720.066 95.6643 721.295 95.7936 722.524 95.6643C723.818 95.5349 724.885 95.1791 725.726 94.597C726.631 94.0148 727.084 93.2063 727.084 92.1714C727.084 91.0718 726.631 90.1015 725.726 89.2607C724.885 88.3551 723.526 87.9023 721.651 87.9023C719.84 87.9023 718.449 88.4845 717.479 89.6488C716.508 90.7484 716.023 91.8803 716.023 93.0446Z" fill="#BE2C53"/>
<path d="M712.21 82.112C712.572 82.1332 712.712 82.0433 712.951 81.9302C715.629 80.2868 719.103 79.1277 723.925 79.5598C724.406 79.6049 725.369 79.1875 725.376 78.1086C725.224 76.6293 724.408 76.5248 721.803 76.5573C717.763 76.5447 713.876 77.7805 711.274 79.5874C711.057 79.794 710.837 80.0456 710.784 80.6608C710.794 81.7963 711.849 82.1422 712.21 82.112Z" fill="#DE728F"/>
<path d="M703.598 112.393C703.75 112.213 703.902 112.033 704.05 111.847C704.22 111.632 704.386 111.414 704.55 111.192C704.714 110.969 704.874 110.743 705.03 110.514C705.187 110.284 705.34 110.05 705.49 109.813C705.639 109.576 705.785 109.334 705.927 109.09C706.07 108.845 706.208 108.597 706.343 108.345C706.478 108.094 706.61 107.839 706.738 107.58C706.866 107.321 706.99 107.057 707.111 106.79C707.232 106.524 707.35 106.254 707.464 105.98C707.577 105.701 707.687 105.421 707.794 105.138C707.901 104.854 708.003 104.568 708.103 104.279C708.203 103.991 708.3 103.699 708.392 103.405C708.484 103.111 708.573 102.815 708.658 102.515C708.744 102.216 708.825 101.914 708.904 101.61C708.982 101.305 709.056 100.997 709.128 100.688C709.199 100.378 709.266 100.066 709.33 99.7506C709.394 99.4355 709.455 99.1176 709.512 98.7973C709.569 98.477 709.622 98.1546 709.672 97.829C709.722 97.5034 709.768 97.174 709.811 96.8431C709.853 96.5123 709.893 96.1797 709.928 95.8435C709.964 95.5074 709.995 95.1678 710.023 94.8264C710.052 94.485 710.077 94.141 710.098 93.7943C710.12 93.4476 710.138 93.0991 710.152 92.7471C710.166 92.3952 710.176 92.0397 710.183 91.6825C710.19 91.3253 710.195 90.9653 710.195 90.6028C710.195 90.2488 710.192 89.9003 710.185 89.5557C710.178 89.2111 710.167 88.8712 710.153 88.5361C710.14 88.201 710.123 87.8708 710.102 87.5452C710.082 87.2196 710.057 86.898 710.029 86.5819C710.002 86.2658 709.972 85.9553 709.938 85.6486C709.904 85.342 709.865 85.04 709.824 84.7429C709.783 84.4457 709.738 84.1535 709.69 83.8659C709.643 83.5782 709.591 83.2946 709.537 83.0164C709.482 82.7382 709.424 82.4644 709.363 82.1957C709.301 81.927 709.236 81.663 709.168 81.4038C709.099 81.1445 709.026 80.8903 708.951 80.6406C708.876 80.3909 708.797 80.1465 708.715 79.9062C708.632 79.666 708.547 79.4302 708.458 79.1994C708.375 78.9849 708.289 78.7752 708.2 78.5688C705.345 80.5697 703.031 83.0878 701.262 86.1278C699.257 89.6853 698.255 93.5658 698.255 97.7702C698.255 102.104 699.257 105.953 701.262 109.316C701.953 110.418 702.733 111.442 703.598 112.393Z" fill="#9C2444"/>
<path d="M683.645 120.017C678.858 120.017 674.686 118.853 671.129 116.524C667.636 114.131 664.919 110.832 662.979 106.628C661.103 102.359 660.165 97.443 660.165 91.8803C660.165 86.447 661.006 82.1779 662.688 79.0732C664.434 75.9684 666.892 74.416 670.061 74.416C672.325 74.416 674.039 74.8365 675.204 75.6773C676.433 76.5182 677.241 77.5855 677.629 78.8791C678.082 80.1081 678.309 81.4341 678.309 82.8571C678.309 84.6682 678.179 86.5117 677.92 88.3875C677.726 90.2633 677.629 92.2684 677.629 94.4029C677.629 97.443 678.244 99.6746 679.473 101.098C680.766 102.456 682.157 103.135 683.645 103.135C685.262 103.135 686.653 102.456 687.817 101.098C689.046 99.6746 689.66 97.443 689.66 94.4029C689.66 92.2684 689.563 90.3603 689.369 88.6785C689.175 86.9968 689.078 85.0886 689.078 82.9541C689.078 80.6902 689.628 78.7174 690.728 77.0357C691.827 75.2892 694.026 74.416 697.325 74.416C700.495 74.416 702.92 75.9684 704.602 79.0732C706.284 82.1779 707.125 86.447 707.125 91.8803C707.125 97.443 706.251 102.359 704.505 106.628C702.759 110.832 700.139 114.131 696.646 116.524C693.218 118.853 688.884 120.017 683.645 120.017Z" fill="#F1C22E"/>
<path d="M697.107 77.9797C696.862 77.0806 695.756 76.9338 695.444 77.0231C695.132 77.1124 693.245 77.8033 692.431 79.4639C691.617 81.1245 691.773 82.0014 691.903 82.6816C692.032 83.3619 692.849 83.6272 693.458 83.6089C694.067 83.5907 694.762 82.959 694.781 82.2753C694.8 81.5916 694.848 81.302 695.097 80.7458C695.346 80.1896 695.989 79.9944 696.453 79.7373C696.918 79.4801 697.351 78.8788 697.107 77.9797Z" fill="#F7D77A"/>
<path d="M634.685 52.0991C630.157 52.1638 625.92 53.0371 621.974 54.7188C618.029 56.4006 614.568 58.7623 611.593 61.8024C608.682 64.8424 606.385 68.399 604.703 72.4739C603.022 76.4842 602.117 80.8837 601.987 85.6702C602.117 90.392 603.022 94.7902 604.703 98.8651C606.385 102.875 608.682 106.4 611.593 109.44C614.568 112.48 617.996 114.874 621.877 116.62C625.822 118.302 630.093 119.175 634.685 119.24C637.143 119.24 639.537 118.916 641.865 118.269C644.258 117.558 646.554 116.621 648.753 115.457C648.925 115.58 649.097 115.693 649.269 115.813C651.865 118.092 655.143 120.945 658.158 123.63C661.329 126.787 664.045 129.264 666.303 131.061C668.563 132.774 670.576 133.724 672.346 133.912C674.159 134.059 675.918 133.298 677.624 131.629C679.33 129.96 680.131 128.218 680.024 126.402C679.917 124.587 679.033 122.531 677.37 120.235C675.666 117.895 673.228 115.147 670.057 111.99C668.078 109.881 665.743 107.203 663.798 104.932C663.303 104.218 662.754 103.491 662.142 102.747C663.759 100.095 665.053 97.312 666.023 94.4013C667.058 91.4906 667.609 88.5809 667.673 85.6702C667.544 80.9484 666.606 76.5818 664.86 72.5715C663.178 68.4965 660.848 64.9388 657.872 61.8987C654.897 58.8586 651.437 56.4969 647.491 54.8152C643.545 53.0688 639.278 52.1638 634.685 52.0991Z" fill="#127CA6"/>
<path d="M665.92 75.448C665.942 75.5345 665.966 75.5818 665.988 75.6494C666.072 75.9112 666.152 76.1743 666.229 76.4388C666.307 76.7034 666.382 76.9697 666.453 77.237C666.524 77.5043 666.592 77.7726 666.657 78.0427C666.722 78.3128 666.784 78.5842 666.842 78.8571C666.901 79.13 666.956 79.4046 667.009 79.6803C667.061 79.956 667.11 80.2326 667.156 80.511C667.202 80.7895 667.246 81.0693 667.285 81.3505C667.325 81.6317 667.361 81.9147 667.394 82.1987C667.427 82.4827 667.458 82.7689 667.485 83.0557C667.512 83.3425 667.536 83.6306 667.557 83.9202C667.577 84.2097 667.595 84.4998 667.609 84.7922C667.624 85.0845 667.635 85.3791 667.643 85.6742C667.635 86.038 667.619 86.4013 667.595 86.7651C667.572 87.1289 667.541 87.4922 667.503 87.856C667.464 88.2198 667.419 88.5844 667.365 88.9482C667.312 89.312 667.25 89.6753 667.181 90.0391C667.113 90.4029 667.036 90.7663 666.952 91.1301C666.868 91.4938 666.778 91.8584 666.678 92.2222C666.579 92.586 666.472 92.9493 666.358 93.3132C666.244 93.677 666.122 94.0415 665.993 94.4053C665.872 94.7692 665.745 95.1302 665.614 95.49C665.482 95.8499 665.346 96.2076 665.205 96.5634C665.063 96.9193 664.917 97.2738 664.766 97.6256C664.614 97.9774 664.457 98.3274 664.295 98.6752C664.133 99.023 663.967 99.3686 663.795 99.7124C663.623 100.056 663.446 100.397 663.264 100.737C663.082 101.077 662.896 101.415 662.704 101.75C662.512 102.086 662.314 102.42 662.112 102.751C662.418 103.123 662.709 103.489 662.984 103.853C663.26 104.217 663.52 104.579 663.767 104.936C664.254 105.503 664.764 106.096 665.287 106.7C665.811 107.303 666.348 107.916 666.885 108.525C667.422 109.133 667.96 109.737 668.487 110.32C669.015 110.903 669.532 111.467 670.026 111.994C670.423 112.389 670.807 112.777 671.181 113.159C671.555 113.541 671.916 113.916 672.267 114.285C672.618 114.654 672.958 115.017 673.285 115.373C673.613 115.729 673.929 116.079 674.234 116.423C674.538 116.766 674.831 117.103 675.113 117.434C675.395 117.764 675.666 118.089 675.925 118.407C676.044 118.553 676.151 118.693 676.265 118.836C677.275 119.154 678.322 119.4 679.406 119.577C679.335 119.489 679.271 119.406 679.199 119.318C678.929 118.986 678.646 118.647 678.352 118.302C678.058 117.957 677.752 117.605 677.434 117.246C677.116 116.887 676.785 116.521 676.443 116.149C676.101 115.777 675.747 115.398 675.381 115.013C675.015 114.627 674.636 114.236 674.246 113.837C673.856 113.438 673.454 113.033 673.04 112.621C672.523 112.07 671.983 111.482 671.432 110.873C670.882 110.264 670.321 109.633 669.76 108.998C669.199 108.362 668.639 107.721 668.092 107.091C667.546 106.461 667.013 105.843 666.505 105.25C666.246 104.877 665.974 104.5 665.686 104.12C665.399 103.74 665.095 103.357 664.776 102.969C664.987 102.623 665.193 102.273 665.394 101.923C665.594 101.573 665.789 101.221 665.979 100.866C666.169 100.511 666.353 100.154 666.532 99.7949C666.711 99.436 666.886 99.0759 667.055 98.7127C667.224 98.3496 667.387 97.9842 667.545 97.6168C667.704 97.2495 667.857 96.8799 668.005 96.5084C668.152 96.1368 668.295 95.7632 668.432 95.3874C668.57 95.0117 668.701 94.6339 668.828 94.254C668.963 93.874 669.09 93.4942 669.209 93.1142C669.329 92.7343 669.44 92.3544 669.543 91.9745C669.647 91.5946 669.742 91.2147 669.83 90.8348C669.918 90.4549 669.998 90.075 670.07 89.6951C670.142 89.3152 670.205 88.9353 670.261 88.5554C670.318 88.1755 670.365 87.7956 670.405 87.4157C670.446 87.0357 670.479 86.6558 670.503 86.2759C670.527 85.896 670.543 85.5162 670.552 85.1362C670.544 84.828 670.532 84.5207 670.517 84.2154C670.502 83.9101 670.483 83.6058 670.462 83.3034C670.44 83.001 670.415 82.7009 670.387 82.4014C670.358 82.1019 670.326 81.8035 670.292 81.5069C670.257 81.2103 670.219 80.9148 670.178 80.6211C670.136 80.3274 670.092 80.0362 670.044 79.7454C669.996 79.4546 669.945 79.165 669.89 78.8771C669.835 78.5892 669.777 78.3026 669.716 78.0177C669.655 77.7327 669.59 77.449 669.522 77.1669C669.454 76.8848 669.383 76.6041 669.308 76.325C669.234 76.0458 669.156 75.768 669.075 75.4918C668.994 75.2155 668.91 74.9407 668.823 74.6673C668.797 74.5859 668.782 74.5835 668.756 74.5024C667.299 74.5852 665.899 75.3615 665.92 75.448Z" fill="#D9AA0E"/>
<g style="mix-blend-mode:hard-light" opacity="0.519669">
<path d="M609.396 75.3064C609.396 75.3064 610.382 71.3191 614.722 66.3042C619.061 61.2892 622.907 60.2517 623.504 59.9595" stroke="#E8E8E8" stroke-width="1.10398" stroke-linecap="round" stroke-linejoin="round"/>
</g>
<path d="M629.326 60.1134C630.424 60.1134 631.314 59.2867 631.314 58.2669C631.314 57.2471 630.424 56.4204 629.326 56.4204C628.228 56.4204 627.337 57.2471 627.337 58.2669C627.337 59.2867 628.228 60.1134 629.326 60.1134Z" fill="#77B4CC"/>
<path d="M628.466 105.775C639.575 109.166 651.347 102.97 654.761 91.9354C658.175 80.901 651.937 69.2068 640.829 65.8156C629.721 62.4244 617.948 68.6204 614.534 79.6548C611.12 90.6892 617.358 102.383 628.466 105.775Z" fill="#B3D2EC"/>
<path d="M629.393 65.5049C628.646 65.6975 627.91 65.9314 627.188 66.2055L652.811 96.3549C653.194 95.6913 653.596 94.9615 653.903 94.2599L629.393 65.5049Z" fill="#DAE9F6"/>
<path d="M626.041 66.7036C624.735 67.2889 623.492 68.0068 622.332 68.8461L649.425 100.76C650.436 99.756 651.373 98.6189 652.16 97.4306L626.041 66.7036Z" fill="#DAE9F6"/>
<path d="M621.062 69.8203C618.673 71.8526 616.772 74.3965 615.5 77.2634L639.888 106.113C642.922 105.317 645.801 103.848 648.19 101.816L621.062 69.8203Z" fill="#DAE9F6"/>
</g>
<defs>
<filter id="filter0_d_1603_2547" x="528.838" y="551.406" width="381.325" height="59.0434" filterUnits="userSpaceOnUse" color-interpolation-filters="sRGB">
<feFlood flood-opacity="0" result="BackgroundImageFix"/>
<feColorMatrix in="SourceAlpha" type="matrix" values="0 0 0 0 0 0 0 0 0 0 0 0 0 0 0 0 0 0 127 0" result="hardAlpha"/>
<feOffset dy="5.2058"/>
<feGaussianBlur stdDeviation="2.6029"/>
<feComposite in2="hardAlpha" operator="out"/>
<feColorMatrix type="matrix" values="0 0 0 0 0 0 0 0 0 0 0 0 0 0 0 0 0 0 0.25 0"/>
<feBlend mode="normal" in2="BackgroundImageFix" result="effect1_dropShadow_1603_2547"/>
<feBlend mode="normal" in="SourceGraphic" in2="effect1_dropShadow_1603_2547" result="shape"/>
</filter>
<filter id="filter1_d_1603_2547" x="592" y="42.75" width="256" height="102.9" filterUnits="userSpaceOnUse" color-interpolation-filters="sRGB">
<feFlood flood-opacity="0" result="BackgroundImageFix"/>
<feColorMatrix in="SourceAlpha" type="matrix" values="0 0 0 0 0 0 0 0 0 0 0 0 0 0 0 0 0 0 127 0" result="hardAlpha"/>
<feOffset dy="0.75"/>
<feGaussianBlur stdDeviation="1.5"/>
<feComposite in2="hardAlpha" operator="out"/>
<feColorMatrix type="matrix" values="0 0 0 0 0 0 0 0 0 0 0 0 0 0 0 0 0 0 0.25 0"/>
<feBlend mode="normal" in2="BackgroundImageFix" result="effect1_dropShadow_1603_2547"/>
<feBlend mode="normal" in="SourceGraphic" in2="effect1_dropShadow_1603_2547" result="shape"/>
</filter>
<linearGradient id="paint0_linear_1603_2547" x1="720" y1="0" x2="720" y2="834" gradientUnits="userSpaceOnUse">
<stop stop-color="#56B6DC"/>
<stop offset="1" stop-color="#F3F8FA"/>
</linearGradient>
<linearGradient id="paint1_linear_1603_2547" x1="825" y1="24.5" x2="720" y2="720" gradientUnits="userSpaceOnUse">
<stop stop-color="#75C7E8"/>
<stop offset="0.813816" stop-color="#D8F2FD"/>
</linearGradient>
<linearGradient id="paint2_linear_1603_2547" x1="352.403" y1="403.275" x2="684.221" y2="1348.66" gradientUnits="userSpaceOnUse">
<stop stop-color="#CBDA73"/>
<stop offset="0.656101" stop-color="#428F61"/>
</linearGradient>
<linearGradient id="paint3_linear_1603_2547" x1="44.9547" y1="79.1738" x2="312.517" y2="505.31" gradientUnits="userSpaceOnUse">
<stop stop-color="#F4FAFC"/>
<stop offset="0.350621" stop-color="#BFEDFF"/>
<stop offset="0.989583" stop-color="#FDFDFD"/>
</linearGradient>
<linearGradient id="paint4_linear_1603_2547" x1="973.072" y1="255.267" x2="1122.11" y2="513.303" gradientUnits="userSpaceOnUse">
<stop stop-color="#F4FAFC"/>
<stop offset="0.350621" stop-color="#BFEDFF"/>
<stop offset="0.989583" stop-color="#FDFDFD"/>
</linearGradient>
<linearGradient id="paint5_linear_1603_2547" x1="1361" y1="117" x2="1587.17" y2="181.535" gradientUnits="userSpaceOnUse">
<stop stop-color="#F4FAFC"/>
<stop offset="0.350621" stop-color="#BFEDFF"/>
<stop offset="0.989583" stop-color="#FDFDFD"/>
</linearGradient>
<clipPath id="clip0_1603_2547">
<rect width="1440" height="834" fill="white"/>
</clipPath>
</defs>
</svg>
