<svg width="1854" height="1502" viewBox="0 0 1854 1502" fill="none" xmlns="http://www.w3.org/2000/svg">
<path d="M153 0H1593V720H153V0Z" fill="url(#paint0_linear_7_40)"/>
<path fill-rule="evenodd" clip-rule="evenodd" d="M1482.32 1132.49C1692.22 1107.05 1854 946.167 1854 751.5C1854 539.147 1661.48 367 1424 367C1302.71 367 1193.16 411.901 1114.98 484.127C1009.13 444.458 888.511 422 760.5 422C340.487 422 0 663.766 0 962C0 1260.23 340.487 1502 760.5 1502C1096.61 1502 1381.79 1347.18 1482.32 1132.49Z" fill="url(#paint1_linear_7_40)"/>
<path fill-rule="evenodd" clip-rule="evenodd" d="M165.296 114.047C164.91 65.515 212.583 23.4521 274.367 18.9781C331.387 14.8491 381.126 44.1336 393.654 86.4688C402.434 82.8918 412.23 80.5528 422.645 79.7986C463.554 76.8362 498.529 99.4443 500.763 130.295C502.997 161.146 471.644 188.557 430.735 191.519C419.488 192.334 408.69 191.215 398.898 188.525C389.238 217.552 353.594 240.835 309.594 244.022C278.156 246.298 249.461 237.807 230.627 222.804C213.934 237.518 189.22 247.769 161.091 249.806C107.701 253.672 62.224 226.485 59.5155 189.081C56.807 151.678 97.8925 118.223 151.282 114.357C156.024 114.013 160.703 113.915 165.296 114.047Z" fill="#FCFCFC"/>
<path fill-rule="evenodd" clip-rule="evenodd" d="M165.296 114.047C164.91 65.515 212.583 23.4521 274.367 18.9781C331.387 14.8491 381.126 44.1336 393.654 86.4688C402.434 82.8918 412.23 80.5528 422.645 79.7986C463.554 76.8362 498.529 99.4443 500.763 130.295C502.997 161.146 471.644 188.557 430.735 191.519C419.488 192.334 408.69 191.215 398.898 188.525C389.238 217.552 353.594 240.835 309.594 244.022C278.156 246.298 249.461 237.807 230.627 222.804C213.934 237.518 189.22 247.769 161.091 249.806C107.701 253.672 62.224 226.485 59.5155 189.081C56.807 151.678 97.8925 118.223 151.282 114.357C156.024 114.013 160.703 113.915 165.296 114.047Z" fill="url(#paint2_linear_7_40)" style="mix-blend-mode:multiply"/>
<path fill-rule="evenodd" clip-rule="evenodd" d="M1110.67 257.376C1120.1 237.015 1143.73 222.351 1171.61 221.887C1203.97 221.348 1231.24 240.111 1237.45 265.414C1239.32 265.183 1241.24 265.048 1243.18 265.016C1266.65 264.625 1285.92 279.308 1286.22 297.811C1286.53 316.314 1267.76 331.631 1244.3 332.021C1241.31 332.071 1238.38 331.876 1235.56 331.459C1227.51 346.375 1207.84 357.111 1184.68 357.497C1166.64 357.797 1150.52 351.758 1140.23 342.161C1130.23 350.388 1115.79 355.678 1099.66 355.947C1069.04 356.456 1043.91 338.684 1043.54 316.251C1043.82 283.805 1062.52 257.789 1105.2 257.078C1107.07 257.047 1108.89 257.15 1110.67 257.376Z" fill="#FCFCFC"/>
<path fill-rule="evenodd" clip-rule="evenodd" d="M1110.89 256.893C1120.48 236.783 1143.95 222.348 1171.61 221.887C1203.97 221.348 1231.24 240.111 1237.45 265.414C1239.32 265.183 1241.24 265.048 1243.18 265.016C1266.65 264.625 1285.92 279.308 1286.22 297.811C1286.53 316.314 1267.76 331.631 1244.3 332.021C1241.31 332.071 1238.38 331.876 1235.56 331.459C1227.51 346.375 1207.84 357.11 1184.68 357.496C1166.64 357.796 1150.52 351.758 1140.23 342.161C1130.23 350.388 1115.79 355.678 1099.66 355.946C1069.04 356.456 1043.91 338.684 1043.54 316.251C1043.04 286.491 1061.48 255.249 1109.97 256.897C1110.28 256.892 1110.59 256.891 1110.89 256.893Z" fill="url(#paint3_linear_7_40)" style="mix-blend-mode:multiply"/>
<path fill-rule="evenodd" clip-rule="evenodd" d="M1609.07 107.937C1607.8 91.2602 1587.31 78 1562.22 78C1539.06 78 1519.82 89.2942 1515.99 104.145C1512.34 103.135 1508.32 102.575 1504.09 102.575C1487.47 102.575 1474 111.209 1474 121.86C1474 132.511 1487.47 141.145 1504.09 141.145C1508.65 141.145 1512.98 140.492 1516.86 139.325C1521.61 149.053 1536.7 156.163 1554.57 156.163C1567.34 156.163 1578.68 152.534 1585.85 146.912C1593.03 151.551 1603.31 154.456 1614.74 154.456C1636.42 154.456 1654 143.988 1654 131.076C1654 118.163 1636.42 107.695 1614.74 107.695C1612.81 107.695 1610.92 107.778 1609.07 107.937Z" fill="#FCFCFC"/>
<path fill-rule="evenodd" clip-rule="evenodd" d="M1609.07 107.937C1607.8 91.2602 1587.31 78 1562.22 78C1539.06 78 1519.82 89.2942 1515.99 104.145C1512.34 103.135 1508.32 102.575 1504.09 102.575C1487.47 102.575 1474 111.209 1474 121.86C1474 132.511 1487.47 141.145 1504.09 141.145C1508.65 141.145 1512.98 140.492 1516.86 139.325C1521.61 149.053 1536.7 156.163 1554.57 156.163C1567.34 156.163 1578.68 152.534 1585.85 146.912C1593.03 151.551 1603.31 154.456 1614.74 154.456C1636.42 154.456 1654 143.988 1654 131.076C1654 118.163 1636.42 107.695 1614.74 107.695C1612.81 107.695 1610.92 107.778 1609.07 107.937Z" fill="url(#paint4_linear_7_40)" style="mix-blend-mode:multiply"/>
<defs>
<linearGradient id="paint0_linear_7_40" x1="978" y1="24.5" x2="873" y2="720" gradientUnits="userSpaceOnUse">
<stop stop-color="#75C7E8"/>
<stop offset="0.813816" stop-color="#D8F2FD"/>
</linearGradient>
<linearGradient id="paint1_linear_7_40" x1="505.403" y1="403.275" x2="837.221" y2="1348.66" gradientUnits="userSpaceOnUse">
<stop stop-color="#CBDA73"/>
<stop offset="0.656101" stop-color="#428F61"/>
</linearGradient>
<linearGradient id="paint2_linear_7_40" x1="197.955" y1="79.1738" x2="465.517" y2="505.31" gradientUnits="userSpaceOnUse">
<stop stop-color="#F4FAFC"/>
<stop offset="0.350621" stop-color="#BFEDFF"/>
<stop offset="0.989583" stop-color="#FDFDFD"/>
</linearGradient>
<linearGradient id="paint3_linear_7_40" x1="1126.07" y1="255.267" x2="1275.11" y2="513.303" gradientUnits="userSpaceOnUse">
<stop stop-color="#F4FAFC"/>
<stop offset="0.350621" stop-color="#BFEDFF"/>
<stop offset="0.989583" stop-color="#FDFDFD"/>
</linearGradient>
<linearGradient id="paint4_linear_7_40" x1="1514" y1="117" x2="1740.17" y2="181.535" gradientUnits="userSpaceOnUse">
<stop stop-color="#F4FAFC"/>
<stop offset="0.350621" stop-color="#BFEDFF"/>
<stop offset="0.989583" stop-color="#FDFDFD"/>
</linearGradient>
</defs>
</svg>
