<svg width="1440" height="834" viewBox="0 0 1440 834" fill="none" xmlns="http://www.w3.org/2000/svg">
<g clip-path="url(#clip0_1603_2547)">
<rect width="1440" height="834" fill="url(#paint0_linear_1603_2547)"/>
<path d="M0 0H1440V720H0V0Z" fill="url(#paint1_linear_1603_2547)"/>
<path fill-rule="evenodd" clip-rule="evenodd" d="M1329.32 1132.49C1539.22 1107.05 1701 946.167 1701 751.5C1701 539.147 1508.48 367 1271 367C1149.71 367 1040.16 411.901 961.983 484.127C856.134 444.458 735.511 422 607.5 422C187.487 422 -153 663.766 -153 962C-153 1260.23 187.487 1502 607.5 1502C943.608 1502 1228.79 1347.18 1329.32 1132.49Z" fill="url(#paint2_linear_1603_2547)"/>
<path fill-rule="evenodd" clip-rule="evenodd" d="M12.2956 114.047C11.9105 65.515 59.583 23.4521 121.367 18.9781C178.387 14.8491 228.126 44.1336 240.654 86.4688C249.434 82.8918 259.23 80.5528 269.645 79.7986C310.554 76.8362 345.529 99.4443 347.763 130.295C349.997 161.146 318.644 188.557 277.735 191.519C266.488 192.334 255.69 191.215 245.898 188.525C236.238 217.552 200.594 240.835 156.594 244.022C125.156 246.298 96.4611 237.807 77.6269 222.804C60.9341 237.518 36.2202 247.769 8.09065 249.806C-45.2993 253.672 -90.776 226.485 -93.4845 189.081C-96.1929 151.678 -55.1075 118.223 -1.71759 114.357C3.02402 114.013 7.70322 113.915 12.2956 114.047Z" fill="#FCFCFC"/>
<path fill-rule="evenodd" clip-rule="evenodd" d="M12.2956 114.047C11.9105 65.515 59.583 23.4521 121.367 18.9781C178.387 14.8491 228.126 44.1336 240.654 86.4688C249.434 82.8918 259.23 80.5528 269.645 79.7986C310.554 76.8362 345.529 99.4443 347.763 130.295C349.997 161.146 318.644 188.557 277.735 191.519C266.488 192.334 255.69 191.215 245.898 188.525C236.238 217.552 200.594 240.835 156.594 244.022C125.156 246.298 96.4611 237.807 77.6269 222.804C60.9341 237.518 36.2202 247.769 8.09065 249.806C-45.2993 253.672 -90.776 226.485 -93.4845 189.081C-96.1929 151.678 -55.1075 118.223 -1.71759 114.357C3.02402 114.013 7.70322 113.915 12.2956 114.047Z" fill="url(#paint3_linear_1603_2547)" style="mix-blend-mode:multiply"/>
<path fill-rule="evenodd" clip-rule="evenodd" d="M957.667 257.376C967.102 237.015 990.727 222.351 1018.61 221.887C1050.97 221.348 1078.24 240.111 1084.45 265.414C1086.32 265.183 1088.24 265.048 1090.18 265.016C1113.65 264.625 1132.92 279.308 1133.22 297.811C1133.53 316.314 1114.76 331.631 1091.3 332.021C1088.31 332.071 1085.38 331.876 1082.56 331.459C1074.51 346.375 1054.84 357.111 1031.68 357.497C1013.64 357.797 997.518 351.758 987.229 342.161C977.231 350.388 962.791 355.678 946.657 355.947C916.035 356.456 890.909 338.684 890.535 316.251C890.817 283.805 909.515 257.789 952.196 257.078C954.066 257.047 955.89 257.15 957.667 257.376Z" fill="#FCFCFC"/>
<path fill-rule="evenodd" clip-rule="evenodd" d="M957.893 256.893C967.477 236.783 990.948 222.347 1018.61 221.887C1050.97 221.348 1078.24 240.111 1084.45 265.414C1086.32 265.183 1088.24 265.048 1090.18 265.016C1113.65 264.625 1132.92 279.308 1133.22 297.811C1133.53 316.314 1114.76 331.631 1091.3 332.021C1088.31 332.071 1085.38 331.876 1082.56 331.459C1074.51 346.375 1054.84 357.11 1031.68 357.496C1013.64 357.796 997.518 351.758 987.229 342.161C977.231 350.388 962.791 355.678 946.657 355.946C916.035 356.456 890.909 338.684 890.535 316.251C890.04 286.491 908.48 255.249 956.967 256.897C957.278 256.892 957.586 256.891 957.893 256.893Z" fill="url(#paint4_linear_1603_2547)" style="mix-blend-mode:multiply"/>
<path fill-rule="evenodd" clip-rule="evenodd" d="M1456.07 107.937C1454.8 91.2602 1434.31 78 1409.22 78C1386.06 78 1366.82 89.2942 1362.99 104.145C1359.34 103.135 1355.32 102.575 1351.09 102.575C1334.47 102.575 1321 111.209 1321 121.86C1321 132.511 1334.47 141.145 1351.09 141.145C1355.65 141.145 1359.98 140.492 1363.86 139.325C1368.61 149.053 1383.7 156.163 1401.57 156.163C1414.34 156.163 1425.68 152.534 1432.85 146.912C1440.03 151.551 1450.31 154.456 1461.74 154.456C1483.42 154.456 1501 143.988 1501 131.076C1501 118.163 1483.42 107.695 1461.74 107.695C1459.81 107.695 1457.92 107.778 1456.07 107.937Z" fill="#FCFCFC"/>
<path fill-rule="evenodd" clip-rule="evenodd" d="M1456.07 107.937C1454.8 91.2602 1434.31 78 1409.22 78C1386.06 78 1366.82 89.2942 1362.99 104.145C1359.34 103.135 1355.32 102.575 1351.09 102.575C1334.47 102.575 1321 111.209 1321 121.86C1321 132.511 1334.47 141.145 1351.09 141.145C1355.65 141.145 1359.98 140.492 1363.86 139.325C1368.61 149.053 1383.7 156.163 1401.57 156.163C1414.34 156.163 1425.68 152.534 1432.85 146.912C1440.03 151.551 1450.31 154.456 1461.74 154.456C1483.42 154.456 1501 143.988 1501 131.076C1501 118.163 1483.42 107.695 1461.74 107.695C1459.81 107.695 1457.92 107.778 1456.07 107.937Z" fill="url(#paint5_linear_1603_2547)" style="mix-blend-mode:multiply"/>
</g>
<defs>
<linearGradient id="paint0_linear_1603_2547" x1="720" y1="0" x2="720" y2="834" gradientUnits="userSpaceOnUse">
<stop stop-color="#56B6DC"/>
<stop offset="1" stop-color="#F3F8FA"/>
</linearGradient>
<linearGradient id="paint1_linear_1603_2547" x1="825" y1="24.5" x2="720" y2="720" gradientUnits="userSpaceOnUse">
<stop stop-color="#75C7E8"/>
<stop offset="0.813816" stop-color="#D8F2FD"/>
</linearGradient>
<linearGradient id="paint2_linear_1603_2547" x1="352.403" y1="403.275" x2="684.221" y2="1348.66" gradientUnits="userSpaceOnUse">
<stop stop-color="#CBDA73"/>
<stop offset="0.656101" stop-color="#428F61"/>
</linearGradient>
<linearGradient id="paint3_linear_1603_2547" x1="44.9547" y1="79.1738" x2="312.517" y2="505.31" gradientUnits="userSpaceOnUse">
<stop stop-color="#F4FAFC"/>
<stop offset="0.350621" stop-color="#BFEDFF"/>
<stop offset="0.989583" stop-color="#FDFDFD"/>
</linearGradient>
<linearGradient id="paint4_linear_1603_2547" x1="973.072" y1="255.267" x2="1122.11" y2="513.303" gradientUnits="userSpaceOnUse">
<stop stop-color="#F4FAFC"/>
<stop offset="0.350621" stop-color="#BFEDFF"/>
<stop offset="0.989583" stop-color="#FDFDFD"/>
</linearGradient>
<linearGradient id="paint5_linear_1603_2547" x1="1361" y1="117" x2="1587.17" y2="181.535" gradientUnits="userSpaceOnUse">
<stop stop-color="#F4FAFC"/>
<stop offset="0.350621" stop-color="#BFEDFF"/>
<stop offset="0.989583" stop-color="#FDFDFD"/>
</linearGradient>
<clipPath id="clip0_1603_2547">
<rect width="1440" height="834" fill="white"/>
</clipPath>
</defs>
</svg>
