<svg width="16" height="20" viewBox="0 0 16 20" fill="none" xmlns="http://www.w3.org/2000/svg">
<path fill-rule="evenodd" clip-rule="evenodd" d="M8 2.49998C6.61925 2.49998 5.5 3.61927 5.5 4.99998V7.49998V7.50188C5.74768 7.49997 6.01498 7.49998 6.30373 7.49998H9.69625C9.985 7.49998 10.2523 7.49998 10.5 7.50189V7.49998V4.99998C10.5 3.61927 9.38075 2.49998 8 2.49998ZM12.1604 7.60274C12.1645 7.56906 12.1667 7.53477 12.1667 7.49998V4.99998C12.1667 2.6988 10.3012 0.833313 8 0.833313C5.69882 0.833313 3.83333 2.6988 3.83333 4.99998V7.49998C3.83333 7.53477 3.83547 7.56907 3.83961 7.60274C3.57133 7.64811 3.31776 7.71541 3.07215 7.81715C2.0512 8.24004 1.24006 9.05115 0.817167 10.0721C0.641234 10.4969 0.568259 10.9455 0.53365 11.4527C0.499992 11.9461 0.499992 12.5522 0.5 13.3037V13.3629C0.499992 14.1144 0.499992 14.7206 0.53365 15.2139C0.568259 15.7211 0.641234 16.1697 0.817167 16.5945C1.24006 17.6155 2.0512 18.4266 3.07215 18.8495C3.4969 19.0254 3.94547 19.0984 4.45276 19.133C4.94609 19.1666 5.55227 19.1666 6.30373 19.1666H9.69625C10.4477 19.1666 11.0539 19.1666 11.5472 19.133C12.0545 19.0984 12.5031 19.0254 12.9278 18.8495C13.9488 18.4266 14.7599 17.6155 15.1828 16.5945C15.3587 16.1697 15.4318 15.7211 15.4663 15.2139C15.5 14.7206 15.5 14.1144 15.5 13.3629V13.3037C15.5 12.5522 15.5 11.9461 15.4663 11.4527C15.4318 10.9455 15.3587 10.4969 15.1828 10.0721C14.7599 9.05115 13.9488 8.24004 12.9278 7.81715C12.6823 7.71541 12.4287 7.64811 12.1604 7.60274ZM4.56621 9.19639C4.14378 9.22523 3.89778 9.27915 3.70996 9.35698C3.09739 9.61065 2.6107 10.0974 2.35697 10.7099C2.27917 10.8977 2.22528 11.1437 2.19645 11.5661C2.16712 11.9961 2.16667 12.5453 2.16667 13.3333C2.16667 14.1213 2.16712 14.6706 2.19645 15.1005C2.22528 15.5229 2.27917 15.7689 2.35697 15.9567C2.6107 16.5692 3.09739 17.056 3.70996 17.3096C3.89778 17.3875 4.14378 17.4414 4.56621 17.4702C4.99612 17.4996 5.54536 17.5 6.33333 17.5H9.66667C10.4547 17.5 11.0039 17.4996 11.4338 17.4702C11.8562 17.4414 12.1023 17.3875 12.2901 17.3096C12.9026 17.056 13.3893 16.5692 13.643 15.9567C13.7208 15.7689 13.7747 15.5229 13.8036 15.1005C13.8329 14.6706 13.8333 14.1213 13.8333 13.3333C13.8333 12.5453 13.8329 11.9961 13.8036 11.5661C13.7747 11.1437 13.7208 10.8977 13.643 10.7099C13.3893 10.0974 12.9026 9.61065 12.2901 9.35698C12.1023 9.27915 11.8562 9.22523 11.4338 9.19639C11.0039 9.16706 10.4547 9.16665 9.66667 9.16665H6.33333C5.54536 9.16665 4.99612 9.16706 4.56621 9.19639ZM8 11.6666C8.46025 11.6666 8.83333 12.0397 8.83333 12.5V14.1666C8.83333 14.6269 8.46025 15 8 15C7.53975 15 7.16667 14.6269 7.16667 14.1666V12.5C7.16667 12.0397 7.53975 11.6666 8 11.6666Z" fill="#08394D" fill-opacity="0.5"/>
</svg>
