<svg width="1728" height="609" viewBox="0 0 1728 609" fill="none" xmlns="http://www.w3.org/2000/svg">
<path d="M1394.31 400.133C1398.98 395.51 1388.49 399.847 1383.84 400.464C1369.55 402.357 1355.97 401.651 1341.7 402.125C1292.62 403.758 1288.03 428.611 1188.68 431.556C1060.42 435.358 1011.9 400.921 970.063 397.713C949.913 396.168 972.325 393.166 953.62 384.776" stroke="#BDED98" stroke-width="108.155" stroke-linecap="round"/>
<path d="M319.517 169.34C316.437 163.532 325.134 170.808 329.382 172.789C342.42 178.872 355.557 182.264 368.998 186.989C415.236 203.241 412.233 228.316 505.934 260.87C626.892 302.895 683.279 284.579 724.056 294.046C743.693 298.605 723.25 289.033 743.542 286.631" stroke="#BDED98" stroke-width="108.155" stroke-linecap="round"/>
<circle cx="250" cy="250.667" r="250" fill="#BDED98"/>
<circle cx="249.333" cy="251.333" r="200" fill="white"/>
<circle cx="878" cy="346.667" r="250" fill="#BDED98"/>
<circle cx="877.333" cy="347.333" r="200" fill="white"/>
<circle cx="1478" cy="260" r="250" fill="#BDED98"/>
<circle cx="1477.33" cy="260.667" r="200" fill="white"/>
</svg>
