<svg width="25" height="24" viewBox="0 0 25 24" fill="none" xmlns="http://www.w3.org/2000/svg">
<g clip-path="url(#clip0_1279_2083)">
<path d="M12.5005 13.9695C12.5005 15.002 12.9054 15.9922 13.6262 16.7223C14.347 17.4524 15.3246 17.8626 16.344 17.8626C17.3633 17.8626 18.3409 17.4524 19.0617 16.7223C19.7825 15.9922 20.1874 15.002 20.1874 13.9695C20.1874 12.937 19.7825 11.9467 19.0617 11.2166C18.3409 10.4865 17.3633 10.0764 16.344 10.0764C15.3246 10.0764 14.347 10.4865 13.6262 11.2166C12.9054 11.9467 12.5005 12.937 12.5005 13.9695Z" stroke="#08394C" stroke-width="1.7" stroke-linecap="round" stroke-linejoin="round"/>
<path d="M13.7815 17.2137V23.0534L16.3438 21.1069L18.9061 23.0534V17.2137" stroke="#08394C" stroke-width="1.7" stroke-linecap="round" stroke-linejoin="round"/>
<path d="M9.93809 19.1603H3.53229C2.85272 19.1603 2.20098 18.8869 1.72046 18.4001C1.23993 17.9134 0.969971 17.2532 0.969971 16.5649V3.58779C0.969971 2.16031 2.12301 0.992371 3.53229 0.992371H21.4685C22.1481 0.992371 22.7998 1.26582 23.2804 1.75255C23.7609 2.23929 24.0308 2.89944 24.0308 3.58779V16.5649C24.0304 17.02 23.9118 17.467 23.6869 17.8611C23.462 18.2551 23.1388 18.5824 22.7497 18.8099M4.81345 6.18321H20.1874M4.81345 10.0763H8.65693M4.81345 13.9695H7.37577" stroke="#08394C" stroke-width="1.7" stroke-linecap="round" stroke-linejoin="round"/>
</g>
<defs>
<clipPath id="clip0_1279_2083">
<rect width="24.96" height="24" fill="white" transform="translate(0.0200195)"/>
</clipPath>
</defs>
</svg>
