<svg width="84" height="73" viewBox="0 0 84 73" fill="none" xmlns="http://www.w3.org/2000/svg">
<g clip-path="url(#clip0_2692_5620)">
<path opacity="0.329" d="M51.6217 33.7785C51.6977 32.7917 70.337 48.4116 70.337 48.4116L47.298 58.6558L56.0054 66.4178L49.629 69.2692C49.629 69.2692 42.2217 62.6661 40.9335 61.4852L18.7158 71.3641L1.00169e-06 54.0214C14.5308 48.3847 34.3241 39.1167 51.6217 33.7785Z" fill="#3B596D"/>
<path d="M59.9427 31.7917L53.5878 34.0757L53.5875 72.997L59.9639 70.146L59.9427 31.7917Z" fill="#544433"/>
<path d="M53.6115 73L49.6195 69.3232L49.2035 30.4484L53.8733 32.5551L53.6115 73Z" fill="#483B2C"/>
<path d="M31.3713 61.0243L27.0756 57.027L27.0676 19.2405L31.4786 22.1923L31.3713 61.0243Z" fill="#604C3B" stroke="#604C3B" stroke-width="0.405246" stroke-linecap="round"/>
<path d="M82.9945 1.85669C82.4578 1.85669 31.373 22.0997 31.373 22.0997L31.3696 61.029L82.9911 38.077C82.9911 38.077 83.0702 0.86987 82.9945 1.85669Z" fill="#996C51"/>
<path d="M82.5676 1.87733L76.0604 0.133451C75.9664 0.106608 27.2064 19.0329 27.2064 19.0329L31.3517 22.1512L82.5676 1.87733Z" fill="#7F6047" stroke="#7F6047" stroke-width="0.405246" stroke-linecap="round"/>
<mask id="mask0_2692_5620" style="mask-type:alpha" maskUnits="userSpaceOnUse" x="31" y="1" width="53" height="72">
<path fill-rule="evenodd" clip-rule="evenodd" d="M31.373 22.0997C31.373 22.0997 82.4578 1.85669 82.9945 1.85669C83.0703 0.86987 82.9912 38.077 82.9912 38.077L59.9518 48.3207L59.9639 70.146L53.5875 72.997L53.5877 51.1504L53.4544 51.2096C53.4439 51.3918 53.4023 51.5654 53.3177 51.7271C53.0063 52.3228 52.2317 52.5324 51.4554 52.7425C50.8691 52.9011 50.2819 53.06 49.8926 53.3856C49.5032 53.7112 49.2428 54.2611 48.983 54.81C48.9051 54.9745 48.8272 55.1389 48.7459 55.2972C50.0948 59.3697 51.7076 64.3079 51.6697 64.5252C51.6047 64.8974 48.653 63.3433 48.653 63.3433C48.653 63.3433 47.1027 66.3335 46.8012 66.0764C46.626 65.9271 45.2966 60.7977 44.2132 56.5248C43.1262 60.7749 41.8065 65.822 41.6325 65.9699C41.3305 66.2264 39.786 63.2331 39.786 63.2331C39.786 63.2331 36.8312 64.7814 36.767 64.4091C36.7369 64.2345 37.8089 61.0203 38.9559 57.6559L31.3696 61.029L31.373 22.0997Z" fill="#544433"/>
</mask>
<g mask="url(#mask0_2692_5620)">
<path d="M46.957 49.9314C46.957 49.9314 51.7346 64.153 51.6696 64.5252C51.6047 64.8974 48.653 63.3433 48.653 63.3433C48.653 63.3433 47.1026 66.3335 46.8011 66.0764C46.4996 65.8193 42.7779 50.8054 42.7779 50.8054L46.957 49.9314Z" fill="#B83030"/>
<path d="M41.6495 49.8447C41.6495 49.8447 36.7028 64.0368 36.767 64.4091C36.8312 64.7814 39.786 63.2331 39.786 63.2331C39.786 63.2331 41.3305 66.2264 41.6325 65.9699C41.9345 65.7133 45.6855 50.7067 45.6855 50.7067L41.6495 49.8447Z" fill="#CC3A3A"/>
<path d="M40.3002 55.8072C41.3457 56.3537 42.8842 55.1092 44.0593 55.214C45.2343 55.3188 46.5282 56.816 47.654 56.4632C48.7797 56.1103 48.9875 54.1424 49.8925 53.3856C50.7975 52.6289 52.7712 52.7726 53.3177 51.7271C53.8642 50.6816 52.6196 49.1431 52.7244 47.9681C52.8293 46.793 54.3265 45.4991 53.9736 44.3734C53.6208 43.2477 51.6529 43.0398 50.8961 42.1348C50.1393 41.2298 50.2831 39.2562 49.2376 38.7097C48.1921 38.1631 46.6536 39.4077 45.4785 39.3029C44.3035 39.1981 43.0096 37.7009 41.8838 38.0537C40.7581 38.4065 40.5503 40.3745 39.6453 41.1312C38.7403 41.888 36.7666 41.7443 36.2201 42.7898C35.6736 43.8353 36.9182 45.3737 36.8134 46.5488C36.7086 47.7239 35.2113 49.0178 35.5642 50.1435C35.917 51.2692 37.8849 51.4771 38.6417 52.3821C39.3985 53.2871 39.2547 55.2607 40.3002 55.8072Z" fill="#DED630"/>
<path d="M44.7689 53.1843C41.4223 53.1843 38.7094 50.4714 38.7094 47.1249C38.7094 43.7783 41.4223 41.0654 44.7689 41.0654C48.1154 41.0654 50.8283 43.7783 50.8283 47.1249C50.8283 50.4714 48.1154 53.1843 44.7689 53.1843Z" fill="#E7E466"/>
<path d="M82.9945 1.85181C82.4578 1.85181 31.373 22.0948 31.373 22.0948L31.3729 82.952L82.9945 60C82.9945 60 83.0703 0.864994 82.9945 1.85181Z" fill="#08394D" fill-opacity="0.5"/>
</g>
<g clip-path="url(#clip1_2692_5620)">
<path fill-rule="evenodd" clip-rule="evenodd" d="M56.8796 22.7869C55.3403 22.7869 54.0926 24.0347 54.0926 25.5739L54.0926 28.3608L54.0926 28.363C54.3687 28.3608 54.6667 28.3608 54.9886 28.3608L58.7705 28.3608C59.0924 28.3608 59.3904 28.3608 59.6665 28.363L59.6665 28.3608L59.6665 25.5739C59.6665 24.0347 58.4188 22.7869 56.8796 22.7869ZM61.5175 28.4754C61.5221 28.4379 61.5245 28.3996 61.5245 28.3608L61.5245 25.5739C61.5245 23.0086 59.4449 20.929 56.8796 20.929C54.3142 20.929 52.2346 23.0086 52.2346 25.5739L52.2346 28.3608C52.2346 28.3996 52.237 28.4379 52.2416 28.4754C51.9425 28.526 51.6599 28.601 51.3861 28.7144C50.2479 29.1859 49.3437 30.0901 48.8722 31.2283C48.6761 31.7018 48.5948 32.2018 48.5562 32.7673C48.5187 33.3173 48.5187 33.993 48.5187 34.8308L48.5187 34.8967C48.5187 35.7345 48.5187 36.4102 48.5562 36.9602C48.5948 37.5257 48.6761 38.0257 48.8722 38.4992C49.3437 39.6374 50.2479 40.5416 51.3861 41.0131C51.8596 41.2092 52.3596 41.2906 52.9251 41.3291C53.4751 41.3667 54.1509 41.3667 54.9886 41.3667L58.7705 41.3667C59.6083 41.3667 60.284 41.3667 60.834 41.3291C61.3994 41.2906 61.8995 41.2092 62.373 41.0131C63.5112 40.5416 64.4154 39.6374 64.8869 38.4992C65.083 38.0257 65.1643 37.5257 65.2029 36.9602C65.2404 36.4102 65.2404 35.7345 65.2404 34.8967L65.2404 34.8308C65.2404 33.993 65.2404 33.3173 65.2029 32.7673C65.1643 32.2018 65.083 31.7018 64.8869 31.2283C64.4154 30.0901 63.5112 29.1859 62.373 28.7144C62.0992 28.601 61.8166 28.526 61.5175 28.4754ZM53.0516 30.252C52.5807 30.2841 52.3065 30.3442 52.0971 30.431C51.4142 30.7138 50.8716 31.2564 50.5888 31.9392C50.5021 32.1486 50.442 32.4228 50.4099 32.8937C50.3772 33.373 50.3766 33.9853 50.3766 34.8637C50.3766 35.7422 50.3771 36.3545 50.4099 36.8338C50.442 37.3047 50.5021 37.5789 50.5888 37.7883C50.8716 38.4711 51.4142 39.0137 52.0971 39.2965C52.3065 39.3833 52.5807 39.4434 53.0516 39.4755C53.5309 39.5082 54.1432 39.5087 55.0216 39.5087L58.7375 39.5087C59.616 39.5087 60.2283 39.5082 60.7075 39.4755C61.1784 39.4434 61.4527 39.3833 61.6621 39.2965C62.3449 39.0137 62.8875 38.4711 63.1703 37.7883C63.257 37.5789 63.3171 37.3047 63.3493 36.8338C63.382 36.3545 63.3825 35.7422 63.3825 34.8638C63.3825 33.9853 63.382 33.373 63.3493 32.8937C63.3171 32.4228 63.257 32.1486 63.1703 31.9392C62.8875 31.2564 62.3449 30.7138 61.6621 30.431C61.4527 30.3442 61.1784 30.2841 60.7075 30.252C60.2283 30.2193 59.616 30.2188 58.7375 30.2188L55.0216 30.2188C54.1432 30.2188 53.5309 30.2193 53.0516 30.252ZM56.8796 33.0058C57.3926 33.0058 57.8085 33.4217 57.8085 33.9348L57.8085 35.7927C57.8085 36.3058 57.3926 36.7217 56.8796 36.7217C56.3665 36.7217 55.9506 36.3058 55.9506 35.7927L55.9506 33.9348C55.9506 33.4217 56.3665 33.0058 56.8796 33.0058Z" fill="white"/>
</g>
</g>
<defs>
<clipPath id="clip0_2692_5620">
<rect width="83.0273" height="73" fill="white" transform="matrix(-1 0 0 1 83.0273 0)"/>
</clipPath>
<clipPath id="clip1_2692_5620">
<rect width="22.2957" height="22.2957" fill="white" transform="translate(45.7317 20)"/>
</clipPath>
</defs>
</svg>
