<svg width="84" height="73" viewBox="0 0 84 73" fill="none" xmlns="http://www.w3.org/2000/svg">
<g clip-path="url(#clip0_1756_9481)">
<path opacity="0.329" d="M51.6217 33.7785C51.6977 32.7917 70.337 48.4116 70.337 48.4116L47.298 58.6558L56.0054 66.4178L49.629 69.2692C49.629 69.2692 42.2217 62.6661 40.9335 61.4852L18.7158 71.3641L0 54.0214C14.5308 48.3847 34.3241 39.1167 51.6217 33.7785Z" fill="#3B596D"/>
<path d="M59.9426 31.7917L53.5878 34.0757L53.5875 72.997L59.9638 70.146L59.9426 31.7917Z" fill="#544433"/>
<path d="M53.6115 73L49.6195 69.3232L49.2035 30.4484L53.8733 32.5551L53.6115 73Z" fill="#483B2C"/>
<path d="M31.3714 61.0243L27.0757 57.027L27.0676 19.2405L31.4787 22.1923L31.3714 61.0243Z" fill="#604C3B" stroke="#604C3B" stroke-width="0.405246" stroke-linecap="round"/>
<path d="M82.9945 1.85669C82.4578 1.85669 31.373 22.0997 31.373 22.0997L31.3696 61.029L82.9911 38.077C82.9911 38.077 83.0702 0.86987 82.9945 1.85669Z" fill="#996C51"/>
<path d="M82.5676 1.87733L76.0603 0.133451C75.9664 0.106608 27.2064 19.0329 27.2064 19.0329L31.3516 22.1512L82.5676 1.87733Z" fill="#7F6047" stroke="#7F6047" stroke-width="0.405246" stroke-linecap="round"/>
<path d="M46.957 49.9314C46.957 49.9314 51.7346 64.153 51.6697 64.5252C51.6047 64.8974 48.653 63.3433 48.653 63.3433C48.653 63.3433 47.1026 66.3335 46.8011 66.0764C46.4996 65.8193 42.7779 50.8054 42.7779 50.8054L46.957 49.9314Z" fill="#B83030"/>
<path d="M41.6495 49.8447C41.6495 49.8447 36.7028 64.0368 36.767 64.4091C36.8312 64.7814 39.7859 63.2331 39.7859 63.2331C39.7859 63.2331 41.3305 66.2264 41.6325 65.9699C41.9345 65.7133 45.6855 50.7067 45.6855 50.7067L41.6495 49.8447Z" fill="#CC3A3A"/>
<path d="M40.3002 55.8072C41.3457 56.3537 42.8842 55.1092 44.0593 55.214C45.2343 55.3188 46.5282 56.816 47.654 56.4632C48.7797 56.1103 48.9875 54.1424 49.8925 53.3856C50.7975 52.6289 52.7712 52.7726 53.3177 51.7271C53.8642 50.6816 52.6196 49.1431 52.7244 47.9681C52.8293 46.793 54.3265 45.4991 53.9736 44.3734C53.6208 43.2477 51.6529 43.0398 50.8961 42.1348C50.1393 41.2298 50.2831 39.2562 49.2376 38.7097C48.1921 38.1631 46.6536 39.4077 45.4785 39.3029C44.3035 39.1981 43.0096 37.7009 41.8838 38.0537C40.7581 38.4065 40.5503 40.3745 39.6453 41.1312C38.7403 41.888 36.7666 41.7443 36.2201 42.7898C35.6736 43.8353 36.9182 45.3737 36.8134 46.5488C36.7086 47.7239 35.2113 49.0178 35.5642 50.1435C35.917 51.2692 37.8849 51.4771 38.6417 52.3821C39.3985 53.2871 39.2547 55.2607 40.3002 55.8072Z" fill="#DED630"/>
<path d="M44.7689 53.1843C41.4224 53.1843 38.7095 50.4714 38.7095 47.1249C38.7095 43.7783 41.4224 41.0654 44.7689 41.0654C48.1154 41.0654 50.8283 43.7783 50.8283 47.1249C50.8283 50.4714 48.1154 53.1843 44.7689 53.1843Z" fill="#E7E466"/>
</g>
<defs>
<clipPath id="clip0_1756_9481">
<rect width="83.0273" height="73" fill="white" transform="matrix(-1 0 0 1 83.0273 0)"/>
</clipPath>
</defs>
</svg>
