<svg width="16" height="16" viewBox="0 0 16 16" fill="none" xmlns="http://www.w3.org/2000/svg">
<path fill-rule="evenodd" clip-rule="evenodd" d="M8.00004 2.66671C5.05452 2.66671 2.66671 5.05452 2.66671 8.00004C2.66671 10.9456 5.05452 13.3334 8.00004 13.3334C10.9456 13.3334 13.3334 10.9456 13.3334 8.00004C13.3334 5.05452 10.9456 2.66671 8.00004 2.66671ZM1.33337 8.00004C1.33337 4.31814 4.31814 1.33337 8.00004 1.33337C11.6819 1.33337 14.6667 4.31814 14.6667 8.00004C14.6667 11.6819 11.6819 14.6667 8.00004 14.6667C4.31814 14.6667 1.33337 11.6819 1.33337 8.00004ZM7.88564 4.50495C8.25384 4.50495 8.55231 4.80342 8.55231 5.17161V8.48304L10.9036 9.37691C11.2478 9.50771 11.4207 9.89277 11.2898 10.2369C11.159 10.5811 10.774 10.754 10.4298 10.6232L7.64877 9.56604C7.39004 9.46764 7.21897 9.21964 7.21897 8.94284V5.17161C7.21897 4.80342 7.51744 4.50495 7.88564 4.50495Z" fill="white"/>
</svg>
