<svg width="18" height="16" viewBox="0 0 18 16" fill="none" xmlns="http://www.w3.org/2000/svg">
<path fill-rule="evenodd" clip-rule="evenodd" d="M5.48421 0.333374C2.78066 0.333374 0.666504 2.68322 0.666504 5.46329C0.666504 6.90929 0.897904 8.10004 1.76053 9.35287C2.58359 10.5484 3.95225 11.7547 6.07595 13.3463L8.99984 15.3334L11.9235 13.3465C14.0473 11.7549 15.4161 10.5484 16.2392 9.35287C17.1018 8.10004 17.3332 6.90929 17.3332 5.46329C17.3332 2.68322 15.219 0.333374 12.5155 0.333374C11.1589 0.333374 9.98467 0.886049 8.99984 1.88607C8.015 0.886049 6.84072 0.333374 5.48421 0.333374ZM5.48421 2.00004C3.81276 2.00004 2.33317 3.48796 2.33317 5.46329C2.33317 5.92079 2.35906 6.32296 2.42361 6.69379C2.53172 7.31504 2.74829 7.84854 3.13329 8.40779C3.7876 9.35812 4.95701 10.425 7.07614 12.0131L8.99984 13.4579L10.9235 12.0131C13.0427 10.425 14.2121 9.35812 14.8664 8.40779C15.4813 7.51471 15.6665 6.68712 15.6665 5.46329C15.6665 3.48796 14.1869 2.00004 12.5155 2.00004C11.4858 2.00004 10.5416 2.4886 9.66925 3.6653C9.51209 3.87732 9.26375 4.00235 8.99984 4.00235C8.73592 4.00235 8.48759 3.87732 8.33042 3.6653C7.45809 2.4886 6.51391 2.00004 5.48421 2.00004Z" fill="#BE2C53"/>
</svg>
