<svg width="200" height="269" viewBox="0 0 200 269" fill="none" xmlns="http://www.w3.org/2000/svg">
<path d="M20 249.294C21.3592 249.125 22.8349 246.46 23.7708 245.524C27.7468 241.548 31.676 237.554 35.9098 233.85C53.3212 218.615 72.0142 205.248 89.6829 190.356C106.572 176.121 125.823 162.811 145.212 152.183C153.765 147.495 162.471 143.29 171.143 138.856C172.256 138.286 178.06 135.392 175.276 134" stroke="#BDED98" stroke-width="39" stroke-linecap="round"/>
<ellipse cx="149.5" cy="141.5" rx="50.5" ry="36.5" fill="#BDED98"/>
<ellipse cx="149" cy="141.5" rx="37" ry="26.5" fill="#7CD67A"/>
<path opacity="0.811494" d="M149.334 156C160.268 156 169.132 149.476 169.132 141.427C169.132 133.379 160.268 126.855 149.334 126.855C138.399 126.855 129.535 133.379 129.535 141.427C129.535 149.476 138.399 156 149.334 156Z" fill="#08394D" fill-opacity="0.5"/>
<path d="M166.858 105.132C166.858 105.132 165.69 106.856 165.238 108.568C165.092 109.121 165.313 110.375 165.803 110.494C166.653 110.7 167.838 108.832 167.838 108.832L166.858 105.132Z" fill="#8F502E"/>
<path d="M171.568 103.698C171.568 103.698 173.313 106.301 173.603 107.511C173.843 108.515 173.527 110.607 173.527 110.607C173.527 110.607 172.793 111.637 171.342 112.23C168.974 113.198 167.725 112.495 167.725 112.495C167.725 112.495 167.108 110.758 166.971 109.852C166.774 108.547 166.933 105.095 166.933 105.095L171.568 103.698Z" fill="#A05A34"/>
<path d="M139.264 133.186C137.405 134.79 134.941 136.848 134.941 136.848C134.941 136.848 133.667 138.105 133.354 139.057C132.778 140.803 133.194 142.188 133.653 143.441C133.926 144.216 136.273 144.896 137.911 145.14C141.276 145.569 142.013 145.296 143.228 144.574C145.708 142.511 147.688 140.344 148.615 139.152C148.701 138.055 148.623 136.838 148.723 134.021C148.755 133.123 147.71 132.078 147.71 132.078C147.71 132.078 142.213 130.91 139.264 133.186Z" fill="#0D0D0D"/>
<path d="M148.708 135.799C148.708 135.799 145.635 140.43 142.583 141.415C140.616 142.05 137.051 141.648 135.149 140.838C133.988 140.344 133.81 138.062 133.81 138.062C133.81 138.062 132.085 139.176 133.647 143.573C133.794 144.222 135.289 145.329 136.638 145.541C137.374 145.656 141.237 146.002 142.892 144.828C145.834 142.743 148.65 139.137 148.65 139.137L148.708 135.799Z" fill="#C7C7C7"/>
<path d="M133.875 137.946C134.934 136.465 136.175 135.512 139.009 136.146C142.018 136.819 143.801 139.869 143.559 140.696C143.155 142.074 137.939 142.367 135.416 141.551C132.963 140.757 132.932 139.59 133.875 137.946Z" fill="#EFEFEF"/>
<path d="M159.195 133.239C161.964 134.872 163.687 136.819 163.687 136.819C163.687 136.819 164.945 138.075 165.258 139.027C165.834 140.774 165.434 142.159 164.975 143.412C164.703 144.186 162.355 144.867 160.717 145.111C157.352 145.54 156.615 145.267 155.4 144.545C152.92 142.481 150.94 140.315 150.014 139.122C149.928 138.025 150.005 136.809 149.905 133.992C149.873 133.094 150.918 132.049 150.918 132.049C150.918 132.049 156.427 131.607 159.195 133.239Z" fill="#0D0D0D"/>
<path d="M149.919 135.77C149.919 135.77 152.993 140.401 156.045 141.386C158.012 142.021 161.577 141.619 163.479 140.809C164.64 140.315 164.818 138.033 164.818 138.033C164.818 138.033 166.543 139.147 164.981 143.544C164.833 144.192 163.339 145.3 161.99 145.512C161.254 145.627 157.391 145.972 155.736 144.799C152.794 142.713 149.978 139.108 149.978 139.108L149.919 135.77Z" fill="#C7C7C7"/>
<path d="M164.753 137.916C163.693 136.436 162.453 135.483 159.619 136.117C156.61 136.79 154.827 139.839 155.069 140.667C155.473 142.045 160.689 142.337 163.212 141.521C165.665 140.728 165.696 139.56 164.753 137.916Z" fill="#EFEFEF"/>
<path d="M137.132 99.6352C135.966 107.443 140.283 133.134 140.283 133.134C140.283 133.134 140.029 135.016 142.339 135.099C146.691 135.257 147.639 132.662 147.639 132.662L149.713 113.337L150.897 132.857C150.897 132.857 151.383 135.64 155.845 135.373C158.183 135.234 158.423 132.951 158.423 132.951C158.423 132.951 162.888 105.151 161.751 100.189C155.852 93.8028 143.425 93.0374 137.132 99.6352Z" fill="#A05A34"/>
<path d="M138.295 70.5664C138.295 70.5664 135.108 74.9086 132.699 81.0757C130.146 87.6144 124.162 93.215 123.762 93.7833C123.362 94.3517 122.361 96.1606 123.555 97.6927C124.898 99.416 126.893 98.3881 126.893 98.3881L137.971 86.654C137.971 86.654 136.41 99.5316 137.003 105.97C140.582 110.57 147.476 110.857 149.806 110.889C153.267 110.936 157.887 110.079 161.768 106.17C162.331 100.077 161.152 87.2176 161.152 87.2176L166.53 105.652C166.53 105.652 166.994 106.378 169.678 106.168C171.825 106 172.337 104.919 172.337 104.919C172.337 104.919 168.506 89.4783 165.916 81.1433C164.117 75.3546 160.951 70.944 160.951 70.944L138.295 70.5664Z" fill="#A05A34"/>
<path d="M137.165 93.2617C135.271 101.018 136.418 115.986 136.418 115.986C136.418 115.986 139.542 118.777 142.679 118.873C147.474 119.019 149.367 116.672 149.367 116.672L149.719 113.555L149.92 116.687C149.92 116.687 152.69 119.148 156.772 119.085C161.166 119.017 162.418 116.367 162.418 116.367C162.418 116.367 163.117 100.704 161.088 93.4551C159.059 86.2064 139.06 85.5053 137.165 93.2617Z" fill="#023473"/>
<path d="M136.287 73.686C140.029 84.6301 135.166 90.989 135.618 102.395C141.093 110.24 158.452 109.773 162.568 101.946C162.949 90.509 159.008 84.1693 163.347 75.1225C167.686 66.0757 133.819 66.4662 136.287 73.686Z" fill="#CF50A1"/>
<path d="M124.731 55.5911C123.169 54.1159 120 52.1919 118.551 53.7789C115.423 57.2058 117.609 60.5645 120.452 63.5056C123.295 66.4468 128.005 64.8617 128.005 64.8617C128.005 64.8617 127.964 58.6456 124.731 55.5911Z" fill="#8F502E"/>
<path d="M124.389 56.7197C122.827 55.2445 119.73 53.39 118.209 54.9075C116.023 57.0885 116.784 60.9391 120.632 64.151C124.48 67.3629 128.864 65.4369 128.864 65.4369C128.864 65.4369 127.622 59.7742 124.389 56.7197Z" fill="#A05A34"/>
<path d="M177.797 55.6128C179.433 54.2214 182.698 52.4659 184.062 54.1263C187.008 57.7119 184.651 60.9514 181.659 63.7396C178.667 66.5278 174.046 64.6986 174.046 64.6986C174.046 64.6986 174.409 58.4937 177.797 55.6128Z" fill="#8F502E"/>
<path d="M178.08 56.7578C179.717 55.3665 182.906 53.6766 184.346 55.2714C186.416 57.5636 184.997 62.0244 181.156 64.1996C177.314 66.3748 172.384 65.2905 172.384 65.2905C172.384 65.2905 174.693 59.6387 178.08 56.7578Z" fill="#A05A34"/>
<path d="M123.426 54.4098C126.168 66.2284 138.291 79.1445 150.352 78.9862C164.338 78.8025 172.61 68.0222 177.724 57.8591C184.027 38.3541 174.598 21.9976 150.352 22.2162C131.851 22.3829 120.355 33.659 123.426 54.4098Z" fill="#A05A34"/>
<path d="M150.11 57.3286C150.11 57.3286 147.522 60.8426 147.849 63.1428C147.945 63.8211 148.418 65.5977 150.11 65.6347C151.94 65.6747 152.569 64.1511 152.521 62.9918C152.411 60.2911 150.11 57.3286 150.11 57.3286Z" fill="#863D25"/>
<path d="M145.204 67.9696C145.056 67.9801 144.918 68.0491 144.82 68.1615C144.723 68.2739 144.674 68.4205 144.684 68.569C144.695 68.7175 144.764 68.8558 144.876 68.9535C144.876 68.9535 147.162 70.9855 150.143 71.033C153.589 71.0878 155.836 68.9443 155.836 68.9443C155.943 68.8417 156.006 68.7005 156.01 68.5517C156.014 68.4029 155.958 68.2586 155.856 68.1507C155.754 68.0427 155.613 67.9799 155.464 67.976C155.316 67.9722 155.172 68.0276 155.064 68.13C155.064 68.13 153.138 69.9576 150.161 69.9102C147.69 69.8708 145.611 68.1055 145.611 68.1055C145.555 68.0572 145.491 68.0203 145.421 67.9969C145.351 67.9736 145.277 67.9643 145.204 67.9696Z" fill="#863D25"/>
<path d="M145.588 0.00144059C145.308 -0.00523371 145.012 0.0110528 144.701 0.055125C142.241 0.402887 141.716 2.91262 141.609 4.19619C140.744 3.98982 139.712 3.96978 138.521 4.3311C135.083 5.37366 134.378 8.24424 134.243 9.07641C133.001 9.29209 131.601 9.97501 130.469 11.6979C130.255 12.1386 130.106 12.5657 130.005 12.9774C129.967 12.9969 129.93 13.0119 129.891 13.0325C129.008 13.5015 128.404 14.0794 127.989 14.6617C127.308 14.0579 125.787 13.051 124.156 14.225C122.595 15.349 122.349 16.779 122.338 17.5196C120.703 18.1348 119.37 19.826 118.497 21.9167C117.588 24.0929 118.173 26.523 118.505 27.5636C117.381 27.5012 116.078 27.9606 115.128 29.8928C114.367 33.2952 117.207 34.6643 118.057 34.9935C117.957 35.964 118.181 37.1797 119.318 38.4063C122.034 40.8081 124.519 37.5397 124.643 37.3727C126.184 37.2753 128.184 36.4559 128.613 32.9835C130.065 32.9083 132.835 32.191 131.669 27.6442C131.669 27.6442 135.294 29.033 137.415 26.0469C139.038 26.2781 140.564 24.9306 141.018 24.4018C141.184 24.5283 141.366 24.6404 141.571 24.7304C146.761 27.0046 149.212 21.2334 149.212 21.2334C151.986 27.0831 155.09 25.1638 156.464 23.8454C158.959 26.2565 160.99 26.2392 162.47 25.4927C162.51 25.6387 162.563 25.7857 162.638 25.9338C164.723 30.0255 169.005 28.2948 169.005 28.2948C167.886 32.9616 170.713 33.6541 172.19 33.7096C172.677 37.2526 174.721 38.0618 176.289 38.1387C176.417 38.3072 178.99 41.6129 181.716 39.1172C182.854 37.8462 183.063 36.6002 182.948 35.6094C183.807 35.2603 186.674 33.819 185.85 30.3512C184.856 28.3897 183.526 27.939 182.384 28.0192C182.706 26.9501 183.266 24.4567 182.31 22.2454C181.391 20.1204 180.011 18.4111 178.341 17.8061C178.318 17.0492 178.048 15.5902 176.444 14.4637C174.769 13.2871 173.239 14.3397 172.554 14.9671C172.124 14.3778 171.502 13.795 170.598 13.3285C169.765 12.8988 169.019 12.7326 168.365 12.7047C168.416 11.0861 167.952 9.17862 166.033 7.66271C163.549 6.56701 161.988 7.34312 161.025 8.48963C160.45 7.08836 158.934 3.99753 156.282 2.60914C153.734 1.2754 151.107 0.799556 149.114 1.73218C148.565 1.07347 147.42 0.0452093 145.588 0.00144059ZM149.135 21.1355L149.172 21.1486L149.128 21.1377L149.135 21.1355ZM131.673 27.5484L131.649 27.5818L131.667 27.5513L131.673 27.5484ZM168.999 28.1976L169.004 28.1998L169.02 28.2262L168.999 28.1976Z" fill="#4F2F24"/>
<path d="M125.686 31.1192C120.823 39.0425 122.154 48.5306 122.149 49.1378C122.501 60.784 129.185 59.6604 129.185 59.6604C124.816 58.5 125.536 50.9813 126.685 48.8065C129.606 47.4141 129.802 43.5593 129.602 42.53C129.602 42.5295 129.604 42.529 129.604 42.5286C130.091 42.9122 130.814 43.1855 131.892 43.1607C138.075 43.0184 137.373 38.2598 137.373 38.2598C142.858 40.8785 145.17 35.9927 145.399 34.8484C146.108 37.2509 147.97 40.3964 152.89 41.3019C158.829 42.395 162.431 40.4939 164.369 38.8036C165.14 40.6899 167.079 43.1351 171.254 41.6282C171.255 41.6295 171.256 41.6311 171.257 41.6324C170.702 43.0934 169.773 48.414 174.936 50.6317C175.131 51.2482 176.841 57.012 173.888 60.61C173.888 60.61 179.393 57.8023 180.146 50.425C180.146 50.4249 180.153 50.4217 180.153 50.4217C180.153 50.4217 180.159 50.2913 180.16 50.2807C180.168 50.2001 180.178 50.122 180.184 50.0403L180.173 50.0413C180.337 47.9813 184.253 22.1319 151.689 20.1506C140.905 20.4245 133.053 22.3137 125.686 31.1192Z" fill="#4F2F24"/>
<path d="M122.699 38.7456C122.699 38.7456 130.218 22.4762 151.046 21.8072C171.874 21.1382 179.761 39.9353 179.761 39.9353C179.761 39.9353 177.114 16.2933 151.562 16.3148C126.01 16.3362 122.699 38.7456 122.699 38.7456Z" fill="#E6BE52"/>
<g style="mix-blend-mode:multiply">
<path d="M140.234 50.4451C139.996 50.4487 139.76 50.4867 139.529 50.5584C137.32 51.0778 134.685 53.5086 134.799 53.8943C134.903 54.2491 136.97 54.7864 136.97 54.7864C137.011 54.9796 136.978 54.5337 136.971 54.7714C136.971 57.1611 138.432 59.0982 140.234 59.0981C142.036 59.098 143.496 57.1609 143.496 54.7714C143.496 53.5402 143.273 52.9817 143.02 52.522C143.02 52.522 141.88 53.7723 141.366 53.2858C140.853 52.7993 141.958 51.1005 141.958 51.1005C141.441 50.6727 140.844 50.4457 140.234 50.4451H140.234Z" fill="#442525"/>
<path d="M140.893 48.6967C140.893 48.6967 142.505 47.963 141.761 47.1802C140.528 45.8828 135.514 49.0208 135.514 49.0208" fill="#442525"/>
</g>
<g style="mix-blend-mode:multiply">
<path d="M160.139 50.9422C158.337 50.9421 156.877 52.8791 156.877 55.2686C156.877 57.6581 158.337 59.5951 160.139 59.5949C161.941 59.5948 163.401 57.6579 163.401 55.2686C163.408 55.1139 163.386 55.3833 163.403 55.2701C163.403 55.2701 165.602 54.6827 165.734 54.3914C165.867 54.0948 164.412 53.178 163.206 52.3004C163.206 52.3004 162.084 54.0683 161.43 53.6075C160.777 53.1468 161.942 51.433 161.942 51.433C161.547 51.2242 161.36 51.1885 160.97 51.0853C160.699 50.9905 160.42 50.9424 160.139 50.9422Z" fill="#442525"/>
<path d="M159.146 48.6387C159.146 48.6387 157.56 47.8511 158.33 47.0938C159.606 45.8388 164.511 49.1441 164.511 49.1441" fill="#442525"/>
</g>
<path d="M125.192 80.2631C125.105 80.2902 125.062 80.3407 125.062 80.3407L125.591 80.33C125.414 80.2328 125.281 80.2357 125.192 80.2631ZM125.591 80.33C125.87 80.4822 126.26 80.8902 126.758 81.8306C127.051 82.683 127.326 84.0819 127.169 86.1552C126.794 88.9308 125.922 94.8268 126.695 98.102C127.206 100.27 128.296 101.954 130.341 102.831C132.039 103.561 134.253 103.973 136.041 103.5C138.04 102.972 138.957 100.857 140.849 101.085C142.14 101.241 142.35 103.196 143.646 103.299C144.959 103.403 146.47 102.252 147.145 101.119C147.852 99.9339 148.412 97.9934 147.465 96.9921C147.244 96.7588 146.502 97.0142 146.502 97.0142C146.502 97.0142 146.479 95.8371 146.035 95.6844C145.55 95.5175 145.088 96.1404 144.737 96.5159C144.439 96.8354 144.107 97.6658 144.107 97.6658C144.107 97.6658 143.844 97.3632 143.553 96.99C143.871 96.4313 144.358 95.3056 144.124 93.8776C143.788 91.83 142.821 90.7561 142.363 89.2732C141.554 86.653 138.575 80.0682 138.575 80.0682L125.591 80.33Z" fill="#BABCC4"/>
<path d="M138.655 91.321C140.148 90.9989 141.598 92.4794 142.219 93.7844C142.53 94.4368 142.532 95.3075 142.874 95.9957C143.182 96.6158 144.105 97.6682 144.105 97.6682C144.105 97.6682 144.437 96.838 144.735 96.5186C145.086 96.1431 145.548 95.5203 146.033 95.6872C146.477 95.8398 146.5 97.0163 146.5 97.0163C146.5 97.0163 147.242 96.7614 147.463 96.9946C148.409 97.9958 147.849 99.9355 147.143 101.121C146.468 102.253 144.957 103.404 143.645 103.3C142.349 103.198 142.139 101.243 140.848 101.087C138.956 100.859 138.14 103.01 136.129 103.491C134.535 103.872 133.426 103.667 132.321 103.472C131.089 98.1193 132.946 95.6466 134.343 94.185L134.337 94.0861L134.377 94.1467C134.377 94.1467 136.253 91.8391 138.655 91.321Z" fill="#C8C9D0"/>
<path d="M134.988 88.6959C135.575 88.5503 135.647 88.3411 135.996 88.382C137.675 88.5784 139.024 90.7572 140.357 90.9677C141.69 91.1781 143.081 90.5666 144.222 89.8456C145.807 88.8442 146.913 85.9827 148.054 85.8131C149.196 85.6435 149.871 85.055 150.056 84.9113C150.231 84.775 149.662 84.8015 149.724 84.4771C149.761 84.2846 150.287 83.9794 150.058 83.9598C149.725 83.9312 149.676 83.9208 149.457 83.9865C149.279 84.0398 148.805 84.2122 148.761 84.1271C148.718 84.042 149.277 83.2746 149.321 82.9209C149.35 82.6907 149.194 82.8634 148.959 82.6651C148.768 82.5042 148.684 82.2114 148.48 82.3559C148.191 82.5606 147.449 83.2403 147.449 83.2403C147.449 83.2403 147.626 82.0819 147.576 81.7268C147.525 81.3716 147.451 81.5519 147.192 81.4951C146.751 81.3985 146.581 81.1841 146.437 81.4656C146.188 81.9543 145.881 83.1006 145.881 83.1006C145.881 83.1006 145.563 82.1229 145.228 81.9042C144.968 81.735 144.692 81.8852 144.451 82.079C144.253 82.2369 144.078 82.2804 144.098 82.466C144.118 82.6515 144.378 83.0018 144.576 83.2411C144.709 83.4025 145.01 83.948 144.961 84.0726C144.745 84.6289 142.837 85.4809 142.837 85.4809C142.837 85.4809 141.329 83.9797 140.456 83.3184C139.583 82.6572 137.611 81.5813 137.611 81.5813L132.691 82.799C132.691 82.799 131.517 83.9881 132.038 86.1722C132.627 88.6455 134.402 88.8415 134.988 88.6959Z" fill="#C8C9D0"/>
<path d="M134.557 72.2289C134.857 72.695 136.852 73.9814 137.955 73.826C139.057 73.6706 139.812 73.1426 140.534 72.3651C141.257 71.5876 141.426 68.9647 140.581 67.5116C139.735 66.0586 138.072 63.6769 134.401 64.4656C133.055 65.011 132.533 65.9085 132.643 66.6045C132.722 67.0973 133.712 67.6818 134.383 69.275C135.054 70.8682 134.209 71.686 134.557 72.2289Z" fill="#CECFD5"/>
<path d="M134.754 71.6763C134.981 72.0303 136.497 73.0072 137.334 72.8892C138.171 72.7711 138.745 72.3702 139.293 71.7797C139.842 71.1892 139.97 69.1973 139.329 68.0938C138.687 66.9903 137.424 65.1815 134.635 65.7805C133.613 66.1946 133.216 66.8762 133.301 67.4049C133.36 67.7792 134.112 68.223 134.622 69.4329C135.131 70.6429 134.489 71.264 134.754 71.6763Z" fill="#888A98"/>
<path d="M122.392 77.4075C121.436 72.8935 122.319 69.1125 124.012 67.5403C126.05 65.6463 130.264 64.4747 131.305 64.7942C132.045 65.0214 128.691 66.9212 128.691 66.9212C128.691 66.9212 130.148 66.1374 131.485 65.9095C132.363 65.7599 134.434 65.4898 134.562 65.8663C134.704 66.2856 133.209 67.0281 133.209 67.0281C133.209 67.0281 134.928 66.428 136.792 67.268C138.122 67.8671 138.973 69.1803 139.314 70.5428C139.697 72.0744 141 74.0042 141.247 74.6712C141.734 75.9839 141.43 78.4942 140.62 79.7295C139.467 81.488 137.186 82.4573 135.124 83.1197C133.78 83.5514 132.267 83.7158 130.903 83.4167C129.159 83.0342 126.302 80.8451 126.302 80.8451C126.302 80.8451 123.039 80.4595 122.392 77.4075Z" fill="#CECFD5"/>
<path d="M149.941 84.8573C150.163 84.7812 150.727 84.5265 150.897 84.2289C151.099 83.8762 151.044 83.5694 150.985 83.5424C150.925 83.5154 150.691 83.7381 150.434 83.8826C150.127 84.0556 149.684 84.0927 149.569 84.146C149.424 84.417 149.403 84.6326 149.474 84.7979C149.546 84.9632 149.853 84.8909 149.941 84.8573Z" fill="#5B5E6A"/>
<path d="M149.295 82.7767C149.403 82.5672 149.634 81.9926 149.551 81.6599C149.453 81.2657 149.276 81.0825 149.215 81.1043C149.153 81.1262 149.063 81.4492 148.977 81.7316C148.875 82.0697 148.581 82.4033 148.534 82.5218C148.617 82.8175 148.684 82.9948 148.867 83.0553C149.05 83.1157 149.255 82.8618 149.295 82.7767Z" fill="#5B5E6A"/>
<path d="M147.457 81.4122C147.474 81.177 147.459 80.558 147.251 80.2855C147.005 79.9626 146.77 79.8645 146.722 79.909C146.674 79.9535 146.719 80.2857 146.752 80.579C146.791 80.9299 146.63 81.4167 146.657 81.4798C146.799 81.8019 146.982 81.8547 147.174 81.8376C147.366 81.8206 147.454 81.5063 147.457 81.4122Z" fill="#5B5E6A"/>
<path d="M144.222 82.3947C144.111 82.1868 143.873 81.6859 143.93 81.3498C143.985 81.029 144.368 80.6774 144.43 80.6983C144.492 80.7192 144.442 81.1896 144.531 81.4708C144.638 81.8072 144.974 82.0025 144.98 82.1284C144.994 82.4353 144.836 82.6036 144.654 82.6668C144.472 82.73 144.263 82.4792 144.222 82.3947Z" fill="#5B5E6A"/>
<path d="M131.494 75.4754C131.494 75.4754 132.733 75.04 133.36 75.0103C133.987 74.9806 135.101 75.1841 135.119 75.2711C135.138 75.3579 134.103 76.0936 132.894 76.9198C132.195 77.3978 130.954 78.5598 130.954 78.5598C130.954 78.5598 131.693 76.8936 132.418 76.3368C133.365 75.6083 133.671 75.7086 133.662 75.6356C133.656 75.5953 131.494 75.4754 131.494 75.4754Z" fill="#5B5E6A"/>
<path d="M137.478 69.8283C137.221 69.8834 136.89 70.1322 136.59 70.9C136.13 72.0763 136.589 73.2126 136.969 73.5045C137.305 73.7627 138.619 73.3985 138.758 72.0796C138.91 70.6258 138.452 70.223 138.198 70.0757L137.702 71.2369L137.592 69.8185C137.545 69.8161 137.533 69.8162 137.478 69.8283Z" fill="#5B5E6A"/>
<path d="M139.757 75.5348C139.817 75.5145 139.882 75.5188 139.939 75.5468C139.996 75.5748 140.039 75.6242 140.059 75.6841C140.059 75.6841 140.461 76.9225 139.533 78.1341C138.608 79.341 137.116 79.7008 137.116 79.7008C137.086 79.7084 137.054 79.7099 137.023 79.7053C136.992 79.7007 136.963 79.6899 136.936 79.6738C136.909 79.6576 136.886 79.6363 136.867 79.6111C136.848 79.5858 136.835 79.5572 136.828 79.5267C136.812 79.4654 136.822 79.4005 136.855 79.3463C136.887 79.2921 136.94 79.2531 137.001 79.2378C137.001 79.2378 138.355 78.8884 139.155 77.8444C139.951 76.8052 139.608 75.8373 139.608 75.8373C139.587 75.7774 139.592 75.7119 139.62 75.6551C139.648 75.5984 139.697 75.5551 139.757 75.5348Z" fill="#5B5E6A"/>
<path d="M136.628 78.8997C136.65 78.8954 136.672 78.8955 136.694 78.9C136.715 78.9044 136.736 78.913 136.754 78.9254C136.754 78.9254 136.925 79.0396 137.053 79.2467C137.18 79.4538 137.265 79.7799 137.1 80.1418C137.081 80.1824 137.047 80.214 137.005 80.2297C136.964 80.2453 136.917 80.2437 136.877 80.2252C136.857 80.2161 136.839 80.203 136.823 80.1868C136.808 80.1707 136.797 80.1517 136.789 80.131C136.781 80.1102 136.778 80.0882 136.778 80.0661C136.779 80.044 136.784 80.0223 136.794 80.0021C136.912 79.7418 136.853 79.5645 136.767 79.4237C136.68 79.2829 136.566 79.2047 136.566 79.2047C136.529 79.1798 136.503 79.1412 136.495 79.0974C136.486 79.0536 136.495 79.0082 136.52 78.9712C136.533 78.9528 136.548 78.937 136.567 78.9247C136.585 78.9124 136.606 78.9039 136.628 78.8997Z" fill="#5B5E6A"/>
<path d="M139.401 75.4365C139.416 75.4199 139.433 75.4064 139.453 75.3967C139.473 75.387 139.495 75.3813 139.517 75.3799C139.539 75.3786 139.561 75.3816 139.582 75.3888C139.603 75.396 139.622 75.4073 139.638 75.4219C139.672 75.4515 139.692 75.4931 139.694 75.5376C139.697 75.5821 139.682 75.6258 139.653 75.6592C139.653 75.6592 139.688 75.5943 139.688 75.5944C139.688 75.5944 139.695 75.5489 139.695 75.5489C139.695 75.549 139.689 75.5049 139.689 75.505C139.689 75.5051 139.681 75.4807 139.679 75.4753C139.673 75.4645 139.671 75.4614 139.669 75.4585C139.665 75.4527 139.664 75.452 139.664 75.4516C139.664 75.4516 139.667 75.4547 139.673 75.4601C139.685 75.4708 139.71 75.4883 139.751 75.5034C139.832 75.5335 139.98 75.5577 140.238 75.4768C140.281 75.4635 140.327 75.4677 140.366 75.4884C140.406 75.5091 140.435 75.5446 140.449 75.5872C140.462 75.6298 140.458 75.6759 140.437 75.7154C140.416 75.7549 140.381 75.7846 140.339 75.798C140.025 75.8962 139.791 75.8775 139.633 75.8189C139.554 75.7896 139.495 75.7513 139.455 75.7168C139.435 75.6996 139.419 75.6836 139.406 75.6685C139.4 75.6608 139.394 75.6542 139.388 75.6444C139.385 75.6394 139.382 75.6347 139.376 75.6226C139.373 75.6168 139.364 75.5913 139.364 75.5911C139.364 75.591 139.358 75.5468 139.358 75.5468C139.358 75.5467 139.365 75.5017 139.365 75.5017C139.365 75.5017 139.401 75.4365 139.401 75.4365Z" fill="#5B5E6A"/>
<path d="M136.008 74.2163C135.809 74.4015 136.318 76.5037 136.455 76.8243C136.592 77.1448 137.224 77.9021 137.877 77.9395C138.53 77.9768 139.099 77.7244 139.388 77.2795C139.677 76.8347 139.606 76.3283 139.497 75.9387C139.389 75.5491 139.178 75.2624 138.827 75.0257C138.476 74.7889 136.207 74.031 136.008 74.2163Z" fill="#5B5E6A"/>
<path d="M127.042 80.3072C127.151 80.931 126.564 82.7013 125.887 83.7129C125.211 84.7245 123.195 85.5444 121.888 85.1998C120.58 84.8552 118.83 83.036 118.279 81.2017C117.729 79.3674 117.022 75.875 120.368 73.8173C121.92 73.2304 124.084 73.0078 124.529 73.6782C124.844 74.1528 124.46 75.5298 125.127 77.3886C125.794 79.2474 126.915 79.5808 127.042 80.3072Z" fill="#CECFD5"/>
<path d="M126.306 79.6561C126.378 80.0717 125.987 81.2511 125.537 81.925C125.086 82.5989 123.743 83.1452 122.872 82.9156C122.001 82.6861 120.835 81.4741 120.468 80.252C120.101 79.03 119.63 76.7032 121.86 75.3323C122.894 74.9413 124.336 74.7931 124.632 75.2397C124.842 75.5559 124.586 76.4732 125.03 77.7116C125.474 78.95 126.222 79.1721 126.306 79.6561Z" fill="#888A98"/>
<path d="M126.367 93.5963C126.367 93.5963 128.47 93.0528 130.228 93.2423C130.795 93.3036 131.885 93.9589 131.821 94.4597C131.71 95.3287 129.546 95.7683 129.546 95.7683L126.367 93.5963Z" fill="#8F502E"/>
<path d="M123.425 97.4222C123.425 97.4222 125.229 99.9857 126.254 100.69C127.104 101.274 129.167 101.727 129.167 101.727C129.167 101.727 130.39 101.409 131.461 100.263C133.208 98.3952 132.999 96.9746 132.999 96.9746C132.999 96.9746 131.599 95.7765 130.804 95.3242C129.657 94.6726 126.382 93.587 126.382 93.587L123.425 97.4222Z" fill="#A05A34"/>
</svg>
