<svg width="214" height="270" viewBox="0 0 214 270" fill="none" xmlns="http://www.w3.org/2000/svg">
<path d="M20 250.294C21.3592 250.125 22.8349 247.46 23.7708 246.524C27.7468 242.548 31.676 238.554 35.9098 234.85C53.3212 219.615 72.0142 206.248 89.6829 191.356C106.572 177.121 125.823 163.811 145.212 153.183C153.765 148.495 162.471 144.29 171.143 139.856C172.256 139.286 178.06 136.392 175.276 135" stroke="#BDED98" stroke-width="39" stroke-linecap="round"/>
<ellipse cx="149.5" cy="142.5" rx="50.5" ry="36.5" fill="#BDED98"/>
<ellipse cx="149" cy="142.5" rx="37" ry="26.5" fill="#7CD67A"/>
<path d="M144.724 85.1294C144.724 85.1294 155.957 95.746 156.851 101.781C157.745 107.817 154.672 114.382 152.76 115.142C150.848 115.903 150.163 116.535 149.383 113.92C148.782 108.039 146.315 101.505 143.459 95.7024C143.007 89.43 144.724 85.1294 144.724 85.1294Z" fill="#845742"/>
<path opacity="0.811494" d="M173.499 159.105C162.83 159.105 154.18 152.752 154.18 144.914C154.18 137.076 162.83 130.723 173.499 130.723C184.169 130.723 192.818 137.076 192.818 144.914C192.818 152.752 184.169 159.105 173.499 159.105Z" fill="#08394D" fill-opacity="0.5"/>
<path d="M190.891 108.562C190.891 108.562 189.757 110.231 189.319 111.888C189.177 112.423 189.392 113.637 189.867 113.752C190.692 113.952 191.841 112.144 191.841 112.144L190.891 108.562Z" fill="#8F502E"/>
<path d="M195.459 107.173C195.459 107.173 197.152 109.693 197.433 110.865C197.666 111.836 197.36 113.862 197.36 113.862C197.36 113.862 196.648 114.859 195.24 115.433C192.944 116.37 191.731 115.689 191.731 115.689C191.731 115.689 191.133 114.008 191 113.131C190.809 111.867 190.964 108.525 190.964 108.525L195.459 107.173Z" fill="#A05A34"/>
<path d="M156.401 109.803C156.401 109.803 157.535 111.472 157.973 113.129C158.115 113.665 157.9 114.878 157.425 114.993C156.6 115.193 155.451 113.385 155.451 113.385L156.401 109.803Z" fill="#8F502E"/>
<path d="M151.833 108.414C151.833 108.414 150.14 110.934 149.859 112.106C149.626 113.077 149.932 115.103 149.932 115.103C149.932 115.103 150.644 116.1 152.052 116.674C154.348 117.611 155.561 116.93 155.561 116.93C155.561 116.93 156.159 115.249 156.292 114.372C156.483 113.108 156.328 109.767 156.328 109.767L151.833 108.414Z" fill="#A05A34"/>
<path d="M183.167 136.96C184.971 138.513 187.361 140.505 187.361 140.505C187.361 140.505 188.596 141.722 188.9 142.643C189.458 144.334 189.055 145.675 188.61 146.888C188.346 147.638 186.068 148.297 184.48 148.533C181.216 148.948 180.501 148.684 179.322 147.985C176.917 145.987 174.996 143.89 174.097 142.735C174.014 141.674 174.089 140.496 173.992 137.769C173.961 136.9 174.974 135.888 174.974 135.888C174.974 135.888 180.307 134.757 183.167 136.96Z" fill="#0D0D0D"/>
<path d="M174.006 139.49C174.006 139.49 176.988 143.973 179.948 144.927C181.856 145.542 185.314 145.153 187.159 144.368C188.285 143.89 188.457 141.681 188.457 141.681C188.457 141.681 190.131 142.759 188.616 147.016C188.473 147.644 187.023 148.716 185.715 148.921C185.001 149.032 181.253 149.367 179.648 148.231C176.795 146.212 174.063 142.722 174.063 142.722L174.006 139.49Z" fill="#C7C7C7"/>
<path d="M188.395 141.568C187.367 140.135 186.164 139.212 183.415 139.826C180.496 140.477 178.766 143.43 179.001 144.23C179.393 145.564 184.452 145.848 186.9 145.058C189.279 144.29 189.31 143.16 188.395 141.568Z" fill="#EFEFEF"/>
<path d="M163.834 137.012C161.149 138.592 159.477 140.477 159.477 140.477C159.477 140.477 158.257 141.694 157.953 142.615C157.395 144.306 157.783 145.647 158.228 146.86C158.492 147.609 160.77 148.268 162.358 148.504C165.622 148.92 166.337 148.655 167.516 147.956C169.921 145.959 171.842 143.862 172.741 142.707C172.824 141.645 172.749 140.468 172.846 137.741C172.877 136.871 171.864 135.86 171.864 135.86C171.864 135.86 166.52 135.432 163.834 137.012Z" fill="#0D0D0D"/>
<path d="M172.832 139.462C172.832 139.462 169.85 143.945 166.89 144.898C164.982 145.513 161.524 145.124 159.679 144.34C158.553 143.862 158.38 141.653 158.38 141.653C158.38 141.653 156.707 142.731 158.222 146.988C158.365 147.615 159.815 148.687 161.123 148.892C161.837 149.004 165.584 149.338 167.19 148.202C170.043 146.184 172.775 142.693 172.775 142.693L172.832 139.462Z" fill="#C7C7C7"/>
<path d="M158.443 141.54C159.471 140.107 160.674 139.184 163.423 139.797C166.342 140.449 168.072 143.401 167.837 144.202C167.445 145.536 162.386 145.819 159.938 145.03C157.559 144.262 157.528 143.131 158.443 141.54Z" fill="#EFEFEF"/>
<path d="M185.236 104.481C186.366 112.04 182.179 136.91 182.179 136.91C182.179 136.91 182.425 138.732 180.184 138.813C175.963 138.965 175.044 136.454 175.044 136.454L173.032 117.746L171.884 136.642C171.884 136.642 171.412 139.336 167.083 139.078C164.816 138.943 164.583 136.733 164.583 136.733C164.583 136.733 160.253 109.821 161.355 105.018C167.077 98.8354 179.131 98.0944 185.236 104.481Z" fill="#A05A34"/>
<path d="M184.107 76.3412C184.107 76.3412 187.199 80.5448 189.535 86.5148C192.012 92.8446 196.3 108.513 196.3 108.513C196.3 108.513 195.875 109.268 194.3 109.561C192.219 109.949 190.587 109.045 190.587 109.045L184.422 91.9149C184.422 91.9149 185.936 104.381 185.361 110.614C181.889 115.067 175.202 115.344 172.941 115.376C169.584 115.422 165.103 114.592 161.338 110.808C160.792 104.909 161.936 92.4606 161.936 92.4606L156.719 110.306C156.719 110.306 156.269 111.009 153.666 110.806C151.583 110.643 151.087 109.596 151.087 109.596C151.087 109.596 154.802 94.649 157.315 86.5802C159.06 80.9765 162.131 76.7067 162.131 76.7067L184.107 76.3412Z" fill="#A05A34"/>
<path d="M185.203 98.3115C187.041 105.82 185.929 120.31 185.929 120.31C185.929 120.31 182.898 123.011 179.855 123.104C175.204 123.246 173.368 120.974 173.368 120.974L173.026 117.957L172.831 120.989C172.831 120.989 170.144 123.371 166.185 123.31C161.923 123.244 160.709 120.679 160.709 120.679C160.709 120.679 160.031 105.516 161.999 98.4988C163.967 91.4816 183.366 90.8029 185.203 98.3115Z" fill="#023473"/>
<path d="M186.055 79.3612C182.425 89.9557 187.142 96.1114 186.704 107.153C181.394 114.747 164.555 114.296 160.563 106.718C160.193 95.6468 164.016 89.5096 159.807 80.7518C155.599 71.994 188.45 72.372 186.055 79.3612Z" fill="#CF50A1"/>
<path d="M197.692 59.6954C199.084 58.1474 201.995 56.0381 203.521 57.4535C206.818 60.5099 204.973 63.9248 202.459 66.9893C199.945 70.0539 195.266 68.9008 195.266 68.9008C195.266 68.9008 194.81 62.9004 197.692 59.6954Z" fill="#8F502E"/>
<path d="M198.113 60.7569C199.505 59.209 202.351 57.1725 203.942 58.515C206.229 60.4446 205.801 64.2202 202.337 67.6264C198.872 71.0325 194.482 69.5243 194.482 69.5243C194.482 69.5243 195.231 63.962 198.113 60.7569Z" fill="#A05A34"/>
<path d="M146.394 63.9542C144.701 62.7423 141.405 61.3089 140.219 63.0198C137.657 66.7142 140.194 69.6518 143.309 72.1034C146.423 74.555 150.745 72.4215 150.745 72.4215C150.745 72.4215 149.899 66.4636 146.394 63.9542Z" fill="#8F502E"/>
<path d="M146.211 65.0815C144.519 63.8695 141.301 62.4934 140.036 64.147C138.218 66.5237 139.946 70.7146 143.833 72.507C147.72 74.2993 152.399 72.86 152.399 72.86C152.399 72.86 149.716 67.5909 146.211 65.0815Z" fill="#A05A34"/>
<path d="M198.859 58.4515C197.15 70.0727 186.461 83.502 174.789 84.3124C161.253 85.2522 152.398 75.5123 146.644 66.1156C138.996 47.8013 146.808 31.2679 170.264 29.5425C188.162 28.2259 200.174 38.1866 198.859 58.4515Z" fill="#A05A34"/>
<path d="M173.297 63.3984C173.297 63.3984 176.078 66.582 175.946 68.8273C175.906 69.4894 175.591 71.2412 173.959 71.4119C172.192 71.5967 171.463 70.177 171.417 69.0547C171.308 66.4403 173.297 63.3984 173.297 63.3984Z" fill="#863D25"/>
<path d="M178.887 73.2429C178.962 73.2419 179.037 73.2559 179.107 73.2838C179.177 73.3118 179.241 73.3532 179.294 73.4058C179.403 73.5121 179.465 73.6572 179.467 73.8093C179.469 73.9613 179.41 74.1079 179.304 74.2167C179.304 74.2167 177.251 76.3672 174.36 76.6523C171.021 76.9817 168.668 75.0854 168.668 75.0854C168.55 74.9901 168.474 74.8517 168.458 74.7006C168.441 74.5494 168.486 74.398 168.581 74.2795C168.628 74.2208 168.686 74.1719 168.752 74.1358C168.818 74.0996 168.891 74.0768 168.966 74.0687C169.041 74.0605 169.116 74.0672 169.189 74.0884C169.261 74.1095 169.328 74.1447 169.387 74.1919C169.387 74.1919 171.385 75.7932 174.247 75.5109C176.619 75.2769 178.483 73.4156 178.483 73.4156C178.59 73.3068 178.735 73.2447 178.887 73.2429Z" fill="#863D25"/>
<g style="mix-blend-mode:multiply">
<path d="M182.296 55.9688C182.525 55.9533 182.757 55.9711 182.986 56.0218C185.163 56.3465 187.903 58.4813 187.824 58.8625C187.752 59.2131 185.797 59.8965 185.797 59.8965C185.772 60.0862 185.768 59.6534 185.794 59.8822C185.985 62.1876 184.727 64.1732 182.985 64.317C181.243 64.4608 179.677 62.7085 179.486 60.4033C179.388 59.2155 179.56 58.6588 179.768 58.195C179.768 58.195 180.969 59.3103 181.427 58.7999C181.885 58.2896 180.681 56.7388 180.681 56.7388C181.147 56.2848 181.706 56.0181 182.295 55.9688L182.296 55.9688Z" fill="#442525"/>
<path d="M181.519 54.3347C181.519 54.3347 179.903 53.7555 180.559 52.9408C181.648 51.5908 186.745 54.2178 186.745 54.2178" fill="#442525"/>
</g>
<g style="mix-blend-mode:multiply">
<path d="M163.093 58.0381C164.835 57.8941 166.401 59.6462 166.592 61.9515C166.782 64.2568 165.524 66.2422 163.782 66.386C162.041 66.5297 160.475 64.7777 160.284 62.4725C160.265 62.3238 160.308 62.5819 160.283 62.4742C160.283 62.4742 158.11 62.0831 157.959 61.8126C157.806 61.5371 159.14 60.5364 160.236 59.5933C160.236 59.5933 161.462 61.2093 162.057 60.7126C162.652 60.2159 161.389 58.6555 161.389 58.6555C161.754 58.4226 161.932 58.3732 162.301 58.2425C162.556 58.1293 162.822 58.0606 163.093 58.0381Z" fill="#442525"/>
<path d="M163.869 55.7364C163.869 55.7364 165.339 54.8499 164.535 54.1808C163.201 53.0718 158.723 56.6524 158.723 56.6524" fill="#442525"/>
</g>
<path d="M192.484 37.3025C192.484 37.3025 187.296 38.4461 188.315 32.4806C188.315 32.4806 184.349 34.3934 182.102 30.6639C180.937 28.7319 183.453 26.6891 183.453 26.6891" fill="#575757"/>
<path d="M182.07 30.1802C181.995 30.2969 177.103 30.7311 178.521 25.8577Z" fill="#575757"/>
<path d="M178.463 28.3169C178.463 28.3169 175.615 26.9397 176.653 24.4423C177.762 21.7715 181.42 21.8673 183.203 23.2549" fill="#575757"/>
<path d="M197.674 40.9672C197.674 40.9672 192.643 43.0232 191.624 37.0233Z" fill="#575757"/>
<path d="M195.858 41.2783C195.858 41.2783 198.615 44.476 201.111 41.8766C203.356 39.0224 201.176 36.585 201.176 36.585" fill="#4F2F24"/>
<path d="M201.834 38.5858C201.834 38.5858 205.663 37.1031 204.483 33.3285C202.171 29.472 198.817 32.3524 198.817 32.3524" fill="#4F2F24"/>
<path d="M200.896 31.8725C200.896 31.8725 201.974 28.5648 200.592 25.9027C199.21 23.2406 197.057 21.365 194.661 21.9177C192.266 22.4705 192.643 25.4896 192.643 25.4896" fill="#4F2F24"/>
<path d="M178.654 22.819C178.654 22.819 177.765 19.5543 180.759 18.3024C184.158 17.407 186.011 20.3811 186.011 20.3811" fill="#575757"/>
<path d="M184.087 18.8312C184.087 18.8312 185.85 16.9466 188.868 18.2412C191.887 19.5357 191.927 22.296 191.927 22.296" fill="#4F2F24"/>
<path d="M196.538 22.4479C196.538 22.4479 196.764 20.2886 194.507 18.9338C192.25 17.5791 190.501 20.054 190.501 20.054" fill="#4F2F24"/>
<path d="M200.178 30.354L201.632 36.719L196.889 41.1195L191.511 36.9202L188.308 32.3907L181.713 29.9234L178.665 26.3459L179.856 20.7614L186.259 18.2618L193.623 21.0607L195.997 22.1628L200.178 30.354Z" fill="#4F2F24"/>
<path d="M148.82 41.6023C148.82 41.6023 154.209 41.9655 152.274 36.0899C152.274 36.0899 156.551 37.4176 158.24 33.3035C159.115 31.1722 156.274 29.4915 156.274 29.4915" fill="#575757"/>
<path d="M158.198 32.8096C158.291 32.9162 163.274 32.6075 161.104 27.897Z" fill="#575757"/>
<path d="M161.539 30.3745C161.539 30.3745 164.19 28.5468 162.766 26.1804C161.243 23.6497 157.581 24.3058 156.001 25.9811" fill="#575757"/>
<path d="M144.164 46.1008C144.164 46.1008 149.535 47.4104 149.641 41.1887Z" fill="#575757"/>
<path d="M146.037 46.1377C146.037 46.1377 143.755 49.792 140.849 47.5456C138.157 45.0029 139.975 42.2055 139.975 42.2055" fill="#4F2F24"/>
<path d="M139.62 44.3289C139.62 44.3289 135.544 43.4152 136.153 39.4185C137.888 35.1661 141.699 37.5656 141.699 37.5656" fill="#4F2F24"/>
<path d="M139.536 37.3982C139.536 37.3982 137.947 34.2187 138.93 31.316C139.912 28.4133 141.789 26.188 144.281 26.3807C146.773 26.5734 146.855 29.6834 146.855 29.6834" fill="#4F2F24"/>
<path d="M160.506 24.845C160.506 24.845 160.9 21.4085 157.7 20.6004C154.148 20.2146 152.74 23.5049 152.74 23.5049" fill="#575757"/>
<path d="M154.436 21.6438C154.436 21.6438 152.377 20.0079 149.541 21.7781C146.705 23.5483 147.086 26.3452 147.086 26.3452" fill="#4F2F24"/>
<path d="M142.476 27.2036C142.476 27.2036 141.919 25.0549 143.98 23.3402C146.041 21.6255 148.177 23.8604 148.177 23.8604" fill="#4F2F24"/>
<path d="M140.026 35.7532L139.537 42.4107L144.976 46.1348L149.739 41.0672L152.266 35.9981L158.517 32.4955L161.035 28.4126L158.984 22.9485L152.167 21.4002L145.193 25.3556L142.976 26.8325L140.026 35.7532Z" fill="#4F2F24"/>
<path d="M162.256 30.1576C162.256 30.1576 166.87 35.5901 169.82 27.7807C169.82 27.7807 172.649 33.1532 177.485 30.5446C179.99 29.1932 178.752 24.8109 178.752 24.8109" fill="#575757"/>
<path d="M177.843 30.0017C177.842 30.1979 182.625 34.5637 184.427 27.7222Z" fill="#575757"/>
<path d="M182.836 30.6566C182.836 30.6566 186.715 31.2836 187.316 27.5327C187.959 23.5214 184.1 20.7501 181.318 20.9746" fill="#4F2F24"/>
<path d="M154.411 30.3704C154.411 30.3704 158.25 36.7511 163.336 30.507Z" fill="#575757"/>
<path d="M156.087 32.1678C156.087 32.1678 151.079 33.7499 150.235 28.7291C149.823 23.6076 153.721 22.4631 153.721 22.4631" fill="#4F2F24"/>
<path d="M151.695 24.2946C151.695 24.2946 148.718 19.5343 152.477 16.0315C157.466 13.3245 159.011 19.3514 159.011 19.3514" fill="#4F2F24"/>
<path d="M157.177 17.1493C157.177 17.1493 158.28 12.4146 161.501 10.3775C164.723 8.34038 168.216 7.83449 170.329 10.3719C172.443 12.9094 170.025 16.1583 170.025 16.1583" fill="#4F2F24"/>
<path d="M186.33 24.0487C186.33 24.0487 189.444 20.9147 187.179 17.0845C184.255 13.3539 180.335 15.386 180.335 15.386" fill="#4F2F24"/>
<path d="M183.371 15.0817C183.371 15.0817 182.809 11.4789 178.808 10.62C174.807 9.76116 172.912 12.9712 172.912 12.9712" fill="#4F2F24"/>
<path d="M168.026 9.51501C168.026 9.51501 169.242 6.80087 172.493 6.98884C175.744 7.17681 175.897 11.4621 175.897 11.4621" fill="#4F2F24"/>
<path d="M158.941 15.9318L153.158 22.2611L155.123 31.1679L163.522 30.4754L169.887 27.6802L178.385 29.9812L183.951 28.1826L186.465 20.6848L181.501 12.7015L171.982 10.1838L168.78 9.60728L158.941 15.9318Z" fill="#4F2F24"/>
<path d="M194.819 36.162C200.152 43.4177 199.621 52.6778 199.674 53.2633C200.262 64.5272 193.711 63.9771 193.711 63.9771C197.842 62.5087 196.547 55.3124 195.263 53.3059C192.328 52.1959 191.831 48.4926 191.942 47.4835C191.942 47.4831 191.94 47.4824 191.94 47.4824C191.5 47.8914 190.823 48.2128 189.779 48.2749C183.79 48.6315 184.089 43.9845 184.089 43.9845C178.996 46.9489 176.372 42.4198 176.059 41.3343C175.565 43.7087 174.016 46.8921 169.332 48.1586C163.677 49.6875 160.044 48.1411 158.036 46.665C157.441 48.5465 155.761 51.0603 151.605 49.9399C151.603 49.9414 151.604 49.9429 151.603 49.9442C152.256 51.3094 153.577 56.3685 148.763 58.9204C148.624 59.5307 147.431 65.2279 150.572 68.4634C150.572 68.4634 145.026 66.1943 143.71 59.1369L143.703 59.1344C143.703 59.1344 143.687 59.0091 143.685 58.9989C143.671 58.9217 143.655 58.8473 143.642 58.7689L143.654 58.769C143.33 56.7948 137.485 32.1687 168.807 27.6567C179.254 27.0597 186.995 28.2553 194.818 36.1622L194.819 36.162Z" fill="#4F2F24"/>
<path d="M198.313 43.2812C198.313 43.2812 189.748 28.1854 169.56 29.2034C149.372 30.2214 143.246 48.986 143.246 48.986C143.246 48.986 143.921 25.9656 168.623 23.9457C193.326 21.9258 198.313 43.2812 198.313 43.2812Z" fill="#E6BE52"/>
<path opacity="0.811494" d="M126.148 156.981C136.665 156.981 145.191 150.718 145.191 142.993C145.191 135.267 136.665 129.004 126.148 129.004C115.631 129.004 107.105 135.267 107.105 142.993C107.105 150.718 115.631 156.981 126.148 156.981Z" fill="#08394D" fill-opacity="0.5"/>
<path d="M144.66 58.6475C144.66 58.6475 149.341 54.5955 153.028 58.2272C156.714 61.8589 155.696 65.647 153.912 67.8555C152.129 70.064 149.201 68.327 149.201 68.327L144.66 58.6475Z" fill="#7C513D"/>
<path d="M123.155 53.4251C123.155 53.4251 120.637 47.6281 115.809 49.1961C110.98 50.7641 110.316 54.638 110.998 57.444C111.68 60.25 115.036 60.036 115.036 60.036L123.155 53.4251Z" fill="#7C513D"/>
<path d="M121.305 54.0321C121.305 54.0321 119.55 49.9923 116.185 51.085C112.82 52.1777 112.357 54.8774 112.832 56.8328C113.307 58.7883 115.646 58.6392 115.646 58.6392L121.305 54.0321Z" fill="#5C3928"/>
<path d="M145.96 59.9969C145.96 59.9969 149.222 57.1731 151.791 59.704C154.36 62.2349 153.651 64.8748 152.408 66.4138C151.165 67.9529 149.125 66.7424 149.125 66.7424L145.96 59.9969Z" fill="#5C3928"/>
<path d="M135.634 146.367C131.655 146.569 128.29 145.102 128.12 143.089C127.949 141.077 131.036 139.281 135.016 139.079C138.996 138.876 142.36 140.344 142.531 142.357C142.702 144.369 139.614 146.165 135.634 146.367Z" fill="#6F4838"/>
<path d="M117.964 146.215C113.985 146.417 110.62 144.949 110.45 142.937C110.279 140.924 113.367 139.129 117.346 138.926C121.326 138.724 124.69 140.192 124.861 142.204C125.032 144.217 121.944 146.012 117.964 146.215Z" fill="#6F4838"/>
<path d="M127.528 52.6539C129.306 52.6405 131.357 52.9484 134.142 53.6467C137.32 54.4978 143.339 57.1984 145.133 58.8235C146.926 60.4486 149.284 63.9556 149.295 68.292C149.305 72.6284 151.313 75.3 150.298 79.5413C149.284 83.7827 144.409 85.4142 144.409 85.4142C146.983 96.5595 145.365 112.795 145.229 116.719C145.086 120.834 145.422 134.775 140.864 140.248C137.608 143.971 132.451 144.52 128.15 143.283C127.655 141.699 128.085 140.145 128.543 138.878C129 137.611 128.987 135.031 128.832 134.358C128.677 133.685 128.399 132.041 126.976 130.53C126.681 130.227 126.493 130.051 126.49 130.048C126.459 130.079 126.333 130.204 126.082 130.467C125.618 130.957 125.188 131.446 124.777 131.942C124.308 132.88 124.156 133.711 124.057 134.143C123.902 134.816 123.887 137.396 124.345 138.663C124.802 139.93 125.233 141.484 124.737 143.068C120.437 144.304 115.279 143.755 112.024 140.033C110.505 138.296 109.383 135.818 108.662 133.025C107.643 130.084 107.071 120.976 106.75 115.824C105.669 98.4706 109.403 85.5769 113.18 77.8893C111.609 75.9129 110.133 75.5677 109.92 71.3217C109.704 67.0033 112.073 65.9974 114.282 60.7146C116.492 55.4317 119.159 54.7673 122.55 53.5902C124.245 53.0017 125.75 52.6673 127.528 52.6539Z" fill="#7C513D"/>
<path d="M129.61 79.9455C126.748 79.252 124.869 76.6837 125.413 74.2089C125.956 71.7342 128.717 70.2903 131.578 70.9838C134.44 71.6773 136.319 74.2457 135.775 76.7204C135.231 79.1951 132.471 80.6391 129.61 79.9455Z" fill="#AA7A64" stroke="#AA7A64" stroke-width="1.30515" stroke-linecap="round"/>
<path d="M130.703 75.2009L130.114 77.7155Z" fill="#341E12"/>
<path d="M130.776 74.8882C130.737 74.8781 130.696 74.8762 130.656 74.8826C130.616 74.889 130.578 74.9035 130.544 74.9255C130.509 74.9474 130.479 74.9762 130.455 75.0104C130.431 75.0445 130.414 75.0832 130.405 75.1244L129.816 77.6384C129.806 77.6796 129.805 77.7223 129.811 77.7641C129.817 77.806 129.831 77.8462 129.852 77.8824C129.872 77.9186 129.9 77.9502 129.932 77.9752C129.965 78.0003 130.002 78.0184 130.041 78.0285C130.08 78.0386 130.121 78.0405 130.161 78.0341C130.2 78.0277 130.239 78.0132 130.273 77.9912C130.308 77.9693 130.338 77.9405 130.362 77.9063C130.385 77.8722 130.403 77.8335 130.412 77.7924L131.001 75.2783C131.01 75.2372 131.012 75.1944 131.006 75.1526C131 75.1107 130.986 75.0705 130.965 75.0343C130.944 74.9981 130.917 74.9665 130.884 74.9415C130.852 74.9164 130.815 74.8983 130.776 74.8882Z" fill="#341E12"/>
<path d="M127.461 76.0797C127.433 76.1098 127.411 76.1456 127.395 76.1849C127.38 76.2242 127.373 76.2662 127.373 76.3086C127.373 76.351 127.382 76.3929 127.397 76.4319C127.413 76.471 127.436 76.5063 127.465 76.536C127.465 76.536 127.783 76.8668 128.249 77.2265C128.715 77.5861 129.33 77.9867 129.987 78.1297C131.277 78.4108 133 77.9065 133 77.9065C133.039 77.8958 133.075 77.8773 133.108 77.8518C133.14 77.8263 133.167 77.7944 133.187 77.7579C133.208 77.7214 133.221 77.6811 133.227 77.6392C133.232 77.5972 133.23 77.5546 133.22 77.5136C133.21 77.4725 133.192 77.4338 133.168 77.3999C133.143 77.366 133.113 77.3375 133.078 77.316C133.043 77.2946 133.004 77.2806 132.964 77.2748C132.924 77.2691 132.883 77.2717 132.844 77.2825C132.844 77.2825 131.134 77.7217 130.111 77.4989C129.611 77.3901 129.043 77.0376 128.613 76.706C128.183 76.3745 127.894 76.0776 127.894 76.0776C127.837 76.0177 127.759 75.9843 127.677 75.9847C127.596 75.985 127.519 76.0192 127.461 76.0797Z" fill="#341E12"/>
<path d="M133.156 74.0628C133.077 74.7424 130.649 75.2772 130.649 75.2772C130.649 75.2772 128.78 73.7394 128.92 73.1121C129.061 72.4847 130.397 72.231 131.194 72.3813C131.991 72.5316 133.236 73.3833 133.156 74.0628Z" fill="#341E12"/>
<path d="M138.014 76.0115C136.82 75.7222 136.171 74.0354 136.565 72.244C136.958 70.4525 138.245 69.2349 139.439 69.5242C140.633 69.8135 141.282 71.5003 140.888 73.2918C140.495 75.0832 139.208 76.3009 138.014 76.0115Z" fill="#341E12"/>
<path d="M137.558 72.8506C137.204 72.7648 137.012 72.2641 137.128 71.7324C137.245 71.2006 137.627 70.8392 137.981 70.9251C138.336 71.0109 138.528 71.5116 138.412 72.0434C138.295 72.5751 137.913 72.9365 137.558 72.8506Z" fill="#C9C6AF"/>
<path d="M123.828 72.676C122.635 72.3867 121.986 70.6999 122.379 68.9085C122.773 67.117 124.06 65.8993 125.253 66.1887C126.447 66.478 127.096 68.1648 126.703 69.9563C126.309 71.7477 125.022 72.9654 123.828 72.676Z" fill="#341E12"/>
<path d="M138.223 66.5424C138.183 66.5493 138.145 66.5644 138.111 66.5869C138.077 66.6094 138.047 66.6387 138.024 66.6733C138 66.7078 137.983 66.7469 137.974 66.7882C137.965 66.8296 137.964 66.8724 137.971 66.9142C137.985 66.9985 138.03 67.0736 138.096 67.123C138.162 67.1724 138.245 67.1921 138.325 67.1777C139.241 67.0154 139.912 67.4102 140.388 67.8635C140.865 68.3169 141.106 68.8078 141.106 68.8078C141.124 68.8455 141.15 68.8789 141.18 68.9063C141.211 68.9337 141.247 68.9544 141.285 68.9673C141.324 68.9802 141.364 68.9849 141.405 68.9814C141.445 68.9778 141.484 68.9659 141.52 68.9464C141.556 68.927 141.587 68.9003 141.613 68.868C141.64 68.8356 141.659 68.7982 141.672 68.7578C141.684 68.7174 141.688 68.6749 141.685 68.6326C141.682 68.5904 141.67 68.5493 141.652 68.5116C141.652 68.5116 141.365 67.9218 140.8 67.3847C140.236 66.8476 139.354 66.342 138.223 66.5424Z" fill="#341E12"/>
<path d="M126.239 63.2424C125.78 63.1949 125.347 63.2625 124.981 63.374C124.25 63.597 123.744 63.9949 123.744 63.9949C123.712 64.0203 123.685 64.0521 123.664 64.0886C123.643 64.125 123.63 64.1653 123.624 64.2073C123.618 64.2492 123.621 64.292 123.631 64.333C123.641 64.3741 123.658 64.4126 123.682 64.4465C123.707 64.4805 123.737 64.5091 123.772 64.5307C123.806 64.5523 123.845 64.5665 123.885 64.5726C123.924 64.5786 123.965 64.5763 124.004 64.5657C124.043 64.5552 124.08 64.5367 124.112 64.5113C124.112 64.5113 124.534 64.1821 125.151 63.9938C125.769 63.8056 126.536 63.7598 127.293 64.3275C127.359 64.377 127.441 64.3969 127.521 64.383C127.601 64.3691 127.672 64.3224 127.72 64.2532C127.743 64.2187 127.76 64.1798 127.769 64.1385C127.778 64.0972 127.78 64.0545 127.773 64.0126C127.767 63.9708 127.752 63.9308 127.731 63.8948C127.71 63.8588 127.682 63.8276 127.649 63.803C127.182 63.4527 126.698 63.2899 126.239 63.2424Z" fill="#341E12"/>
<path d="M123.335 69.2766C122.981 69.1907 122.788 68.69 122.905 68.1583C123.022 67.6266 123.404 67.2651 123.758 67.351C124.113 67.4369 124.305 67.9376 124.188 68.4693C124.072 69.0011 123.69 69.3625 123.335 69.2766Z" fill="#C9C6AF"/>
<path d="M113.181 77.8777C113.181 77.8777 104.336 93.6584 104.957 100.267C105.578 106.876 109.915 112.499 113.527 113.153C117.14 113.808 119.838 112.644 119.974 109.611C119.091 103.288 115.725 95.4507 117.181 88.2379C118.647 81.4361 113.181 77.8777 113.181 77.8777Z" fill="#845742"/>
</svg>
