<svg width="200" height="272" viewBox="0 0 200 272" fill="none" xmlns="http://www.w3.org/2000/svg">
<path d="M20 252.294C21.3592 252.125 22.8349 249.46 23.7708 248.524C27.7468 244.548 31.676 240.554 35.9098 236.85C53.3212 221.615 72.0142 208.248 89.6829 193.356C106.572 179.121 125.823 165.811 145.212 155.183C153.765 150.495 162.471 146.29 171.143 141.856C172.256 141.286 178.06 138.392 175.276 137" stroke="#BDED98" stroke-width="39" stroke-linecap="round"/>
<ellipse cx="149.5" cy="144.5" rx="50.5" ry="36.5" fill="#BDED98"/>
<ellipse cx="149" cy="144.5" rx="37" ry="26.5" fill="#7CD67A"/>
<path d="M148.574 156C159.173 156 167.765 149.646 167.765 141.809C167.765 133.971 159.173 127.618 148.574 127.618C137.976 127.618 129.384 133.971 129.384 141.809C129.384 149.646 137.976 156 148.574 156Z" fill="#08394D" fill-opacity="0.5"/>
<path d="M131.298 105.457C131.298 105.457 132.424 107.126 132.86 108.783C133 109.319 132.787 110.532 132.315 110.647C131.496 110.847 130.354 109.039 130.354 109.039L131.298 105.457Z" fill="#8F502E"/>
<path d="M126.76 104.068C126.76 104.068 125.079 106.588 124.8 107.76C124.568 108.732 124.872 110.757 124.872 110.757C124.872 110.757 125.58 111.754 126.978 112.328C129.259 113.265 130.464 112.584 130.464 112.584C130.464 112.584 131.058 110.903 131.19 110.026C131.38 108.762 131.226 105.421 131.226 105.421L126.76 104.068Z" fill="#A05A34"/>
<path d="M165.559 106.698C165.559 106.698 164.433 108.367 163.998 110.024C163.857 110.56 164.07 111.773 164.542 111.888C165.362 112.088 166.503 110.28 166.503 110.28L165.559 106.698Z" fill="#8F502E"/>
<path d="M170.097 105.31C170.097 105.31 171.778 107.829 172.058 109.001C172.289 109.973 171.985 111.998 171.985 111.998C171.985 111.998 171.278 112.996 169.879 113.57C167.598 114.506 166.394 113.825 166.394 113.825C166.394 113.825 165.8 112.144 165.668 111.267C165.477 110.003 165.631 106.662 165.631 106.662L170.097 105.31Z" fill="#A05A34"/>
<path d="M138.971 133.855C137.179 135.408 134.806 137.4 134.806 137.4C134.806 137.4 133.578 138.617 133.276 139.539C132.722 141.229 133.122 142.57 133.565 143.783C133.827 144.533 136.089 145.192 137.667 145.428C140.91 145.843 141.619 145.579 142.791 144.88C145.18 142.882 147.088 140.785 147.981 139.631C148.063 138.569 147.988 137.391 148.085 134.664C148.116 133.795 147.109 132.783 147.109 132.783C147.109 132.783 141.812 131.652 138.971 133.855Z" fill="#0D0D0D"/>
<path d="M148.071 136.385C148.071 136.385 145.11 140.868 142.169 141.822C140.274 142.437 136.838 142.048 135.006 141.263C133.887 140.785 133.716 138.576 133.716 138.576C133.716 138.576 132.054 139.654 133.559 143.911C133.701 144.539 135.141 145.611 136.441 145.816C137.15 145.927 140.872 146.262 142.467 145.126C145.301 143.107 148.015 139.617 148.015 139.617L148.071 136.385Z" fill="#C7C7C7"/>
<path d="M133.778 138.463C134.799 137.03 135.995 136.107 138.725 136.721C141.625 137.372 143.343 140.325 143.109 141.125C142.72 142.459 137.695 142.743 135.264 141.953C132.9 141.185 132.87 140.055 133.778 138.463Z" fill="#EFEFEF"/>
<path d="M158.175 133.907C160.843 135.488 162.503 137.372 162.503 137.372C162.503 137.372 163.715 138.589 164.017 139.51C164.572 141.201 164.187 142.542 163.744 143.755C163.482 144.505 161.22 145.163 159.641 145.4C156.399 145.815 155.689 145.55 154.518 144.851C152.129 142.854 150.221 140.757 149.328 139.602C149.245 138.541 149.32 137.363 149.224 134.636C149.193 133.766 150.2 132.755 150.2 132.755C150.2 132.755 155.508 132.327 158.175 133.907Z" fill="#0D0D0D"/>
<path d="M149.238 136.357C149.238 136.357 152.199 140.84 155.139 141.793C157.035 142.408 160.47 142.019 162.303 141.235C163.421 140.757 163.593 138.548 163.593 138.548C163.593 138.548 165.255 139.626 163.75 143.883C163.608 144.51 162.168 145.582 160.868 145.787C160.159 145.899 156.437 146.234 154.842 145.098C152.008 143.079 149.294 139.589 149.294 139.589L149.238 136.357Z" fill="#C7C7C7"/>
<path d="M163.531 138.435C162.509 137.002 161.314 136.079 158.584 136.693C155.684 137.344 153.966 140.296 154.199 141.097C154.588 142.431 159.614 142.715 162.045 141.925C164.409 141.157 164.439 140.026 163.531 138.435Z" fill="#EFEFEF"/>
<path d="M136.916 101.377C135.793 108.935 139.952 133.805 139.952 133.805C139.952 133.805 139.708 135.627 141.934 135.708C146.126 135.86 147.04 133.349 147.04 133.349L149.039 114.641L150.179 133.537C150.179 133.537 150.647 136.231 154.947 135.973C157.2 135.838 157.431 133.628 157.431 133.628C157.431 133.628 161.733 106.716 160.637 101.913C154.954 95.7306 142.98 94.9897 136.916 101.377Z" fill="#A05A34"/>
<path d="M138.037 73.2366C138.037 73.2366 134.966 77.4401 132.645 83.4101C130.185 89.7399 125.925 105.408 125.925 105.408C125.925 105.408 126.348 106.163 127.912 106.456C129.979 106.844 131.6 105.94 131.6 105.94L137.724 88.8102C137.724 88.8102 136.221 101.276 136.792 107.509C140.24 111.962 146.883 112.24 149.129 112.271C152.463 112.317 156.915 111.487 160.654 107.703C161.197 101.804 160.061 89.3559 160.061 89.3559L165.243 107.201C165.243 107.201 165.689 107.904 168.276 107.701C170.344 107.538 170.837 106.491 170.837 106.491C170.837 106.491 167.147 91.5443 164.651 83.4756C162.917 77.8718 159.867 73.6021 159.867 73.6021L138.037 73.2366Z" fill="#A05A34"/>
<path d="M136.948 95.2069C135.123 102.715 136.228 117.205 136.228 117.205C136.228 117.205 139.238 119.907 142.261 119.999C146.881 120.141 148.705 117.869 148.705 117.869L149.044 114.852L149.238 117.884C149.238 117.884 151.907 120.266 155.84 120.205C160.074 120.139 161.28 117.574 161.28 117.574C161.28 117.574 161.953 102.411 159.999 95.3941C158.044 88.377 138.774 87.6983 136.948 95.2069Z" fill="#023473"/>
<path d="M136.102 76.2566C139.708 86.851 135.022 93.0067 135.458 104.048C140.732 111.643 157.459 111.191 161.425 103.613C161.792 92.5421 157.994 86.4049 162.175 77.6472C166.356 68.8895 133.723 69.2675 136.102 76.2566Z" fill="#CF50A1"/>
<path d="M123.946 58.7397C122.441 57.3117 119.388 55.4491 117.992 56.9854C114.978 60.3028 117.084 63.5542 119.823 66.4013C122.563 69.2485 127.101 67.7141 127.101 67.7141C127.101 67.7141 127.062 61.6966 123.946 58.7397Z" fill="#8F502E"/>
<path d="M123.616 59.8322C122.112 58.4042 119.127 56.6089 117.662 58.0779C115.556 60.1892 116.289 63.9168 119.997 67.0261C123.705 70.1354 127.928 68.2709 127.928 68.2709C127.928 68.2709 126.732 62.7891 123.616 59.8322Z" fill="#A05A34"/>
<path d="M175.076 58.7608C176.653 57.4145 179.8 55.7163 181.115 57.3236C183.955 60.7946 181.684 63.9294 178.801 66.6273C175.918 69.3252 171.464 67.5538 171.464 67.5538C171.464 67.5538 171.812 61.5483 175.076 58.7608Z" fill="#8F502E"/>
<path d="M175.35 59.8697C176.926 58.5235 179.999 56.8888 181.388 58.4326C183.383 60.6515 182.017 64.9684 178.315 67.0727C174.613 69.1769 169.861 68.1264 169.861 68.1264C169.861 68.1264 172.085 62.657 175.35 59.8697Z" fill="#A05A34"/>
<path d="M122.689 57.5962C125.331 69.0372 137.012 81.5407 148.633 81.3873C162.11 81.2096 170.08 70.7737 175.007 60.9353C181.081 42.0535 171.995 26.2196 148.633 26.4312C130.807 26.5926 119.73 37.5084 122.689 57.5962Z" fill="#A05A34"/>
<path d="M148.4 60.4216C148.4 60.4216 145.906 63.8234 146.221 66.0501C146.314 66.7067 146.77 68.4266 148.4 68.4624C150.163 68.5011 150.769 67.0262 150.723 65.904C150.617 63.2895 148.4 60.4216 148.4 60.4216Z" fill="#863D25"/>
<path d="M143.671 70.6929C143.597 70.6982 143.524 70.7182 143.457 70.7518C143.39 70.7854 143.33 70.832 143.281 70.8888C143.182 71.0037 143.132 71.1535 143.143 71.3051C143.154 71.4568 143.224 71.598 143.338 71.6977C143.338 71.6977 145.546 73.6719 148.431 73.718C151.764 73.7714 153.938 71.6879 153.938 71.6879C154.047 71.5831 154.111 71.4389 154.115 71.287C154.119 71.135 154.063 70.9877 153.959 70.8774C153.907 70.8228 153.845 70.7789 153.777 70.7483C153.709 70.7177 153.635 70.701 153.56 70.699C153.486 70.6971 153.411 70.71 153.341 70.737C153.271 70.764 153.208 70.8046 153.153 70.8565C153.153 70.8565 151.306 72.6169 148.45 72.5712C146.082 72.5333 144.085 70.8318 144.085 70.8318C143.971 70.7321 143.822 70.6822 143.671 70.6929Z" fill="#863D25"/>
<path d="M127.265 35.9956C127.265 35.9956 132.492 36.7002 131.004 30.8462C131.004 30.8462 135.083 32.4188 137.008 28.5179C138.005 26.4969 135.35 24.6737 135.35 24.6737" fill="#575757"/>
<path d="M136.996 28.0399C137.079 28.1499 141.957 28.1729 140.161 23.4388L136.996 28.0399Z" fill="#575757"/>
<path d="M140.413 25.8825C140.413 25.8825 143.123 24.272 141.894 21.8706C140.58 19.3026 136.964 19.7044 135.31 21.236" fill="#575757"/>
<path d="M122.431 40.0766C122.431 40.0766 127.577 41.7021 128.102 35.6452L122.431 40.0766Z" fill="#575757"/>
<path d="M124.256 40.2288C124.256 40.2288 121.783 43.6457 119.1 41.2648C116.647 38.6089 118.61 35.9979 118.61 35.9979" fill="#4F2F24"/>
<path d="M118.115 38.0416C118.115 38.0416 114.202 36.8853 115.067 33.0264C117.046 28.9913 120.6 31.5798 120.6 31.5798" fill="#4F2F24"/>
<path d="M118.492 31.2752C118.492 31.2752 117.158 28.0715 118.312 25.305C119.466 22.5384 121.447 20.4906 123.863 20.8406C126.279 21.1906 126.149 24.2285 126.149 24.2285" fill="#4F2F24"/>
<path d="M139.777 20.4159C139.777 20.4159 140.394 17.0895 137.328 16.0931C133.89 15.4857 132.294 18.6033 132.294 18.6033" fill="#575757"/>
<path d="M134.072 16.8897C134.072 16.8897 132.176 15.1614 129.293 16.7023C126.409 18.2432 126.592 20.994 126.592 20.994" fill="#4F2F24"/>
<path d="M122.039 21.5249C122.039 21.5249 121.642 19.3941 123.767 17.8566C125.892 16.319 127.822 18.6366 127.822 18.6366" fill="#4F2F24"/>
<path d="M119.082 29.714L118.155 36.1739L123.205 40.159L128.192 35.5274L130.998 30.7489L137.329 27.7403L140.06 23.9227L138.431 18.4614L131.89 16.5082L124.824 19.9115L122.563 21.2075L119.082 29.714Z" fill="#4F2F24"/>
<path d="M170.855 36.6862C170.855 36.6862 165.552 37.4831 166.979 31.4761C166.979 31.4761 162.856 33.1438 160.842 29.1837C159.799 27.132 162.471 25.229 162.471 25.229" fill="#575757"/>
<path d="M160.847 28.6951C160.764 28.8088 155.806 28.9039 157.563 24.0373L160.847 28.6951Z" fill="#575757"/>
<path d="M157.343 26.5395C157.343 26.5395 154.565 24.9325 155.779 22.4592C157.077 19.8142 160.758 20.172 162.462 21.7137" fill="#575757"/>
<path d="M175.826 40.7875C175.826 40.7875 170.621 42.525 169.998 36.34L175.826 40.7875Z" fill="#575757"/>
<path d="M173.974 40.9696C173.974 40.9696 176.538 44.4269 179.23 41.9532C181.685 39.2016 179.651 36.5608 179.651 36.5608" fill="#4F2F24"/>
<path d="M180.185 38.6429C180.185 38.6429 184.145 37.4032 183.209 33.4704C181.138 29.3737 177.564 32.0725 177.564 32.0725" fill="#4F2F24"/>
<path d="M179.703 31.7304C179.703 31.7304 181.012 28.4353 179.798 25.6236C178.585 22.8119 176.542 20.7472 174.091 21.1405C171.64 21.5338 171.817 24.638 171.817 24.638" fill="#4F2F24"/>
<path d="M157.91 20.9405C157.91 20.9405 157.234 17.5485 160.335 16.4847C163.821 15.8132 165.489 18.9775 165.489 18.9775" fill="#575757"/>
<path d="M163.656 17.2512C163.656 17.2512 165.558 15.4563 168.512 16.9895C171.465 18.5227 171.32 21.3377 171.32 21.3377" fill="#4F2F24"/>
<path d="M175.955 21.8136C175.955 21.8136 176.327 19.6292 174.145 18.0884C171.962 16.5476 170.034 18.9454 170.034 18.9454" fill="#4F2F24"/>
<path d="M179.08 30.1434L180.117 36.7345L175.042 40.8831L169.906 36.2208L166.983 31.3763L160.504 28.393L157.673 24.5299L159.249 18.9222L165.869 16.8292L173.1 20.2052L175.417 21.497L179.08 30.1434Z" fill="#4F2F24"/>
<path d="M156.612 26.3727C156.612 26.3727 152.481 32.1631 148.93 24.6386C148.93 24.6386 146.561 30.2204 141.561 28.0283C138.971 26.8926 139.844 22.4288 139.844 22.4288" fill="#575757"/>
<path d="M141.169 27.5086C141.185 27.7037 136.8 32.4482 134.463 25.7893L141.169 27.5086Z" fill="#575757"/>
<path d="M136.275 28.5721C136.275 28.5721 132.481 29.5206 131.582 25.835C130.622 21.8936 134.223 18.8112 136.998 18.8025" fill="#4F2F24"/>
<path d="M164.397 25.949C164.397 25.949 161.111 32.615 155.571 26.8291L164.397 25.949Z" fill="#575757"/>
<path d="M162.875 27.8808C162.875 27.8808 167.966 29.0383 168.398 23.967C168.392 18.8316 164.436 18.0172 164.436 18.0172" fill="#4F2F24"/>
<path d="M166.585 19.6653C166.585 19.6653 169.151 14.6765 165.143 11.5024C159.981 9.22331 158.937 15.3538 158.937 15.3538" fill="#4F2F24"/>
<path d="M160.576 12.9897C160.576 12.9897 159.101 8.36899 155.745 6.6102C152.39 4.85141 148.889 4.63938 147 7.34147C145.111 10.0436 147.769 13.0756 147.769 13.0756" fill="#4F2F24"/>
<path d="M132.271 22.2776C132.271 22.2776 128.933 19.4169 130.868 15.414C133.464 11.4551 137.513 13.1512 137.513 13.1512" fill="#4F2F24"/>
<path d="M134.471 13.0988C134.471 13.0988 134.737 9.46882 138.63 8.28105C142.522 7.09327 144.658 10.1276 144.658 10.1276" fill="#4F2F24"/>
<path d="M149.212 6.28228C149.212 6.28228 147.789 3.68329 144.584 4.14154C141.379 4.59979 141.574 8.87611 141.574 8.87611" fill="#4F2F24"/>
<path d="M158.742 11.9292L164.981 17.7464L163.753 26.7756L155.377 26.7874L148.847 24.5364L140.615 27.5359L134.957 26.2102L131.861 18.9572L136.134 10.5968L145.36 7.29635L148.486 6.45532L158.742 11.9292Z" fill="#4F2F24"/>
<path d="M124.866 35.0499C120.181 42.72 121.463 51.905 121.459 52.4928C121.797 63.7668 128.238 62.6792 128.238 62.6792C124.028 61.5559 124.722 54.2774 125.829 52.1721C128.644 50.8242 128.833 47.0925 128.64 46.0961C128.64 46.0957 128.642 46.0948 128.642 46.0948C129.112 46.4661 129.808 46.7307 130.846 46.7067C136.805 46.5689 136.128 41.9623 136.128 41.9623C141.413 44.4974 143.64 39.7677 143.862 38.66C144.545 40.9857 146.339 44.0307 151.079 44.9073C156.802 45.9654 160.272 44.1251 162.139 42.4888C162.882 44.3149 164.751 46.6819 168.773 45.2231C168.776 45.2244 168.776 45.2259 168.776 45.2272C168.242 46.6415 167.347 51.7922 172.322 53.939C172.509 54.5358 174.157 60.1154 171.312 63.5984C171.312 63.5984 176.616 60.8805 177.342 53.7388L177.349 53.7357C177.349 53.7357 177.354 53.6095 177.355 53.5992C177.363 53.5211 177.373 53.4456 177.379 53.3665L177.368 53.3675C177.526 51.3734 181.299 26.3498 149.922 24.4319C139.531 24.697 131.965 26.5259 124.867 35.05L124.866 35.0499Z" fill="#4F2F24"/>
<path d="M121.989 42.4326C121.989 42.4326 129.233 26.683 149.302 26.0354C169.371 25.3878 176.97 43.5843 176.97 43.5843C176.97 43.5843 174.42 20.6977 149.8 20.7185C125.179 20.7392 121.989 42.4326 121.989 42.4326Z" fill="#E6BE52"/>
<g style="mix-blend-mode:multiply">
<path d="M138.884 53.7582C138.655 53.7618 138.427 53.7985 138.204 53.8679C136.076 54.3707 133.538 56.7239 133.647 57.0973C133.748 57.4408 135.739 57.9608 135.739 57.9608C135.778 58.1479 135.747 57.7162 135.74 57.9464C135.74 60.2596 137.148 62.1349 138.884 62.1348C140.62 62.1347 142.027 60.2595 142.027 57.9464C142.027 56.7545 141.812 56.2139 141.568 55.7688C141.568 55.7688 140.47 56.9792 139.975 56.5082C139.48 56.0373 140.545 54.3927 140.545 54.3927C140.047 53.9786 139.471 53.7588 138.884 53.7582H138.884Z" fill="#442525"/>
<path d="M139.519 52.0657C139.519 52.0657 141.071 51.3554 140.355 50.5976C139.167 49.3417 134.336 52.3794 134.336 52.3794" fill="#442525"/>
</g>
<g style="mix-blend-mode:multiply">
<path d="M158.064 54.2396C156.327 54.2395 154.92 56.1146 154.92 58.4278C154.92 60.7409 156.327 62.616 158.064 62.6159C159.8 62.6158 161.207 60.7407 161.207 58.4278C161.213 58.278 161.192 58.5388 161.208 58.4293C161.208 58.4293 163.327 57.8606 163.454 57.5787C163.583 57.2915 162.181 56.404 161.019 55.5544C161.019 55.5544 159.937 57.2658 159.308 56.8198C158.678 56.3738 159.801 54.7147 159.801 54.7147C159.42 54.5127 159.24 54.4781 158.864 54.3782C158.603 54.2863 158.334 54.2398 158.064 54.2396Z" fill="#442525"/>
<path d="M157.107 52.0097C157.107 52.0097 155.579 51.2472 156.321 50.5141C157.55 49.2992 162.276 52.4988 162.276 52.4988" fill="#442525"/>
</g>
</svg>
