<svg width="194" height="258" viewBox="0 0 194 258" fill="none" xmlns="http://www.w3.org/2000/svg">
<path d="M45.2332 143.716C44.9391 141.363 46.9443 144.931 48.1259 146.143C51.7523 149.865 55.7588 152.694 59.6966 156.01C73.2428 167.417 87.8729 177.423 101.434 188.759C117.413 202.116 135.287 213.031 152.573 224.608C158.627 228.663 166.373 235.832 173.545 237.625" stroke="#BDED98" stroke-width="39" stroke-linecap="round"/>
<ellipse cx="50.5" cy="144.5" rx="50.5" ry="36.5" fill="#BDED98"/>
<ellipse cx="51" cy="144.5" rx="37" ry="26.5" fill="#7CD67A"/>
<path d="M49.5743 156C60.1729 156 68.7648 149.646 68.7648 141.809C68.7648 133.971 60.1729 127.618 49.5743 127.618C38.9757 127.618 30.3838 133.971 30.3838 141.809C30.3838 149.646 38.9757 156 49.5743 156Z" fill="#08394D" fill-opacity="0.5"/>
<path d="M32.2984 105.457C32.2984 105.457 33.424 107.126 33.8596 108.783C34.0004 109.319 33.787 110.532 33.315 110.647C32.4958 110.847 31.3545 109.039 31.3545 109.039L32.2984 105.457Z" fill="#8F502E"/>
<path d="M27.7604 104.068C27.7604 104.068 26.079 106.588 25.7999 107.76C25.5683 108.731 25.8725 110.757 25.8725 110.757C25.8725 110.757 26.5799 111.754 27.9782 112.328C30.2593 113.265 31.4636 112.584 31.4636 112.584C31.4636 112.584 32.0577 110.903 32.1897 110.026C32.38 108.762 32.226 105.421 32.226 105.421L27.7604 104.068Z" fill="#A05A34"/>
<path d="M66.559 106.698C66.559 106.698 65.4334 108.367 64.9978 110.024C64.8571 110.56 65.0704 111.773 65.5424 111.888C66.3616 112.088 67.5029 110.28 67.5029 110.28L66.559 106.698Z" fill="#8F502E"/>
<path d="M71.0971 105.309C71.0971 105.309 72.7784 107.829 73.0576 109.001C73.2891 109.973 72.985 111.998 72.985 111.998C72.985 111.998 72.2775 112.995 70.8792 113.569C68.5981 114.506 67.3938 113.825 67.3938 113.825C67.3938 113.825 66.7998 112.144 66.6677 111.267C66.4775 110.003 66.6314 106.662 66.6314 106.662L71.0971 105.309Z" fill="#A05A34"/>
<path d="M39.9713 133.855C38.1793 135.408 35.8055 137.4 35.8055 137.4C35.8055 137.4 34.5782 138.617 34.2761 139.538C33.7219 141.229 34.1223 142.57 34.5649 143.783C34.8271 144.533 37.0892 145.192 38.6675 145.428C41.9095 145.843 42.6194 145.578 43.7906 144.879C46.1797 142.882 48.0876 140.785 48.9807 139.63C49.0634 138.569 48.9884 137.391 49.0854 134.664C49.1163 133.795 48.1093 132.783 48.1093 132.783C48.1093 132.783 42.8123 131.652 39.9713 133.855Z" fill="#0D0D0D"/>
<path d="M49.071 136.385C49.071 136.385 46.1096 140.868 43.1693 141.822C41.2738 142.437 37.8385 142.048 36.0056 141.263C34.8872 140.785 34.716 138.576 34.716 138.576C34.716 138.576 33.0537 139.654 34.5585 143.911C34.7008 144.539 36.1406 145.611 37.4406 145.816C38.1497 145.927 41.872 146.262 43.4668 145.126C46.301 143.107 49.0148 139.617 49.0148 139.617L49.071 136.385Z" fill="#C7C7C7"/>
<path d="M34.7781 138.463C35.7993 137.03 36.9945 136.107 39.7249 136.721C42.6249 137.372 44.3429 140.325 44.1093 141.125C43.7202 142.459 38.6946 142.743 36.2636 141.953C33.8999 141.185 33.8696 140.055 34.7781 138.463Z" fill="#EFEFEF"/>
<path d="M59.1754 133.907C61.8432 135.487 63.5034 137.372 63.5034 137.372C63.5034 137.372 64.7153 138.589 65.0174 139.51C65.5716 141.201 65.1866 142.542 64.744 143.755C64.4818 144.504 62.2197 145.163 60.6414 145.399C57.3994 145.815 56.6895 145.55 55.5183 144.851C53.1292 142.854 51.2213 140.757 50.3282 139.602C50.2455 138.54 50.3205 137.363 50.2235 134.636C50.1926 133.766 51.1996 132.755 51.1996 132.755C51.1996 132.755 56.5075 132.327 59.1754 133.907Z" fill="#0D0D0D"/>
<path d="M50.2375 136.357C50.2375 136.357 53.199 140.84 56.1393 141.793C58.0348 142.408 61.4701 142.019 63.303 141.235C64.4214 140.757 64.5926 138.548 64.5926 138.548C64.5926 138.548 66.2549 139.626 64.7501 143.883C64.6078 144.51 63.168 145.582 61.868 145.787C61.1589 145.899 57.4366 146.233 55.8418 145.097C53.0076 143.079 50.2937 139.588 50.2937 139.588L50.2375 136.357Z" fill="#C7C7C7"/>
<path d="M64.5305 138.435C63.5093 137.002 62.3141 136.079 59.5836 136.692C56.6837 137.344 54.9657 140.296 55.1993 141.097C55.5884 142.431 60.614 142.714 63.045 141.925C65.4087 141.157 65.439 140.026 64.5305 138.435Z" fill="#EFEFEF"/>
<path d="M37.916 101.377C36.7932 108.935 40.952 133.805 40.952 133.805C40.952 133.805 40.7079 135.627 42.9335 135.708C47.1265 135.86 48.0397 133.349 48.0397 133.349L50.0385 114.641L51.1792 133.537C51.1792 133.537 51.6472 136.231 55.9474 135.973C58.1998 135.838 58.4312 133.628 58.4312 133.628C58.4312 133.628 62.7328 106.716 61.6374 101.913C55.954 95.7306 43.9801 94.9897 37.916 101.377Z" fill="#A05A34"/>
<path d="M39.0368 73.2366C39.0368 73.2366 35.9656 77.4401 33.6452 83.4101C31.1849 89.7399 26.9248 105.408 26.9248 105.408C26.9248 105.408 27.3477 106.163 28.9119 106.456C30.979 106.844 32.6003 105.94 32.6003 105.94L38.7245 88.8102C38.7245 88.8102 37.2205 101.276 37.7916 107.509C41.2405 111.962 47.8827 112.24 50.1285 112.271C53.4633 112.317 57.9149 111.487 61.6543 107.703C62.1968 101.804 61.0607 89.3558 61.0607 89.3558L66.2425 107.201C66.2425 107.201 66.6895 107.904 69.2756 107.701C71.3442 107.538 71.8374 106.491 71.8374 106.491C71.8374 106.491 68.1468 91.5443 65.6509 83.4755C63.9174 77.8718 60.8672 73.6021 60.8672 73.6021L39.0368 73.2366Z" fill="#A05A34"/>
<path d="M37.9484 95.2068C36.1229 102.715 37.2279 117.205 37.2279 117.205C37.2279 117.205 40.2379 119.907 43.2612 119.999C47.8807 120.141 49.705 117.869 49.705 117.869L50.0445 114.852L50.2381 117.884C50.2381 117.884 52.9072 120.266 56.84 120.205C61.0737 120.139 62.28 117.574 62.28 117.574C62.28 117.574 62.9534 102.411 60.9985 95.394C59.0436 88.3769 39.7739 87.6982 37.9484 95.2068Z" fill="#023473"/>
<path d="M37.1022 76.2566C40.7079 86.851 36.0222 93.0067 36.4576 104.048C41.7323 111.643 58.4589 111.191 62.4247 103.613C62.7922 92.5421 58.9943 86.4049 63.175 77.6472C67.3558 68.8895 34.7235 69.2675 37.1022 76.2566Z" fill="#CF50A1"/>
<path d="M24.9462 58.7398C23.4414 57.3117 20.3876 55.4492 18.992 56.9854C15.9782 60.3029 18.0842 63.5542 20.8234 66.4014C23.5626 69.2486 28.1007 67.7141 28.1007 67.7141C28.1007 67.7141 28.0618 61.6966 24.9462 58.7398Z" fill="#8F502E"/>
<path d="M24.6163 59.8322C23.1116 58.4042 20.1275 56.6089 18.6621 58.0779C16.556 60.1892 17.2886 63.9168 20.9966 67.0261C24.7047 70.1354 28.9282 68.2709 28.9282 68.2709C28.9282 68.2709 27.7319 62.7891 24.6163 59.8322Z" fill="#A05A34"/>
<path d="M76.0764 58.7608C77.6531 57.4145 80.7996 55.7163 82.1149 57.3236C84.955 60.7946 82.6839 63.9294 79.801 66.6273C76.9182 69.3252 72.4635 67.5538 72.4635 67.5538C72.4635 67.5538 72.8119 61.5483 76.0764 58.7608Z" fill="#8F502E"/>
<path d="M76.3496 59.8697C77.9262 58.5235 80.9994 56.8888 82.3877 58.4326C84.383 60.6515 83.0169 64.9684 79.3149 67.0727C75.6129 69.1769 70.8615 68.1264 70.8615 68.1264C70.8615 68.1264 73.0852 62.657 76.3496 59.8697Z" fill="#A05A34"/>
<path d="M23.6887 57.5962C26.3308 69.0372 38.0118 81.5407 49.6328 81.3873C63.1097 81.2096 71.0796 70.7737 76.0069 60.9353C82.0808 42.0535 72.9948 26.2196 49.6328 26.4312C31.8066 26.5926 20.7296 37.5084 23.6887 57.5962Z" fill="#A05A34"/>
<path d="M49.3997 60.4216C49.3997 60.4216 46.9064 63.8234 47.2214 66.0501C47.3142 66.7067 47.7702 68.4266 49.3997 68.4624C51.1634 68.5011 51.769 67.0262 51.7233 65.904C51.6168 63.2895 49.3997 60.4216 49.3997 60.4216Z" fill="#863D25"/>
<path d="M44.6711 70.6929C44.5965 70.6982 44.5236 70.7182 44.4567 70.7518C44.3897 70.7854 44.33 70.832 44.2809 70.8888C44.1819 71.0037 44.1323 71.1535 44.143 71.3051C44.1537 71.4568 44.2238 71.598 44.3379 71.6977C44.3379 71.6977 46.546 73.6719 49.4315 73.718C52.7641 73.7714 54.9379 71.6879 54.9379 71.6879C55.0474 71.5831 55.111 71.4389 55.1149 71.287C55.1188 71.135 55.0626 70.9877 54.9587 70.8774C54.9071 70.8228 54.8455 70.7789 54.7771 70.7483C54.7087 70.7177 54.6351 70.701 54.5603 70.699C54.4855 70.6971 54.4111 70.71 54.3413 70.737C54.2714 70.764 54.2076 70.8046 54.1533 70.8565C54.1533 70.8565 52.3061 72.6169 49.4497 72.5712C47.0823 72.5333 45.0847 70.8318 45.0847 70.8318C44.9706 70.7321 44.8218 70.6822 44.6711 70.6929Z" fill="#863D25"/>
<path d="M28.2646 35.9956C28.2646 35.9956 33.4922 36.7002 32.0036 30.8462C32.0036 30.8462 36.0832 32.4188 38.0077 28.5179C39.0048 26.4969 36.3498 24.6737 36.3498 24.6737" fill="#575757"/>
<path d="M37.9957 28.0399C38.0793 28.1498 42.9572 28.1729 41.161 23.4388L37.9957 28.0399Z" fill="#575757"/>
<path d="M41.413 25.8825C41.413 25.8825 44.1227 24.272 42.894 21.8706C41.58 19.3026 37.9638 19.7044 36.3098 21.236" fill="#575757"/>
<path d="M23.4315 40.0765C23.4315 40.0765 28.5766 41.7021 29.1016 35.6452L23.4315 40.0765Z" fill="#575757"/>
<path d="M25.2565 40.2288C25.2565 40.2288 22.7826 43.6456 20.1002 41.2647C17.6468 38.6088 19.6097 35.9978 19.6097 35.9978" fill="#4F2F24"/>
<path d="M19.1146 38.0416C19.1146 38.0416 15.2022 36.8853 16.0672 33.0264C18.0464 28.9913 21.6002 31.5798 21.6002 31.5798" fill="#4F2F24"/>
<path d="M19.4915 31.2752C19.4915 31.2752 18.1579 28.0716 19.312 25.305C20.466 22.5385 22.4465 20.4906 24.8627 20.8406C27.2789 21.1906 27.1489 24.2286 27.1489 24.2286" fill="#4F2F24"/>
<path d="M40.7771 20.4158C40.7771 20.4158 41.394 17.0895 38.3284 16.093C34.8904 15.4856 33.2944 18.6033 33.2944 18.6033" fill="#575757"/>
<path d="M35.0722 16.8897C35.0722 16.8897 33.176 15.1613 30.2927 16.7023C27.4094 18.2432 27.5915 20.9939 27.5915 20.9939" fill="#4F2F24"/>
<path d="M23.0391 21.5249C23.0391 21.5249 22.6418 19.3941 24.7669 17.8566C26.8921 16.319 28.8224 18.6366 28.8224 18.6366" fill="#4F2F24"/>
<path d="M20.0824 29.714L19.1551 36.1739L24.205 40.159L29.1918 35.5274L31.9982 30.7489L38.3292 27.7402L41.0596 23.9227L39.4308 18.4614L32.8897 16.5081L25.8238 19.9114L23.5628 21.2074L20.0824 29.714Z" fill="#4F2F24"/>
<path d="M71.8548 36.6862C71.8548 36.6862 66.5517 37.4832 67.979 31.4762C67.979 31.4762 63.8555 33.1439 61.8422 29.1837C60.7992 27.1321 63.471 25.229 63.471 25.229" fill="#575757"/>
<path d="M61.8473 28.6951C61.764 28.8088 56.8063 28.9039 58.5626 24.0372L61.8473 28.6951Z" fill="#575757"/>
<path d="M58.3429 26.5395C58.3429 26.5395 55.5651 24.9325 56.7788 22.4592C58.0768 19.8142 61.7583 20.172 63.462 21.7137" fill="#575757"/>
<path d="M76.8263 40.7875C76.8263 40.7875 71.6206 42.525 70.9983 36.34L76.8263 40.7875Z" fill="#575757"/>
<path d="M74.9738 40.9696C74.9738 40.9696 77.5384 44.4269 80.23 41.9532C82.6848 39.2016 80.6514 36.5608 80.6514 36.5608" fill="#4F2F24"/>
<path d="M81.1848 38.6429C81.1848 38.6429 85.1446 37.4032 84.2088 33.4704C82.138 29.3737 78.5638 32.0725 78.5638 32.0725" fill="#4F2F24"/>
<path d="M80.7033 31.7304C80.7033 31.7304 82.0119 28.4353 80.7984 25.6236C79.5848 22.8119 77.5419 20.7472 75.0911 21.1405C72.6404 21.5338 72.817 24.638 72.817 24.638" fill="#4F2F24"/>
<path d="M58.9096 20.9405C58.9096 20.9405 58.2338 17.5485 61.3352 16.4847C64.8207 15.8132 66.4886 18.9775 66.4886 18.9775" fill="#575757"/>
<path d="M64.6564 17.2512C64.6564 17.2512 66.5584 15.4563 69.5115 16.9895C72.4647 18.5226 72.3199 21.3377 72.3199 21.3377" fill="#4F2F24"/>
<path d="M76.9547 21.8136C76.9547 21.8136 77.3274 19.6292 75.1449 18.0884C72.9623 16.5475 71.0342 18.9454 71.0342 18.9454" fill="#4F2F24"/>
<path d="M80.0796 30.1434L81.1168 36.7345L76.0424 40.8831L70.9059 36.2208L67.9834 31.3763L61.5043 28.393L58.6732 24.5299L60.2488 18.9222L66.8686 16.8292L74.1003 20.2052L76.4175 21.497L80.0796 30.1434Z" fill="#4F2F24"/>
<path d="M57.6124 26.3727C57.6124 26.3727 53.4811 32.1631 49.9299 24.6386C49.9299 24.6386 47.5612 30.2204 42.5612 28.0283C39.9708 26.8926 40.8435 22.4288 40.8435 22.4288" fill="#575757"/>
<path d="M42.169 27.5086C42.1855 27.7038 37.8 32.4482 35.4632 25.7893L42.169 27.5086Z" fill="#575757"/>
<path d="M37.2749 28.5722C37.2749 28.5722 33.481 29.5206 32.5824 25.835C31.6215 21.8936 35.2232 18.8112 37.9978 18.8025" fill="#4F2F24"/>
<path d="M65.3972 25.9491C65.3972 25.9491 62.1107 32.615 56.571 26.8291L65.3972 25.9491Z" fill="#575757"/>
<path d="M63.8745 27.8808C63.8745 27.8808 68.9662 29.0383 69.3976 23.967C69.3921 18.8316 65.4358 18.0172 65.4358 18.0172" fill="#4F2F24"/>
<path d="M67.5848 19.6653C67.5848 19.6653 70.1508 14.6765 66.1428 11.5024C60.9813 9.22331 59.9368 15.3538 59.9368 15.3538" fill="#4F2F24"/>
<path d="M61.5756 12.9897C61.5756 12.9897 60.1009 8.36902 56.7453 6.61023C53.3898 4.85144 49.889 4.63941 47.9999 7.3415C46.1108 10.0436 48.7686 13.0756 48.7686 13.0756" fill="#4F2F24"/>
<path d="M33.2713 22.2776C33.2713 22.2776 29.9326 19.4169 31.8677 15.414C34.4643 11.4551 38.5126 13.1512 38.5126 13.1512" fill="#4F2F24"/>
<path d="M35.4706 13.0988C35.4706 13.0988 35.7373 9.46882 39.6296 8.28105C43.5219 7.09327 45.658 10.1276 45.658 10.1276" fill="#4F2F24"/>
<path d="M50.2119 6.28225C50.2119 6.28225 48.7888 3.68326 45.5841 4.14151C42.3793 4.59976 42.5744 8.87608 42.5744 8.87608" fill="#4F2F24"/>
<path d="M59.7418 11.9292L65.981 17.7464L64.7534 26.7756L56.3774 26.7873L49.8475 24.5364L41.6147 27.5359L35.957 26.2102L32.861 18.9572L37.1341 10.5968L46.3604 7.29632L49.4858 6.45529L59.7418 11.9292Z" fill="#4F2F24"/>
<path d="M25.8662 35.0499C21.1806 42.72 22.4629 51.9049 22.4585 52.4927C22.7975 63.7668 29.2377 62.6792 29.2377 62.6792C25.0285 61.5558 25.7219 54.2774 26.8291 52.172C29.6436 50.8241 29.8328 47.0925 29.6399 46.096C29.6399 46.0956 29.642 46.0948 29.642 46.0948C30.1117 46.4661 30.8081 46.7306 31.8464 46.7066C37.8047 46.5689 37.1284 41.9623 37.1284 41.9623C42.4131 44.4974 44.6403 39.7677 44.8617 38.66C45.5448 40.9856 47.3385 44.0307 52.0792 44.9072C57.8021 45.9654 61.2723 44.1251 63.1395 42.4888C63.8824 44.3148 65.7507 46.6818 69.7735 45.2231C69.7756 45.2244 69.7756 45.2259 69.7762 45.2272C69.2417 46.6415 68.3471 51.7921 73.3219 53.939C73.5092 54.5358 75.1567 60.1153 72.3119 63.5984C72.3119 63.5984 77.6164 60.8804 78.3417 53.7388L78.3485 53.7357C78.3485 53.7357 78.3543 53.6094 78.3554 53.5992C78.3626 53.5211 78.3726 53.4456 78.3787 53.3665L78.3675 53.3675C78.5261 51.3734 82.2991 26.3498 50.922 24.4319C40.531 24.697 32.9654 26.5259 25.8668 35.05L25.8662 35.0499Z" fill="#4F2F24"/>
<path d="M22.9888 42.4327C22.9888 42.4327 30.233 26.683 50.3022 26.0354C70.3713 25.3878 77.97 43.5843 77.97 43.5843C77.97 43.5843 75.4199 20.6977 50.7996 20.7185C26.1792 20.7393 22.9888 42.4327 22.9888 42.4327Z" fill="#E6BE52"/>
<g style="mix-blend-mode:multiply">
<path d="M39.8835 53.7582C39.6547 53.7618 39.4269 53.7985 39.2042 53.8679C37.0761 54.3707 34.5376 56.7239 34.647 57.0973C34.7475 57.4408 36.7386 57.9608 36.7386 57.9608C36.7785 58.1479 36.747 57.7162 36.7402 57.9464C36.7401 60.2596 38.1477 62.1349 39.8839 62.1348C41.62 62.1347 43.0272 60.2595 43.0271 57.9464C43.0271 56.7545 42.8117 56.2139 42.5682 55.7688C42.5682 55.7688 41.4697 56.9792 40.9749 56.5082C40.48 56.0373 41.5449 54.3927 41.5449 54.3927C41.0466 53.9786 40.4712 53.7588 39.8839 53.7582H39.8835Z" fill="#442525"/>
<path d="M40.5191 52.0657C40.5191 52.0657 42.0715 51.3554 41.3548 50.5976C40.167 49.3417 35.3359 52.3794 35.3359 52.3794" fill="#442525"/>
</g>
<g style="mix-blend-mode:multiply">
<path d="M59.0636 54.2396C57.3274 54.2395 55.92 56.1146 55.9199 58.4278C55.92 60.7409 57.3274 62.616 59.0636 62.6159C60.7995 62.6158 62.2068 60.7407 62.2068 58.4278C62.2131 58.278 62.1918 58.5388 62.2085 58.4293C62.2085 58.4293 64.3275 57.8606 64.4541 57.5787C64.5831 57.2915 63.1811 56.404 62.0189 55.5544C62.0189 55.5544 60.9375 57.2658 60.3078 56.8198C59.678 56.3738 60.8006 54.7147 60.8006 54.7147C60.4202 54.5127 60.24 54.4781 59.8642 54.3782C59.6029 54.2863 59.3338 54.2398 59.0636 54.2396Z" fill="#442525"/>
<path d="M58.1066 52.0097C58.1066 52.0097 56.5789 51.2472 57.3205 50.5141C58.5496 49.2992 63.2764 52.4988 63.2764 52.4988" fill="#442525"/>
</g>
</svg>
