<svg width="194" height="258" viewBox="0 0 194 258" fill="none" xmlns="http://www.w3.org/2000/svg">
<path d="M45.2332 143.716C44.9391 141.363 46.9443 144.931 48.1259 146.143C51.7523 149.865 55.7588 152.694 59.6966 156.01C73.2428 167.417 87.8729 177.423 101.434 188.759C117.413 202.116 135.287 213.031 152.573 224.608C158.627 228.663 166.373 235.832 173.545 237.625" stroke="#BDED98" stroke-width="39" stroke-linecap="round"/>
<ellipse cx="50.5" cy="144.5" rx="50.5" ry="36.5" fill="#BDED98"/>
<ellipse cx="51" cy="144.5" rx="37" ry="26.5" fill="#7CD67A"/>
<path opacity="0.811494" d="M50.3338 156C61.2683 156 70.1325 149.476 70.1325 141.427C70.1325 133.379 61.2683 126.855 50.3338 126.855C39.3993 126.855 30.5352 133.379 30.5352 141.427C30.5352 149.476 39.3993 156 50.3338 156Z" fill="#08394D" fill-opacity="0.5"/>
<path d="M67.8582 105.132C67.8582 105.132 66.6901 106.856 66.238 108.568C66.0919 109.121 66.3133 110.375 66.8032 110.494C67.6534 110.7 68.8379 108.832 68.8379 108.832L67.8582 105.132Z" fill="#8F502E"/>
<path d="M72.5679 103.698C72.5679 103.698 74.3129 106.301 74.6026 107.511C74.843 108.515 74.5273 110.607 74.5273 110.607C74.5273 110.607 73.793 111.637 72.3418 112.23C69.9744 113.198 68.7246 112.495 68.7246 112.495C68.7246 112.495 68.108 110.758 67.971 109.852C67.7735 108.547 67.9333 105.095 67.9333 105.095L72.5679 103.698Z" fill="#A05A34"/>
<path d="M40.2644 133.186C38.4046 134.79 35.941 136.848 35.941 136.848C35.941 136.848 34.6673 138.105 34.3537 139.057C33.7785 140.803 34.1941 142.188 34.6534 143.441C34.9256 144.216 37.2732 144.896 38.9112 145.14C42.2759 145.569 43.0127 145.296 44.2282 144.574C46.7077 142.511 48.6878 140.344 49.6146 139.152C49.7005 138.055 49.6227 136.838 49.7233 134.021C49.7554 133.123 48.7103 132.078 48.7103 132.078C48.7103 132.078 43.2129 130.91 40.2644 133.186Z" fill="#0D0D0D"/>
<path d="M49.7084 135.799C49.7084 135.799 46.6349 140.43 43.5834 141.415C41.6162 142.05 38.0508 141.648 36.1486 140.838C34.988 140.344 34.8102 138.062 34.8102 138.062C34.8102 138.062 33.085 139.176 34.6468 143.573C34.7945 144.222 36.2887 145.329 37.638 145.541C38.3738 145.656 42.2371 146.002 43.8921 144.828C46.8336 142.743 49.6501 139.137 49.6501 139.137L49.7084 135.799Z" fill="#C7C7C7"/>
<path d="M34.8747 137.946C35.9345 136.465 37.175 135.512 40.0087 136.146C43.0184 136.819 44.8014 139.869 44.559 140.696C44.1551 142.074 38.9393 142.367 36.4164 141.551C33.9633 140.757 33.9318 139.59 34.8747 137.946Z" fill="#EFEFEF"/>
<path d="M60.1954 133.239C62.9642 134.872 64.6872 136.819 64.6872 136.819C64.6872 136.819 65.9449 138.075 66.2585 139.027C66.8337 140.774 66.4341 142.159 65.9747 143.412C65.7026 144.186 63.355 144.867 61.717 145.111C58.3522 145.54 57.6154 145.267 56.3999 144.545C53.9205 142.481 51.9404 140.315 51.0135 139.122C50.9277 138.025 51.0055 136.809 50.9049 133.992C50.8728 133.094 51.9178 132.049 51.9178 132.049C51.9178 132.049 57.4266 131.607 60.1954 133.239Z" fill="#0D0D0D"/>
<path d="M50.9195 135.77C50.9195 135.77 53.993 140.401 57.0445 141.386C59.0117 142.021 62.5771 141.619 64.4793 140.809C65.64 140.315 65.8177 138.033 65.8177 138.033C65.8177 138.033 67.5429 139.147 65.9811 143.544C65.8334 144.192 64.3392 145.3 62.99 145.512C62.2541 145.627 58.3909 145.972 56.7358 144.799C53.7944 142.713 50.9778 139.108 50.9778 139.108L50.9195 135.77Z" fill="#C7C7C7"/>
<path d="M65.7533 137.916C64.6935 136.436 63.453 135.483 60.6192 136.117C57.6095 136.79 55.8266 139.839 56.069 140.667C56.4728 142.045 61.6886 142.337 64.2116 141.521C66.6647 140.728 66.6961 139.56 65.7533 137.916Z" fill="#EFEFEF"/>
<path d="M38.1318 99.6352C36.9665 107.443 41.2826 133.134 41.2826 133.134C41.2826 133.134 41.0293 135.016 43.3392 135.099C47.6908 135.257 48.6385 132.662 48.6385 132.662L50.713 113.337L51.8968 132.857C51.8968 132.857 52.3825 135.64 56.8454 135.373C59.1831 135.234 59.4232 132.951 59.4232 132.951C59.4232 132.951 63.8875 105.151 62.7507 100.189C56.8523 93.8028 44.4253 93.0374 38.1318 99.6352Z" fill="#A05A34"/>
<path d="M39.295 70.5664C39.295 70.5664 36.1076 74.9086 33.6993 81.0757C31.146 87.6144 25.1623 93.215 24.7622 93.7833C24.3621 94.3517 23.3612 96.1606 24.5553 97.6927C25.8985 99.416 27.8926 98.3881 27.8926 98.3881L38.9708 86.654C38.9708 86.654 37.41 99.5316 38.0026 105.97C41.582 110.57 48.4755 110.857 50.8063 110.889C54.2672 110.936 58.8874 110.079 62.7682 106.17C63.3313 100.077 62.1522 87.2176 62.1522 87.2176L67.53 105.652C67.53 105.652 67.9939 106.378 70.6778 106.168C72.8248 106 73.3366 104.919 73.3366 104.919C73.3366 104.919 69.5064 89.4783 66.916 81.1433C65.117 75.3546 61.9513 70.944 61.9513 70.944L39.295 70.5664Z" fill="#A05A34"/>
<path d="M38.1654 93.2617C36.2709 101.018 37.4176 115.986 37.4176 115.986C37.4176 115.986 40.5416 118.777 43.6793 118.873C48.4735 119.019 50.3669 116.672 50.3669 116.672L50.7192 113.555L50.9201 116.687C50.9201 116.687 53.6902 119.148 57.7718 119.085C62.1657 119.017 63.4177 116.367 63.4177 116.367C63.4177 116.367 64.1165 100.704 62.0877 93.4551C60.0588 86.2064 40.06 85.5053 38.1654 93.2617Z" fill="#023473"/>
<path d="M37.2873 73.686C41.0295 84.6301 36.1665 90.989 36.6184 102.395C42.0926 110.24 59.4521 109.773 63.568 101.946C63.9493 90.509 60.0078 84.1693 64.3467 75.1225C68.6856 66.0757 34.8186 66.4662 37.2873 73.686Z" fill="#CF50A1"/>
<path d="M25.7307 55.5911C24.169 54.1159 20.9997 52.1919 19.5512 53.7789C16.4235 57.2058 18.6091 60.5645 21.4519 63.5056C24.2947 66.4468 29.0045 64.8617 29.0045 64.8617C29.0045 64.8617 28.9642 58.6456 25.7307 55.5911Z" fill="#8F502E"/>
<path d="M25.3886 56.7197C23.8269 55.2445 20.7299 53.39 19.2091 54.9075C17.0233 57.0885 17.7836 60.9391 21.632 64.151C25.4803 67.3629 29.8636 65.4369 29.8636 65.4369C29.8636 65.4369 28.622 59.7742 25.3886 56.7197Z" fill="#A05A34"/>
<path d="M78.7967 55.6127C80.4329 54.2213 83.6982 52.4659 85.0625 54.1263C88.0085 57.7119 85.6512 60.9513 82.6593 63.7396C79.6674 66.5278 75.0458 64.6986 75.0458 64.6986C75.0458 64.6986 75.4087 58.4936 78.7967 55.6127Z" fill="#8F502E"/>
<path d="M79.0804 56.7578C80.7166 55.3665 83.906 53.6766 85.3461 55.2714C87.4159 57.5636 85.9974 62.0244 82.1555 64.1996C78.3137 66.3748 73.3837 65.2905 73.3837 65.2905C73.3837 65.2905 75.6925 59.6387 79.0804 56.7578Z" fill="#A05A34"/>
<path d="M24.426 54.4098C27.168 66.2284 39.291 79.1445 51.3517 78.9862C65.3385 78.8025 73.61 68.0222 78.7237 57.8591C85.0274 38.3541 75.5977 21.9976 51.3517 22.2162C32.851 22.3829 21.3549 33.659 24.426 54.4098Z" fill="#A05A34"/>
<path d="M51.1097 57.3285C51.1097 57.3285 48.522 60.8426 48.8489 63.1428C48.9452 63.8211 49.4185 65.5977 51.1096 65.6346C52.9401 65.6747 53.5686 64.1511 53.5211 62.9918C53.4106 60.2911 51.1097 57.3285 51.1097 57.3285Z" fill="#863D25"/>
<path d="M46.2038 67.9696C46.0556 67.9801 45.9177 68.0491 45.8204 68.1615C45.7229 68.2739 45.6741 68.4205 45.6845 68.569C45.6949 68.7175 45.7638 68.8558 45.8759 68.9535C45.8759 68.9535 48.1623 70.9855 51.1429 71.033C54.5887 71.0878 56.8358 68.9443 56.8358 68.9443C56.9434 68.8417 57.0061 68.7005 57.0099 68.5517C57.0137 68.4029 56.9583 68.2586 56.856 68.1507C56.7537 68.0427 56.6128 67.9799 56.4643 67.976C56.3158 67.9722 56.1718 68.0276 56.064 68.13C56.064 68.13 54.1378 69.9576 51.1605 69.9102C48.6896 69.8708 46.6108 68.1055 46.6108 68.1055C46.5551 68.0572 46.4906 68.0203 46.4208 67.9969C46.3509 67.9736 46.2772 67.9643 46.2038 67.9696Z" fill="#863D25"/>
<path d="M46.5875 0.00144059C46.308 -0.00523371 46.0124 0.0110528 45.7007 0.055125C43.241 0.402887 42.7162 2.91262 42.6089 4.19619C41.7443 3.98982 40.7122 3.96978 39.5207 4.3311C36.083 5.37366 35.3777 8.24424 35.2432 9.07641C34.0011 9.29209 32.6011 9.97501 31.4687 11.6979C31.2554 12.1386 31.1055 12.5657 31.0054 12.9774C30.9669 12.9969 30.9299 13.0119 30.891 13.0325C30.0084 13.5015 29.4042 14.0794 28.9893 14.6617C28.3075 14.0579 26.787 13.051 25.1562 14.225C23.5949 15.349 23.349 16.779 23.3378 17.5196C21.7033 18.1348 20.3701 19.826 19.4967 21.9167C18.5876 24.0929 19.1731 26.523 19.5054 27.5636C18.3811 27.5012 17.078 27.9606 16.1284 29.8928C15.3667 33.2952 18.207 34.6643 19.0573 34.9935C18.9574 35.964 19.1806 37.1797 20.3184 38.4063C23.0339 40.8081 25.5185 37.5397 25.6427 37.3727C27.1845 37.2753 29.1844 36.4559 29.6133 32.9835C31.0655 32.9083 33.8352 32.191 32.669 27.6442C32.669 27.6442 36.2943 29.033 38.4146 26.0469C40.0379 26.2781 41.5638 24.9306 42.0182 24.4018C42.1837 24.5283 42.3659 24.6404 42.5713 24.7304C47.7613 27.0046 50.2121 21.2334 50.2121 21.2334C52.9858 27.0831 56.0897 25.1638 57.4635 23.8454C59.9589 26.2565 61.9901 26.2392 63.4705 25.4927C63.5102 25.6387 63.563 25.7857 63.6384 25.9338C65.7228 30.0255 70.0052 28.2948 70.0052 28.2948C68.8862 32.9616 71.7128 33.6541 73.1896 33.7096C73.6767 37.2526 75.7207 38.0618 77.2891 38.1387C77.4174 38.3072 79.9903 41.6129 82.7155 39.1172C83.8541 37.8462 84.0634 36.6002 83.9476 35.6094C84.8069 35.2603 87.6738 33.819 86.8497 30.3512C85.8562 28.3897 84.5255 27.939 83.3837 28.0192C83.7063 26.9501 84.2657 24.4567 83.3098 22.2454C82.3914 20.1204 81.0111 18.4111 79.3407 17.8061C79.3185 17.0492 79.0476 15.5902 77.444 14.4637C75.769 13.2871 74.2385 14.3397 73.5545 14.9671C73.1242 14.3778 72.5017 13.795 71.5977 13.3285C70.7652 12.8988 70.0193 12.7326 69.3652 12.7047C69.4161 11.0861 68.9516 9.17862 67.0328 7.66271C64.5493 6.56701 62.9878 7.34312 62.0255 8.48963C61.4501 7.08836 59.9339 3.99753 57.2817 2.60914C54.7339 1.2754 52.1073 0.799556 50.1143 1.73218C49.5649 1.07347 48.4204 0.0452093 46.5875 0.00144059ZM50.1346 21.1355L50.1716 21.1486L50.1281 21.1377L50.1346 21.1355ZM32.6733 27.5484L32.6494 27.5818L32.6675 27.5513L32.6733 27.5484ZM69.9994 28.1976L70.0044 28.1998L70.0198 28.2262L69.9994 28.1976Z" fill="#4F2F24"/>
<path d="M26.6856 31.1192C21.8228 39.0425 23.1536 48.5306 23.1491 49.1378C23.5008 60.784 30.1847 59.6604 30.1847 59.6604C25.8163 58.5 26.5359 50.9813 27.685 48.8065C30.606 47.4141 30.8023 43.5593 30.6022 42.53C30.6022 42.5295 30.6038 42.529 30.6038 42.5286C31.0913 42.9122 31.814 43.1855 32.8917 43.1607C39.0754 43.0184 38.3735 38.2598 38.3735 38.2598C43.8582 40.8785 46.1696 35.9927 46.3993 34.8484C47.1083 37.2509 48.9699 40.3964 53.8899 41.3019C59.8294 42.395 63.4309 40.4939 65.3688 38.8036C66.1398 40.6899 68.0787 43.1351 72.2537 41.6282C72.2554 41.6295 72.2556 41.6311 72.2566 41.6324C71.7019 43.0934 70.7734 48.414 75.9364 50.6317C76.1308 51.2482 77.8407 57.012 74.8882 60.61C74.8882 60.61 80.3934 57.8023 81.1461 50.425C81.1463 50.4249 81.1532 50.4217 81.1532 50.4217C81.1532 50.4217 81.1592 50.2913 81.1602 50.2807C81.1677 50.2001 81.1781 50.122 81.1844 50.0403L81.1727 50.0413C81.3373 47.9813 85.2531 22.1319 52.6888 20.1506C41.9047 20.4245 34.0528 22.3137 26.6856 31.1192Z" fill="#4F2F24"/>
<path d="M23.6992 38.7457C23.6992 38.7457 31.2176 22.4762 52.046 21.8072C72.8745 21.1383 80.7607 39.9353 80.7607 39.9353C80.7607 39.9353 78.1141 16.2933 52.5622 16.3148C27.0104 16.3363 23.6992 38.7457 23.6992 38.7457Z" fill="#E6BE52"/>
<g style="mix-blend-mode:multiply">
<path d="M41.2336 50.445C40.9962 50.4486 40.7598 50.4866 40.5286 50.5583C38.32 51.0777 35.6855 53.5086 35.799 53.8942C35.9033 54.2491 37.9697 54.7863 37.9697 54.7863C38.0111 54.9795 37.9784 54.5336 37.9714 54.7714C37.9713 57.161 39.4321 59.0982 41.234 59.0981C43.0358 59.0979 44.4963 57.1608 44.4962 54.7714C44.4962 53.5402 44.2726 52.9817 44.0198 52.5219C44.0198 52.5219 42.8799 53.7723 42.3663 53.2858C41.8527 52.7993 42.9579 51.1004 42.9579 51.1004C42.4407 50.6727 41.8435 50.4456 41.234 50.445H41.2336Z" fill="#442525"/>
<path d="M41.8934 48.6967C41.8934 48.6967 43.5045 47.9629 42.7607 47.1801C41.528 45.8828 36.5142 49.0208 36.5142 49.0208" fill="#442525"/>
</g>
<g style="mix-blend-mode:multiply">
<path d="M61.1391 50.9422C59.3373 50.9421 57.8766 52.8791 57.8765 55.2685C57.8766 57.658 59.3373 59.595 61.1391 59.5949C62.9407 59.5948 64.4012 57.6579 64.4013 55.2685C64.4078 55.1138 64.3857 55.3832 64.403 55.2701C64.403 55.2701 66.6021 54.6827 66.7336 54.3914C66.8674 54.0948 65.4124 53.178 64.2062 52.3003C64.2062 52.3003 63.0839 54.0682 62.4304 53.6075C61.7768 53.1468 62.9418 51.433 62.9418 51.433C62.5471 51.2242 62.3601 51.1885 61.97 51.0853C61.6988 50.9904 61.4195 50.9423 61.1391 50.9422Z" fill="#442525"/>
<path d="M60.1459 48.6387C60.1459 48.6387 58.5603 47.8511 59.33 47.0938C60.6057 45.8388 65.5112 49.1441 65.5112 49.1441" fill="#442525"/>
</g>
<path d="M26.1923 80.2632C26.105 80.2903 26.0618 80.3408 26.0618 80.3408L26.5915 80.33C26.4138 80.2329 26.2806 80.2357 26.1923 80.2632ZM26.5915 80.33C26.8698 80.4822 27.2596 80.8902 27.7581 81.8307C28.0509 82.683 28.3259 84.0819 28.169 86.1552C27.7944 88.9308 26.922 94.8268 27.6946 98.1021C28.2061 100.27 29.296 101.954 31.3409 102.832C33.039 103.561 35.253 103.973 37.0407 103.5C39.0403 102.972 39.9565 100.857 41.8486 101.085C43.1398 101.241 43.3498 103.196 44.6463 103.299C45.9586 103.403 47.4701 102.252 48.1452 101.119C48.8519 99.934 49.4119 97.9935 48.4651 96.9922C48.2445 96.7589 47.5021 97.0142 47.5021 97.0142C47.5021 97.0142 47.4787 95.8371 47.0349 95.6844C46.5497 95.5175 46.088 96.1404 45.7373 96.516C45.439 96.8354 45.1066 97.6658 45.1066 97.6658C45.1066 97.6658 44.8443 97.3632 44.5527 96.99C44.8711 96.4313 45.3581 95.3056 45.124 93.8776C44.7883 91.8301 43.8215 90.7561 43.3633 89.2732C42.5538 86.653 39.5754 80.0683 39.5754 80.0683L26.5915 80.33Z" fill="#BABCC4"/>
<path d="M39.6547 91.321C41.1475 90.9989 42.5981 92.4794 43.2192 93.7845C43.5295 94.4368 43.532 95.3075 43.8739 95.9957C44.182 96.6159 45.105 97.6682 45.105 97.6682C45.105 97.6682 45.4372 96.838 45.7355 96.5186C46.0862 96.1431 46.5478 95.5203 47.0329 95.6872C47.4765 95.8398 47.4999 97.0163 47.4999 97.0163C47.4999 97.0163 48.2422 96.7614 48.4628 96.9947C49.4094 97.9958 48.8495 99.9355 48.1429 101.121C47.4679 102.253 45.9568 103.404 44.6448 103.3C43.3486 103.198 43.1385 101.243 41.8476 101.087C39.9559 100.859 39.14 103.01 37.1289 103.491C35.5347 103.873 34.4256 103.667 33.3207 103.472C32.0895 98.1193 33.9463 95.6466 35.3435 94.1851L35.3368 94.0861L35.3768 94.1467C35.3768 94.1467 37.2529 91.8391 39.6547 91.321Z" fill="#C8C9D0"/>
<path d="M35.9883 88.6959C36.5747 88.5503 36.647 88.3411 36.9963 88.382C38.675 88.5784 40.0245 90.7572 41.3572 90.9677C42.6899 91.1781 44.0808 90.5667 45.2222 89.8456C46.8074 88.8442 47.9128 85.9827 49.0542 85.8131C50.1956 85.6435 50.8714 85.055 51.0561 84.9113C51.2311 84.7751 50.6621 84.8015 50.7241 84.4771C50.7609 84.2846 51.2873 83.9794 51.0585 83.9598C50.7255 83.9312 50.676 83.9209 50.4569 83.9865C50.2789 84.0398 49.8046 84.2123 49.7611 84.1271C49.7176 84.042 50.2774 83.2747 50.3214 82.9209C50.3501 82.6907 50.1943 82.8635 49.9587 82.6651C49.7675 82.5042 49.6843 82.2114 49.4802 82.356C49.1912 82.5606 48.4487 83.2404 48.4487 83.2404C48.4487 83.2404 48.6263 82.0819 48.5756 81.7268C48.5248 81.3717 48.4514 81.5519 48.1922 81.4951C47.7512 81.3986 47.5807 81.1841 47.437 81.4656C47.1876 81.9543 46.8811 83.1006 46.8811 83.1006C46.8811 83.1006 46.5626 82.1229 46.2276 81.9042C45.9685 81.735 45.6923 81.8853 45.4505 82.079C45.2534 82.2369 45.0782 82.2805 45.0983 82.466C45.1183 82.6515 45.3784 83.0018 45.5757 83.2412C45.7087 83.4026 46.0095 83.9481 45.9611 84.0726C45.745 84.6289 43.8375 85.4809 43.8375 85.4809C43.8375 85.4809 42.329 83.9797 41.4558 83.3185C40.5826 82.6572 38.6109 81.5813 38.6109 81.5813L33.6914 82.799C33.6914 82.799 32.5174 83.9882 33.0378 86.1722C33.6272 88.6456 35.4019 88.8415 35.9883 88.6959Z" fill="#C8C9D0"/>
<path d="M35.5573 72.2289C35.8566 72.695 37.8522 73.9814 38.9547 73.826C40.0571 73.6705 40.8118 73.1426 41.5344 72.3651C42.257 71.5876 42.426 68.9646 41.5807 67.5116C40.7355 66.0586 39.0722 63.6769 35.401 64.4656C34.0553 65.0109 33.5326 65.9084 33.6433 66.6045C33.7216 67.0973 34.7115 67.6817 35.3827 69.275C36.0539 70.8682 35.2088 71.686 35.5573 72.2289Z" fill="#CECFD5"/>
<path d="M35.7541 71.6763C35.9814 72.0303 37.497 73.0072 38.3342 72.8892C39.1714 72.7711 39.7446 72.3702 40.2933 71.7797C40.8421 71.1892 40.9705 69.1973 40.3285 68.0938C39.6866 66.9903 38.4235 65.1815 35.6354 65.7805C34.6135 66.1946 34.2165 66.8762 34.3006 67.4049C34.3599 67.7792 35.1118 68.223 35.6216 69.4329C36.1313 70.6429 35.4894 71.264 35.7541 71.6763Z" fill="#888A98"/>
<path d="M23.3924 77.4075C22.4361 72.8935 23.3193 69.1125 25.0116 67.5403C27.0501 65.6463 31.2637 64.4747 32.3046 64.7942C33.045 65.0214 29.6908 66.9212 29.6908 66.9212C29.6908 66.9212 31.1481 66.1374 32.4848 65.9095C33.3625 65.7599 35.434 65.4898 35.5616 65.8663C35.7038 66.2856 34.2089 67.0281 34.2089 67.0281C34.2089 67.0281 35.9281 66.428 37.7923 67.268C39.1219 67.8671 39.973 69.1803 40.314 70.5428C40.6972 72.0744 42.0002 74.0042 42.2474 74.6712C42.7339 75.9839 42.4304 78.4942 41.6201 79.7295C40.4667 81.488 38.1859 82.4573 36.1237 83.1197C34.7797 83.5514 33.2673 83.7158 31.9032 83.4167C30.1587 83.0342 27.3023 80.8451 27.3023 80.8451C27.3023 80.8451 24.039 80.4595 23.3924 77.4075Z" fill="#CECFD5"/>
<path d="M50.9406 84.8574C51.1635 84.7812 51.7271 84.5265 51.8974 84.2289C52.0993 83.8762 52.0445 83.5695 51.985 83.5425C51.9255 83.5155 51.6913 83.7381 51.4343 83.8826C51.1267 84.0556 50.6844 84.0928 50.569 84.1461C50.4243 84.4171 50.4028 84.6327 50.4744 84.798C50.5459 84.9633 50.8528 84.8909 50.9406 84.8574Z" fill="#5B5E6A"/>
<path d="M50.295 82.7767C50.4033 82.5672 50.6343 81.9927 50.5513 81.66C50.4531 81.2658 50.2764 81.0826 50.2147 81.1044C50.153 81.1262 50.0628 81.4492 49.9771 81.7317C49.8746 82.0697 49.5808 82.4033 49.5343 82.5218C49.6173 82.8175 49.6839 82.9949 49.8668 83.0553C50.0498 83.1157 50.2548 82.8618 50.295 82.7767Z" fill="#5B5E6A"/>
<path d="M48.4572 81.4122C48.4739 81.177 48.4589 80.558 48.2511 80.2855C48.0049 79.9626 47.77 79.8645 47.722 79.909C47.6739 79.9535 47.7188 80.2857 47.7518 80.579C47.7913 80.9299 47.6296 81.4167 47.6574 81.4798C47.7993 81.8019 47.9819 81.8547 48.174 81.8376C48.366 81.8206 48.4539 81.5063 48.4572 81.4122Z" fill="#5B5E6A"/>
<path d="M45.2221 82.3948C45.1111 82.1869 44.8726 81.686 44.9299 81.3499C44.9846 81.0291 45.3683 80.6775 45.4303 80.6983C45.4922 80.7193 45.4418 81.1897 45.531 81.4708C45.6378 81.8073 45.9736 82.0026 45.9796 82.1284C45.9943 82.4353 45.836 82.6037 45.6538 82.6669C45.4716 82.7301 45.2634 82.4793 45.2221 82.3948Z" fill="#5B5E6A"/>
<path d="M32.4944 75.4753C32.4944 75.4753 33.7328 75.04 34.3597 75.0103C34.9865 74.9806 36.1015 75.184 36.1192 75.2711C36.1377 75.3579 35.1029 76.0936 33.8944 76.9198C33.1954 77.3977 31.954 78.5597 31.954 78.5597C31.954 78.5597 32.6933 76.8935 33.4175 76.3368C34.3652 75.6083 34.6712 75.7086 34.6618 75.6356C34.6565 75.5953 32.4944 75.4753 32.4944 75.4753Z" fill="#5B5E6A"/>
<path d="M38.4783 69.8283C38.2215 69.8833 37.8896 70.1322 37.5897 70.9C37.1303 72.0762 37.5887 73.2125 37.9686 73.5044C38.3045 73.7626 39.619 73.3985 39.7576 72.0795C39.9103 70.6258 39.4517 70.223 39.1977 70.0757L38.702 71.2369L38.5916 69.8184C38.5447 69.816 38.5331 69.8161 38.4783 69.8283Z" fill="#5B5E6A"/>
<path d="M40.7572 75.5348C40.817 75.5145 40.8825 75.5188 40.9391 75.5468C40.9957 75.5748 41.0389 75.6242 41.0591 75.6841C41.0591 75.6841 41.4613 76.9225 40.5326 78.1341C39.6076 79.341 38.1163 79.7008 38.1163 79.7008C38.0859 79.7084 38.0543 79.7099 38.0233 79.7053C37.9923 79.7007 37.9626 79.6899 37.9358 79.6738C37.9089 79.6576 37.8856 79.6363 37.867 79.6111C37.8484 79.5858 37.835 79.5572 37.8275 79.5267C37.8124 79.4654 37.8222 79.4005 37.8548 79.3463C37.8875 79.2921 37.9402 79.2531 38.0015 79.2378C38.0015 79.2378 39.3546 78.8884 40.1548 77.8444C40.9513 76.8052 40.6077 75.8373 40.6077 75.8373C40.5875 75.7774 40.5919 75.7119 40.6199 75.6551C40.6479 75.5984 40.6973 75.5551 40.7572 75.5348Z" fill="#5B5E6A"/>
<path d="M37.6279 78.8996C37.6496 78.8954 37.6719 78.8955 37.6936 78.8999C37.7153 78.9043 37.7359 78.913 37.7542 78.9254C37.7542 78.9254 37.9253 79.0395 38.0529 79.2466C38.1804 79.4538 38.2649 79.7798 38.0997 80.1417C38.0811 80.1824 38.0472 80.214 38.0054 80.2296C37.9635 80.2453 37.9173 80.2437 37.8767 80.2252C37.8566 80.216 37.8385 80.2029 37.8235 80.1868C37.8084 80.1706 37.7967 80.1516 37.789 80.1309C37.7813 80.1102 37.7777 80.0882 37.7785 80.066C37.7793 80.0439 37.7844 80.0222 37.7936 80.0021C37.9124 79.7418 37.8533 79.5644 37.7666 79.4237C37.6799 79.2829 37.5656 79.2047 37.5656 79.2047C37.5287 79.1797 37.5032 79.1412 37.4947 79.0974C37.4861 79.0536 37.4953 79.0082 37.5202 78.9711C37.5326 78.9527 37.5485 78.9369 37.5669 78.9246C37.5854 78.9124 37.6062 78.9039 37.6279 78.8996Z" fill="#5B5E6A"/>
<path d="M40.401 75.4364C40.4156 75.4199 40.4334 75.4063 40.4532 75.3966C40.4731 75.3869 40.4947 75.3813 40.5168 75.3799C40.5388 75.3786 40.5609 75.3816 40.5818 75.3888C40.6027 75.396 40.6219 75.4072 40.6384 75.4219C40.6717 75.4515 40.6919 75.4931 40.6945 75.5375C40.6971 75.582 40.6821 75.6258 40.6525 75.6592C40.6525 75.6592 40.6883 75.5943 40.6883 75.5943C40.6883 75.5943 40.695 75.5489 40.695 75.5489C40.695 75.549 40.6893 75.5048 40.6893 75.5049C40.6894 75.5051 40.6813 75.4806 40.6785 75.4753C40.6734 75.4645 40.6708 75.4613 40.669 75.4585C40.6653 75.4527 40.6642 75.4519 40.6639 75.4516C40.6639 75.4516 40.6666 75.4547 40.6728 75.4601C40.6853 75.4707 40.7102 75.4883 40.7508 75.5034C40.8318 75.5335 40.98 75.5576 41.2382 75.4768C41.2808 75.4635 41.3269 75.4676 41.3664 75.4883C41.4058 75.509 41.4355 75.5446 41.4487 75.5872C41.462 75.6297 41.4578 75.6758 41.4371 75.7153C41.4165 75.7549 41.381 75.7846 41.3385 75.798C41.0248 75.8962 40.7908 75.8775 40.6333 75.8189C40.5545 75.7896 40.4955 75.7512 40.4549 75.7168C40.4347 75.6995 40.419 75.6836 40.4063 75.6684C40.3999 75.6608 40.3944 75.6542 40.388 75.6444C40.3847 75.6393 40.3817 75.6347 40.3758 75.6226C40.3725 75.6167 40.3645 75.5912 40.3644 75.591C40.3644 75.591 40.3585 75.5468 40.3585 75.5467C40.3585 75.5467 40.3653 75.5017 40.3653 75.5017C40.3653 75.5017 40.4009 75.4365 40.401 75.4364Z" fill="#5B5E6A"/>
<path d="M37.0079 74.2162C36.809 74.4015 37.3179 76.5037 37.4548 76.8242C37.5915 77.1448 38.224 77.9021 38.8769 77.9394C39.5298 77.9768 40.0992 77.7243 40.388 77.2795C40.6767 76.8346 40.606 76.3283 40.4975 75.9387C40.389 75.5491 40.1779 75.2624 39.827 75.0256C39.476 74.7888 37.2067 74.031 37.0079 74.2162Z" fill="#5B5E6A"/>
<path d="M28.042 80.3072C28.1507 80.931 27.5637 82.7013 26.8872 83.7129C26.2106 84.7245 24.1955 85.5444 22.8878 85.1998C21.5801 84.8552 19.8298 83.036 19.2792 81.2017C18.7287 79.3674 18.0216 75.875 21.3685 73.8173C22.9199 73.2304 25.0844 73.0078 25.5291 73.6782C25.844 74.1528 25.4597 75.5298 26.1267 77.3886C26.7938 79.2474 27.9154 79.5808 28.042 80.3072Z" fill="#CECFD5"/>
<path d="M27.306 79.6561C27.3785 80.0717 26.9874 81.2511 26.5366 81.925C26.0859 82.5989 24.7433 83.1452 23.8721 82.9156C23.0009 82.6861 21.8349 81.4741 21.4681 80.252C21.1013 79.03 20.6302 76.7032 22.8599 75.3323C23.8935 74.9413 25.3356 74.7931 25.6318 75.2397C25.8416 75.5559 25.5856 76.4732 26.03 77.7116C26.4744 78.95 27.2216 79.1721 27.306 79.6561Z" fill="#888A98"/>
<path d="M27.3668 93.5963C27.3668 93.5963 29.4703 93.0528 31.2275 93.2423C31.7954 93.3036 32.8848 93.9589 32.8209 94.4597C32.7101 95.3287 30.5458 95.7683 30.5458 95.7683L27.3668 93.5963Z" fill="#8F502E"/>
<path d="M24.4246 97.4223C24.4246 97.4223 26.2288 99.9857 27.2537 100.69C28.1038 101.274 30.1672 101.727 30.1672 101.727C30.1672 101.727 31.3901 101.409 32.4611 100.263C34.2082 98.3952 33.9989 96.9747 33.9989 96.9747C33.9989 96.9747 32.5994 95.7765 31.8037 95.3243C30.6572 94.6726 27.3817 93.5871 27.3817 93.5871L24.4246 97.4223Z" fill="#A05A34"/>
</svg>
