<svg width="205" height="259" viewBox="0 0 205 259" fill="none" xmlns="http://www.w3.org/2000/svg">
<path d="M56.2332 144.716C55.9391 142.363 57.9443 145.931 59.1259 147.143C62.7523 150.865 66.7588 153.694 70.6966 157.01C84.2428 168.417 98.8729 178.423 112.434 189.759C128.413 203.116 146.287 214.031 163.573 225.608C169.627 229.663 177.373 236.832 184.545 238.625" stroke="#BDED98" stroke-width="39" stroke-linecap="round"/>
<ellipse cx="61.5" cy="145.5" rx="50.5" ry="36.5" fill="#BDED98"/>
<ellipse cx="62" cy="145.5" rx="37" ry="26.5" fill="#7CD67A"/>
<path d="M68.8204 85.1294C68.8204 85.1294 57.5876 95.746 56.6936 101.781C55.7995 107.817 58.8729 114.382 60.7848 115.142C62.6966 115.903 63.3819 116.535 64.1623 113.92C64.7631 108.039 67.23 101.505 70.0857 95.7025C70.5376 89.43 68.8204 85.1294 68.8204 85.1294Z" fill="#845742"/>
<path opacity="0.811494" d="M40.0456 159.105C50.7152 159.105 59.3646 152.752 59.3646 144.914C59.3646 137.076 50.7152 130.723 40.0456 130.723C29.376 130.723 20.7266 137.076 20.7266 144.914C20.7266 152.752 29.376 159.105 40.0456 159.105Z" fill="#08394D" fill-opacity="0.5"/>
<path d="M22.6544 108.562C22.6544 108.562 23.7875 110.231 24.226 111.888C24.3677 112.423 24.1529 113.637 23.6778 113.752C22.853 113.952 21.7041 112.144 21.7041 112.144L22.6544 108.562Z" fill="#8F502E"/>
<path d="M18.0856 107.173C18.0856 107.173 16.393 109.693 16.112 110.865C15.8788 111.836 16.1851 113.862 16.1851 113.862C16.1851 113.862 16.8972 114.859 18.3049 115.433C20.6013 116.37 21.8136 115.689 21.8136 115.689C21.8136 115.689 22.4117 114.008 22.5446 113.131C22.7361 111.867 22.5811 108.525 22.5811 108.525L18.0856 107.173Z" fill="#A05A34"/>
<path d="M57.1435 109.803C57.1435 109.803 56.0104 111.472 55.5719 113.129C55.4302 113.665 55.6449 114.878 56.1201 114.993C56.9448 115.193 58.0938 113.385 58.0938 113.385L57.1435 109.803Z" fill="#8F502E"/>
<path d="M61.7122 108.414C61.7122 108.414 63.4048 110.934 63.6859 112.106C63.919 113.077 63.6128 115.103 63.6128 115.103C63.6128 115.103 62.9006 116.1 61.4929 116.674C59.1965 117.611 57.9842 116.93 57.9842 116.93C57.9842 116.93 57.3862 115.249 57.2533 114.372C57.0617 113.108 57.2167 109.767 57.2167 109.767L61.7122 108.414Z" fill="#A05A34"/>
<path d="M30.378 136.96C28.574 138.513 26.1843 140.505 26.1843 140.505C26.1843 140.505 24.9487 141.722 24.6446 142.644C24.0866 144.334 24.4898 145.675 24.9353 146.888C25.1993 147.638 27.4765 148.297 29.0654 148.533C32.3292 148.948 33.0438 148.684 34.2228 147.985C36.628 145.987 38.5486 143.89 39.4477 142.736C39.531 141.674 39.4555 140.496 39.5531 137.769C39.5842 136.9 38.5705 135.888 38.5705 135.888C38.5705 135.888 33.238 134.757 30.378 136.96Z" fill="#0D0D0D"/>
<path d="M39.5387 139.49C39.5387 139.49 36.5574 143.973 33.5974 144.927C31.6892 145.542 28.2308 145.153 26.3857 144.368C25.2598 143.89 25.0875 141.681 25.0875 141.681C25.0875 141.681 23.414 142.759 24.929 147.016C25.0722 147.644 26.5216 148.716 27.8303 148.921C28.5441 149.032 32.2915 149.367 33.8969 148.231C36.7501 146.212 39.4821 142.722 39.4821 142.722L39.5387 139.49Z" fill="#C7C7C7"/>
<path d="M25.1499 141.568C26.178 140.135 27.3812 139.212 30.1299 139.826C33.0493 140.477 34.7788 143.43 34.5437 144.23C34.1519 145.565 29.0926 145.848 26.6454 145.058C24.2659 144.29 24.2354 143.16 25.1499 141.568Z" fill="#EFEFEF"/>
<path d="M49.7106 137.012C52.3963 138.592 54.0676 140.477 54.0676 140.477C54.0676 140.477 55.2876 141.694 55.5917 142.615C56.1497 144.306 55.7621 145.647 55.3165 146.86C55.0525 147.609 52.7753 148.268 51.1865 148.504C47.9227 148.92 47.208 148.655 46.029 147.956C43.6239 145.959 41.7033 143.862 40.8042 142.707C40.7209 141.645 40.7964 140.468 40.6988 137.741C40.6677 136.871 41.6814 135.86 41.6814 135.86C41.6814 135.86 47.0249 135.432 49.7106 137.012Z" fill="#0D0D0D"/>
<path d="M40.7133 139.462C40.7133 139.462 43.6946 143.945 46.6545 144.898C48.5627 145.513 52.0211 145.124 53.8662 144.34C54.9921 143.862 55.1645 141.653 55.1645 141.653C55.1645 141.653 56.8379 142.731 55.323 146.988C55.1798 147.615 53.7303 148.687 52.4216 148.892C51.7078 149.004 47.9605 149.338 46.3551 148.202C43.5019 146.184 40.7699 142.693 40.7699 142.693L40.7133 139.462Z" fill="#C7C7C7"/>
<path d="M55.102 141.54C54.074 140.107 52.8707 139.184 50.122 139.797C47.2026 140.449 45.4731 143.401 45.7083 144.202C46.1 145.536 51.1593 145.819 53.6066 145.03C55.9861 144.262 56.0166 143.131 55.102 141.54Z" fill="#EFEFEF"/>
<path d="M28.3094 104.481C27.179 112.04 31.3657 136.91 31.3657 136.91C31.3657 136.91 31.12 138.732 33.3605 138.813C37.5816 138.965 38.5009 136.454 38.5009 136.454L40.5131 117.746L41.6614 136.642C41.6614 136.642 42.1326 139.336 46.4615 139.078C48.729 138.943 48.9619 136.733 48.9619 136.733C48.9619 136.733 53.2924 109.821 52.1897 105.018C46.4682 98.8354 34.4141 98.0944 28.3094 104.481Z" fill="#A05A34"/>
<path d="M29.4378 76.3413C29.4378 76.3413 26.346 80.5448 24.01 86.5148C21.5333 92.8447 17.2446 108.513 17.2446 108.513C17.2446 108.513 17.6703 109.268 19.245 109.561C21.326 109.949 22.9581 109.045 22.9581 109.045L29.1233 91.915C29.1233 91.915 27.6093 104.381 28.1842 110.614C31.6561 115.067 38.3429 115.345 40.6037 115.376C43.9608 115.422 48.4423 114.592 52.2067 110.808C52.7529 104.909 51.6092 92.4606 51.6092 92.4606L56.8256 110.306C56.8256 110.306 57.2756 111.009 59.879 110.806C61.9615 110.643 62.458 109.596 62.458 109.596C62.458 109.596 58.7427 94.649 56.23 86.5803C54.485 80.9765 51.4143 76.7068 51.4143 76.7068L29.4378 76.3413Z" fill="#A05A34"/>
<path d="M28.3417 98.3116C26.504 105.82 27.6163 120.31 27.6163 120.31C27.6163 120.31 30.6465 123.012 33.6901 123.104C38.3405 123.246 40.177 120.974 40.177 120.974L40.5188 117.957L40.7136 120.989C40.7136 120.989 43.4007 123.371 47.3598 123.31C51.6218 123.244 52.8362 120.679 52.8362 120.679C52.8362 120.679 53.5141 105.516 51.5462 98.4988C49.5782 91.4816 30.1794 90.8029 28.3417 98.3116Z" fill="#023473"/>
<path d="M27.49 79.3612C31.1198 89.9557 26.4028 96.1115 26.8411 107.153C32.1511 114.747 48.9897 114.296 52.9821 106.718C53.352 95.6468 49.5287 89.5096 53.7375 80.7518C57.9462 71.994 25.0954 72.372 27.49 79.3612Z" fill="#CF50A1"/>
<path d="M15.8528 59.6954C14.4607 58.1475 11.5503 56.0382 10.0236 57.4535C6.72681 60.5099 8.57198 63.9248 11.0857 66.9894C13.5995 70.054 18.2788 68.9008 18.2788 68.9008C18.2788 68.9008 18.7352 62.9005 15.8528 59.6954Z" fill="#8F502E"/>
<path d="M15.432 60.757C14.0399 59.209 11.1939 57.1725 9.60277 58.5151C7.31592 60.4447 7.74403 64.2203 11.2082 67.6264C14.6724 71.0325 19.0633 69.5244 19.0633 69.5244C19.0633 69.5244 18.3144 63.962 15.432 60.757Z" fill="#A05A34"/>
<path d="M67.1511 63.9542C68.8438 62.7422 72.1402 61.3089 73.3264 63.0198C75.8879 66.7142 73.3508 69.6518 70.2363 72.1034C67.1217 74.5549 62.8004 72.4215 62.8004 72.4215C62.8004 72.4215 63.6464 66.4636 67.1511 63.9542Z" fill="#8F502E"/>
<path d="M67.3335 65.0814C69.0262 63.8694 72.244 62.4934 73.5088 64.147C75.3266 66.5236 73.5994 70.7146 69.7121 72.5069C65.8249 74.2993 61.146 72.8599 61.146 72.8599C61.146 72.8599 63.8288 67.5908 67.3335 65.0814Z" fill="#A05A34"/>
<path d="M14.6857 58.4515C16.3945 70.0727 27.0844 83.502 38.7561 84.3124C52.2918 85.2522 61.1471 75.5123 66.9005 66.1156C74.549 47.8013 66.7369 31.2679 43.2808 29.5425C25.3829 28.2259 13.3708 38.1866 14.6857 58.4515Z" fill="#A05A34"/>
<path d="M40.2482 63.3984C40.2482 63.3984 37.4667 66.582 37.5993 68.8273C37.6384 69.4894 37.9543 71.2412 39.5862 71.4119C41.3525 71.5967 42.0815 70.177 42.1281 69.0548C42.2365 66.4404 40.2482 63.3984 40.2482 63.3984Z" fill="#863D25"/>
<path d="M34.6581 73.2429C34.5828 73.242 34.508 73.2559 34.4381 73.2838C34.3681 73.3118 34.3044 73.3532 34.2505 73.4058C34.1417 73.5121 34.0796 73.6573 34.0779 73.8093C34.0761 73.9614 34.1348 74.1079 34.2411 74.2167C34.2411 74.2167 36.2939 76.3672 39.185 76.6524C42.5241 76.9817 44.8766 75.0854 44.8766 75.0854C44.9951 74.9902 45.0708 74.8517 45.0872 74.7006C45.1037 74.5495 45.0594 74.398 44.9642 74.2795C44.917 74.2208 44.8587 74.172 44.7926 74.1358C44.7266 74.0996 44.654 74.0768 44.5792 74.0687C44.5043 74.0606 44.4286 74.0672 44.3563 74.0884C44.284 74.1095 44.2166 74.1447 44.1579 74.1919C44.1579 74.1919 42.1597 75.7932 39.2977 75.5109C36.9257 75.277 35.0616 73.4156 35.0616 73.4156C34.9553 73.3068 34.8102 73.2447 34.6581 73.2429Z" fill="#863D25"/>
<g style="mix-blend-mode:multiply">
<path d="M31.2493 55.9688C31.0195 55.9533 30.7879 55.9711 30.5587 56.0218C28.3823 56.3465 25.6418 58.4813 25.7207 58.8624C25.7933 59.2131 27.7481 59.8964 27.7481 59.8964C27.7727 60.0862 27.7767 59.6533 27.7509 59.8822C27.5604 62.1876 28.8181 64.1732 30.56 64.317C32.3018 64.4608 33.8681 62.7085 34.0584 60.4033C34.1566 59.2154 33.985 58.6588 33.7772 58.195C33.7772 58.195 32.5756 59.3103 32.1179 58.7999C31.6602 58.2895 32.864 56.7388 32.864 56.7388C32.3981 56.2848 31.8389 56.018 31.2497 55.9688L31.2493 55.9688Z" fill="#442525"/>
<path d="M32.0264 54.3347C32.0264 54.3347 33.6423 53.7555 32.9857 52.9408C31.8974 51.5908 26.8004 54.2178 26.8004 54.2178" fill="#442525"/>
</g>
<g style="mix-blend-mode:multiply">
<path d="M50.4521 58.0381C48.7103 57.8941 47.1439 59.6462 46.9534 61.9515C46.763 64.2568 48.0206 66.2422 49.7625 66.386C51.5041 66.5297 53.0704 64.7777 53.2609 62.4725C53.2795 62.3238 53.2367 62.5819 53.2624 62.4742C53.2624 62.4742 55.4351 62.0831 55.5854 61.8126C55.7385 61.5371 54.4049 60.5364 53.3089 59.5933C53.3089 59.5933 52.083 61.2093 51.488 60.7126C50.8929 60.2159 52.1557 58.6555 52.1557 58.6555C51.7908 58.4226 51.6128 58.3732 51.244 58.2425C50.9894 58.1293 50.7232 58.0606 50.4521 58.0381Z" fill="#442525"/>
<path d="M49.6758 55.7364C49.6758 55.7364 48.2058 54.8499 49.0103 54.1807C50.3434 53.0718 54.8222 56.6524 54.8222 56.6524" fill="#442525"/>
</g>
<path d="M21.0613 37.3025C21.0613 37.3025 26.2491 38.446 25.2304 32.4805C25.2304 32.4805 29.196 34.3933 31.4434 30.6639C32.6077 28.7318 30.0918 26.6891 30.0918 26.6891" fill="#575757"/>
<path d="M31.4753 30.1802C31.5502 30.2969 36.4419 30.7311 35.0239 25.8577Z" fill="#575757"/>
<path d="M35.0822 28.3169C35.0822 28.3169 37.9297 26.9396 36.8923 24.4422C35.7829 21.7714 32.1244 21.8672 30.3418 23.2548" fill="#575757"/>
<path d="M15.871 40.9672C15.871 40.9672 20.9022 43.0232 21.9205 37.0233Z" fill="#575757"/>
<path d="M17.6873 41.2783C17.6873 41.2783 14.93 44.476 12.4335 41.8766C10.189 39.0224 12.3686 36.585 12.3686 36.585" fill="#4F2F24"/>
<path d="M11.7114 38.5857C11.7114 38.5857 7.88156 37.1031 9.0619 33.3284C11.3738 29.4719 14.7279 32.3524 14.7279 32.3524" fill="#4F2F24"/>
<path d="M12.6492 31.8725C12.6492 31.8725 11.5712 28.5647 12.9533 25.9026C14.3353 23.2406 16.4881 21.3649 18.8836 21.9177C21.279 22.4705 20.9023 25.4896 20.9023 25.4896" fill="#4F2F24"/>
<path d="M34.8911 22.8189C34.8911 22.8189 35.7795 19.5542 32.7858 18.3024C29.3872 17.407 27.5338 20.3811 27.5338 20.3811" fill="#575757"/>
<path d="M29.4574 18.8311C29.4574 18.8311 27.6949 16.9465 24.6765 18.2411C21.6581 19.5357 21.6176 22.2959 21.6176 22.2959" fill="#4F2F24"/>
<path d="M17.0065 22.4479C17.0065 22.4479 16.7806 20.2885 19.0376 18.9338C21.2946 17.579 23.0435 20.0539 23.0435 20.0539" fill="#4F2F24"/>
<path d="M13.3671 30.354L11.9129 36.719L16.6556 41.1195L22.0338 36.9202L25.2367 32.3907L31.8318 29.9234L34.8804 26.3459L33.6893 20.7614L27.2859 18.2618L19.9216 21.0607L17.5483 22.1628L13.3671 30.354Z" fill="#4F2F24"/>
<path d="M64.7245 41.6023C64.7245 41.6023 59.3359 41.9655 61.2713 36.0899C61.2713 36.0899 56.9935 37.4176 55.3047 33.3036C54.4298 31.1722 57.2705 29.4915 57.2705 29.4915" fill="#575757"/>
<path d="M55.3466 32.8096C55.2535 32.9162 50.2709 32.6075 52.4407 27.897Z" fill="#575757"/>
<path d="M52.0062 30.3744C52.0062 30.3744 49.3548 28.5468 50.7791 26.1803C52.3022 23.6496 55.9643 24.3057 57.5439 25.9811" fill="#575757"/>
<path d="M69.381 46.1008C69.381 46.1008 64.0103 47.4104 63.9038 41.1887Z" fill="#575757"/>
<path d="M67.5076 46.1377C67.5076 46.1377 69.7901 49.7921 72.6964 47.5456C75.3883 45.003 73.5702 42.2055 73.5702 42.2055" fill="#4F2F24"/>
<path d="M73.9254 44.3289C73.9254 44.3289 78.001 43.4153 77.3915 39.4186C75.6573 35.1661 71.8462 37.5657 71.8462 37.5657" fill="#4F2F24"/>
<path d="M74.0087 37.3982C74.0087 37.3982 75.5976 34.2187 74.6154 31.316C73.6331 28.4133 71.7561 26.188 69.2642 26.3807C66.7723 26.5734 66.6895 29.6834 66.6895 29.6834" fill="#4F2F24"/>
<path d="M53.0385 24.8451C53.0385 24.8451 52.6445 21.4085 55.8446 20.6005C59.3971 20.2147 60.8053 23.5049 60.8053 23.5049" fill="#575757"/>
<path d="M59.1089 21.6438C59.1089 21.6438 61.1683 20.0079 64.0041 21.7781C66.8398 23.5483 66.4586 26.3452 66.4586 26.3452" fill="#4F2F24"/>
<path d="M71.0693 27.2036C71.0693 27.2036 71.6263 25.055 69.565 23.3403C67.5037 21.6256 65.3679 23.8605 65.3679 23.8605" fill="#4F2F24"/>
<path d="M73.5193 35.7532L74.0081 42.4107L68.5691 46.1348L63.8056 41.0671L61.2788 35.998L55.0276 32.4955L52.5104 28.4126L54.5608 22.9485L61.3784 21.4001L68.3519 25.3555L70.5687 26.8325L73.5193 35.7532Z" fill="#4F2F24"/>
<path d="M51.2886 30.1576C51.2886 30.1576 46.6748 35.5901 43.7253 27.7807C43.7253 27.7807 40.8961 33.1532 36.0601 30.5446C33.5548 29.1932 34.7928 24.8109 34.7928 24.8109" fill="#575757"/>
<path d="M35.7019 30.0017C35.7026 30.1979 30.9197 34.5637 29.1178 27.7222Z" fill="#575757"/>
<path d="M30.7085 30.6566C30.7085 30.6566 26.8296 31.2836 26.2286 27.5327C25.5858 23.5214 29.4454 20.7501 32.2265 20.9746" fill="#4F2F24"/>
<path d="M59.1336 30.3704C59.1336 30.3704 55.295 36.7511 50.2094 30.507Z" fill="#575757"/>
<path d="M57.4583 32.1678C57.4583 32.1678 62.4661 33.7499 63.3102 28.7291C63.7219 23.6075 59.8238 22.463 59.8238 22.463" fill="#4F2F24"/>
<path d="M61.8495 24.2946C61.8495 24.2946 64.8268 19.5343 61.0674 16.0315C56.0792 13.3245 54.5341 19.3514 54.5341 19.3514" fill="#4F2F24"/>
<path d="M56.3683 17.1494C56.3683 17.1494 55.2653 12.4146 52.0437 10.3775C48.8222 8.34041 45.3293 7.83452 43.2155 10.372C41.1018 12.9094 43.5202 16.1584 43.5202 16.1584" fill="#4F2F24"/>
<path d="M27.2148 24.0487C27.2148 24.0487 24.1007 20.9147 26.3656 17.0845C29.2899 13.3539 33.2099 15.386 33.2099 15.386" fill="#4F2F24"/>
<path d="M30.1735 15.0817C30.1735 15.0817 30.7363 11.4789 34.737 10.62C38.7376 9.76116 40.6332 12.9712 40.6332 12.9712" fill="#4F2F24"/>
<path d="M45.5187 9.51501C45.5187 9.51501 44.3029 6.80087 41.0517 6.98884C37.8005 7.17681 37.6484 11.4621 37.6484 11.4621" fill="#4F2F24"/>
<path d="M54.6036 15.9318L60.3867 22.2611L58.4219 31.1679L50.0225 30.4754L43.658 27.6802L35.1594 29.9812L29.5943 28.1826L27.0796 20.6848L32.0437 12.7015L41.5629 10.1838L44.765 9.60728L54.6036 15.9318Z" fill="#4F2F24"/>
<path d="M18.7258 36.1619C13.3934 43.4177 13.9237 52.6778 13.8709 53.2633C13.2827 64.5272 19.8336 63.9771 19.8336 63.9771C15.7031 62.5087 16.998 55.3123 18.2822 53.3059C21.2169 52.1958 21.7139 48.4925 21.6025 47.4835C21.6025 47.4831 21.6047 47.4824 21.6047 47.4824C22.0453 47.8914 22.7222 48.2127 23.766 48.2749C29.7551 48.6315 29.4558 43.9844 29.4558 43.9844C34.5492 46.9489 37.1731 42.4198 37.4864 41.3342C37.9802 43.7086 39.5292 46.892 44.2132 48.1585C49.8677 49.6875 53.5009 48.141 55.5089 46.665C56.1039 48.5464 57.7834 51.0603 61.9395 49.9399C61.9415 49.9413 61.9414 49.9429 61.9419 49.9442C61.2892 51.3094 59.9676 56.3684 64.7819 58.9204C64.9208 59.5307 66.1143 65.2279 62.9733 68.4633C62.9733 68.4633 68.5191 66.1942 69.8347 59.1369L69.8418 59.1343C69.8418 59.1343 69.858 59.009 69.8599 58.9989C69.8736 58.9217 69.8899 58.8472 69.9025 58.7689L69.8912 58.769C70.2145 56.7948 76.0601 32.1687 44.738 27.6566C34.2911 27.0596 26.5501 28.2552 18.7265 36.1621L18.7258 36.1619Z" fill="#4F2F24"/>
<path d="M15.2317 43.2812C15.2317 43.2812 23.7965 28.1854 43.9847 29.2034C64.173 30.2214 70.2985 48.986 70.2985 48.986C70.2985 48.986 69.6243 25.9656 44.9215 23.9457C20.2187 21.9258 15.2317 43.2812 15.2317 43.2812Z" fill="#E6BE52"/>
<path opacity="0.811494" d="M87.3969 156.981C76.8797 156.981 68.3538 150.718 68.3538 142.993C68.3538 135.267 76.8797 129.004 87.3969 129.004C97.9141 129.004 106.44 135.267 106.44 142.993C106.44 150.718 97.9141 156.981 87.3969 156.981Z" fill="#08394D" fill-opacity="0.5"/>
<path d="M68.885 58.6475C68.885 58.6475 64.2036 54.5955 60.5172 58.2272C56.8308 61.859 57.8493 65.6471 59.6327 67.8555C61.4162 70.064 64.3438 68.327 64.3438 68.327L68.885 58.6475Z" fill="#7C513D"/>
<path d="M90.3895 53.4251C90.3895 53.4251 92.9075 47.6282 97.736 49.1962C102.565 50.7642 103.229 54.6381 102.547 57.4441C101.865 60.2501 98.509 60.0361 98.509 60.0361L90.3895 53.4251Z" fill="#7C513D"/>
<path d="M92.2402 54.0322C92.2402 54.0322 93.995 49.9924 97.3599 51.0851C100.725 52.1778 101.188 54.8775 100.713 56.8329C100.237 58.7884 97.8986 58.6392 97.8986 58.6392L92.2402 54.0322Z" fill="#5C3928"/>
<path d="M67.5849 59.997C67.5849 59.997 64.3225 57.1732 61.7535 59.7041C59.1845 62.235 59.8943 64.8749 61.1371 66.4139C62.38 67.9529 64.4202 66.7425 64.4202 66.7425L67.5849 59.997Z" fill="#5C3928"/>
<path d="M77.9106 146.367C81.8902 146.569 85.2547 145.102 85.4254 143.089C85.5961 141.077 82.5085 139.281 78.5289 139.079C74.5493 138.876 71.1848 140.344 71.0141 142.357C70.8434 144.369 73.9311 146.165 77.9106 146.367Z" fill="#6F4838"/>
<path d="M95.5805 146.215C99.5601 146.417 102.925 144.949 103.095 142.937C103.266 140.924 100.178 139.129 96.1988 138.926C92.2192 138.724 88.8548 140.192 88.684 142.204C88.5133 144.217 91.601 146.012 95.5805 146.215Z" fill="#6F4838"/>
<path d="M86.0166 52.6539C84.2387 52.6405 82.1875 52.9485 79.403 53.6467C76.2249 54.4979 70.2056 57.1985 68.4123 58.8236C66.619 60.4487 64.2611 63.9557 64.2504 68.2921C64.2396 72.6285 62.2323 75.3 63.2464 79.5414C64.2606 83.7828 69.1362 85.4142 69.1362 85.4142C66.5617 96.5596 68.1802 112.795 68.3161 116.719C68.4585 120.834 68.1225 134.775 72.6812 140.248C75.9365 143.971 81.094 144.52 85.3946 143.283C85.8904 141.699 85.4597 140.145 85.0021 138.878C84.5445 137.611 84.5584 135.031 84.7133 134.358C84.8681 133.685 85.1464 132.041 86.5686 130.53C86.8635 130.227 87.0519 130.051 87.0549 130.048C87.0859 130.079 87.2123 130.204 87.4625 130.467C87.9266 130.957 88.3565 131.446 88.7677 131.942C89.2372 132.881 89.3886 133.712 89.4878 134.143C89.6429 134.816 89.6579 137.396 89.2002 138.663C88.7426 139.93 88.3119 141.484 88.8077 143.068C93.1083 144.304 98.2658 143.756 101.521 140.033C103.04 138.296 104.162 135.818 104.883 133.025C105.902 130.084 106.474 120.976 106.795 115.824C107.875 98.4707 104.141 85.577 100.365 77.8893C101.936 75.913 103.412 75.5677 103.625 71.3218C103.84 67.0034 101.472 65.9975 99.2626 60.7146C97.0532 55.4318 94.3856 54.7674 90.9949 53.5903C89.2995 53.0017 87.7945 52.6673 86.0166 52.6539Z" fill="#7C513D"/>
<path d="M83.9353 79.9456C86.7967 79.2521 88.6757 76.6837 88.1322 74.209C87.5886 71.7343 84.8282 70.2903 81.9668 70.9838C79.1053 71.6774 77.2263 74.2457 77.7699 76.7204C78.3135 79.1952 81.0738 80.6391 83.9353 79.9456Z" fill="#AA7A64" stroke="#AA7A64" stroke-width="1.30515" stroke-linecap="round"/>
<path d="M82.842 75.201L83.4305 77.7155Z" fill="#341E12"/>
<path d="M82.769 74.8883C82.8082 74.8782 82.8488 74.8762 82.8887 74.8826C82.9285 74.889 82.9668 74.9036 83.0013 74.9255C83.0358 74.9474 83.0658 74.9763 83.0897 75.0104C83.1135 75.0446 83.1307 75.0833 83.1403 75.1244L83.7288 77.6385C83.7384 77.6796 83.7403 77.7223 83.7342 77.7642C83.7281 77.806 83.7142 77.8462 83.6934 77.8824C83.6725 77.9187 83.645 77.9502 83.6125 77.9753C83.58 78.0004 83.5432 78.0184 83.504 78.0285C83.4649 78.0387 83.4242 78.0406 83.3844 78.0342C83.3445 78.0278 83.3063 78.0132 83.2718 77.9913C83.2373 77.9694 83.2073 77.9405 83.1834 77.9064C83.1595 77.8723 83.1423 77.8335 83.1327 77.7924L82.5442 75.2783C82.5346 75.2372 82.5328 75.1945 82.5389 75.1526C82.5449 75.1108 82.5588 75.0706 82.5797 75.0344C82.6006 74.9982 82.628 74.9666 82.6605 74.9415C82.693 74.9165 82.7299 74.8984 82.769 74.8883Z" fill="#341E12"/>
<path d="M86.0836 76.0797C86.1119 76.1099 86.1343 76.1456 86.1495 76.1849C86.1647 76.2242 86.1723 76.2662 86.172 76.3086C86.1717 76.351 86.1634 76.3929 86.1476 76.432C86.1319 76.471 86.1089 76.5064 86.0801 76.5361C86.0801 76.5361 85.7619 76.8669 85.2957 77.2265C84.8296 77.5861 84.2146 77.9867 83.5579 78.1298C82.2677 78.4108 80.5452 77.9065 80.5452 77.9065C80.5061 77.8959 80.4695 77.8773 80.4373 77.8518C80.4052 77.8263 80.3781 77.7944 80.3577 77.7579C80.3372 77.7215 80.3238 77.6811 80.3182 77.6392C80.3127 77.5973 80.315 77.5546 80.3251 77.5136C80.3352 77.4725 80.353 77.4339 80.3773 77.4C80.4017 77.3661 80.4322 77.3376 80.4671 77.3161C80.502 77.2946 80.5406 77.2806 80.5806 77.2748C80.6207 77.2691 80.6615 77.2717 80.7006 77.2826C80.7006 77.2826 82.411 77.7217 83.4338 77.499C83.9336 77.3901 84.5022 77.0376 84.9319 76.7061C85.3616 76.3746 85.6505 76.0777 85.6505 76.0777C85.7082 76.0178 85.7862 75.9843 85.8674 75.9847C85.9486 75.9851 86.0263 76.0192 86.0836 76.0797Z" fill="#341E12"/>
<path d="M80.3884 74.0629C80.4676 74.7424 82.8957 75.2773 82.8957 75.2773C82.8957 75.2773 84.7651 73.7395 84.6245 73.1121C84.4836 72.4848 83.1475 72.2311 82.3509 72.3814C81.5543 72.5316 80.3093 73.3833 80.3884 74.0629Z" fill="#341E12"/>
<path d="M75.5309 76.0116C76.7247 75.7223 77.3735 74.0355 76.98 72.244C76.5865 70.4526 75.2997 69.2349 74.1059 69.5243C72.9121 69.8136 72.2633 71.5004 72.6568 73.2918C73.0503 75.0833 74.3371 76.3009 75.5309 76.0116Z" fill="#341E12"/>
<path d="M75.9864 72.8507C76.3408 72.7648 76.5334 72.2641 76.4166 71.7324C76.2998 71.2007 75.9178 70.8392 75.5635 70.9251C75.2091 71.011 75.0166 71.5117 75.1334 72.0434C75.2502 72.5752 75.6321 72.9366 75.9864 72.8507Z" fill="#C9C6AF"/>
<path d="M89.7165 72.6761C90.9103 72.3868 91.5591 70.7 91.1656 68.9085C90.7721 67.1171 89.4853 65.8994 88.2915 66.1887C87.0977 66.4781 86.4489 68.1649 86.8424 69.9563C87.2359 71.7477 88.5227 72.9654 89.7165 72.6761Z" fill="#341E12"/>
<path d="M75.3216 66.5424C75.3614 66.5493 75.3996 66.5644 75.4339 66.5869C75.4681 66.6094 75.4978 66.6387 75.5213 66.6733C75.5447 66.7078 75.5614 66.7469 75.5705 66.7882C75.5795 66.8296 75.5807 66.8724 75.5739 66.9142C75.5602 66.9985 75.5153 67.0736 75.4489 67.123C75.3825 67.1724 75.3002 67.1921 75.22 67.1777C74.3035 67.0154 73.6333 67.4102 73.1569 67.8635C72.6804 68.3169 72.4391 68.8078 72.4391 68.8078C72.4207 68.8455 72.3953 68.8789 72.3645 68.9063C72.3337 68.9337 72.298 68.9544 72.2596 68.9673C72.2211 68.9802 72.1806 68.9849 72.1404 68.9814C72.1002 68.9778 72.0611 68.9659 72.0252 68.9464C71.9894 68.927 71.9575 68.9003 71.9314 68.868C71.9054 68.8356 71.8856 68.7982 71.8734 68.7578C71.8611 68.7174 71.8566 68.6749 71.86 68.6326C71.8634 68.5904 71.8747 68.5493 71.8933 68.5116C71.8933 68.5116 72.1803 67.9218 72.7447 67.3847C73.3092 66.8476 74.1908 66.342 75.3216 66.5424Z" fill="#341E12"/>
<path d="M87.306 63.2424C87.7651 63.1949 88.1979 63.2626 88.5636 63.3741C89.295 63.597 89.8009 63.995 89.8009 63.995C89.8332 64.0203 89.8604 64.0521 89.881 64.0886C89.9016 64.125 89.9151 64.1654 89.9209 64.2073C89.9266 64.2493 89.9244 64.292 89.9144 64.333C89.9044 64.3741 89.8867 64.4127 89.8625 64.4465C89.8384 64.4805 89.8081 64.5091 89.7734 64.5307C89.7387 64.5523 89.7003 64.5666 89.6604 64.5726C89.6204 64.5786 89.5798 64.5763 89.5407 64.5658C89.5016 64.5553 89.4649 64.5368 89.4326 64.5113C89.4326 64.5113 89.0111 64.1821 88.3937 63.9939C87.7763 63.8056 87.0085 63.7598 86.2523 64.3276C86.1863 64.377 86.1042 64.397 86.0242 64.383C85.9441 64.3691 85.8726 64.3224 85.8252 64.2532C85.8017 64.2188 85.7848 64.1798 85.7757 64.1385C85.7665 64.0973 85.7652 64.0545 85.7717 64.0127C85.7783 63.9709 85.7927 63.9308 85.814 63.8948C85.8354 63.8589 85.8632 63.8277 85.8961 63.803C86.3625 63.4528 86.8469 63.2899 87.306 63.2424Z" fill="#341E12"/>
<path d="M90.2096 69.2766C90.5639 69.1908 90.7565 68.6901 90.6397 68.1583C90.5229 67.6266 90.141 67.2652 89.7866 67.3511C89.4323 67.4369 89.2397 67.9376 89.3565 68.4694C89.4733 69.0011 89.8552 69.3625 90.2096 69.2766Z" fill="#C9C6AF"/>
<path d="M100.364 77.8777C100.364 77.8777 109.208 93.6584 108.588 100.267C107.967 106.876 103.63 112.499 100.018 113.153C96.4052 113.808 93.7065 112.644 93.5712 109.611C94.4542 103.288 97.8203 95.4507 96.3639 88.2379C94.8982 81.4361 100.364 77.8777 100.364 77.8777Z" fill="#845742"/>
</svg>
