<svg width="44" height="44" viewBox="0 0 44 44" fill="none" xmlns="http://www.w3.org/2000/svg">
<g clip-path="url(#clip0_944_2010)">
<circle cx="22" cy="22" r="22" fill="#BE2C53"/>
<path fill-rule="evenodd" clip-rule="evenodd" d="M23.82 13.3896C24.5123 12.9975 25.3321 12.8965 26.0989 13.1088C26.4389 13.2029 26.7294 13.3669 27.0032 13.5521C27.2633 13.728 27.5616 13.9609 27.9074 14.2308L27.9578 14.2702C28.3036 14.5401 28.602 14.7729 28.8358 14.9826C29.0819 15.2032 29.3115 15.4453 29.4854 15.7522C29.8775 16.4446 29.9785 17.2643 29.7662 18.0311C29.6721 18.3711 29.5081 18.6616 29.3229 18.9355C29.147 19.1955 28.9141 19.4939 28.6441 19.8397L21.5414 28.939C21.5234 28.962 21.5057 28.9847 21.4882 29.0072C21.1548 29.4347 20.9027 29.7579 20.5906 30.0234C20.3265 30.2481 20.0342 30.4375 19.7212 30.5868C19.3515 30.7632 18.9534 30.8613 18.427 30.9911C18.3994 30.9979 18.3714 31.0048 18.3431 31.0118L16.2183 31.5363C16.0711 31.5727 15.9031 31.6143 15.755 31.637C15.5898 31.6624 15.334 31.6854 15.0515 31.595C14.7119 31.4862 14.4221 31.26 14.2342 30.957C14.0779 30.7049 14.0381 30.4512 14.0226 30.2848C14.0087 30.1355 14.0082 29.9625 14.0078 29.8109C14.0078 29.8015 14.0078 29.7922 14.0077 29.783L14.0009 27.6223C14.0008 27.5931 14.0007 27.5643 14.0006 27.5359C13.9986 26.9937 13.9971 26.5837 14.0785 26.1822C14.1474 25.8423 14.2602 25.5128 14.414 25.2021C14.5958 24.8349 14.8482 24.5119 15.182 24.0846C15.1995 24.0622 15.2172 24.0395 15.2352 24.0165L22.3379 14.9171C22.6078 14.5713 22.8407 14.273 23.0503 14.0392C23.271 13.793 23.513 13.5634 23.82 13.3896ZM25.5652 15.0363C25.3096 14.9655 25.0364 14.9992 24.8056 15.1299C24.7664 15.1521 24.692 15.2041 24.5395 15.3743C24.3809 15.5511 24.1899 15.7949 23.8948 16.173L27.0479 18.6342C27.3431 18.2562 27.5331 18.0117 27.6662 17.815C27.7943 17.6257 27.8267 17.5409 27.8387 17.4975C27.9095 17.2419 27.8758 16.9686 27.7451 16.7378C27.7229 16.6986 27.6708 16.6242 27.5007 16.4717C27.3238 16.3131 27.0801 16.1222 26.702 15.827C26.3239 15.5319 26.0795 15.3418 25.8828 15.2088C25.6935 15.0807 25.6086 15.0483 25.5652 15.0363ZM25.8173 20.2108L22.6642 17.7495L16.8117 25.2471C16.402 25.772 16.2864 25.9278 16.2064 26.0894C16.1295 26.2448 16.0731 26.4095 16.0387 26.5794C16.0029 26.7561 15.9987 26.95 16.0009 27.6159L16.0069 29.5285L17.8637 29.0701C18.5102 28.9105 18.6973 28.8594 18.86 28.7817C19.0165 28.7071 19.1626 28.6124 19.2947 28.5C19.432 28.3832 19.5551 28.2333 19.9648 27.7084L25.8173 20.2108Z" fill="white"/>
</g>
<defs>
<clipPath id="clip0_944_2010">
<rect width="44" height="44" fill="white"/>
</clipPath>
</defs>
</svg>
