<svg width="52" height="52" viewBox="0 0 52 52" fill="none" xmlns="http://www.w3.org/2000/svg">
<g clip-path="url(#clip0_944_2010)">
<g filter="url(#filter0_d_944_2010)">
<circle cx="26" cy="22" r="22" fill="#08394C"/>
</g>
<path fill-rule="evenodd" clip-rule="evenodd" d="M27.82 13.3896C28.5123 12.9975 29.3321 12.8965 30.0989 13.1088C30.4389 13.2029 30.7294 13.3669 31.0032 13.5521C31.2633 13.728 31.5616 13.9609 31.9074 14.2308L31.9578 14.2702C32.3036 14.5401 32.602 14.7729 32.8358 14.9826C33.0819 15.2032 33.3115 15.4453 33.4854 15.7522C33.8775 16.4446 33.9785 17.2643 33.7662 18.0311C33.6721 18.3711 33.5081 18.6616 33.3229 18.9355C33.147 19.1955 32.9141 19.4939 32.6441 19.8397L25.5414 28.939C25.5234 28.962 25.5057 28.9847 25.4882 29.0072C25.1548 29.4347 24.9027 29.7579 24.5906 30.0234C24.3265 30.2481 24.0342 30.4375 23.7212 30.5868C23.3515 30.7632 22.9534 30.8613 22.427 30.9911C22.3994 30.9979 22.3714 31.0048 22.3431 31.0118L20.2183 31.5363C20.0711 31.5727 19.9031 31.6143 19.755 31.637C19.5898 31.6624 19.334 31.6854 19.0515 31.595C18.7119 31.4862 18.4221 31.26 18.2342 30.957C18.0779 30.7049 18.0381 30.4512 18.0226 30.2848C18.0087 30.1355 18.0082 29.9625 18.0078 29.8109C18.0078 29.8015 18.0078 29.7922 18.0077 29.783L18.0009 27.6223C18.0008 27.5931 18.0007 27.5643 18.0006 27.5359C17.9986 26.9937 17.9971 26.5837 18.0785 26.1822C18.1474 25.8423 18.2602 25.5128 18.414 25.2021C18.5958 24.8349 18.8482 24.5119 19.182 24.0846C19.1995 24.0622 19.2172 24.0395 19.2352 24.0165L26.3379 14.9171C26.6078 14.5713 26.8407 14.273 27.0503 14.0392C27.271 13.793 27.513 13.5634 27.82 13.3896ZM29.5652 15.0363C29.3096 14.9655 29.0364 14.9992 28.8056 15.1299C28.7664 15.1521 28.692 15.2041 28.5395 15.3743C28.3809 15.5511 28.1899 15.7949 27.8948 16.173L31.0479 18.6342C31.3431 18.2562 31.5331 18.0117 31.6662 17.815C31.7943 17.6257 31.8267 17.5409 31.8387 17.4975C31.9095 17.2419 31.8758 16.9686 31.7451 16.7378C31.7229 16.6986 31.6708 16.6242 31.5007 16.4717C31.3238 16.3131 31.0801 16.1222 30.702 15.827C30.3239 15.5319 30.0795 15.3418 29.8828 15.2088C29.6935 15.0807 29.6086 15.0483 29.5652 15.0363ZM29.8173 20.2108L26.6642 17.7495L20.8117 25.2471C20.402 25.772 20.2864 25.9278 20.2064 26.0894C20.1295 26.2448 20.0731 26.4095 20.0387 26.5794C20.0029 26.7561 19.9987 26.95 20.0009 27.6159L20.0069 29.5285L21.8637 29.0701C22.5102 28.9105 22.6973 28.8594 22.86 28.7817C23.0165 28.7071 23.1626 28.6124 23.2947 28.5C23.432 28.3832 23.5551 28.2333 23.9648 27.7084L29.8173 20.2108Z" fill="white"/>
</g>
<defs>
<filter id="filter0_d_944_2010" x="0" y="0" width="52" height="52" filterUnits="userSpaceOnUse" color-interpolation-filters="sRGB">
<feFlood flood-opacity="0" result="BackgroundImageFix"/>
<feColorMatrix in="SourceAlpha" type="matrix" values="0 0 0 0 0 0 0 0 0 0 0 0 0 0 0 0 0 0 127 0" result="hardAlpha"/>
<feOffset dy="4"/>
<feGaussianBlur stdDeviation="2"/>
<feComposite in2="hardAlpha" operator="out"/>
<feColorMatrix type="matrix" values="0 0 0 0 0 0 0 0 0 0 0 0 0 0 0 0 0 0 0.25 0"/>
<feBlend mode="normal" in2="BackgroundImageFix" result="effect1_dropShadow_944_2010"/>
<feBlend mode="normal" in="SourceGraphic" in2="effect1_dropShadow_944_2010" result="shape"/>
</filter>
<clipPath id="clip0_944_2010">
<rect width="52" height="52" fill="white"/>
</clipPath>
</defs>
</svg>
