<svg width="35" height="35" viewBox="0 0 35 35" fill="none" xmlns="http://www.w3.org/2000/svg">
<path fill-rule="evenodd" clip-rule="evenodd" d="M12.2445 4.375H22.7548C24.362 4.37499 25.6582 4.37497 26.7073 4.46209C27.7878 4.55182 28.736 4.74142 29.611 5.19594C30.9427 5.88774 32.0286 6.97362 32.7204 8.3054C33.1749 9.1804 33.3646 10.1286 33.4543 11.209C33.5413 12.2581 33.5413 13.5544 33.5413 15.1616V19.8384C33.5413 21.4457 33.5413 22.7418 33.4543 23.791C33.3646 24.8714 33.1749 25.8196 32.7204 26.6946C32.0286 28.0264 30.9427 29.1123 29.611 29.8041C28.736 30.2585 27.7878 30.4482 26.7073 30.5379C25.6582 30.625 24.362 30.625 22.7548 30.625H12.2446C10.6374 30.625 9.34113 30.625 8.29199 30.5379C7.21164 30.4482 6.26341 30.2585 5.38841 29.8041C4.05663 29.1123 2.97075 28.0264 2.27895 26.6946C1.82443 25.8196 1.63483 24.8714 1.5451 23.791C1.45798 22.7418 1.45799 21.4457 1.45801 19.8384V15.1616C1.45799 13.5544 1.45798 12.2581 1.5451 11.209C1.63483 10.1286 1.82443 9.1804 2.27895 8.3054C2.97075 6.97362 4.05663 5.88774 5.38841 5.19594C6.26341 4.74142 7.21164 4.55182 8.29199 4.46209C9.34112 4.37497 10.6374 4.37499 12.2445 4.375ZM7.65992 7.48198C8.89752 7.77236 10.0464 8.38775 10.9812 9.27802L15.267 13.3597C15.8596 13.9241 16.2417 14.2866 16.5551 14.5398C16.8544 14.7818 16.9952 14.8429 17.0731 14.8668C17.3512 14.9519 17.6481 14.9519 17.9262 14.8668C18.0041 14.8429 18.145 14.7818 18.4442 14.5398C18.7576 14.2866 19.1397 13.9241 19.7324 13.3597L24.0181 9.27802C24.9529 8.38775 26.1018 7.77236 27.3395 7.48198C27.0943 7.43492 26.8079 7.39716 26.4659 7.36875C25.5517 7.29283 24.3769 7.29167 22.6913 7.29167H12.308C10.6225 7.29167 9.44757 7.29283 8.53337 7.36875C8.19137 7.39716 7.90498 7.43492 7.65992 7.48198ZM30.3485 10.2083H28.984C27.884 10.2083 26.8262 10.6315 26.0296 11.3901L21.7038 15.5101C21.1627 16.0253 20.6946 16.4711 20.2779 16.808C19.8369 17.1646 19.3605 17.4781 18.7792 17.6559C17.9452 17.911 17.0542 17.911 16.2201 17.6559C15.6388 17.4781 15.1624 17.1646 14.7214 16.808C14.3048 16.4711 13.8367 16.0253 13.2956 15.51L8.96968 11.3901C8.17314 10.6315 7.11529 10.2083 6.0153 10.2083H4.65091C4.5622 10.5243 4.49576 10.9206 4.45176 11.4504C4.37584 12.3646 4.37467 13.5395 4.37467 15.225V19.775C4.37467 21.4605 4.37584 22.6354 4.45176 23.5496C4.52624 24.4463 4.66501 24.9608 4.86724 25.3501C5.28233 26.1492 5.93385 26.8007 6.73292 27.2157C7.12222 27.418 7.63665 27.5568 8.53337 27.6312C9.44757 27.7072 10.6225 27.7083 12.308 27.7083H22.6913C24.3769 27.7083 25.5517 27.7072 26.4659 27.6312C27.3627 27.5568 27.8772 27.418 28.2664 27.2157C29.0656 26.8007 29.717 26.1492 30.132 25.3501C30.3343 24.9608 30.4732 24.4463 30.5475 23.5496C30.6235 22.6354 30.6247 21.4605 30.6247 19.775V15.225C30.6247 13.5395 30.6235 12.3646 30.5475 11.4504C30.5036 10.9206 30.4371 10.5243 30.3485 10.2083Z" fill="white"/>
</svg>
