<svg width="16" height="16" viewBox="0 0 16 16" fill="none" xmlns="http://www.w3.org/2000/svg">
<path d="M7.992 0C3.576 0 0 3.584 0 8C0 12.416 3.576 16 7.992 16C12.416 16 16 12.416 16 8C16 3.584 12.416 0 7.992 0ZM10.8487 10.4961C11.0487 11.357 10.1153 12.0352 9.35832 11.5788L8.51628 11.0712C8.19872 10.8798 7.80129 10.8798 7.48372 11.0712L6.64297 11.5781C5.8858 12.0345 4.95225 11.3559 5.15275 10.4949L5.37515 9.53971C5.45932 9.17826 5.33638 8.79992 5.05583 8.55698L4.3189 7.91883C3.6503 7.33986 4.00723 6.24172 4.88846 6.1665L5.86298 6.08331C6.23264 6.05175 6.55444 5.81814 6.69895 5.47644L7.07999 4.57543C7.42409 3.76179 8.57699 3.76134 8.92173 4.57471L9.30082 5.46912C9.44549 5.81044 9.76711 6.04373 10.1365 6.07526L11.1115 6.1585C11.9928 6.23372 12.3497 7.33186 11.6811 7.91083L10.9439 8.54918C10.6635 8.79202 10.5405 9.17014 10.6245 9.53147L10.8487 10.4961Z" fill="#909090"/>
</svg>
