<svg width="31" height="19" viewBox="0 0 31 19" fill="none" xmlns="http://www.w3.org/2000/svg">
<g filter="url(#filter0_i_1115_944)">
<path d="M11.2947 8.47245L15.2785 11.8622L14.0851 16.9089C14.022 17.1727 14.04 17.4489 14.1369 17.7028C14.2339 17.9566 14.4054 18.1771 14.6301 18.3364C14.8549 18.4958 15.1228 18.587 15.4004 18.5987C15.678 18.6104 15.953 18.5421 16.191 18.4022L20.7057 15.7325L25.2107 18.4022C25.4487 18.5421 25.7237 18.6104 26.0013 18.5987C26.279 18.587 26.5469 18.4958 26.7716 18.3364C26.9963 18.1771 27.1679 17.9566 27.2648 17.7028C27.3617 17.4489 27.3797 17.1727 27.3166 16.9089L26.125 11.8674L30.1097 8.47245C30.3205 8.29523 30.4729 8.06129 30.5478 7.79997C30.6227 7.53865 30.6168 7.26157 30.5309 7.00349C30.445 6.7454 30.2828 6.5178 30.0647 6.34923C29.8466 6.18065 29.5823 6.07861 29.305 6.05589L24.0527 5.61236L22.0025 0.844679C21.8954 0.59451 21.7148 0.380818 21.4834 0.230511C21.252 0.0802032 20.9802 0 20.7022 0C20.4241 0 20.1523 0.0802032 19.9209 0.230511C19.6896 0.380818 19.509 0.59451 19.4019 0.844679L17.3455 5.61236L12.095 6.05589C11.8176 6.07861 11.5533 6.18065 11.3353 6.34923C11.1172 6.5178 10.955 6.7454 10.869 7.00349C10.7831 7.26157 10.7772 7.53865 10.8522 7.79997C10.9271 8.06129 11.0795 8.29523 11.2902 8.47245H11.2947Z" fill="#F1C22E"/>
</g>
<path d="M1.125 9.53381H3.375V7.28381C3.375 6.98544 3.49353 6.6993 3.7045 6.48832C3.91548 6.27734 4.20163 6.15881 4.5 6.15881C4.79837 6.15881 5.08452 6.27734 5.29549 6.48832C5.50647 6.6993 5.625 6.98544 5.625 7.28381L5.58506 9.53381H7.875C8.17337 9.53381 8.45952 9.65234 8.6705 9.86332C8.88147 10.0743 9 10.3604 9 10.6588C9 10.9572 8.88147 11.2433 8.6705 11.4543C8.45952 11.6653 8.17337 11.7838 7.875 11.7838L5.58506 11.7439L5.625 14.0338C5.625 14.3322 5.50647 14.6183 5.29549 14.8293C5.08452 15.0403 4.79837 15.1588 4.5 15.1588C4.20163 15.1588 3.91548 15.0403 3.7045 14.8293C3.49353 14.6183 3.375 14.3322 3.375 14.0338V11.7439L1.125 11.7838C0.82663 11.7838 0.540482 11.6653 0.329504 11.4543C0.118525 11.2433 -1.23356e-06 10.9572 -1.23356e-06 10.6588C-1.23356e-06 10.3604 0.118525 10.0743 0.329504 9.86332C0.540482 9.65234 0.82663 9.53381 1.125 9.53381Z" fill="#F1C22E"/>
<defs>
<filter id="filter0_i_1115_944" x="10.7999" y="0" width="20.8" height="19.6" filterUnits="userSpaceOnUse" color-interpolation-filters="sRGB">
<feFlood flood-opacity="0" result="BackgroundImageFix"/>
<feBlend mode="normal" in="SourceGraphic" in2="BackgroundImageFix" result="shape"/>
<feColorMatrix in="SourceAlpha" type="matrix" values="0 0 0 0 0 0 0 0 0 0 0 0 0 0 0 0 0 0 127 0" result="hardAlpha"/>
<feOffset dx="1" dy="1"/>
<feGaussianBlur stdDeviation="0.5"/>
<feComposite in2="hardAlpha" operator="arithmetic" k2="-1" k3="1"/>
<feColorMatrix type="matrix" values="0 0 0 0 1 0 0 0 0 1 0 0 0 0 1 0 0 0 0.5 0"/>
<feBlend mode="soft-light" in2="shape" result="effect1_innerShadow_1115_944"/>
</filter>
</defs>
</svg>
