<svg width="16" height="16" viewBox="0 0 16 16" fill="none" xmlns="http://www.w3.org/2000/svg">
<path d="M5.33341 6.00002C5.7016 6.00002 6.00008 5.70154 6.00008 5.33335C6.00008 4.96517 5.7016 4.66669 5.33341 4.66669C4.96522 4.66669 4.66675 4.96517 4.66675 5.33335C4.66675 5.70154 4.96522 6.00002 5.33341 6.00002Z" fill="#E66587"/>
<path fill-rule="evenodd" clip-rule="evenodd" d="M8.10904 1.37244C7.76697 1.30801 7.41524 1.33526 6.95351 1.37104L4.99907 1.52141C4.53914 1.55678 4.15637 1.58622 3.84325 1.63481C3.51594 1.6856 3.21558 1.76374 2.93217 1.9219C2.50829 2.15847 2.15853 2.50822 1.92197 2.9321C1.7638 3.21552 1.68567 3.51588 1.63488 3.84318C1.58628 4.1563 1.55684 4.53908 1.52147 4.999L1.3711 6.95341C1.33532 7.41521 1.30807 7.76694 1.3725 8.10901C1.42695 8.39801 1.52971 8.67581 1.67647 8.93068C1.85014 9.23228 2.09974 9.48161 2.42742 9.80894L5.76982 13.1513C6.11206 13.4935 6.39516 13.7767 6.64397 13.9904C6.90238 14.2125 7.16384 14.3959 7.47417 14.5088C8.05257 14.7193 8.68657 14.7193 9.26497 14.5088C9.57531 14.3959 9.83677 14.2125 10.0952 13.9904C10.344 13.7767 10.6271 13.4935 10.9693 13.1513L13.1514 10.9693C13.4936 10.627 13.7767 10.3439 13.9905 10.0951C14.2125 9.83668 14.3959 9.57521 14.5088 9.26488C14.7194 8.68654 14.7194 8.05248 14.5088 7.47414C14.3959 7.16381 14.2125 6.90234 13.9905 6.6439C13.7767 6.39509 13.4936 6.11197 13.1513 5.76973L9.80897 2.42736C9.48171 2.09968 9.23237 1.85008 8.93071 1.6764C8.67584 1.52964 8.39804 1.42688 8.10904 1.37244ZM6.98011 2.7063C7.55138 2.66235 7.71551 2.6551 7.86224 2.68273C8.00404 2.70944 8.14037 2.75986 8.26544 2.83188C8.39477 2.90636 8.51471 3.01869 8.91984 3.42386L12.1906 6.69468C12.5553 7.05934 12.8022 7.30688 12.9792 7.51281C13.1516 7.71348 13.2209 7.83401 13.2559 7.93014C13.3592 8.21394 13.3592 8.52508 13.2559 8.80888C13.2209 8.90501 13.1516 9.02548 12.9792 9.22621C12.8022 9.43214 12.5553 9.67968 12.1906 10.0443L10.0444 12.1906C9.67977 12.5552 9.43217 12.8021 9.22624 12.9791C9.02557 13.1515 8.90504 13.2209 8.80891 13.2559C8.52511 13.3591 8.21404 13.3591 7.93024 13.2559C7.83404 13.2209 7.71358 13.1515 7.51291 12.9791C7.30691 12.8021 7.05937 12.5552 6.69471 12.1906L3.42393 8.91981C3.01876 8.51461 2.90642 8.39468 2.83194 8.26534C2.75993 8.14028 2.70951 8.00401 2.68279 7.86214C2.65516 7.71548 2.66242 7.55134 2.70636 6.98001L2.84893 5.12658C2.88676 4.63489 2.91269 4.30378 2.95244 4.04766C2.99087 3.79998 3.03565 3.67256 3.08626 3.58188C3.20234 3.37389 3.37396 3.20227 3.58195 3.0862C3.67263 3.03558 3.80004 2.99081 4.04772 2.95237C4.30385 2.91262 4.63496 2.88669 5.12664 2.84887L6.98011 2.7063Z" fill="#E66587"/>
</svg>
