<svg width="334" height="334" viewBox="0 0 334 334" fill="none" xmlns="http://www.w3.org/2000/svg">
<path fill-rule="evenodd" clip-rule="evenodd" d="M65.087 256.965C34.4467 232.026 14.2227 195.254 14.2227 153.444C14.2227 73.7529 85.7897 14.5556 167 14.5556C248.212 14.5556 319.778 73.7529 319.778 153.444C319.778 233.136 248.212 292.333 167 292.333C158.637 292.333 150.413 291.721 142.384 290.54C138.335 295.228 133.773 299.782 128.739 303.853C119.156 311.601 105.818 319.213 89.6728 320.039C63.5475 321.374 52.4404 292.375 65.2507 274.822C67.1439 272.228 68.1667 269.226 68.1667 266.006C68.1667 262.728 67.0992 259.624 65.087 256.965Z" fill="#BE2C53"/>
<path d="M103.955 115.149C103.955 125.44 98.107 131.877 88.7683 131.877C79.5656 131.877 73.8083 125.44 73.8083 115.149C73.8083 104.859 79.6563 98.3759 88.995 98.3759C98.1976 98.3759 103.955 104.859 103.955 115.149ZM80.0643 115.376C80.0643 122.176 83.283 126.211 88.7683 126.211C94.435 126.211 97.699 122.085 97.699 114.923C97.699 108.077 94.435 104.043 88.995 104.043C83.3736 104.043 80.0643 108.213 80.0643 115.376ZM112.977 105.221C109.94 105.221 108.58 103.635 108.58 100.869C108.58 97.6506 110.348 96.7439 112.705 96.7439C115.607 96.7439 117.057 98.1493 117.057 101.051C117.057 104.269 115.244 105.221 112.977 105.221ZM119.959 129.203C119.959 130.88 119.188 131.469 116.921 131.469C116.785 131.469 114.156 131.333 113.34 131.333C112.66 131.333 110.257 131.469 109.94 131.469C107.719 131.469 106.948 130.88 106.948 129.203C106.948 127.48 107.764 126.392 110.348 126.392H110.62V117.461C110.62 116.147 110.937 115.285 111.572 114.741L111.119 114.877C110.393 115.104 109.804 115.24 109.305 115.24C107.311 115.24 106.268 114.197 106.268 112.339C106.268 110.571 108.58 110.117 110.121 109.755C111.617 109.392 112.569 108.893 113.748 108.893C115.697 108.893 116.513 109.8 116.513 111.704V124.035C116.513 124.941 116.287 125.712 115.879 126.347H116.06C119.007 126.347 119.959 127.435 119.959 129.203ZM123.78 138.043C122.601 138.043 121.74 137.227 121.74 136.048C121.74 135.323 122.057 134.597 123.009 133.827C124.052 132.965 124.686 131.877 124.686 130.789C124.686 130.109 124.233 129.747 123.734 129.248C123.054 128.568 122.284 127.752 122.284 126.165C122.284 123.944 123.734 122.584 126.001 122.584C128.857 122.584 130.806 124.805 130.806 127.979C130.806 131.016 129.038 134.461 126.137 136.909C125.185 137.725 124.55 138.043 123.78 138.043ZM153.707 131.877C146.771 131.877 142.419 127.48 142.419 120.408C142.419 113.336 146.725 108.576 153.117 108.576C158.603 108.576 162.229 112.157 162.229 117.552C162.229 118.504 162.139 119.32 162.003 120.091C161.731 121.405 160.779 122.176 159.373 122.221L147.995 122.675C148.765 125.077 150.896 126.483 153.797 126.483C155.656 126.483 157.016 126.165 157.787 125.531C158.376 125.077 158.965 124.851 159.509 124.851C161.005 124.851 162.229 126.256 162.229 127.661C162.229 128.387 161.912 129.112 161.096 129.701C159.011 131.197 156.472 131.877 153.707 131.877ZM152.709 114.107C150.125 114.107 148.357 115.693 147.813 118.413L156.835 118.051V117.824C156.835 115.512 155.248 114.107 152.709 114.107ZM174.503 131.832C170.287 131.832 167.839 128.885 167.839 123.853V116.872C167.839 115.648 168.111 114.787 168.746 114.197H168.338C165.618 114.197 164.575 113.155 164.575 111.477C164.575 109.619 165.482 109.12 168.7 109.12H171.42C172.871 109.12 173.732 109.845 173.732 111.115V123.128C173.732 125.213 174.911 126.347 176.996 126.347C179.762 126.347 181.303 124.035 181.303 119.864V116.872C181.303 115.603 181.62 114.787 182.21 114.197H181.802C178.311 114.197 177.314 113.291 177.314 111.477C177.314 109.573 178.22 109.12 181.892 109.12H184.839C186.335 109.12 187.196 109.845 187.196 111.115V124.035C187.196 124.941 186.97 125.621 186.562 126.211H186.879C189.554 126.211 190.914 126.981 190.914 128.749C190.914 130.699 189.418 131.605 186.063 131.605H185.836C182.844 131.605 181.666 130.563 181.666 127.661V126.573C180.306 129.837 177.631 131.832 174.503 131.832ZM209.56 131.877C204.12 131.877 200.675 129.792 200.675 126.483C200.675 124.261 202.08 122.992 204.347 122.992C206.115 122.992 207.157 123.808 207.157 124.805C207.157 125.667 206.931 125.712 206.931 126.483C206.931 127.163 208.155 127.48 209.605 127.48C212.144 127.48 213.549 126.619 213.549 125.032C213.549 123.491 211.645 123.037 209.379 122.539C205.797 121.768 201.264 120.861 201.264 115.784C201.264 111.296 204.755 108.576 210.603 108.576C212.915 108.576 215.499 109.075 217.085 109.891C218.445 110.661 218.808 111.477 218.808 113.517V113.608C218.808 115.875 218.037 116.736 216.043 116.736C214.229 116.736 213.277 115.875 213.277 114.016V113.88C212.28 113.427 211.328 113.2 210.376 113.2C208.245 113.2 207.067 114.107 207.067 115.693C207.067 117.144 209.061 117.507 211.419 118.005C214.909 118.776 219.352 119.773 219.352 124.941C219.352 129.203 215.544 131.877 209.56 131.877ZM244.001 120.045C244.001 127.253 239.74 131.877 233.076 131.877C226.502 131.877 222.15 127.299 222.15 120.408C222.15 113.2 226.412 108.576 233.076 108.576C239.649 108.576 244.001 113.155 244.001 120.045ZM227.817 120.408C227.817 124.035 230.038 126.619 233.03 126.619C236.204 126.619 238.334 123.944 238.334 120.045C238.334 116.419 236.113 113.835 233.076 113.835C229.948 113.835 227.817 116.509 227.817 120.408ZM255.917 131.832C251.701 131.832 249.253 128.885 249.253 123.853V116.872C249.253 115.648 249.525 114.787 250.16 114.197H249.752C247.032 114.197 245.989 113.155 245.989 111.477C245.989 109.619 246.896 109.12 250.114 109.12H252.834C254.285 109.12 255.146 109.845 255.146 111.115V123.128C255.146 125.213 256.325 126.347 258.41 126.347C261.176 126.347 262.717 124.035 262.717 119.864V116.872C262.717 115.603 263.034 114.787 263.624 114.197H263.216C259.725 114.197 258.728 113.291 258.728 111.477C258.728 109.573 259.634 109.12 263.306 109.12H266.253C267.749 109.12 268.61 109.845 268.61 111.115V124.035C268.61 124.941 268.384 125.621 267.976 126.211H268.293C270.968 126.211 272.328 126.981 272.328 128.749C272.328 130.699 270.832 131.605 267.477 131.605H267.25C264.258 131.605 263.08 130.563 263.08 127.661V126.573C261.72 129.837 259.045 131.832 255.917 131.832ZM110.749 199.877C107.304 199.877 104.856 197.928 104.856 194.483C104.856 190.176 108.618 187.773 114.693 187.773C115.146 187.773 115.645 187.773 117.73 187.909V186.957C117.73 182.832 116.914 181.699 114.013 181.699C113.242 181.699 112.472 181.744 111.701 181.925V182.424C111.701 185.144 110.749 186.187 108.664 186.187C106.533 186.187 105.762 185.099 105.762 182.152V181.744C105.762 179.704 106.397 178.752 108.301 177.845C110.069 177.029 112.698 176.576 115.146 176.576C120.858 176.576 123.624 179.523 123.624 185.688V191.808C123.624 192.851 123.442 193.667 122.989 194.211H123.306C125.981 194.211 127.341 194.981 127.341 196.749C127.341 198.699 125.845 199.605 122.49 199.605H122.264C119.272 199.605 118.093 198.563 118.093 195.661V195.208C116.869 198.109 114.149 199.877 110.749 199.877ZM111.474 193.485C111.474 194.709 112.2 195.389 113.514 195.389C115.736 195.389 117.685 193.984 117.685 192.352V191.491C115.6 191.4 115.418 191.4 115.237 191.4C112.88 191.4 111.474 192.125 111.474 193.485ZM158.663 188.272C160.023 188.272 161.564 189.133 161.564 190.901C161.564 192.397 160.521 195.707 159.977 197.52C159.569 198.789 158.436 199.56 156.305 199.56C155.399 199.56 149.551 199.333 146.604 199.333C142.66 199.333 140.575 199.515 139.26 199.515C137.129 199.515 136.359 198.88 136.359 197.112C136.359 195.253 137.401 194.347 140.665 194.347H140.847V174.627C140.847 173.493 141.164 172.587 141.799 171.907H141.617C137.673 171.907 136.359 171.181 136.359 169.141C136.359 167.419 137.175 166.784 139.532 166.784C140.711 166.784 143.249 166.92 144.609 166.92C146.241 166.92 147.828 166.693 148.735 166.693C150.639 166.693 151.5 167.419 151.5 169.141C151.5 171 150.457 171.907 147.148 171.907H147.012V191.808C147.012 192.76 146.785 193.531 146.377 194.12C149.596 194.165 152.543 194.256 155.217 194.437L155.988 191.083C156.396 189.224 157.303 188.272 158.663 188.272ZM168.869 173.221C165.832 173.221 164.472 171.635 164.472 168.869C164.472 165.651 166.24 164.744 168.597 164.744C171.499 164.744 172.949 166.149 172.949 169.051C172.949 172.269 171.136 173.221 168.869 173.221ZM175.851 197.203C175.851 198.88 175.08 199.469 172.813 199.469C172.677 199.469 170.048 199.333 169.232 199.333C168.552 199.333 166.149 199.469 165.832 199.469C163.611 199.469 162.84 198.88 162.84 197.203C162.84 195.48 163.656 194.392 166.24 194.392H166.512V185.461C166.512 184.147 166.829 183.285 167.464 182.741L167.011 182.877C166.285 183.104 165.696 183.24 165.197 183.24C163.203 183.24 162.16 182.197 162.16 180.339C162.16 178.571 164.472 178.117 166.013 177.755C167.509 177.392 168.461 176.893 169.64 176.893C171.589 176.893 172.405 177.8 172.405 179.704V192.035C172.405 192.941 172.179 193.712 171.771 194.347H171.952C174.899 194.347 175.851 195.435 175.851 197.203ZM183.752 176.893C185.429 176.893 186.29 178.117 186.29 180.384V180.883C187.65 178.117 190.552 176.576 193.997 176.576C198.349 176.576 200.888 179.523 200.888 184.555V192.035C200.888 192.941 200.661 193.712 200.253 194.347H200.344C203.154 194.347 204.106 195.344 204.106 197.203C204.106 198.88 203.381 199.469 201.341 199.469C201.296 199.469 198.621 199.333 197.714 199.333C197.17 199.333 194.858 199.469 194.541 199.469C192.32 199.469 191.549 198.88 191.549 197.203C191.549 195.571 192.365 194.392 194.813 194.392H194.994V185.28C194.994 183.195 193.77 182.061 191.504 182.061C188.602 182.061 186.97 183.693 186.97 186.595V192.035C186.97 192.941 186.744 193.712 186.336 194.347H186.517C189.464 194.347 190.416 195.435 190.416 197.203C190.416 198.88 189.645 199.469 187.378 199.469C187.242 199.469 184.613 199.333 183.797 199.333C183.117 199.333 180.714 199.469 180.397 199.469C178.176 199.469 177.405 198.88 177.405 197.203C177.405 195.435 178.221 194.347 180.805 194.347H181.077V185.461C181.077 184.147 181.394 183.285 182.029 182.741L181.576 182.877C180.85 183.104 180.261 183.24 179.762 183.24C177.768 183.24 176.725 182.197 176.725 180.339C176.725 178.571 178.584 178.117 180.125 177.755C181.621 177.392 182.573 176.893 183.752 176.893ZM212.041 199.877C208.595 199.877 206.147 197.928 206.147 194.483C206.147 190.176 209.91 187.773 215.985 187.773C216.438 187.773 216.937 187.773 219.022 187.909V186.957C219.022 182.832 218.206 181.699 215.305 181.699C214.534 181.699 213.763 181.744 212.993 181.925V182.424C212.993 185.144 212.041 186.187 209.955 186.187C207.825 186.187 207.054 185.099 207.054 182.152V181.744C207.054 179.704 207.689 178.752 209.593 177.845C211.361 177.029 213.99 176.576 216.438 176.576C222.15 176.576 224.915 179.523 224.915 185.688V191.808C224.915 192.851 224.734 193.667 224.281 194.211H224.598C227.273 194.211 228.633 194.981 228.633 196.749C228.633 198.699 227.137 199.605 223.782 199.605H223.555C220.563 199.605 219.385 198.563 219.385 195.661V195.208C218.161 198.109 215.441 199.877 212.041 199.877ZM212.766 193.485C212.766 194.709 213.491 195.389 214.806 195.389C217.027 195.389 218.977 193.984 218.977 192.352V191.491C216.891 191.4 216.71 191.4 216.529 191.4C214.171 191.4 212.766 192.125 212.766 193.485ZM235.123 188.907C233.219 188.907 232.539 187.864 232.448 185.96L231.587 168.915C231.451 166.24 233.083 165.016 235.123 165.016C237.208 165.016 238.795 166.285 238.659 168.915L237.797 185.96C237.707 187.864 237.027 188.907 235.123 188.907ZM235.259 199.877C232.221 199.877 230.589 198.336 230.589 195.253C230.589 192.307 232.04 190.856 234.987 190.856C238.024 190.856 239.611 192.397 239.611 195.435C239.611 198.381 238.16 199.877 235.259 199.877Z" fill="white"/>
</svg>
