<svg width="1920" height="801" viewBox="0 0 1920 801" fill="none" xmlns="http://www.w3.org/2000/svg">
<path fill-rule="evenodd" clip-rule="evenodd" d="M1840 64.5395L1920 71.4181V112.667V114V650V651.333V800.667L1840 788.039C1760 775.41 1600 750.154 1440 734.478C1280 718.802 1120 712.705 960 718.802C896.901 721.378 833.802 725.85 770.704 730.322C673.802 737.19 576.901 744.058 480 744.058C320 744.058 160 725.333 80 715.753L0 706.609V651.333V650V114H-5.72205e-05V0.66663L79.9999 10.1657L80.0001 10.1657C160 19.6647 320 38.6628 480 50.4547C640 62.2466 800 66.8323 960 62.2466C1023.1 60.309 1086.2 56.9449 1149.3 53.5809C1246.2 48.4147 1343.1 43.2485 1440 43.2485C1600 43.2485 1760 57.3333 1840 64.5395Z" fill="#7ACB65"/>
</svg>
