<svg width="24" height="24" viewBox="0 0 24 24" fill="none" xmlns="http://www.w3.org/2000/svg">
<g clip-path="url(#clip0_1279_2069)">
<path fill-rule="evenodd" clip-rule="evenodd" d="M11.9477 7.76978C12.3702 7.76978 12.7128 8.11231 12.7128 8.53485V12.3351L15.4111 13.3609C15.8061 13.511 16.0046 13.9529 15.8544 14.3479C15.7043 14.7429 15.2624 14.9413 14.8675 14.7911L11.6759 13.578C11.3789 13.465 11.1826 13.1804 11.1826 12.8628V8.53485C11.1826 8.11231 11.5251 7.76978 11.9477 7.76978Z" fill="#08394C"/>
<path fill-rule="evenodd" clip-rule="evenodd" d="M1.34152 14.016C1.58173 13.5169 2.18107 13.307 2.68019 13.5472L4.34404 14.3479C2.95924 9.75071 5.42905 4.83451 10.0055 3.23174C14.7106 1.58395 19.8605 4.06229 21.5082 8.76733C23.156 13.4723 20.6777 18.6223 15.9727 20.2701C15.4499 20.4532 14.8777 20.1778 14.6946 19.655C14.5115 19.1322 14.7868 18.56 15.3096 18.3769C18.9691 17.0953 20.8967 13.0898 19.6151 9.43035C18.3335 5.7709 14.328 3.84328 10.6685 5.12489C7.14481 6.35896 5.22682 10.1186 6.23364 13.663L7.02097 12.027C7.26118 11.5279 7.86051 11.318 8.35963 11.5581C8.85874 11.7983 9.06865 12.3977 8.82845 12.8968L6.98325 16.731C6.8679 16.9707 6.66207 17.1548 6.41102 17.2427C6.15997 17.3306 5.88428 17.3152 5.64459 17.1999L1.81034 15.3547C1.31123 15.1145 1.10132 14.5151 1.34152 14.016Z" fill="#08394C"/>
</g>
<defs>
<clipPath id="clip0_1279_2069">
<rect width="24" height="24" fill="white"/>
</clipPath>
</defs>
</svg>
