<svg width="13" height="13" viewBox="0 0 13 13" fill="none" xmlns="http://www.w3.org/2000/svg">
<path fill-rule="evenodd" clip-rule="evenodd" d="M6.65143 2.01277C6.55252 1.98397 6.44744 1.98397 6.34848 2.01277C6.32004 2.02107 6.26999 2.04181 6.16355 2.1224C6.05164 2.20715 5.9146 2.32844 5.70108 2.51824L2.86293 5.04102C2.51499 5.35031 2.41635 5.44359 2.34778 5.54672C2.28181 5.64595 2.23267 5.75537 2.20233 5.87058C2.17079 5.9904 2.16662 6.12603 2.16662 6.5916V9.30047C2.16662 9.77226 2.16706 10.093 2.18763 10.3407C2.20767 10.5821 2.24397 10.7052 2.28859 10.7911C2.39138 10.989 2.55271 11.1503 2.75057 11.2531C2.83646 11.2977 2.95963 11.334 3.20091 11.354C3.44867 11.3746 3.7694 11.3751 4.24121 11.3751H4.33329V9.75005C4.33329 8.55346 5.30334 7.58339 6.49998 7.58339C7.69658 7.58339 8.66665 8.55346 8.66665 9.75005V11.3751H8.75873C9.23052 11.3751 9.55124 11.3746 9.799 11.354C10.0403 11.334 10.1634 11.2977 10.2493 11.2531C10.4472 11.1503 10.6085 10.989 10.7113 10.7911C10.756 10.7052 10.7923 10.5821 10.8123 10.3407C10.8328 10.093 10.8333 9.77226 10.8333 9.30047V6.5916C10.8333 6.12603 10.8291 5.9904 10.7976 5.87058C10.7672 5.75537 10.7181 5.64595 10.6521 5.54672C10.5836 5.44359 10.4849 5.35031 10.137 5.04102L7.29883 2.51824C7.08531 2.32844 6.94827 2.20715 6.83636 2.1224C6.72992 2.04181 6.67987 2.02107 6.65143 2.01277ZM6.04558 0.97265C6.34236 0.886233 6.65755 0.886233 6.95433 0.97265C7.16022 1.03262 7.33095 1.13807 7.49026 1.25869C7.6403 1.37229 7.8093 1.52249 8.00387 1.69544L10.8567 4.23133C10.8721 4.24498 10.8872 4.25845 10.9022 4.27174C11.1848 4.52265 11.3982 4.7122 11.5543 4.94697C11.6862 5.14543 11.7845 5.36429 11.8452 5.59477C11.917 5.86739 11.9169 6.15285 11.9166 6.53071C11.9166 6.55075 11.9166 6.57101 11.9166 6.5916V9.32322C11.9166 9.76658 11.9166 10.1325 11.8919 10.4304C11.8662 10.7399 11.811 11.0242 11.6727 11.2905C11.4671 11.6862 11.1444 12.0089 10.7488 12.2144C10.4824 12.3528 10.1982 12.408 9.88865 12.4336C9.59073 12.4584 9.22484 12.4584 8.78143 12.4584H8.56102C8.5568 12.4584 8.55257 12.4584 8.54824 12.4584C8.48264 12.4584 8.40432 12.4584 8.33531 12.4527C8.25531 12.4461 8.1408 12.429 8.02125 12.3669C7.87284 12.2898 7.75183 12.1688 7.67475 12.0204C7.61267 11.9008 7.59561 11.7863 7.58895 11.7063C7.58321 11.6374 7.58326 11.559 7.58326 11.4934L7.58332 9.75005C7.58332 9.15173 7.09825 8.66672 6.49998 8.66672C5.90166 8.66672 5.41662 9.15173 5.41662 9.75005L5.41663 11.4934C5.41665 11.559 5.4167 11.6374 5.41096 11.7063C5.40431 11.7863 5.38725 11.9008 5.32515 12.0204C5.24806 12.1688 5.12706 12.2898 4.97867 12.3669C4.85911 12.429 4.7446 12.4461 4.6646 12.4527C4.59561 12.4584 4.51726 12.4584 4.45165 12.4584C4.44735 12.4584 4.4431 12.4584 4.43891 12.4584H4.21847C3.7751 12.4584 3.40917 12.4584 3.11125 12.4336C2.80177 12.408 2.51748 12.3528 2.25118 12.2144C1.85545 12.0089 1.53279 11.6862 1.32723 11.2905C1.1889 11.0242 1.13372 10.7399 1.10802 10.4304C1.08328 10.1325 1.08328 9.76658 1.08329 9.32322V6.5916C1.08329 6.57101 1.08328 6.55075 1.08327 6.53071C1.08307 6.15285 1.08293 5.86739 1.15471 5.59477C1.21539 5.36429 1.31368 5.14543 1.4456 4.94697C1.60167 4.7122 1.81513 4.52265 2.09771 4.27175C2.11268 4.25845 2.12784 4.24498 2.1432 4.23133L4.99607 1.69545C5.19063 1.52249 5.3596 1.37229 5.50965 1.25869C5.66896 1.13807 5.83969 1.03262 6.04558 0.97265Z" fill="white"/>
</svg>
