<svg width="16" height="16" viewBox="0 0 16 16" fill="none" xmlns="http://www.w3.org/2000/svg">
<path fill-rule="evenodd" clip-rule="evenodd" d="M8.1864 2.47717C8.06466 2.44172 7.93533 2.44172 7.81353 2.47717C7.77853 2.48738 7.71693 2.51291 7.58593 2.61209C7.4482 2.7164 7.27953 2.86568 7.01673 3.09929L3.52362 6.20425C3.09539 6.58491 2.97399 6.69971 2.88959 6.82664C2.8084 6.94878 2.74792 7.08344 2.71058 7.22524C2.67176 7.37271 2.66663 7.53964 2.66663 8.11264V11.4466C2.66663 12.0273 2.66717 12.422 2.69249 12.727C2.71715 13.024 2.76183 13.1756 2.81675 13.2812C2.94325 13.5248 3.14181 13.7234 3.38534 13.8498C3.49105 13.9048 3.64264 13.9494 3.9396 13.9741C4.24454 13.9994 4.63928 14 5.21996 14H5.3333V12C5.3333 10.5272 6.5272 9.33331 8 9.33331C9.47273 9.33331 10.6667 10.5272 10.6667 12V14H10.78C11.3607 14 11.7554 13.9994 12.0603 13.9741C12.3573 13.9494 12.5089 13.9048 12.6146 13.8498C12.8581 13.7234 13.0567 13.5248 13.1832 13.2812C13.2381 13.1756 13.2828 13.024 13.3075 12.727C13.3327 12.422 13.3333 12.0273 13.3333 11.4466V8.11264C13.3333 7.53964 13.3282 7.37271 13.2893 7.22524C13.252 7.08344 13.1915 6.94878 13.1103 6.82664C13.0259 6.69971 12.9045 6.58491 12.4763 6.20425L8.9832 3.09929C8.7204 2.86568 8.55173 2.7164 8.414 2.61209C8.283 2.51291 8.2214 2.48738 8.1864 2.47717ZM7.44073 1.19702C7.806 1.09066 8.19393 1.09066 8.5592 1.19702C8.8126 1.27083 9.02273 1.40061 9.2188 1.54907C9.40346 1.68888 9.61146 1.87374 9.85093 2.08661L13.3621 5.20771C13.3811 5.2245 13.3997 5.24108 13.4181 5.25744C13.7659 5.56625 14.0286 5.79954 14.2207 6.08849C14.3831 6.33275 14.5041 6.60212 14.5787 6.88578C14.6671 7.22131 14.6669 7.57264 14.6667 8.03771C14.6667 8.06238 14.6667 8.08731 14.6667 8.11264V11.4746C14.6667 12.0203 14.6667 12.4707 14.6362 12.8374C14.6046 13.2182 14.5367 13.5682 14.3664 13.8959C14.1134 14.383 13.7163 14.78 13.2293 15.033C12.9015 15.2033 12.5516 15.2712 12.1707 15.3028C11.804 15.3333 11.3537 15.3333 10.8079 15.3333H10.5367C10.5315 15.3333 10.5263 15.3333 10.5209 15.3333C10.4402 15.3333 10.3438 15.3334 10.2589 15.3263C10.1604 15.3182 10.0195 15.2972 9.87233 15.2207C9.68966 15.1258 9.54073 14.9769 9.44586 14.7943C9.36946 14.6471 9.34846 14.5062 9.34026 14.4077C9.3332 14.3228 9.33326 14.2264 9.33326 14.1456L9.33333 12C9.33333 11.2636 8.73633 10.6666 8 10.6666C7.2636 10.6666 6.66663 11.2636 6.66663 12L6.66664 14.1456C6.66666 14.2264 6.66673 14.3228 6.65966 14.4077C6.65148 14.5062 6.63048 14.6471 6.55404 14.7943C6.45917 14.9769 6.31025 15.1258 6.12761 15.2207C5.98046 15.2972 5.83952 15.3182 5.74106 15.3263C5.65615 15.3334 5.55972 15.3333 5.47898 15.3333C5.47368 15.3333 5.46845 15.3333 5.4633 15.3333H5.19198C4.64629 15.3333 4.19592 15.3333 3.82925 15.3028C3.44835 15.2712 3.09846 15.2033 2.7707 15.033C2.28365 14.78 1.88653 14.383 1.63353 13.8959C1.46328 13.5682 1.39536 13.2182 1.36373 12.8374C1.33328 12.4707 1.33329 12.0203 1.3333 11.4746V8.11264C1.3333 8.08731 1.33328 8.06238 1.33328 8.03771C1.33303 7.57264 1.33285 7.22131 1.4212 6.88578C1.49588 6.60212 1.61685 6.33275 1.77922 6.08849C1.9713 5.79954 2.23403 5.56625 2.58181 5.25744C2.60024 5.24108 2.6189 5.2245 2.6378 5.20771L6.14902 2.08662C6.38849 1.87374 6.59644 1.68888 6.78113 1.54907C6.9772 1.40061 7.18733 1.27083 7.44073 1.19702Z" fill="#08394C"/>
</svg>
