<svg width="315" height="146" viewBox="0 0 315 146" fill="none" xmlns="http://www.w3.org/2000/svg">
<g clip-path="url(#clip0_1_7)">
<path d="M15 0.5H300C308.008 0.5 314.5 6.99187 314.5 15V131C314.5 139.008 308.008 145.5 300 145.5H15C6.99187 145.5 0.5 139.008 0.5 131V15C0.5 6.99187 6.99187 0.5 15 0.5Z" fill="#FCFCFC" stroke="#03A64B"/>
<path d="M121.44 56V44.8H125.296C127.936 44.8 129.488 46.224 129.488 48.768V52.048C129.488 54.624 127.968 56 125.36 56H121.44ZM125.184 46.16H123.008V54.64H125.216C127.136 54.64 127.872 53.648 127.872 52.016V48.8C127.872 47.184 127.024 46.16 125.184 46.16ZM132.722 46.688C132.114 46.688 131.682 46.288 131.682 45.744C131.682 45.184 132.114 44.8 132.722 44.8C133.346 44.8 133.762 45.184 133.762 45.744C133.762 46.288 133.346 46.688 132.722 46.688ZM131.938 56V48.128H133.506V56H131.938ZM138.846 49.168C137.838 49.168 137.454 49.52 137.454 50.208C137.454 50.88 137.79 51.104 138.67 51.312L139.694 51.52C141.55 51.92 142.206 52.432 142.206 53.792C142.206 55.344 141.15 56.16 139.038 56.16C136.99 56.16 135.87 55.328 135.662 53.488H137.15C137.278 54.512 137.838 54.96 139.07 54.96C140.206 54.96 140.638 54.576 140.638 53.856C140.638 53.152 140.35 52.96 139.278 52.736L138.142 52.512C136.638 52.208 135.886 51.632 135.886 50.272C135.886 48.88 136.83 47.968 138.83 47.968C140.99 47.968 141.95 48.864 142.03 50.512H140.51C140.414 49.6 139.934 49.168 138.846 49.168ZM148.285 56.16C147.117 56.16 146.333 55.648 145.917 54.784V59.2H144.349V48.128H145.917V49.36C146.349 48.416 147.181 47.968 148.285 47.968C150.029 47.968 151.325 49.168 151.325 51.488V52.64C151.325 54.96 150.029 56.16 148.285 56.16ZM147.869 54.8C149.133 54.8 149.725 53.936 149.725 52.592V51.536C149.725 50.192 149.133 49.328 147.837 49.328C146.653 49.328 145.917 50.08 145.917 51.568V52.624C145.917 53.968 146.669 54.8 147.869 54.8ZM156.689 56.16C154.577 56.16 153.217 54.96 153.217 52.64V51.472C153.217 49.168 154.577 47.968 156.689 47.968C158.817 47.968 160.193 49.168 160.193 51.472V52.64C160.193 54.96 158.817 56.16 156.689 56.16ZM156.689 49.328C155.409 49.328 154.817 50.192 154.817 51.504V52.608C154.817 53.936 155.409 54.8 156.689 54.8C157.985 54.8 158.577 53.936 158.577 52.608V51.504C158.577 50.192 157.985 49.328 156.689 49.328ZM164.046 51.584V56H162.478V48.128H164.046V49.552C164.558 48.464 165.454 47.968 166.542 47.968C168.206 47.968 169.166 48.896 169.166 50.768V56H167.582V51.152C167.582 49.936 167.118 49.328 165.966 49.328C164.91 49.328 164.046 50.112 164.046 51.584ZM175.139 44.8L173.267 46.912H171.843L173.283 44.8H175.139ZM171.731 56V48.128H173.299V56H171.731ZM179.695 56H177.855L175.039 48.128H176.751L178.815 54.4L180.895 48.128H182.543L179.695 56ZM190.384 53.632C190.176 55.248 188.944 56.16 187.104 56.16C185.04 56.16 183.664 54.96 183.664 52.64V51.472C183.664 49.168 185.024 47.968 187.12 47.968C189.136 47.968 190.432 49.2 190.432 51.536V52.352H185.28C185.296 52.592 185.312 52.816 185.328 53.024C185.424 54.16 186.016 54.848 187.184 54.848C187.28 54.848 187.36 54.832 187.456 54.816C188.288 54.752 188.736 54.304 188.848 53.632H190.384ZM185.28 51.28L185.424 51.36H188.928C188.864 49.92 188.336 49.264 187.136 49.264C185.904 49.264 185.328 50.048 185.28 51.28ZM194.21 53.808C194.21 54.512 194.418 54.72 195.058 54.72H195.298V56.08H194.994C193.314 56.08 192.626 55.616 192.626 53.856V44.32H194.21V53.808ZM205.521 56.16C204.353 56.16 203.569 55.648 203.153 54.784V59.2H201.585V48.128H203.153V49.36C203.585 48.416 204.417 47.968 205.521 47.968C207.265 47.968 208.561 49.168 208.561 51.488V52.64C208.561 54.96 207.265 56.16 205.521 56.16ZM205.105 54.8C206.369 54.8 206.961 53.936 206.961 52.592V51.536C206.961 50.192 206.369 49.328 205.073 49.328C203.889 49.328 203.153 50.08 203.153 51.568V52.624C203.153 53.968 203.905 54.8 205.105 54.8ZM215.206 56V54.96C214.806 55.76 214.102 56.16 212.886 56.16C211.27 56.16 210.342 55.344 210.342 54.016V53.568C210.342 52.384 211.126 51.536 213.206 51.536H215.206V50.992C215.206 49.808 214.79 49.328 213.67 49.328C212.662 49.328 212.23 49.792 212.134 50.496H210.598C210.79 48.976 211.734 47.968 213.798 47.968C215.75 47.968 216.774 48.864 216.774 50.832V56H215.206ZM213.382 55.024C214.55 55.024 215.206 54.48 215.206 53.12V52.496H213.382C212.294 52.496 211.926 52.896 211.926 53.568V53.872C211.926 54.624 212.374 55.024 213.382 55.024ZM220.908 51.76V56H219.34V48.128H220.908V49.488C221.42 48.464 222.236 47.968 223.26 47.968H223.644V49.504H223.196C221.852 49.504 220.908 50.24 220.908 51.76ZM229.632 56V54.96C229.232 55.76 228.528 56.16 227.312 56.16C225.696 56.16 224.768 55.344 224.768 54.016V53.568C224.768 52.384 225.552 51.536 227.632 51.536H229.632V50.992C229.632 49.808 229.216 49.328 228.096 49.328C227.088 49.328 226.656 49.792 226.56 50.496H225.024C225.216 48.976 226.16 47.968 228.224 47.968C230.176 47.968 231.2 48.864 231.2 50.832V56H229.632ZM227.808 55.024C228.976 55.024 229.632 54.48 229.632 53.12V52.496H227.808C226.72 52.496 226.352 52.896 226.352 53.568V53.872C226.352 54.624 226.8 55.024 227.808 55.024ZM239.696 51.76V56H238.128V48.128H239.696V49.488C240.208 48.464 241.024 47.968 242.048 47.968H242.432V49.504H241.984C240.64 49.504 239.696 50.24 239.696 51.76ZM250.373 53.632C250.165 55.248 248.933 56.16 247.093 56.16C245.029 56.16 243.653 54.96 243.653 52.64V51.472C243.653 49.168 245.013 47.968 247.109 47.968C249.125 47.968 250.421 49.2 250.421 51.536V52.352H245.269C245.285 52.592 245.301 52.816 245.317 53.024C245.413 54.16 246.005 54.848 247.173 54.848C247.269 54.848 247.349 54.832 247.445 54.816C248.277 54.752 248.725 54.304 248.837 53.632H250.373ZM245.269 51.28L245.413 51.36H248.917C248.853 49.92 248.325 49.264 247.125 49.264C245.893 49.264 245.317 50.048 245.269 51.28ZM255.351 49.168C254.343 49.168 253.959 49.52 253.959 50.208C253.959 50.88 254.295 51.104 255.175 51.312L256.199 51.52C258.055 51.92 258.711 52.432 258.711 53.792C258.711 55.344 257.655 56.16 255.543 56.16C253.495 56.16 252.375 55.328 252.167 53.488H253.655C253.783 54.512 254.343 54.96 255.575 54.96C256.711 54.96 257.143 54.576 257.143 53.856C257.143 53.152 256.855 52.96 255.783 52.736L254.647 52.512C253.143 52.208 252.391 51.632 252.391 50.272C252.391 48.88 253.335 47.968 255.335 47.968C257.495 47.968 258.455 48.864 258.535 50.512H257.015C256.919 49.6 256.439 49.168 255.351 49.168ZM263.99 59.36C261.942 59.36 260.758 58.432 260.566 56.896H262.102C262.246 57.616 262.806 58 263.926 58C265.238 58 265.83 57.376 265.83 55.808V54.624C265.398 55.536 264.566 56 263.478 56C261.718 56 260.438 54.8 260.438 52.48V51.488C260.438 49.168 261.718 47.968 263.478 47.968C264.614 47.968 265.414 48.464 265.83 49.328V48.128H267.398V55.792C267.398 58.192 266.182 59.36 263.99 59.36ZM263.894 49.328C262.63 49.328 262.038 50.192 262.038 51.52V52.416C262.038 53.776 262.63 54.64 263.926 54.64C265.11 54.64 265.83 53.888 265.83 52.384V51.488C265.83 50.16 265.078 49.328 263.894 49.328ZM274.442 56V54.96C274.042 55.76 273.338 56.16 272.122 56.16C270.506 56.16 269.578 55.344 269.578 54.016V53.568C269.578 52.384 270.362 51.536 272.442 51.536H274.442V50.992C274.442 49.808 274.026 49.328 272.906 49.328C271.898 49.328 271.466 49.792 271.37 50.496H269.834C270.026 48.976 270.97 47.968 273.034 47.968C274.986 47.968 276.01 48.864 276.01 50.832V56H274.442ZM272.618 55.024C273.786 55.024 274.442 54.48 274.442 53.12V52.496H272.618C271.53 52.496 271.162 52.896 271.162 53.568V53.872C271.162 54.624 271.61 55.024 272.618 55.024ZM282.692 54.768V56.08H281.428C279.588 56.08 278.804 55.312 278.804 53.456V49.44H277.588V48.128H278.804V45.824H280.372V48.128H282.692V49.44H280.372V53.472C280.372 54.288 280.708 54.768 281.716 54.768H282.692ZM290.728 53.632C290.52 55.248 289.288 56.16 287.448 56.16C285.384 56.16 284.008 54.96 284.008 52.64V51.472C284.008 49.168 285.368 47.968 287.464 47.968C289.48 47.968 290.776 49.2 290.776 51.536V52.352H285.624C285.64 52.592 285.656 52.816 285.672 53.024C285.768 54.16 286.36 54.848 287.528 54.848C287.624 54.848 287.704 54.832 287.8 54.816C288.632 54.752 289.08 54.304 289.192 53.632H290.728ZM285.624 51.28L285.768 51.36H289.272C289.208 49.92 288.68 49.264 287.48 49.264C286.248 49.264 285.672 50.048 285.624 51.28ZM293.818 50.288C293.194 50.288 292.762 49.856 292.762 49.248C292.762 48.64 293.194 48.24 293.818 48.24C294.442 48.24 294.874 48.64 294.874 49.248C294.874 49.856 294.442 50.288 293.818 50.288ZM293.818 56.16C293.194 56.16 292.762 55.728 292.762 55.12C292.762 54.512 293.194 54.112 293.818 54.112C294.442 54.112 294.874 54.512 294.874 55.12C294.874 55.744 294.442 56.16 293.818 56.16Z" fill="#08394C"/>
<g filter="url(#filter0_d_1_7)">
<path d="M105 73C105 49.2518 85.7482 30 62 30C38.2518 30 19 49.2518 19 73C19 96.7482 38.2518 116 62 116C85.7482 116 105 96.7482 105 73Z" fill="#03A64B"/>
</g>
<mask id="mask0_1_7" style="mask-type:luminance" maskUnits="userSpaceOnUse" x="36" y="48" width="52" height="50">
<path d="M88 48H36V98H88V48Z" fill="white"/>
</mask>
<g mask="url(#mask0_1_7)">
<path d="M62 77.1031C62 79.2541 62.8436 81.3171 64.3453 82.8382C65.8469 84.3592 67.8836 85.2137 70.0072 85.2137C72.1309 85.2137 74.1676 84.3592 75.6692 82.8382C77.1709 81.3171 78.0145 79.2541 78.0145 77.1031C78.0145 74.952 77.1709 72.889 75.6692 71.3679C74.1676 69.8469 72.1309 68.9924 70.0072 68.9924C67.8836 68.9924 65.8469 69.8469 64.3453 71.3679C62.8436 72.889 62 74.952 62 77.1031Z" stroke="white" stroke-width="4" stroke-linecap="round" stroke-linejoin="round"/>
<path d="M64.6692 83.8619V96.028L70.0074 91.9726L75.3455 96.028V83.8619" stroke="white" stroke-width="4" stroke-linecap="round" stroke-linejoin="round"/>
<path d="M56.6618 87.9173H43.3164C41.9007 87.9173 40.5429 87.3476 39.5418 86.3336C38.5407 85.3196 37.9783 83.9442 37.9783 82.5102V55.4746C37.9783 52.5006 40.3804 50.0674 43.3164 50.0674H80.6836C82.0994 50.0674 83.4571 50.6371 84.4582 51.6512C85.4593 52.6652 86.0218 54.0405 86.0218 55.4746V82.5102C86.0208 83.4584 85.7737 84.3897 85.3052 85.2106C84.8367 86.0315 84.1634 86.7132 83.3527 87.1874M45.9855 60.8817H78.0145M45.9855 68.9924H53.9928M45.9855 77.1031H51.3237" stroke="white" stroke-width="4" stroke-linecap="round" stroke-linejoin="round"/>
</g>
</g>
<defs>
<filter id="filter0_d_1_7" x="15" y="30" width="94" height="94" filterUnits="userSpaceOnUse" color-interpolation-filters="sRGB">
<feFlood flood-opacity="0" result="BackgroundImageFix"/>
<feColorMatrix in="SourceAlpha" type="matrix" values="0 0 0 0 0 0 0 0 0 0 0 0 0 0 0 0 0 0 127 0" result="hardAlpha"/>
<feOffset dy="4"/>
<feGaussianBlur stdDeviation="2"/>
<feComposite in2="hardAlpha" operator="out"/>
<feColorMatrix type="matrix" values="0 0 0 0 0 0 0 0 0 0 0 0 0 0 0 0 0 0 0.25 0"/>
<feBlend mode="normal" in2="BackgroundImageFix" result="effect1_dropShadow_1_7"/>
<feBlend mode="normal" in="SourceGraphic" in2="effect1_dropShadow_1_7" result="shape"/>
</filter>
<clipPath id="clip0_1_7">
<rect width="315" height="146" fill="white"/>
</clipPath>
</defs>
</svg>
