<svg width="35" height="35" viewBox="0 0 35 35" fill="none" xmlns="http://www.w3.org/2000/svg">
<g clip-path="url(#clip0_2677_4433)">
<path d="M17.3203 8.44716C12.4011 8.44716 8.43111 12.4172 8.43111 17.3364C8.43111 22.2556 12.4011 26.2256 17.3203 26.2256C22.2395 26.2256 26.2096 22.2556 26.2096 17.3364C26.2096 12.4172 22.2395 8.44716 17.3203 8.44716ZM17.3203 23.1138C14.1391 23.1138 11.543 20.5176 11.543 17.3364C11.543 14.1552 14.1391 11.559 17.3203 11.559C20.5016 11.559 23.0977 14.1552 23.0977 17.3364C23.0977 20.5176 20.5016 23.1138 17.3203 23.1138ZM26.5736 6.0114C25.4251 6.0114 24.4976 6.9389 24.4976 8.08743C24.4976 9.23597 25.4251 10.1635 26.5736 10.1635C27.7222 10.1635 28.6497 9.2403 28.6497 8.08743C28.65 7.81471 28.5966 7.54459 28.4923 7.29256C28.3881 7.04053 28.2352 6.81154 28.0424 6.61869C27.8495 6.42585 27.6205 6.27294 27.3685 6.16873C27.1165 6.06452 26.8464 6.01106 26.5736 6.0114ZM34.6481 17.3364C34.6481 14.944 34.6697 12.5732 34.5354 10.1851C34.401 7.41131 33.7682 4.94955 31.7399 2.92119C29.7072 0.888495 27.2498 0.260051 24.4759 0.125694C22.0835 -0.00866265 19.7128 0.0130079 17.3247 0.0130079C14.9323 0.0130079 12.5615 -0.00866265 10.1734 0.125694C7.39959 0.260051 4.93783 0.89283 2.90947 2.92119C0.876777 4.95388 0.248333 7.41131 0.113976 10.1851C-0.0203814 12.5776 0.00128915 14.9483 0.00128915 17.3364C0.00128915 19.7245 -0.0203814 22.0996 0.113976 24.4877C0.248333 27.2615 0.881111 29.7232 2.90947 31.7516C4.94216 33.7843 7.39959 34.4127 10.1734 34.5471C12.5658 34.6815 14.9366 34.6598 17.3247 34.6598C19.7171 34.6598 22.0879 34.6815 24.4759 34.5471C27.2498 34.4127 29.7115 33.78 31.7399 31.7516C33.7726 29.7189 34.401 27.2615 34.5354 24.4877C34.6741 22.0996 34.6481 19.7288 34.6481 17.3364ZM30.8341 27.5562C30.5177 28.345 30.1363 28.9344 29.5252 29.5412C28.9141 30.1523 28.329 30.5337 27.5401 30.8501C25.2604 31.7559 19.8471 31.5522 17.3203 31.5522C14.7936 31.5522 9.37594 31.7559 7.09621 30.8545C6.3074 30.5381 5.71796 30.1567 5.11119 29.5456C4.50008 28.9344 4.11868 28.3493 3.80229 27.5605C2.9008 25.2765 3.1045 19.8632 3.1045 17.3364C3.1045 14.8096 2.9008 9.392 3.80229 7.11226C4.11868 6.32345 4.50008 5.73402 5.11119 5.12724C5.7223 4.52047 6.3074 4.13474 7.09621 3.81835C9.37594 2.91685 14.7936 3.12056 17.3203 3.12056C19.8471 3.12056 25.2647 2.91685 27.5445 3.81835C28.3333 4.13474 28.9227 4.51614 29.5295 5.12724C30.1406 5.73835 30.522 6.32345 30.8384 7.11226C31.7399 9.392 31.5362 14.8096 31.5362 17.3364C31.5362 19.8632 31.7399 25.2765 30.8341 27.5562Z" fill="white"/>
</g>
<defs>
<clipPath id="clip0_2677_4433">
<rect width="35" height="35" fill="white"/>
</clipPath>
</defs>
</svg>
