<svg width="40" height="40" viewBox="0 0 40 40" fill="none" xmlns="http://www.w3.org/2000/svg">
<rect width="40" height="40" rx="20" fill="white"/>
<g clip-path="url(#clip0_1271_1902)">
<path d="M35.5556 16.1396C35.5556 12.1073 32.8472 10.4938 29.5062 10.4938C28.1053 10.4938 26.6673 10.7998 25.4652 11.3814C23.9088 10.3193 22.0784 9.68323 20 9.68323C17.9216 9.68323 16.0912 10.3193 14.5348 11.3814C13.3327 10.7998 11.8947 10.4938 10.4938 10.4938C7.15285 10.4938 4.44446 12.1073 4.44446 16.1396C4.44446 19.4616 6.28347 21.6852 8.79829 22.3671C8.76012 22.8302 8.74052 23.2946 8.73952 23.7593C8.73952 28.7103 12.6457 30.392 16.1552 30.9546C17.1041 31.6555 18.4721 32.0988 20 32.0988C21.5279 32.0988 22.8959 31.6555 23.8448 30.9555C27.3552 30.3929 31.2605 28.7111 31.2605 23.7601C31.2605 23.2952 31.2389 22.8311 31.2017 22.3679C33.7166 21.6852 35.5556 19.4616 35.5556 16.1396Z" fill="#ACACAC"/>
<path d="M12.7011 12.9603C12.4272 12.9305 12.1521 12.915 11.8766 12.9136C9.20365 12.9136 7.03711 14.2039 7.03711 17.4299C7.03711 19.2914 7.76131 20.7208 8.88476 21.5988C9.29353 18.3174 10.6175 15.1899 12.7011 12.9603ZM28.1235 12.9136C27.8496 12.9136 27.573 12.9318 27.2982 12.9603C29.3827 15.1899 30.7058 18.3174 31.1145 21.5997C32.2388 20.7208 32.963 19.2922 32.963 17.4299C32.963 14.2039 30.7965 12.9136 28.1235 12.9136Z" fill="#606060"/>
<path d="M23.2218 25.8826C23.2218 28.7733 21.7284 29.5062 20 29.5062C18.2716 29.5062 16.7792 28.7733 16.7792 25.8826C16.7792 22.9919 18.2716 20.6482 20 20.6482C21.7284 20.6482 23.2218 22.9919 23.2218 25.8826Z" fill="#292F33"/>
<path d="M15.247 22.9167C15.9629 22.9167 16.5433 22.3363 16.5433 21.6204C16.5433 20.9045 15.9629 20.3241 15.247 20.3241C14.5311 20.3241 13.9507 20.9045 13.9507 21.6204C13.9507 22.3363 14.5311 22.9167 15.247 22.9167Z" fill="#292F33"/>
<path d="M24.7531 22.9167C25.469 22.9167 26.0494 22.3363 26.0494 21.6204C26.0494 20.9045 25.469 20.3241 24.7531 20.3241C24.0372 20.3241 23.4568 20.9045 23.4568 21.6204C23.4568 22.3363 24.0372 22.9167 24.7531 22.9167Z" fill="#292F33"/>
</g>
<defs>
<clipPath id="clip0_1271_1902">
<rect width="31.1111" height="31.1111" fill="white" transform="translate(4.44446 4.44446)"/>
</clipPath>
</defs>
</svg>
