<svg width="102" height="115" viewBox="0 0 102 115" fill="none" xmlns="http://www.w3.org/2000/svg">
<g clip-path="url(#clip0_1732_3973)">
<g style="mix-blend-mode:multiply" opacity="0.329193">
<path d="M0 89.0869L56.1018 61.35L101.347 80.2711L58.2543 114.966L0 89.0869Z" fill="#3B596D"/>
</g>
<path d="M57.3315 48.8806L65.0215 51.2157L86.6685 92.0927L79.9094 89.0572L57.3315 48.8806Z" fill="#483B2C"/>
<path d="M86.6463 92.1112C88.2514 90.7282 89.9777 89.5117 91.5828 88.1287L69.4516 47.3647L63.4551 49.7422L86.6463 92.1112Z" fill="#544433"/>
<path d="M58.2549 115L63.7877 110.471L83.6752 21.5615L78.6976 24.8925L58.2549 115Z" fill="#604C3B"/>
<path d="M20.5641 1.94453C21.1698 1.94453 78.8167 24.7878 78.8167 24.7878L58.262 114.974L0.00927527 89.0741C0.00927527 89.0741 20.4784 0.830951 20.5641 1.94453Z" fill="#996C51"/>
<path d="M20.564 1.9465L28.389 3.19755e-05C28.495 -0.0302575 83.6577 21.5949 83.6577 21.5949L78.8408 24.8461L20.564 1.9465Z" fill="#7F6047"/>
<path d="M40.1765 24.6989C39.2306 24.718 38.3182 24.8133 37.4935 25.006C34.9919 25.5903 32.194 27.9432 29.9472 31.6605C29.0896 31.3493 28.1663 31.1041 27.3021 30.9667C20.9284 31.171 19.1207 36.6651 18.424 39.6948C17.7274 42.7245 18.7354 46.6993 20.3034 48.2388C21.8713 49.7783 25.372 50.2459 27.1389 49.3649C28.0267 48.9222 29.0362 48.1919 29.8652 47.4515C29.5788 48.8899 28.8379 51.0418 26.9943 53.7749C24.2366 57.3864 18.27 64.9961 16.7294 70.2365C15.7095 73.7058 15.8957 76.9576 18.0752 79.8432C18.7216 80.6989 19.4972 81.5475 20.3544 82.3243C20.3533 82.3281 20.3524 82.3315 20.3513 82.3352C20.3846 82.3629 20.4193 82.3903 20.4526 82.418C20.886 82.8047 21.3448 83.1622 21.8154 83.5008C21.9395 83.592 22.0677 83.6816 22.1975 83.7707C22.2931 83.8352 22.3868 83.9022 22.4836 83.9641C22.7632 84.1455 23.0593 84.3204 23.3754 84.4885C23.4448 84.5256 23.5152 84.5572 23.585 84.5929C23.805 84.7042 24.036 84.8115 24.278 84.9146C24.4332 84.981 24.5878 85.0499 24.7444 85.108C24.7854 85.1244 24.8277 85.1389 24.8697 85.1543C24.9977 85.1998 25.1262 85.2414 25.2548 85.2812C25.4056 85.3326 25.5487 85.3846 25.7089 85.4311C28.5616 86.265 31.1438 84.5065 33.423 85.3685C33.7216 85.4836 34.0144 85.6358 34.3 85.848C34.5579 86.0396 34.7416 86.2735 34.8832 86.5302C34.979 86.7047 35.0574 86.8888 35.116 87.084C35.1802 87.2968 35.2259 87.5201 35.2622 87.7483C35.4043 88.6482 35.3979 89.628 35.7649 90.3919C35.9195 90.7155 36.1405 90.9998 36.4687 91.2233C36.9342 91.5403 37.4917 91.7399 38.0905 91.8513C38.3114 91.8923 38.5383 91.9201 38.7689 91.9364C38.8451 91.9419 38.9208 91.9459 38.9978 91.9488C39.2115 91.9566 39.4274 91.9544 39.6444 91.9433C39.7394 91.9386 39.8331 91.9322 39.9282 91.924C40.1239 91.907 40.3186 91.8829 40.5129 91.8521C40.6362 91.8326 40.7569 91.8103 40.8788 91.7856C41.05 91.7509 41.2192 91.7117 41.3861 91.6672C41.51 91.6342 41.6305 91.5993 41.7512 91.5613C41.9151 91.5097 42.0752 91.4537 42.2315 91.3935C42.3418 91.3509 42.4483 91.3069 42.554 91.2604C42.7129 91.1906 42.8659 91.1165 43.0127 91.0384C43.0582 91.0142 43.1107 90.9946 43.1549 90.9696C43.6891 90.6676 44.2494 90.2711 44.7761 89.818C44.9238 89.6909 45.068 89.559 45.2084 89.4227C45.287 89.3464 45.3632 89.2705 45.4388 89.1915C45.5925 89.031 45.7388 88.8657 45.8766 88.6958C46.6918 87.6895 47.1962 86.5358 46.9221 85.4092L46.92 85.4051C46.7967 84.9004 45.5569 84.6621 45.5471 84.6603C45.5482 84.6568 45.6233 84.5087 45.7165 84.3029C45.775 84.1738 45.8375 84.0212 45.8983 83.8528C46.0026 83.5646 46.091 83.2576 46.1009 82.9734C46.1051 82.8753 46.1 82.7827 46.0831 82.6973C46.0713 82.639 46.056 82.5816 46.0321 82.5318C46.0109 82.4869 45.9845 82.4454 45.9524 82.4088C45.402 81.7825 44.2506 82.2887 43.4542 82.5357C42.7776 82.7454 41.6448 83.6458 41.6422 83.6478C41.6402 83.6431 41.5159 83.0119 41.4047 82.2534C42.3026 81.7223 43.8937 80.5278 44.7103 78.3259C45.5247 76.1298 45.5327 74.3581 45.6438 72.6513C46.4642 72.7474 47.2982 72.7609 48.0971 72.7256C51.1386 72.5909 54.997 69.446 56.744 70.1269C58.4909 70.8077 59.9179 70.5226 60.294 70.4687C60.4021 70.4532 60.39 70.3962 60.3467 70.3234C60.7958 70.3863 61.6156 70.4279 62.0358 70.1803C62.604 69.8456 62.7733 69.3692 62.7111 69.2831C62.6488 69.197 62.1395 69.322 61.6608 69.3187C61.4738 69.3174 61.2789 69.2838 61.0931 69.239C61.1247 69.2083 61.1265 69.1734 61.0613 69.1284C60.6144 68.8197 60.5532 68.7654 60.1912 68.6814C59.8973 68.6131 59.0898 68.4738 59.0969 68.3187C59.1039 68.1636 60.51 67.5331 60.8564 67.0696C60.935 66.9643 60.9398 66.9104 60.909 66.8646C60.9215 66.8573 60.9332 66.8508 60.9424 66.8445C61.2635 66.6365 62.0505 66.0122 62.2007 65.4763C62.3788 64.8414 62.2766 64.4411 62.1721 64.4222C62.0675 64.4032 61.6806 64.786 61.3329 65.1151C61.054 65.3792 60.6587 65.5699 60.3778 65.7068C60.3301 65.6288 60.2567 65.5817 60.1233 65.5947C59.551 65.6503 57.9569 66.01 57.9569 66.01C57.9569 66.01 59.1385 64.5192 59.3522 63.9774C59.4669 63.6865 59.4435 63.6086 59.3522 63.5536C59.394 63.5099 59.4267 63.4698 59.4442 63.4415C59.6567 63.1233 60.1326 62.2389 60.0583 61.6873C59.9705 61.0338 59.7179 60.7067 59.6144 60.7306C59.5109 60.7546 59.3076 61.259 59.1187 61.6989C58.956 62.0777 58.5946 62.4654 58.3978 62.6982C58.2726 62.5895 58.1513 62.5635 57.9554 62.692C57.2108 63.1803 55.8571 64.5498 55.8571 64.5498C55.8571 64.5498 56.1936 62.914 55.8966 62.3355C55.7693 62.0875 55.5545 61.976 55.3048 61.9371C55.2535 61.7109 55.2069 61.4409 55.2655 61.1668C55.3654 60.6986 55.8147 60.076 55.7441 59.9966C55.6735 59.9173 54.85 60.1043 54.5152 60.5125C54.2162 60.8771 54.1246 61.5809 54.0976 62.0184C53.9881 62.0453 53.9038 62.0969 53.8516 62.2171C53.7308 62.495 53.8167 63.1993 53.9027 63.6959C53.9607 64.0307 53.9465 65.0426 53.7781 65.1793C53.0262 65.7898 49.6504 65.4539 49.6504 65.4539C49.6504 65.4539 48.7279 62.1204 48.0269 60.4839C47.8836 60.1493 47.6829 59.7467 47.4647 59.3284C47.5741 58.3173 47.6875 57.2721 47.764 56.5154C48.9597 56.3865 50.1052 56.0972 51.1392 55.5703C53.275 54.4818 55.7202 51.1877 56.0883 48.9452C56.1913 48.318 56.154 46.8887 56.2113 45.3233C56.4518 45.2646 56.6936 45.2 56.9399 45.1229C58.5837 44.6091 60.9291 41.0473 60.9037 38.3176C60.8784 35.5879 60.445 30.889 54.6328 29.0427C53.2067 28.8501 52.1097 29.0915 51.3782 29.5509C50.6294 29.2159 49.8637 28.9159 49.3511 28.7287C47.2818 27.973 44.5953 27.9035 44.5953 27.9035C44.5953 27.9035 50.8552 27.9277 49.993 27.0109C49.008 25.9636 44.2764 24.6165 40.1775 24.6992L40.1765 24.6989Z" fill="#EAD37C" stroke="#F8FBFC" stroke-width="2.92158" stroke-linecap="round" stroke-linejoin="round"/>
<path d="M28.938 43.8752C28.7931 43.8431 28.6914 43.8794 28.6914 43.8794L29.4473 44.2911C29.2748 44.011 29.0845 43.9077 28.938 43.8752ZM29.4473 44.2911C29.7177 44.73 29.9399 45.6194 29.8878 47.347C29.6161 48.7846 28.8806 50.9785 26.9941 53.7751C24.2365 57.3866 18.2704 64.9963 16.7298 70.2366C15.7098 73.7059 15.8955 76.9573 18.075 79.8428C19.8848 82.239 22.677 84.6043 25.5783 85.3786C28.8236 86.2447 31.8143 84.0019 34.3001 85.8483C35.9963 87.1082 34.7222 90.0342 36.4687 91.2236C38.2365 92.4274 41.2933 92.0223 43.1552 90.9698C45.104 89.8682 47.4525 87.5835 46.921 85.4088C46.7973 84.9021 45.5449 84.6639 45.5449 84.6639C45.5449 84.6639 46.4572 82.9854 45.9539 82.4126C45.4035 81.7863 44.252 82.2925 43.4555 82.5394C42.7782 82.7494 41.6423 83.6523 41.6423 83.6523C41.6423 83.6523 41.5153 83.0143 41.4037 82.2532C42.3017 81.7221 43.8928 80.5273 44.7094 78.3254C45.8803 75.168 45.3791 72.8748 45.9238 70.4149C46.8862 66.0684 47.9734 54.3846 47.9734 54.3846L29.4473 44.2911Z" fill="#DDC461"/>
<path d="M39.0492 70.305C41.4142 71.0539 42.2716 74.3108 42.0996 76.6517C42.0134 77.8217 41.3174 79.0516 41.247 80.2976C41.1835 81.4205 41.6404 83.6484 41.6404 83.6484C41.6404 83.6484 42.7761 82.7454 43.4535 82.5354C44.2499 82.2885 45.4015 81.7824 45.9519 82.4087C46.4553 82.9815 45.5432 84.6593 45.5432 84.6593C45.5432 84.6593 46.7953 84.8982 46.9191 85.4049C47.4505 87.5796 45.1023 89.8636 43.1534 90.9653C41.2915 92.0178 38.2346 92.4235 36.4668 91.2197C34.7203 90.0303 35.9943 87.1043 34.298 85.8443C31.8123 83.9979 28.9329 86.3737 25.709 85.4313C23.1534 84.6842 21.7533 83.5009 20.3511 82.3351C22.9139 73.7944 27.5202 71.804 30.6656 70.869L30.7356 70.7241L30.7435 70.8419C30.7435 70.8419 35.2442 69.0997 39.0492 70.305Z" fill="#E1CB73"/>
<path d="M35.99 63.6608C36.9345 63.9282 37.2046 63.6914 37.6647 64.0306C39.8756 65.6608 40.0293 69.8216 41.7407 71.1927C43.4522 72.5638 45.9063 72.8225 48.0961 72.7255C51.1376 72.5909 54.9965 69.4459 56.7435 70.1267C58.4904 70.8076 59.9168 70.5223 60.2929 70.4684C60.6493 70.4173 59.8252 69.9959 60.1732 69.5884C60.3798 69.3465 61.368 69.3404 61.0608 69.1283C60.6138 68.8196 60.5523 68.7651 60.1904 68.6811C59.8964 68.6128 59.0885 68.4737 59.0956 68.3185C59.1027 68.1634 60.5091 67.5324 60.8554 67.0689C61.0809 66.7673 60.7222 66.8854 60.5491 66.4157C60.4087 66.0347 60.5265 65.5547 60.1224 65.594C59.5501 65.6496 57.9562 66.0099 57.9562 66.0099C57.9562 66.0099 59.1376 64.5192 59.3513 63.9774C59.565 63.4356 59.3166 63.6307 58.9964 63.3416C58.4518 62.85 58.3835 62.41 57.9546 62.6913C57.2099 63.1796 55.8564 64.5493 55.8564 64.5493C55.8564 64.5493 56.1925 62.9135 55.8955 62.335C55.6658 61.8875 55.1554 61.8768 54.6586 61.9552C54.2535 62.019 53.9713 61.9392 53.8506 62.2171C53.7298 62.4949 53.8154 63.1986 53.9014 63.6952C53.9594 64.0301 53.9456 65.042 53.7773 65.1787C53.0254 65.7891 49.6491 65.4532 49.6491 65.4532C49.6491 65.4532 48.7267 62.1199 48.0258 60.4834C47.3249 58.8469 45.4071 55.74 45.4071 55.74L37.4868 53.4922C37.4868 53.4922 34.8747 54.223 33.8543 57.723C32.6987 61.6866 35.0456 63.3935 35.99 63.6608Z" fill="#E1CB73"/>
<path d="M48.6172 40.1141C48.6651 41.0126 50.447 44.4343 52.127 45.1035C53.807 45.7727 55.2957 45.6365 56.9394 45.1225C58.5832 44.6087 60.9282 41.0468 60.9029 38.3171C60.8775 35.5873 60.4441 30.8892 54.6319 29.0429C52.2956 28.7274 50.8374 29.5715 50.4345 30.6421C50.1492 31.4001 51.0762 33.0217 50.7435 35.8088C50.4107 38.5959 48.5616 39.0679 48.6172 40.1141Z" fill="#EAD37C"/>
<path d="M49.3381 39.4938C49.3745 40.1761 50.7278 42.7747 52.0036 43.2829C53.2794 43.7911 54.41 43.6877 55.6583 43.2973C56.9067 42.9071 58.6876 40.2021 58.6683 38.129C58.6491 36.0559 58.32 32.488 53.9059 31.0858C52.1317 30.8462 51.0242 31.4873 50.7183 32.3003C50.5014 32.8759 51.2056 34.1075 50.9529 36.2242C50.7002 38.3408 49.2959 38.6992 49.3381 39.4938Z" fill="#C1A538"/>
<path d="M27.2816 37.6107C29.5587 30.4769 33.8428 25.8588 37.4941 25.006C41.8925 23.9786 48.7799 25.7219 49.9921 27.0109C50.8544 27.9277 44.5947 27.9034 44.5947 27.9034C44.5947 27.9034 47.281 27.9726 49.3503 28.7283C50.7092 29.2245 53.8494 30.5129 53.7271 31.1463C53.5908 31.8521 50.8847 31.6942 50.8847 31.6942C50.8847 31.6942 53.7929 32.2335 55.7487 34.9195C57.1436 36.8353 57.2897 39.3722 56.6762 41.5675C55.9866 44.0353 56.2749 47.8055 56.0879 48.9449C55.7197 51.1874 53.2745 54.4814 51.1387 55.5699C48.098 57.1194 44.1008 56.6481 40.6583 55.9204C38.4148 55.4461 36.1485 54.4592 34.4639 52.9385C32.3093 50.9939 30.0373 45.6066 30.0373 45.6066C30.0373 45.6066 25.742 42.4339 27.2816 37.6107Z" fill="#EAD27C"/>
<path d="M60.1802 70.2953C60.5559 70.3676 61.5558 70.4627 62.0353 70.1802C62.6034 69.8455 62.7726 69.3687 62.7103 69.2827C62.6481 69.1966 62.1387 69.3219 61.66 69.3186C61.087 69.3146 60.433 69.0105 60.2273 68.9926C59.8054 69.2582 59.6019 69.5449 59.5701 69.8358C59.5382 70.1266 60.0293 70.2719 60.1802 70.2953Z" fill="#C1A538"/>
<path d="M60.9415 66.8438C61.2625 66.6357 62.0497 66.0118 62.1999 65.4759C62.378 64.841 62.2758 64.4404 62.1713 64.4214C62.0667 64.4025 61.6801 64.7852 61.3324 65.1144C60.9163 65.5083 60.234 65.7418 60.0732 65.8715C59.9528 66.3552 59.9043 66.6589 60.1138 66.8915C60.3233 67.1241 60.8164 66.9314 60.9415 66.8438Z" fill="#C1A538"/>
<path d="M59.4428 63.4411C59.6553 63.123 60.1311 62.2383 60.0569 61.6868C59.969 61.0333 59.7166 60.7058 59.6131 60.7298C59.5096 60.7538 59.306 61.2583 59.1171 61.6982C58.891 62.2247 58.2721 62.7808 58.2606 62.892C58.2021 63.4604 58.4172 63.682 58.7017 63.8126C58.9862 63.9433 59.3626 63.5711 59.4428 63.4411Z" fill="#C1A538"/>
<path d="M54.087 62.22C54.0974 61.8375 54.1633 60.9393 54.514 60.5117C54.8488 60.1036 55.6722 59.917 55.7429 59.9963C55.8134 60.0757 55.3645 60.6982 55.2646 61.1664C55.1449 61.7267 55.4617 62.2725 55.3692 62.4548C55.1435 62.8993 54.785 63.0091 54.4773 62.9514C54.1696 62.8937 54.0774 62.3724 54.087 62.22Z" fill="#C1A538"/>
<path d="M41.6785 42.2169C41.6785 42.2169 43.7757 42.6011 44.6841 43.0646C45.5925 43.5279 47.0022 44.7135 46.9573 44.8505C46.9136 44.9879 44.8624 45.1914 42.4935 45.3826C41.1232 45.4932 38.4379 46.1314 38.4379 46.1314C38.4379 46.1314 40.8197 44.3774 42.289 44.1759C44.2115 43.9123 44.5626 44.3005 44.608 44.1899C44.6329 44.1288 41.6785 42.2169 41.6785 42.2169Z" fill="#A98E32"/>
<path d="M54.6637 39.0805C54.2573 38.9512 53.5892 39.0345 52.5496 39.8754C50.9569 41.1635 50.691 43.1349 50.9924 43.8526C51.2589 44.4872 53.4055 45.033 54.6603 43.2851C56.0432 41.3586 55.7198 40.4213 55.4798 40.0089L53.8481 41.2466L54.8315 39.1579C54.7673 39.1167 54.7507 39.1075 54.6637 39.0805Z" fill="#A98E32"/>
<path d="M46.327 52.3301C46.327 52.3301 48.6182 52.9764 50.739 52.0845C52.8597 51.1926 53.2196 49.3362 53.2196 49.3362" stroke="#A98E32" stroke-width="0.764239" stroke-linecap="round" stroke-linejoin="round"/>
<path d="M46.2062 51.4774C46.2062 51.4774 46.7016 52.4793 45.8018 53.1278" stroke="#A98E32" stroke-width="0.764239" stroke-linecap="round" stroke-linejoin="round"/>
<path d="M53.1484 48.6609C53.1416 48.6588 52.9333 49.1502 53.6607 49.7973" stroke="#A98E32" stroke-width="0.764239" stroke-linecap="round" stroke-linejoin="round"/>
<path d="M49.0633 44.078C48.634 44.179 47.6635 47.5529 47.5991 48.1151C47.5346 48.6773 47.8186 50.2547 48.7095 50.8334C49.6005 51.4122 50.6065 51.515 51.3711 51.1205C52.1358 50.7261 52.4427 49.9552 52.6025 49.3185C52.7624 48.6817 52.6949 48.1074 52.39 47.4908C52.0851 46.8742 49.4926 43.9771 49.0633 44.078Z" fill="#A98E32"/>
<path d="M31.5036 45.4943C31.1558 46.4613 28.9061 48.4841 27.1393 49.3652C25.3724 50.2462 21.8714 49.7784 20.3035 48.2389C18.7356 46.6994 17.7277 42.7243 18.4242 39.6945C19.1209 36.6648 20.9284 31.1712 27.3021 30.9669C29.9619 31.3897 33.1939 32.82 33.2828 34.1234C33.3458 35.0463 31.6979 36.678 31.1459 39.8362C30.594 42.9942 31.9083 44.3681 31.5036 45.4943Z" fill="#EAD37C"/>
<path d="M30.9896 43.9833C30.758 44.6276 29.2591 45.9752 28.082 46.5621C26.9049 47.1491 24.5724 46.8374 23.5278 45.8118C22.4832 44.7861 21.8118 42.1378 22.2758 40.1193C22.74 38.1009 23.9441 34.4409 28.1904 34.3048C29.9624 34.5864 32.1157 35.5394 32.1749 36.4077C32.2169 37.0226 31.1191 38.1096 30.7513 40.2137C30.3836 42.3177 31.2592 43.233 30.9896 43.9833Z" fill="#C1A538"/>
<path d="M20.5641 1.94453C21.1698 1.94453 78.8167 24.7878 78.8167 24.7878L58.262 114.974L0.00927527 89.0741C0.00927527 89.0741 20.4784 0.830951 20.5641 1.94453Z" fill="#08394D" fill-opacity="0.5"/>
<path fill-rule="evenodd" clip-rule="evenodd" d="M38.148 50.7869C36.6087 50.7869 35.361 52.0347 35.361 53.5739V56.3608V56.363C35.6371 56.3608 35.9351 56.3608 36.257 56.3608H40.0389C40.3608 56.3608 40.6589 56.3608 40.9349 56.363V56.3608V53.5739C40.9349 52.0347 39.6872 50.7869 38.148 50.7869ZM42.786 56.4754C42.7905 56.4379 42.7929 56.3996 42.7929 56.3608V53.5739C42.7929 51.0086 40.7133 48.929 38.148 48.929C35.5827 48.929 33.5031 51.0086 33.5031 53.5739V56.3608C33.5031 56.3996 33.5054 56.4379 33.5101 56.4754C33.211 56.526 32.9283 56.601 32.6545 56.7144C31.5164 57.1859 30.6121 58.0901 30.1407 59.2283C29.9446 59.7018 29.8632 60.2018 29.8246 60.7673C29.7871 61.3173 29.7871 61.993 29.7871 62.8308V62.8967C29.7871 63.7345 29.7871 64.4102 29.8246 64.9602C29.8632 65.5257 29.9446 66.0257 30.1407 66.4992C30.6121 67.6374 31.5164 68.5416 32.6545 69.0131C33.128 69.2092 33.6281 69.2906 34.1936 69.3291C34.7435 69.3667 35.4193 69.3667 36.257 69.3667H40.0389C40.8767 69.3667 41.5524 69.3667 42.1024 69.3291C42.6679 69.2906 43.1679 69.2092 43.6415 69.0131C44.7796 68.5416 45.6838 67.6374 46.1553 66.4992C46.3514 66.0257 46.4328 65.5257 46.4713 64.9602C46.5089 64.4102 46.5089 63.7345 46.5089 62.8967V62.8308C46.5089 61.993 46.5089 61.3173 46.4713 60.7673C46.4328 60.2018 46.3514 59.7018 46.1553 59.2283C45.6838 58.0901 44.7796 57.1859 43.6415 56.7144C43.3677 56.601 43.085 56.526 42.786 56.4754ZM34.3201 58.252C33.8491 58.2841 33.5749 58.3442 33.3655 58.431C32.6826 58.7138 32.1401 59.2564 31.8572 59.9392C31.7705 60.1486 31.7104 60.4228 31.6783 60.8937C31.6456 61.373 31.6451 61.9853 31.6451 62.8637C31.6451 63.7422 31.6456 64.3545 31.6783 64.8338C31.7104 65.3047 31.7705 65.5789 31.8572 65.7883C32.1401 66.4711 32.6826 67.0137 33.3655 67.2965C33.5749 67.3833 33.8491 67.4434 34.3201 67.4755C34.7993 67.5082 35.4116 67.5087 36.29 67.5087H40.006C40.8844 67.5087 41.4967 67.5082 41.976 67.4755C42.4469 67.4434 42.7211 67.3833 42.9305 67.2965C43.6133 67.0137 44.1559 66.4711 44.4387 65.7883C44.5255 65.5789 44.5856 65.3047 44.6177 64.8338C44.6504 64.3545 44.6509 63.7422 44.6509 62.8637C44.6509 61.9853 44.6504 61.373 44.6177 60.8937C44.5856 60.4228 44.5255 60.1486 44.4387 59.9392C44.1559 59.2564 43.6133 58.7138 42.9305 58.431C42.7211 58.3442 42.4469 58.2841 41.976 58.252C41.4967 58.2193 40.8844 58.2188 40.006 58.2188H36.29C35.4116 58.2188 34.7993 58.2193 34.3201 58.252ZM38.148 61.0058C38.6611 61.0058 39.077 61.4217 39.077 61.9348V63.7927C39.077 64.3058 38.6611 64.7217 38.148 64.7217C37.6349 64.7217 37.219 64.3058 37.219 63.7927V61.9348C37.219 61.4217 37.6349 61.0058 38.148 61.0058Z" fill="white"/>
</g>
<defs>
<clipPath id="clip0_1732_3973">
<rect width="102" height="115" fill="white"/>
</clipPath>
</defs>
</svg>
