<svg width="167" height="166" viewBox="0 0 167 166" fill="none" xmlns="http://www.w3.org/2000/svg">
<g id="Frame 172" clip-path="url(#clip0_1756_10089)">
<mask id="mask0_1756_10089" style="mask-type:alpha" maskUnits="userSpaceOnUse" x="0" y="0" width="167" height="166">
<circle id="Ellipse 96" cx="83.5" cy="83" r="83" fill="#D9D9D9"/>
</mask>
<g mask="url(#mask0_1756_10089)">
<circle id="Ellipse 97" cx="83.5" cy="83" r="77.4667" fill="#F8FBFC" stroke="#BE2C53" stroke-width="11.0667"/>
<g id="g45151">
<path id="path20427-4" d="M58.8575 122.045C58.8575 122.045 51.8317 138.685 52.5154 156.04C53.6201 161.573 58.5941 157.858 58.5941 157.858L101.207 162.68L133.3 137.227C133.3 137.227 141.688 153.527 135.515 137.226C129.343 120.926 118.076 110.473 118.076 110.473L58.8575 122.045Z" fill="#999D9C"/>
<path id="path6427" d="M101.629 191.97C116.34 189.658 125.463 169.959 122.007 147.971C118.551 125.983 103.824 110.032 89.1141 112.344C74.4038 114.657 65.2804 134.356 68.7364 156.344C72.1923 178.332 86.919 194.282 101.629 191.97Z" fill="#C6C6C6"/>
<g id="g45133">
<path id="path38950" d="M59.2684 67.592C59.2684 67.592 39.592 54.7941 27.6642 64.8323C15.7364 74.8706 17.5653 81.9766 19.6549 91.368C21.7445 100.759 29.695 104.022 37.6987 104.51C45.7023 104.998 52.6744 99.7989 52.6744 99.7989L59.2684 67.592Z" fill="#A0A4A3"/>
<path id="path38950-9" d="M57.0451 72.9225C57.0451 72.9225 43.1226 63.867 34.6828 70.9698C26.2431 78.0726 27.5372 83.1006 29.0157 89.7457C30.4943 96.3908 36.1198 98.6996 41.7829 99.0447C47.4461 99.3898 52.3793 95.7111 52.3793 95.7111L57.0451 72.9225Z" fill="#CECECE"/>
<path id="path38950-5" d="M103.275 60.6392C103.275 60.6392 118.654 44.1597 132.509 48.3173C146.363 52.4749 147.41 63.6652 148.272 71.1165C149.134 78.5677 142.598 86.2408 135.13 89.1603C127.662 92.0797 119.431 89.2703 119.431 89.2703L103.275 60.6392Z" fill="#A0A4A3"/>
<path id="path38950-9-7" d="M106.958 64.9873C106.958 64.9873 117.431 52.0975 127.643 56.2687C137.854 60.4399 138.165 65.6224 138.796 72.4007C139.428 79.179 134.782 83.1022 129.497 85.168C124.213 87.2337 118.389 85.2458 118.389 85.2458L106.958 64.9873Z" fill="#CECECE"/>
</g>
<path id="path34932" d="M51.6199 78.9316C55.2976 65.7166 65.6564 57.7219 78.7187 55.4875C91.7809 53.2529 106.478 58.3066 112.698 69.4855C118.918 80.6643 128.59 91.1126 124.511 102.821C120.432 114.53 104.386 124.425 90.0159 126.397C75.6455 128.368 57.3163 124.046 50.4263 114.318C43.5362 104.59 47.9423 92.1466 51.6199 78.9316Z" fill="#A0A4A3"/>
<path id="path40753" d="M84.6504 89.4639C84.6504 89.4639 78.6467 98.6663 79.2572 102.208C79.8677 105.749 84.0068 107.207 87.3124 106.635C90.618 106.062 93.9529 103.317 93.3643 99.7207C92.7756 96.1241 84.6504 89.4639 84.6504 89.4639Z" fill="#5B6565"/>
<g id="g45126">
<path id="path41533" d="M99.7903 90.4643C103.631 89.8606 106.344 86.8237 105.85 83.6812C105.357 80.5387 101.843 78.4805 98.0016 79.0842C94.1608 79.6879 91.4475 82.7248 91.9415 85.8674C92.4354 89.0099 95.9494 91.068 99.7903 90.4643Z" fill="#383F3F"/>
<path id="path2608-6" d="M65.7155 84.4459C65.7155 84.4459 69.9312 85.7023 71.7177 86.9376C73.5042 88.1729 76.2149 91.1752 76.1053 91.4862C75.9982 91.7982 71.7981 91.9174 66.953 91.9531C64.1506 91.9736 58.6025 92.9948 58.6025 92.9948C58.6025 92.9948 63.6814 89.3248 66.6974 89.1097C70.6436 88.8287 71.3065 89.7925 71.4136 89.5431C71.4736 89.4062 65.7155 84.4459 65.7155 84.4459Z" fill="#383F3F"/>
<path id="path18524-9-6-7-0" d="M102.194 84.8278C101.194 85.7906 99.5321 85.8018 98.4812 84.8526C97.4302 83.9035 97.3884 82.3536 98.3878 81.3907C99.3871 80.4279 101.049 80.4167 102.1 81.3658C103.151 82.315 103.193 83.8649 102.194 84.8278Z" fill="#C9D6D6"/>
</g>
<g id="g45122">
<path id="path43072" d="M100.865 105.359C100.776 105.344 100.686 105.351 100.6 105.379C100.515 105.407 100.436 105.455 100.368 105.521C88.9311 116.582 73.7637 109.69 73.7637 109.69C73.6784 109.651 73.5886 109.632 73.4994 109.635C73.4102 109.638 73.3234 109.661 73.2439 109.705C73.1644 109.749 73.0938 109.812 73.0361 109.89C72.9785 109.968 72.9348 110.06 72.9078 110.161C72.8806 110.261 72.8705 110.369 72.8781 110.477C72.8857 110.585 72.9108 110.691 72.9519 110.79C72.9931 110.888 73.0495 110.978 73.1179 111.052C73.1864 111.126 73.2655 111.185 73.3508 111.224C73.3508 111.224 89.2086 118.481 101.26 106.825C101.396 106.692 101.48 106.497 101.493 106.281C101.506 106.065 101.447 105.846 101.329 105.673C101.211 105.501 101.045 105.388 100.865 105.359Z" fill="#5B6565"/>
<path id="path13733-0-7-9" d="M74.3415 107.807C74.2608 107.808 74.182 107.828 74.1096 107.866C74.0372 107.904 73.9727 107.96 73.9197 108.029C73.9197 108.029 72.3006 110.007 72.6851 112.613C72.7141 112.808 72.8055 112.986 72.9392 113.107C73.0729 113.229 73.2379 113.284 73.3981 113.261C73.4778 113.25 73.5539 113.22 73.6221 113.173C73.6903 113.126 73.7492 113.062 73.7955 112.986C73.8418 112.909 73.8745 112.822 73.8919 112.728C73.9092 112.634 73.9107 112.536 73.8964 112.439C73.6471 110.745 74.8428 109.073 74.8428 109.073C74.9502 108.933 75.0047 108.745 74.9941 108.548C74.9835 108.352 74.9088 108.164 74.7865 108.025C74.7261 107.956 74.6557 107.901 74.5793 107.864C74.5029 107.827 74.4222 107.807 74.3415 107.807Z" fill="#5B6565"/>
<path id="path13733-0-6-8" d="M99.243 103.901C99.1662 103.926 99.0952 103.969 99.034 104.028C98.9728 104.087 98.9226 104.161 98.8863 104.245C98.8123 104.415 98.7989 104.616 98.8492 104.807C98.8994 104.997 99.0091 105.16 99.1542 105.26C99.1542 105.26 100.806 106.485 101.088 108.173C101.104 108.27 101.135 108.363 101.18 108.447C101.226 108.53 101.284 108.604 101.351 108.662C101.419 108.721 101.494 108.764 101.574 108.788C101.653 108.812 101.735 108.817 101.814 108.803C101.974 108.776 102.114 108.672 102.204 108.516C102.294 108.359 102.326 108.162 102.294 107.967C101.861 105.369 99.7127 103.983 99.7127 103.983C99.6409 103.933 99.5624 103.9 99.4818 103.886C99.4012 103.872 99.32 103.877 99.243 103.901Z" fill="#5B6565"/>
</g>
<path id="path44786" d="M69.0843 58.5003C69.0843 58.5003 74.5316 50.4303 78.4018 46.2373C82.272 42.0444 80.423 53.5893 80.423 53.5893C80.423 53.5893 91.2941 49.7895 87.6916 53.1663C84.089 56.5431 83.1879 58.0795 77.9472 59.126C72.7066 60.1725 69.0843 58.5003 69.0843 58.5003Z" fill="#A0A4A3"/>
</g>
<circle id="Ellipse 98" cx="83.5" cy="83" r="77.4667" stroke="#BE2C53" stroke-width="11.0667"/>
</g>
</g>
<defs>
<clipPath id="clip0_1756_10089">
<rect width="166" height="166" fill="white" transform="translate(0.5)"/>
</clipPath>
</defs>
</svg>
