<svg width="174" height="174" viewBox="0 0 174 174" fill="none" xmlns="http://www.w3.org/2000/svg">
<g filter="url(#filter0_d_1271_1484)">
<circle cx="87" cy="83" r="83" fill="#DAE1E4"/>
<circle cx="87" cy="83" r="79.5" stroke="white" stroke-width="7"/>
</g>
<path d="M140 69.8472C140 56.1084 130.772 50.6111 119.389 50.6111C114.616 50.6111 109.716 51.6535 105.621 53.6351C100.318 50.0164 94.0814 47.8492 87 47.8492C79.9186 47.8492 73.6823 50.0164 68.3793 53.6351C64.2836 51.6535 59.3841 50.6111 54.6111 50.6111C43.2279 50.6111 34 56.1084 34 69.8472C34 81.1656 40.2658 88.7417 48.8341 91.0649C48.7041 92.6427 48.6373 94.2251 48.6339 95.8084C48.6339 112.677 61.9428 118.407 73.9002 120.324C77.1332 122.712 81.7942 124.222 87 124.222C92.2058 124.222 96.8668 122.712 100.1 120.327C112.06 118.41 125.366 112.68 125.366 95.8113C125.366 94.2272 125.292 92.646 125.166 91.0678C133.734 88.7417 140 81.1656 140 69.8472Z" fill="#99AAB5"/>
<path d="M62.1311 59.0145C61.1982 58.9132 60.2606 58.8602 59.3221 58.8555C50.215 58.8555 42.8333 63.2516 42.8333 74.2432C42.8333 80.5855 45.3007 85.4556 49.1285 88.4472C50.5212 77.2671 55.0321 66.6112 62.1311 59.0145ZM114.678 58.8555C113.744 58.8555 112.802 58.9174 111.866 59.0145C118.968 66.6112 123.476 77.2671 124.868 88.4501C128.699 85.4556 131.167 80.5885 131.167 74.2432C131.167 63.2516 123.785 58.8555 114.678 58.8555Z" fill="#66757F"/>
<path d="M97.977 103.043C97.977 112.892 92.889 115.389 87.0001 115.389C81.1112 115.389 76.0261 112.892 76.0261 103.043C76.0261 93.1936 81.1112 85.2083 87.0001 85.2083C92.889 85.2083 97.977 93.1936 97.977 103.043Z" fill="#292F33"/>
<path d="M70.8056 92.9375C73.2448 92.9375 75.2222 90.9601 75.2222 88.5209C75.2222 86.0816 73.2448 84.1042 70.8056 84.1042C68.3663 84.1042 66.3889 86.0816 66.3889 88.5209C66.3889 90.9601 68.3663 92.9375 70.8056 92.9375Z" fill="#292F33"/>
<path d="M103.194 92.9375C105.634 92.9375 107.611 90.9601 107.611 88.5209C107.611 86.0816 105.634 84.1042 103.194 84.1042C100.755 84.1042 98.7778 86.0816 98.7778 88.5209C98.7778 90.9601 100.755 92.9375 103.194 92.9375Z" fill="#292F33"/>
<defs>
<filter id="filter0_d_1271_1484" x="0" y="0" width="174" height="174" filterUnits="userSpaceOnUse" color-interpolation-filters="sRGB">
<feFlood flood-opacity="0" result="BackgroundImageFix"/>
<feColorMatrix in="SourceAlpha" type="matrix" values="0 0 0 0 0 0 0 0 0 0 0 0 0 0 0 0 0 0 127 0" result="hardAlpha"/>
<feOffset dy="4"/>
<feGaussianBlur stdDeviation="2"/>
<feComposite in2="hardAlpha" operator="out"/>
<feColorMatrix type="matrix" values="0 0 0 0 0 0 0 0 0 0 0 0 0 0 0 0 0 0 0.25 0"/>
<feBlend mode="normal" in2="BackgroundImageFix" result="effect1_dropShadow_1271_1484"/>
<feBlend mode="normal" in="SourceGraphic" in2="effect1_dropShadow_1271_1484" result="shape"/>
</filter>
</defs>
</svg>
