<svg width="102" height="115" viewBox="0 0 102 115" fill="none" xmlns="http://www.w3.org/2000/svg">
<g clip-path="url(#clip0_1732_5697)">
<g style="mix-blend-mode:multiply" opacity="0.329193">
<path d="M-0.000488281 89.0869L56.1013 61.35L101.347 80.2711L58.2538 114.966L-0.000488281 89.0869Z" fill="#3B596D"/>
</g>
<path d="M57.3311 48.8806L65.021 51.2157L86.668 92.0927L79.9089 89.0572L57.3311 48.8806Z" fill="#483B2C"/>
<path d="M86.6458 92.1112C88.2509 90.7282 89.9772 89.5117 91.5823 88.1287L69.4511 47.3647L63.4546 49.7422L86.6458 92.1112Z" fill="#544433"/>
<path d="M58.2539 115L63.7867 110.471L83.6743 21.5615L78.6966 24.8925L58.2539 115Z" fill="#604C3B"/>
<path d="M20.5636 1.94453C21.1693 1.94453 78.8163 24.7879 78.8163 24.7879L58.2615 114.974L0.00878769 89.0741C0.00878769 89.0741 20.478 0.830951 20.5636 1.94453Z" fill="#996C51"/>
<path d="M20.5635 1.9465L28.3885 3.19126e-05C28.4945 -0.0302575 83.6572 21.5949 83.6572 21.5949L78.8403 24.8461L20.5635 1.9465Z" fill="#7F6047"/>
<path d="M49.2218 29.5219C45.9517 28.4612 42.8532 29.9055 42.8532 29.9055C42.8532 29.9055 40.8271 25.9592 35.7857 26.9958C30.7443 28.0324 30.9772 31.2649 30.9772 31.2649C30.9772 31.2649 28.8126 29.5176 26.4386 31.2934C24.0645 33.0693 24.25 35.4599 24.25 35.4599C24.25 35.4599 21.7787 35.645 20.3667 38.3778C18.9547 41.1107 22.0559 41.528 22.0559 41.528C22.0559 41.528 18.93 42.0695 19.6293 45.196C20.3285 48.3224 23.4935 49.2869 23.4935 49.2869C23.4935 49.2869 20.0919 51.188 21.5009 54.8196C22.4192 57.1863 24.1892 57.5141 25.3136 57.4569C23.7335 59.4365 22.0269 61.8515 21.1637 63.9841C19.3085 68.568 18.8031 80.516 18.8031 80.516C18.8031 80.516 15.8068 79.7963 15.2759 81.8165C14.7449 83.8366 18.0396 85.7865 20.0318 85.9988C22.024 86.211 23.2776 85.7985 24.3581 84.4634C24.5648 84.2081 24.7072 83.8759 24.8252 83.5144L25.6955 83.7952C25.4516 84.338 25.2909 84.8622 25.3102 85.3426C25.3792 87.0588 26.1382 88.1384 27.8627 89.1582C29.5873 90.1779 33.3943 90.5821 34.1752 88.6446C34.1924 88.6068 34.2048 88.569 34.2174 88.5311C35.5169 89.0022 37.3381 89.463 39.395 89.4968C41.0071 89.5234 42.2413 89.1856 43.2103 88.6452L43.2133 88.6607C43.2133 88.6607 54.5394 85.5941 56.4283 82.1259C58.3172 78.6578 55.1297 73.9317 56.0677 71.0531C56.9952 68.206 60.2159 66.0844 60.2868 66.038C61.2265 66.4146 62.0953 66.5715 63.2183 65.3673C64.3614 64.0231 63.7263 58.5835 62.7845 57.9704C61.8426 57.3573 57.7772 61.6235 57.7626 63.0909C57.7499 64.3549 58.424 65.1112 59.3394 65.6102C58.9375 65.8121 55.107 67.7895 54.1667 70.5566C53.1759 73.4734 55.7056 77.3033 53.8302 80.7666C52.6258 82.9909 48.659 84.6431 45.9698 85.5442C46.163 85.1458 46.3378 84.7491 46.4813 84.3703C47.3425 82.0975 47.6508 78.639 45.936 73.6905C44.9479 70.839 44.8235 66.4137 44.8895 63.1426C46.8852 62.1949 47.2234 59.8765 47.2234 59.8765C47.2234 59.8765 47.8832 61.3337 49.3628 60.6779C50.8423 60.0221 50.9953 58.1419 50.9953 58.1419C50.9953 58.1419 52.609 58.7316 54.2153 56.4346C55.8217 54.1374 54.4769 52.3075 54.4769 52.3075C54.4769 52.3075 56.9677 52.6998 57.5575 49.656C58.1474 46.6122 56.8231 45.8692 56.8231 45.8692C56.8231 45.8692 59.0316 42.0306 57.9152 39.0704C56.7987 36.1102 53.7444 35.3923 53.7444 35.3923C53.7444 35.3923 54.3562 32.2655 50.6312 30.1431C50.1656 29.8778 49.6949 29.6751 49.2278 29.5236L49.2218 29.5219Z" fill="#DD9831"/>
<path d="M37.5472 25.9747C36.9462 25.9628 36.3021 26.0182 35.6141 26.1597C32.9194 26.7138 31.4603 27.9293 30.7614 29.0751C30.5389 29.4397 30.4876 29.7424 30.3928 30.0646C30.1367 29.9408 30.16 29.876 29.8106 29.7864C28.7887 29.5243 27.3214 29.5666 25.9272 30.6095C23.7946 32.2048 23.5547 34.0017 23.5052 34.8241C22.6866 35.0002 20.8798 35.5264 19.6089 37.9861C19.1934 38.7904 19.0567 39.5453 19.2002 40.2046C19.3284 40.7935 19.6786 41.2234 20.0463 41.5339C19.1714 42.2096 18.3882 43.5601 18.7958 45.3828C19.3426 47.8275 20.8584 48.8673 21.9937 49.4512C21.7509 49.6815 21.5156 49.8625 21.2781 50.1897C20.4848 51.2831 19.898 53.0499 20.7045 55.1285C21.2257 56.4719 22.053 57.3364 22.9287 57.8015C23.2202 57.9564 23.504 58.015 23.7891 58.0941C22.4565 59.8555 21.1319 61.7861 20.3718 63.6638C19.3576 66.1699 18.7998 70.2967 18.4388 73.8842C18.1249 77.0027 18.0448 78.9698 18.0143 79.6174C17.6861 79.5795 17.6187 79.518 17.1625 79.5586C16.6697 79.6025 16.1207 79.7186 15.6065 80.0318C15.0924 80.345 14.6368 80.8913 14.4507 81.5992C14.2542 82.3468 14.4272 83.1005 14.7719 83.7115C15.1167 84.3225 15.6207 84.8308 16.1902 85.2646C17.3292 86.1322 18.721 86.7177 19.9416 86.8477C21.8004 87.0458 23.3055 86.6101 24.4803 85.5141C24.6035 87.3944 25.6178 88.8214 27.4287 89.8922C28.4853 90.517 29.9505 90.8785 31.3823 90.863C32.0982 90.8553 32.8058 90.7499 33.4473 90.4658C33.8938 90.2681 34.2724 89.9256 34.5845 89.5179C35.8915 89.9377 37.5004 90.3187 39.3813 90.3496C40.9419 90.3753 42.1928 90.0453 43.2403 89.538L43.4367 89.4849C43.4367 89.4849 46.305 88.7089 49.4238 87.4887C50.9832 86.8787 52.6083 86.1572 53.9969 85.3463C55.3856 84.5354 56.5593 83.6695 57.1776 82.5342C58.2964 80.48 57.8888 78.1925 57.4371 76.1814C56.9855 74.1703 56.5412 72.3549 56.8793 71.3172C57.6151 69.0588 60.1834 67.1851 60.5433 66.9276C60.938 67.0469 61.3164 67.2064 61.798 67.1413C62.4998 67.0464 63.1939 66.6456 63.8429 65.9496L63.8559 65.9353L63.8688 65.9195C64.3639 65.3373 64.5153 64.6234 64.6116 63.8344C64.7079 63.0455 64.7039 62.1728 64.6331 61.3235C64.5624 60.4741 64.4261 59.6539 64.2316 58.9645C64.0371 58.275 63.9317 57.6993 63.2493 57.2551C62.8243 56.9785 62.379 57.0387 62.0519 57.1375C61.7248 57.2364 61.4362 57.3961 61.137 57.5921C60.5386 57.9842 59.9129 58.5369 59.3129 59.1566C58.7129 59.7764 58.1472 60.4572 57.7111 61.1112C57.2749 61.7653 56.917 62.3248 56.9095 63.0816C56.8992 64.1108 57.3645 64.8648 57.9506 65.4836C57.4697 65.7592 57.1522 65.8926 56.4348 66.4444C55.2417 67.3619 53.9226 68.6227 53.3588 70.2818C52.7556 72.0574 53.2182 73.8707 53.4864 75.5878C53.7547 77.3048 53.8776 78.8857 53.0792 80.3602C52.6217 81.2051 51.458 82.1353 50.0491 82.9013C49.2114 83.3567 48.3424 83.6441 47.4621 83.9911C48.2186 81.5326 48.3637 78.0901 46.7422 73.4109C45.8686 70.8896 45.7059 66.7359 45.7527 63.5405C46.7336 62.8892 47.3137 62.1125 47.6284 61.3694C48.1819 61.6482 48.9095 61.8127 49.7092 61.4583C51.1307 60.8281 51.5018 59.7117 51.6609 58.9674C51.8925 58.9767 51.9035 59.0489 52.1944 58.9817C53.0082 58.7935 54.015 58.2105 54.9147 56.9238C55.843 55.5964 55.9569 54.2862 55.7881 53.3574C55.7505 53.151 55.7066 53.1848 55.649 53.0118C55.8134 52.9732 55.9413 52.9853 56.1165 52.9143C57.0408 52.5395 58.0562 51.5671 58.3951 49.8182C58.7152 48.1665 58.531 47.0208 58.1886 46.2676C58.0729 46.013 57.9405 45.8696 57.8115 45.7055C57.9963 45.3561 58.2668 44.9163 58.6031 43.8326C59.0451 42.4081 59.3803 40.537 58.7135 38.769C57.6617 35.9802 55.5013 35.1437 54.6236 34.8585C54.6222 34.4561 54.5818 33.9194 54.4028 33.3198C54.035 32.088 53.0895 30.5624 51.0529 29.402C50.5347 29.1067 50.0108 28.8807 49.4912 28.7122L49.4854 28.7093C49.4832 28.7086 49.4817 28.7085 49.4795 28.7078C46.4621 27.7315 44.0873 28.5637 43.2157 28.91C42.9125 28.4828 42.4581 27.9342 41.7228 27.3799C40.7547 26.65 39.3501 26.0104 37.5472 25.9747ZM35.9568 27.8318C38.2461 27.3611 39.7137 28.003 40.6963 28.7438C41.6789 29.4846 42.093 30.2954 42.093 30.2954L42.4688 31.0268L43.213 30.6797C43.213 30.6797 46.0545 29.3924 48.9577 30.3342L48.9651 30.3356L48.9666 30.3371C49.3808 30.4716 49.7959 30.6498 50.2084 30.8849C51.8968 31.8469 52.5092 32.9452 52.7667 33.8074C53.0242 34.6697 52.9073 35.2286 52.9073 35.2286L52.7495 36.0345L53.5497 36.2238C53.5497 36.2238 56.165 36.8496 57.1161 39.3715C57.5658 40.5637 57.3559 42.0917 56.9727 43.3265C56.5896 44.5614 56.0836 45.4431 56.0836 45.4431L55.6534 46.1917L56.4049 46.6133C56.4049 46.6133 56.3616 46.5791 56.4122 46.6305C56.4626 46.6819 56.5483 46.7851 56.6345 46.9747C56.8068 47.3539 56.9888 48.1022 56.7191 49.4942C56.4682 50.7891 55.9443 51.1427 55.4758 51.3327C55.0074 51.5226 54.6096 51.4646 54.6096 51.4646L52.5619 51.1419L53.7894 52.8126C53.7894 52.8126 54.0072 53.101 54.1091 53.6615C54.211 54.222 54.1936 54.9763 53.5155 55.9459C52.8089 56.9564 52.2049 57.2271 51.8104 57.3183C51.4158 57.4095 51.2884 57.3398 51.2884 57.3398L50.2358 56.9555L50.144 58.0726C50.144 58.0726 49.9638 59.4784 49.0169 59.8981C48.5342 60.1121 48.4468 59.9987 48.2741 59.8594C48.1014 59.7201 48.0016 59.5239 48.0016 59.5239L46.7999 56.8709L46.3783 59.7533C46.3783 59.7533 46.0663 61.6394 44.5241 62.3719L44.0466 62.5984L44.0365 63.1247C43.9698 66.4329 44.059 70.8816 45.1292 73.9703C46.7934 78.7727 46.4663 81.9996 45.6828 84.0672C45.5507 84.4159 45.3867 84.7913 45.2024 85.1715L44.3161 86.9984L46.2406 86.3531C47.6143 85.8928 49.316 85.2429 50.8639 84.4014C52.4118 83.5599 53.8341 82.5528 54.5809 81.1734C55.6578 79.1846 55.4532 77.1183 55.1732 75.3254C54.8931 73.5325 54.5876 71.9724 54.9753 70.8312C55.1881 70.2049 55.6394 69.5942 56.167 69.02C55.8166 69.5721 55.4687 70.1363 55.2563 70.7882C54.6565 72.6291 55.3372 74.6172 55.7726 76.5558C56.208 78.4944 56.4495 80.3044 55.6794 81.7183C55.3533 82.3171 54.4031 83.1342 53.1369 83.8737C51.8706 84.6131 50.3101 85.3084 48.8018 85.8985C46.2423 86.8999 44.5386 87.3551 43.8702 87.5433L43.8286 87.3225L42.7947 87.9004C41.9629 88.3644 40.8947 88.6677 39.4089 88.6432C37.4712 88.6113 35.7359 88.1731 34.5089 87.7283L33.6829 87.43L33.4075 88.2632C33.3949 88.3013 33.3908 88.3065 33.3975 88.2919L33.3901 88.3091L33.3828 88.3249C33.2813 88.5767 33.1019 88.7525 32.7561 88.9057C32.4103 89.0588 31.9127 89.1507 31.3637 89.1566C30.2656 89.1685 28.9642 88.8188 28.2963 88.4239C26.7045 87.4826 26.222 86.7872 26.1624 85.3077C26.1518 85.0421 26.2564 84.6279 26.4736 84.1447L26.8651 83.2757L24.2782 82.4411L24.0143 83.2499C23.9112 83.5654 23.794 83.8038 23.6945 83.9267C22.763 85.0777 21.9611 85.3459 20.1223 85.15C19.3507 85.0678 18.0977 84.5721 17.2241 83.9067C16.7873 83.5739 16.4435 83.2021 16.2576 82.8727C16.0718 82.5433 16.0323 82.2963 16.1013 82.0338C16.1807 81.7317 16.2972 81.6103 16.4942 81.4903C16.6912 81.3703 16.9918 81.2882 17.3145 81.2594C17.9598 81.202 18.6037 81.3455 18.6037 81.3455L19.6118 81.5878L19.6562 80.5525C19.6562 80.5525 19.7812 77.5874 20.1366 74.0549C20.4921 70.5223 21.114 66.3828 21.955 64.3049C22.7555 62.3273 24.4244 59.9388 25.9803 57.9895L27.1619 56.5081L25.2705 56.6042C24.8136 56.6274 24.2503 56.5692 23.7303 56.293C23.2104 56.0168 22.6933 55.5338 22.2963 54.5105C21.6937 52.9575 22.1039 51.9573 22.6591 51.1922C23.2143 50.4271 23.9096 50.0321 23.9096 50.0321L25.6591 49.054L23.7418 48.4704C23.7418 48.4704 21.0498 47.6377 20.4622 45.0101C20.174 43.7215 20.5916 43.2515 21.096 42.8691C21.6004 42.4867 22.2016 42.3686 22.2016 42.3686L22.17 40.6822C22.17 40.6822 21.5589 40.5668 21.192 40.2936C21.0086 40.157 20.9102 40.0294 20.8694 39.8418C20.8286 39.6543 20.8342 39.3313 21.1246 38.7692C22.3575 36.3832 24.3139 36.3113 24.3139 36.3113L25.1672 36.2467L25.1012 35.3935C25.1012 35.3935 24.8869 33.5193 26.9497 31.9762C27.9296 31.2432 28.7322 31.2722 29.3861 31.4399C30.04 31.6075 30.4401 31.9289 30.4401 31.9289L31.9688 33.1636L31.8283 31.2033C31.8283 31.2033 31.7747 30.6924 32.2198 29.9628C32.6648 29.2332 33.6101 28.3143 35.9568 27.8318ZM62.3802 58.857C62.3795 58.9076 62.4698 59.0081 62.5882 59.4277C62.7419 59.9726 62.8694 60.7103 62.9323 61.4655C62.9953 62.2207 62.9947 62.9984 62.918 63.6265C62.8423 64.2471 62.6508 64.7018 62.5724 64.7996C62.1155 65.2813 61.8117 65.4163 61.5686 65.4492C61.3203 65.4827 61.0271 65.4153 60.6035 65.2456L60.1905 65.0807L60.1718 65.0921L59.7474 64.8612C58.9956 64.4515 58.6064 64.0561 58.6159 63.0988C58.6157 63.1219 58.7711 62.5985 59.1308 62.0591C59.4904 61.5198 60.003 60.8976 60.5389 60.344C61.0749 59.7905 61.6427 59.3002 62.072 59.019C62.2119 58.9273 62.2881 58.8995 62.3802 58.857Z" fill="#F8FBFC"/>
<path d="M23.4191 83.0606L32.5074 85.9953L38.399 81.1628L32.9898 66.4229L21.2265 73.9106L23.4191 83.0606Z" fill="#DDC461"/>
<path d="M59.4748 65.5314C59.4748 65.5314 55.1515 67.6382 54.1604 70.555C53.1693 73.4717 55.6992 77.3017 53.8238 80.765C51.9485 84.2283 43.3587 86.3168 43.3587 86.3168L43.2068 88.6594C43.2068 88.6594 54.5331 85.5925 56.422 82.1243C58.3109 78.6562 55.1235 73.9301 56.0614 71.0515C56.9992 68.173 60.3038 66.0199 60.3038 66.0199L59.4748 65.5314Z" fill="#D9BE52"/>
<path d="M45.0803 58.9365C45.0803 58.9365 44.2153 68.7405 45.93 73.6891C47.6448 78.6377 47.3364 82.0963 46.4751 84.3691C45.6139 86.642 44.0592 89.5734 39.3929 89.4966C34.7266 89.4197 31.1012 87.1465 32.6367 87.5369C32.6367 87.5369 31.3891 83.8012 31.2951 81.7967C31.2011 79.7921 33.2375 74.8648 33.2375 74.8648C32.0974 75.2172 27.7708 74.1564 26.3206 73.2337L28.7495 53.5232L45.0803 58.9365Z" fill="#DDC461"/>
<path d="M28.7778 53.4836C28.7778 53.4836 23.0188 59.4006 21.1634 63.9845C19.308 68.5683 18.803 80.5166 18.803 80.5166C18.803 80.5166 15.8063 79.7961 15.2753 81.8162C14.7444 83.8364 18.0392 85.7866 20.0314 85.9989C22.0236 86.2111 23.2775 85.7989 24.358 84.4638C25.4385 83.1287 25.0892 80.0619 25.5978 78.1807C26.1063 76.2995 27.1257 73.6432 27.1257 73.6432L28.7778 53.4836Z" fill="#E1CB73"/>
<path d="M40.2703 57.8568C40.2703 57.8568 41.3547 66.0423 40.1046 70.8268C38.8546 75.6113 32.1225 85.4954 32.1225 85.4954C32.1225 85.4954 34.9562 86.7076 34.1754 88.6449C33.3945 90.5822 29.5871 90.1782 27.8626 89.1584C26.1381 88.1387 25.3787 87.059 25.3096 85.3429C25.2406 83.6267 27.3526 81.3758 28.0684 79.5633C28.7842 77.7508 29.7689 74.5371 29.7689 74.5371L40.2703 57.8568Z" fill="#E1CB73"/>
<path d="M42.8532 29.9057C42.8532 29.9057 46.8996 28.0189 50.6247 30.1414C54.3499 32.2638 53.7385 35.3906 53.7385 35.3906C53.7385 35.3906 56.7922 36.1088 57.9087 39.069C59.0251 42.0293 56.8171 45.868 56.8171 45.868C56.8171 45.868 58.1414 46.611 57.5516 49.6548C56.9617 52.6986 54.4707 52.3062 54.4707 52.3062C54.4707 52.3062 55.8152 54.1361 54.2088 56.4332C52.6025 58.7304 50.9889 58.1405 50.9889 58.1405C50.9889 58.1405 50.8361 60.0204 49.3566 60.6763C47.877 61.3321 47.217 59.8753 47.217 59.8753C47.217 59.8753 46.7988 62.7932 44.089 63.4221C41.3791 64.0511 40.0737 62.2752 40.0737 62.2752C40.0737 62.2752 39.6172 63.8738 37.7898 63.4107C35.9624 62.9477 36.2793 61.8549 36.2793 61.8549C36.2793 61.8549 35.648 64.5612 32.9715 63.5097C30.2951 62.4583 30.7301 60.3874 30.7301 60.3874C30.7301 60.3874 29.548 61.4206 27.6722 60.2282C25.7963 59.0357 26.3335 57.2877 26.3335 57.2877C26.3335 57.2877 22.9095 58.4513 21.5004 54.8197C20.0913 51.1882 23.4936 49.2869 23.4936 49.2869C23.4936 49.2869 20.3283 48.3224 19.6291 45.1959C18.9298 42.0694 22.056 41.5281 22.056 41.5281C22.056 41.5281 18.9544 41.111 20.3664 38.3781C21.7784 35.6453 24.2494 35.4603 24.2494 35.4603C24.2494 35.4603 24.0644 33.0696 26.4385 31.2937C28.8126 29.5178 30.9766 31.2654 30.9766 31.2654C30.9766 31.2654 30.7436 28.0328 35.785 26.9962C40.8264 25.9596 42.8532 29.9057 42.8532 29.9057Z" fill="#9E862E"/>
<path d="M40.6934 36.626C42.3913 37.1451 44.5995 36.7976 46.3153 38.042C48.031 39.2863 49.2803 40.6717 49.713 43.3587C50.1456 46.0457 48.6015 51.957 46.7521 54.5797C44.9027 57.2024 38.3332 59.8288 34.4669 58.3919C30.6006 56.9551 27.6539 52.7529 26.9054 49.5869C26.157 46.4208 28.6197 40.5492 29.7036 38.817C30.7876 37.0848 33.6141 35.083 35.8667 35.0661C38.1193 35.0493 38.9955 36.1069 40.6934 36.626Z" fill="#E1CB73"/>
<path d="M32.184 34.1648C31.9894 32.5767 29.0497 30.398 26.9931 32.4045C24.9365 34.4109 25.7757 37.6537 27.6128 38.12C29.4499 38.5863 32.3787 35.7528 32.184 34.1648Z" fill="#E1CB73"/>
<path d="M31.6886 35.0501C31.5558 33.9668 29.5505 32.4806 28.1476 33.8493C26.7448 35.218 27.3172 37.43 28.5704 37.7481C29.8235 38.0661 31.8214 36.1333 31.6886 35.0501Z" fill="#BD9F37"/>
<path d="M50.0097 39.5958C50.8559 38.2379 54.4402 37.5022 55.4588 40.1888C56.4774 42.8754 54.349 45.4618 52.4866 45.1099C50.6242 44.7579 49.1635 40.9537 50.0097 39.5958Z" fill="#E1CB73"/>
<path d="M50.0763 40.5601C50.6499 39.6247 53.0552 39.1026 53.7247 40.9403C54.3941 42.7779 52.9554 44.5622 51.7092 44.3299C50.4629 44.0976 49.5027 41.4955 50.0763 40.5601Z" fill="#BD9F37"/>
<path d="M34.4231 43.5527C34.1008 43.5378 33.7764 43.6017 33.481 43.738C33.1857 43.8744 32.9293 44.0787 32.7367 44.3313C32.5893 44.5248 32.4826 44.7421 32.4227 44.9708C32.3628 45.1996 32.3508 45.4354 32.3874 45.6647C32.424 45.894 32.5085 46.1124 32.6361 46.3073C32.7637 46.5022 32.9319 46.6699 33.131 46.8007C33.5331 47.0649 34.0367 47.1631 34.5312 47.0738C35.0258 46.9845 35.4707 46.715 35.7682 46.3246C35.9156 46.1312 36.0223 45.9139 36.0822 45.6852C36.1421 45.4564 36.1541 45.2206 36.1175 44.9913C36.0809 44.762 35.9964 44.5436 35.8688 44.3487C35.7412 44.1538 35.573 43.9861 35.3738 43.8552C35.2009 43.7418 35.0074 43.6579 34.8017 43.6072C34.6783 43.5768 34.5515 43.5585 34.4231 43.5527ZM34.9924 44.426C35.1074 44.4281 35.2179 44.4615 35.3108 44.5221C35.3742 44.5638 35.4278 44.6173 35.4685 44.6795C35.5091 44.7416 35.536 44.8113 35.5476 44.8844C35.5591 44.9575 35.5552 45.0327 35.536 45.1056C35.5168 45.1785 35.4826 45.2478 35.4355 45.3093C35.3886 45.371 35.3297 45.4238 35.2621 45.4648C35.1945 45.5058 35.1195 45.5342 35.0414 45.5483C34.9634 45.5625 34.8838 45.562 34.8072 45.5471C34.7307 45.5322 34.6586 45.503 34.5952 45.4613C34.5317 45.4196 34.4781 45.3661 34.4375 45.304C34.3969 45.2418 34.37 45.1721 34.3584 45.099C34.3468 45.0259 34.3507 44.9507 34.37 44.8778C34.3892 44.8049 34.4233 44.7356 34.4704 44.6741C34.5303 44.5957 34.6095 44.5319 34.7006 44.4886C34.7918 44.4452 34.8922 44.4237 34.9924 44.426ZM42.1683 45.8256C41.6876 45.8398 41.2459 46.0473 40.9401 46.4025C40.6344 46.7577 40.4897 47.2316 40.5378 47.7199C40.5861 48.2084 40.8233 48.6714 41.1974 49.007C41.5714 49.3426 42.0517 49.5234 42.5325 49.5096C43.0135 49.4958 43.4556 49.2885 43.7617 48.9332C44.0677 48.5779 44.2126 48.1039 44.1645 47.6153C44.1246 47.2133 43.9565 46.8261 43.6857 46.5129C43.4148 46.1996 43.0562 45.9774 42.6645 45.8801C42.5007 45.8392 42.3337 45.8209 42.1683 45.8256ZM42.9928 46.785C43.0687 46.7828 43.1454 46.7959 43.2184 46.8234C43.2914 46.8509 43.3593 46.8923 43.4183 46.9453C43.4773 46.9984 43.5262 47.0619 43.5622 47.1323C43.5982 47.2027 43.6206 47.2786 43.6281 47.3557C43.6432 47.511 43.597 47.6616 43.4997 47.7745C43.4023 47.8874 43.2619 47.9534 43.109 47.958C43.0331 47.9604 42.9565 47.9475 42.8834 47.9202C42.8103 47.8928 42.7422 47.8516 42.6831 47.7987C42.624 47.7458 42.5749 47.6824 42.5387 47.612C42.5026 47.5417 42.48 47.4658 42.4723 47.3887C42.4646 47.3115 42.4721 47.2347 42.4941 47.1626C42.5161 47.0905 42.5523 47.0245 42.6007 46.9684C42.649 46.9123 42.7086 46.8673 42.7759 46.8358C42.8431 46.8043 42.9169 46.787 42.9928 46.785Z" fill="#9E862E"/>
<path d="M43.4945 43.7684C43.1691 43.6383 42.7883 43.5736 42.357 43.6353C42.2959 43.644 42.2407 43.6767 42.2037 43.726C42.1666 43.7754 42.1506 43.8374 42.1592 43.8986C42.168 43.9597 42.2006 44.0148 42.25 44.0519C42.2994 44.089 42.3614 44.1049 42.4225 44.0963C43.1217 43.9964 43.6243 44.2944 43.978 44.6314C44.3317 44.9683 44.5063 45.3281 44.5063 45.3281C44.5333 45.3836 44.5812 45.4261 44.6395 45.4463C44.6977 45.4665 44.7616 45.4628 44.8172 45.436C44.8727 45.4092 44.9154 45.3615 44.9358 45.3032C44.9562 45.245 44.9527 45.1811 44.9261 45.1255C44.9261 45.1255 44.718 44.693 44.299 44.2938C44.0895 44.0942 43.8199 43.8986 43.4945 43.7684Z" fill="#9E862E"/>
<path d="M35.249 41.3554C34.9012 41.3123 34.5704 41.3526 34.2906 41.4263C33.7309 41.5736 33.3405 41.8526 33.3405 41.8526C33.2902 41.8884 33.2562 41.9427 33.2459 42.0036C33.2356 42.0645 33.2499 42.1269 33.2856 42.1773C33.3214 42.2276 33.3757 42.2616 33.4366 42.2719C33.4975 42.2822 33.56 42.2679 33.6103 42.2322C33.6103 42.2322 33.9374 42.0025 34.4098 41.8782C34.8822 41.7539 35.4658 41.7359 36.0299 42.1609C36.0793 42.1978 36.1414 42.2135 36.2024 42.2047C36.2635 42.1959 36.3186 42.1633 36.3556 42.1139C36.374 42.0895 36.3875 42.0617 36.3952 42.032C36.4029 42.0024 36.4046 41.9715 36.4004 41.9412C36.3962 41.9109 36.386 41.8817 36.3705 41.8553C36.3549 41.8289 36.3344 41.8059 36.31 41.7874C35.962 41.5252 35.5969 41.3985 35.249 41.3554Z" fill="#9E862E"/>
<path d="M35.1585 57.585C38.1938 58.4455 41.2604 57.0055 42.008 54.3687C42.7555 51.7318 40.9009 48.8967 37.8656 48.0361C34.8302 47.1756 31.7636 48.6156 31.0161 51.2524C30.2685 53.8893 32.1231 56.7244 35.1585 57.585Z" fill="#F2E2AE"/>
<path d="M36.8044 51.6564C37.3843 52.2839 38.235 53.3118 39.7256 53.5841C39.7256 53.5841 38.2306 56.8336 35.5788 56.0534C32.927 55.2732 33.6109 51.8357 33.6109 51.8357C34.6883 52.087 35.243 52.2257 36.8044 51.6564Z" fill="#877324"/>
<path d="M33.8866 54.4486C33.8866 54.4486 35.0148 52.805 36.3784 53.1367C37.7419 53.4683 38.0247 55.5927 38.0247 55.5927C35.9733 56.4286 34.8466 56.0328 33.8866 54.4486Z" fill="#C1A538"/>
<path d="M37.7822 52.8582C37.7822 52.8582 37.7716 54.1944 37.9848 54.257C38.1979 54.3195 38.8759 53.1681 38.8759 53.1681L37.7822 52.8582Z" fill="#F2E2AE"/>
<path d="M34.4985 51.8687C34.4985 51.8687 34.4879 53.2049 34.7011 53.2675C34.9142 53.33 35.5922 52.1786 35.5922 52.1786L34.4985 51.8687Z" fill="#F2E2AE"/>
<path d="M36.8691 51.3847L36.7246 51.438C35.1913 51.9971 34.7416 51.8603 33.663 51.6086L33.4294 51.5538L33.3818 51.7902C33.3818 51.7902 33.2021 52.6843 33.3708 53.6903C33.5395 54.6963 34.0926 55.8593 35.5127 56.277C36.934 56.6952 38.0742 56.0242 38.8126 55.2758C39.5509 54.5274 39.9368 53.6817 39.9368 53.6817L40.0631 53.4087L39.7669 53.3551C38.3628 53.0986 37.5645 52.1353 36.9757 51.4981L36.8691 51.3847ZM36.7282 51.9092C37.2547 52.485 38.0868 53.3152 39.3801 53.6738C39.3 53.8357 39.066 54.3537 38.4802 54.9475C37.8081 55.6288 36.8741 56.1923 35.6437 55.8303C34.4119 55.4679 33.982 54.5209 33.8297 53.613C33.6971 52.8223 33.8089 52.279 33.8383 52.1045C34.7091 52.2983 35.4216 52.3582 36.7282 51.9092Z" fill="#9E862E"/>
<path d="M41.4025 51.9861C41.3869 51.9805 41.3706 51.9767 41.3541 51.9747C41.3251 51.971 41.2956 51.9731 41.2673 51.9808C41.2391 51.9885 41.2126 52.0017 41.1895 52.0197C41.1664 52.0376 41.147 52.0599 41.1325 52.0854C41.118 52.1108 41.1087 52.1389 41.105 52.1679C41.105 52.1679 41.0621 52.4918 40.8445 52.7817C40.6268 53.0716 40.2695 53.3344 39.4954 53.2057C37.9302 52.9455 37.0318 51.5344 37.0318 51.5344C37.0111 51.5019 36.9823 51.4753 36.9482 51.4572C36.9141 51.4392 36.8759 51.4303 36.8374 51.4314C36.836 51.4314 36.8346 51.4315 36.8333 51.4315C36.8222 51.432 36.8113 51.4333 36.8005 51.4354C36.7914 51.437 36.7825 51.439 36.7737 51.4417C36.7708 51.4427 36.7678 51.4439 36.7649 51.4451C36.7559 51.4477 36.7472 51.4509 36.7387 51.4547C36.7387 51.4547 35.2326 52.1841 33.7636 51.5841C33.0372 51.2874 32.8718 50.8764 32.8387 50.5154C32.8056 50.1544 32.9379 49.8559 32.9379 49.8559C32.9625 49.8023 32.9648 49.741 32.9443 49.6857C32.9238 49.6303 32.8821 49.5854 32.8285 49.5607C32.8018 49.5486 32.7731 49.5418 32.7438 49.5408C32.7145 49.5398 32.6854 49.5445 32.6579 49.5548C32.6305 49.5651 32.6054 49.5807 32.584 49.6007C32.5626 49.6207 32.5454 49.6447 32.5333 49.6713C32.5333 49.6713 32.3504 50.0648 32.3954 50.5561C32.4405 51.0475 32.7468 51.649 33.5958 51.9958C34.9555 52.5512 36.2984 52.116 36.7633 51.9289C37.0634 52.3348 37.9774 53.4057 39.4226 53.646C40.3273 53.7964 40.904 53.444 41.2003 53.0494C41.4965 52.6548 41.5473 52.2239 41.5473 52.2239C41.5537 52.1738 41.5428 52.123 41.5165 52.0798C41.4902 52.0367 41.4501 52.0033 41.4025 51.9861Z" fill="#9E862E"/>
<path d="M35.7797 49.9867C35.8975 49.3058 36.9164 49.3194 37.5007 49.4836C38.085 49.648 38.972 50.184 38.7264 50.7912C38.4809 51.3985 36.9021 51.6023 36.9021 51.6023C36.9021 51.6023 35.6619 50.6676 35.7797 49.9867Z" fill="#9E862E"/>
<path d="M59.7914 65.8312C60.9312 66.3216 61.8972 66.7756 63.212 65.3658C64.355 64.0216 63.7198 58.5819 62.778 57.9689C61.8362 57.3558 57.7712 61.6221 57.7565 63.0895C57.7419 64.5569 58.6516 65.3408 59.7914 65.8312Z" fill="#9E862E"/>
<path d="M20.5641 1.94453C21.1698 1.94453 78.8167 24.7878 78.8167 24.7878L58.262 114.974L0.00927527 89.0741C0.00927527 89.0741 20.4784 0.830951 20.5641 1.94453Z" fill="#08394D" fill-opacity="0.5"/>
<path fill-rule="evenodd" clip-rule="evenodd" d="M38.148 50.7869C36.6087 50.7869 35.361 52.0347 35.361 53.5739V56.3608V56.363C35.6371 56.3608 35.9351 56.3608 36.257 56.3608H40.0389C40.3608 56.3608 40.6589 56.3608 40.9349 56.363V56.3608V53.5739C40.9349 52.0347 39.6872 50.7869 38.148 50.7869ZM42.786 56.4754C42.7905 56.4379 42.7929 56.3996 42.7929 56.3608V53.5739C42.7929 51.0086 40.7133 48.929 38.148 48.929C35.5827 48.929 33.5031 51.0086 33.5031 53.5739V56.3608C33.5031 56.3996 33.5054 56.4379 33.5101 56.4754C33.211 56.526 32.9283 56.601 32.6545 56.7144C31.5164 57.1859 30.6121 58.0901 30.1407 59.2283C29.9446 59.7018 29.8632 60.2018 29.8246 60.7673C29.7871 61.3173 29.7871 61.993 29.7871 62.8308V62.8967C29.7871 63.7345 29.7871 64.4102 29.8246 64.9602C29.8632 65.5257 29.9446 66.0257 30.1407 66.4992C30.6121 67.6374 31.5164 68.5416 32.6545 69.0131C33.128 69.2092 33.6281 69.2906 34.1936 69.3291C34.7435 69.3667 35.4193 69.3667 36.257 69.3667H40.0389C40.8767 69.3667 41.5524 69.3667 42.1024 69.3291C42.6679 69.2906 43.1679 69.2092 43.6415 69.0131C44.7796 68.5416 45.6838 67.6374 46.1553 66.4992C46.3514 66.0257 46.4328 65.5257 46.4713 64.9602C46.5089 64.4102 46.5089 63.7345 46.5089 62.8967V62.8308C46.5089 61.993 46.5089 61.3173 46.4713 60.7673C46.4328 60.2018 46.3514 59.7018 46.1553 59.2283C45.6838 58.0901 44.7796 57.1859 43.6415 56.7144C43.3677 56.601 43.085 56.526 42.786 56.4754ZM34.3201 58.252C33.8491 58.2841 33.5749 58.3442 33.3655 58.431C32.6826 58.7138 32.1401 59.2564 31.8572 59.9392C31.7705 60.1486 31.7104 60.4228 31.6783 60.8937C31.6456 61.373 31.6451 61.9853 31.6451 62.8637C31.6451 63.7422 31.6456 64.3545 31.6783 64.8338C31.7104 65.3047 31.7705 65.5789 31.8572 65.7883C32.1401 66.4711 32.6826 67.0137 33.3655 67.2965C33.5749 67.3833 33.8491 67.4434 34.3201 67.4755C34.7993 67.5082 35.4116 67.5087 36.29 67.5087H40.006C40.8844 67.5087 41.4967 67.5082 41.976 67.4755C42.4469 67.4434 42.7211 67.3833 42.9305 67.2965C43.6133 67.0137 44.1559 66.4711 44.4387 65.7883C44.5255 65.5789 44.5856 65.3047 44.6177 64.8338C44.6504 64.3545 44.6509 63.7422 44.6509 62.8637C44.6509 61.9853 44.6504 61.373 44.6177 60.8937C44.5856 60.4228 44.5255 60.1486 44.4387 59.9392C44.1559 59.2564 43.6133 58.7138 42.9305 58.431C42.7211 58.3442 42.4469 58.2841 41.976 58.252C41.4967 58.2193 40.8844 58.2188 40.006 58.2188H36.29C35.4116 58.2188 34.7993 58.2193 34.3201 58.252ZM38.148 61.0058C38.6611 61.0058 39.077 61.4217 39.077 61.9348V63.7927C39.077 64.3058 38.6611 64.7217 38.148 64.7217C37.6349 64.7217 37.219 64.3058 37.219 63.7927V61.9348C37.219 61.4217 37.6349 61.0058 38.148 61.0058Z" fill="white"/>
</g>
<defs>
<clipPath id="clip0_1732_5697">
<rect width="101.347" height="115" fill="white"/>
</clipPath>
</defs>
</svg>
