<svg width="627" height="869" viewBox="0 0 627 869" fill="none" xmlns="http://www.w3.org/2000/svg">
<g clip-path="url(#clip0_1748_8194)">
<path d="M205.73 430.22C205.73 430.22 212.848 448.446 203.896 490.567C194.945 532.687 325.269 531.149 314.947 490.195C304.626 449.241 310.057 428.065 310.057 428.065L205.73 430.22Z" fill="#8D502E"/>
<path d="M126.284 327.935C131.868 404.056 210.053 460.87 270.286 455.942C330.518 451.014 399.649 384.41 394.064 308.289C388.479 232.167 324.007 174.857 250.062 180.282C176.116 185.707 120.699 251.813 126.284 327.935Z" fill="#A05A34"/>
<path d="M194.034 288.071C193.69 288.125 193.341 288.182 192.996 288.24C187.454 289.181 181.704 290.692 176.832 293.078C171.959 295.465 167.883 298.82 166.304 303.362L166.291 303.394L166.283 303.422C165.705 305.309 166.339 307.162 167.562 308.336C168.785 309.509 170.383 310.156 171.905 310.598C174.951 311.481 178.022 311.539 178.022 311.539C178.251 311.544 178.48 311.521 178.702 311.47C176.341 309.101 174.641 308.851 175.004 305.613C175.366 302.376 179.115 299.769 183.29 297.724C187.482 295.671 193.062 294.4 198.254 293.518C200.145 293.197 200.8 293.181 199.337 291.293C193.411 296.019 190.622 303.982 192.1 311.953C194.295 323.76 205.02 331.914 216.057 330.167C227.094 328.418 234.263 317.429 232.068 305.621C230.258 295.891 222.536 288.361 213.279 287.301C213.171 287.283 213.063 287.265 212.951 287.248C211.617 287.052 209.937 286.959 207.915 286.952C204.124 286.94 199.202 287.256 194.034 288.071Z" fill="#3A110B"/>
<path d="M203.276 312.489C199.752 312.704 196.629 309.84 196.299 306.091C195.969 302.342 198.558 299.128 202.081 298.913C205.605 298.697 208.728 301.562 209.058 305.311C209.388 309.059 206.799 312.273 203.276 312.489Z" fill="#C9C6AF"/>
<path d="M327.911 278.842C328.255 278.888 328.604 278.936 328.95 278.986C334.494 279.792 340.243 281.161 345.106 283.426C349.969 285.691 354.028 288.943 355.577 293.44L355.591 293.471L355.595 293.498C356.161 295.368 355.513 297.234 354.279 298.436C353.046 299.638 351.441 300.322 349.913 300.8C346.857 301.755 343.78 301.888 343.78 301.888C343.551 301.899 343.321 301.881 343.099 301.836C345.481 299.412 347.185 299.122 346.845 295.898C346.506 292.673 342.769 290.162 338.601 288.22C334.418 286.272 328.838 285.138 323.644 284.383C321.752 284.108 321.096 284.108 322.575 282.187C328.476 286.763 331.213 294.647 329.677 302.642C327.395 314.485 316.594 322.888 305.553 321.41C294.51 319.932 287.408 309.131 289.69 297.287C291.571 287.527 299.359 279.821 308.639 278.538C308.747 278.517 308.855 278.497 308.968 278.478C310.306 278.249 311.989 278.116 314.014 278.06C317.811 277.956 322.741 278.154 327.911 278.842Z" fill="#3A110B"/>
<path d="M300.875 305.542C297.351 305.758 294.227 302.893 293.897 299.145C293.567 295.396 296.156 292.182 299.68 291.967C303.203 291.751 306.327 294.615 306.657 298.364C306.987 302.113 304.398 305.327 300.875 305.542Z" fill="#C9C6AF"/>
<path d="M281.587 260.195C280.057 252.864 297.642 252.616 312.131 252.371C326.621 252.125 348.606 258.633 348.606 258.633C348.606 258.633 324.274 261.927 310.716 262.86C297.159 263.792 283.117 267.526 281.587 260.195Z" fill="#542A1A"/>
<path d="M234.966 262.607C235.307 255.126 217.908 257.685 203.565 259.752C189.222 261.82 168.554 271.749 168.554 271.749C168.554 271.749 193.101 271.122 206.633 269.882C220.166 268.641 234.624 270.088 234.966 262.607Z" fill="#542A1A"/>
<path d="M259.235 310.724C259.235 310.724 275.347 338.057 275.488 347.649C275.628 357.241 268.328 361.506 262.469 361.854C256.609 362.202 250.133 358.714 248.691 349.478C247.249 340.241 259.235 310.724 259.235 310.724Z" fill="#863D25"/>
<g style="mix-blend-mode:multiply" opacity="0.26087" filter="url(#filter0_f_1748_8194)">
<path d="M333.257 361.903C316.944 363.1 303.221 357.274 302.606 348.891C301.991 340.508 314.717 332.742 331.03 331.545C347.344 330.348 361.067 336.174 361.682 344.557C362.297 352.94 349.571 360.707 333.257 361.903Z" fill="#FF4470"/>
</g>
<g style="mix-blend-mode:multiply" opacity="0.26087" filter="url(#filter1_f_1748_8194)">
<path d="M195.237 371.861C178.923 373.058 165.2 367.232 164.585 358.848C163.97 350.465 176.696 342.699 193.01 341.502C209.323 340.305 223.046 346.131 223.661 354.514C224.277 362.898 211.55 370.664 195.237 371.861Z" fill="#FF4470"/>
</g>
<path d="M310.776 381.048C310.776 381.048 305.694 425.991 266.64 429.666C227.587 433.345 216.33 388.961 216.33 388.961L264.73 380.261L310.776 381.048Z" fill="#742424"/>
<path d="M264.571 377.385L313.352 378.198L313.027 381.059C313.027 381.059 311.701 392.496 305.283 404.341C298.864 416.186 287.082 428.642 266.826 430.493C246.554 432.346 233.131 421.932 225.109 411.17C217.088 400.408 214.158 389.142 214.158 389.142L213.423 386.321L264.571 377.385ZM264.881 382.545L219.493 390.459C220.486 393.566 222.806 400.109 228.57 407.843C235.94 417.73 247.678 427.077 266.46 425.361C285.257 423.645 295.53 412.51 301.416 401.648C306.018 393.156 307.391 386.431 307.935 383.256L264.881 382.545Z" fill="#953622"/>
<path d="M292.445 380.645C292.445 380.645 289.322 400.137 266.19 401.782C243.057 403.428 236.664 385.243 236.664 385.243L263.561 379.73L292.445 380.645Z" fill="#CCC9AF"/>
<path d="M262.641 377.452C286.803 375.729 313.557 377.555 313.557 377.555C313.925 377.58 314.285 377.677 314.616 377.842C314.947 378.006 315.242 378.234 315.484 378.512C315.727 378.791 315.912 379.114 316.03 379.464C316.147 379.815 316.195 380.184 316.169 380.553C316.118 381.295 315.775 381.987 315.215 382.476C314.655 382.966 313.924 383.213 313.181 383.164C313.181 383.164 286.626 381.376 263.042 383.058C239.5 384.736 214.029 390.768 214.029 390.768C213.669 390.854 213.296 390.868 212.931 390.809C212.566 390.75 212.216 390.62 211.902 390.426C211.587 390.231 211.314 389.977 211.098 389.677C210.882 389.377 210.727 389.038 210.643 388.678C210.473 387.953 210.598 387.19 210.99 386.557C211.383 385.925 212.01 385.473 212.734 385.303C212.734 385.303 238.437 379.178 262.641 377.452Z" fill="#822F1E"/>
<path d="M390.871 312.529C399.574 303.966 422.014 291.381 435.069 301.454C448.125 311.528 443.309 329.871 435.874 340.645C428.439 351.418 413.715 360.341 401.692 358.186C389.67 356.031 388.377 346.02 388.377 346.02C388.377 346.02 382.168 321.092 390.871 312.529Z" fill="#A05A34"/>
<path d="M128.859 331.721C118.999 324.52 94.9632 315.345 83.5177 327.216C72.0722 339.087 79.5137 356.531 88.4412 366.104C97.3687 375.676 113.238 382.355 124.817 378.469C136.396 374.582 136.214 364.489 136.214 364.489C136.214 364.489 138.719 338.922 128.859 331.721Z" fill="#A05A34"/>
<path d="M419.003 312.553C424.937 311.869 429.141 313.934 431.485 316.315C433.829 318.696 434.54 321.439 434.54 321.439C434.727 322.16 434.619 322.925 434.242 323.567C433.864 324.209 433.247 324.674 432.527 324.862C431.806 325.048 431.041 324.94 430.399 324.563C429.757 324.185 429.292 323.569 429.104 322.848C429.104 322.848 428.778 321.585 427.479 320.266C426.181 318.948 424.128 317.614 419.646 318.13C415.89 318.562 411.673 322.487 408.633 326.71C405.593 330.933 403.758 335.042 403.758 335.042C403.454 335.72 402.894 336.251 402.2 336.517C401.506 336.783 400.735 336.763 400.056 336.462C399.376 336.16 398.844 335.601 398.575 334.907C398.307 334.213 398.325 333.441 398.625 332.761C398.625 332.761 400.652 328.185 404.076 323.43C407.499 318.674 412.343 313.319 419.003 312.553Z" fill="#863D25"/>
<path d="M101.678 335.748C108.379 335.535 113.963 340.124 118.044 344.329C122.125 348.534 124.787 352.766 124.787 352.766C124.985 353.077 125.12 353.425 125.184 353.788C125.248 354.152 125.24 354.524 125.16 354.885C125.079 355.245 124.929 355.586 124.717 355.888C124.505 356.191 124.235 356.448 123.924 356.646C123.611 356.844 123.263 356.978 122.899 357.042C122.535 357.105 122.162 357.095 121.802 357.014C121.441 356.933 121.1 356.782 120.798 356.568C120.496 356.355 120.239 356.084 120.042 355.772C120.042 355.772 117.628 351.985 114.004 348.251C110.38 344.517 105.636 341.25 101.857 341.37C97.3479 341.514 95.5107 343.122 94.4185 344.616C93.3262 346.111 93.1879 347.407 93.1879 347.407C93.1078 348.148 92.7372 348.826 92.1575 349.293C91.5777 349.76 90.8362 349.978 90.0959 349.899C89.3556 349.819 88.6774 349.448 88.2103 348.868C87.7431 348.289 87.5252 347.547 87.6043 346.807C87.6043 346.807 87.9188 343.999 89.8904 341.302C91.8623 338.604 95.7081 335.938 101.678 335.748Z" fill="#863D25"/>
<path d="M262.384 10.9201C263.746 10.8255 265.178 10.8217 266.683 10.9226C280.929 11.8777 284.999 26.0169 286.156 33.3214C291.027 31.7771 296.935 31.2254 303.919 32.7919C324.075 37.3133 329.325 53.4525 330.445 58.1559C337.659 58.8679 345.974 62.187 353.192 71.5712C364.266 90.6977 353.016 106.676 349.065 111.371C352.914 117.534 354.868 125.075 353.435 133.516C350.086 153.253 331.661 152.346 327.589 151.9C316.453 163.393 301.712 152.425 298.021 148.724C297.125 149.517 296.13 150.233 294.991 150.834C266.181 166.035 249.701 134.032 249.701 134.032C236.251 168.678 217.646 159.004 209.213 152.036C191.584 171.723 176.829 166.649 167.798 159.364C165.245 160.079 138.054 166.995 133.546 138.587C132.583 125.021 136.667 116.211 141.485 110.604C138.184 104.168 128.35 80.9839 147.533 63.4369C161.312 56.1224 170.596 59.9044 176.597 66.0589C179.323 57.7707 186.741 39.4557 201.337 30.4128C215.389 21.7066 230.253 17.8768 242.075 22.3771C245.022 18.2741 251.397 11.6832 262.384 10.9201ZM250.103 133.44L249.876 133.538L250.145 133.451L250.103 133.44Z" fill="#4F2F24"/>
<path d="M341.866 67.087C340.865 66.7404 339.793 66.4476 338.645 66.2184C327.779 64.0493 321.866 73.8181 319.52 79.0564C316.184 76.9131 311.869 75.3034 306.32 75.0629C290.303 74.3688 283.101 85.3971 281.31 88.6941C275.761 87.7668 268.859 88.5697 261.551 94.1388C249.382 106.226 254.575 120.475 256.584 124.792C252.453 128.631 249.462 133.885 248.826 140.499C247.338 155.964 261.326 159.015 264.467 159.506C270.483 170.371 283.748 165.139 287.263 163.114C287.773 163.889 288.374 164.627 289.106 165.308C307.612 182.53 326.439 161.89 326.439 161.89C329.5 190.571 345.398 187.09 353.127 183.578C362.349 201.897 374.43 201.083 382.671 197.454C384.439 198.507 403.411 209.195 412.54 188.824C416.009 178.855 414.733 171.428 412.259 166.252C416.035 162.098 428.097 146.72 417.279 129.689C408.436 121.419 400.715 122.372 394.973 125.768C394.608 119.007 392.76 103.783 383.656 94.0526C374.891 84.6844 364.53 78.8052 354.762 79.783C353.384 76.1123 349.944 69.8836 341.866 67.087ZM326.258 161.366L326.408 161.485L326.223 161.365L326.258 161.366Z" fill="#4F2F24"/>
<path d="M138.982 86.5327C139.922 86.0437 140.94 85.5975 142.042 85.2033C152.476 81.4714 159.751 90.2728 162.836 95.1127C165.824 92.5052 169.858 90.2831 175.312 89.2352C191.056 86.211 199.79 96.0702 202.044 99.0705C207.398 97.3433 214.343 97.1303 222.385 101.573C236.189 111.755 233.131 126.609 231.773 131.174C236.42 134.368 240.146 139.129 241.741 145.579C245.469 160.662 232.076 165.722 229.041 166.666C224.675 178.292 210.789 175.052 207.016 173.562C206.624 174.404 206.138 175.221 205.513 176.002C189.718 195.74 168.081 178.069 168.081 178.069C169.238 206.89 153.003 205.766 144.844 203.419C138.394 222.888 126.324 223.847 117.641 221.459C116.046 222.759 98.8372 236.101 86.832 217.281C81.946 207.925 82.1242 200.391 83.8165 194.909C79.4745 191.351 65.2968 177.898 73.5141 159.471C81.0548 149.998 88.8329 149.815 95.0085 152.336C94.3827 145.594 93.9892 130.264 101.576 119.309C108.88 108.761 118.272 101.433 128.078 100.975C128.905 97.1423 131.4 90.4781 138.982 86.5327ZM168.183 177.524L168.053 177.664L168.217 177.518L168.183 177.524Z" fill="#4F2F24"/>
<path d="M381.877 177.651C410.445 216.67 407.04 266.156 407.294 269.288C409.855 329.534 374.288 326.313 374.288 326.313C396.816 318.639 390.186 280.109 383.321 269.328C367.436 263.268 364.944 243.447 365.607 238.057L365.595 238.051C363.178 240.219 359.481 241.908 353.806 242.196C321.241 243.847 323.13 219.015 323.13 219.015C295.285 234.646 281.283 210.321 279.641 204.503C276.824 217.177 268.227 234.13 242.703 240.701C211.89 248.634 192.234 240.211 181.406 232.234C178.067 242.268 168.798 255.636 146.277 249.469C146.267 249.477 146.263 249.492 146.263 249.492C149.732 256.819 156.628 283.923 130.323 297.361C129.535 300.618 122.728 331.026 139.613 348.458C139.613 348.458 109.605 336.09 102.855 298.303L102.821 298.288C102.821 298.288 102.744 297.617 102.735 297.563C102.667 297.149 102.581 296.751 102.516 296.331L102.578 296.332C100.938 285.763 70.5625 153.855 241.021 131.068C297.823 128.322 339.821 135.044 381.888 177.651L381.877 177.651Z" fill="#4F2F24"/>
<path d="M396.629 204.3C396.629 204.3 351.758 123.49 244.198 127.923C136.638 132.356 103.098 231.985 103.098 231.985C103.098 231.985 107.816 109.425 239.466 99.8776C371.117 90.3298 396.629 204.3 396.629 204.3Z" fill="#E6BE52"/>
<path d="M403.554 494.346C460.978 555.807 448.954 582.312 511.282 662.233L487.813 769.94C449.97 725.149 380.461 630.733 375.078 625.772L403.554 494.346Z" fill="#A05A34"/>
<path d="M101.842 527.279C59.7512 600.103 47.3747 710.419 4.66668 802.333L79.3333 811C106.106 758.832 152.858 651.899 156.984 645.852L101.842 527.279Z" fill="#A05A34"/>
<path d="M316.377 491.667C316.377 491.667 366.733 487.595 412.739 496.935C403.635 549.232 385.548 634.815 385.548 634.815C385.548 634.815 436.65 796.698 441.333 833C402 833 344 833 248.726 826.938C200.75 823.886 132.666 819 120 815C122.566 785.8 138.214 680.109 138.919 636.809C122.882 593.916 116.143 564.742 100.634 524.637C129.226 500.544 171.47 497.2 202.929 494.564C202.929 494.564 217.827 521.008 261.901 520.05C305.975 519.092 316.377 491.667 316.377 491.667Z" fill="#CF50A1"/>
<path d="M536.848 538.182C539.79 609.97 556.25 700.509 554.839 723.717C553.428 746.925 533.12 793.52 519.411 794.052C505.702 794.584 467.861 754.949 465.908 726.405C463.955 697.861 481.468 602.639 487.814 524.352L536.848 538.182Z" fill="#B06339"/>
<path d="M614.575 465.424C613.381 466.163 571.378 489.281 571.378 489.281L561.686 470.618C571.936 468.129 578.708 468.494 591.264 463.071C603.82 457.649 612.047 453.319 615.077 454.632C617.881 458.512 615.926 463.803 614.575 465.424Z" fill="#AD6138"/>
<path d="M596.426 399.949C596.988 397.128 595.935 393.28 593.185 392.935C590.435 392.591 566.108 409.192 560.95 413.976C555.791 418.759 531.784 442.531 531.784 442.531L549.352 456.057L596.426 399.949Z" fill="#B06339"/>
<path d="M569.846 394.965C570.408 392.145 569.355 388.296 566.605 387.951C563.855 387.607 539.528 404.208 534.37 408.992C529.211 413.776 506 437.667 506 437.667L522.772 451.073L569.846 394.965Z" fill="#A85E36"/>
<path d="M599.727 398.828C602.65 405.457 602.456 414.519 596.282 422.549C590.108 430.578 586.537 434.928 581.133 442.684C571.774 458.98 567.966 462.834 561.112 472.669L543.413 457.28C550.746 447.864 554.237 441.587 570.901 424.239C571.705 423.768 596.804 392.199 599.727 398.828Z" fill="#A85E36"/>
<path d="M571.653 489.48C559.349 507.687 548.522 534.876 534.739 544.101L487.761 527.489V465C495.554 455.586 500.471 440.552 512.69 431.138C512.69 431.138 537.89 440.974 549.939 453.122C561.988 465.27 571.653 489.48 571.653 489.48Z" fill="#B06339"/>
<path d="M488.662 528.914C482.642 511.8 474.175 501.016 473.347 470.472C477.408 450.907 479.066 415.035 480.651 411.553C482.235 408.071 493.886 420.748 495.612 432.425C497.338 444.103 491.601 439.847 496.77 460.938C524.77 485.661 501.143 515.388 488.662 528.914Z" fill="#A85E36"/>
</g>
<defs>
<filter id="filter0_f_1748_8194" x="294.585" y="323.39" width="75.1162" height="46.6675" filterUnits="userSpaceOnUse" color-interpolation-filters="sRGB">
<feFlood flood-opacity="0" result="BackgroundImageFix"/>
<feBlend mode="normal" in="SourceGraphic" in2="BackgroundImageFix" result="shape"/>
<feGaussianBlur stdDeviation="3.99926" result="effect1_foregroundBlur_1748_8194"/>
</filter>
<filter id="filter1_f_1748_8194" x="156.565" y="333.348" width="75.1162" height="46.6675" filterUnits="userSpaceOnUse" color-interpolation-filters="sRGB">
<feFlood flood-opacity="0" result="BackgroundImageFix"/>
<feBlend mode="normal" in="SourceGraphic" in2="BackgroundImageFix" result="shape"/>
<feGaussianBlur stdDeviation="3.99926" result="effect1_foregroundBlur_1748_8194"/>
</filter>
<clipPath id="clip0_1748_8194">
<rect width="626.283" height="868" fill="white" transform="matrix(-1 0 0 1 626.474 0.00357056)"/>
</clipPath>
</defs>
</svg>
