<svg width="24" height="24" viewBox="0 0 24 24" fill="none" xmlns="http://www.w3.org/2000/svg">
<path fill-rule="evenodd" clip-rule="evenodd" d="M22 17.5C22 19.9853 19.9853 22 17.5 22H12C9.7909 22 8 20.2091 8 18V17C8 16.4477 8.4477 16 9 16C9.5523 16 10 16.4477 10 17V18C10 19.1046 10.8954 20 12 20H17.5C18.8807 20 20 18.8807 20 17.5L20 6.5C20 5.1193 18.8807 4 17.5 4H12C10.8954 4 10 4.8954 10 6V7C10 7.5523 9.5523 8 9 8C8.4477 8 8 7.5523 8 7V6C8 3.7909 9.7909 2 12 2H17.5C19.9853 2 22 4.0147 22 6.5L22 17.5ZM5.7071 15.7071C5.3166 16.0976 4.6834 16.0976 4.2929 15.7071L1.2929 12.7071C0.902401 12.3166 0.902401 11.6834 1.2929 11.2929L4.2929 8.2929C4.6834 7.9024 5.3166 7.9024 5.7071 8.2929C6.0976 8.6834 6.0976 9.3166 5.7071 9.7071L4.4142 11H13C13.5523 11 14 11.4477 14 12C14 12.5523 13.5523 13 13 13H4.4142L5.7071 14.2929C6.0976 14.6834 6.0976 15.3166 5.7071 15.7071Z" fill="#052430"/>
</svg>
