<svg width="299" height="100" viewBox="0 0 299 100" fill="none" xmlns="http://www.w3.org/2000/svg">
<path d="M149.236 66.987C146.462 68.1975 141.837 68.9087 138.563 68.9087C127.467 68.9087 120.91 64.4954 120.91 49.7019C120.91 34.9084 127.523 30.8481 138.563 30.8481C141.837 30.8481 146.533 31.5593 149.236 32.558C149.236 32.558 148.671 34.5755 148.429 35.2564C148.222 35.8264 147.748 36.8402 146.977 37.1983C145.756 37.7582 144.798 37.5766 143.295 37.2992C141.828 37.0317 140.341 36.8967 138.851 36.8957C131.522 36.8957 128.037 38.6761 128.037 49.8431C128.037 60.4351 131.522 62.8612 138.851 62.8612C140.513 62.8511 142.168 62.6497 143.784 62.261C145.105 61.9482 145.892 61.7566 146.977 62.261C147.673 62.5888 148.147 63.527 148.348 64.0515C148.621 64.7576 149.236 66.987 149.236 66.987Z" fill="white"/>
<path d="M183.666 66.9163C179.668 68.1172 175.531 68.7954 171.359 68.9339C160.691 68.9339 154.21 64.5205 154.21 49.727C154.21 35.4278 160.116 30.8733 170.713 30.8733C181.527 30.8733 186.294 34.8579 185.935 51.2906H161.413C161.483 60.9646 164.827 63.0276 172.151 63.0276C174.279 62.9693 176.398 62.7297 178.486 62.3113C179.908 62.039 180.7 61.8372 181.724 62.4072C182.262 62.7816 182.659 63.3247 182.854 63.9506C183.101 64.6315 183.666 66.9163 183.666 66.9163ZM161.473 45.7878H179.257C178.899 38.1061 176.836 36.4669 171.006 36.4669C164.439 36.4669 162.043 38.6004 161.473 45.7878V45.7878ZM164.746 27.504L171.268 20.5537C171.899 19.8602 172.647 19.2831 173.477 18.8489C174.43 18.5208 175.43 18.3505 176.438 18.3445H180.977C180.977 18.3445 175.636 23.8422 174.526 24.9872C173.694 25.8497 173.16 26.465 172.095 26.9391C170.633 27.5948 169.649 27.4687 168.126 27.504C167.294 27.5242 164.746 27.504 164.746 27.504V27.504Z" fill="white"/>
<path d="M201.096 58.2359C201.096 61.7212 201.878 63.7135 204.228 66.3464L205.308 67.3551C204.078 67.9985 202.724 68.3717 201.338 68.4496C198.105 68.7169 196.92 67.3955 196.163 66.2404C194.892 64.2935 194.408 61.9229 194.408 58.5335V16.5489C194.408 16.5489 196.184 16.4883 196.89 16.5489C197.993 16.5859 199.046 17.0151 199.861 17.7594C200.631 18.5324 201.074 19.5732 201.096 20.6646V58.2359Z" fill="white"/>
<path d="M258.933 58.2511C258.933 61.7363 259.715 63.7286 262.06 66.3615L263.145 67.3703C261.915 68.0137 260.561 68.3868 259.175 68.4648C255.942 68.7321 254.757 67.4157 254 66.2556C252.724 64.3087 252.245 61.9381 252.245 58.5487V16.564C252.245 16.564 254.021 16.5035 254.727 16.564C255.828 16.5982 256.88 17.0259 257.692 17.7695C258.464 18.5444 258.908 19.5864 258.933 20.6798V58.2511Z" fill="white"/>
<path d="M235.243 31.8467H241.931V65.9176C237.729 67.6981 231.117 68.9086 226.139 68.9086C215.824 68.9086 211.693 65.0652 211.693 52.0471V31.8719H214.674C215.661 31.8789 216.609 32.255 217.332 32.9261C217.687 33.2909 217.964 33.723 218.149 34.1968C218.333 34.6707 218.421 35.1767 218.407 35.685V51.1947C218.407 60.6569 220.328 62.7198 227.44 62.7198C230.09 62.7785 232.731 62.4176 235.268 61.6505L235.243 31.8467Z" fill="white"/>
<path d="M298.628 66.074C294.356 67.8494 288.036 68.9187 283.189 68.9187C272.304 68.9187 268.249 66.2152 268.249 56.8136C268.249 46.5696 274.226 44.9354 282.478 44.9354C285.701 44.9393 288.915 45.2962 292.061 45.9997C292.061 38.4339 290.139 36.7544 282.246 36.7544C280.235 36.7608 278.227 36.9295 276.243 37.2587C274.539 37.5412 273.515 37.9497 272.208 37.2587C271.457 36.8653 270.958 35.7456 270.761 35.1605C270.564 34.5754 270.14 32.6386 270.14 32.6386C274.435 31.4987 278.856 30.9005 283.3 30.8582C293.892 30.8582 298.598 33.9904 298.598 44.8749L298.628 66.074ZM292.071 50.993C289.312 50.4114 286.496 50.1475 283.678 50.2062C277.56 50.2062 275.497 50.8468 275.497 56.4706C275.497 62.5232 277.131 63.4411 283.607 63.4411C285.186 63.4357 286.761 63.2888 288.313 63.0023C289.501 62.8467 290.591 62.264 291.38 61.3631C292.207 60.4149 292.071 58.241 292.071 58.241V50.993Z" fill="white"/>
<path d="M158.264 80.7008H162.137V82.1181C162.406 81.8907 162.687 81.6786 162.98 81.4826C163.273 81.2894 163.582 81.1207 163.903 80.9782C164.227 80.8285 164.565 80.7103 164.911 80.6251C165.268 80.5392 165.634 80.4969 166.001 80.4991C166.785 80.4853 167.561 80.6582 168.266 81.0034C168.904 81.3361 169.417 81.8671 169.728 82.5166C170.026 82.2493 170.339 82.0122 170.671 81.7449C170.989 81.5032 171.326 81.2889 171.68 81.1043C172.04 80.9264 172.414 80.7812 172.8 80.6705C173.198 80.5633 173.608 80.509 174.021 80.5091C174.623 80.4986 175.223 80.5889 175.796 80.7765C176.298 80.9455 176.755 81.2266 177.133 81.5986C177.519 81.9985 177.806 82.4841 177.97 83.0159C178.173 83.6688 178.27 84.3499 178.257 85.0334V90.854H179.947V92.8715H174.293V90.854H176.008V85.3058C176.035 84.9236 175.987 84.5397 175.866 84.1762C175.745 83.8126 175.553 83.4766 175.302 83.1874C175.033 82.9355 174.715 82.7416 174.368 82.6175C174.021 82.4935 173.652 82.4419 173.284 82.4661C172.727 82.472 172.178 82.5994 171.675 82.8394C171.154 83.0704 170.678 83.3914 170.268 83.7876V90.8489H171.942V92.8665H166.268V90.8489H167.968V85.3007C167.996 84.9185 167.947 84.5347 167.826 84.1711C167.705 83.8076 167.513 83.4716 167.262 83.1824C166.992 82.932 166.674 82.739 166.327 82.615C165.98 82.491 165.612 82.4387 165.244 82.4611C164.711 82.4671 164.186 82.5911 163.706 82.8242C163.185 83.0679 162.694 83.3709 162.243 83.7271V90.8489H163.933V92.8665H158.264V90.8489H159.953V82.7183H158.264V80.7008Z" fill="white"/>
<path d="M190.917 80.7009H194.836V90.839H196.183V92.8565H192.652V91.7469C192.11 92.1662 191.506 92.4981 190.862 92.7304C190.197 92.9699 189.495 93.0894 188.789 93.0835C188.225 93.086 187.666 92.9922 187.134 92.8061C186.652 92.6386 186.218 92.3564 185.868 91.9839C185.5 91.5755 185.225 91.0919 185.061 90.5666C184.865 89.9125 184.771 89.2319 184.784 88.5491V82.7184H183.14V80.7009H187.059V88.2666C187.004 89.0253 187.234 89.777 187.704 90.3749C187.943 90.6222 188.233 90.8145 188.553 90.9382C188.874 91.0619 189.218 91.1141 189.56 91.0912C190.075 91.0862 190.586 90.9994 191.074 90.8339C191.608 90.6647 192.117 90.4238 192.587 90.1177V82.7184H190.917V80.7009Z" fill="white"/>
<path d="M200.616 74.613H204.555V90.8541H206.386V92.8716H200.616V90.8541H202.376V76.6306H200.616V74.613Z" fill="white"/>
<path d="M213.317 80.7008H216.166V82.4711H213.291L213.261 89.4921C213.247 89.8852 213.302 90.2778 213.423 90.6522C213.465 90.7848 213.534 90.9075 213.625 91.0132C213.716 91.1188 213.827 91.2053 213.952 91.2675C214.21 91.3863 214.491 91.4449 214.774 91.439C215.066 91.4428 215.357 91.4124 215.642 91.3483C215.926 91.2791 216.201 91.1793 216.464 91.0507L216.968 92.5184C216.589 92.7115 216.192 92.8669 215.783 92.9824C215.303 93.1012 214.81 93.1572 214.315 93.1489C213.844 93.1589 213.374 93.0942 212.923 92.9572C212.535 92.8337 212.187 92.6091 211.914 92.3066C211.621 91.9508 211.415 91.531 211.314 91.0809C211.166 90.4514 211.098 89.8058 211.112 89.1592L211.148 82.4711H209.211V80.7008H211.173V77.7905L213.307 76.7817L213.317 80.7008Z" fill="white"/>
<path d="M219.919 80.701H223.888V90.8391H225.714V92.8566H219.944V90.8391H221.679V82.7185H219.919V80.701ZM221.266 76.3936C221.267 76.1936 221.31 75.9959 221.392 75.8136C221.468 75.6261 221.579 75.4549 221.72 75.3092C221.864 75.1654 222.035 75.0522 222.224 74.9763C222.412 74.8961 222.615 74.8549 222.819 74.8552C223.02 74.8545 223.22 74.8957 223.404 74.9763C223.764 75.1389 224.051 75.4279 224.211 75.7883C224.292 75.971 224.333 76.1687 224.332 76.3684C224.333 76.5746 224.292 76.7789 224.211 76.9686C224.132 77.1544 224.021 77.325 223.883 77.473C223.747 77.6158 223.584 77.7306 223.404 77.8109C223.22 77.8915 223.02 77.9327 222.819 77.932C222.615 77.9322 222.412 77.8911 222.224 77.8109C222.034 77.7348 221.862 77.6197 221.72 77.473C221.582 77.325 221.471 77.1544 221.392 76.9686C221.314 76.7917 221.272 76.6017 221.266 76.4087V76.3936Z" fill="white"/>
<path d="M228.998 80.7007H232.867V82.118H232.892C233.16 81.8894 233.441 81.6772 233.734 81.4825C234.025 81.2883 234.332 81.1195 234.652 80.9781C234.977 80.8295 235.314 80.7113 235.661 80.625C236.016 80.5395 236.38 80.4972 236.745 80.4989C237.53 80.4842 238.306 80.6571 239.01 81.0033C239.651 81.3342 240.167 81.8655 240.478 82.5164C240.774 82.2474 241.086 81.9902 241.416 81.7447C241.733 81.5022 242.07 81.2879 242.425 81.1042C242.783 80.9246 243.158 80.7794 243.544 80.6704C243.942 80.5625 244.353 80.5082 244.765 80.509C245.366 80.4988 245.964 80.5892 246.535 80.7763C247.039 80.9459 247.497 81.227 247.877 81.5985C248.261 82.0002 248.548 82.4852 248.714 83.0158C248.917 83.6687 249.014 84.3498 249.002 85.0333V90.8538H250.686V92.8714H245.027V90.8538H246.737V85.3057C246.765 84.9238 246.718 84.5401 246.598 84.1766C246.477 83.8131 246.286 83.4769 246.036 83.1873C245.767 82.9356 245.449 82.7418 245.102 82.6178C244.755 82.4938 244.386 82.4421 244.018 82.466C243.463 82.4714 242.915 82.5989 242.415 82.8392C241.893 83.0715 241.415 83.3923 241.002 83.7875V90.8488H242.682V92.8663H236.998V90.8488H238.712V85.3006C238.74 84.918 238.692 84.5336 238.57 84.1699C238.448 83.8062 238.254 83.4704 238.001 83.1822C237.732 82.9314 237.414 82.738 237.067 82.614C236.72 82.49 236.351 82.4379 235.984 82.461C235.45 82.4663 234.925 82.5903 234.445 82.8241C233.923 83.0678 233.431 83.3707 232.978 83.7269V90.8488H234.693V92.8663H228.998V90.8488H230.688V82.7182H228.998V80.7007Z" fill="white"/>
<path d="M253.844 80.7008H257.813V90.8389H259.644V92.8564H253.869V90.8389H255.604V82.7183H253.844V80.7008ZM256.981 75.5259H259.795V75.7276L256.265 79.0364H254.459L256.981 75.5259Z" fill="white"/>
<path d="M269.949 74.613H273.787V90.8541H275.573V92.8716H271.603V91.8629C271.217 92.2587 270.756 92.5742 270.247 92.7909C269.69 93.0246 269.09 93.1397 268.486 93.1288C267.701 93.1342 266.922 92.9887 266.191 92.7001C265.493 92.4206 264.865 91.992 264.35 91.4442C263.81 90.8624 263.394 90.1757 263.13 89.4267C262.819 88.5441 262.669 87.6132 262.686 86.6778C262.675 85.8038 262.818 84.9347 263.11 84.1105C263.369 83.3797 263.776 82.7101 264.305 82.1434C264.831 81.5936 265.467 81.1606 266.171 80.8724C267.459 80.381 268.866 80.2914 270.206 80.6152C270.708 80.753 271.18 80.9821 271.598 81.291V76.6306H269.944L269.949 74.613ZM268.764 91.2576C269.322 91.2746 269.879 91.1767 270.398 90.9701C270.854 90.7669 271.264 90.4735 271.603 90.1076V83.2985C271.21 82.9681 270.751 82.7256 270.257 82.5873C269.749 82.4361 269.222 82.3597 268.693 82.3603C268.194 82.3572 267.7 82.455 267.24 82.6478C266.787 82.839 266.381 83.1264 266.05 83.4901C265.694 83.881 265.42 84.3388 265.243 84.8368C265.041 85.4257 264.942 86.0451 264.951 86.6677C264.94 87.3392 265.035 88.0082 265.233 88.6499C265.395 89.1776 265.663 89.6667 266.02 90.0874C266.35 90.47 266.764 90.7705 267.23 90.9651C267.719 91.1563 268.239 91.2505 268.764 91.2425V91.2576Z" fill="white"/>
<path d="M278.841 80.7008H282.805V90.8388H284.636V92.8564H278.861V90.8388H280.601V82.7183H278.841V80.7008ZM280.188 76.3934C280.188 76.1933 280.231 75.9957 280.314 75.8133C280.39 75.6259 280.501 75.4547 280.641 75.3089C280.785 75.1652 280.957 75.052 281.146 74.9761C281.334 74.8949 281.536 74.8537 281.741 74.855C281.942 74.8542 282.142 74.8955 282.326 74.9761C282.686 75.1386 282.973 75.4276 283.133 75.7881C283.214 75.9708 283.255 76.1685 283.254 76.3682C283.255 76.5744 283.214 76.7786 283.133 76.9684C283.054 77.1542 282.943 77.3248 282.805 77.4727C282.669 77.6156 282.506 77.7304 282.326 77.8107C282.142 77.8913 281.942 77.9325 281.741 77.9317C281.539 77.9316 281.339 77.8909 281.152 77.812C280.966 77.7332 280.797 77.6178 280.657 77.4727C280.519 77.3248 280.408 77.1542 280.329 76.9684C280.246 76.7925 280.198 76.6025 280.188 76.4085V76.3934Z" fill="white"/>
<path d="M295.071 91.7469C294.621 92.1702 294.111 92.5254 293.558 92.8011C292.963 93.0831 292.311 93.2246 291.652 93.2147C291.093 93.22 290.537 93.1243 290.012 92.9322C289.54 92.7593 289.105 92.4973 288.731 92.1605C288.376 91.8455 288.09 91.4609 287.889 91.0307C287.691 90.6004 287.59 90.1323 287.591 89.6588C287.583 89.1915 287.66 88.7265 287.818 88.2869C287.961 87.9081 288.167 87.5566 288.429 87.2478C288.686 86.9555 288.987 86.7053 289.321 86.5064C289.659 86.307 290.017 86.1462 290.391 86.0272C290.762 85.9059 291.143 85.8198 291.531 85.77C291.896 85.7166 292.266 85.6897 292.635 85.6893C293.2 85.6893 293.674 85.6893 294.058 85.7448C294.441 85.8003 294.789 85.8305 295.102 85.8911V84.8823C295.111 84.5006 295.047 84.1207 294.915 83.7626C294.809 83.4655 294.636 83.1964 294.411 82.9757C294.177 82.7634 293.9 82.605 293.599 82.5117C293.254 82.4068 292.895 82.3557 292.534 82.3604C292.182 82.3592 291.829 82.3845 291.48 82.436C291.16 82.4822 290.843 82.5496 290.532 82.6378C290.257 82.7135 289.987 82.8079 289.725 82.9202C289.505 83.0104 289.293 83.1219 289.095 83.2531L288.378 81.74C288.685 81.5519 289.003 81.3834 289.332 81.2356C289.682 81.0717 290.045 80.9351 290.416 80.8271C290.798 80.7102 291.187 80.6193 291.581 80.5547C291.966 80.4889 292.356 80.4552 292.746 80.4538C293.389 80.4463 294.029 80.5312 294.648 80.706C295.177 80.8573 295.667 81.1243 296.08 81.4878C296.482 81.8606 296.791 82.3216 296.983 82.8345C297.209 83.4597 297.317 84.1217 297.301 84.7865V90.839H298.602V92.8566H295.071V91.7469ZM292.111 91.3838C292.403 91.3836 292.694 91.3481 292.978 91.2778C293.261 91.2102 293.537 91.1139 293.8 90.9903C294.053 90.8732 294.293 90.7313 294.517 90.5667C294.72 90.4195 294.906 90.2504 295.071 90.0623V87.3184H292.55C292.16 87.3138 291.772 87.3613 291.395 87.4597C291.071 87.539 290.765 87.6775 290.492 87.8682C290.235 88.0432 290.027 88.2802 289.887 88.5571C289.747 88.834 289.679 89.1418 289.69 89.452C289.682 89.7421 289.741 90.0301 289.861 90.2943C289.982 90.5286 290.154 90.7322 290.366 90.8895C290.598 91.0581 290.859 91.1813 291.137 91.2526C291.452 91.341 291.778 91.3851 292.106 91.3838H292.111Z" fill="white"/>
<path d="M77.5432 91.6157C67.2444 98.4864 54.7582 101.28 42.5133 99.4546C30.2684 97.6286 19.1406 91.3133 11.2943 81.7369C3.44799 72.1606 -0.555638 60.008 0.0621791 47.6432C0.679996 35.2784 5.87509 23.5854 14.6369 14.8389C34.106 -4.63016 65.5087 -4.46371 84.9778 15.0054C93.2618 23.2055 98.3873 34.0653 99.452 45.6727C100.517 57.2802 97.4523 68.8912 90.7983 78.4615L80.1509 67.814C78.1686 65.8268 77.8559 62.7349 78.6982 60.208C78.6982 60.1525 78.784 60.0466 78.8092 59.9911C80.9554 53.4896 80.8532 46.4553 78.5191 40.0189C76.1849 33.5825 71.7544 28.1178 65.9396 24.5034C60.1249 20.8889 53.2637 19.3346 46.4589 20.0903C39.6542 20.8459 33.3011 23.8677 28.421 28.6698C23.5409 33.4719 20.4172 39.7754 19.552 46.5671C18.6869 53.3588 20.1304 60.2442 23.6508 66.1164C27.1711 71.9886 32.5636 76.5066 38.9616 78.9442C45.3596 81.3817 52.3913 81.5972 58.9265 79.556L59.5267 79.3643L59.6125 79.2887C62.0638 78.6128 64.5907 79.3694 66.8453 80.9128L77.5432 91.6157Z" fill="white"/>
<path d="M49.7251 30.6917C45.9343 30.6917 42.2287 31.8157 39.0767 33.9218C35.9248 36.0278 33.4682 39.0212 32.0176 42.5234C30.5669 46.0256 30.1873 49.8794 30.9269 53.5973C31.6664 57.3152 33.4918 60.7304 36.1723 63.4108C38.8528 66.0913 42.2679 67.9168 45.9859 68.6563C49.7038 69.3958 53.5575 69.0163 57.0597 67.5656C60.562 66.1149 63.5553 63.6583 65.6614 60.5064C67.7674 57.3545 68.8915 53.6489 68.8915 49.8581C68.8915 44.7748 66.8722 39.8998 63.2778 36.3054C59.6834 32.711 54.8083 30.6917 49.7251 30.6917ZM40.1418 53.525C39.3842 53.526 38.6434 53.3022 38.0131 52.8819C37.3827 52.4616 36.8913 51.8638 36.6009 51.164C36.3105 50.4643 36.2343 49.6942 36.3819 48.9511C36.5294 48.208 36.8941 47.5254 37.4298 46.9897C37.9655 46.454 38.6481 46.0893 39.3912 45.9418C40.1342 45.7942 40.9044 45.8705 41.6041 46.1608C42.3039 46.4512 42.9017 46.9427 43.322 47.573C43.7422 48.2033 43.966 48.9442 43.965 49.7018C43.965 50.2042 43.866 50.7018 43.6735 51.166C43.4811 51.6302 43.199 52.0519 42.8435 52.4069C42.4879 52.762 42.0658 53.0435 41.6014 53.2354C41.137 53.4272 40.6393 53.5256 40.1368 53.525H40.1418ZM59.3083 53.525C58.5507 53.526 57.8099 53.3022 57.1795 52.8819C56.5492 52.4616 56.0577 51.8638 55.7674 51.164C55.477 50.4643 55.4008 49.6942 55.5483 48.9511C55.6959 48.208 56.0606 47.5254 56.5963 46.9897C57.132 46.454 57.8146 46.0893 58.5576 45.9418C59.3007 45.7942 60.0709 45.8705 60.7706 46.1608C61.4703 46.4512 62.0681 46.9427 62.4884 47.573C62.9087 48.2033 63.1325 48.9442 63.1315 49.7018C63.1315 50.714 62.7301 51.6849 62.0153 52.4016C61.3005 53.1183 60.3306 53.5223 59.3184 53.525H59.3083Z" fill="#FF9900"/>
<ellipse cx="40.217" cy="49.7009" rx="4.03931" ry="4.03931" fill="white"/>
<ellipse cx="59.1848" cy="49.7009" rx="4.03931" ry="4.03931" fill="white"/>
</svg>
