<svg width="112" height="48" viewBox="0 0 112 48" fill="none" xmlns="http://www.w3.org/2000/svg">
<g clip-path="url(#clip0_1271_1924)">
<g filter="url(#filter0_d_1271_1924)">
<path d="M40.622 15.4297C40.622 15.4297 40.1098 14.0919 38.4922 13.0885C36.8745 12.085 35.0547 12.235 35.0547 12.235C35.0547 12.235 31.3409 3.34254 20.5262 3C11.8155 3.07826 6.53951 8.82709 4.74086 14.8418C2.55493 22.1516 5.54084 28.6123 9.29762 32.1678C17.2116 39.4313 25.6859 35.5211 25.6859 35.5211C25.6859 35.5211 30.0651 39.5096 31.8261 41.0758C33.4278 42.3775 35.1514 43.0179 36.5231 42.9996C37.8948 42.9814 39.0635 42.4455 39.8606 41.8018C41.455 40.5143 42.5241 38.8134 42.3819 36.7847C43.9953 36.6501 46.4662 35.9726 48.3723 34.3602C50.2955 35.835 52.7841 36.6476 55.1089 36.8186C57.4338 36.9897 61.0352 37.099 63.6962 35.168C66.1167 36.5597 67.7432 36.7251 70.7138 36.8943C73.6844 37.0634 77.4816 36.1245 79.2655 34.8085C80.7339 35.8643 82.0713 36.3939 83.867 36.7301C85.6626 37.0662 88.4112 36.8166 89.8575 36.1934C92.5075 37.0295 95.6762 37.0188 97.9567 36.6678C100.237 36.3167 102.394 35.5172 103.935 34.2302C105.476 32.9432 106.33 31.4814 106.634 29.5987C106.939 27.7159 106.59 25.6681 105.293 24.1143C105.468 23.9448 107.197 22.7688 107.199 19.9121C107.19 15.8784 103.34 13.996 103.34 13.996C103.34 13.996 101.46 12.7909 98.6022 12.3985C95.7443 12.0061 93.7764 12.3779 93.7764 12.3779C93.7764 12.3779 92.9284 11.5552 91.2858 11.0462C90.1204 10.6851 89.0679 10.6315 88.3462 10.5722C88.2796 8.75691 87.8207 6.71029 86.6793 5.24446C85.5379 3.77864 84.0512 3.06872 82.0007 3.01041C80.8741 2.97837 79.8837 3.20804 79.0214 3.66018C78.215 4.08297 77.8426 4.26512 76.8669 5.51718C75.8913 6.76924 75.2384 8.72369 74.986 10.7183C73.8373 10.9055 72.3084 11.0629 70.7728 12.2848C68.3828 12.4952 67.4892 12.897 66.6529 13.2011C65.198 13.7675 63.9844 14.6826 63.9844 14.6826C63.9844 14.6826 61.3046 12.3132 57.0298 12.2459C52.9664 12.0533 50.2645 13.7108 50.2645 13.7108C50.2645 13.7108 48.3394 11.784 45.1321 12.2953C41.5332 12.7048 40.622 15.4297 40.622 15.4297Z" fill="#F8FBFC"/>
<path d="M94.9099 33.9668C92.5603 33.9668 90.6912 33.5796 89.3028 32.8053C87.9143 32.0309 87.2201 31.0297 87.2201 29.8014C87.2201 28.947 87.5005 28.3195 88.0612 27.919C88.6486 27.4918 89.3428 27.2782 90.1438 27.2782C90.7847 27.2782 91.2519 27.385 91.5456 27.5986C91.866 27.8122 92.1464 28.0258 92.3867 28.2394C92.627 28.453 92.9207 28.5598 93.2678 28.5598C93.8285 28.5598 94.1089 28.3596 94.1089 27.9591C94.1089 27.4251 93.7885 27.0379 93.1477 26.7976C92.5336 26.5573 91.7592 26.2235 90.8247 25.7963C89.5431 25.1822 88.6219 24.4746 88.0612 23.6736C87.5005 22.8459 87.2201 22.0048 87.2201 21.1504C87.2201 20.1357 87.5806 19.1745 88.3015 18.2667C89.0224 17.3588 90.037 16.6112 91.3454 16.0238C92.6804 15.4364 94.2691 15.1427 96.1115 15.1427C97.6601 15.1427 99.0486 15.3563 100.277 15.7835C101.505 16.2107 102.48 16.7981 103.201 17.5457C103.921 18.2667 104.282 19.0677 104.282 19.9488C104.282 20.7765 104.015 21.404 103.481 21.8312C102.947 22.2584 102.253 22.472 101.398 22.472C100.918 22.472 100.53 22.4053 100.237 22.2718C99.9697 22.1116 99.7161 21.9647 99.4758 21.8312C99.2622 21.6977 98.9551 21.631 98.5546 21.631C98.341 21.631 98.1541 21.7111 97.9939 21.8713C97.8337 22.0048 97.7536 22.1783 97.7536 22.3919C97.7536 22.5522 97.8203 22.7124 97.9538 22.8726C98.0873 23.0328 98.3143 23.1663 98.6347 23.2731C99.4624 23.5401 100.263 23.8872 101.038 24.3144C101.839 24.7149 102.493 25.2489 103 25.9165C103.534 26.5573 103.801 27.385 103.801 28.3996C103.801 30.1352 102.987 31.4969 101.358 32.4849C99.7294 33.4728 97.58 33.9668 94.9099 33.9668Z" fill="#F18322"/>
<path d="M95.3488 16.1733C94.8844 16.1574 94.4245 16.3001 94.1224 16.416C93.9458 16.4837 93.7432 16.6825 93.7396 16.9779C93.7429 17.3525 94.0691 17.584 94.3408 17.5769C94.5584 17.5713 94.7725 17.4409 95.0807 17.3882C95.3498 17.3716 95.296 17.3716 95.7248 17.3848C96.0478 17.3948 96.3418 17.0985 96.3228 16.7837C96.3039 16.4689 96.1572 16.1544 95.3488 16.1733Z" fill="#F49E52"/>
<path d="M85.5893 33.9668C84.6548 33.9668 83.7069 33.7799 82.7457 33.406C81.7844 33.0322 80.9167 32.4849 80.1423 31.7639C79.3947 31.043 78.8473 30.1752 78.5002 29.1606C78.2599 28.4931 78.0864 27.6654 77.9796 26.6774C77.8728 25.6895 77.7927 24.6348 77.7393 23.5134C77.7125 22.3919 77.6992 21.2972 77.6992 20.2292C76.6578 20.2025 75.6565 20.109 74.6953 19.9488C73.7608 19.7886 72.9865 19.4949 72.3723 19.0677C71.7849 18.6138 71.4912 17.9596 71.4912 17.1052C71.4912 16.0638 71.7716 15.2895 72.3323 14.7822C72.893 14.2482 73.6406 13.9011 74.5752 13.7409C75.5364 13.554 76.5777 13.4472 77.6992 13.4205C77.7259 12.5927 77.7926 11.7517 77.8994 10.8972C78.0329 10.0161 78.2465 9.20173 78.5402 8.45411C78.8339 7.70648 79.2478 7.10571 79.7818 6.6518C80.3158 6.17119 81.0101 5.93088 81.8645 5.93088C83.0126 5.93088 83.8403 6.29134 84.3477 7.01226C84.8817 7.73318 85.2154 8.66771 85.3489 9.81585C85.4824 10.964 85.5358 12.1655 85.5091 13.4205C86.8976 13.3938 88.1258 13.4472 89.1939 13.5807C90.2619 13.7142 91.103 14.0079 91.7171 14.4618C92.3312 14.9157 92.6383 15.6366 92.6383 16.6246C92.6383 17.6392 92.2912 18.4002 91.5969 18.9075C90.9027 19.4148 89.9949 19.7619 88.8734 19.9488C87.752 20.109 86.5638 20.2025 85.3089 20.2292C85.3089 20.7365 85.2955 21.2705 85.2688 21.8312C85.2688 22.3652 85.2688 22.9126 85.2688 23.4733C85.2688 24.9953 85.3756 26.0767 85.5892 26.7175C85.7494 27.1981 85.963 27.5052 86.23 27.6387C86.5237 27.7722 86.8842 27.8523 87.3114 27.879C87.7386 27.879 88.2593 27.9591 88.8734 28.1193C89.4875 28.2528 89.9681 28.5865 90.3152 29.1206C90.6624 29.6279 90.8359 30.282 90.8359 31.0831C90.8359 31.9909 90.3553 32.6985 89.3941 33.2058C88.4595 33.7131 87.1914 33.9668 85.5893 33.9668Z" fill="#BE0503"/>
<path d="M80.0372 11.5565C80.1164 11.4602 80.1151 11.4028 80.1258 11.3135C80.1239 10.234 80.4071 9.02798 81.5113 7.77457C81.6222 7.64986 81.7105 7.30072 81.3597 7.07906C80.8461 6.82048 80.649 7.02627 80.1394 7.75735C79.3282 8.87881 78.9555 10.2115 79.0258 11.3031C79.0499 11.4055 79.0881 11.5181 79.2784 11.658C79.6513 11.8862 79.975 11.6631 80.0372 11.5565Z" fill="#F43634"/>
<path d="M87.3268 20.2328C87.6163 20.2182 87.9027 20.2008 88.1846 20.1786C88.4817 20.1552 88.7744 20.1277 89.0631 20.096C89.3518 20.0643 89.6364 20.0281 89.9168 19.988C90.057 19.9647 90.1938 19.9389 90.3273 19.9106C90.4608 19.8822 90.5909 19.8515 90.7178 19.8181C90.8446 19.7847 90.9684 19.7486 91.0886 19.7102C91.2087 19.6718 91.3252 19.6312 91.4387 19.5878C91.5522 19.5444 91.6624 19.4983 91.7692 19.4499C91.876 19.4015 91.9795 19.351 92.0796 19.2976C92.1797 19.2441 92.2764 19.1881 92.3698 19.1297C92.4633 19.0713 92.5537 19.0103 92.6405 18.9469C92.6838 18.9152 92.7258 18.8825 92.7665 18.8488C92.8071 18.8151 92.8468 18.7806 92.8847 18.745C92.9227 18.7093 92.959 18.6726 92.9942 18.635C93.0294 18.5973 93.0634 18.5584 93.096 18.5188C93.1285 18.4791 93.1596 18.4385 93.1894 18.3969C93.2193 18.3553 93.248 18.3129 93.2752 18.2693C93.3023 18.2257 93.3277 18.1811 93.3521 18.1356C93.3765 18.09 93.3996 18.0432 93.4213 17.9956C93.443 17.9481 93.4633 17.8995 93.4822 17.85C93.5012 17.8004 93.5192 17.7502 93.5354 17.6987C93.5517 17.6471 93.5663 17.5941 93.5799 17.5406C93.5934 17.4871 93.6057 17.4329 93.6165 17.3774C93.6273 17.322 93.6368 17.2655 93.6449 17.208C93.6531 17.1506 93.6602 17.0919 93.6656 17.0325C93.671 16.973 93.6747 16.9126 93.6774 16.8512C93.6803 16.7898 93.6817 16.7271 93.6817 16.6637C93.6817 16.602 93.6803 16.5416 93.6779 16.4819C93.6756 16.4223 93.6719 16.3634 93.6671 16.3058C93.6623 16.2483 93.6567 16.1919 93.6495 16.1364C93.6423 16.081 93.6338 16.0266 93.6242 15.9733C93.6146 15.9198 93.6037 15.8676 93.5917 15.8163C93.5797 15.7649 93.5663 15.7142 93.5519 15.6649C93.5375 15.6157 93.5222 15.568 93.5054 15.5209C93.4886 15.4737 93.4704 15.4275 93.4512 15.3824C93.1251 15.4455 92.8086 15.5196 92.504 15.6076C92.5059 15.6141 92.5089 15.6197 92.5108 15.6262C92.5396 15.7247 92.5634 15.8272 92.5826 15.934C92.6017 16.0408 92.6163 16.152 92.6259 16.2671C92.6355 16.3822 92.6404 16.5015 92.6404 16.625C92.6404 16.7518 92.6347 16.8748 92.6238 16.9937C92.613 17.1126 92.597 17.2272 92.5753 17.3382C92.5536 17.4492 92.5262 17.5564 92.4937 17.6594C92.4612 17.7625 92.4235 17.8618 92.3801 17.9569C92.3584 18.0044 92.3353 18.0507 92.3109 18.0963C92.2865 18.1419 92.2605 18.1865 92.2334 18.2301C92.2063 18.2737 92.178 18.3165 92.1482 18.3582C92.1184 18.3998 92.0873 18.4404 92.0547 18.48C92.0222 18.5197 91.9883 18.5581 91.953 18.5957C91.9178 18.6334 91.881 18.67 91.843 18.7057C91.7671 18.7771 91.686 18.8447 91.5992 18.9082C91.5125 18.9716 91.4221 19.032 91.3286 19.0905C91.2352 19.1489 91.1385 19.2049 91.0384 19.2583C90.9383 19.3117 90.8348 19.3628 90.728 19.4112C90.6212 19.4596 90.511 19.5051 90.3975 19.5485C90.284 19.5919 90.167 19.6331 90.0468 19.6714C89.9267 19.7098 89.8034 19.7455 89.6765 19.7789C89.5497 19.8122 89.4196 19.8435 89.2861 19.8718C89.1526 19.9002 89.0157 19.9259 88.8756 19.9493C88.5952 19.9893 88.3106 20.025 88.0219 20.0567C87.8018 20.0809 87.5771 20.1004 87.3521 20.1197C87.3425 20.1573 87.3354 20.1951 87.3268 20.2328Z" fill="#DF5D0E"/>
<path d="M90.3619 33.2842C90.3871 33.2712 90.4127 33.2584 90.4373 33.245C90.4974 33.2133 90.5556 33.1812 90.6119 33.1479C90.6682 33.1146 90.723 33.0805 90.7756 33.0456C90.8282 33.0108 90.8786 32.9751 90.9274 32.9387C90.9762 32.9023 91.0234 32.8651 91.0684 32.8272C91.1135 32.7892 91.1567 32.7505 91.198 32.711C91.2393 32.6715 91.2788 32.6312 91.3163 32.5901C91.3539 32.549 91.3894 32.5068 91.4232 32.4641C91.457 32.4215 91.4887 32.3782 91.5187 32.334C91.5488 32.2898 91.5772 32.245 91.6034 32.1992C91.6297 32.1534 91.6543 32.1066 91.6768 32.0592C91.6993 32.0119 91.72 31.9641 91.7387 31.9152C91.7575 31.8662 91.7744 31.8164 91.7894 31.7659C91.8044 31.7154 91.8173 31.664 91.8286 31.612C91.8399 31.56 91.8495 31.5071 91.857 31.4535C91.8646 31.3998 91.8698 31.3454 91.8735 31.2903C91.8773 31.2351 91.8792 31.1792 91.8792 31.1224C91.8792 31.0223 91.8769 30.9246 91.8715 30.8291C91.8661 30.7335 91.8575 30.6401 91.8467 30.5492C91.8358 30.4582 91.8226 30.3696 91.8064 30.2832C91.7901 30.1969 91.7708 30.113 91.749 30.0312C91.7273 29.9494 91.7028 29.8698 91.6757 29.7926C91.6486 29.7154 91.6189 29.6405 91.5864 29.5679C91.5538 29.4954 91.5185 29.4252 91.4805 29.3572C91.4425 29.2892 91.402 29.2234 91.3586 29.16C91.3152 29.0932 91.2698 29.0294 91.2223 28.9689C91.1747 28.9084 91.1253 28.8511 91.0735 28.7969C91.0218 28.7427 90.9678 28.6915 90.9119 28.6435C90.856 28.5955 90.7979 28.551 90.7378 28.5093C90.6778 28.4675 90.6157 28.429 90.5514 28.3936C90.4872 28.3581 90.421 28.3257 90.3526 28.2965C90.2842 28.2673 90.2134 28.2409 90.1409 28.218C90.0683 28.195 89.9935 28.1753 89.9167 28.1586C89.7632 28.1185 89.6155 28.0838 89.4736 28.0538C89.3318 28.0237 89.1958 27.9984 89.0656 27.9784C88.9355 27.9583 88.8112 27.9434 88.6928 27.9334C88.6335 27.9284 88.5756 27.9246 88.5192 27.9221C88.4629 27.9196 88.4084 27.9185 88.355 27.9185C88.2672 27.913 88.1836 27.9037 88.1014 27.8937C88.0889 27.9026 88.0757 27.9104 88.0632 27.9195C88.0532 27.9266 88.0441 27.9344 88.0343 27.9417C88.1616 27.9615 88.2941 27.9852 88.4325 28.0145C88.5743 28.0446 88.7221 28.0798 88.8756 28.1199C88.9523 28.1366 89.0271 28.1563 89.0997 28.1793C89.1723 28.2022 89.2425 28.228 89.3109 28.2572C89.3794 28.2865 89.446 28.3189 89.5103 28.3543C89.5745 28.3898 89.6366 28.4283 89.6967 28.47C89.7568 28.5117 89.8148 28.5568 89.8708 28.6048C89.9267 28.6528 89.9802 28.704 90.0319 28.7582C90.0836 28.8124 90.1336 28.8697 90.1811 28.9302C90.2287 28.9907 90.2741 29.0545 90.3175 29.1212C90.3608 29.1847 90.4014 29.25 90.4393 29.318C90.4773 29.386 90.5127 29.4566 90.5452 29.5292C90.5777 29.6018 90.6074 29.6767 90.6346 29.7539C90.6617 29.8311 90.6862 29.9102 90.7079 29.992C90.7296 30.0737 90.7484 30.1581 90.7647 30.2445C90.781 30.3309 90.7947 30.4195 90.8055 30.5105C90.8164 30.6014 90.8244 30.6943 90.8298 30.7899C90.8353 30.8854 90.838 30.9836 90.838 31.0837C90.838 31.1404 90.8362 31.1964 90.8324 31.2515C90.8286 31.3067 90.8229 31.3611 90.8153 31.4147C90.8078 31.4684 90.7987 31.5212 90.7874 31.5733C90.7762 31.6253 90.7627 31.6762 90.7477 31.7267C90.7326 31.7771 90.7158 31.827 90.697 31.8759C90.6783 31.9248 90.6576 31.9732 90.6351 32.0205C90.6125 32.0679 90.5885 32.1142 90.5623 32.16C90.536 32.2057 90.5076 32.251 90.4776 32.2953C90.4475 32.3395 90.4158 32.3827 90.382 32.4254C90.3482 32.4681 90.3121 32.5098 90.2746 32.5509C90.237 32.592 90.1976 32.6327 90.1563 32.6723C90.115 32.7118 90.0718 32.7505 90.0267 32.7885C89.9817 32.8264 89.9351 32.8636 89.8862 32.9C89.8374 32.9364 89.7865 32.9721 89.7339 33.0069C89.7289 33.0102 89.7229 33.0129 89.7179 33.0162C89.923 33.1132 90.1384 33.202 90.3619 33.2842Z" fill="#DF5D0E"/>
<path d="M77.7074 21.1935C77.7982 21.1926 77.8882 21.1912 77.9754 21.1852C78.0812 21.1783 78.1843 21.1681 78.2848 21.1543C78.3853 21.1404 78.4833 21.1229 78.5786 21.1021C78.674 21.0813 78.7669 21.057 78.857 21.0293C78.9471 21.0015 79.0344 20.9705 79.1193 20.9358C79.2043 20.9012 79.2865 20.8628 79.3662 20.8212C79.4459 20.7795 79.523 20.7349 79.5976 20.6864C79.6721 20.6378 79.7441 20.5854 79.8134 20.5299C79.8828 20.4744 79.948 20.4158 80.0086 20.3538C80.0693 20.2918 80.1255 20.227 80.1775 20.1586C80.2295 20.0901 80.2772 20.0182 80.3206 19.9432C80.3639 19.8683 80.4026 19.7902 80.4373 19.7088C80.472 19.6273 80.5027 19.5426 80.5287 19.4547C80.5547 19.3667 80.5764 19.2754 80.5938 19.181C80.6111 19.0865 80.6238 18.9886 80.6325 18.8876C80.6412 18.7867 80.6454 18.6826 80.6454 18.5752C80.6454 18.4608 80.6396 18.3477 80.6279 18.2359C80.6162 18.1241 80.5986 18.0135 80.5752 17.9043C80.5518 17.7951 80.5225 17.6871 80.4874 17.5805C80.4523 17.4739 80.4118 17.369 80.365 17.265C80.3182 17.161 80.2655 17.0581 80.207 16.9567C80.1485 16.8553 80.084 16.7549 80.0138 16.6561C79.9436 16.5573 79.8674 16.46 79.7855 16.3638C79.7037 16.2676 79.6158 16.1728 79.5222 16.0792C79.4286 15.9822 79.3312 15.8876 79.2294 15.7957C79.1275 15.7039 79.0213 15.6149 78.9112 15.5282C78.8012 15.4415 78.6871 15.3571 78.5688 15.2757C78.4505 15.1942 78.3282 15.1154 78.2016 15.0391C78.0751 14.9629 77.9444 14.8892 77.8097 14.8181C77.6749 14.747 77.5359 14.679 77.3929 14.6131C77.2499 14.5472 77.1031 14.4837 76.9519 14.423C76.8007 14.3624 76.645 14.3045 76.4855 14.249C76.3261 14.1935 76.1642 14.1416 75.9996 14.093C75.8349 14.0445 75.6674 13.9993 75.4976 13.9577C75.3277 13.9161 75.1557 13.8777 74.9806 13.8431C74.819 13.8111 74.6546 13.7829 74.4885 13.7568C73.5963 13.9236 72.8773 14.2638 72.3349 14.7804C71.7742 15.2877 71.4937 16.062 71.4937 17.1033C71.4937 17.9578 71.7873 18.6119 72.3747 19.0658C72.9888 19.493 73.7631 19.7866 74.6976 19.9468C75.6588 20.107 76.6604 20.2006 77.7017 20.2273C77.7017 20.5454 77.705 20.8707 77.7074 21.1935Z" fill="#9C0402"/>
<path d="M79.0636 30.3835C79.0939 30.3479 79.126 30.3133 79.155 30.2771C79.2211 30.1948 79.284 30.111 79.3435 30.0256C79.4029 29.9402 79.459 29.8532 79.5118 29.7648C79.5647 29.6764 79.6143 29.5867 79.6606 29.4952C79.7068 29.4038 79.75 29.3108 79.7897 29.2163C79.8293 29.1219 79.8656 29.0257 79.8986 28.9282C79.9317 28.8307 79.9615 28.7318 79.988 28.6312C80.0144 28.5307 80.0374 28.4285 80.0572 28.325C80.077 28.2214 80.0936 28.1165 80.1068 28.01C80.12 27.9034 80.1296 27.7953 80.1362 27.6856C80.1428 27.576 80.1465 27.4647 80.1465 27.352C80.1465 27.2203 80.1418 27.0919 80.1331 26.9662C80.1244 26.8406 80.1117 26.7176 80.0944 26.598C80.077 26.4784 80.0553 26.3619 80.0293 26.2484C80.0033 26.1349 79.9731 26.0243 79.9384 25.9168C79.9037 25.8094 79.8645 25.7053 79.8212 25.6039C79.7778 25.5025 79.7306 25.4038 79.6786 25.3085C79.6266 25.2131 79.5699 25.1209 79.5092 25.0317C79.4486 24.9424 79.3839 24.8561 79.3145 24.7729C79.2487 24.6863 79.1801 24.6017 79.1095 24.5194C79.0389 24.437 78.9659 24.3572 78.8905 24.2792C78.8151 24.2012 78.7373 24.1251 78.6571 24.0515C78.577 23.9778 78.4947 23.9065 78.4097 23.8371C78.3248 23.7678 78.2376 23.7007 78.1479 23.6357C78.0582 23.5707 77.9661 23.5079 77.8716 23.4472C77.8285 23.4195 77.783 23.394 77.7389 23.3672C77.7398 23.4157 77.7403 23.4627 77.7413 23.5113C77.7947 24.6327 77.8751 25.6876 77.9819 26.6755C78.0887 27.6634 78.2622 28.491 78.5025 29.1585C78.6516 29.5945 78.8405 30.0018 79.0636 30.3835Z" fill="#9C0402"/>
<path d="M71.0374 33.9668C68.6877 33.9668 66.8186 33.5796 65.4302 32.8053C64.0418 32.0309 63.3475 31.0297 63.3475 29.8014C63.3475 28.947 63.6279 28.3195 64.1886 27.919C64.776 27.4918 65.4703 27.2782 66.2713 27.2782C66.9121 27.2782 67.3794 27.385 67.6731 27.5986C67.9935 27.8122 68.2738 28.0258 68.5142 28.2394C68.7545 28.453 69.0482 28.5598 69.3953 28.5598C69.956 28.5598 70.2363 28.3596 70.2363 27.9591C70.2363 27.4251 69.9159 27.0379 69.2751 26.7976C68.661 26.5573 67.8867 26.2235 66.9521 25.7963C65.6705 25.1822 64.7493 24.4746 64.1886 23.6736C63.6279 22.8459 63.3475 22.0048 63.3475 21.1504C63.3475 20.1357 63.708 19.1745 64.4289 18.2667C65.1498 17.3588 66.1645 16.6112 67.4728 16.0238C68.8079 15.4364 70.3966 15.1427 72.2389 15.1427C73.7876 15.1427 75.176 15.3563 76.4042 15.7835C77.6325 16.2107 78.6071 16.7981 79.328 17.5457C80.0489 18.2667 80.4094 19.0677 80.4094 19.9488C80.4094 20.7765 80.1424 21.404 79.6083 21.8312C79.0743 22.2584 78.3801 22.472 77.5257 22.472C77.0451 22.472 76.6579 22.4053 76.3642 22.2718C76.0972 22.1116 75.8435 21.9647 75.6032 21.8312C75.3896 21.6977 75.0826 21.631 74.682 21.631C74.4684 21.631 74.2815 21.7111 74.1213 21.8713C73.9611 22.0048 73.881 22.1783 73.881 22.3919C73.881 22.5522 73.9478 22.7124 74.0813 22.8726C74.2148 23.0328 74.4417 23.1663 74.7621 23.2731C75.5899 23.5401 76.3909 23.8872 77.1652 24.3144C77.9662 24.7149 78.6204 25.2489 79.1277 25.9165C79.6618 26.5573 79.9288 27.385 79.9288 28.3996C79.9288 30.1352 79.1144 31.4969 77.4856 32.4849C75.8569 33.4728 73.7075 33.9668 71.0374 33.9668Z" fill="#03A64B"/>
<path d="M67.1553 18.7017C67.2927 18.6997 67.3436 18.6586 67.4309 18.605C68.4021 17.8495 69.6697 17.2406 71.5056 17.2765C71.6889 17.281 72.0599 17.1099 72.0349 16.6655C71.9391 16.0609 71.6275 16.042 70.6428 16.132C69.1133 16.2458 67.6743 16.8692 66.7361 17.6898C66.6592 17.7812 66.5822 17.8913 66.5781 18.1462C66.6112 18.6134 67.0195 18.7247 67.1553 18.7017Z" fill="#0DCF63"/>
<path d="M65.2031 24.7319C65.2366 24.6934 65.2718 24.6566 65.3044 24.6172C65.3881 24.5159 65.4684 24.4121 65.546 24.3048C65.5849 24.2493 65.6227 24.1927 65.6591 24.1354C65.6956 24.078 65.731 24.0195 65.765 23.9603C65.799 23.9011 65.8316 23.8411 65.8631 23.7801C65.8947 23.719 65.9249 23.6571 65.954 23.5942C65.9832 23.5313 66.011 23.4673 66.0377 23.4026C66.0644 23.3378 66.0904 23.2724 66.1146 23.2058C66.1389 23.1392 66.162 23.0718 66.1838 23.0034C66.2057 22.9349 66.2259 22.8655 66.2453 22.7952C66.2647 22.7249 66.283 22.6536 66.3 22.5814C66.317 22.5093 66.333 22.4365 66.3476 22.3625C66.3621 22.2885 66.3752 22.2131 66.3873 22.1373C66.3994 22.0614 66.4107 21.9852 66.4204 21.9075C66.4301 21.8298 66.4384 21.751 66.4457 21.6715C66.453 21.5919 66.4594 21.5112 66.4643 21.4298C66.4691 21.3484 66.4727 21.2662 66.4751 21.1829C66.4775 21.0997 66.4789 21.0155 66.4789 20.9304C66.4789 20.8453 66.4775 20.7608 66.4742 20.6763C66.4713 20.5918 66.4667 20.5072 66.4607 20.4232C66.4547 20.3393 66.447 20.2556 66.438 20.1723C66.429 20.0889 66.4185 20.0061 66.4065 19.9233C66.3945 19.8405 66.3807 19.7582 66.3657 19.676C66.3507 19.5938 66.3342 19.5118 66.3161 19.4301C66.2981 19.3485 66.2788 19.2669 66.2578 19.1859C66.2367 19.1048 66.2141 19.0241 66.1901 18.9436C66.166 18.8632 66.1407 18.7834 66.1137 18.7035C66.0866 18.6236 66.058 18.5437 66.0279 18.4644C65.9979 18.3851 65.966 18.3061 65.9329 18.2274C65.8999 18.1486 65.8652 18.07 65.8291 17.9919C65.793 17.9137 65.7556 17.836 65.7165 17.7584C65.6775 17.6809 65.6367 17.6035 65.5946 17.5265C65.5526 17.4496 65.5091 17.3732 65.464 17.2967C65.4553 17.2819 65.446 17.2671 65.4371 17.2523C65.0529 17.5652 64.7139 17.9026 64.4244 18.2671C64.2437 18.4947 64.0858 18.7259 63.9503 18.9602C63.956 18.9695 63.9618 18.9787 63.9674 18.9881C64.0107 19.0565 64.0527 19.1252 64.0934 19.1941C64.1341 19.2631 64.1737 19.3323 64.2116 19.4017C64.2496 19.4712 64.2859 19.5409 64.3211 19.6109C64.3564 19.6809 64.3903 19.7511 64.4229 19.8216C64.4554 19.8921 64.487 19.9628 64.5169 20.0338C64.5467 20.1049 64.5749 20.1761 64.6021 20.2476C64.6292 20.3192 64.6551 20.3914 64.6795 20.4635C64.7039 20.5356 64.727 20.6078 64.7487 20.6804C64.7704 20.753 64.7907 20.8258 64.8097 20.8989C64.8287 20.972 64.8461 21.0452 64.8623 21.1189C64.8786 21.1925 64.8937 21.2663 64.9073 21.3404C64.9208 21.4146 64.9331 21.4894 64.9439 21.564C64.9548 21.6387 64.9642 21.7135 64.9723 21.7887C64.9805 21.8639 64.9871 21.9392 64.9925 22.0149C64.9979 22.0906 65.0022 22.1669 65.0049 22.2432C65.0077 22.3194 65.0091 22.3957 65.0091 22.4725C65.0091 22.626 65.0044 22.7765 64.9957 22.9233C64.987 23.0702 64.974 23.2133 64.9565 23.3535C64.9477 23.4236 64.938 23.4932 64.927 23.5616C64.9161 23.63 64.904 23.6973 64.8909 23.7641C64.8777 23.8308 64.8633 23.8968 64.848 23.9619C64.8327 24.0269 64.816 24.0916 64.7985 24.155C64.7821 24.2142 64.7646 24.2723 64.7463 24.3301C64.8864 24.4672 65.0389 24.601 65.2031 24.7319Z" fill="#03834F"/>
<path d="M56.6426 33.9668C54.64 33.9668 52.8778 33.5796 51.3558 32.8053C49.8606 32.0042 48.6857 30.9229 47.8313 29.5611C47.0036 28.1727 46.5897 26.584 46.5897 24.795C46.5897 23.0595 47.0036 21.4574 47.8313 19.9889C48.6857 18.5203 49.8472 17.3455 51.3158 16.4644C52.811 15.5832 54.5199 15.1427 56.4423 15.1427C58.2313 15.1427 59.7666 15.5031 61.0482 16.2241C62.3299 16.945 63.3044 17.8662 63.972 18.9876C64.6662 20.0823 65.0133 21.2438 65.0133 22.472C65.0133 23.7003 64.7329 24.7149 64.1722 25.5159C63.6115 26.2903 62.8772 26.891 61.9694 27.3183C61.0883 27.7188 60.1404 27.9858 59.1258 28.1193C58.1111 28.2528 57.1365 28.2795 56.202 28.1994C55.2675 28.0926 54.4798 27.9324 53.839 27.7188C54.3196 28.4931 54.9204 29.0271 55.6413 29.3208C56.3889 29.5878 57.1633 29.708 57.9643 29.6813C58.792 29.6279 59.5396 29.5344 60.2071 29.4009C61.0349 29.214 61.7157 29.2541 62.2498 29.5211C62.7838 29.7881 63.0641 30.2153 63.0908 30.8027C63.1176 31.2833 62.944 31.7639 62.5702 32.2446C62.2231 32.7252 61.5822 33.139 60.6477 33.4861C59.7132 33.8066 58.3781 33.9668 56.6426 33.9668ZM53.9591 22.8325C54.2262 23.2597 54.6133 23.5668 55.1206 23.7537C55.6279 23.9139 56.1353 23.9673 56.6426 23.9139C57.1766 23.8605 57.6172 23.7136 57.9643 23.4733C58.3381 23.233 58.525 22.8993 58.525 22.472C58.525 22.0181 58.3381 21.6176 57.9643 21.2705C57.6172 20.8967 57.0564 20.7098 56.2821 20.7098C55.5345 20.7098 54.9604 20.9501 54.5599 21.4307C54.1594 21.8846 53.9591 22.3519 53.9591 22.8325Z" fill="#BE2C53"/>
<path d="M52.3855 18.3196C52.5349 18.3283 52.5928 18.2912 52.6913 18.2445C53.7968 17.5661 55.231 17.0876 57.2214 17.266C57.4201 17.2846 57.8174 17.1123 57.8205 16.667C57.7575 16.0563 57.4205 16.0132 56.3455 16.0266C54.6776 16.0214 53.0733 16.5316 51.9992 17.2774C51.9096 17.3627 51.8185 17.4666 51.7968 17.7205C51.801 18.1893 52.2365 18.332 52.3855 18.3196Z" fill="#DE728F"/>
<path d="M48.8307 30.8197C48.8937 30.7454 48.9564 30.671 49.0172 30.5945C49.0876 30.5058 49.1562 30.4157 49.2237 30.3239C49.2913 30.2321 49.3575 30.1388 49.4221 30.044C49.4867 29.9492 49.5499 29.8527 49.6116 29.7548C49.6732 29.6569 49.7336 29.5572 49.7923 29.4563C49.8511 29.3554 49.908 29.253 49.9638 29.149C50.0196 29.045 50.0741 28.9399 50.127 28.8329C50.1798 28.7259 50.231 28.6171 50.2809 28.5071C50.3308 28.397 50.3795 28.2855 50.4265 28.1724C50.4735 28.0576 50.5188 27.9419 50.5629 27.8249C50.6069 27.7078 50.6493 27.5898 50.6904 27.4706C50.7315 27.3514 50.7715 27.231 50.8097 27.1096C50.8479 26.9882 50.8845 26.8659 50.9197 26.7424C50.9549 26.6189 50.9886 26.4942 51.0209 26.3685C51.0532 26.2428 51.084 26.1158 51.1134 25.9879C51.1427 25.86 51.1706 25.7311 51.197 25.6011C51.2235 25.471 51.2484 25.3398 51.2719 25.2076C51.2954 25.0753 51.3175 24.9422 51.338 24.8078C51.3586 24.6734 51.3778 24.5375 51.3954 24.4009C51.413 24.2643 51.4292 24.127 51.4439 23.9883C51.4586 23.8495 51.4714 23.7093 51.4832 23.5684C51.4949 23.4275 51.5053 23.2854 51.5141 23.1423C51.5229 22.9992 51.5305 22.8554 51.5363 22.7101C51.5422 22.5648 51.5463 22.418 51.5493 22.2706C51.5521 22.1231 51.554 21.9745 51.554 21.8249C51.554 21.6787 51.5526 21.5349 51.5497 21.3926C51.5469 21.2504 51.5425 21.1101 51.5368 20.9717C51.5312 20.8334 51.5241 20.6971 51.5156 20.5627C51.5072 20.4283 51.497 20.2956 51.4857 20.1651C51.4743 20.0346 51.4621 19.9064 51.448 19.7798C51.4338 19.6532 51.418 19.5286 51.401 19.4059C51.384 19.2832 51.3655 19.1626 51.3457 19.0439C51.3259 18.9251 51.3048 18.8081 51.2822 18.6932C51.2596 18.5784 51.2359 18.4654 51.2104 18.3544C51.185 18.2435 51.1581 18.1346 51.1299 18.0275C51.1016 17.9205 51.0716 17.8156 51.0405 17.7125C51.0094 17.6094 50.9769 17.5085 50.9429 17.4094C50.909 17.3102 50.8738 17.2128 50.837 17.1176C50.8029 17.029 50.7673 16.9425 50.7307 16.8573C49.5521 17.6833 48.5966 18.7227 47.8665 19.9776C47.0388 21.4462 46.625 23.048 46.625 24.7836C46.625 26.5725 47.0388 28.1613 47.8665 29.5498C48.1519 30.0045 48.4739 30.4274 48.8307 30.8197Z" fill="#9C2444"/>
<path d="M40.5933 33.9668C38.6174 33.9668 36.8952 33.4861 35.4267 32.5249C33.9848 31.537 32.8634 30.1752 32.0624 28.4397C31.288 26.6774 30.9009 24.6482 30.9009 22.3519C30.9009 20.109 31.248 18.3468 31.9422 17.0651C32.6631 15.7835 33.6778 15.1427 34.9861 15.1427C35.9206 15.1427 36.6282 15.3162 37.1088 15.6633C37.6161 16.0104 37.9499 16.451 38.1101 16.985C38.297 17.4923 38.3905 18.0397 38.3905 18.6271C38.3905 19.3748 38.3371 20.1357 38.2303 20.9101C38.1502 21.6844 38.1101 22.5121 38.1101 23.3932C38.1101 24.6482 38.3638 25.5693 38.8711 26.1568C39.4051 26.7175 39.9792 26.9978 40.5933 26.9978C41.2608 26.9978 41.8349 26.7175 42.3155 26.1568C42.8228 25.5693 43.0765 24.6482 43.0765 23.3932C43.0765 22.5121 43.0364 21.7244 42.9563 21.0302C42.8762 20.336 42.8362 19.5483 42.8362 18.6672C42.8362 17.7327 43.0631 16.9183 43.517 16.2241C43.9709 15.5031 44.8788 15.1427 46.2405 15.1427C47.5489 15.1427 48.5501 15.7835 49.2444 17.0651C49.9386 18.3468 50.2857 20.109 50.2857 22.3519C50.2857 24.6482 49.9252 26.6774 49.2043 28.4397C48.4834 30.1752 47.402 31.537 45.9601 32.5249C44.545 33.4861 42.7561 33.9668 40.5933 33.9668Z" fill="#F1C22E"/>
<path d="M46.1496 16.6137C46.0486 16.2426 45.5919 16.182 45.4631 16.2188C45.3342 16.2557 44.5554 16.5409 44.2195 17.2264C43.8835 17.9119 43.948 18.2739 44.0014 18.5547C44.0547 18.8355 44.3921 18.945 44.6434 18.9375C44.8947 18.9299 45.1818 18.6692 45.1897 18.3869C45.1975 18.1047 45.217 17.9852 45.3199 17.7556C45.4228 17.526 45.688 17.4454 45.8799 17.3392C46.0717 17.2331 46.2506 16.9849 46.1496 16.6137Z" fill="#F7D77A"/>
<path d="M20.3832 5.93082C18.5141 5.95752 16.765 6.31801 15.1362 7.01223C13.5075 7.70645 12.0791 8.68136 10.8508 9.9363C9.64928 11.1912 8.70102 12.6594 8.0068 14.3415C7.31255 15.9969 6.93899 17.813 6.88562 19.7889C6.93898 21.738 7.31258 23.5536 8.0068 25.2357C8.70102 26.8912 9.64928 28.3462 10.8508 29.6012C12.0791 30.8561 13.4939 31.8441 15.0959 32.565C16.7247 33.2592 18.4875 33.6197 20.3832 33.6464C21.3978 33.6464 22.3858 33.5127 23.347 33.2457C24.335 32.9519 25.2827 32.5653 26.1905 32.0847C26.2615 32.1357 26.3324 32.1822 26.4033 32.2319C27.4751 33.1723 28.828 34.3504 30.0726 35.4586C31.3818 36.7618 32.5028 37.7845 33.4351 38.5262C34.3677 39.2331 35.1989 39.6254 35.9295 39.7032C36.6777 39.7637 37.4041 39.4495 38.1083 38.7607C38.8126 38.0718 39.143 37.3524 39.0989 36.603C39.0549 35.8536 38.6897 35.005 38.0035 34.057C37.3001 33.0913 36.2936 31.9569 34.9844 30.6537C34.1675 29.7832 33.2038 28.6775 32.4007 27.7399C32.1967 27.4453 31.9701 27.1451 31.7174 26.8382C32.3849 25.7435 32.9189 24.5946 33.3194 23.3931C33.7466 22.1915 33.9739 20.9904 34.0006 19.7889C33.9472 17.8397 33.5601 16.0372 32.8391 14.3818C32.1449 12.6996 31.1831 11.231 29.9548 9.97606C28.7266 8.72113 27.2982 7.74622 25.6694 7.052C24.0407 6.33108 22.279 5.95752 20.3832 5.93082Z" fill="#127CA6"/>
<path d="M33.2771 15.5688C33.2859 15.6045 33.296 15.6241 33.305 15.652C33.3396 15.76 33.3726 15.8686 33.4047 15.9778C33.4367 16.087 33.4677 16.197 33.4971 16.3073C33.5265 16.4177 33.5545 16.5284 33.5813 16.6399C33.6081 16.7514 33.6335 16.8634 33.6577 16.9761C33.6819 17.0887 33.7048 17.2021 33.7264 17.3159C33.748 17.4297 33.7683 17.5439 33.7873 17.6588C33.8063 17.7738 33.8242 17.8893 33.8405 18.0054C33.8569 18.1214 33.8717 18.2383 33.8855 18.3555C33.8992 18.4727 33.912 18.5909 33.9232 18.7093C33.9343 18.8276 33.944 18.9466 33.9526 19.0661C33.9612 19.1856 33.9684 19.3054 33.9743 19.4261C33.9803 19.5467 33.9849 19.6683 33.9882 19.7902C33.9849 19.9404 33.9782 20.0903 33.9686 20.2405C33.959 20.3907 33.9463 20.5407 33.9304 20.6908C33.9145 20.841 33.8957 20.9915 33.8736 21.1417C33.8515 21.2918 33.8261 21.4418 33.7977 21.592C33.7693 21.7422 33.7378 21.8922 33.7032 22.0423C33.6685 22.1925 33.631 22.343 33.5901 22.4932C33.5492 22.6434 33.505 22.7933 33.4579 22.9435C33.4107 23.0937 33.3605 23.2442 33.3071 23.3944C33.257 23.5446 33.2048 23.6936 33.1506 23.8421C33.0963 23.9907 33.0401 24.1383 32.9817 24.2852C32.9233 24.4321 32.863 24.5784 32.8004 24.7237C32.7379 24.8689 32.673 25.0134 32.6063 25.157C32.5395 25.3005 32.4706 25.4432 32.3997 25.5851C32.3288 25.727 32.2558 25.8678 32.1807 26.0081C32.1056 26.1483 32.0286 26.2878 31.9494 26.4264C31.8701 26.5649 31.7885 26.7027 31.7051 26.8395C31.8314 26.9929 31.9513 27.1442 32.065 27.2945C32.1788 27.4447 32.2863 27.5939 32.3883 27.7412C32.5891 27.9756 32.7997 28.2203 33.0158 28.4694C33.2318 28.7185 33.4536 28.9717 33.6753 29.2229C33.897 29.4741 34.1191 29.7232 34.3368 29.964C34.5546 30.2047 34.7678 30.4373 34.9721 30.655C35.1357 30.8179 35.2945 30.9781 35.4487 31.1358C35.6029 31.2934 35.7523 31.4482 35.897 31.6005C36.0417 31.7529 36.1821 31.9028 36.3174 32.0498C36.4526 32.1969 36.583 32.3413 36.7088 32.4831C36.8346 32.6249 36.9556 32.7639 37.0719 32.9004C37.1882 33.0369 37.3002 33.1709 37.407 33.3022C37.4561 33.3624 37.5005 33.4202 37.5475 33.4793C37.9643 33.6105 38.3964 33.7121 38.8438 33.7851C38.8148 33.749 38.7882 33.7146 38.7586 33.6782C38.647 33.5411 38.5304 33.4014 38.4089 33.2588C38.2874 33.1162 38.1612 32.971 38.0299 32.8229C37.8985 32.6749 37.7621 32.5236 37.6209 32.37C37.4796 32.2164 37.3335 32.0602 37.1824 31.9011C37.0313 31.742 36.875 31.5803 36.714 31.4157C36.553 31.251 36.387 31.0838 36.2161 30.9137C36.0029 30.6864 35.7799 30.4436 35.5525 30.1922C35.3251 29.9408 35.0935 29.6804 34.8621 29.4181C34.6306 29.1557 34.3992 28.8912 34.1736 28.631C33.9481 28.3709 33.728 28.1156 33.5183 27.8708C33.4118 27.717 33.2993 27.5614 33.1805 27.4045C33.0617 27.2476 32.9365 27.0896 32.8046 26.9294C32.8917 26.7865 32.9769 26.6423 33.0597 26.4976C33.1425 26.353 33.223 26.2077 33.3014 26.0612C33.3798 25.9148 33.4556 25.7673 33.5296 25.6192C33.6037 25.471 33.6758 25.3224 33.7455 25.1725C33.8152 25.0225 33.8826 24.8717 33.948 24.7201C34.0133 24.5684 34.0765 24.4159 34.1375 24.2625C34.1985 24.1091 34.2575 23.9549 34.3141 23.7998C34.3707 23.6447 34.425 23.4887 34.4773 23.3319C34.5331 23.175 34.5856 23.0182 34.6348 22.8614C34.6841 22.7046 34.73 22.5478 34.7727 22.3909C34.8154 22.2341 34.8548 22.0773 34.891 21.9205C34.9272 21.7636 34.9605 21.6068 34.9901 21.45C35.0198 21.2932 35.046 21.1363 35.0691 20.9795C35.0923 20.8227 35.1119 20.6659 35.1285 20.509C35.1451 20.3522 35.1588 20.1954 35.1688 20.0386C35.1789 19.8817 35.1855 19.7249 35.189 19.5681C35.1856 19.4409 35.1807 19.314 35.1745 19.188C35.1683 19.062 35.1607 18.9363 35.1518 18.8115C35.1428 18.6867 35.1325 18.5628 35.1208 18.4392C35.1092 18.3155 35.096 18.1923 35.0816 18.0699C35.0672 17.9475 35.0517 17.8255 35.0345 17.7043C35.0174 17.583 34.9991 17.4628 34.9793 17.3428C34.9594 17.2227 34.9383 17.1032 34.9158 16.9844C34.8932 16.8655 34.8693 16.7472 34.844 16.6296C34.8187 16.5119 34.7919 16.3948 34.7639 16.2784C34.7359 16.1619 34.7063 16.0461 34.6756 15.9308C34.6449 15.8156 34.613 15.7009 34.5796 15.5869C34.5461 15.4728 34.5114 15.3594 34.4752 15.2466C34.4645 15.213 34.4585 15.212 34.4475 15.1785C33.8464 15.2127 33.2683 15.5331 33.2771 15.5688Z" fill="#D9AA0E"/>
<g style="mix-blend-mode:hard-light" opacity="0.519669">
<path d="M9.94373 15.5107C9.94373 15.5107 10.351 13.8648 12.1423 11.7946C13.9336 9.72448 15.5213 9.2962 15.7676 9.17557" stroke="#E8E8E8" stroke-width="1.47197" stroke-linecap="round" stroke-linejoin="round"/>
</g>
<path d="M18.1701 9.2391C18.6235 9.2391 18.991 8.89784 18.991 8.47687C18.991 8.05589 18.6235 7.71463 18.1701 7.71463C17.7168 7.71463 17.3492 8.05589 17.3492 8.47687C17.3492 8.89784 17.7168 9.2391 18.1701 9.2391Z" fill="#77B4CC"/>
<path d="M17.816 28.0877C22.4015 29.4876 27.2612 26.9299 28.6705 22.3749C30.0797 17.8199 27.5049 12.9925 22.9194 11.5927C18.3339 10.1928 13.4741 12.7505 12.0649 17.3055C10.6556 21.8605 13.2305 26.6878 17.816 28.0877Z" fill="#B3D2EC"/>
<path d="M18.199 11.4645C17.8906 11.544 17.5867 11.6406 17.2889 11.7537L27.8662 24.1993C28.024 23.9254 28.1898 23.6241 28.3167 23.3345L18.199 11.4645Z" fill="#DAE9F6"/>
<path d="M16.8135 11.9593C16.2742 12.2009 15.7611 12.4973 15.2823 12.8437L26.4661 26.0177C26.8837 25.6032 27.2705 25.1338 27.5952 24.6433L16.8135 11.9593Z" fill="#DAE9F6"/>
<path d="M14.7594 13.246C13.7732 14.0849 12.9885 15.135 12.4634 16.3185L22.5307 28.2276C23.783 27.8991 24.9715 27.2924 25.9577 26.4536L14.7594 13.246Z" fill="#DAE9F6"/>
</g>
</g>
<defs>
<filter id="filter0_d_1271_1924" x="-0.000488281" y="0" width="111.199" height="48" filterUnits="userSpaceOnUse" color-interpolation-filters="sRGB">
<feFlood flood-opacity="0" result="BackgroundImageFix"/>
<feColorMatrix in="SourceAlpha" type="matrix" values="0 0 0 0 0 0 0 0 0 0 0 0 0 0 0 0 0 0 127 0" result="hardAlpha"/>
<feOffset dy="1"/>
<feGaussianBlur stdDeviation="2"/>
<feComposite in2="hardAlpha" operator="out"/>
<feColorMatrix type="matrix" values="0 0 0 0 0 0 0 0 0 0 0 0 0 0 0 0 0 0 0.25 0"/>
<feBlend mode="normal" in2="BackgroundImageFix" result="effect1_dropShadow_1271_1924"/>
<feBlend mode="normal" in="SourceGraphic" in2="effect1_dropShadow_1271_1924" result="shape"/>
</filter>
<clipPath id="clip0_1271_1924">
<rect width="112" height="48" fill="white"/>
</clipPath>
</defs>
</svg>
