<svg width="30" height="30" viewBox="0 0 30 30" fill="none" xmlns="http://www.w3.org/2000/svg">
<rect width="30" height="30" rx="15" fill="white"/>
<path d="M8.125 14C8.125 10.7553 10.7553 8.125 14 8.125C17.2447 8.125 19.875 10.7553 19.875 14C19.875 17.2447 17.2447 19.875 14 19.875C10.7553 19.875 8.125 17.2447 8.125 14ZM14 5.875C9.51268 5.875 5.875 9.51268 5.875 14C5.875 18.4873 9.51268 22.125 14 22.125C15.8378 22.125 17.5335 21.5147 18.8947 20.4858L22.2045 23.7955C22.6438 24.2348 23.3562 24.2348 23.7955 23.7955C24.2348 23.3562 24.2348 22.6438 23.7955 22.2045L20.4858 18.8947C21.5147 17.5335 22.125 15.8378 22.125 14C22.125 9.51268 18.4873 5.875 14 5.875Z" fill="#08394C" stroke="#08394C" stroke-width="0.25"/>
</svg>
