<svg width="75" height="75" viewBox="0 0 75 75" fill="none" xmlns="http://www.w3.org/2000/svg">
<g clip-path="url(#clip0_1812_2834)">
<mask id="mask0_1812_2834" style="mask-type:alpha" maskUnits="userSpaceOnUse" x="0" y="0" width="75" height="75">
<circle cx="37.5" cy="37.5" r="37.5" fill="#D9D9D9"/>
</mask>
<g mask="url(#mask0_1812_2834)">
<circle cx="37.5" cy="37.5" r="35" fill="#F8FBFC" stroke="#F1C22E" stroke-width="5"/>
<path d="M55.9614 71.2446C56.0034 71.0528 56.0418 70.8604 56.0764 70.6673C56.1392 70.2702 56.1864 69.871 56.2178 69.4706C56.2494 69.0702 56.2653 68.6688 56.2653 68.2672C56.2654 68.1312 56.2637 67.9951 56.2602 67.8591C56.2561 67.723 56.2501 67.5869 56.2423 67.4509C56.2353 67.3152 56.2266 67.1796 56.216 67.0441C56.205 66.9088 56.1922 66.7736 56.1776 66.6386C56.1632 66.5032 56.1469 66.368 56.1288 66.233C56.1109 66.0981 56.0911 65.9633 56.0695 65.8288C56.048 65.6943 56.0246 65.56 55.9995 65.426C55.974 65.2922 55.9467 65.1588 55.9177 65.0257C55.889 64.8924 55.8586 64.7594 55.8265 64.6268C55.7939 64.4943 55.7595 64.3622 55.7234 64.2306C55.6878 64.0989 55.6504 63.9677 55.6112 63.8369C55.5716 63.7061 55.5301 63.5758 55.487 63.4459C55.4442 63.3164 55.3997 63.1874 55.3535 63.0589C55.3073 62.9302 55.2593 62.8021 55.2097 62.6745C55.1598 62.5467 55.1083 62.4194 55.055 62.2928C55.0021 62.1667 54.9474 62.0412 54.8912 61.9163C54.8347 61.7915 54.7766 61.6673 54.7168 61.5438C54.6569 61.4203 54.5953 61.2974 54.532 61.1753C54.4693 61.053 54.405 60.9315 54.339 60.8107C54.2724 60.6902 54.2041 60.5704 54.1343 60.4515C54.065 60.3326 53.9941 60.2146 53.9216 60.0975C53.8492 59.9803 53.7753 59.8641 53.6998 59.7487C53.6238 59.6333 53.5462 59.5188 53.4672 59.4053C53.3886 59.2916 53.3085 59.1789 53.2269 59.0671C53.1451 58.9556 53.0619 58.8451 52.9772 58.7356C52.8923 58.6258 52.806 58.5171 52.7183 58.4093C52.6307 58.3017 52.5418 58.1952 52.4514 58.0897C52.3608 57.9842 52.2688 57.8799 52.1754 57.7766C52.0821 57.6738 51.9874 57.5721 51.8914 57.4715C51.7954 57.3704 51.6981 57.2704 51.5995 57.1717C51.5008 57.0732 51.4008 56.9758 51.2996 56.8797C51.1987 56.7834 51.0966 56.6883 50.9932 56.5944C50.8892 56.5007 50.7839 56.4082 50.6775 56.317C50.5712 56.2259 50.4638 56.1361 50.3552 56.0476C50.2467 55.9591 50.1371 55.8719 50.0263 55.786C49.9151 55.7001 49.8028 55.6156 49.6894 55.5324C49.5765 55.4491 49.4625 55.3672 49.3473 55.2867C49.2317 55.2061 49.115 55.1268 48.9973 55.0489C48.8798 54.9714 48.7614 54.8952 48.6419 54.8204C48.5227 54.7455 48.4025 54.6719 48.2814 54.5998C48.1595 54.5279 48.0366 54.4575 47.9128 54.3885C47.7895 54.3197 47.6654 54.2523 47.5403 54.1864C47.4153 54.1202 47.2893 54.0555 47.1625 53.9923C47.0357 53.9295 46.908 53.8683 46.7795 53.8086C46.6508 53.7485 46.5214 53.69 46.3911 53.633C46.2611 53.5764 46.1303 53.5213 45.9988 53.4679C45.8674 53.4143 45.7353 53.3623 45.6025 53.312C45.4693 53.2615 45.3355 53.2126 45.201 53.1654C45.0669 53.1179 44.9322 53.0722 44.7968 53.028C44.6613 52.9841 44.5253 52.9418 44.3887 52.9012C44.2523 52.8604 44.1153 52.8212 43.9778 52.7836C43.8401 52.7463 43.7018 52.7106 43.5631 52.6766C43.4248 52.6428 43.2861 52.6107 43.147 52.5802C43.0074 52.5495 42.8673 52.5204 42.7269 52.493C42.5868 52.4654 42.4464 52.4394 42.3056 52.4151C42.1645 52.3914 42.0232 52.3694 41.8816 52.349C41.7401 52.3284 41.5983 52.3095 41.4562 52.2922C41.3142 52.2751 41.172 52.2597 41.0296 52.246C40.8871 52.232 40.7444 52.2196 40.6016 52.209C40.4591 52.199 40.3164 52.1906 40.1737 52.184C40.0306 52.177 39.8875 52.1717 39.7444 52.1681C39.6013 52.1646 39.4582 52.1628 39.3151 52.1628C38.8924 52.1627 38.4698 52.1777 38.0483 52.2077C37.6267 52.2376 37.2063 52.2826 36.7882 52.3424C36.3702 52.4025 35.9547 52.4774 35.5426 52.5669C35.1309 52.6563 34.7229 52.7603 34.3194 52.8787C33.9154 52.997 33.5162 53.1296 33.1227 53.2763C32.729 53.4227 32.3413 53.5831 31.9603 53.7571C31.5797 53.9313 31.206 54.119 30.8401 54.3198C30.4739 54.5205 30.1157 54.7342 29.7663 54.9604C29.4171 55.1869 29.0769 55.4257 28.7465 55.6763C28.4162 55.9269 28.0959 56.189 27.7862 56.4623C27.4762 56.7351 27.177 57.0189 26.8893 57.313C26.6018 57.6073 26.326 57.9118 26.0624 58.2257C25.7992 58.5399 25.5485 58.8633 25.3108 59.1952C25.0725 59.527 24.8474 59.8672 24.6359 60.215C24.4247 60.5627 24.2273 60.9179 24.0441 61.2796C23.8606 61.6416 23.6914 62.0099 23.5369 62.3839C23.3825 62.7575 23.2428 63.1364 23.1181 63.5199C22.9937 63.9038 22.8844 64.2919 22.7906 64.6836C22.6962 65.0752 22.6174 65.4699 22.5541 65.8671C22.4913 66.2642 22.4442 66.6634 22.4128 67.0639C22.3811 67.4643 22.3653 67.8657 22.3652 68.2672C22.3688 68.4725 22.3764 68.6777 22.3882 68.8827C26.5642 71.8323 32.2315 73.7492 39.2707 73.7106C46.6588 73.6702 52.0199 73.0732 55.9614 71.2446Z" fill="#B6DAE6"/>
<path d="M35.1005 21.5786C32.0978 21.5743 29.499 22.3423 27.9505 24.1002C24.8572 30.9215 24.6666 33.359 21.4926 37.8006C18.3186 42.2423 12.2638 50.5201 14.6516 58.4873C15.8135 62.3641 18.4316 66.0873 22.3895 68.8828C22.3777 68.6778 22.37 68.4726 22.3665 68.2673C22.3665 67.8657 22.3824 67.4643 22.414 67.0639C22.4454 66.6635 22.4925 66.2643 22.5553 65.8672C22.6186 65.47 22.6975 65.0752 22.7918 64.6837C22.8857 64.292 22.995 63.9038 23.1194 63.52C23.244 63.1365 23.3837 62.7575 23.5381 62.384C23.6926 62.01 23.8618 61.6416 24.0453 61.2797C24.2286 60.9179 24.4259 60.5628 24.6371 60.215C24.8486 59.8673 25.0737 59.5271 25.312 59.1953C25.5498 58.8633 25.8005 58.5399 26.0637 58.2258C26.3272 57.9118 26.6031 57.6074 26.8906 57.313C27.1783 57.0189 27.4774 56.7352 27.7874 56.4624C28.0971 56.1891 28.4174 55.9269 28.7477 55.6764C29.0781 55.4258 29.4183 55.187 29.7675 54.9605C30.1169 54.7343 30.4751 54.5206 30.8414 54.3199C31.2073 54.1191 31.5809 53.9314 31.9615 53.7571C32.3425 53.5832 32.7302 53.4228 33.1239 53.2763C33.5174 53.1297 33.9167 52.9971 34.3207 52.8788C34.7241 52.7604 35.1321 52.6564 35.5438 52.567C35.9559 52.4774 36.3714 52.4025 36.7894 52.3425C37.2075 52.2826 37.6279 52.2377 38.0495 52.2077C38.4711 52.1778 38.8936 52.1628 39.3163 52.1628C39.4594 52.1629 39.6025 52.1647 39.7456 52.1682C39.8887 52.1718 40.0319 52.177 40.1749 52.184C40.3177 52.1907 40.4603 52.199 40.6028 52.2091C40.7456 52.2197 40.8883 52.232 41.0308 52.2461C41.1732 52.2598 41.3155 52.2752 41.4575 52.2923C41.5995 52.3095 41.7413 52.3285 41.8828 52.3491C42.0244 52.3694 42.1658 52.3914 42.3068 52.4152C42.4476 52.4394 42.5881 52.4654 42.7282 52.4931C42.8686 52.5205 43.0086 52.5495 43.1482 52.5803C43.2873 52.6108 43.426 52.6429 43.5643 52.6767C43.703 52.7107 43.8413 52.7464 43.9791 52.7837C44.1165 52.8212 44.2535 52.8604 44.3899 52.9013C44.5265 52.9419 44.6626 52.9842 44.798 53.0281C44.9334 53.0722 45.0681 53.118 45.2022 53.1654C45.3367 53.2127 45.4706 53.2616 45.6038 53.312C45.7366 53.3624 45.8687 53.4144 46.0001 53.4679C46.1316 53.5214 46.2623 53.5764 46.3924 53.633C46.5226 53.69 46.6521 53.7486 46.7807 53.8087C46.9092 53.8684 47.0369 53.9296 47.1638 53.9923C47.2906 54.0555 47.4165 54.1203 47.5415 54.1865C47.6666 54.2523 47.7908 54.3197 47.914 54.3886C48.0378 54.4575 48.1607 54.528 48.2826 54.5999C48.4037 54.672 48.5239 54.7455 48.6432 54.8205C48.7626 54.8953 48.8811 54.9714 48.9985 55.049C49.1162 55.1269 49.2329 55.2061 49.3486 55.2868C49.4637 55.3673 49.5777 55.4492 49.6907 55.5325C49.8041 55.6157 49.9163 55.7002 50.0275 55.7861C50.1383 55.872 50.2479 55.9591 50.3564 56.0476C50.465 56.1362 50.5724 56.226 50.6787 56.3171C50.7851 56.4083 50.8904 56.5008 50.9944 56.5945C51.0978 56.6884 51.1999 56.7835 51.3008 56.8798C51.4021 56.9759 51.502 57.0732 51.6007 57.1717C51.6993 57.2705 51.7966 57.3705 51.8926 57.4716C51.9886 57.5721 52.0833 57.6739 52.1766 57.7767C52.27 57.8799 52.362 57.9843 52.4527 58.0898C52.543 58.1952 52.632 58.3018 52.7195 58.4094C52.8072 58.5171 52.8935 58.6259 52.9784 58.7357C53.0631 58.8452 53.1463 58.9557 53.2281 59.0672C53.3097 59.179 53.3898 59.2917 53.4684 59.4054C53.5474 59.5189 53.625 59.6334 53.701 59.7488C53.7765 59.8642 53.8504 59.9804 53.9228 60.0975C53.9953 60.2147 54.0662 60.3327 54.1355 60.4515C54.2054 60.5705 54.2736 60.6902 54.3402 60.8108C54.4062 60.9316 54.4705 61.0531 54.5332 61.1754C54.5965 61.2975 54.6581 61.4203 54.7181 61.5439C54.7778 61.6674 54.8359 61.7915 54.8924 61.9164C54.9487 62.0412 55.0033 62.1667 55.0562 62.2929C55.1095 62.4195 55.161 62.5467 55.2109 62.6746C55.2605 62.8022 55.3085 62.9303 55.3548 63.059C55.401 63.1875 55.4455 63.3165 55.4882 63.446C55.5314 63.5758 55.5728 63.7062 55.6124 63.837C55.6516 63.9678 55.689 64.099 55.7247 64.2306C55.7608 64.3623 55.7951 64.4944 55.8277 64.6269C55.8599 64.7595 55.8903 64.8925 55.9189 65.0258C55.9479 65.1589 55.9752 65.2923 56.0007 65.426C56.0259 65.5601 56.0492 65.6944 56.0707 65.8289C56.0923 65.9634 56.1121 66.0982 56.1301 66.2331C56.1481 66.3681 56.1644 66.5033 56.1789 66.6386C56.1934 66.7736 56.2062 66.9088 56.2172 67.0441C56.2278 67.1796 56.2366 67.3153 56.2436 67.451C56.2513 67.587 56.2573 67.723 56.2614 67.8592C56.2649 67.9952 56.2666 68.1312 56.2665 68.2673C56.2665 68.6688 56.2506 69.0702 56.219 69.4707C54.5332 68.7711 50.6017 66.0746 52.9784 68.8828C50.3691 67.0982 53.9998 64.4737 53.701 67.8592C57.0742 66.2942 61.8287 65.3442 63.4999 61.5439C67.1241 53.3029 61.3551 49.056 58.5912 42.6775C55.8273 36.2989 55.7358 30.289 48.8377 25.8663C44.742 23.2403 39.4891 21.585 35.1005 21.5786Z" fill="#409ABE"/>
<path d="M38.9287 27.0622C38.0191 27.9717 34.7116 29.8766 31.6509 28.0486C28.5901 26.2205 35.088 21.5627 35.088 21.5627C35.088 21.5627 27.8124 13.3871 33.6533 15.2861C39.4943 17.1851 40.199 22.2502 40.199 22.2502C40.1862 24.6868 39.8383 26.1528 38.9287 27.0622Z" fill="#1F6885"/>
<path d="M32.8615 36.9255C33.7446 36.9255 34.4605 35.8683 34.4605 34.5643C34.4605 33.2602 33.7446 32.2031 32.8615 32.2031C31.9784 32.2031 31.2625 33.2602 31.2625 34.5643C31.2625 35.8683 31.9784 36.9255 32.8615 36.9255Z" fill="#1D1E20"/>
<path d="M44.737 36.9052C45.6201 36.9052 46.336 35.8481 46.336 34.544C46.336 33.24 45.6201 32.1828 44.737 32.1828C43.8539 32.1828 43.1379 33.24 43.1379 34.544C43.1379 35.8481 43.8539 36.9052 44.737 36.9052Z" fill="#1D1E20"/>
<path d="M35.6777 41.0024C36.6917 43.7761 38.8664 46.5123 38.8664 46.5123C38.8664 46.5123 41.2351 43.9904 42.3139 41.0024C43.3927 38.0144 39.8825 37.2405 38.9834 37.2481C38.0843 37.2558 34.6637 38.2287 35.6777 41.0024Z" fill="#DEAF2F"/>
<path d="M21.7876 37.3439C21.7876 37.3439 27.9386 41.5018 26.9583 46.7887C25.9781 52.0756 22.5348 53.4838 22.5348 53.4838C22.5348 53.4838 20.9631 62.8743 16.6766 62.271C12.3901 61.6677 11.4688 57.6119 12.2531 52.9458C13.0374 48.2797 21.7876 37.3439 21.7876 37.3439Z" fill="#1F6885"/>
<path d="M57.3701 39.481C57.3701 39.481 50.2692 47.3085 52.6029 51.272C54.9366 55.2356 57.8633 55.2173 57.8633 55.2173C57.8633 55.2173 56.9169 58.8053 59.4773 62.1515C62.0377 65.4977 63.4708 64.2732 64.4986 63.4068C65.5263 62.5404 65.9219 58.1882 64.8572 54.5C63.7926 50.8118 57.3701 39.481 57.3701 39.481Z" fill="#1F6885"/>
<circle cx="37.5" cy="37.5" r="35" stroke="#F1C22E" stroke-width="5"/>
</g>
</g>
<defs>
<clipPath id="clip0_1812_2834">
<rect width="75" height="75" fill="white"/>
</clipPath>
</defs>
</svg>
