<svg width="167" height="166" viewBox="0 0 167 166" fill="none" xmlns="http://www.w3.org/2000/svg">
<g clip-path="url(#clip0_2_2)">
<path d="M83.5 166C129.34 166 166.5 128.84 166.5 83C166.5 37.1604 129.34 0 83.5 0C37.6604 0 0.5 37.1604 0.5 83C0.5 128.84 37.6604 166 83.5 166Z" fill="#DAE1E4"/>
<mask id="mask0_2_2" style="mask-type:luminance" maskUnits="userSpaceOnUse" x="30" y="30" width="107" height="106">
<path d="M136.5 30H30.5V136H136.5V30Z" fill="white"/>
</mask>
<g mask="url(#mask0_2_2)">
<path d="M136.5 69.8472C136.5 56.1084 127.272 50.6111 115.889 50.6111C111.116 50.6111 106.216 51.6535 102.121 53.6351C96.8177 50.0164 90.5814 47.8492 83.5 47.8492C76.4186 47.8492 70.1823 50.0164 64.8793 53.6351C60.7836 51.6535 55.8841 50.6111 51.1111 50.6111C39.7279 50.6111 30.5 56.1084 30.5 69.8472C30.5 81.1656 36.7658 88.7417 45.3341 91.0649C45.2041 92.6427 45.1373 94.2251 45.1339 95.8084C45.1339 112.677 58.4428 118.407 70.4002 120.324C73.6332 122.712 78.2942 124.222 83.5 124.222C88.7058 124.222 93.3668 122.712 96.5998 120.327C108.56 118.41 121.866 112.68 121.866 95.8113C121.866 94.2272 121.792 92.646 121.666 91.0678C130.234 88.7417 136.5 81.1656 136.5 69.8472Z" fill="#99AAB5"/>
<path d="M58.6313 59.0145C57.6983 58.9132 56.7607 58.8602 55.8223 58.8555C46.7151 58.8555 39.3334 63.2516 39.3334 74.2432C39.3334 80.5855 41.8008 85.4556 45.6286 88.4472C47.0213 77.2671 51.5322 66.6112 58.6313 59.0145ZM111.178 58.8555C110.244 58.8555 109.302 58.9174 108.366 59.0145C115.468 66.6112 119.976 77.2671 121.369 88.4501C125.199 85.4556 127.667 80.5885 127.667 74.2432C127.667 63.2516 120.285 58.8555 111.178 58.8555Z" fill="#66757F"/>
<path d="M94.4768 103.043C94.4768 112.892 89.3888 115.389 83.4999 115.389C77.6111 115.389 72.526 112.892 72.526 103.043C72.526 93.1936 77.6111 85.2083 83.4999 85.2083C89.3888 85.2083 94.4768 93.1936 94.4768 103.043Z" fill="#292F33"/>
<path d="M67.3056 92.9375C69.7448 92.9375 71.7222 90.9601 71.7222 88.5209C71.7222 86.0816 69.7448 84.1042 67.3056 84.1042C64.8663 84.1042 62.8889 86.0816 62.8889 88.5209C62.8889 90.9601 64.8663 92.9375 67.3056 92.9375Z" fill="#292F33"/>
<path d="M99.6945 92.9375C102.134 92.9375 104.111 90.9601 104.111 88.5209C104.111 86.0816 102.134 84.1042 99.6945 84.1042C97.2552 84.1042 95.2778 86.0816 95.2778 88.5209C95.2778 90.9601 97.2552 92.9375 99.6945 92.9375Z" fill="#292F33"/>
</g>
</g>
<defs>
<clipPath id="clip0_2_2">
<rect width="167" height="166" fill="white"/>
</clipPath>
</defs>
</svg>
