<svg width="75" height="75" viewBox="0 0 75 75" fill="none" xmlns="http://www.w3.org/2000/svg">
<g clip-path="url(#clip0_1812_2696)">
<mask id="mask0_1812_2696" style="mask-type:alpha" maskUnits="userSpaceOnUse" x="0" y="0" width="75" height="75">
<circle cx="37.5" cy="37.5" r="37.5" fill="#D9D9D9"/>
</mask>
<g mask="url(#mask0_1812_2696)">
<circle cx="37.5" cy="37.5" r="35" fill="#F8FBFC" stroke="#F18322" stroke-width="5"/>
<path d="M25.798 51.3176C25.798 51.3176 20.3699 57.7856 18.4998 64C16.6297 70.2144 19.4998 65 19.4998 65L37.4116 73.0884L54.6698 67.5776C54.6698 67.5776 55.3259 71.5667 54.6698 65C54.0136 58.4333 53.0794 55.0485 53.0794 55.0485L25.798 51.3176Z" fill="#EBA43E"/>
<path d="M40.7224 15.5845C40.7224 15.5845 45.53 12.1755 50.8705 14.0492C56.211 15.9229 56.1578 20.1282 56.1578 20.1282C56.1578 20.1282 60.2936 20.3373 62.4449 23.9171C64.5961 27.4968 62.6381 33.005 62.6381 33.005C62.6381 33.005 64.5341 33.656 64.4892 37.7486C64.4444 41.8411 61.1165 41.9217 61.1165 41.9217C61.1165 41.9217 63.2961 43.9795 61.7543 47.3432C60.2125 50.7069 57.9773 50.3232 57.9773 50.3232C57.9773 50.3232 58.2243 52.8008 56.4583 54.003C54.6924 55.2052 53.4901 53.4698 53.4901 53.4698C53.4901 53.4698 53.6384 57.3581 50.2683 58.8169C46.8983 60.2757 44.7823 58.2788 44.7823 58.2788C44.7823 58.2788 44.5682 60.4629 42.0854 60.2946C39.6026 60.1263 39.7551 58.632 39.7551 58.632C39.7551 58.632 39.5765 62.296 35.8517 61.5648C32.1269 60.8336 32.2012 58.0411 32.2012 58.0411C32.2012 58.0411 30.9109 59.6629 28.1923 58.5589C25.4738 57.4548 25.7573 55.0574 25.7573 55.0574C25.7573 55.0574 21.5864 57.3799 18.8961 52.9977C16.2058 48.6154 20.1736 45.3403 20.1736 45.3403C20.1736 45.3403 15.8346 44.8378 14.1858 40.9433C12.5369 37.0488 16.4683 35.6052 16.4683 35.6052C16.4683 35.6052 12.3417 35.7984 13.5279 31.9149C14.714 28.0314 17.8791 27.2057 17.8791 27.2057C17.8791 27.2057 17.0725 24.1449 19.7347 21.2762C22.3969 18.4075 25.6213 20.1643 25.6213 20.1643C25.6213 20.1643 24.5528 16.0215 30.8541 13.4809C37.1554 10.9403 40.7224 15.5845 40.7224 15.5845Z" fill="#623B20"/>
<path d="M39.5101 24.8234C41.838 25.0952 44.6234 24.1208 47.1463 25.3302C49.6692 26.5397 51.6199 28.0428 52.8183 31.4296C54.0168 34.8165 53.4122 42.8589 51.6319 46.703C49.8516 50.5471 41.9426 55.5143 36.5813 54.5644C31.22 53.6145 26.3977 48.8557 24.6756 44.9215C22.9535 40.9874 24.7605 32.7788 25.7577 30.2725C26.7549 27.7662 29.9511 24.497 32.8725 23.9414C35.7938 23.3857 37.1821 24.5517 39.5101 24.8234Z" fill="#EBA43E"/>
<path d="M27.8765 23.6436C27.2475 21.6274 22.9136 19.4946 20.7183 22.5875C18.523 25.6804 20.3811 29.6927 22.8773 29.8629C25.3735 30.0332 28.5055 25.6597 27.8765 23.6436Z" fill="#EBA43E"/>
<path d="M27.4431 24.9102C27.0141 23.5348 24.0578 22.08 22.5603 24.1898C21.0627 26.2996 22.3302 29.0365 24.033 29.1527C25.7357 29.2688 27.8722 26.2855 27.4431 24.9102Z" fill="#BC7714"/>
<path d="M52.3123 26.4725C53.0894 24.5087 57.5698 22.7039 59.5291 25.9514C61.4885 29.199 59.3373 33.062 56.8354 33.0463C54.3334 33.0305 51.5351 28.4363 52.3123 26.4725Z" fill="#EBA43E"/>
<path d="M52.6272 27.7089C53.1505 26.3583 56.1504 25.1104 57.4552 27.3382C58.76 29.566 57.3143 32.224 55.6409 32.2176C53.9675 32.2112 52.104 29.0596 52.6272 27.7089Z" fill="#BC7714"/>
<path d="M33.5127 35.2846C33.0071 35.2534 32.4944 35.3742 32.0449 35.6304C31.5955 35.8866 31.2314 36.2656 31.0027 36.7155C30.7089 37.2931 30.6595 37.9455 30.8652 38.5293C31.0709 39.113 31.515 39.5802 32.0996 39.8282C32.6843 40.0761 33.3618 40.0844 33.9831 39.8513C34.6043 39.6181 35.1184 39.1626 35.4122 38.585C35.5577 38.2989 35.6447 37.9915 35.6684 37.6802C35.692 37.369 35.6517 37.06 35.5498 36.7709C35.448 36.4818 35.2865 36.2183 35.0747 35.9954C34.8629 35.7725 34.6048 35.5946 34.3153 35.4719C34.0636 35.3652 33.7922 35.3018 33.5127 35.2846ZM44.2628 36.3732C44.0406 36.3592 43.8196 36.3751 43.6059 36.4206C43.2983 36.486 43.0111 36.6115 42.7607 36.79C42.5103 36.9685 42.3017 37.1964 42.1466 37.4608C41.9916 37.7252 41.8932 38.0209 41.8571 38.3309C41.821 38.641 41.8479 38.9594 41.9363 39.2679C42.0247 39.5764 42.1728 39.8691 42.3722 40.1291C42.5716 40.3891 42.8183 40.6114 43.0983 40.7833C43.3784 40.9552 43.6862 41.0734 44.0043 41.131C44.3223 41.1886 44.6443 41.1846 44.952 41.1191C45.5732 40.987 46.098 40.6128 46.4111 40.0788C46.7241 39.5448 46.7997 38.8948 46.6212 38.2718C46.4744 37.7592 46.1645 37.2962 45.7387 36.9534C45.3129 36.6106 44.7946 36.4069 44.2628 36.3732Z" fill="#341E12"/>
<path d="M33.685 37.741C34.0728 37.9054 34.5451 37.7281 34.74 37.345C34.9349 36.9619 34.7785 36.518 34.3907 36.3535C34.0029 36.1891 33.5305 36.3664 33.3356 36.7495C33.1408 37.1326 33.2972 37.5765 33.685 37.741Z" fill="#C9C6AF"/>
<path d="M45.3315 38.9679C44.9195 39.0555 44.4895 38.7915 44.3712 38.3783C44.2528 37.9651 44.4909 37.5591 44.9029 37.4715C45.3149 37.3839 45.7449 37.6479 45.8632 38.0611C45.9816 38.4743 45.7435 38.8803 45.3315 38.9679Z" fill="#C9C6AF"/>
<path d="M44.8404 33.4351C44.3869 33.3432 43.8771 33.3494 43.3316 33.5316C43.2543 33.5575 43.1904 33.613 43.154 33.6858C43.1175 33.7587 43.1115 33.8431 43.1372 33.9204C43.163 33.9977 43.2185 34.0616 43.2914 34.098C43.3642 34.1345 43.4486 34.1405 43.526 34.1149C44.4102 33.8195 45.1336 34.0874 45.6727 34.4411C46.2119 34.7949 46.5239 35.2208 46.5239 35.2208C46.5721 35.2864 46.6443 35.3302 46.7248 35.3427C46.8052 35.3551 46.8873 35.3352 46.9531 35.2872C47.0189 35.2393 47.063 35.1671 47.0757 35.0867C47.0884 35.0063 47.0688 34.9241 47.021 34.8581C47.021 34.8581 46.6483 34.3459 46.0096 33.9268C45.6902 33.7172 45.2938 33.527 44.8404 33.4351Z" fill="#623B20"/>
<path d="M33.5607 32.255C33.0988 32.2814 32.6788 32.4122 32.3328 32.5741C31.641 32.898 31.2001 33.3528 31.2001 33.3528C31.1433 33.4113 31.112 33.4898 31.113 33.5713C31.1141 33.6528 31.1474 33.7306 31.2057 33.7875C31.2642 33.8443 31.3427 33.8756 31.4242 33.8746C31.5057 33.8735 31.5835 33.8402 31.6404 33.7819C31.6404 33.7819 32.0107 33.4061 32.5948 33.1327C33.1788 32.8593 33.9324 32.6977 34.7656 33.1161C34.8386 33.1522 34.9229 33.1579 35.0001 33.132C35.0773 33.1061 35.1411 33.0507 35.1775 32.9778C35.1956 32.9417 35.2065 32.9024 35.2095 32.8621C35.2124 32.8218 35.2074 32.7813 35.1947 32.7429C35.182 32.7046 35.1619 32.6691 35.1355 32.6385C35.1091 32.6079 35.0769 32.5828 35.0408 32.5646C34.5269 32.3066 34.0227 32.2286 33.5607 32.255Z" fill="#623B20"/>
<path d="M37.2886 53.3529C41.4343 53.7512 45.0755 51.1547 45.4215 47.5533C45.7675 43.9519 42.6874 40.7095 38.5417 40.3112C34.3961 39.9129 30.7549 42.5095 30.4089 46.1108C30.0628 49.7122 33.143 52.9546 37.2886 53.3529Z" fill="#F7DBB0"/>
<path d="M38.021 45.264C38.9227 45.9415 40.271 47.0748 42.2712 47.0752C42.2712 47.0752 41.0997 51.6493 37.4711 51.2644C33.8426 50.8796 33.9164 46.2534 33.9164 46.2534C35.375 46.3246 36.1281 46.3732 38.021 45.264Z" fill="#691C1C"/>
<path d="M34.8936 49.5812C34.8936 49.5812 35.9693 47.1795 37.8187 47.2871C39.668 47.3948 40.5386 50.0865 40.5386 50.0865C38.0726 51.6581 36.5156 51.411 34.8936 49.5812Z" fill="#F44754"/>
<path d="M39.5758 46.593C39.5758 46.593 39.8786 48.3308 40.1703 48.3615C40.4619 48.3922 41.0695 46.7363 41.0695 46.7363L39.5758 46.593Z" fill="#CCC9AF"/>
<path d="M35.0771 46.0859C35.0771 46.0859 35.3798 47.8237 35.6715 47.8544C35.9631 47.8851 36.5707 46.2292 36.5707 46.2292L35.0771 46.0859Z" fill="#CCC9AF"/>
<path d="M38.041 44.8955L37.866 44.999C36.0073 46.0883 35.3909 46.0172 33.9305 45.946L33.6142 45.9302L33.6084 46.2484C33.6084 46.2484 33.5869 47.4521 34.0443 48.7185C34.5018 49.985 35.4956 51.3641 37.4387 51.5702C39.3835 51.7765 40.7053 50.635 41.4868 49.4882C42.2682 48.3414 42.569 47.1517 42.569 47.1517L42.6684 46.7672L42.2709 46.7678C40.3869 46.7674 39.1219 45.7055 38.2062 45.0175L38.041 44.8955ZM37.9823 45.6101C38.8024 46.233 40.0798 47.114 41.8442 47.2732C41.7786 47.5026 41.5974 48.2307 40.9774 49.1405C40.266 50.1845 39.1866 51.1376 37.5029 50.959C35.8175 50.7802 35.0348 49.6523 34.622 48.5094C34.2624 47.514 34.2789 46.7819 34.2757 46.5483C35.4525 46.5937 36.3919 46.5027 37.9823 45.6101Z" fill="#623B20"/>
<path d="M44.0704 44.6027C44.0487 44.5991 44.0267 44.598 44.0048 44.5994C43.9662 44.6015 43.9284 44.6112 43.8935 44.6279C43.8587 44.6446 43.8274 44.668 43.8017 44.6968C43.7759 44.7256 43.756 44.7592 43.7432 44.7956C43.7304 44.8321 43.7249 44.8708 43.7271 44.9093C43.7271 44.9093 43.7481 45.3401 43.5341 45.7681C43.3202 46.1961 42.9184 46.6221 41.8827 46.6384C39.7884 46.6713 38.2874 45.0517 38.2874 45.0517C38.2528 45.0144 38.2091 44.9867 38.1606 44.9713C38.112 44.9559 38.0603 44.9535 38.0105 44.9641C38.0087 44.9644 38.007 44.9647 38.0052 44.9651C37.991 44.9684 37.9771 44.9727 37.9635 44.978C37.9522 44.9821 37.9411 44.9869 37.9303 44.9924C37.9267 44.9945 37.9231 44.9967 37.9196 44.999C37.9086 45.0045 37.898 45.0107 37.8878 45.0176C37.8878 45.0176 36.1049 46.3217 34.0551 45.8906C33.0414 45.6774 32.7292 45.1828 32.6007 44.7219C32.4722 44.261 32.5733 43.842 32.5733 43.842C32.5925 43.7665 32.581 43.6864 32.5412 43.6194C32.5015 43.5524 32.4367 43.5039 32.3612 43.4846C32.3238 43.4751 32.2848 43.4731 32.2465 43.4788C32.2083 43.4844 32.1715 43.4975 32.1384 43.5173C32.1052 43.5371 32.0763 43.5633 32.0532 43.5944C32.0302 43.6254 32.0135 43.6607 32.0041 43.6982C32.0041 43.6982 31.8598 44.2524 32.0347 44.8798C32.2097 45.5073 32.7499 46.2159 33.9347 46.4651C35.832 46.8641 37.4728 45.9807 38.0322 45.6276C38.518 46.0837 39.9587 47.2578 41.8924 47.2274C43.103 47.2084 43.7684 46.6141 44.0596 46.0315C44.3509 45.4489 44.3147 44.8773 44.3147 44.8773C44.3111 44.8106 44.285 44.7472 44.2406 44.6974C44.1961 44.6476 44.1362 44.6138 44.0704 44.6027Z" fill="#623B20"/>
<path d="M36.2942 43.3382C36.286 42.426 37.6123 42.2022 38.41 42.277C39.2077 42.3521 40.4866 42.838 40.3115 43.6848C40.1366 44.5315 38.1346 45.1703 38.1346 45.1703C38.1346 45.1703 36.3025 44.2503 36.2942 43.3382Z" fill="#341E12"/>
<circle cx="37.5" cy="37.5" r="35" stroke="#F18322" stroke-width="5"/>
</g>
</g>
<defs>
<clipPath id="clip0_1812_2696">
<rect width="75" height="75" fill="white"/>
</clipPath>
</defs>
</svg>
