<svg width="75" height="75" viewBox="0 0 75 75" fill="none" xmlns="http://www.w3.org/2000/svg">
<g clip-path="url(#clip0_1812_2724)">
<mask id="mask0_1812_2724" style="mask-type:alpha" maskUnits="userSpaceOnUse" x="0" y="0" width="75" height="75">
<circle cx="37.5" cy="37.5" r="37.5" fill="#D9D9D9"/>
</mask>
<g mask="url(#mask0_1812_2724)">
<circle cx="37.5" cy="37.5" r="35" fill="#F8FBFC" stroke="#BE2C53" stroke-width="5"/>
<path d="M26.3662 55.1408C26.3662 55.1408 23.1919 62.659 23.5008 70.4999C23.9999 73 26.2472 71.3213 26.2472 71.3213L45.4999 73.5L59.9999 62C59.9999 62 63.7895 69.3645 61.0008 61.9999C58.2122 54.6352 53.1218 49.9126 53.1218 49.9126L26.3662 55.1408Z" fill="#999D9C"/>
<path d="M45.6909 86.7335C52.3371 85.6888 56.4592 76.7886 54.8977 66.8543C53.3363 56.92 46.6827 49.7134 40.0365 50.7581C33.3903 51.8027 29.2682 60.7029 30.8297 70.6372C32.3911 80.5715 39.0447 87.7781 45.6909 86.7335Z" fill="#C6C6C6"/>
<path d="M26.552 30.5386C26.552 30.5386 17.6621 24.7564 12.273 29.2917C6.88396 33.8271 7.71029 37.0376 8.65439 41.2807C9.59849 45.5239 13.1906 46.9981 16.8067 47.2184C20.4228 47.4388 23.5728 45.0899 23.5728 45.0899L26.552 30.5386Z" fill="#A0A4A3"/>
<path d="M25.5475 32.9469C25.5475 32.9469 19.2573 28.8556 15.4441 32.0647C11.631 35.2737 12.2157 37.5454 12.8837 40.5477C13.5517 43.5501 16.0933 44.5932 18.652 44.7491C21.2107 44.905 23.4395 43.243 23.4395 43.243L25.5475 32.9469Z" fill="#CECECE"/>
<path d="M46.4345 27.3973C46.4345 27.3973 53.3831 19.9517 59.6426 21.8301C65.9021 23.7085 66.375 28.7644 66.7646 32.131C67.1543 35.4975 64.2011 38.9642 60.8269 40.2833C57.4528 41.6023 53.7341 40.333 53.7341 40.333L46.4345 27.3973Z" fill="#A0A4A3"/>
<path d="M48.0985 29.3617C48.0985 29.3617 52.8303 23.538 57.4441 25.4226C62.0578 27.3072 62.1982 29.6487 62.4835 32.7112C62.7687 35.7736 60.6696 37.5462 58.2821 38.4795C55.8947 39.4128 53.2634 38.5147 53.2634 38.5147L48.0985 29.3617Z" fill="#CECECE"/>
<path d="M23.0963 35.6618C24.7579 29.6912 29.4381 26.0792 35.3397 25.0696C41.2413 24.06 47.8818 26.3433 50.6919 31.394C53.5021 36.4447 57.8718 41.1653 56.0289 46.4553C54.186 51.7452 46.9365 56.2162 40.4439 57.1069C33.9512 57.9977 25.67 56.0449 22.557 51.6498C19.444 47.2547 21.4347 41.6325 23.0963 35.6618Z" fill="#A0A4A3"/>
<path d="M38.0197 40.4204C38.0197 40.4204 35.3072 44.5781 35.5831 46.1781C35.8589 47.7781 37.729 48.4371 39.2225 48.1784C40.716 47.9197 42.2227 46.6795 41.9567 45.0545C41.6908 43.4296 38.0197 40.4204 38.0197 40.4204Z" fill="#5B6565"/>
<path d="M44.8602 40.8724C46.5955 40.5997 47.8213 39.2276 47.5982 37.8078C47.375 36.3879 45.7873 35.4581 44.052 35.7308C42.3167 36.0036 41.0908 37.3757 41.314 38.7955C41.5371 40.2153 43.1248 41.1452 44.8602 40.8724Z" fill="#383F3F"/>
<path d="M29.4648 38.1532C29.4648 38.1532 31.3695 38.7209 32.1766 39.279C32.9838 39.8371 34.2085 41.1936 34.159 41.3341C34.1106 41.4751 32.2129 41.5289 30.0239 41.5451C28.7577 41.5543 26.2511 42.0157 26.2511 42.0157C26.2511 42.0157 28.5458 40.3576 29.9084 40.2604C31.6913 40.1334 31.9908 40.5689 32.0392 40.4562C32.0663 40.3944 29.4648 38.1532 29.4648 38.1532Z" fill="#383F3F"/>
<path d="M45.9459 38.3258C45.4944 38.7608 44.7434 38.7658 44.2686 38.337C43.7938 37.9082 43.7749 37.2079 44.2264 36.7729C44.6779 36.3379 45.4289 36.3328 45.9037 36.7617C46.3785 37.1905 46.3974 37.8908 45.9459 38.3258Z" fill="#C9D6D6"/>
<path d="M45.3458 47.6018C45.3053 47.5952 45.2646 47.5983 45.2261 47.6109C45.1876 47.6235 45.1519 47.6453 45.1213 47.6751C39.9539 52.6727 33.1011 49.5588 33.1011 49.5588C33.0626 49.5412 33.022 49.5327 32.9817 49.5339C32.9414 49.5351 32.9022 49.5458 32.8663 49.5656C32.8303 49.5853 32.7984 49.6137 32.7724 49.649C32.7463 49.6843 32.7266 49.7259 32.7144 49.7714C32.7021 49.8169 32.6976 49.8654 32.701 49.9142C32.7044 49.963 32.7157 50.011 32.7343 50.0556C32.7529 50.1002 32.7784 50.1405 32.8093 50.1741C32.8403 50.2077 32.876 50.2341 32.9146 50.2516C32.9146 50.2516 40.0792 53.5304 45.5241 48.2642C45.5858 48.2043 45.6237 48.1159 45.6295 48.0184C45.6353 47.9209 45.6086 47.8222 45.5552 47.744C45.5021 47.6661 45.4268 47.6152 45.3458 47.6018Z" fill="#5B6565"/>
<path d="M33.3621 48.708C33.3257 48.7083 33.2901 48.7174 33.2574 48.7347C33.2247 48.7519 33.1955 48.777 33.1716 48.8085C33.1716 48.8085 32.4401 49.7021 32.6138 50.8795C32.6269 50.9675 32.6682 51.0478 32.7286 51.1027C32.789 51.1577 32.8635 51.1827 32.9359 51.1723C32.9719 51.1674 33.0063 51.1538 33.0371 51.1324C33.0679 51.111 33.0945 51.0822 33.1155 51.0477C33.1364 51.0132 33.1512 50.9736 33.159 50.9312C33.1668 50.8888 33.1675 50.8444 33.1611 50.8007C33.0484 50.0356 33.5886 49.2799 33.5886 49.2799C33.6372 49.2169 33.6618 49.1316 33.657 49.0428C33.6522 48.9541 33.6185 48.8691 33.5632 48.8066C33.5359 48.7754 33.5041 48.7506 33.4696 48.7337C33.4351 48.7168 33.3986 48.708 33.3621 48.708Z" fill="#5B6565"/>
<path d="M44.6127 46.9432C44.578 46.9544 44.5459 46.974 44.5182 47.0006C44.4906 47.0273 44.4679 47.0607 44.4515 47.0987C44.4181 47.1752 44.412 47.2664 44.4347 47.3524C44.4574 47.4383 44.507 47.5119 44.5726 47.557C44.5726 47.557 45.3188 48.1105 45.446 48.8733C45.4533 48.9169 45.4676 48.9589 45.4881 48.9969C45.5085 49.0348 45.5347 49.068 45.5652 49.0944C45.5957 49.1209 45.6299 49.1401 45.6658 49.151C45.7017 49.1619 45.7386 49.1643 45.7744 49.158C45.8464 49.1456 45.9097 49.0989 45.9504 49.0281C45.991 48.9573 46.0057 48.8682 45.9911 48.7804C45.7953 47.6065 44.8249 46.9804 44.8249 46.9804C44.7924 46.9578 44.757 46.9428 44.7206 46.9365C44.6842 46.9301 44.6475 46.9324 44.6127 46.9432Z" fill="#5B6565"/>
<path d="M30.9869 26.4309C30.9869 26.4309 33.448 22.7848 35.1966 20.8904C36.9452 18.9959 36.1098 24.212 36.1098 24.212C36.1098 24.212 41.0215 22.4953 39.3938 24.0209C37.7661 25.5466 37.359 26.2407 34.9912 26.7136C32.6235 27.1864 30.9869 26.4309 30.9869 26.4309Z" fill="#A0A4A3"/>
<circle cx="37.5" cy="37.5" r="35" stroke="#BE2C53" stroke-width="5"/>
</g>
</g>
<defs>
<clipPath id="clip0_1812_2724">
<rect width="75" height="75" fill="white"/>
</clipPath>
</defs>
</svg>
