<svg width="166" height="166" viewBox="0 0 166 166" fill="none" xmlns="http://www.w3.org/2000/svg">
<g id="PerfilUrsoMax" clip-path="url(#clip0_2228_3546)">
<mask id="mask0_2228_3546" style="mask-type:alpha" maskUnits="userSpaceOnUse" x="0" y="0" width="166" height="166">
<circle id="Ellipse 96" cx="83" cy="83" r="83" fill="#D9D9D9"/>
</mask>
<g mask="url(#mask0_2228_3546)">
<circle id="Ellipse 97" cx="83" cy="83" r="77.4667" fill="#F8FBFC" stroke="#F1C22E" stroke-width="11.0667"/>
<g id="g15905">
<g id="g34846">
<path id="path1314" d="M121.383 62.2372C121.383 62.2372 133.359 53.621 141.755 62.5996C150.151 71.5783 147.104 80.1684 142.441 84.9869C137.777 89.8053 130.935 85.3254 130.935 85.3254L121.383 62.2372Z" fill="#7C513D"/>
<path id="path1314-8" d="M69.984 46.7437C69.984 46.7437 64.7523 32.9486 52.7955 35.8019C40.8388 38.6553 38.6382 47.5 39.8676 54.092C41.097 60.6839 49.2749 60.7243 49.2749 60.7243L69.984 46.7437Z" fill="#7C513D"/>
<path id="path1314-9-6" d="M65.3997 47.8514C65.3997 47.8514 61.7538 38.2378 53.4213 40.2262C45.0889 42.2147 43.5553 48.3784 44.4121 52.9722C45.2688 57.566 50.9679 57.5942 50.9679 57.5942L65.3997 47.8514Z" fill="#5C3928"/>
<path id="path1314-9" d="M124.334 65.5624C124.334 65.5624 132.68 59.558 138.531 65.815C144.382 72.072 142.259 78.0584 139.009 81.4162C135.759 84.7741 130.991 81.6522 130.991 81.6522L124.334 65.5624Z" fill="#5C3928"/>
</g>
<path id="path1395" d="M96.4859 49.1017C104.07 51.5747 118.269 58.7745 122.374 62.8151C126.48 66.8557 131.67 75.3349 131.039 85.3559C130.407 95.3769 134.874 101.867 131.77 111.505C128.665 121.144 116.584 124.137 116.584 124.137C123.947 136.12 131.77 150.474 123.947 153.827C108.453 160.467 109.56 156.04 109.56 156.04L52.0134 153.827C52.0134 153.827 32.0933 153.827 23.24 131.693C33.8165 110.548 41.8191 101.953 41.9333 101.773C41.7036 101.585 34.8898 95.9246 35.0186 86.0804C35.1497 76.0683 41.0507 74.1199 47.2145 62.2659C53.3783 50.4119 59.9538 49.3042 68.3617 47.1248C76.7696 44.9455 83.1817 44.9875 96.4859 49.1017Z" fill="#7C513D"/>
<g id="g34850">
<path id="path14243" d="M82.405 106.256C75.5655 104.198 71.3948 97.9642 73.0896 92.333C74.7843 86.7018 81.7027 83.8054 88.5423 85.8638C95.3818 87.9222 99.5524 94.1559 97.8576 99.7871C96.1629 105.418 89.2445 108.315 82.405 106.256Z" fill="#AA7A64" stroke="#AA7A64" stroke-width="5.67334" stroke-linecap="round"/>
<g id="path2589">
<path id="path12726" d="M85.7793 95.4682L83.9695 101.184L85.7793 95.4682Z" fill="#341E12"/>
<path id="path12728" d="M86.0035 94.7573C85.91 94.7277 85.8116 94.7167 85.714 94.7251C85.6163 94.7336 85.5212 94.7611 85.4342 94.8063C85.3471 94.8515 85.2699 94.9134 85.2068 94.9884C85.1437 95.0634 85.096 95.1502 85.0665 95.2437L83.2568 100.959C83.2272 101.052 83.2163 101.151 83.2247 101.248C83.2331 101.346 83.2607 101.441 83.3058 101.528C83.351 101.615 83.4129 101.692 83.4879 101.755C83.563 101.818 83.6497 101.866 83.7432 101.896C83.8367 101.925 83.935 101.936 84.0327 101.928C84.1304 101.919 84.2255 101.892 84.3125 101.847C84.3995 101.802 84.4768 101.74 84.5399 101.665C84.603 101.59 84.6507 101.503 84.6802 101.409L86.4899 95.6943C86.5195 95.6008 86.5304 95.5024 86.522 95.4048C86.5136 95.3071 86.486 95.212 86.4408 95.125C86.3957 95.038 86.3338 94.9607 86.2588 94.8976C86.1837 94.8345 86.097 94.7868 86.0035 94.7573Z" fill="#341E12"/>
</g>
<path id="path2591" d="M77.7779 96.9818C77.7045 97.047 77.6447 97.126 77.6019 97.2144C77.5591 97.3028 77.5342 97.3987 77.5286 97.4967C77.5229 97.5947 77.5367 97.6929 77.569 97.7855C77.6014 97.8782 77.6517 97.9636 77.7171 98.0368C77.7171 98.0368 78.4393 98.8518 79.516 99.757C80.5927 100.662 82.0246 101.686 83.5966 102.121C86.6853 102.976 90.9425 102.085 90.9425 102.085C91.0388 102.067 91.1305 102.03 91.2124 101.976C91.2944 101.922 91.3649 101.853 91.4201 101.772C91.4752 101.691 91.5138 101.6 91.5337 101.504C91.5537 101.408 91.5545 101.309 91.5361 101.213C91.5179 101.116 91.4806 101.024 91.4266 100.942C91.3726 100.859 91.3029 100.789 91.2215 100.734C91.1401 100.678 91.0485 100.64 90.9522 100.62C90.8558 100.601 90.7565 100.6 90.6599 100.619C90.6599 100.619 86.4421 101.361 83.9936 100.683C82.797 100.352 81.4706 99.4471 80.4781 98.6126C79.4855 97.7782 78.8294 97.0462 78.8294 97.0462C78.6983 96.8985 78.514 96.8088 78.3169 96.7968C78.1199 96.7847 77.926 96.8512 77.7779 96.9818Z" fill="#341E12"/>
</g>
<path id="path1765" d="M91.9063 93.2295C91.6111 94.787 85.6369 95.6358 85.6369 95.6358C85.6369 95.6358 81.3333 91.7849 81.7696 90.3577C82.2067 88.9308 85.4881 88.5575 87.3986 89.0317C89.3092 89.5058 92.2014 91.6721 91.9063 93.2295Z" fill="#341E12"/>
<g id="g34833">
<path id="path2418" d="M103.4 98.5062C100.546 97.6474 99.2275 93.6467 100.454 89.5703C101.681 85.4939 104.989 82.8855 107.842 83.7443C110.696 84.603 112.014 88.6038 110.788 92.6802C109.561 96.7565 106.253 99.3649 103.4 98.5062Z" fill="#341E12"/>
<path id="path2418-5" d="M107.809 93.5892C106.962 93.3343 106.57 92.1468 106.935 90.9369C107.299 89.7269 108.281 88.9527 109.128 89.2076C109.975 89.4625 110.366 90.65 110.002 91.86C109.638 93.0699 108.656 93.8441 107.809 93.5892Z" fill="#C9C6AF"/>
<path id="path2418-2" d="M69.4783 88.5388C66.6248 87.68 65.3061 83.6793 66.533 79.6029C67.7598 75.5265 71.0675 72.9181 73.921 73.7769C76.7744 74.6357 78.0931 78.6364 76.8663 82.7128C75.6395 86.7892 72.3317 89.3976 69.4783 88.5388Z" fill="#341E12"/>
<path id="path2656" d="M105.344 76.6609C105.247 76.6706 105.152 76.6995 105.065 76.7459C104.979 76.7924 104.902 76.8554 104.84 76.9315C104.778 77.0076 104.731 77.0952 104.703 77.1893C104.675 77.2834 104.665 77.3822 104.676 77.4799C104.696 77.6767 104.794 77.8574 104.947 77.9821C105.101 78.1068 105.298 78.1655 105.495 78.1451C107.744 77.916 109.31 78.935 110.398 80.0585C111.485 81.1819 111.996 82.3545 111.996 82.3545C112.035 82.4445 112.092 82.5259 112.163 82.5941C112.233 82.6622 112.317 82.7158 112.408 82.7517C112.499 82.7876 112.597 82.8051 112.695 82.8032C112.793 82.8013 112.89 82.7801 112.98 82.7407C113.07 82.7016 113.151 82.6451 113.219 82.5745C113.288 82.5039 113.341 82.4205 113.377 82.3291C113.413 82.2378 113.43 82.1402 113.429 82.0421C113.427 81.944 113.405 81.8472 113.366 81.7572C113.366 81.7572 112.759 80.3486 111.471 79.0177C110.182 77.6869 108.119 76.3782 105.344 76.6609Z" fill="#341E12"/>
<path id="path2656-7" d="M76.7585 67.1264C75.6516 66.9435 74.5909 67.0308 73.6864 67.2301C71.8775 67.6288 70.5893 68.4675 70.5893 68.4675C70.507 68.521 70.4361 68.5901 70.3806 68.6711C70.3251 68.752 70.2861 68.843 70.2658 68.939C70.2456 69.035 70.2444 69.1341 70.2625 69.2305C70.2806 69.327 70.3175 69.4189 70.3711 69.5011C70.4246 69.5833 70.4938 69.6543 70.5747 69.7098C70.6556 69.7653 70.7467 69.8043 70.8427 69.8245C70.9387 69.8448 71.0377 69.8459 71.1342 69.8278C71.2306 69.8098 71.3226 69.7729 71.4047 69.7192C71.4047 69.7192 72.4777 69.0258 74.0047 68.6892C75.5317 68.3527 77.4022 68.3691 79.1511 69.8015C79.304 69.9263 79.5 69.9854 79.6964 69.966C79.8928 69.9466 80.0735 69.8501 80.199 69.6978C80.2613 69.622 80.3081 69.5346 80.3367 69.4407C80.3652 69.3468 80.3749 69.2482 80.3653 69.1505C80.3557 69.0529 80.3269 68.9581 80.2805 68.8715C80.2342 68.785 80.1713 68.7085 80.0953 68.6463C79.0164 67.7627 77.8654 67.3093 76.7585 67.1264Z" fill="#341E12"/>
<path id="path2418-5-1" d="M73.8318 83.4159C72.9848 83.161 72.5934 81.9735 72.9576 80.7635C73.3217 79.5536 74.3035 78.7793 75.1505 79.0342C75.9975 79.2891 76.3889 80.4766 76.0247 81.6866C75.6606 82.8966 74.6788 83.6708 73.8318 83.4159Z" fill="#C9C6AF"/>
</g>
</g>
<circle id="Ellipse 98" cx="83" cy="83" r="77.4667" stroke="#03A64B" stroke-width="11.0667"/>
</g>
</g>
<defs>
<clipPath id="clip0_2228_3546">
<rect width="166" height="166" fill="white"/>
</clipPath>
</defs>
</svg>
