<svg width="75" height="75" viewBox="0 0 75 75" fill="none" xmlns="http://www.w3.org/2000/svg">
<g clip-path="url(#clip0_1812_2761)">
<mask id="mask0_1812_2761" style="mask-type:alpha" maskUnits="userSpaceOnUse" x="0" y="0" width="75" height="75">
<circle cx="37.5" cy="37.5" r="37.5" fill="#D9D9D9"/>
</mask>
<g mask="url(#mask0_1812_2761)">
<circle cx="37.5" cy="37.5" r="35" fill="#F8FBFC" stroke="#F1C22E" stroke-width="5"/>
<path d="M17 65C17 60.6 20 52.5 22.5 49C31.5 46.6667 47.7899 44.7739 51.5 47C56.5 50 60 57.5 60.5 62.5L48 73C37.6667 72.1667 17 69.4 17 65Z" fill="#DF730E"/>
<path d="M60.9859 67.5648C60.988 67.6215 60.991 67.68 60.9918 67.7543C60.9938 67.8488 60.9948 67.9566 60.9946 68.077C60.9944 68.1973 60.9913 68.3302 60.9876 68.4737C60.9845 68.5456 60.9835 68.6202 60.9798 68.6973C60.977 68.7743 60.9726 68.8542 60.9673 68.9362C60.963 69.0183 60.9566 69.1022 60.9502 69.1889C60.9443 69.2755 60.9365 69.3644 60.9283 69.4552C60.9208 69.546 60.9103 69.639 60.8999 69.7338C60.889 69.8287 60.8783 69.9255 60.8659 70.0239C60.8533 70.1224 60.8403 70.2222 60.8255 70.3238C60.8107 70.4254 60.7951 70.5284 60.7777 70.6329C60.7603 70.7374 60.7417 70.8433 60.7217 70.9503C60.7016 71.0574 60.6795 71.1655 60.6566 71.2747C60.6336 71.384 60.6094 71.4948 60.5833 71.6058C60.5572 71.717 60.5291 71.8282 60.4998 71.9408C60.4705 72.0534 60.44 72.1673 60.4072 72.281C60.3743 72.3948 60.3393 72.509 60.3029 72.6236C60.2663 72.7381 60.2279 72.8525 60.1876 72.9676C60.1472 73.0827 60.1048 73.1979 60.0605 73.3131C60.0162 73.4283 59.9702 73.5435 59.9214 73.6585C59.8971 73.716 59.8717 73.7735 59.8463 73.8307C59.8209 73.8881 59.7952 73.945 59.7689 74.0023C59.7424 74.0596 59.7151 74.1172 59.6874 74.1742C59.6598 74.2312 59.6315 74.2878 59.6028 74.3446C59.574 74.4013 59.5448 74.458 59.5149 74.5144C59.485 74.5708 59.4542 74.6276 59.4231 74.6837C59.3919 74.7398 59.3605 74.796 59.3281 74.8516C59.2957 74.9074 59.2626 74.9629 59.2289 75.0182C59.1953 75.0735 59.1606 75.1286 59.1258 75.1834C59.0908 75.2383 59.0556 75.293 59.0194 75.3473C58.9833 75.4017 58.9447 75.456 58.9044 75.5108C58.8638 75.5657 58.8205 75.6216 58.7759 75.6768C58.7313 75.7321 58.6851 75.7878 58.6364 75.8435C58.5878 75.8992 58.5374 75.9548 58.4851 76.0109C58.4328 76.0669 58.378 76.1234 58.322 76.1797C58.266 76.2362 58.2083 76.2924 58.1486 76.3491C58.0891 76.4058 58.0272 76.463 57.9643 76.5199C57.9013 76.5769 57.8373 76.6335 57.7712 76.6906C57.7051 76.7477 57.6371 76.8054 57.568 76.8627C57.4989 76.92 57.4281 76.9772 57.356 77.0345C57.284 77.0919 57.2102 77.1493 57.1354 77.2068C57.0606 77.2642 56.985 77.3221 56.9076 77.3795C56.8302 77.4369 56.7509 77.4944 56.6712 77.552C56.5914 77.6095 56.5104 77.6666 56.4284 77.7241C56.3463 77.7814 56.2636 77.8392 56.1793 77.8966C56.095 77.9539 56.0092 78.0107 55.923 78.0679C55.8368 78.1251 55.7499 78.1825 55.6619 78.2395C55.5739 78.2964 55.485 78.3531 55.3953 78.4099C55.2159 78.5234 55.0335 78.636 54.8484 78.7483C54.6633 78.8605 54.4759 78.9728 54.2863 79.0835C54.0967 79.1944 53.9048 79.3044 53.712 79.4133C53.5191 79.5222 53.325 79.6296 53.1302 79.7363C52.9353 79.843 52.7396 79.9483 52.5439 80.0525C52.3483 80.1566 52.1525 80.2595 51.9573 80.3608C51.762 80.4621 51.5676 80.5621 51.374 80.6602C51.1804 80.7583 50.988 80.8545 50.7972 80.9489C50.6065 81.0433 50.4175 81.1361 50.2309 81.2267C50.0443 81.3173 49.8593 81.4055 49.678 81.4918C49.4967 81.5781 49.3188 81.6623 49.1441 81.7439C48.9693 81.8257 48.7984 81.9045 48.6315 81.9813C48.4645 82.0582 48.302 82.133 48.1441 82.2045C47.8283 82.3476 47.5311 82.479 47.2588 82.5989C46.9865 82.7187 46.7384 82.8263 46.5194 82.9203C46.3005 83.0144 46.1106 83.0947 45.9547 83.16C45.6431 83.2908 45.4677 83.3619 45.4677 83.3619C45.4677 83.3619 45.5304 83.3592 45.6476 83.3526C45.7647 83.346 45.9363 83.3354 46.1552 83.3213C46.3741 83.3071 46.6398 83.2884 46.9454 83.2662C47.251 83.2441 47.5967 83.2159 47.9738 83.1845C48.1624 83.1694 48.3589 83.152 48.5624 83.1324C48.766 83.1145 48.9759 83.0945 49.1926 83.0738C49.4094 83.0534 49.6323 83.0289 49.8603 83.0059C50.0882 82.9829 50.321 82.9572 50.5583 82.9307C50.7955 82.9034 51.0372 82.8763 51.2819 82.8467C51.5266 82.8172 51.7746 82.7863 52.0248 82.7537C52.275 82.7219 52.5274 82.6869 52.7813 82.6511C53.0351 82.6154 53.2903 82.5777 53.5459 82.5386C53.8015 82.4995 54.0577 82.4589 54.3131 82.4165C54.5685 82.3741 54.8232 82.3302 55.0765 82.2842C55.2032 82.2618 55.3294 82.2377 55.4552 82.214C55.5809 82.1898 55.7059 82.1663 55.8306 82.1416C55.9554 82.1174 56.0793 82.0911 56.2026 82.0653C56.326 82.0394 56.4488 82.0137 56.5706 81.9871C56.6924 81.9605 56.8136 81.9334 56.9336 81.9058C57.0535 81.8782 57.1722 81.8503 57.2901 81.8218C57.4079 81.7932 57.5245 81.7638 57.64 81.7343C57.7556 81.7047 57.8705 81.6745 57.9835 81.644C58.0966 81.6134 58.2078 81.5825 58.3181 81.5511C58.4284 81.5194 58.5373 81.4871 58.6446 81.4546C58.7518 81.422 58.8574 81.3892 58.9614 81.3555C59.0655 81.3219 59.168 81.2878 59.2686 81.2532C59.369 81.2184 59.4676 81.1833 59.5644 81.1476C59.6613 81.112 59.7562 81.0756 59.849 81.0387C59.9419 81.0018 60.0329 80.9645 60.1216 80.9266C60.1818 80.9007 60.2398 80.8741 60.298 80.8478C60.82 77.1474 61.2399 72.3973 60.9875 67.5636L60.9859 67.5648Z" fill="#341E12"/>
<path d="M57.7806 54.0729C57.7809 54.0746 57.7925 54.1481 57.8102 54.2871C57.8279 54.4279 57.8519 54.6329 57.875 54.8909C57.8865 55.0199 57.8969 55.1622 57.9081 55.3161C57.9184 55.47 57.928 55.636 57.9361 55.8121C57.943 55.9882 57.9487 56.1744 57.953 56.3696C57.9555 56.5649 57.9571 56.7688 57.9543 56.9803C57.9522 57.1918 57.9451 57.4109 57.9344 57.6358C57.9237 57.8607 57.9089 58.0915 57.889 58.3269C57.8795 58.4446 57.8677 58.5636 57.8551 58.6834C57.8426 58.8031 57.8284 58.9236 57.8129 59.0451C57.7975 59.1665 57.7806 59.2893 57.7623 59.4121C57.7437 59.5348 57.724 59.6582 57.7022 59.782C57.6804 59.9059 57.6572 60.0298 57.6321 60.1542C57.607 60.2786 57.5797 60.4031 57.5509 60.5277C57.5222 60.6524 57.4914 60.7774 57.4587 60.902C57.4261 61.0265 57.3914 61.1513 57.3546 61.2754C57.3179 61.3996 57.2794 61.523 57.2385 61.6463C57.1976 61.7696 57.1541 61.892 57.1087 62.0141C57.0633 62.1362 57.0153 62.2575 56.9654 62.378C56.9152 62.4985 56.8631 62.6185 56.8082 62.7372C56.7807 62.7964 56.7514 62.8566 56.7203 62.9181C56.6892 62.9794 56.6563 63.0419 56.6216 63.1052C56.5521 63.232 56.4757 63.3624 56.3928 63.4964C56.3098 63.6304 56.2203 63.7676 56.1249 63.9082C56.0295 64.0486 55.9277 64.1923 55.8209 64.3387C55.714 64.485 55.6018 64.634 55.4846 64.7854C55.3675 64.9368 55.2457 65.0909 55.1192 65.2465C54.9927 65.4022 54.8615 65.5596 54.7267 65.7187C54.592 65.8779 54.4538 66.0383 54.3119 66.2002C54.1701 66.362 54.0242 66.5254 53.8762 66.6893C53.7282 66.8532 53.5773 67.0182 53.4241 67.1834C53.271 67.3484 53.1152 67.5142 52.9579 67.6798C52.8008 67.8455 52.6417 68.0108 52.4815 68.1761C52.161 68.5067 51.8361 68.8362 51.5099 69.1611C51.1837 69.486 50.8563 69.8064 50.5328 70.1195C50.2093 70.4327 49.8892 70.7379 49.5767 71.0332C49.2643 71.3284 48.9598 71.6134 48.6668 71.8847C48.3738 72.156 48.0922 72.414 47.8271 72.6553C47.5619 72.8966 47.3132 73.1215 47.0842 73.3266C46.6264 73.737 46.2494 74.0692 45.9869 74.2987C45.7244 74.5282 45.5764 74.6549 45.5764 74.6549C45.5764 74.6549 45.8102 74.5681 46.2206 74.4088C46.4258 74.3293 46.675 74.2311 46.961 74.1174C47.247 74.0035 47.5703 73.8738 47.9226 73.7295C48.275 73.5852 48.6569 73.4268 49.0611 73.2558C49.4653 73.0849 49.892 72.9016 50.3335 72.7076C50.775 72.5137 51.2311 72.3088 51.6954 72.0955C51.9276 71.9888 52.1614 71.88 52.3965 71.7692C52.6316 71.6584 52.8678 71.5459 53.1041 71.4315C53.3404 71.3171 53.5769 71.201 53.8125 71.0834C54.0482 70.9657 54.2833 70.8464 54.5165 70.7261C54.7497 70.6058 54.9817 70.4848 55.2106 70.3623C55.4396 70.2396 55.6656 70.1159 55.8885 69.9915C56.1113 69.8672 56.3306 69.7421 56.5455 69.6165C56.7605 69.4908 56.971 69.3648 57.1762 69.2383C57.3815 69.1117 57.5815 68.9849 57.7752 68.858C57.9689 68.7312 58.1565 68.6037 58.3369 68.4769C58.5173 68.3499 58.6908 68.2237 58.856 68.0975C58.9387 68.0344 59.0185 67.9711 59.097 67.908C59.1754 67.8452 59.2521 67.7828 59.3262 67.7202C59.4003 67.6577 59.4724 67.5946 59.5419 67.5323C59.6115 67.47 59.6788 67.408 59.7435 67.3462C59.8083 67.2844 59.8705 67.2231 59.9302 67.1617C59.99 67.1004 60.0467 67.039 60.1011 66.9782C60.1556 66.9173 60.2074 66.8566 60.2564 66.7963C60.3053 66.736 60.3518 66.676 60.395 66.6162C60.4383 66.5564 60.4784 66.497 60.5157 66.4381C60.5531 66.379 60.5878 66.3201 60.6191 66.2618C60.6502 66.2034 60.678 66.1457 60.7029 66.0883C60.7276 66.0309 60.7488 65.9741 60.767 65.9175C60.7851 65.8609 60.8002 65.8043 60.8114 65.7486C60.8229 65.6929 60.8305 65.6381 60.8346 65.5834C60.8352 65.5634 60.8358 65.5424 60.8383 65.5223C60.4592 61.4751 59.5508 57.4692 57.7806 54.0729Z" fill="#341E12"/>
<path d="M21.1193 47.7627C38.0158 56.648 39.8614 52.0001 52.1412 45.3255C53.1564 45.229 53.7266 45.2773 53.7266 45.2773C53.7266 45.2773 52.7406 48.3911 55.9754 51.0217C56.005 51.7659 56.0509 52.8648 55.9874 53.3555C55.9238 53.8462 55.9453 54.5298 53.9406 57.2552C51.9359 59.9805 45.5285 65.9337 38.3068 66.5809C31.085 67.2281 21.1749 62.5455 19.1242 55.8381C20.2972 53.122 20.4238 52.6842 20.5 52C20.5762 51.3158 20.7922 50.6794 20.9744 50.506C21.1566 50.3327 22.188 50.0541 22.188 50.0541C22.188 50.0541 21.7844 49.3278 21.1193 47.7627Z" fill="#D10F0F"/>
<path d="M23.0711 57.1579C23.1813 57.3035 23.2727 57.5346 23.4095 57.8563C23.492 58.05 23.5962 58.2858 23.741 58.5209C23.7907 58.6014 23.8465 58.6842 23.9096 58.7673C23.9899 58.8731 24.0949 58.9964 24.2223 59.1243C24.3815 59.2839 24.5945 59.4698 24.8597 59.6372C26.1689 60.5353 27.3807 61.0624 29.1517 61.9604C29.1565 61.9624 29.1602 61.9657 29.1654 61.9678C31.4135 63.078 34.0111 63.7423 36.6542 63.537C38.3875 63.3771 40.0247 62.9996 41.4661 62.5734C41.8743 62.4068 42.206 62.2651 42.5265 62.0809C42.9694 61.8263 43.2298 61.5769 43.4141 61.3567C43.2036 61.5504 42.8999 61.7393 42.4402 61.8873C42.1091 61.9938 41.7642 62.0604 41.3492 62.1313C39.8954 62.4029 38.2793 62.6037 36.6096 62.6027C34.1664 62.6455 31.8083 61.9033 29.7767 60.7907L29.7904 60.798C28.1979 59.8553 26.7384 59.0962 25.6794 58.4049C25.6684 58.3973 25.6578 58.3904 25.6464 58.384C25.469 58.2841 25.3031 58.1671 25.1516 58.0574C25.0315 57.9704 24.9294 57.8945 24.8242 57.8223C24.7454 57.7682 24.6656 57.7169 24.5849 57.6685C24.3402 57.5218 24.104 57.4129 23.8747 57.3349C23.5006 57.2076 23.2555 57.195 23.0711 57.1579Z" fill="#B50D0D"/>
<path d="M27.8439 56.711C28.4237 56.9376 29.3586 57.5533 30.8826 58.1897C31.2896 58.3597 31.7624 58.5314 32.2781 58.657C32.3628 58.6777 32.4515 58.6978 32.5436 58.7167C33.0237 58.8158 33.638 58.8945 34.332 58.8554C37.9591 58.7845 43.3323 58.1994 48.3598 55.5589C48.3667 55.5562 48.3725 55.5523 48.3786 55.5484C49.3547 54.9825 50.2058 54.2439 51.0652 53.4102L50.1762 52.509C49.0925 53.7383 47.8847 54.9624 46.7114 56.2218C45.851 57.0165 44.8615 57.6758 43.8767 58.2675C40.6004 59.9735 37.1259 60.6497 34.008 60.5747C33.6388 60.6306 33.3363 60.6591 33.147 60.6606C33.3297 60.7029 33.6249 60.7902 33.9936 60.8841C37.1554 61.066 40.734 60.5029 44.1794 58.8515C45.2465 58.3405 46.3712 57.7351 47.3815 56.9444C47.3871 56.9405 47.3927 56.9355 47.3974 56.9305C47.403 56.9255 47.4074 56.9206 47.4125 56.9157C48.6651 55.7251 49.9111 54.6006 51.1061 53.37C51.1774 53.2965 51.2488 53.2225 51.3093 53.1398C51.3699 53.0572 51.4196 52.9657 51.4472 52.867C51.4749 52.7683 51.4799 52.6629 51.457 52.563C51.434 52.4632 51.3829 52.3698 51.3103 52.2976C51.2376 52.2253 51.1441 52.1748 51.0443 52.1515C50.9446 52.1281 50.8393 52.1317 50.7399 52.1564C50.5411 52.2059 50.3744 52.3375 50.2171 52.4688C49.3125 53.2235 48.5255 53.8197 47.6687 54.2765L47.6875 54.266C42.9342 56.7131 37.8109 57.2927 34.2864 57.4362C34.2743 57.4367 34.2622 57.4369 34.2501 57.4382C33.6923 57.4976 33.1749 57.4708 32.7454 57.4278C32.6648 57.4198 32.5862 57.411 32.5102 57.4019C32.0517 57.3471 31.5895 57.2679 31.1784 57.1943C29.6305 56.917 28.4631 56.775 27.8439 56.711Z" fill="#B50D0D"/>
<path d="M21.5837 48.9669C21.6898 49.1459 21.7763 49.3905 21.9043 49.7464C21.9857 49.9725 22.0907 50.2603 22.2322 50.5413C22.3542 50.7835 22.5181 51.0517 22.7483 51.3023C22.8566 51.4203 22.9812 51.536 23.1242 51.6429C23.2501 51.7372 23.4006 51.8323 23.5765 51.9182L23.5232 51.8933C24.4012 52.3736 25.4297 52.7765 26.6817 53.1259C27.7087 53.4124 28.736 53.6242 29.8759 53.8539C29.8854 53.8557 29.8954 53.8586 29.9054 53.8603C31.987 54.2372 34.1029 54.2452 36.2626 54.0312C38.3411 53.8252 40.3993 53.4203 42.4117 52.9925C45.0367 52.3631 47.3595 51.1882 49.3064 49.9278L49.288 49.9382C50.1613 49.4369 50.9057 48.8438 51.5108 48.3052C52.3005 47.6024 53.0725 46.7841 53.4492 46.3929C53.0174 46.7756 52.213 47.4633 51.3312 48.0777C50.6724 48.5368 49.8915 49.0131 49.0122 49.3849C49.0088 49.3862 49.0053 49.3876 49.0031 49.3901C48.9997 49.3915 48.9975 49.3939 48.9941 49.3953C46.9726 50.462 44.6658 51.3737 42.1744 51.768C40.1512 52.0982 38.1448 52.3996 36.1433 52.5158C34.0811 52.6353 32.1368 52.5504 30.269 52.157C29.097 51.849 28.2005 51.6244 27.2066 51.323C26.0362 50.9681 25.1505 50.6268 24.3528 50.2583C24.3444 50.2542 24.3353 50.25 24.3266 50.2448C24.3181 50.2406 24.3088 50.2365 24.2994 50.2334C24.2078 50.2046 24.1219 50.1728 24.0414 50.141C23.9493 50.1048 23.8571 50.0659 23.7605 50.0223C23.5486 49.9266 23.3455 49.8217 23.1216 49.703C22.8432 49.5553 22.6329 49.4411 22.3787 49.3171C22.0426 49.1533 21.7574 49.0446 21.5837 48.9669Z" fill="#B50D0D"/>
<path d="M35.8156 17.036C35.563 17.0522 35.3049 17.0703 35.0425 17.0908C26.6385 17.7434 25.2395 19.2437 22.2634 19.6201C19.2873 19.9966 15.4871 23.3694 15.4871 23.3694L16.9883 31.1445C16.9584 31.2519 16.3953 34.2816 16.0926 37.5273C16.0926 37.5273 16.147 37.5763 16.2544 37.6594C16.3083 37.7011 16.3757 37.7516 16.4559 37.8089C16.5361 37.8661 16.6289 37.9301 16.7347 37.9993C16.8405 38.0683 16.9593 38.1426 17.0902 38.2201C17.1557 38.2588 17.224 38.2984 17.2956 38.3385C17.3673 38.3787 17.4423 38.4194 17.5201 38.4605C17.5978 38.5016 17.6787 38.5429 17.7624 38.5845C17.8463 38.6261 17.9329 38.6679 18.0227 38.7096C18.1125 38.7513 18.205 38.7933 18.3007 38.8346C18.3964 38.8759 18.4948 38.9165 18.5963 38.957C18.6979 38.9975 18.8023 39.0375 18.9096 39.0768C19.0169 39.116 19.1274 39.1543 19.2404 39.1918C19.3534 39.2293 19.4689 39.2658 19.5876 39.3012C19.7062 39.3366 19.8279 39.3711 19.9521 39.4037C20.0763 39.4364 20.2032 39.4673 20.3329 39.4969C20.4626 39.5266 20.5951 39.5546 20.7303 39.5808C20.8654 39.6069 21.0033 39.6315 21.1438 39.6537C21.2844 39.6759 21.4275 39.6959 21.5733 39.7136C21.7191 39.7313 21.8676 39.7466 22.0187 39.7596C22.1697 39.7725 22.3231 39.7828 22.4793 39.7904C22.6356 39.798 22.7944 39.8027 22.9558 39.8046C23.1171 39.8066 23.281 39.8055 23.4474 39.8011C23.6137 39.7969 23.7826 39.7891 23.954 39.7788C24.1254 39.7678 24.2994 39.7533 24.4756 39.7348C24.6519 39.7171 24.8305 39.6951 25.0116 39.6696C25.1927 39.6439 25.376 39.6146 25.5619 39.581C25.5965 39.5742 25.6199 39.5716 25.6325 39.5721C25.6383 39.5722 25.6432 39.5749 25.6432 39.5749C25.6443 39.5772 25.6424 39.5785 25.6389 39.5822C25.6311 39.5885 25.6127 39.5983 25.5852 39.6105C25.5577 39.6227 25.5209 39.6382 25.4754 39.6558C25.3844 39.6911 25.2586 39.7365 25.1037 39.7907C24.9488 39.8449 24.7648 39.908 24.5568 39.978C24.1408 40.1178 23.6298 40.2854 23.0665 40.468C22.5032 40.6506 21.8874 40.848 21.2634 41.047C20.628 41.2496 20.0885 41.4187 19.4809 41.6106C19.5499 41.6505 19.6199 41.6899 19.6915 41.7287C19.774 41.7734 19.8578 41.8178 19.9438 41.861C20.0299 41.9042 20.1182 41.9465 20.2078 41.9879C20.2975 42.0294 20.3887 42.07 20.482 42.1095C20.5753 42.149 20.6707 42.1872 20.7678 42.2247C20.8649 42.2622 20.9638 42.2986 21.0647 42.3339C21.1656 42.3692 21.2685 42.4038 21.3733 42.4367C21.4782 42.4697 21.5852 42.5009 21.694 42.5314C21.8028 42.5618 21.9134 42.5908 22.0262 42.6186C22.139 42.6464 22.2536 42.6729 22.3705 42.6978C22.4875 42.7228 22.6069 42.7459 22.7279 42.7678C22.849 42.7897 22.972 42.8105 23.0973 42.8292C23.2226 42.8479 23.3496 42.8646 23.4792 42.88C23.6087 42.8954 23.7411 42.9096 23.8751 42.9216C24.009 42.9335 24.1445 42.9437 24.2829 42.952C24.4212 42.9603 24.5624 42.967 24.7052 42.9715C24.8481 42.976 24.993 42.9782 25.1404 42.9788C25.2878 42.9793 25.437 42.9778 25.5891 42.9743C25.7411 42.971 25.8954 42.9652 26.0522 42.9585C26.2088 42.9502 26.3686 42.9402 26.5301 42.9285C26.6916 42.9164 26.8551 42.9019 27.0214 42.8853C27.1877 42.8682 27.3569 42.8495 27.528 42.8281C27.6992 42.806 27.8723 42.7822 28.0485 42.7559C28.2246 42.7296 28.4036 42.7011 28.5847 42.6697C28.7659 42.6383 28.9495 42.6041 29.1358 42.5675C29.322 42.5308 29.5112 42.4917 29.7026 42.4497C29.894 42.4077 30.0875 42.3632 30.2841 42.3157C30.4808 42.2682 30.6805 42.2178 30.8825 42.1646C31.0844 42.1114 31.2886 42.0554 31.496 41.9963C31.7033 41.9373 31.9134 41.8749 32.1261 41.8098C32.3389 41.7447 32.5431 41.6846 32.7389 41.629C32.9346 41.5734 33.1223 41.5224 33.3015 41.4758C33.4807 41.4293 33.6514 41.3873 33.8144 41.3497C33.9775 41.3119 34.1329 41.2789 34.2803 41.2499C34.4277 41.2208 34.567 41.1957 34.6991 41.175C34.8312 41.1542 34.956 41.1373 35.0733 41.1246C35.132 41.1188 35.1889 41.113 35.2439 41.1085C35.2989 41.1041 35.352 41.1013 35.4034 41.0989C35.4548 41.0965 35.5048 41.0951 35.5528 41.0946C35.6007 41.094 35.647 41.0948 35.6915 41.0956C35.7359 41.0964 35.779 41.0997 35.8201 41.1025C35.8612 41.1059 35.9003 41.1097 35.938 41.1147C35.9757 41.1195 36.0118 41.1254 36.0463 41.1322C36.0807 41.1395 36.1132 41.1467 36.1445 41.1551C36.1757 41.1638 36.2056 41.1725 36.2335 41.1827C36.2616 41.1928 36.2876 41.2043 36.3124 41.2161C36.3373 41.228 36.3608 41.2402 36.3826 41.2538C36.4044 41.2672 36.4246 41.2816 36.4433 41.2966C36.4621 41.3117 36.4791 41.3276 36.4948 41.3442C36.5106 41.3609 36.5255 41.379 36.5383 41.3971C36.5512 41.4153 36.5621 41.4339 36.5721 41.4536C36.5826 41.4733 36.5907 41.4936 36.5978 41.5149C36.6049 41.536 36.611 41.5581 36.6154 41.5807C36.6203 41.6033 36.6228 41.6262 36.6243 41.6503C36.625 41.6608 36.6249 41.6726 36.6252 41.6837C36.6733 41.6795 36.7213 41.6754 36.7694 41.6715C36.8457 41.6673 36.922 41.6635 36.9984 41.6601C36.9977 41.6519 36.9964 41.6437 36.9959 41.6356C36.9947 41.6115 36.9953 41.5875 36.9963 41.5645C36.9984 41.5415 37.0017 41.5193 37.0058 41.4974C37.0104 41.4756 37.0165 41.4548 37.024 41.4341C37.0322 41.4134 37.0405 41.3928 37.0512 41.3733C37.0617 41.3537 37.0744 41.3351 37.0881 41.3167C37.1017 41.2983 37.1162 41.28 37.133 41.2627C37.1498 41.2455 37.1681 41.2288 37.1881 41.2128C37.2081 41.1969 37.2301 41.1813 37.2533 41.1665C37.2766 41.1517 37.3017 41.1378 37.3282 41.1244C37.3548 41.1109 37.3834 41.0984 37.4133 41.0863C37.4433 41.074 37.4747 41.0621 37.508 41.0513C37.5413 41.0399 37.5765 41.0309 37.6134 41.0214C37.6872 41.0024 37.7679 40.9861 37.8559 40.9728C37.9439 40.9593 38.0385 40.9489 38.1412 40.9415C38.244 40.9341 38.3546 40.9294 38.4726 40.9285C38.5906 40.9273 38.7165 40.9284 38.8501 40.933C38.9838 40.9377 39.1255 40.9453 39.2753 40.9566C39.4251 40.9677 39.5824 40.9823 39.7488 41.0002C39.9152 41.0181 40.0908 41.0393 40.2743 41.0638C40.4578 41.0885 40.6502 41.1166 40.8512 41.1484C41.0522 41.1801 41.2617 41.2157 41.4807 41.2548C41.6997 41.2939 41.9152 41.3295 42.1281 41.3634C42.3411 41.397 42.5515 41.4281 42.7584 41.4567C42.9654 41.4853 43.1691 41.5114 43.37 41.5349C43.571 41.5584 43.7694 41.5799 43.9645 41.5985C44.1597 41.6172 44.3515 41.6334 44.5409 41.6474C44.7303 41.6614 44.917 41.6733 45.1007 41.6827C45.2845 41.6921 45.4653 41.699 45.6435 41.7039C45.8216 41.7089 45.9966 41.7118 46.1693 41.7126C46.3419 41.7127 46.5124 41.7119 46.6797 41.7085C46.8469 41.7055 47.0117 41.6991 47.1736 41.6923C47.3355 41.6849 47.4946 41.6765 47.6512 41.6646C47.8079 41.654 47.962 41.6412 48.1135 41.6262C48.265 41.6112 48.414 41.5946 48.5604 41.5763C48.7068 41.5581 48.8506 41.5375 48.992 41.5158C49.1335 41.494 49.2729 41.4705 49.4095 41.4456C49.546 41.4206 49.68 41.3944 49.8117 41.3664C49.9435 41.3384 50.0728 41.3086 50.1998 41.2777C50.3268 41.2467 50.4514 41.2141 50.5738 41.1804C50.6961 41.1466 50.8159 41.1118 50.9337 41.0755C51.0515 41.0391 51.1673 41.0019 51.2806 40.9631C51.3939 40.9242 51.5045 40.8842 51.6134 40.8431C51.7224 40.8019 51.8292 40.7593 51.9338 40.7159C52.0384 40.6726 52.1409 40.6282 52.2413 40.5828C52.3416 40.5375 52.4402 40.4914 52.5364 40.4442C52.6325 40.3969 52.7264 40.349 52.8186 40.3001C52.9108 40.251 53.0007 40.2009 53.0889 40.1504C53.1772 40.0998 53.2638 40.0487 53.3481 39.9966C53.4323 39.9447 53.5144 39.8922 53.5949 39.8389C53.6754 39.7857 53.7537 39.7311 53.8305 39.6767C53.9073 39.6223 53.9824 39.5678 54.0555 39.5124C54.1287 39.4571 54.1998 39.4015 54.2694 39.3452C54.339 39.289 54.407 39.2324 54.4731 39.1755C54.5393 39.1186 54.6036 39.0617 54.6663 39.0043C54.7291 38.9468 54.79 38.8883 54.8494 38.8305C54.9089 38.7727 54.9669 38.7148 55.0231 38.6568C55.0794 38.5988 55.1337 38.5407 55.1868 38.4827C55.293 38.3664 55.3934 38.2502 55.4876 38.1344C55.5819 38.0187 55.6706 37.9033 55.7535 37.7893C55.8364 37.6754 55.9136 37.5631 55.9859 37.452C56.0582 37.3409 56.1257 37.2313 56.188 37.1244C56.2503 37.0175 56.3076 36.9127 56.3606 36.811C56.4137 36.7094 56.4621 36.6112 56.5066 36.5161C56.551 36.4209 56.5912 36.3293 56.6277 36.2419C56.6642 36.1546 56.6974 36.0712 56.7267 35.9927C56.7559 35.9142 56.7811 35.8404 56.8038 35.772C56.8266 35.7036 56.8459 35.6409 56.8626 35.5838C56.8961 35.4696 56.9193 35.3793 56.9333 35.3174C56.9474 35.2555 56.9527 35.222 56.9527 35.222C56.2901 31.7523 55.2706 28.953 55.226 28.8449L55.7829 20.9464L48.6054 18.0378C46.7807 17.9923 43.6502 16.537 35.8153 17.0395L35.8156 17.036Z" fill="#DF730E"/>
<path d="M56.9534 35.2186C56.9534 35.2186 56.9467 35.2521 56.9335 35.3139C56.9194 35.3758 56.8963 35.4666 56.8628 35.5808C56.8459 35.638 56.8266 35.7006 56.804 35.769C56.7813 35.8374 56.7555 35.9113 56.7263 35.9898C56.697 36.0683 56.6642 36.1516 56.6277 36.239C56.5912 36.3264 56.5511 36.4175 56.5066 36.5126C56.4622 36.6077 56.4138 36.7065 56.3607 36.8081C56.3076 36.9097 56.2504 37.0145 56.1881 37.1214C56.1257 37.2284 56.0583 37.338 55.986 37.4491C55.9137 37.5602 55.836 37.6724 55.7531 37.7864C55.6702 37.9004 55.5819 38.0158 55.4877 38.1315C55.3934 38.2472 55.2932 38.3635 55.1869 38.4797C55.1338 38.5379 55.0794 38.5959 55.0232 38.6539C54.9669 38.7119 54.9089 38.7697 54.8495 38.8276C54.79 38.8854 54.7291 38.9439 54.6664 39.0013C54.6036 39.0588 54.5393 39.1156 54.4732 39.1725C54.407 39.2295 54.339 39.2861 54.2694 39.3423C54.1998 39.3985 54.1287 39.4541 54.0556 39.5095C53.9824 39.5649 53.9073 39.6193 53.8306 39.6737C53.7538 39.7282 53.6755 39.7828 53.595 39.836C53.5145 39.8892 53.4319 39.9417 53.3476 39.9937C53.2633 40.0457 53.1772 40.0969 53.089 40.1474C53.0009 40.198 52.9108 40.2476 52.8186 40.2966C52.7264 40.3455 52.6321 40.3941 52.5359 40.4413C52.4397 40.4886 52.3412 40.5346 52.2408 40.5799C52.1404 40.6253 52.0379 40.6697 51.9334 40.713C51.8288 40.7564 51.7224 40.799 51.6135 40.8401C51.5047 40.8812 51.394 40.9213 51.2807 40.9601C51.1674 40.9989 51.0515 41.0363 50.9338 41.0725C50.816 41.1089 50.6962 41.1437 50.5739 41.1774C50.4515 41.2112 50.3269 41.2437 50.1999 41.2747C50.0729 41.3057 49.9435 41.3355 49.8118 41.3635C49.6801 41.3915 49.5461 41.4178 49.4096 41.4427C49.273 41.4677 49.1336 41.4912 48.9921 41.5128C48.8507 41.5346 48.7069 41.555 48.5605 41.5734C48.414 41.5916 48.2651 41.6085 48.1135 41.6233C47.962 41.6383 47.808 41.6511 47.6513 41.6617C47.4945 41.6723 47.3356 41.6815 47.1737 41.6893C47.0118 41.6967 46.847 41.7019 46.6798 41.7059C46.5125 41.709 46.342 41.7107 46.1694 41.71C45.9967 41.7086 45.8218 41.7063 45.6436 41.7013C45.4654 41.6963 45.2846 41.6896 45.1008 41.6801C44.9171 41.6707 44.7304 41.6588 44.541 41.6448C44.3516 41.6308 44.1598 41.6146 43.9646 41.5959C43.7695 41.5772 43.5711 41.5558 43.3701 41.5323C43.188 41.5111 43.003 41.4871 42.816 41.4617C42.7455 41.4452 42.6747 41.429 42.6038 41.4133C42.4587 41.382 42.3128 41.3522 42.1663 41.324C42.02 41.2956 41.8731 41.2687 41.7256 41.2433C41.5783 41.2181 41.4303 41.1944 41.2819 41.1722C41.1798 41.1572 41.0774 41.143 40.9748 41.1295C40.9753 41.142 40.9751 41.1542 40.9759 41.1666C40.9345 41.1597 40.8918 41.1523 40.8512 41.1459C40.6501 41.1142 40.4583 41.086 40.2748 41.0613C40.0913 41.0366 39.9157 41.015 39.7493 40.9972C39.5829 40.9794 39.4256 40.9652 39.2758 40.9541C39.126 40.9429 38.9838 40.9352 38.8501 40.9305C38.7164 40.9258 38.5906 40.9244 38.4726 40.926C38.3546 40.9273 38.2445 40.9316 38.1417 40.9389C38.0389 40.9463 37.9439 40.9579 37.8559 40.9708C37.7679 40.9843 37.6877 41.0005 37.614 41.0194C37.5771 41.0286 37.542 41.0384 37.5085 41.0493C37.4752 41.0607 37.4434 41.0722 37.4134 41.0843C37.3834 41.0967 37.3553 41.1089 37.3288 41.1223C37.3022 41.1358 37.2772 41.1498 37.2539 41.1645C37.2307 41.1792 37.2088 41.1948 37.1887 41.2108C37.1687 41.2268 37.1504 41.2435 37.1336 41.2606C37.1169 41.2778 37.1019 41.2957 37.0882 41.3141C37.0746 41.3325 37.0625 41.3516 37.0519 41.3713C37.0414 41.3909 37.0323 41.4113 37.0247 41.4321C37.0166 41.4528 37.0111 41.4736 37.0066 41.4954C37.002 41.5172 36.9987 41.5395 36.997 41.5624C36.9949 41.5854 36.9952 41.6095 36.9966 41.6336C36.997 41.6417 36.9985 41.6499 36.9991 41.658C37.076 41.6538 37.1528 41.6499 37.2297 41.6465C37.3826 41.6396 37.5358 41.6351 37.6886 41.6314C37.8418 41.628 37.9947 41.6262 38.1477 41.6256C38.3004 41.6246 38.4531 41.6261 38.6056 41.6284C38.7582 41.6309 38.9108 41.6342 39.063 41.6395C39.2152 41.6446 39.3671 41.651 39.5188 41.6591C39.6705 41.6671 39.8221 41.6764 39.9731 41.6872C40.1242 41.6982 40.2749 41.711 40.4253 41.7249C40.5758 41.7386 40.7257 41.7539 40.8753 41.7705C40.9018 41.7736 40.928 41.7767 40.9544 41.7799C40.9528 41.7918 40.9523 41.8031 40.9507 41.8147C40.9459 41.8525 40.9414 41.8898 40.936 41.927C40.9312 41.9642 40.9249 42.0017 40.9187 42.0385C40.9127 42.0753 40.9059 42.1117 40.8986 42.148C40.8914 42.1843 40.8839 42.2207 40.8758 42.2566C40.8674 42.2924 40.8588 42.3279 40.8498 42.3632C40.8402 42.3986 40.8315 42.4336 40.8215 42.4685C40.8117 42.5034 40.8014 42.5381 40.7907 42.5724C40.78 42.6068 40.7687 42.641 40.7571 42.6749C40.7455 42.7087 40.7338 42.7425 40.7214 42.7759C40.709 42.8094 40.6961 42.8421 40.6829 42.875C40.6698 42.9079 40.6562 42.9409 40.6423 42.9732C40.6283 43.0056 40.6137 43.0376 40.5989 43.0695C40.5842 43.1013 40.5693 43.1324 40.5538 43.1637C40.5384 43.195 40.5223 43.2263 40.5061 43.257C40.49 43.2878 40.4736 43.3182 40.4567 43.3485C40.4398 43.3787 40.4221 43.4088 40.4046 43.4385C40.387 43.4681 40.369 43.4973 40.3507 43.5264C40.3324 43.5555 40.3141 43.5844 40.2952 43.613C40.2763 43.6415 40.2566 43.6697 40.237 43.6976C40.2175 43.7256 40.1979 43.7537 40.1777 43.7812C40.1576 43.8086 40.137 43.8355 40.1162 43.8623C40.0954 43.8893 40.0743 43.9157 40.053 43.942C40.0316 43.9682 40.0101 43.9939 39.9881 44.0197C39.9662 44.0454 39.9439 44.0708 39.9216 44.0959C39.8991 44.121 39.8763 44.1461 39.8533 44.1706C39.8303 44.1951 39.8069 44.22 39.7834 44.2439C39.7599 44.2678 39.7364 44.2912 39.7123 44.3146C39.6883 44.3378 39.664 44.3602 39.6396 44.3829C39.6152 44.4055 39.5902 44.4285 39.5652 44.4506C39.5402 44.4726 39.5149 44.4944 39.4895 44.5159C39.4641 44.5373 39.4385 44.5583 39.4127 44.5791C39.3869 44.5999 39.361 44.6206 39.3349 44.6408C39.3087 44.6611 39.2823 44.681 39.2558 44.7006C39.2293 44.7201 39.2025 44.7394 39.1757 44.7583C39.1487 44.7771 39.122 44.7956 39.0948 44.8139C39.0675 44.8321 39.0399 44.85 39.0122 44.8675C38.9846 44.8851 38.9564 44.9021 38.9285 44.919C38.9006 44.9359 38.8724 44.9529 38.8441 44.9691C38.8159 44.9853 38.7875 45.0011 38.7591 45.0167C38.7306 45.0322 38.7021 45.0473 38.6735 45.0621C38.6447 45.077 38.6157 45.0918 38.5866 45.106C38.5575 45.1202 38.5288 45.1339 38.4997 45.1473C38.4705 45.1608 38.4409 45.1743 38.4116 45.1872C38.3821 45.1996 38.3524 45.2123 38.3228 45.2244C38.2932 45.2368 38.2636 45.2483 38.2339 45.2597C38.2041 45.2709 38.1742 45.2822 38.1443 45.2929C38.1144 45.304 38.0847 45.3139 38.0547 45.3239C38.0246 45.3339 37.9944 45.3431 37.9643 45.3523C37.9341 45.3612 37.9041 45.3707 37.8738 45.3792C37.8435 45.3881 37.813 45.3958 37.7827 45.4036C37.7524 45.4113 37.7223 45.4178 37.6919 45.4252C37.6615 45.4317 37.631 45.4394 37.6006 45.4454C37.5701 45.4519 37.5399 45.4572 37.5095 45.4629C37.479 45.4683 37.4484 45.4736 37.4178 45.4778C37.3874 45.482 37.357 45.4874 37.3265 45.4915C37.2961 45.4957 37.2655 45.4987 37.2351 45.5017C37.2047 45.5047 37.1744 45.5077 37.144 45.5096C37.1137 45.512 37.0836 45.5139 37.0533 45.5155C37.0231 45.5172 36.9925 45.519 36.9621 45.52C36.9317 45.521 36.9016 45.5213 36.8711 45.522C36.8406 45.5226 36.8102 45.5221 36.7797 45.5228C36.7491 45.5223 36.7182 45.5218 36.6875 45.5213C36.6569 45.5208 36.6264 45.5191 36.5957 45.5174C36.565 45.5158 36.5341 45.5141 36.5033 45.5125C36.4726 45.5108 36.4417 45.508 36.4108 45.5055C36.3801 45.5027 36.3495 45.4998 36.3188 45.4964C36.288 45.4936 36.2573 45.4896 36.2266 45.4852C36.1957 45.4812 36.165 45.4771 36.1343 45.4725C36.1036 45.4685 36.0725 45.4628 36.0419 45.4577C36.0112 45.4525 35.9804 45.4472 35.9498 45.4412C35.9192 45.4348 35.8887 45.4291 35.8582 45.4227C35.8277 45.4163 35.797 45.4091 35.7665 45.4021C35.7361 45.3945 35.706 45.3876 35.6757 45.3798C35.6453 45.3722 35.6148 45.3638 35.5848 45.3554C35.5546 45.3466 35.5243 45.338 35.4943 45.3289C35.4642 45.3202 35.4346 45.3106 35.4047 45.3008C35.3748 45.2909 35.3447 45.281 35.315 45.2706C35.2853 45.2602 35.2557 45.2493 35.2262 45.2382C35.1967 45.2272 35.1676 45.2155 35.1383 45.2038C35.1091 45.1921 35.0794 45.18 35.0504 45.1677C35.0213 45.1554 34.9927 45.1431 34.9639 45.13C34.9351 45.117 34.9063 45.1039 34.8778 45.0902C34.8492 45.0766 34.8213 45.0626 34.7931 45.0482C34.7648 45.0339 34.7363 45.0197 34.7084 45.0047C34.6804 44.9897 34.6531 44.9736 34.6255 44.9579C34.5979 44.9422 34.5699 44.9263 34.5426 44.9101C34.5154 44.8938 34.489 44.8769 34.4621 44.8599C34.4352 44.8429 34.4077 44.826 34.3811 44.8084C34.3546 44.7907 34.3286 44.7728 34.3025 44.7545C34.2763 44.7362 34.2506 44.7174 34.2248 44.6985C34.1991 44.6795 34.1734 44.66 34.1481 44.6403C34.1228 44.6206 34.0977 44.6008 34.0728 44.5805C34.0479 44.5601 34.0224 44.5392 33.9979 44.5181C33.9734 44.4971 33.9495 44.4757 33.9255 44.4539C33.9015 44.4321 33.878 44.4105 33.8545 44.3881C33.831 44.3657 33.8076 44.3427 33.7844 44.3196C33.7614 44.2965 33.7388 44.2732 33.7163 44.2494C33.6939 44.2257 33.6716 44.2015 33.6497 44.177C33.6278 44.1525 33.6064 44.1276 33.585 44.1024C33.5636 44.0772 33.5426 44.052 33.5218 44.0262C33.501 44.0003 33.4807 43.9743 33.4606 43.9477C33.4404 43.9211 33.4203 43.8938 33.4007 43.8666C33.3812 43.8393 33.3618 43.8117 33.3429 43.7837C33.324 43.7558 33.3053 43.7278 33.2871 43.6992C33.2688 43.6705 33.2508 43.6413 33.2332 43.612C33.2156 43.5826 33.1982 43.553 33.1813 43.523C33.1644 43.4929 33.1481 43.4625 33.1319 43.4317C33.1156 43.401 33.0994 43.3697 33.0838 43.3384C33.0682 43.3069 33.053 43.275 33.0383 43.2429C33.0235 43.2107 33.0093 43.1779 32.9953 43.145C32.9812 43.1121 32.9675 43.0791 32.9542 43.0454C32.9405 43.0118 32.9282 42.978 32.9157 42.9437C32.9031 42.9094 32.8913 42.8742 32.8796 42.8391C32.8681 42.8041 32.8564 42.7687 32.8454 42.7329C32.8351 42.6971 32.8239 42.6614 32.8139 42.6249C32.8034 42.5884 32.7944 42.5514 32.7853 42.5141C32.776 42.477 32.7669 42.4391 32.7585 42.4011C32.7504 42.3632 32.7422 42.3251 32.7349 42.2864C32.7332 42.2772 32.7314 42.2671 32.7296 42.2575C32.7686 42.2481 32.8076 42.2389 32.8467 42.23C33.2716 42.1326 33.7016 42.0467 34.1355 41.9724C34.5694 41.8982 35.0069 41.8358 35.4468 41.7851C35.8386 41.7414 36.232 41.707 36.6261 41.6822C36.6259 41.6717 36.6258 41.6598 36.6252 41.6493C36.6235 41.6253 36.62 41.6025 36.6163 41.5798C36.6114 41.5572 36.6066 41.5355 36.5992 41.5144C36.5921 41.4932 36.583 41.4725 36.573 41.4527C36.5625 41.433 36.5521 41.4143 36.5393 41.3961C36.5265 41.3779 36.5122 41.3604 36.4964 41.3437C36.4806 41.3271 36.4631 41.3112 36.4443 41.2961C36.4256 41.2811 36.4054 41.2661 36.3836 41.2527C36.3618 41.2392 36.3382 41.2274 36.3134 41.2156C36.2885 41.2037 36.2624 41.1924 36.2345 41.1821C36.2065 41.172 36.1772 41.1624 36.146 41.1539C36.1147 41.1453 36.0817 41.1378 36.0473 41.131C36.0129 41.1237 35.9768 41.1185 35.939 41.1135C35.9014 41.1088 35.8621 41.1045 35.8211 41.1013C35.78 41.0979 35.7376 41.0958 35.693 41.0944C35.6486 41.0936 35.6023 41.0928 35.5543 41.0934C35.5064 41.0939 35.4564 41.0958 35.405 41.0977C35.3535 41.1001 35.2999 41.103 35.2449 41.1073C35.1899 41.1117 35.1329 41.1176 35.0743 41.1235C34.957 41.1364 34.8322 41.1525 34.7001 41.1732C34.5679 41.1939 34.4287 41.219 34.2813 41.2481C34.134 41.2771 33.9791 41.3106 33.816 41.3483C33.6529 41.386 33.4817 41.4274 33.3025 41.4739C33.1233 41.5205 32.9361 41.5715 32.7404 41.6271C32.7139 41.6346 32.686 41.6431 32.6592 41.6509C32.6587 41.6359 32.6582 41.6209 32.6577 41.606L32.6554 41.6071C32.2825 41.7008 31.9139 41.8042 31.5503 41.917C31.249 42.0119 30.9513 42.1132 30.6577 42.2208C30.5326 42.2528 30.408 42.2842 30.2851 42.3139C30.0884 42.3615 29.8944 42.4059 29.703 42.4479C29.5116 42.4899 29.3225 42.5298 29.1362 42.5663C28.9499 42.603 28.7664 42.6371 28.5852 42.6685C28.404 42.7 28.2256 42.7283 28.0494 42.7547C27.8733 42.7811 27.6997 42.805 27.5285 42.8264C27.3573 42.8484 27.1886 42.8669 27.0223 42.8836C26.856 42.9007 26.6921 42.9159 26.5306 42.9279C26.3691 42.94 26.2093 42.9496 26.0526 42.9577C25.8959 42.966 25.7421 42.9706 25.5901 42.9735C25.438 42.9768 25.2883 42.9787 25.1409 42.9781C24.9935 42.9776 24.8485 42.9748 24.7057 42.9703C24.5628 42.9658 24.4222 42.9595 24.2839 42.9512C24.1455 42.9429 24.0095 42.9324 23.8755 42.9204C23.7416 42.9084 23.6097 42.8942 23.4801 42.8788C23.3505 42.8634 23.223 42.847 23.0977 42.828C22.9725 42.8093 22.8494 42.7885 22.7283 42.7666C22.6073 42.7447 22.4879 42.7219 22.371 42.6971C22.2541 42.6723 22.1395 42.6457 22.0267 42.6179C21.9139 42.5901 21.8032 42.5612 21.6945 42.5307C21.5856 42.5003 21.4786 42.4684 21.3738 42.4354C21.2689 42.4025 21.1666 42.368 21.0657 42.3326C20.9648 42.2973 20.8653 42.2609 20.7682 42.2234C20.6712 42.1859 20.5763 42.1478 20.4829 42.1082C20.3896 42.0687 20.2979 42.0281 20.2083 41.9866C20.1186 41.9453 20.0308 41.9029 19.9448 41.8597C19.8588 41.8166 19.7745 41.7726 19.692 41.7279C19.6213 41.6895 19.5522 41.6501 19.484 41.6107C19.4599 41.618 19.4337 41.6269 19.4097 41.6345C18.8117 41.8234 18.2484 42.0004 17.7631 42.1528C16.7946 42.4568 16.1403 42.661 16.1373 42.6619C16.7877 44.7742 18.8072 47.3657 22.1702 49.3844C25.7585 51.7557 30.8672 53.3993 37.4794 52.8746C44.119 52.3476 48.9731 50.246 52.2286 47.6075C55.9936 44.8149 57.6463 41.4058 57.444 38.7806C57.3506 37.5687 57.1708 36.3574 56.9534 35.2186Z" fill="#F5CCB4"/>
<path d="M36.3066 32.5088C36.3066 32.5088 32.4201 39.1428 32.6618 41.8067C32.9035 44.4706 35.1113 45.623 37.0492 45.5178C38.9871 45.4128 41.0849 43.6966 40.9717 41.1123C40.8584 38.5281 36.3066 32.5088 36.3066 32.5088Z" fill="#BA5C04"/>
<path d="M32.6544 41.6067C32.6548 41.6304 32.655 41.6545 32.6564 41.6777C32.6581 41.7211 32.6608 41.7638 32.6645 41.8053C32.6682 41.8469 32.673 41.8881 32.6767 41.9291C32.6815 41.97 32.6863 42.0105 32.6922 42.0506C32.6982 42.0908 32.7041 42.1304 32.71 42.1699C32.717 42.2093 32.7241 42.2486 32.7312 42.2874C32.7382 42.3261 32.7464 42.3641 32.7549 42.4021C32.763 42.44 32.7723 42.4778 32.7816 42.5151C32.7909 42.5522 32.8001 42.5893 32.8102 42.6258C32.8206 42.6623 32.8309 42.698 32.8418 42.7338C32.8521 42.7697 32.8642 42.805 32.876 42.8401C32.8874 42.8751 32.8995 42.9102 32.912 42.9446C32.9246 42.9789 32.9373 43.0128 32.9506 43.0465C32.9643 43.0801 32.9776 43.1132 32.9916 43.1461C33.0057 43.179 33.0204 43.2117 33.0352 43.2439C33.05 43.276 33.0651 43.308 33.0806 43.3394C33.0961 43.371 33.1124 43.402 33.1287 43.4328C33.1449 43.4635 33.1612 43.4938 33.1781 43.524C33.195 43.554 33.2124 43.5836 33.23 43.613C33.2476 43.6424 33.2656 43.6716 33.2839 43.7002C33.3021 43.7288 33.3208 43.7568 33.3397 43.7847C33.3586 43.8126 33.378 43.8403 33.3975 43.8676C33.4171 43.8949 33.4372 43.9221 33.4574 43.9487C33.4776 43.9753 33.4978 44.0013 33.5186 44.0272C33.5394 44.053 33.5605 44.0782 33.5818 44.1034C33.6031 44.1286 33.6245 44.1535 33.6464 44.178C33.6683 44.2025 33.6906 44.2265 33.713 44.2504C33.7354 44.2742 33.7581 44.2975 33.7811 44.3206C33.804 44.3437 33.8277 44.3666 33.8512 44.3891C33.8747 44.4115 33.8981 44.4333 33.9222 44.4549C33.9461 44.4767 33.9701 44.4981 33.9946 44.5191C34.019 44.5401 34.0441 44.5612 34.069 44.5816C34.0939 44.6019 34.1189 44.6218 34.1443 44.6414C34.1696 44.6611 34.1953 44.6806 34.2211 44.6996C34.2468 44.7186 34.2726 44.7373 34.2987 44.7557C34.3249 44.774 34.3513 44.7919 34.3778 44.8095C34.4044 44.8271 34.4314 44.8441 34.4584 44.8611C34.4853 44.8781 34.5121 44.8948 34.5393 44.9112C34.5665 44.9275 34.5941 44.9434 34.6217 44.9591C34.6494 44.9748 34.6772 44.9903 34.7051 45.0054C34.733 45.0203 34.7611 45.0347 34.7893 45.0489C34.8176 45.0633 34.846 45.0773 34.8745 45.0909C34.903 45.1045 34.9318 45.1183 34.9606 45.1312C34.9894 45.1442 35.018 45.1566 35.0471 45.1689C35.0761 45.1812 35.1057 45.1932 35.135 45.2049C35.1643 45.2166 35.1934 45.2279 35.2229 45.2389C35.2523 45.2499 35.282 45.2609 35.3117 45.2713C35.3413 45.2817 35.3715 45.2917 35.4014 45.3015C35.4313 45.3114 35.4609 45.3205 35.4909 45.3296C35.521 45.3383 35.5513 45.3476 35.5815 45.356C35.6116 45.3648 35.6421 45.3725 35.6723 45.3803C35.7027 45.3879 35.7327 45.3954 35.7631 45.4026C35.7935 45.4102 35.8243 45.4168 35.8548 45.4232C35.8853 45.4296 35.9158 45.436 35.9464 45.4417C35.977 45.4481 36.0077 45.4529 36.0384 45.4582C36.0691 45.4634 36.1001 45.4685 36.1308 45.473C36.1616 45.4782 36.1924 45.4819 36.2231 45.4858C36.2539 45.4898 36.2845 45.4938 36.3153 45.497C36.3461 45.4998 36.3766 45.5038 36.4074 45.5061C36.4381 45.5089 36.4691 45.5106 36.4999 45.513C36.5307 45.5147 36.5616 45.5175 36.5923 45.518C36.6231 45.5197 36.6534 45.5202 36.684 45.5219C36.7147 45.5224 36.7456 45.5228 36.7762 45.5233C36.8068 45.5238 36.8373 45.5232 36.8677 45.5225C36.8983 45.5218 36.9287 45.5212 36.9591 45.5205C36.9895 45.5195 37.0196 45.5177 37.0499 45.5161C37.0801 45.5145 37.1107 45.5125 37.141 45.5101C37.1714 45.5077 37.2017 45.5053 37.2321 45.5023C37.2625 45.4992 37.2931 45.4951 37.3236 45.4921C37.354 45.4879 37.3844 45.4837 37.4149 45.4784C37.4453 45.4742 37.4756 45.4688 37.5061 45.4635C37.5366 45.4581 37.5672 45.4528 37.5976 45.4459C37.628 45.4394 37.6581 45.4329 37.6885 45.4258C37.7189 45.4193 37.7495 45.4116 37.7797 45.4041C37.8101 45.3964 37.8406 45.3882 37.8708 45.3798C37.9011 45.3709 37.9312 45.3621 37.9613 45.3529C37.9915 45.344 38.0216 45.3343 38.0517 45.3244C38.0818 45.3144 38.1115 45.3041 38.1414 45.2934C38.1713 45.2822 38.2012 45.2716 38.2309 45.2602C38.2607 45.249 38.2902 45.2372 38.3198 45.225C38.3494 45.2127 38.3792 45.2005 38.4086 45.1878C38.4381 45.1754 38.4675 45.1615 38.4967 45.1479C38.5259 45.1344 38.5547 45.1207 38.5836 45.1065C38.6126 45.0924 38.6417 45.0775 38.6705 45.0627C38.6992 45.0478 38.7276 45.0327 38.7562 45.0172C38.7847 45.0016 38.813 44.9859 38.8412 44.9696C38.8694 44.9534 38.8977 44.9365 38.9256 44.9195C38.9535 44.9026 38.9812 44.8855 39.0089 44.868C39.0365 44.8504 39.0642 44.8326 39.0914 44.8144C39.1187 44.7961 39.1459 44.7776 39.1728 44.7588C39.1998 44.7399 39.2265 44.7206 39.253 44.7011C39.2796 44.6816 39.3058 44.6616 39.332 44.6414C39.3582 44.6212 39.3841 44.6005 39.4098 44.5796C39.4357 44.5588 39.4612 44.5378 39.4867 44.5164C39.5121 44.4949 39.5373 44.4733 39.5623 44.4511C39.5872 44.4291 39.6122 44.4065 39.6367 44.3839C39.6613 44.3612 39.6855 44.3384 39.7095 44.3151C39.7335 44.2918 39.757 44.2683 39.7806 44.2444C39.8041 44.2205 39.8275 44.1962 39.8505 44.1716C39.8735 44.1472 39.8962 44.122 39.9187 44.0969C39.9412 44.0717 39.9634 44.0464 39.9853 44.0207C40.0071 43.995 40.0288 43.9693 40.0502 43.9429C40.0716 43.9167 40.0926 43.8901 40.1134 43.8633C40.1341 43.8364 40.1547 43.809 40.1749 43.7817C40.195 43.7542 40.2147 43.7266 40.2342 43.6986C40.2537 43.6705 40.2735 43.6421 40.2924 43.6135C40.3113 43.5849 40.3296 43.5561 40.3478 43.527C40.3661 43.4978 40.384 43.4686 40.4017 43.439C40.4193 43.4093 40.4369 43.3792 40.4538 43.349C40.4708 43.3188 40.4871 43.2884 40.5033 43.2576C40.5195 43.2268 40.5355 43.1955 40.551 43.1642C40.5664 43.1329 40.5813 43.1018 40.596 43.07C40.6108 43.0382 40.6255 43.0061 40.6395 42.9738C40.6534 42.9414 40.6669 42.9085 40.6801 42.8756C40.6932 42.8427 40.7062 42.8099 40.7185 42.7765C40.7309 42.743 40.7427 42.7093 40.7542 42.6754C40.7658 42.6416 40.7771 42.6074 40.7878 42.573C40.7985 42.5386 40.8088 42.504 40.8187 42.469C40.8285 42.4341 40.8379 42.3991 40.8469 42.3638C40.8565 42.3284 40.8648 42.2928 40.8729 42.2571C40.8813 42.2212 40.8885 42.1848 40.8957 42.1485C40.9029 42.1122 40.9095 42.0758 40.9158 42.039C40.9218 42.0022 40.9279 41.9648 40.9331 41.9276C40.9379 41.8904 40.9434 41.853 40.9478 41.8153C40.9525 41.7775 40.9564 41.7397 40.9598 41.7016C40.9634 41.6634 40.9657 41.6246 40.9686 41.586C40.9709 41.5474 40.9733 41.5086 40.9741 41.4695C40.9752 41.4304 40.9764 41.3912 40.9763 41.3516C40.9763 41.3122 40.9763 41.2723 40.975 41.2325C40.9741 41.1984 40.9733 41.1645 40.9724 41.1301C40.9257 41.1235 40.8789 41.117 40.8321 41.1108C40.6823 41.0917 40.5322 41.0743 40.3816 41.0583C40.2311 41.0422 40.0802 41.0275 39.929 41.0145C39.778 41.0016 39.6266 40.9904 39.4749 40.9807C39.323 40.971 39.1707 40.9629 39.0183 40.9564C38.8661 40.9497 38.7137 40.9446 38.5612 40.941C38.4086 40.9377 38.2559 40.9359 38.1031 40.9357C37.9499 40.9355 37.7967 40.9369 37.6434 40.9398C37.4906 40.9427 37.3377 40.9472 37.1849 40.9533C37.0317 40.9594 36.8785 40.967 36.7254 40.9763C36.2827 41.003 35.8411 41.0428 35.4016 41.0958C34.9618 41.1487 34.5246 41.2147 34.0909 41.2935C33.6573 41.3724 33.2277 41.4641 32.8032 41.5683C32.7528 41.5813 32.7025 41.5944 32.6522 41.6077L32.6544 41.6067Z" fill="#341E12"/>
<path d="M23.6166 19.3985C23.6166 19.3985 16.3269 16.0608 13.0401 20.8354C9.75325 25.6099 16.9988 31.1309 16.9988 31.1309L23.6166 19.3985Z" fill="#DF730E"/>
<path d="M47.2381 17.9843C47.2381 17.9843 54.0744 13.7956 57.9106 18.141C61.7469 22.4864 55.2166 28.8373 55.2166 28.8373L47.2381 17.9843Z" fill="#DF730E"/>
<path d="M17.6609 29.0704C16.7498 24.8244 20.7733 21.4713 22.1014 20.7086C22.1014 20.7086 16.2068 18.8737 14.3725 21.9181C12.5382 24.9624 17.6609 29.0704 17.6609 29.0704Z" fill="#F5CCB4"/>
<path d="M54.4128 26.8639C54.8075 22.5392 50.4106 19.6935 49.0005 19.0957C49.0005 19.0957 54.6322 16.5664 56.8187 19.3685C59.0053 22.1706 54.4128 26.8639 54.4128 26.8639Z" fill="#F5CCB4"/>
<path d="M27.5298 37.2378C29.2769 37.5217 31.0277 36.3265 31.4405 34.5682C31.8533 32.8098 30.7717 31.1543 29.0246 30.8704C27.2776 30.5865 25.5267 31.7817 25.1139 33.5401C24.7012 35.2984 25.7828 36.9539 27.5298 37.2378Z" fill="#341E12"/>
<path d="M28.942 34.1277C29.4985 34.2182 30.0561 33.8375 30.1875 33.2775C30.319 32.7175 29.9745 32.1902 29.4181 32.0998C28.8617 32.0094 28.3041 32.39 28.1726 32.95C28.0411 33.51 28.3856 34.0373 28.942 34.1277Z" fill="#E3DFC5"/>
<path d="M45.5989 36.1415C43.8986 36.6331 42.0169 35.6567 41.396 33.9607C40.7751 32.2646 41.6502 30.4912 43.3505 29.9996C45.0508 29.508 46.9325 30.4844 47.5534 32.1804C48.1743 33.8765 47.2993 35.6499 45.5989 36.1415Z" fill="#341E12"/>
<path d="M45.6704 33.0208C45.1289 33.1774 44.5296 32.8664 44.3318 32.3262C44.1341 31.7861 44.4128 31.2212 44.9543 31.0647C45.4958 30.9081 46.0951 31.2191 46.2929 31.7593C46.4906 32.2994 46.2119 32.8642 45.6704 33.0208Z" fill="#E3DFC5"/>
<path d="M24.0652 30.3112C24.1701 30.0989 27.0992 27.2291 30.7184 27.7842L24.0652 30.3112Z" fill="#341E12"/>
<path d="M46.9379 28.9052C46.8082 28.707 43.5558 26.2096 40.0293 27.1952L46.9379 28.9052Z" fill="#341E12"/>
<path d="M16.092 37.527C16.087 37.5801 16.0812 37.6327 16.0765 37.6859C16.0764 37.6859 16.0765 37.6859 16.0765 37.6859C15.966 38.9077 15.8933 40.1539 15.9028 41.2812C15.9064 41.7051 15.9847 42.1699 16.1361 42.662C16.1396 42.661 16.7933 42.4569 17.7618 42.1528C18.2471 42.0004 18.8104 41.8234 19.4084 41.6345C19.4325 41.6272 19.4588 41.6182 19.4828 41.6107C19.4821 41.6103 19.4816 41.6102 19.4804 41.6098C20.0878 41.4179 20.6272 41.2488 21.2624 41.0462C21.8864 40.8473 22.5022 40.6499 23.0655 40.4673C23.6288 40.2846 24.1398 40.1171 24.5558 39.9773C24.7638 39.9073 24.9478 39.8442 25.1027 39.79C25.2576 39.7357 25.3834 39.6903 25.4744 39.6551C25.5199 39.6375 25.5567 39.622 25.5842 39.6098C25.6117 39.5976 25.6299 39.5879 25.6379 39.5815C25.6424 39.5777 25.6435 39.5765 25.6422 39.5742C25.6411 39.5719 25.6373 39.571 25.6314 39.5713C25.6189 39.571 25.5955 39.574 25.5609 39.5803C25.375 39.6138 25.1916 39.6433 25.0106 39.6688C24.8295 39.6945 24.6508 39.7159 24.4746 39.7341C24.2983 39.7517 24.1243 39.767 23.953 39.778C23.7816 39.789 23.6127 39.7962 23.4463 39.8003C23.28 39.8045 23.1161 39.8056 22.9548 39.8038C22.7934 39.8018 22.6346 39.7972 22.4783 39.7896C22.3221 39.7821 22.1687 39.7717 22.0177 39.7588C21.8666 39.7459 21.7181 39.7307 21.5723 39.7129C21.4264 39.6951 21.2833 39.6751 21.1428 39.653C21.0023 39.6309 20.8644 39.6062 20.7293 39.58C20.5941 39.554 20.4615 39.5259 20.3318 39.4962C20.2021 39.4665 20.0753 39.4357 19.9511 39.403C19.8269 39.3703 19.7052 39.3358 19.5865 39.3004C19.4679 39.2652 19.3524 39.2285 19.2394 39.1911C19.1264 39.1536 19.0159 39.1153 18.9086 39.076C18.8013 39.0368 18.6968 38.9968 18.5953 38.9563C18.4937 38.9157 18.3953 38.8751 18.2997 38.8339C18.204 38.7925 18.1114 38.7505 18.0216 38.7088C17.9318 38.6671 17.8452 38.6254 17.7614 38.5838C17.6776 38.5422 17.5968 38.5009 17.519 38.4597C17.4413 38.4186 17.3662 38.3779 17.2946 38.3378C17.2229 38.2977 17.1546 38.2581 17.0892 38.2193C16.9582 38.1418 16.8395 38.0677 16.7337 37.9985C16.6279 37.9294 16.535 37.8654 16.4549 37.8081C16.3747 37.7509 16.3073 37.7003 16.2533 37.6586C16.1459 37.5756 16.0925 37.5275 16.092 37.527Z" fill="#341E12"/>
<path d="M56.859 34.7423C56.8704 34.7944 56.8824 34.846 56.8935 34.8982C56.8935 34.8982 56.8931 34.8992 56.893 34.8993C57.1494 36.0989 57.3717 37.3263 57.4976 38.4466C57.5449 38.8679 57.523 39.3387 57.4317 39.8454C57.4282 39.8449 56.7546 39.7207 55.7566 39.5351C55.2565 39.4421 54.676 39.334 54.0597 39.2183C54.0349 39.2139 54.0078 39.2081 53.983 39.2035C53.9836 39.2031 53.9841 39.2029 53.9853 39.2024C53.3592 39.0848 52.8035 38.9816 52.1485 38.8568C51.5051 38.7342 50.8701 38.6122 50.289 38.4985C49.7078 38.3848 49.1804 38.2798 48.7506 38.191C48.5357 38.1465 48.3454 38.1059 48.1851 38.0707C48.0248 38.0355 47.8945 38.0055 47.7999 37.9814C47.7527 37.9694 47.7143 37.9584 47.6855 37.9496C47.6568 37.9408 47.6376 37.9334 47.6288 37.928C47.6239 37.9247 47.6227 37.9236 47.6237 37.9212C47.6245 37.9188 47.6282 37.9175 47.634 37.9171C47.6464 37.9153 47.67 37.9154 47.7052 37.9175C47.8937 37.9285 48.0792 37.9357 48.2621 37.9394C48.4449 37.9431 48.6249 37.9429 48.802 37.9398C48.9792 37.9361 49.1537 37.9304 49.3251 37.9208C49.4965 37.9111 49.6651 37.898 49.8308 37.8821C49.9965 37.8663 50.1593 37.8477 50.3192 37.8266C50.4792 37.8052 50.6363 37.7816 50.7905 37.7553C50.9447 37.729 51.0957 37.7003 51.2442 37.6694C51.3926 37.6384 51.5382 37.6055 51.6808 37.5703C51.8234 37.5351 51.9631 37.4981 52.1 37.4593C52.2368 37.4204 52.3707 37.3794 52.5017 37.3372C52.6328 37.2951 52.761 37.2513 52.8862 37.2062C53.0115 37.1612 53.1337 37.1154 53.253 37.068C53.3724 37.0206 53.4891 36.9718 53.6026 36.9224C53.7162 36.8732 53.8265 36.8229 53.9342 36.7722C54.0419 36.7214 54.147 36.6701 54.2488 36.6183C54.3505 36.5664 54.4495 36.5142 54.5454 36.4617C54.6414 36.4093 54.7342 36.3572 54.8242 36.3047C54.9142 36.2522 55.0011 36.1994 55.0852 36.1472C55.1693 36.0951 55.2503 36.0432 55.3285 35.9918C55.4068 35.9405 55.482 35.8898 55.5543 35.8396C55.6265 35.7894 55.6962 35.74 55.7625 35.6916C55.8288 35.6431 55.8919 35.5956 55.9522 35.5493C56.0729 35.4566 56.1818 35.3688 56.2786 35.2874C56.3753 35.2061 56.4598 35.1314 56.5325 35.065C56.6053 34.9985 56.666 34.9402 56.7146 34.8923C56.8113 34.797 56.8585 34.7429 56.859 34.7423Z" fill="#341E12"/>
<path d="M27.894 25.9034C27.894 25.9034 36.0402 22.3584 43.8056 24.9412L27.894 25.9034Z" fill="#341E12"/>
<path d="M26.3931 23.5011C26.3966 23.5009 34.367 18.2965 45.0071 22.367L26.3931 23.5011Z" fill="#341E12"/>
<path d="M24.9837 20.392C24.9872 20.3918 34.0379 15.1223 46.0331 19.1112L24.9837 20.392Z" fill="#341E12"/>
<path d="M16.9835 31.1159C16.9835 31.1159 21.3239 36.9306 24.6769 38.3619C24.9199 38.4656 16.2167 36.2938 16.2167 36.2938C16.4147 34.3351 16.7029 32.7606 16.9835 31.1159Z" fill="#341E12"/>
<path d="M55.238 28.8016C55.238 28.8016 51.6272 35.0953 48.4702 36.9188C48.2414 37.051 56.6668 33.8502 56.6668 33.8502C56.2351 31.9295 55.7492 30.3927 55.238 28.8016Z" fill="#341E12"/>
<path d="M40.0963 47.1064C40.0477 47.1016 39.9987 47.1065 39.9521 47.1206C39.9054 47.1348 39.862 47.158 39.8243 47.189C38.5298 48.2673 37.2495 48.341 36.2529 48.1594C35.2563 47.9778 34.5904 47.5364 34.5904 47.5364C34.5499 47.5092 34.5044 47.4902 34.4565 47.4807C34.4086 47.4711 34.3593 47.471 34.3114 47.4805C34.2635 47.49 34.218 47.5088 34.1773 47.5359C34.1367 47.5631 34.1019 47.5979 34.0748 47.6385C34.0477 47.6792 34.0289 47.7248 34.0195 47.7727C34.01 47.8207 34.0102 47.87 34.0199 47.9179C34.0295 47.9658 34.0486 48.0113 34.0759 48.0518C34.1032 48.0923 34.1382 48.1271 34.1789 48.154C34.1789 48.154 34.9697 48.6788 36.1205 48.8885C37.2712 49.0982 38.8288 48.9859 40.3003 47.7601C40.3755 47.6969 40.4227 47.6064 40.4314 47.5085C40.44 47.4106 40.4095 47.3132 40.3465 47.2378C40.2836 47.1627 40.1938 47.1154 40.0963 47.1064Z" fill="#341E12"/>
<path d="M34.8043 47.2475C34.7298 51.4148 39.746 52.2154 39.4367 47.0026L34.8043 47.2475Z" fill="#F44754"/>
<path d="M37.0903 45.5456L34.8122 47.8656C34.8122 47.8656 35.6968 47.2659 37.1787 47.1889C38.6605 47.1108 39.4665 47.6253 39.4665 47.6253L37.0903 45.5456Z" fill="#691C1C"/>
<path d="M30.6803 45.504C30.6803 45.504 29.5744 46.4228 29.6384 47.7365C29.6434 47.8348 29.6873 47.9271 29.7604 47.993C29.8335 48.059 29.9297 48.0933 30.0281 48.0883C30.126 48.0833 30.218 48.0398 30.2839 47.9672C30.3499 47.8946 30.3844 47.7989 30.3801 47.7009C30.3379 46.8473 31.1715 46.0603 31.1715 46.0603C31.2452 45.9951 31.29 45.9034 31.2961 45.8052C31.3022 45.7069 31.2691 45.6103 31.204 45.5365C31.1388 45.4628 31.047 45.418 30.9488 45.4119C30.8506 45.4058 30.7541 45.4389 30.6803 45.504Z" fill="#341E12"/>
<path d="M37.1836 45.2541C37.0958 45.2988 37.0294 45.3766 36.999 45.4703C36.9686 45.5639 36.9767 45.6659 37.0214 45.7536C37.0214 45.7536 37.5529 46.8035 38.7532 47.3749C39.9535 47.9465 41.8165 47.997 44.2898 46.2403C44.3296 46.2121 44.3634 46.1763 44.3894 46.135C44.4153 46.0937 44.4329 46.0477 44.441 45.9996C44.4492 45.9515 44.4478 45.9022 44.4369 45.8547C44.426 45.8071 44.4059 45.7622 44.3776 45.7224C44.3494 45.6826 44.3136 45.6488 44.2723 45.6228C44.2309 45.5969 44.1849 45.5794 44.1368 45.5712C44.0887 45.563 44.0395 45.5644 43.9919 45.5753C43.9444 45.5862 43.8994 45.6063 43.8597 45.6346C41.5296 47.2896 40.0322 47.1628 39.0722 46.7058C38.1122 46.2487 37.6831 45.4162 37.6831 45.4162C37.661 45.3728 37.6304 45.3341 37.5933 45.3025C37.5562 45.2708 37.5133 45.2468 37.4669 45.2317C37.4205 45.2167 37.3716 45.2109 37.323 45.2148C37.2743 45.2186 37.227 45.2319 37.1836 45.2541Z" fill="#341E12"/>
<path d="M36.7363 45.1666C36.6918 45.1872 36.6518 45.2164 36.6186 45.2526C36.5854 45.2888 36.5597 45.3312 36.543 45.3774C36.543 45.3774 36.2168 46.253 35.3187 46.822C34.4205 47.391 32.9492 47.6967 30.4372 46.3334C30.3944 46.3101 30.3473 46.2955 30.2988 46.2904C30.2503 46.2853 30.2012 46.2899 30.1545 46.3037C30.1077 46.3176 30.0641 46.3405 30.0262 46.3713C29.9883 46.402 29.9568 46.4399 29.9336 46.4828C29.9103 46.5256 29.8957 46.5727 29.8906 46.6212C29.8855 46.6697 29.89 46.7188 29.9039 46.7655C29.9178 46.8123 29.9407 46.8559 29.9714 46.8938C30.0022 46.9317 30.04 46.9632 30.0829 46.9864C32.7492 48.4335 34.5951 48.1617 35.7182 47.4503C36.8412 46.7388 37.2405 45.6329 37.2405 45.6329C37.2743 45.5404 37.2701 45.4382 37.2287 45.3489C37.1872 45.2595 37.112 45.1903 37.0195 45.1564C36.9275 45.1221 36.8257 45.126 36.7363 45.1666Z" fill="#341E12"/>
<path d="M43.5638 44.8697C43.4825 44.8142 43.3825 44.7933 43.2857 44.8116C43.189 44.8298 43.1034 44.8857 43.0479 44.967C42.9924 45.0484 42.9715 45.1484 42.9898 45.2452C43.008 45.3419 43.0639 45.4275 43.1452 45.483C43.1452 45.483 44.0643 46.1621 44.1255 47.0146C44.1289 47.0634 44.142 47.1111 44.1638 47.1549C44.1857 47.1986 44.2161 47.2376 44.2531 47.2697C44.2901 47.3017 44.3331 47.3261 44.3796 47.3414C44.4261 47.3567 44.4751 47.3627 44.5239 47.359C44.6221 47.3516 44.7133 47.3054 44.7775 47.2308C44.8416 47.1561 44.8735 47.059 44.8661 46.9608C44.7723 45.6489 43.5638 44.8697 43.5638 44.8697Z" fill="#341E12"/>
<path d="M19.0732 56C19.0732 56 19.0659 58.2919 19.0651 58.432C19.0644 58.5739 19.0651 58.7803 19.0731 59.0392C19.0772 59.1687 19.084 59.3112 19.0914 59.4653C19.0996 59.6194 19.11 59.7853 19.1231 59.9611C19.1374 60.1368 19.1541 60.3223 19.1733 60.5166C19.1942 60.7108 19.2171 60.9134 19.2453 61.1231C19.2728 61.3327 19.3062 61.5494 19.3438 61.7714C19.3814 61.9934 19.4238 62.2208 19.4718 62.452C19.4954 62.5678 19.5213 62.6845 19.5482 62.8019C19.5751 62.9193 19.6037 63.0372 19.6336 63.1559C19.6635 63.2746 19.695 63.3945 19.7279 63.5142C19.761 63.6338 19.7955 63.7539 19.832 63.8742C19.8685 63.9946 19.9064 64.1147 19.9463 64.2352C19.9861 64.3557 20.0281 64.476 20.0717 64.5964C20.1152 64.7167 20.1608 64.8371 20.2081 64.9569C20.2555 65.0765 20.3049 65.1962 20.3563 65.315C20.4077 65.4339 20.4607 65.5519 20.5161 65.6693C20.5715 65.7869 20.6294 65.9031 20.6891 66.0189C20.7489 66.1347 20.8111 66.2493 20.8751 66.3629C20.9394 66.4766 21.0056 66.5895 21.0743 66.7006C21.1087 66.7561 21.145 66.8124 21.1833 66.8697C21.2215 66.9268 21.2617 66.9849 21.3037 67.0437C21.388 67.1611 21.4794 67.2815 21.5778 67.4046C21.6763 67.5276 21.7817 67.6531 21.8933 67.7811C22.0048 67.9092 22.1231 68.0396 22.2467 68.172C22.3704 68.3045 22.4997 68.4389 22.6342 68.5751C22.7686 68.7114 22.9081 68.8497 23.0523 68.989C23.1966 69.1284 23.3458 69.2689 23.4986 69.4108C23.6516 69.5526 23.8079 69.6953 23.9683 69.839C24.1285 69.9826 24.2929 70.1273 24.4596 70.2722C24.6262 70.4171 24.7958 70.5629 24.9677 70.7084C25.1395 70.8539 25.3141 70.9998 25.4901 71.1453C25.666 71.2909 25.8438 71.4359 26.0227 71.5808C26.3805 71.8705 26.7426 72.1586 27.1055 72.442C27.4683 72.7254 27.8318 73.0042 28.1906 73.2762C28.5494 73.5482 28.9038 73.8129 29.2494 74.0685C29.5951 74.3241 29.9316 74.5704 30.2551 74.8046C30.5785 75.0388 30.889 75.2611 31.1812 75.4688C31.4734 75.6765 31.7474 75.8699 31.9993 76.0461C32.503 76.3986 32.9172 76.683 33.2054 76.8794C33.4935 77.0757 33.6557 77.1837 33.6557 77.1837C33.6557 77.1837 33.4131 77.1256 32.9866 77.0167C32.7733 76.9624 32.5142 76.8949 32.2165 76.8163C31.9189 76.7376 31.5824 76.6476 31.2153 76.5467C30.8482 76.4457 30.45 76.3344 30.0282 76.2131C29.6064 76.092 29.1608 75.9613 28.6992 75.8217C28.2376 75.6821 27.7602 75.5334 27.2736 75.3775C27.0303 75.2994 26.7852 75.2194 26.5384 75.1377C26.2917 75.056 26.0438 74.9726 25.7955 74.8874C25.5471 74.8022 25.2984 74.7153 25.0503 74.6269C24.8022 74.5383 24.5545 74.4481 24.3085 74.3567C24.0625 74.2652 23.8177 74.173 23.5757 74.0788C23.3337 73.9845 23.0945 73.8888 22.8583 73.7921C22.6221 73.6955 22.3895 73.5976 22.161 73.4987C21.9325 73.3997 21.7084 73.2999 21.4894 73.1989C21.2705 73.0979 21.0567 72.9961 20.8491 72.8933C20.6416 72.7907 20.44 72.6866 20.2457 72.5824C20.0514 72.478 19.864 72.3735 19.6848 72.268C19.5952 72.2153 19.5084 72.1621 19.4229 72.1089C19.3375 72.0559 19.2538 72.0032 19.1728 71.95C19.0916 71.8968 19.0125 71.8428 18.936 71.7893C18.8595 71.7358 18.7852 71.6824 18.7135 71.6288C18.6418 71.5752 18.5727 71.5217 18.506 71.468C18.4393 71.4143 18.3757 71.3602 18.3144 71.3063C18.253 71.2525 18.1942 71.1984 18.1384 71.1444C18.0826 71.0904 18.0292 71.0364 17.9791 70.9823C17.929 70.9281 17.8821 70.8739 17.8379 70.8199C17.7937 70.7658 17.7521 70.7115 17.7141 70.6573C17.6762 70.6031 17.6417 70.5491 17.6101 70.4951C17.5787 70.4411 17.5508 70.3873 17.5259 70.3333C17.5012 70.2792 17.4794 70.2248 17.4616 70.1709C17.4435 70.117 17.4294 70.0635 17.4187 70.0097C17.4157 69.9899 17.001 69.9692 16.9962 69.9495C16.6997 65.0289 17.337 59.7565 19.0732 56Z" fill="#341E12"/>
<circle cx="37.5" cy="37.5" r="35" stroke="#BE0503" stroke-width="5"/>
</g>
</g>
<defs>
<clipPath id="clip0_1812_2761">
<rect width="75" height="75" fill="white"/>
</clipPath>
</defs>
</svg>
