<svg width="75" height="75" viewBox="0 0 75 75" fill="none" xmlns="http://www.w3.org/2000/svg">
<g clip-path="url(#clip0_1812_2747)">
<mask id="mask0_1812_2747" style="mask-type:alpha" maskUnits="userSpaceOnUse" x="0" y="0" width="75" height="75">
<circle cx="37.5" cy="37.5" r="37.5" fill="#D9D9D9"/>
</mask>
<g mask="url(#mask0_1812_2747)">
<circle cx="37.5" cy="37.5" r="35" fill="#F8FBFC" stroke="#F1C22E" stroke-width="5"/>
<path d="M19.9405 44.1146C17.5232 38.6741 18.0169 32.4175 21.1885 26.5834C24.3602 20.7494 29.5851 17.028 37.451 17.0001C45.317 16.9723 51.072 21.4535 54.3368 26.6802C57.6017 31.9069 56.9242 38.7098 56.0367 44.3728C61.8004 52.3081 63 67.0399 63 67.0399L12 66.844C12 66.844 13.8636 52.2331 19.9405 44.1146Z" fill="#2B3139"/>
<path d="M39.16 32.7152C39.16 32.7152 42.1728 24.9165 45.3785 24.1732C48.5842 23.43 51.9188 26.8536 53.0394 30.1413C54.16 33.429 54.7187 36.3604 52.5 45C57.8561 53.4244 59.6674 67.0112 59.6674 67.0112L50.0001 74.5L33.7929 77.2582L18.5001 67.0112C18.5001 67.0112 18.3743 51.377 22.6827 44.7745C21.7117 39.4918 21.3561 33.0868 22.8577 29.9007C24.3593 26.7146 26.2117 23.8976 29.7984 24.2306C33.3852 24.5636 35.9091 32.9363 35.9091 32.9363L39.16 32.7152Z" fill="#EBE7D4"/>
<path d="M28.2346 33.527C29.637 33.527 30.7739 32.6856 30.7739 31.6477C30.7739 30.6097 29.637 29.7683 28.2346 29.7683C26.8322 29.7683 25.6953 30.6097 25.6953 31.6477C25.6953 32.6856 26.8322 33.527 28.2346 33.527Z" fill="#1D1E20"/>
<path d="M46.3686 33.5414C47.771 33.5414 48.9079 32.7 48.9079 31.662C48.9079 30.6241 47.771 29.7827 46.3686 29.7827C44.9662 29.7827 43.8293 30.6241 43.8293 31.662C43.8293 32.7 44.9662 33.5414 46.3686 33.5414Z" fill="#1D1E20"/>
<path d="M34.9634 32.7523C35.8312 31.4786 36.8857 31.2923 37.5499 31.2907C38.2141 31.2895 39.08 31.3289 40.0563 32.7236C39.311 34.6347 37.5744 36.1667 37.5744 36.1667C37.5744 36.1667 35.8171 34.8007 34.9634 32.7523Z" fill="#DEAF2F"/>
<path d="M29.2388 31.8916C29.532 31.8916 29.7696 31.6796 29.7696 31.4182C29.7696 31.1567 29.532 30.9447 29.2388 30.9447C28.9457 30.9447 28.708 31.1567 28.708 31.4182C28.708 31.6796 28.9457 31.8916 29.2388 31.8916Z" fill="#C9C6AF"/>
<path d="M47.5399 31.8843C47.833 31.8843 48.0707 31.6724 48.0707 31.4109C48.0707 31.1494 47.833 30.9375 47.5399 30.9375C47.2467 30.9375 47.009 31.1494 47.009 31.4109C47.009 31.6724 47.2467 31.8843 47.5399 31.8843Z" fill="#C9C6AF"/>
<path d="M22.6625 44.6206C22.6625 44.6206 26.9266 64.38 24.5731 70.3448C22.7643 74.9293 17.9213 72.5405 16.9446 66.9363C15.9679 61.3322 16.5319 52.819 22.6625 44.6206Z" fill="#242930"/>
<path d="M52.5 45C52.5 45 49.9796 65.0767 52.5202 70.9643C54.4729 75.4894 59.2381 72.9489 60.0374 67.3167C60.8367 61.6846 58.8864 53.0008 52.5 45Z" fill="#242930"/>
<circle cx="37.5" cy="37.5" r="35" stroke="#127CA6" stroke-width="5"/>
</g>
</g>
<defs>
<clipPath id="clip0_1812_2747">
<rect width="75" height="75" fill="white"/>
</clipPath>
</defs>
</svg>
