<svg width="16" height="16" viewBox="0 0 16 16" fill="none" xmlns="http://www.w3.org/2000/svg">
<path fill-rule="evenodd" clip-rule="evenodd" d="M8.00004 2.66665C5.05452 2.66665 2.66671 5.05446 2.66671 7.99998C2.66671 10.9455 5.05452 13.3333 8.00004 13.3333C10.9456 13.3333 13.3334 10.9455 13.3334 7.99998C13.3334 5.05446 10.9456 2.66665 8.00004 2.66665ZM1.33337 7.99998C1.33337 4.31808 4.31814 1.33331 8.00004 1.33331C11.6819 1.33331 14.6667 4.31808 14.6667 7.99998C14.6667 11.6818 11.6819 14.6666 8.00004 14.6666C4.31814 14.6666 1.33337 11.6818 1.33337 7.99998ZM7.88564 4.50489C8.25384 4.50489 8.55231 4.80336 8.55231 5.17155V8.48298L10.9036 9.37685C11.2478 9.50765 11.4207 9.89271 11.2898 10.2368C11.159 10.581 10.774 10.754 10.4298 10.6231L7.64877 9.56598C7.39004 9.46758 7.21897 9.21958 7.21897 8.94278V5.17155C7.21897 4.80336 7.51744 4.50489 7.88564 4.50489Z" fill="#08394C"/>
</svg>
