<svg width="20" height="20" viewBox="0 0 20 20" fill="none" xmlns="http://www.w3.org/2000/svg">
<path d="M7.49984 9.16667C7.96007 9.16667 8.33317 8.79358 8.33317 8.33333C8.33317 7.8731 7.96007 7.5 7.49984 7.5C7.0396 7.5 6.6665 7.8731 6.6665 8.33333C6.6665 8.79358 7.0396 9.16667 7.49984 9.16667Z" fill="#08394D" fill-opacity="0.5"/>
<path d="M13.3332 8.33333C13.3332 8.79358 12.9601 9.16667 12.4998 9.16667C12.0396 9.16667 11.6665 8.79358 11.6665 8.33333C11.6665 7.8731 12.0396 7.5 12.4998 7.5C12.9601 7.5 13.3332 7.8731 13.3332 8.33333Z" fill="#08394D" fill-opacity="0.5"/>
<path fill-rule="evenodd" clip-rule="evenodd" d="M9.99984 1.66669C5.39746 1.66669 1.6665 5.39764 1.6665 10C1.6665 14.6024 5.39746 18.3334 9.99984 18.3334C14.6022 18.3334 18.3332 14.6024 18.3332 10C18.3332 5.39764 14.6022 1.66669 9.99984 1.66669ZM3.33317 10C3.33317 6.31812 6.31794 3.33335 9.99984 3.33335C13.6818 3.33335 16.6665 6.31812 16.6665 10C16.6665 13.6819 13.6818 16.6667 9.99984 16.6667C6.31794 16.6667 3.33317 13.6819 3.33317 10Z" fill="#08394D" fill-opacity="0.5"/>
<path d="M8.14448 11.9717C7.85567 11.6192 7.33625 11.5638 6.97947 11.8492C6.62008 12.1367 6.56232 12.6618 6.84983 13.0212L6.85147 13.0232L6.85396 13.0263L6.85993 13.0336L6.87591 13.0527C6.88835 13.0672 6.90441 13.0855 6.92409 13.1071C6.96342 13.1501 7.01747 13.2062 7.08635 13.2707C7.22378 13.3996 7.42251 13.5644 7.68338 13.7275C8.20842 14.0557 8.98438 14.375 10 14.375C11.0157 14.375 11.7916 14.0557 12.3167 13.7275C12.5775 13.5644 12.7763 13.3996 12.9137 13.2707C12.9826 13.2062 13.0367 13.1501 13.076 13.1071C13.0957 13.0855 13.1117 13.0672 13.1242 13.0527L13.1401 13.0336L13.1461 13.0263L13.1486 13.0232L13.1497 13.0218L13.1508 13.0206C13.4383 12.6612 13.38 12.1367 13.0206 11.8492C12.6639 11.5638 12.1445 11.6192 11.8556 11.9717C11.8542 11.9733 11.851 11.977 11.846 11.9824C11.8332 11.9964 11.8091 12.0217 11.7739 12.0548C11.703 12.1212 11.5892 12.2168 11.4334 12.3142C11.1251 12.5068 10.651 12.7083 10 12.7083C9.34905 12.7083 8.87497 12.5068 8.56672 12.3142C8.41088 12.2168 8.29715 12.1212 8.22625 12.0548C8.19097 12.0217 8.16689 11.9964 8.15413 11.9824C8.14912 11.977 8.14591 11.9733 8.14448 11.9717Z" fill="#08394D" fill-opacity="0.5"/>
</svg>
