<svg width="27" height="16" viewBox="0 0 27 16" fill="none" xmlns="http://www.w3.org/2000/svg">
<path d="M3.875 8.625H5.625V6.875C5.625 6.64294 5.71719 6.42038 5.88128 6.25628C6.04538 6.09219 6.26794 6 6.5 6C6.73206 6 6.95462 6.09219 7.11872 6.25628C7.28281 6.42038 7.375 6.64294 7.375 6.875L7.34394 8.625H9.125C9.35706 8.625 9.57962 8.71719 9.74372 8.88128C9.90781 9.04538 10 9.26794 10 9.5C10 9.73206 9.90781 9.95462 9.74372 10.1187C9.57962 10.2828 9.35706 10.375 9.125 10.375L7.34394 10.3439L7.375 12.125C7.375 12.3571 7.28281 12.5796 7.11872 12.7437C6.95462 12.9078 6.73206 13 6.5 13C6.26794 13 6.04538 12.9078 5.88128 12.7437C5.71719 12.5796 5.625 12.3571 5.625 12.125V10.3439L3.875 10.375C3.64294 10.375 3.42038 10.2828 3.25628 10.1187C3.09219 9.95462 3 9.73206 3 9.5C3 9.26794 3.09219 9.04538 3.25628 8.88128C3.42038 8.71719 3.64294 8.625 3.875 8.625Z" fill="white"/>
<path d="M12.3248 7.92161L14.9404 10.2908L14.1569 13.8181C14.1155 14.0024 14.1273 14.1954 14.1909 14.3729C14.2546 14.5503 14.3672 14.7044 14.5148 14.8158C14.6623 14.9271 14.8382 14.9909 15.0205 14.9991C15.2027 15.0073 15.3833 14.9595 15.5396 14.8618L18.5038 12.9958L21.4616 14.8618C21.6179 14.9595 21.7984 15.0073 21.9807 14.9991C22.163 14.9909 22.3389 14.9271 22.4864 14.8158C22.634 14.7044 22.7466 14.5503 22.8102 14.3729C22.8739 14.1954 22.8857 14.0024 22.8442 13.8181L22.0619 10.2944L24.6781 7.92161C24.8165 7.79774 24.9165 7.63424 24.9657 7.45159C25.0149 7.26895 25.0111 7.07529 24.9546 6.89491C24.8982 6.71453 24.7917 6.55545 24.6486 6.43763C24.5054 6.31981 24.3318 6.24849 24.1498 6.23261L20.7013 5.92262L19.3552 2.59037C19.2849 2.41552 19.1663 2.26616 19.0144 2.16111C18.8625 2.05606 18.684 2 18.5015 2C18.3189 2 18.1404 2.05606 17.9885 2.16111C17.8366 2.26616 17.718 2.41552 17.6477 2.59037L16.2976 5.92262L12.8502 6.23261C12.6682 6.24849 12.4946 6.31981 12.3514 6.43763C12.2083 6.55545 12.1018 6.71453 12.0454 6.89491C11.9889 7.07529 11.9851 7.26895 12.0343 7.45159C12.0835 7.63424 12.1835 7.79774 12.3219 7.92161H12.3248Z" fill="#F1C22E"/>
</svg>
