<svg width="51" height="32" viewBox="0 0 51 32" fill="none" xmlns="http://www.w3.org/2000/svg">
<path d="M18.8245 14.356L25.4642 20.0056L23.4752 28.4168C23.37 28.8565 23.4 29.3167 23.5616 29.7399C23.7231 30.163 24.0091 30.5304 24.3836 30.796C24.7581 31.0616 25.2047 31.2136 25.6673 31.2331C26.13 31.2527 26.5884 31.1388 26.985 30.9057L34.5096 26.4561L42.0179 30.9057C42.4146 31.1388 42.8729 31.2527 43.3356 31.2331C43.7983 31.2136 44.2448 31.0616 44.6193 30.796C44.9939 30.5304 45.2798 30.163 45.4414 29.7399C45.6029 29.3167 45.633 28.8565 45.5277 28.4168L43.5417 20.0142L50.1829 14.356C50.5341 14.0607 50.7881 13.6708 50.913 13.2352C51.0379 12.7997 51.0281 12.3379 50.8849 11.9078C50.7416 11.4776 50.4713 11.0983 50.1079 10.8173C49.7444 10.5364 49.3039 10.3663 48.8417 10.3284L40.0878 9.58922L36.6708 1.64309C36.4924 1.22614 36.1914 0.869988 35.8057 0.619475C35.4201 0.368963 34.9671 0.235291 34.5037 0.235291C34.0403 0.235291 33.5873 0.368963 33.2016 0.619475C32.816 0.869988 32.515 1.22614 32.3366 1.64309L28.9092 9.58922L20.1583 10.3284C19.6961 10.3663 19.2556 10.5364 18.8921 10.8173C18.5287 11.0983 18.2584 11.4776 18.1151 11.9078C17.9719 12.3379 17.9621 12.7997 18.087 13.2352C18.2119 13.6708 18.4659 14.0607 18.8171 14.356H18.8245Z" fill="#F1C22E"/>
<path d="M1.875 16.125H5.625V12.375C5.625 11.8777 5.82254 11.4008 6.17417 11.0492C6.52581 10.6975 7.00272 10.5 7.5 10.5C7.99728 10.5 8.47419 10.6975 8.82582 11.0492C9.17746 11.4008 9.375 11.8777 9.375 12.375L9.30844 16.125H13.125C13.6223 16.125 14.0992 16.3225 14.4508 16.6742C14.8025 17.0258 15 17.5027 15 18C15 18.4973 14.8025 18.9742 14.4508 19.3258C14.0992 19.6775 13.6223 19.875 13.125 19.875L9.30844 19.8084L9.375 23.625C9.375 24.1223 9.17746 24.5992 8.82582 24.9508C8.47419 25.3025 7.99728 25.5 7.5 25.5C7.00272 25.5 6.52581 25.3025 6.17417 24.9508C5.82254 24.5992 5.625 24.1223 5.625 23.625V19.8084L1.875 19.875C1.37772 19.875 0.900805 19.6775 0.549175 19.3258C0.197544 18.9742 0 18.4973 0 18C0 17.5027 0.197544 17.0258 0.549175 16.6742C0.900805 16.3225 1.37772 16.125 1.875 16.125Z" fill="#08394C"/>
</svg>
