<svg width="226" height="1535" viewBox="0 0 226 1535" fill="none" xmlns="http://www.w3.org/2000/svg">
<g opacity="0.8">
<path d="M180.053 1368.3C179.529 1373.02 176.335 1377.65 174.474 1381.89C167.407 1397.99 156.894 1412.47 147.51 1427.29C134.476 1447.89 124.67 1470.9 111.248 1491.04" stroke="#BDED98" stroke-width="39" stroke-linecap="round"/>
<path d="M45.2329 1269.75C44.9389 1267.39 46.944 1270.96 48.1256 1272.17C51.7521 1275.89 55.7586 1278.72 59.6964 1282.04C73.2425 1293.45 69 1301.51 96.5 1324.5C132 1354.18 153.427 1355.23 166 1363.65C172.055 1367.71 166.373 1361.86 173.545 1363.65" stroke="#BDED98" stroke-width="39" stroke-linecap="round"/>
<path d="M45.2329 1065.72C44.9389 1063.36 46.944 1066.93 48.1256 1068.14C51.7521 1071.87 55.7586 1074.69 59.6964 1078.01C73.2425 1089.42 87.8727 1099.42 101.434 1110.76C117.413 1124.12 135.286 1135.03 152.573 1146.61C158.627 1150.66 166.373 1157.83 173.545 1159.62" stroke="#BDED98" stroke-width="39" stroke-linecap="round"/>
<path d="M45.2329 862.716C44.9389 860.363 46.944 863.931 48.1256 865.143C51.7521 868.865 55.7586 871.694 59.6964 875.01C73.2425 886.417 87.8727 896.423 101.434 907.759C117.413 921.116 135.286 932.031 152.573 943.608C158.627 947.663 166.373 954.832 173.545 956.625" stroke="#BDED98" stroke-width="39" stroke-linecap="round"/>
<path d="M46.0291 659.716C45.735 657.363 47.7402 660.931 48.9218 662.143C52.5482 665.865 56.5547 668.694 60.4925 672.01C74.0387 683.417 88.6688 693.423 102.23 704.759C118.209 718.116 136.083 729.031 153.369 740.608C159.423 744.663 167.169 751.832 174.341 753.625" stroke="#BDED98" stroke-width="39" stroke-linecap="round"/>
<path d="M46.0291 456.716C45.735 454.363 47.7402 457.931 48.9218 459.143C52.5482 462.865 56.5547 465.694 60.4925 469.01C74.0387 480.417 88.6688 490.423 102.23 501.759C118.209 515.116 136.083 526.031 153.369 537.608C159.423 541.663 167.169 548.832 174.341 550.625" stroke="#82CA69" stroke-width="39" stroke-linecap="round"/>
<path d="M46.0291 252.716C45.735 250.363 47.7402 253.931 48.9218 255.143C52.5482 258.865 56.5547 261.694 60.4925 265.01C74.0387 276.417 88.6688 286.423 102.23 297.759C118.209 311.116 136.083 322.031 153.369 333.608C159.423 337.663 167.169 344.832 174.341 346.625" stroke="#82CA69" stroke-width="39" stroke-linecap="round"/>
<path d="M46.0291 36.7852C45.735 34.4327 47.7402 38.0003 48.9218 39.213C52.5482 42.9349 56.5547 45.7631 60.4925 49.0792C74.0387 60.4864 88.6688 70.4923 102.23 81.8286C118.209 95.1858 136.083 106.1 153.369 117.677C159.423 121.732 167.169 128.901 174.341 130.694" stroke="#82CA69" stroke-width="39" stroke-linecap="round"/>
<path d="M46.1627 1275.32C47.522 1275.15 48.9976 1272.49 49.9336 1271.55C53.9095 1267.58 57.8387 1263.58 62.0725 1259.88C79.484 1244.64 98.177 1231.28 115.846 1216.39C132.735 1202.15 151.986 1188.84 171.375 1178.21C179.927 1173.52 188.634 1169.32 197.306 1164.89C198.419 1164.32 200.09 1163.89 197.306 1162.5" stroke="#BDED98" stroke-width="39" stroke-linecap="round"/>
<path d="M46.1627 1071.29C47.522 1071.12 48.9976 1068.46 49.9336 1067.52C53.9095 1063.55 57.8387 1059.55 62.0725 1055.85C79.484 1040.61 98.177 1027.25 115.846 1012.36C132.735 998.121 151.986 984.811 171.375 974.183C179.927 969.495 188.634 965.29 197.306 960.856C198.419 960.286 204.222 957.392 201.438 956" stroke="#BDED98" stroke-width="39" stroke-linecap="round"/>
<path d="M46.1627 868.294C47.522 868.125 48.9976 865.46 49.9336 864.524C53.9095 860.548 57.8387 856.554 62.0725 852.85C79.484 837.615 98.177 824.248 115.846 809.356C132.735 795.121 151.986 781.811 171.375 771.183C179.927 766.495 188.634 762.29 197.306 757.856C198.419 757.286 204.222 754.392 201.438 753" stroke="#BDED98" stroke-width="39" stroke-linecap="round"/>
<path d="M46.9589 665.294C48.3181 665.125 49.7938 662.46 50.7297 661.524C54.7057 657.548 58.6348 653.554 62.8687 649.85C80.2801 634.615 98.9731 621.248 116.642 606.356C133.531 592.121 152.782 578.811 172.171 568.183C180.724 563.495 189.43 559.29 198.102 554.856C199.215 554.286 205.019 551.392 202.234 550" stroke="#83CB6A" stroke-width="39" stroke-linecap="round"/>
<path d="M46.9589 462.294C48.3181 462.125 49.7938 459.46 50.7297 458.524C54.7057 454.548 58.6348 450.554 62.8687 446.85C80.2801 431.615 98.9731 418.248 116.642 403.356C133.531 389.121 152.782 375.811 172.171 365.183C180.724 360.495 189.43 356.29 198.102 351.856C199.215 351.286 205.019 348.392 202.234 347" stroke="#82CA69" stroke-width="39" stroke-linecap="round"/>
<path d="M46.9589 258.294C48.3181 258.125 49.7938 255.46 50.7297 254.524C54.7057 250.548 58.6348 246.554 62.8687 242.85C80.2801 227.615 98.9731 214.248 116.642 199.356C133.531 185.121 152.782 171.811 172.171 161.183C180.724 156.495 189.43 152.29 198.102 147.856C199.215 147.286 205.019 144.392 202.234 143" stroke="#82CA69" stroke-width="39" stroke-linecap="round"/>
<ellipse cx="50.5" cy="1066.5" rx="50.5" ry="36.5" fill="#BDED98"/>
<ellipse cx="50.5" cy="242.5" rx="50.5" ry="36.5" fill="#82CA69"/>
<ellipse cx="112.5" cy="1498.5" rx="50.5" ry="36.5" fill="#BDED98"/>
<ellipse cx="50.5" cy="654.5" rx="50.5" ry="36.5" fill="#BDED98"/>
<ellipse cx="50.5" cy="860.5" rx="50.5" ry="36.5" fill="#BDED98"/>
<ellipse cx="50.5" cy="36.5" rx="50.5" ry="36.5" fill="#82CA69"/>
<ellipse cx="50.5" cy="1272.5" rx="50.5" ry="36.5" fill="#BDED98"/>
<ellipse cx="50.5" cy="448.5" rx="50.5" ry="36.5" fill="#82CA69"/>
<ellipse cx="175.5" cy="963.5" rx="50.5" ry="36.5" fill="#BDED98"/>
<ellipse cx="175.5" cy="139.5" rx="50.5" ry="36.5" fill="#82CA69"/>
<ellipse cx="175.5" cy="1375.5" rx="50.5" ry="36.5" fill="#BDED98"/>
<ellipse cx="175.5" cy="551.5" rx="50.5" ry="36.5" fill="#83CB6A"/>
<ellipse cx="175.5" cy="757.5" rx="50.5" ry="36.5" fill="#BDED98"/>
<ellipse cx="175.5" cy="1169.5" rx="50.5" ry="36.5" fill="#BDED98"/>
<ellipse cx="175.5" cy="345.5" rx="50.5" ry="36.5" fill="#82CA69"/>
<ellipse cx="112" cy="1498.5" rx="37" ry="26.5" fill="#7CD67A"/>
<ellipse cx="176" cy="1375.5" rx="37" ry="26.5" fill="#7CD67A"/>
<ellipse cx="50" cy="1272.5" rx="37" ry="26.5" fill="#7CD67A"/>
<ellipse cx="176" cy="551.5" rx="37" ry="26.5" fill="#80C566"/>
<ellipse cx="50" cy="448.5" rx="37" ry="26.5" fill="#7DC464"/>
<ellipse cx="176" cy="345.5" rx="37" ry="26.5" fill="#7DC364"/>
<ellipse cx="50" cy="242.5" rx="37" ry="26.5" fill="#7DC364"/>
<ellipse cx="176" cy="139.5" rx="37" ry="26.5" fill="#7DC364"/>
<ellipse cx="50" cy="36.5" rx="37" ry="26.5" fill="#7DC364"/>
</g>
</svg>
