<svg width="226" height="4900" viewBox="0 0 226 4900" fill="none" xmlns="http://www.w3.org/2000/svg">
<g opacity="0.8">
<path d="M180.053 4733.3C179.529 4738.02 176.335 4742.65 174.474 4746.89C167.407 4762.99 156.894 4777.47 147.51 4792.29C134.476 4812.89 124.67 4835.9 111.248 4856.04" stroke="#BDED98" stroke-width="39" stroke-linecap="round"/>
<path d="M45.2329 4634.75C44.9389 4632.39 46.944 4635.96 48.1256 4637.17C51.7521 4640.89 55.7586 4643.72 59.6964 4647.04C73.2425 4658.45 69 4666.51 96.5 4689.5C132 4719.18 153.427 4720.23 166 4728.65C172.055 4732.71 166.373 4726.86 173.545 4728.65" stroke="#82CA69" stroke-width="39" stroke-linecap="round"/>
<path d="M45.2329 4430.72C44.9389 4428.36 46.944 4431.93 48.1256 4433.14C51.7521 4436.87 55.7586 4439.69 59.6964 4443.01C73.2425 4454.42 87.8727 4464.42 101.434 4475.76C117.413 4489.12 135.286 4500.03 152.573 4511.61C158.627 4515.66 166.373 4522.83 173.545 4524.63" stroke="#82CA69" stroke-width="39" stroke-linecap="round"/>
<path d="M45.2329 4227.72C44.9389 4225.36 46.944 4228.93 48.1256 4230.14C51.7521 4233.87 55.7586 4236.69 59.6964 4240.01C73.2425 4251.42 87.8727 4261.42 101.434 4272.76C117.413 4286.12 135.286 4297.03 152.573 4308.61C158.627 4312.66 166.373 4319.83 173.545 4321.63" stroke="#82CA69" stroke-width="39" stroke-linecap="round"/>
<path d="M46.0291 4024.72C45.735 4022.36 47.7402 4025.93 48.9218 4027.14C52.5482 4030.87 56.5547 4033.69 60.4925 4037.01C74.0387 4048.42 88.6688 4058.42 102.23 4069.76C118.209 4083.12 136.083 4094.03 153.369 4105.61C159.423 4109.66 167.169 4116.83 174.341 4118.63" stroke="#82CA69" stroke-width="39" stroke-linecap="round"/>
<path d="M46.0291 3821.72C45.735 3819.36 47.7402 3822.93 48.9218 3824.14C52.5482 3827.87 56.5547 3830.69 60.4925 3834.01C74.0387 3845.42 88.6688 3855.42 102.23 3866.76C118.209 3880.12 136.083 3891.03 153.369 3902.61C159.423 3906.66 167.169 3913.83 174.341 3915.63" stroke="#82CA69" stroke-width="39" stroke-linecap="round"/>
<path d="M46.0291 3617.72C45.735 3615.36 47.7402 3618.93 48.9218 3620.14C52.5482 3623.87 56.5547 3626.69 60.4925 3630.01C74.0387 3641.42 88.6688 3651.42 102.23 3662.76C118.209 3676.12 136.083 3687.03 153.369 3698.61C159.423 3702.66 167.169 3709.83 174.341 3711.63" stroke="#82CA69" stroke-width="39" stroke-linecap="round"/>
<path d="M46.0288 3401.79C45.7348 3399.43 47.7399 3403 48.9215 3404.21C52.548 3407.93 56.5545 3410.76 60.4923 3414.08C74.0384 3425.49 88.6686 3435.49 102.23 3446.83C118.208 3460.19 136.082 3471.1 153.368 3482.68C159.423 3486.73 167.169 3493.9 174.34 3495.69" stroke="#82CA69" stroke-width="39" stroke-linecap="round"/>
<path d="M46.0288 3195.79C45.7348 3193.43 47.7399 3197 48.9215 3198.21C52.548 3201.93 56.5545 3204.76 60.4923 3208.08C74.0384 3219.49 88.6686 3229.49 102.23 3240.83C118.208 3254.19 136.082 3265.1 153.368 3276.68C159.423 3280.73 167.169 3287.9 174.34 3289.69" stroke="#82CA69" stroke-width="39" stroke-linecap="round"/>
<path d="M46.0288 2979.79C45.7348 2977.43 47.7399 2981 48.9215 2982.21C52.548 2985.93 56.5545 2988.76 60.4923 2992.08C74.0384 3003.49 88.6686 3013.49 102.23 3024.83C118.208 3038.19 136.082 3049.1 153.368 3060.68C159.423 3064.73 167.169 3071.9 174.34 3073.69" stroke="#82CA69" stroke-width="39" stroke-linecap="round"/>
<path d="M46.0288 2764.79C45.7348 2762.43 47.7399 2766 48.9215 2767.21C52.548 2770.93 56.5545 2773.76 60.4923 2777.08C74.0384 2788.49 88.6686 2798.49 102.23 2809.83C118.208 2823.19 136.082 2834.1 153.368 2845.68C159.423 2849.73 167.169 2856.9 174.34 2858.69" stroke="#82CA69" stroke-width="39" stroke-linecap="round"/>
<path d="M46.0288 2550.79C45.7348 2548.43 47.7399 2552 48.9215 2553.21C52.548 2556.93 56.5545 2559.76 60.4923 2563.08C74.0384 2574.49 88.6686 2584.49 102.23 2595.83C118.208 2609.19 136.082 2620.1 153.368 2631.68C159.423 2635.73 167.169 2642.9 174.34 2644.69" stroke="#82CA69" stroke-width="39" stroke-linecap="round"/>
<path d="M46.0288 2332.79C45.7348 2330.43 47.7399 2334 48.9215 2335.21C52.548 2338.93 56.5545 2341.76 60.4923 2345.08C74.0384 2356.49 88.6686 2366.49 102.23 2377.83C118.208 2391.19 136.082 2402.1 153.368 2413.68C159.423 2417.73 167.169 2424.9 174.34 2426.69" stroke="#82CA69" stroke-width="39" stroke-linecap="round"/>
<path d="M46.0288 2115.79C45.7348 2113.43 47.7399 2117 48.9215 2118.21C52.548 2121.93 56.5545 2124.76 60.4923 2128.08C74.0384 2139.49 88.6686 2149.49 102.23 2160.83C118.208 2174.19 136.082 2185.1 153.368 2196.68C159.423 2200.73 167.169 2207.9 174.34 2209.69" stroke="#82CA69" stroke-width="39" stroke-linecap="round"/>
<path d="M46.0288 1899.79C45.7348 1897.43 47.7399 1901 48.9215 1902.21C52.548 1905.93 56.5545 1908.76 60.4923 1912.08C74.0384 1923.49 88.6686 1933.49 102.23 1944.83C118.208 1958.19 136.082 1969.1 153.368 1980.68C159.423 1984.73 167.169 1991.9 174.34 1993.69" stroke="#82CA69" stroke-width="39" stroke-linecap="round"/>
<path d="M46.0288 1684.79C45.7348 1682.43 47.7399 1686 48.9215 1687.21C52.548 1690.93 56.5545 1693.76 60.4923 1697.08C74.0384 1708.49 88.6686 1718.49 102.23 1729.83C118.208 1743.19 136.082 1754.1 153.368 1765.68C159.423 1769.73 167.169 1776.9 174.34 1778.69" stroke="#82CA69" stroke-width="39" stroke-linecap="round"/>
<path d="M46.0288 1469.79C45.7348 1467.43 47.7399 1471 48.9215 1472.21C52.548 1475.93 56.5545 1478.76 60.4923 1482.08C74.0384 1493.49 88.6686 1503.49 102.23 1514.83C118.208 1528.19 136.082 1539.1 153.368 1550.68C159.423 1554.73 167.169 1561.9 174.34 1563.69" stroke="#82CA69" stroke-width="39" stroke-linecap="round"/>
<path d="M46.0288 1255.79C45.7348 1253.43 47.7399 1257 48.9215 1258.21C52.548 1261.93 56.5545 1264.76 60.4923 1268.08C74.0384 1279.49 88.6686 1289.49 102.23 1300.83C118.208 1314.19 136.082 1325.1 153.368 1336.68C159.423 1340.73 167.169 1347.9 174.34 1349.69" stroke="#82CA69" stroke-width="39" stroke-linecap="round"/>
<path d="M46.0288 1033.79C45.7348 1031.43 47.7399 1035 48.9215 1036.21C52.548 1039.93 56.5545 1042.76 60.4923 1046.08C74.0384 1057.49 88.6686 1067.49 102.23 1078.83C118.208 1092.19 136.082 1103.1 153.368 1114.68C159.423 1118.73 167.169 1125.9 174.34 1127.69" stroke="#82CA69" stroke-width="39" stroke-linecap="round"/>
<path d="M46.0288 812.785C45.7348 810.433 47.7399 814 48.9215 815.213C52.548 818.935 56.5545 821.763 60.4923 825.079C74.0384 836.486 88.6686 846.492 102.23 857.829C118.208 871.186 136.082 882.1 153.368 893.677C159.423 897.732 167.169 904.901 174.34 906.694" stroke="#82CA69" stroke-width="39" stroke-linecap="round"/>
<path d="M46.0288 592.785C45.7348 590.433 47.7399 594 48.9215 595.213C52.548 598.935 56.5545 601.763 60.4923 605.079C74.0384 616.486 88.6686 626.492 102.23 637.829C118.208 651.186 136.082 662.1 153.368 673.677C159.423 677.732 167.169 684.901 174.34 686.694" stroke="#82CA69" stroke-width="39" stroke-linecap="round"/>
<path d="M46.0288 373.785C45.7348 371.433 47.7399 375 48.9215 376.213C52.548 379.935 56.5545 382.763 60.4923 386.079C74.0384 397.486 88.6686 407.492 102.23 418.829C118.208 432.186 136.082 443.1 153.368 454.677C159.423 458.732 167.169 465.901 174.34 467.694" stroke="#82CA69" stroke-width="39" stroke-linecap="round"/>
<path d="M46.0288 155.785C45.7348 153.433 47.7399 157 48.9215 158.213C52.548 161.935 56.5545 164.763 60.4923 168.079C74.0384 179.486 88.6686 189.492 102.23 200.829C118.208 214.186 136.082 225.1 153.368 236.677C159.423 240.732 167.169 247.901 174.34 249.694" stroke="#82CA69" stroke-width="39" stroke-linecap="round"/>
<path d="M46.1628 4640.32C47.5221 4640.15 48.9977 4637.49 49.9337 4636.55C53.9096 4632.58 57.8388 4628.58 62.0727 4624.88C79.4841 4609.64 98.1771 4596.28 115.846 4581.39C132.735 4567.15 151.986 4553.84 171.375 4543.21C179.927 4538.52 188.634 4534.32 197.306 4529.88C198.419 4529.32 204.223 4526.42 201.438 4525.03" stroke="#82CA69" stroke-width="39" stroke-linecap="round"/>
<path d="M46.1628 4436.29C47.5221 4436.12 48.9977 4433.46 49.9337 4432.52C53.9096 4428.55 57.8388 4424.55 62.0727 4420.85C79.4841 4405.61 98.1771 4392.25 115.846 4377.36C132.735 4363.12 151.986 4349.81 171.375 4339.18C179.927 4334.49 188.634 4330.29 197.306 4325.86C198.419 4325.29 204.223 4322.39 201.438 4321" stroke="#82CA69" stroke-width="39" stroke-linecap="round"/>
<path d="M46.1628 4233.29C47.5221 4233.12 48.9977 4230.46 49.9337 4229.52C53.9096 4225.55 57.8388 4221.55 62.0727 4217.85C79.4841 4202.61 98.1771 4189.25 115.846 4174.36C132.735 4160.12 151.986 4146.81 171.375 4136.18C179.927 4131.49 188.634 4127.29 197.306 4122.86C198.419 4122.29 204.223 4119.39 201.438 4118" stroke="#82CA69" stroke-width="39" stroke-linecap="round"/>
<path d="M46.959 4030.29C48.3182 4030.12 49.7939 4027.46 50.7298 4026.52C54.7058 4022.55 58.6349 4018.55 62.8688 4014.85C80.2802 3999.61 98.9732 3986.25 116.642 3971.36C133.531 3957.12 152.782 3943.81 172.171 3933.18C180.724 3928.49 189.43 3924.29 198.102 3919.86C199.215 3919.29 205.019 3916.39 202.235 3915" stroke="#82CA69" stroke-width="39" stroke-linecap="round"/>
<path d="M46.959 3827.29C48.3182 3827.12 49.7939 3824.46 50.7298 3823.52C54.7058 3819.55 58.6349 3815.55 62.8688 3811.85C80.2802 3796.61 98.9732 3783.25 116.642 3768.36C133.531 3754.12 152.782 3740.81 172.171 3730.18C180.724 3725.49 189.43 3721.29 198.102 3716.86C199.215 3716.29 205.019 3713.39 202.235 3712" stroke="#82CA69" stroke-width="39" stroke-linecap="round"/>
<path d="M46.9587 3623.29C48.318 3623.12 49.7936 3620.46 50.7296 3619.52C54.7055 3615.55 58.6347 3611.55 62.8686 3607.85C80.28 3592.61 98.973 3579.25 116.642 3564.36C133.531 3550.12 152.782 3536.81 172.171 3526.18C180.723 3521.49 189.43 3517.29 198.102 3512.86C199.215 3512.29 205.018 3509.39 202.234 3508" stroke="#82CA69" stroke-width="39" stroke-linecap="round"/>
<path d="M46.9587 3417.29C48.318 3417.12 49.7936 3414.46 50.7296 3413.52C54.7055 3409.55 58.6347 3405.55 62.8686 3401.85C80.28 3386.61 98.973 3373.25 116.642 3358.36C133.531 3344.12 152.782 3330.81 172.171 3320.18C180.723 3315.49 189.43 3311.29 198.102 3306.86C199.215 3306.29 205.018 3303.39 202.234 3302" stroke="#82CA69" stroke-width="39" stroke-linecap="round"/>
<path d="M46.9587 3201.29C48.318 3201.12 49.7936 3198.46 50.7296 3197.52C54.7055 3193.55 58.6347 3189.55 62.8686 3185.85C80.28 3170.61 98.973 3157.25 116.642 3142.36C133.531 3128.12 152.782 3114.81 172.171 3104.18C180.723 3099.49 189.43 3095.29 198.102 3090.86C199.215 3090.29 205.018 3087.39 202.234 3086" stroke="#82CA69" stroke-width="39" stroke-linecap="round"/>
<path d="M46.9587 2986.29C48.318 2986.12 49.7936 2983.46 50.7296 2982.52C54.7055 2978.55 58.6347 2974.55 62.8686 2970.85C80.28 2955.61 98.973 2942.25 116.642 2927.36C133.531 2913.12 152.782 2899.81 172.171 2889.18C180.723 2884.49 189.43 2880.29 198.102 2875.86C199.215 2875.29 205.018 2872.39 202.234 2871" stroke="#82CA69" stroke-width="39" stroke-linecap="round"/>
<path d="M46.9587 2772.29C48.318 2772.12 49.7936 2769.46 50.7296 2768.52C54.7055 2764.55 58.6347 2760.55 62.8686 2756.85C80.28 2741.61 98.973 2728.25 116.642 2713.36C133.531 2699.12 152.782 2685.81 172.171 2675.18C180.723 2670.49 189.43 2666.29 198.102 2661.86C199.215 2661.29 205.018 2658.39 202.234 2657" stroke="#82CA69" stroke-width="39" stroke-linecap="round"/>
<path d="M46.9587 2554.29C48.318 2554.12 49.7936 2551.46 50.7296 2550.52C54.7055 2546.55 58.6347 2542.55 62.8686 2538.85C80.28 2523.61 98.973 2510.25 116.642 2495.36C133.531 2481.12 152.782 2467.81 172.171 2457.18C180.723 2452.49 189.43 2448.29 198.102 2443.86C199.215 2443.29 205.018 2440.39 202.234 2439" stroke="#82CA69" stroke-width="39" stroke-linecap="round"/>
<path d="M46.9587 2337.29C48.318 2337.12 49.7936 2334.46 50.7296 2333.52C54.7055 2329.55 58.6347 2325.55 62.8686 2321.85C80.28 2306.61 98.973 2293.25 116.642 2278.36C133.531 2264.12 152.782 2250.81 172.171 2240.18C180.723 2235.49 189.43 2231.29 198.102 2226.86C199.215 2226.29 205.018 2223.39 202.234 2222" stroke="#82CA69" stroke-width="39" stroke-linecap="round"/>
<path d="M46.9587 2121.29C48.318 2121.12 49.7936 2118.46 50.7296 2117.52C54.7055 2113.55 58.6347 2109.55 62.8686 2105.85C80.28 2090.61 98.973 2077.25 116.642 2062.36C133.531 2048.12 152.782 2034.81 172.171 2024.18C180.723 2019.49 189.43 2015.29 198.102 2010.86C199.215 2010.29 205.018 2007.39 202.234 2006" stroke="#82CA69" stroke-width="39" stroke-linecap="round"/>
<path d="M46.9587 1906.29C48.318 1906.12 49.7936 1903.46 50.7296 1902.52C54.7055 1898.55 58.6347 1894.55 62.8686 1890.85C80.28 1875.61 98.973 1862.25 116.642 1847.36C133.531 1833.12 152.782 1819.81 172.171 1809.18C180.723 1804.49 189.43 1800.29 198.102 1795.86C199.215 1795.29 205.018 1792.39 202.234 1791" stroke="#82CA69" stroke-width="39" stroke-linecap="round"/>
<path d="M46.9587 1691.29C48.318 1691.12 49.7936 1688.46 50.7296 1687.52C54.7055 1683.55 58.6347 1679.55 62.8686 1675.85C80.28 1660.61 98.973 1647.25 116.642 1632.36C133.531 1618.12 152.782 1604.81 172.171 1594.18C180.723 1589.49 189.43 1585.29 198.102 1580.86C199.215 1580.29 205.018 1577.39 202.234 1576" stroke="#82CA69" stroke-width="39" stroke-linecap="round"/>
<path d="M46.9587 1477.29C48.318 1477.12 49.7936 1474.46 50.7296 1473.52C54.7055 1469.55 58.6347 1465.55 62.8686 1461.85C80.28 1446.61 98.973 1433.25 116.642 1418.36C133.531 1404.12 152.782 1390.81 172.171 1380.18C180.723 1375.49 189.43 1371.29 198.102 1366.86C199.215 1366.29 205.018 1363.39 202.234 1362" stroke="#82CA69" stroke-width="39" stroke-linecap="round"/>
<path d="M46.9587 1255.29C48.318 1255.12 49.7936 1252.46 50.7296 1251.52C54.7055 1247.55 58.6347 1243.55 62.8686 1239.85C80.28 1224.61 98.973 1211.25 116.642 1196.36C133.531 1182.12 152.782 1168.81 172.171 1158.18C180.723 1153.49 189.43 1149.29 198.102 1144.86C199.215 1144.29 205.018 1141.39 202.234 1140" stroke="#82CA69" stroke-width="39" stroke-linecap="round"/>
<path d="M46.9587 1034.29C48.318 1034.12 49.7936 1031.46 50.7296 1030.52C54.7055 1026.55 58.6347 1022.55 62.8686 1018.85C80.28 1003.61 98.973 990.248 116.642 975.356C133.531 961.121 152.782 947.811 172.171 937.183C180.723 932.495 189.43 928.29 198.102 923.856C199.215 923.286 205.018 920.392 202.234 919" stroke="#82CA69" stroke-width="39" stroke-linecap="round"/>
<path d="M46.9587 814.294C48.318 814.125 49.7936 811.46 50.7296 810.524C54.7055 806.548 58.6347 802.554 62.8686 798.85C80.28 783.615 98.973 770.248 116.642 755.356C133.531 741.121 152.782 727.811 172.171 717.183C180.723 712.495 189.43 708.29 198.102 703.856C199.215 703.286 205.018 700.392 202.234 699" stroke="#82CA69" stroke-width="39" stroke-linecap="round"/>
<path d="M46.9587 595.294C48.318 595.125 49.7936 592.46 50.7296 591.524C54.7055 587.548 58.6347 583.554 62.8686 579.85C80.28 564.615 98.973 551.248 116.642 536.356C133.531 522.121 152.782 508.811 172.171 498.183C180.723 493.495 189.43 489.29 198.102 484.856C199.215 484.286 205.018 481.392 202.234 480" stroke="#82CA69" stroke-width="39" stroke-linecap="round"/>
<path d="M46.9587 377.294C48.318 377.125 49.7936 374.46 50.7296 373.524C54.7055 369.548 58.6347 365.554 62.8686 361.85C80.28 346.615 98.973 333.248 116.642 318.356C133.531 304.121 152.782 290.811 172.171 280.183C180.723 275.495 189.43 271.29 198.102 266.856C199.215 266.286 205.018 263.392 202.234 262" stroke="#82CA69" stroke-width="39" stroke-linecap="round"/>
<path d="M46.9587 155.294C48.318 155.125 49.7936 152.46 50.7296 151.524C54.7055 147.548 58.6347 143.554 62.8686 139.85C80.28 124.615 98.973 111.248 116.642 96.3559C133.531 82.1206 152.782 68.8106 172.171 58.1826C180.723 53.4947 189.43 49.2903 198.102 44.8556C199.215 44.2864 205.018 41.392 202.234 40" stroke="#82CA69" stroke-width="39" stroke-linecap="round"/>
<ellipse cx="50.5" cy="4431.5" rx="50.5" ry="36.5" fill="#82CA69"/>
<ellipse cx="50.5" cy="3607.5" rx="50.5" ry="36.5" fill="#82CA69"/>
<ellipse cx="50.5" cy="3401.5" rx="50.5" ry="36.5" fill="#82CA69"/>
<ellipse cx="112.5" cy="4863.5" rx="50.5" ry="36.5" fill="#BDED98"/>
<ellipse cx="50.5" cy="4019.5" rx="50.5" ry="36.5" fill="#82CA69"/>
<ellipse cx="50.5" cy="4225.5" rx="50.5" ry="36.5" fill="#82CA69"/>
<ellipse cx="50.5" cy="3195.5" rx="50.5" ry="36.5" fill="#82CA69"/>
<ellipse cx="50.5" cy="2979.5" rx="50.5" ry="36.5" fill="#82CA69"/>
<ellipse cx="50.5" cy="2764.5" rx="50.5" ry="36.5" fill="#82CA69"/>
<ellipse cx="50.5" cy="2550.5" rx="50.5" ry="36.5" fill="#82CA69"/>
<ellipse cx="50.5" cy="2332.5" rx="50.5" ry="36.5" fill="#82CA69"/>
<ellipse cx="50.5" cy="2115.5" rx="50.5" ry="36.5" fill="#82CA69"/>
<ellipse cx="50.5" cy="1899.5" rx="50.5" ry="36.5" fill="#82CA69"/>
<ellipse cx="50.5" cy="1684.5" rx="50.5" ry="36.5" fill="#82CA69"/>
<ellipse cx="50.5" cy="1469.5" rx="50.5" ry="36.5" fill="#82CA69"/>
<ellipse cx="50.5" cy="1255.5" rx="50.5" ry="36.5" fill="#82CA69"/>
<ellipse cx="50.5" cy="1033.5" rx="50.5" ry="36.5" fill="#82CA69"/>
<ellipse cx="50.5" cy="812.5" rx="50.5" ry="36.5" fill="#82CA69"/>
<ellipse cx="50.5" cy="592.5" rx="50.5" ry="36.5" fill="#82CA69"/>
<ellipse cx="50.5" cy="373.5" rx="50.5" ry="36.5" fill="#82CA69"/>
<ellipse cx="50.5" cy="155.5" rx="50.5" ry="36.5" fill="#82CA69"/>
<ellipse cx="50.5" cy="4637.5" rx="50.5" ry="36.5" fill="#82CA69"/>
<ellipse cx="50.5" cy="3813.5" rx="50.5" ry="36.5" fill="#82CA69"/>
<ellipse cx="175.5" cy="4328.5" rx="50.5" ry="36.5" fill="#82CA69"/>
<ellipse cx="175.5" cy="3504.5" rx="50.5" ry="36.5" fill="#82CA69"/>
<ellipse cx="175.5" cy="3298.5" rx="50.5" ry="36.5" fill="#82CA69"/>
<ellipse cx="175.5" cy="3082.5" rx="50.5" ry="36.5" fill="#82CA69"/>
<ellipse cx="175.5" cy="2867.5" rx="50.5" ry="36.5" fill="#82CA69"/>
<ellipse cx="175.5" cy="2653.5" rx="50.5" ry="36.5" fill="#82CA69"/>
<ellipse cx="175.5" cy="2435.5" rx="50.5" ry="36.5" fill="#82CA69"/>
<ellipse cx="175.5" cy="2218.5" rx="50.5" ry="36.5" fill="#82CA69"/>
<ellipse cx="175.5" cy="2002.5" rx="50.5" ry="36.5" fill="#82CA69"/>
<ellipse cx="175.5" cy="1787.5" rx="50.5" ry="36.5" fill="#82CA69"/>
<ellipse cx="175.5" cy="1572.5" rx="50.5" ry="36.5" fill="#82CA69"/>
<ellipse cx="175.5" cy="1358.5" rx="50.5" ry="36.5" fill="#82CA69"/>
<ellipse cx="175.5" cy="1136.5" rx="50.5" ry="36.5" fill="#82CA69"/>
<ellipse cx="175.5" cy="915.5" rx="50.5" ry="36.5" fill="#82CA69"/>
<ellipse cx="175.5" cy="695.5" rx="50.5" ry="36.5" fill="#82CA69"/>
<ellipse cx="175.5" cy="476.5" rx="50.5" ry="36.5" fill="#82CA69"/>
<ellipse cx="175.5" cy="258.5" rx="50.5" ry="36.5" fill="#82CA69"/>
<ellipse cx="175.5" cy="36.5" rx="50.5" ry="36.5" fill="#82CA69"/>
<ellipse cx="175.5" cy="4740.5" rx="50.5" ry="36.5" fill="#82CA69"/>
<ellipse cx="175.5" cy="3916.5" rx="50.5" ry="36.5" fill="#82CA69"/>
<ellipse cx="175.5" cy="4122.5" rx="50.5" ry="36.5" fill="#82CA69"/>
<ellipse cx="175.5" cy="4534.5" rx="50.5" ry="36.5" fill="#82CA69"/>
<ellipse cx="175.5" cy="3710.5" rx="50.5" ry="36.5" fill="#82CA69"/>
<ellipse cx="112" cy="4863.5" rx="37" ry="26.5" fill="#7CD67A"/>
<ellipse cx="176" cy="4740.5" rx="37" ry="26.5" fill="#7DC364"/>
<ellipse cx="50" cy="4637.5" rx="37" ry="26.5" fill="#7DC364"/>
<ellipse cx="176" cy="4534.5" rx="37" ry="26.5" fill="#7DC364"/>
<ellipse cx="50" cy="4431.5" rx="37" ry="26.5" fill="#7DC364"/>
<ellipse cx="176" cy="4328.5" rx="37" ry="26.5" fill="#7DC364"/>
<ellipse cx="50" cy="4225.5" rx="37" ry="26.5" fill="#7DC364"/>
<ellipse cx="176" cy="4122.5" rx="37" ry="26.5" fill="#7DC364"/>
<ellipse cx="50" cy="4019.5" rx="37" ry="26.5" fill="#7DC364"/>
<ellipse cx="176" cy="3916.5" rx="37" ry="26.5" fill="#7DC364"/>
<ellipse cx="50" cy="3813.5" rx="37" ry="26.5" fill="#7DC464"/>
<ellipse cx="176" cy="3710.5" rx="37" ry="26.5" fill="#7DC364"/>
<ellipse cx="50" cy="3607.5" rx="37" ry="26.5" fill="#7DC364"/>
<ellipse cx="50" cy="3401.5" rx="37" ry="26.5" fill="#7DC364"/>
<ellipse cx="176" cy="3504.5" rx="37" ry="26.5" fill="#7DC364"/>
<ellipse cx="176" cy="3298.5" rx="37" ry="26.5" fill="#7DC364"/>
<ellipse cx="176" cy="3082.5" rx="37" ry="26.5" fill="#7DC364"/>
<ellipse cx="176" cy="2867.5" rx="37" ry="26.5" fill="#7DC364"/>
<ellipse cx="176" cy="2653.5" rx="37" ry="26.5" fill="#7DC364"/>
<ellipse cx="176" cy="2435.5" rx="37" ry="26.5" fill="#7DC364"/>
<ellipse cx="176" cy="2218.5" rx="37" ry="26.5" fill="#7DC364"/>
<ellipse cx="176" cy="2002.5" rx="37" ry="26.5" fill="#7DC364"/>
<ellipse cx="176" cy="1787.5" rx="37" ry="26.5" fill="#7DC364"/>
<ellipse cx="176" cy="1572.5" rx="37" ry="26.5" fill="#7DC364"/>
<ellipse cx="176" cy="1358.5" rx="37" ry="26.5" fill="#7DC364"/>
<ellipse cx="176" cy="1136.5" rx="37" ry="26.5" fill="#7DC364"/>
<ellipse cx="176" cy="915.5" rx="37" ry="26.5" fill="#7DC364"/>
<ellipse cx="176" cy="695.5" rx="37" ry="26.5" fill="#7DC364"/>
<ellipse cx="176" cy="476.5" rx="37" ry="26.5" fill="#7DC364"/>
<ellipse cx="176" cy="258.5" rx="37" ry="26.5" fill="#7DC364"/>
<ellipse cx="176" cy="36.5" rx="37" ry="26.5" fill="#7DC364"/>
<ellipse cx="50" cy="3195.5" rx="37" ry="26.5" fill="#7DC364"/>
<ellipse cx="50" cy="2979.5" rx="37" ry="26.5" fill="#7DC364"/>
<ellipse cx="50" cy="2764.5" rx="37" ry="26.5" fill="#7DC364"/>
<ellipse cx="50" cy="2550.5" rx="37" ry="26.5" fill="#7DC364"/>
<ellipse cx="50" cy="2332.5" rx="37" ry="26.5" fill="#7DC364"/>
<ellipse cx="50" cy="2115.5" rx="37" ry="26.5" fill="#7DC364"/>
<ellipse cx="50" cy="1899.5" rx="37" ry="26.5" fill="#7DC364"/>
<ellipse cx="50" cy="1684.5" rx="37" ry="26.5" fill="#7DC364"/>
<ellipse cx="50" cy="1469.5" rx="37" ry="26.5" fill="#7DC364"/>
<ellipse cx="50" cy="1255.5" rx="37" ry="26.5" fill="#7DC364"/>
<ellipse cx="50" cy="1033.5" rx="37" ry="26.5" fill="#7DC364"/>
<ellipse cx="50" cy="812.5" rx="37" ry="26.5" fill="#7DC364"/>
<ellipse cx="50" cy="592.5" rx="37" ry="26.5" fill="#7DC364"/>
<ellipse cx="50" cy="373.5" rx="37" ry="26.5" fill="#7DC364"/>
<ellipse cx="50" cy="155.5" rx="37" ry="26.5" fill="#7DC364"/>
</g>
</svg>
