<svg width="16" height="16" viewBox="0 0 16 16" fill="none" xmlns="http://www.w3.org/2000/svg">
<path fill-rule="evenodd" clip-rule="evenodd" d="M4.73339 3.33329H2.00004C1.63185 3.33329 1.33337 3.63177 1.33337 3.99996C1.33337 4.36815 1.63185 4.66663 2.00004 4.66663H2.70707L3.25653 13.458C3.32241 14.5121 4.19651 15.3333 5.25264 15.3333H10.7474C11.8036 15.3333 12.6776 14.5121 12.7436 13.458L13.293 4.66663H14C14.3682 4.66663 14.6667 4.36815 14.6667 3.99996C14.6667 3.63177 14.3682 3.33329 14 3.33329H12.6716C12.6679 3.33326 12.6642 3.33326 12.6606 3.33329H11.2667C10.9578 1.8118 9.61271 0.666626 8.00004 0.666626C6.3874 0.666626 5.04223 1.8118 4.73339 3.33329ZM6.11385 3.33329H9.88624C9.61171 2.5565 8.87084 1.99996 8.00004 1.99996C7.12924 1.99996 6.3884 2.5565 6.11385 3.33329ZM11.957 4.66663H4.04301L4.58727 13.3749C4.60923 13.7262 4.9006 14 5.25264 14H10.7474C11.0995 14 11.3908 13.7262 11.4128 13.3749L11.957 4.66663ZM9.51937 6.67309C9.88671 6.69883 10.1636 7.01736 10.1379 7.38469L9.85891 11.3749C9.83324 11.7422 9.51464 12.0192 9.14737 11.9935C8.78004 11.9678 8.50311 11.6492 8.52884 11.2819L8.80784 7.29169C8.83351 6.92436 9.15211 6.64744 9.51937 6.67309ZM6.48071 6.67316C6.84797 6.64746 7.16657 6.92436 7.19224 7.29169L7.47131 11.282C7.49697 11.6492 7.22004 11.9678 6.85277 11.9935C6.48545 12.0192 6.16688 11.7422 6.14119 11.375L5.86217 7.38469C5.83649 7.01743 6.11341 6.69883 6.48071 6.67316Z" fill="#08394C"/>
</svg>
