<svg width="102" height="115" viewBox="0 0 102 115" fill="none" xmlns="http://www.w3.org/2000/svg">
<g clip-path="url(#clip0_1732_5205)">
<g style="mix-blend-mode:multiply" opacity="0.329193">
<path d="M0 89.0869L56.1018 61.35L101.347 80.2711L58.2543 114.966L0 89.0869Z" fill="#3B596D"/>
</g>
<path d="M57.3315 48.8806L65.0215 51.2157L86.6685 92.0927L79.9094 89.0572L57.3315 48.8806Z" fill="#483B2C"/>
<path d="M86.6463 92.1112C88.2514 90.7282 89.9777 89.5117 91.5828 88.1287L69.4516 47.3647L63.4551 49.7422L86.6463 92.1112Z" fill="#544433"/>
<path d="M58.2544 115L63.7872 110.471L83.6748 21.5615L78.6971 24.8925L58.2544 115Z" fill="#604C3B"/>
<path d="M20.5641 1.94453C21.1698 1.94453 78.8167 24.7879 78.8167 24.7879L58.262 114.974L0.00927597 89.0741C0.00927597 89.0741 20.4784 0.830951 20.5641 1.94453Z" fill="#996C51"/>
<path d="M20.564 1.9465L28.389 3.19126e-05C28.495 -0.0302575 83.6577 21.5949 83.6577 21.5949L78.8408 24.8461L20.564 1.9465Z" fill="#7F6047"/>
<path d="M58.4374 22.9721C55.8478 22.1254 53.455 24.6452 53.337 24.7717C52.4144 24.085 51.5147 23.5581 50.4054 23.1664C49.1453 22.7214 47.6125 22.4378 45.4627 22.252C43.1236 22.0874 38.595 22.482 36.7029 23.133C36.4551 22.7438 35.4177 21.2412 33.8302 20.6823C32.9984 20.3895 32.0165 20.3568 30.9199 20.8811C27.4106 22.559 27.2068 25.5007 27.9332 27.507C28.5918 29.3258 30.6934 29.0728 31.0839 29.0092C30.0078 32.0445 27.9546 33.4561 27.6385 36.6962C27.3203 39.9586 30.3852 42.3124 30.3852 42.3124C30.383 42.3153 30.3821 42.3187 30.38 42.3215C30.38 42.3215 21.6781 52.7703 21.23 57.7398C21.0223 60.0433 21.4338 62.299 22.1919 64.1545C22.1788 64.1978 22.1469 64.3183 22.1347 64.3581C21.2289 67.3146 17.5801 77.127 19.4694 82.1362C18.6133 82.3048 18.0172 82.6915 17.7718 83.2377C17.477 83.9044 17.7243 84.7572 18.4592 85.6084C19.1941 86.4596 20.3565 87.2395 21.6906 87.7766C22.9764 88.2929 24.3214 88.5434 25.4495 88.4768C26.5775 88.4102 27.4032 88.0314 27.7569 87.4183C27.7591 87.4186 27.7622 87.4186 27.7646 87.4189C28.5049 86.4147 28.579 85.2049 28.5642 84.1924C28.5493 83.18 29.1913 81.3493 29.4662 80.909C29.7411 80.4687 30.3419 79.3689 31.7227 78.6434C32.0065 78.5003 32.1836 78.4214 32.1864 78.4201C32.2009 78.4496 32.2601 78.5694 32.3733 78.818C32.5833 79.2795 32.7688 79.7328 32.9397 80.1856C33.0434 80.9676 32.9474 81.5953 32.9123 81.9261C32.8576 82.4424 32.236 84.2793 31.6008 85.0677C31.0253 85.7814 30.4132 86.6695 30.275 87.7564C30.2667 87.8124 30.2615 87.8695 30.2595 87.9274C30.2549 87.9859 30.245 88.0423 30.2433 88.1019C30.2446 88.1029 30.2465 88.1039 30.248 88.1053C30.2703 88.7602 30.6805 89.5 31.4128 90.2059C32.1451 90.9118 33.1568 91.5428 34.2854 91.9973C34.9461 92.2634 35.6291 92.4617 36.2954 92.5811C36.9617 92.7005 37.5983 92.7386 38.1688 92.6933C38.7393 92.6479 39.2326 92.5199 39.6204 92.3167C40.0081 92.1134 40.2829 91.8389 40.4289 91.5087C40.7181 90.8542 40.4853 90.0201 39.78 89.1836C39.8602 89.1413 39.9414 89.1048 40.0209 89.0592C41.5256 88.197 42.93 86.7111 44.1266 84.9033C45.5712 83.0626 48.2091 76.7301 49.699 73.1474C50.2318 71.8661 50.703 70.6123 51.138 69.3779C53.2897 68.0715 55.4703 65.5452 56.5347 62.4168C58.1418 57.6931 54.4287 44.6123 54.4287 44.6123L54.4213 44.6149C56.0213 43.5951 57.1558 43.7114 58.3467 40.746C59.5579 37.7301 58.1209 36.4353 57.8448 32.14C57.8322 31.9439 57.8135 31.7616 57.795 31.5783C58.4717 31.77 60.0719 32.0358 60.98 30.6201C62.1519 28.7931 62.6287 25.878 59.5815 23.581C59.2006 23.2939 58.8173 23.097 58.4379 22.9729L58.4374 22.9721Z" fill="#7C513D" stroke="#F8FBFC" stroke-width="3.1151" stroke-linecap="round"/>
<path d="M36.7636 23.23C36.7636 23.23 34.4294 19.2038 30.9201 20.8816C27.4108 22.5595 27.2067 25.501 27.9331 27.5072C28.6595 29.5135 31.1655 28.9962 31.1655 28.9962L36.7636 23.23Z" fill="#EAD27C"/>
<path d="M53.3243 24.7861C53.3243 24.7861 56.5337 21.2833 59.5809 23.5803C62.6282 25.8774 62.1515 28.7931 60.9796 30.6201C59.8076 32.4471 57.475 31.4729 57.475 31.4729L53.3243 24.7861Z" fill="#EAD27C"/>
<path d="M54.491 25.6709C54.491 25.6709 56.7276 23.2299 58.8512 24.8307C60.9747 26.4314 60.6426 28.4633 59.8259 29.7365C59.0091 31.0097 57.3836 30.3308 57.3836 30.3308L54.491 25.6709Z" fill="#C1A538"/>
<path d="M35.5084 23.8702C35.5084 23.8702 33.8817 21.0644 31.4361 22.2337C28.9906 23.403 28.8483 25.4528 29.3546 26.8509C29.8608 28.2491 31.6072 27.8886 31.6072 27.8886L35.5084 23.8702Z" fill="#C1A538"/>
<path d="M21.6906 87.7772C24.469 88.8958 27.2194 88.677 27.8337 87.2886C28.448 85.9002 26.6936 83.8679 23.9151 82.7494C21.1367 81.6309 18.3863 81.8496 17.772 83.238C17.1577 84.6264 18.9121 86.6587 21.6906 87.7772Z" fill="#C1A538"/>
<path d="M34.2848 91.9972C37.0633 93.1157 39.8137 92.897 40.428 91.5086C41.0423 90.1202 39.2879 88.0879 36.5094 86.9694C33.7309 85.8508 30.9805 86.0696 30.3662 87.458C29.7519 88.8464 31.5063 90.8787 34.2848 91.9972Z" fill="#C1A538"/>
<path d="M50.4056 23.167C49.1454 22.722 47.6123 22.4384 45.4625 22.2525C42.9956 22.0789 38.0566 22.5237 36.3841 23.2393C34.7117 23.9549 32.177 25.8695 31.1072 28.9485C30.0374 32.0274 27.9565 33.4342 27.6383 36.6967C27.3201 39.9592 30.3852 42.3128 30.3852 42.3128C25.8257 49.6025 22.9991 61.5362 22.1343 64.3586C21.2278 67.3173 17.5741 77.1423 19.4731 82.1481C20.8745 85.591 24.4052 87.2444 27.7643 87.419C28.5046 86.4147 28.5791 85.2052 28.5642 84.1927C28.5494 83.1803 29.1913 81.3501 29.4662 80.9098C29.7411 80.4695 30.3415 79.3693 31.7224 78.6438C32.0061 78.5008 32.1832 78.4217 32.186 78.4205C32.2005 78.45 32.2598 78.5694 32.373 78.818C32.583 79.2796 32.7685 79.7329 32.9393 80.1857C33.043 80.9677 32.9471 81.5954 32.9119 81.9262C32.8573 82.4424 32.2359 84.2797 31.6004 85.068C30.9648 85.8563 30.2782 86.8548 30.2425 88.1019C32.9957 90.0342 36.7953 90.9075 40.0205 89.0593C41.5252 88.1971 42.9294 86.7108 44.126 84.903C45.5706 83.0623 48.2084 76.7301 49.6983 73.1474C54.7166 61.0802 55.2214 51.0029 54.4209 44.6148C56.021 43.595 57.1549 43.7114 58.3458 40.746C59.557 37.7301 58.1203 36.4352 57.8442 32.1398C57.5681 27.8444 55.8352 26.7188 53.714 25.0518C52.6534 24.2183 51.6657 23.612 50.4056 23.167Z" fill="#EAD27C"/>
<path d="M42.2421 42.0517C44.4454 42.2597 46.4098 40.8948 46.6297 39.003C46.8495 37.1113 45.2416 35.409 43.0383 35.2009C40.835 34.9929 38.8706 36.3578 38.6507 38.2496C38.4308 40.1414 40.0387 41.8436 42.2421 42.0517Z" fill="#DDC461"/>
<path d="M42.627 38.4121L42.4293 40.3432L42.627 38.4121Z" fill="#341E12"/>
<path d="M42.6517 38.1721C42.682 38.1745 42.7114 38.183 42.7381 38.1974C42.7649 38.2117 42.7885 38.2314 42.8077 38.2554C42.8268 38.2794 42.8411 38.3073 42.8497 38.3374C42.8583 38.3675 42.861 38.3992 42.8578 38.4308L42.6601 40.3616C42.6569 40.3931 42.6478 40.4239 42.6332 40.4522C42.6186 40.4804 42.5989 40.5056 42.5752 40.5262C42.5515 40.5469 42.5242 40.5626 42.495 40.5724C42.4658 40.5823 42.4351 40.5861 42.4048 40.5837C42.3746 40.5813 42.3452 40.5727 42.3184 40.5584C42.2917 40.5441 42.2681 40.5244 42.2489 40.5003C42.2298 40.4763 42.2155 40.4484 42.2069 40.4183C42.1983 40.3882 42.1956 40.3565 42.1988 40.3249L42.3964 38.3942C42.3997 38.3626 42.4088 38.3318 42.4234 38.3035C42.438 38.2753 42.4577 38.2501 42.4814 38.2295C42.5051 38.2089 42.5323 38.1932 42.5616 38.1833C42.5908 38.1735 42.6214 38.1696 42.6517 38.1721Z" fill="#A98E32"/>
<path d="M44.7155 39.8306C44.7282 39.859 44.7354 39.8899 44.7366 39.9215C44.7377 39.9531 44.7329 39.9849 44.7222 40.0149C44.7116 40.045 44.6955 40.0727 44.6747 40.0966C44.6539 40.1205 44.629 40.14 44.6012 40.154C44.6012 40.154 44.294 40.3112 43.8747 40.4526C43.4554 40.594 42.9202 40.728 42.4185 40.6688C41.4328 40.5525 40.3322 39.7721 40.3322 39.7721C40.3071 39.755 40.2856 39.7329 40.269 39.7069C40.2524 39.6809 40.2409 39.6516 40.2354 39.6207C40.2298 39.5897 40.2301 39.5578 40.2364 39.5266C40.2427 39.4955 40.2549 39.4657 40.2721 39.4391C40.2893 39.4123 40.3114 39.3892 40.337 39.3711C40.3626 39.353 40.3913 39.3402 40.4214 39.3335C40.4514 39.3267 40.4823 39.3262 40.5122 39.332C40.542 39.3377 40.5704 39.3496 40.5955 39.3668C40.5955 39.3668 41.7034 40.0979 42.4848 40.1901C42.8667 40.2352 43.3571 40.1239 43.7436 39.9936C44.1302 39.8633 44.4082 39.7231 44.4082 39.7231C44.4639 39.6946 44.5276 39.69 44.5852 39.7101C44.6427 39.7303 44.6896 39.7736 44.7155 39.8306Z" fill="#A98E32"/>
<path d="M41.1623 37.0023C41.0521 37.5046 42.6466 38.4795 42.6466 38.4795C42.6466 38.4795 44.3517 37.8446 44.4055 37.3643C44.4591 36.884 43.5717 36.3764 42.9688 36.2881C42.3659 36.1997 41.2726 36.5 41.1623 37.0023Z" fill="#A98E32"/>
<path d="M37.8098 32.2383C37.5912 32.2175 37.3673 32.2612 37.1508 32.3667C36.9343 32.4722 36.7296 32.6375 36.5482 32.8532C36.3668 33.0689 36.2124 33.3307 36.0938 33.6237C35.9752 33.9168 35.8946 34.2352 35.8568 34.5609C35.7805 35.2184 35.8826 35.8655 36.1407 36.3598C36.3988 36.8541 36.7918 37.1552 37.2331 37.1969C37.4517 37.2176 37.6757 37.174 37.8921 37.0685C38.1086 36.963 38.3134 36.7976 38.4948 36.582C38.6761 36.3663 38.8305 36.1044 38.9492 35.8114C39.0678 35.5184 39.1483 35.2 39.1862 34.8743C39.2624 34.2168 39.1603 33.5697 38.9022 33.0754C38.6441 32.581 38.2512 32.2799 37.8098 32.2383ZM38.5015 33.5912C38.545 33.5948 38.5874 33.6068 38.6275 33.6271C38.6668 33.6481 38.7034 33.6768 38.7366 33.7126C38.7704 33.7482 38.8004 33.7907 38.8258 33.839C38.8513 33.8873 38.872 33.9411 38.8873 33.999C38.9021 34.057 38.9114 34.1185 38.915 34.1819C38.9191 34.2447 38.9174 34.3088 38.9101 34.3727C38.9075 34.3969 38.9042 34.4209 38.9 34.4448C38.8957 34.4689 38.8907 34.4928 38.8848 34.5165C38.8789 34.5395 38.8722 34.5621 38.8648 34.5844C38.8572 34.6074 38.8489 34.63 38.8398 34.652C38.8311 34.6733 38.8217 34.6941 38.8117 34.7143C38.8013 34.7351 38.7903 34.7552 38.7787 34.7746C38.7678 34.7937 38.7564 34.8121 38.7444 34.8297C38.7319 34.8471 38.7189 34.8637 38.7054 34.8794C38.6918 34.8957 38.6777 34.9111 38.6632 34.9255C38.6492 34.9396 38.6347 34.9527 38.6199 34.9648C38.6048 34.9766 38.5893 34.9874 38.5737 34.9971C38.558 35.0072 38.5422 35.0162 38.5261 35.0242C38.51 35.0321 38.4937 35.0388 38.4773 35.0444C38.4613 35.0501 38.4451 35.0546 38.429 35.0579C38.4125 35.0608 38.396 35.0625 38.3796 35.0629C38.3631 35.0641 38.3468 35.0641 38.3305 35.0629C38.2876 35.0586 38.2458 35.046 38.2063 35.0254C38.1664 35.0051 38.1292 34.9769 38.0954 34.9415C38.0616 34.9054 38.0316 34.8623 38.0063 34.8134C37.9814 34.765 37.9613 34.7112 37.9465 34.6536C37.9311 34.5961 37.9212 34.5351 37.9169 34.4722C37.9128 34.4088 37.9145 34.3441 37.922 34.2796C37.9294 34.2155 37.9424 34.1521 37.9606 34.0912C37.9795 34.0301 38.0034 33.9721 38.032 33.9186C38.0595 33.8648 38.0914 33.8159 38.1268 33.773C38.1626 33.7305 38.2015 33.6946 38.2426 33.6661C38.2837 33.6375 38.3267 33.6166 38.3704 33.604C38.4142 33.5913 38.4582 33.587 38.5015 33.5912Z" fill="#A98E32"/>
<path d="M48.7068 33.3423C48.4882 33.3215 48.2643 33.3652 48.0478 33.4707C47.8313 33.5762 47.6265 33.7415 47.4452 33.9572C47.2638 34.1729 47.1094 34.4347 46.9908 34.7277C46.8721 35.0208 46.7916 35.3392 46.7538 35.6649C46.6775 36.3224 46.7796 36.9695 47.0377 37.4638C47.2958 37.9581 47.6887 38.2593 48.1301 38.3009C48.5714 38.3428 49.0251 38.1218 49.3913 37.6866C49.7575 37.2513 50.0063 36.6375 50.083 35.98C50.121 35.6543 50.1154 35.3277 50.0668 35.0188C50.0182 34.71 49.9274 34.4249 49.7996 34.18C49.6718 33.935 49.5095 33.735 49.322 33.5912C49.1345 33.4475 48.9254 33.3629 48.7068 33.3423ZM49.4841 34.5354C49.5101 34.5376 49.5358 34.5428 49.5608 34.551C49.5856 34.5593 49.6097 34.5707 49.6329 34.5848C49.6565 34.5993 49.679 34.6168 49.7003 34.6369C49.7209 34.6567 49.7403 34.679 49.7582 34.7036C49.7765 34.7279 49.7933 34.7545 49.8084 34.7832C49.8238 34.8122 49.8375 34.8431 49.8493 34.8758C49.8606 34.9083 49.8701 34.9423 49.8777 34.9776C49.8856 35.013 49.8915 35.0496 49.8954 35.0871C49.8993 35.1249 49.9011 35.1635 49.9008 35.2025C49.9001 35.2406 49.8974 35.2789 49.8926 35.317C49.8914 35.331 49.8898 35.345 49.888 35.3589C49.8856 35.3723 49.8829 35.3857 49.8799 35.399C49.8774 35.4129 49.8747 35.4268 49.8716 35.4407C49.8681 35.4541 49.8644 35.4673 49.8604 35.4805C49.8569 35.4933 49.8532 35.506 49.8492 35.5186C49.8452 35.532 49.8408 35.5452 49.8363 35.5583C49.8317 35.5711 49.8268 35.5837 49.8218 35.5962C49.8172 35.6084 49.8124 35.6205 49.8074 35.6324C49.8017 35.6446 49.7958 35.6566 49.7896 35.6684C49.7839 35.68 49.7781 35.6914 49.772 35.7027C49.7652 35.7137 49.7582 35.7245 49.7511 35.735C49.7449 35.7455 49.7386 35.7558 49.732 35.7658C49.7247 35.7763 49.7172 35.7865 49.7096 35.7964C49.7023 35.8057 49.6949 35.8148 49.6873 35.8236C49.6795 35.8329 49.6716 35.842 49.6635 35.8507C49.6557 35.8594 49.6477 35.8679 49.6397 35.8761C49.6314 35.8837 49.623 35.891 49.6145 35.898C49.6062 35.905 49.5978 35.9118 49.5893 35.9182C49.5805 35.9247 49.5717 35.9309 49.5627 35.9366C49.5539 35.9426 49.545 35.9482 49.5361 35.9534C49.5268 35.9588 49.5174 35.9637 49.508 35.9683C49.4993 35.9731 49.4905 35.9776 49.4817 35.9817C49.4719 35.9854 49.4621 35.9886 49.4522 35.9915C49.443 35.994 49.4339 35.9962 49.4247 35.998C49.4155 36.0005 49.4063 36.0027 49.3971 36.0045C49.3875 36.0059 49.3778 36.007 49.3682 36.0076C49.3591 36.0079 49.3501 36.0078 49.3411 36.0074C49.3315 36.0077 49.3219 36.0075 49.3124 36.007C49.2869 36.0042 49.2619 35.9985 49.2374 35.9899C49.2121 35.9816 49.1874 35.9703 49.1637 35.956C49.1407 35.9419 49.1187 35.9251 49.0979 35.9057C49.0767 35.886 49.0567 35.8636 49.0383 35.8389C49.02 35.814 49.0032 35.7868 48.9882 35.7576C48.9734 35.7286 48.9603 35.6977 48.949 35.6651C48.9371 35.6327 48.927 35.5986 48.9189 35.5632C48.9116 35.5277 48.9063 35.4912 48.9029 35.4538C48.899 35.4165 48.8972 35.3785 48.8974 35.3401C48.8975 35.3015 48.8997 35.2626 48.9039 35.2238C48.9085 35.1855 48.9152 35.1475 48.9237 35.1102C48.9323 35.0723 48.9428 35.0351 48.9552 34.999C48.9672 34.9632 48.9809 34.9286 48.9963 34.8953C49.0122 34.8621 49.0297 34.8306 49.0486 34.8009C49.0678 34.7709 49.0885 34.7429 49.1103 34.7172C49.1317 34.6916 49.1543 34.6683 49.1778 34.6475C49.2014 34.6269 49.2259 34.6088 49.251 34.5935C49.2762 34.5783 49.3019 34.566 49.328 34.5566C49.3537 34.547 49.3796 34.5404 49.4055 34.5367C49.4317 34.5332 49.4577 34.5328 49.4835 34.5354L49.4841 34.5354Z" fill="#A98E32"/>
<path d="M39.4038 30.4171C39.4304 30.4318 39.4538 30.4519 39.4727 30.4762C39.4915 30.5006 39.5054 30.5287 39.5136 30.559C39.5218 30.5893 39.5241 30.6212 39.5204 30.6528C39.5167 30.6844 39.5071 30.7151 39.492 30.7431C39.4617 30.7997 39.4113 30.842 39.352 30.8609C39.2928 30.8797 39.2294 30.8735 39.176 30.8437C38.5644 30.5038 37.9915 30.6202 37.5418 30.8257C37.0922 31.0312 36.8005 31.3209 36.8005 31.3209C36.7782 31.3432 36.7519 31.3607 36.7233 31.3726C36.6947 31.3846 36.6643 31.3905 36.6338 31.3903C36.6034 31.39 36.5734 31.3835 36.5457 31.3711C36.518 31.3587 36.4931 31.3407 36.4724 31.318C36.4517 31.2954 36.4356 31.2687 36.425 31.2393C36.4144 31.2099 36.4095 31.1785 36.4107 31.1468C36.4119 31.1151 36.4191 31.0837 36.4318 31.0546C36.4446 31.0254 36.4627 30.9989 36.4851 30.9767C36.4851 30.9767 36.8336 30.6279 37.3662 30.3845C37.8989 30.1411 38.6493 29.9977 39.4038 30.4171Z" fill="#A98E32"/>
<path d="M48.7288 31.0075C49.0666 31.0862 49.3576 31.2403 49.5902 31.4091C50.0553 31.7467 50.3174 32.1534 50.3174 32.1534C50.3341 32.1793 50.3457 32.2086 50.3514 32.2395C50.3571 32.2705 50.3568 32.3025 50.3506 32.3337C50.3444 32.3649 50.3324 32.3947 50.3152 32.4214C50.2981 32.4482 50.2761 32.4712 50.2506 32.4894C50.2251 32.5076 50.1966 32.5205 50.1666 32.5274C50.1367 32.5343 50.1059 32.535 50.076 32.5294C50.0462 32.5239 50.0179 32.5123 49.9927 32.4953C49.9675 32.4782 49.9459 32.4561 49.9292 32.4301C49.9292 32.4301 49.7103 32.0929 49.3176 31.8079C48.925 31.5229 48.3906 31.3023 47.7142 31.5205C47.6551 31.5395 47.5919 31.5336 47.5385 31.5041C47.485 31.4745 47.4456 31.4239 47.4289 31.3631C47.4206 31.3328 47.4182 31.301 47.4218 31.2695C47.4253 31.2379 47.4349 31.2071 47.4498 31.179C47.4647 31.1509 47.4847 31.126 47.5087 31.1057C47.5327 31.0853 47.5601 31.07 47.5895 31.0605C48.0068 30.9259 48.3909 30.9288 48.7288 31.0075Z" fill="#A98E32"/>
<path d="M54.4285 44.6122C54.4285 44.6122 58.1414 57.6933 56.5343 62.417C54.9272 67.1408 50.7752 70.4948 48.0199 70.3428C45.2647 70.1909 43.4946 68.8692 43.9248 66.6285C45.6738 62.1591 49.5024 57.0165 49.6961 51.4889C49.8114 46.2602 54.4285 44.6122 54.4285 44.6122Z" fill="#C1A538"/>
<path d="M30.3795 42.322C30.3795 42.322 21.6775 52.7707 21.2294 57.7402C20.7812 62.7097 23.2149 67.4601 25.7947 68.4393C28.3745 69.4185 30.5287 68.9289 31.0448 66.7064C31.26 61.9118 29.8478 55.6581 31.9139 50.5274C33.9305 45.7018 30.3795 42.322 30.3795 42.322Z" fill="#C1A538"/>
</g>
<defs>
<clipPath id="clip0_1732_5205">
<rect width="101.347" height="115" fill="white"/>
</clipPath>
</defs>
</svg>
