<svg width="102" height="115" viewBox="0 0 102 115" fill="none" xmlns="http://www.w3.org/2000/svg">
<g clip-path="url(#clip0_1756_9640)">
<g style="mix-blend-mode:multiply" opacity="0.329193">
<path d="M-6.10352e-05 89.087L56.1017 61.3501L101.347 80.2713L58.2542 114.966L-6.10352e-05 89.087Z" fill="#3B596D"/>
</g>
<path d="M57.3316 48.8807L65.0216 51.2158L86.6686 92.0928L79.9094 89.0573L57.3316 48.8807Z" fill="#483B2C"/>
<path d="M86.646 92.1112C88.2512 90.7282 89.9774 89.5117 91.5826 88.1287L69.4514 47.3647L63.4548 49.7422L86.646 92.1112Z" fill="#544433"/>
<path d="M58.2546 115L63.7874 110.471L83.6749 21.5615L78.6973 24.8925L58.2546 115Z" fill="#604C3B"/>
<path d="M20.5639 1.94466C21.1696 1.94466 78.8166 24.788 78.8166 24.788L58.2618 114.975L0.00909286 89.0742C0.00909286 89.0742 20.4783 0.831073 20.5639 1.94466Z" fill="#996C51"/>
<path d="M20.5638 1.94662L28.3889 0.000153983C28.4949 -0.0301355 83.6576 21.595 83.6576 21.595L78.8407 24.8462L20.5638 1.94662Z" fill="#7F6047"/>
<path d="M58.4371 22.972C55.8476 22.1253 53.4547 24.6451 53.3367 24.7716C52.4141 24.0849 51.5145 23.558 50.4052 23.1663C49.145 22.7213 47.6123 22.4377 45.4625 22.2519C43.1233 22.0873 38.5947 22.4819 36.7027 23.1329C36.4549 22.7437 35.4175 21.241 33.8299 20.6822C32.9982 20.3894 32.0163 20.3567 30.9197 20.881C27.4104 22.5589 27.2065 25.5006 27.933 27.5068C28.5915 29.3257 30.6931 29.0727 31.0836 29.0091C30.0075 32.0444 27.9543 33.4559 27.6383 36.6961C27.32 39.9585 30.3849 42.3123 30.3849 42.3123C30.3828 42.3152 30.3819 42.3186 30.3798 42.3214C30.3798 42.3214 21.6779 52.7702 21.2297 57.7397C21.022 60.0432 21.4335 62.2989 22.1917 64.1544C22.1786 64.1977 22.1467 64.3182 22.1345 64.358C21.2286 67.3144 17.5798 77.1269 19.4692 82.1361C18.613 82.3047 18.017 82.6914 17.7716 83.2376C17.4768 83.9043 17.724 84.7571 18.4589 85.6083C19.1938 86.4595 20.3562 87.2394 21.6904 87.7765C22.9762 88.2928 24.3211 88.5433 25.4492 88.4767C26.5773 88.41 27.4029 88.0313 27.7567 87.4181C27.7588 87.4184 27.762 87.4185 27.7643 87.4188C28.5046 86.4145 28.5788 85.2047 28.5639 84.1923C28.5491 83.1798 29.191 81.3492 29.4659 80.9089C29.7408 80.4686 30.3417 79.3687 31.7225 78.6433C32.0062 78.5002 32.1833 78.4212 32.1862 78.42C32.2006 78.4495 32.2598 78.5693 32.3731 78.8179C32.583 79.2794 32.7686 79.7327 32.9394 80.1855C33.0431 80.9675 32.9471 81.5952 32.912 81.926C32.8573 82.4422 32.2358 84.2792 31.6005 85.0676C31.0251 85.7813 30.413 86.6694 30.2748 87.7563C30.2664 87.8123 30.2613 87.8693 30.2592 87.9273C30.2547 87.9858 30.2447 88.0422 30.243 88.1018C30.2444 88.1028 30.2463 88.1037 30.2478 88.1052C30.27 88.7601 30.6803 89.4999 31.4125 90.2058C32.1448 90.9117 33.1565 91.5427 34.2851 91.9972C34.9458 92.2632 35.6288 92.4616 36.2952 92.581C36.9615 92.7004 37.5981 92.7385 38.1686 92.6931C38.7391 92.6478 39.2323 92.5198 39.6201 92.3166C40.0079 92.1133 40.2827 91.8387 40.4287 91.5086C40.7178 90.8541 40.485 90.02 39.7797 89.1835C39.8599 89.1412 39.9411 89.1047 40.0206 89.0591C41.5253 88.1968 42.9298 86.7109 44.1264 84.9031C45.571 83.0625 48.2088 76.73 49.6987 73.1473C50.2316 71.8659 50.7028 70.6122 51.1377 69.3778C53.2895 68.0714 55.4701 65.545 56.5344 62.4167C58.1416 57.6929 54.4284 44.6122 54.4284 44.6122L54.4211 44.6148C56.0211 43.595 57.1555 43.7112 58.3465 40.7459C59.5577 37.73 58.1206 36.4352 57.8446 32.1398C57.8319 31.9438 57.8133 31.7614 57.7947 31.5782C58.4714 31.7698 60.0717 32.0356 60.9797 30.62C62.1517 28.793 62.6285 25.8779 59.5812 23.5809C59.2003 23.2938 58.817 23.0969 58.4376 22.9728L58.4371 22.972Z" fill="#7C513D" stroke="#F8FBFC" stroke-width="3.1151" stroke-linecap="round"/>
<path d="M36.7632 23.2297C36.7632 23.2297 34.429 19.2035 30.9197 20.8814C27.4105 22.5593 27.2064 25.5007 27.9328 27.507C28.6592 29.5132 31.1651 28.996 31.1651 28.996L36.7632 23.2297Z" fill="#EAD27C"/>
<path d="M53.3242 24.7859C53.3242 24.7859 56.5335 21.2832 59.5808 23.5802C62.6281 25.8772 62.1514 28.7929 60.9795 30.6199C59.8075 32.4469 57.4749 31.4728 57.4749 31.4728L53.3242 24.7859Z" fill="#EAD27C"/>
<path d="M54.4908 25.6708C54.4908 25.6708 56.7273 23.2298 58.8509 24.8305C60.9745 26.4313 60.6423 28.4632 59.8256 29.7364C59.0089 31.0096 57.3833 30.3307 57.3833 30.3307L54.4908 25.6708Z" fill="#C1A538"/>
<path d="M35.5084 23.8702C35.5084 23.8702 33.8817 21.0644 31.4362 22.2337C28.9907 23.403 28.8484 25.4528 29.3546 26.8509C29.8609 28.2491 31.6072 27.8886 31.6072 27.8886L35.5084 23.8702Z" fill="#C1A538"/>
<path d="M21.6904 87.7771C24.4689 88.8956 27.2193 88.6769 27.8336 87.2885C28.4479 85.9001 26.6935 83.8678 23.915 82.7493C21.1366 81.6307 18.3862 81.8495 17.7719 83.2379C17.1576 84.6263 18.912 86.6586 21.6904 87.7771Z" fill="#C1A538"/>
<path d="M34.2847 91.9971C37.0632 93.1156 39.8135 92.8968 40.4278 91.5084C41.0421 90.12 39.2877 88.0878 36.5093 86.9692C33.7308 85.8507 30.9804 86.0695 30.3661 87.4579C29.7518 88.8463 31.5062 90.8786 34.2847 91.9971Z" fill="#C1A538"/>
<path d="M50.4054 23.1667C49.1452 22.7217 47.6121 22.4381 45.4623 22.2523C42.9954 22.0787 38.0564 22.5234 36.3839 23.239C34.7115 23.9546 32.1768 25.8693 31.107 28.9482C30.0372 32.0272 27.9564 33.434 27.6381 36.6965C27.3199 39.9589 30.3851 42.3126 30.3851 42.3126C25.8255 49.6022 22.9989 61.5359 22.1341 64.3583C21.2276 67.317 17.5739 77.1421 19.4729 82.1479C20.8744 85.5908 24.4051 87.2442 27.7641 87.4187C28.5044 86.4145 28.5789 85.2049 28.5641 84.1925C28.5492 83.18 29.1912 81.3498 29.466 80.9095C29.7409 80.4692 30.3414 79.369 31.7222 78.6436C32.0059 78.5005 32.183 78.4215 32.1858 78.4202C32.2003 78.4497 32.2596 78.5692 32.3728 78.8177C32.5828 79.2793 32.7683 79.7327 32.9391 80.1855C33.0428 80.9675 32.9469 81.5951 32.9118 81.926C32.8571 82.4422 32.2358 84.2795 31.6002 85.0677C30.9646 85.856 30.278 86.8546 30.2423 88.1017C32.9955 90.0339 36.7951 90.9072 40.0203 89.0591C41.525 88.1968 42.9292 86.7106 44.1258 84.9028C45.5704 83.0621 48.2082 76.7299 49.6981 73.1472C54.7164 61.08 55.2212 51.0026 54.4208 44.6146C56.0208 43.5948 57.1547 43.7111 58.3456 40.7458C59.5569 37.7299 58.1201 36.4349 57.844 32.1395C57.5679 27.8442 55.835 26.7186 53.7138 25.0516C52.6532 24.218 51.6656 23.6118 50.4054 23.1667Z" fill="#EAD27C"/>
<path d="M42.2415 42.0514C44.4448 42.2595 46.4092 40.8946 46.6291 39.0028C46.849 37.111 45.2411 35.4088 43.0378 35.2007C40.8344 34.9926 38.87 36.3576 38.6502 38.2493C38.4303 40.1411 40.0382 41.8434 42.2415 42.0514Z" fill="#DDC461"/>
<path d="M42.6263 38.4119L42.4286 40.3429L42.6263 38.4119Z" fill="#341E12"/>
<path d="M42.6512 38.1718C42.6815 38.1742 42.7109 38.1828 42.7377 38.1971C42.7644 38.2114 42.788 38.2311 42.8072 38.2552C42.8263 38.2792 42.8406 38.3071 42.8492 38.3372C42.8578 38.3673 42.8605 38.399 42.8573 38.4306L42.6596 40.3613C42.6564 40.3929 42.6473 40.4237 42.6327 40.4519C42.6181 40.4802 42.5984 40.5054 42.5747 40.526C42.551 40.5466 42.5237 40.5623 42.4945 40.5722C42.4653 40.582 42.4347 40.5858 42.4044 40.5834C42.3741 40.581 42.3447 40.5724 42.318 40.5581C42.2912 40.5438 42.2676 40.5241 42.2484 40.5001C42.2293 40.4761 42.215 40.4482 42.2064 40.4181C42.1978 40.388 42.1951 40.3563 42.1983 40.3247L42.396 38.3939C42.3992 38.3624 42.4083 38.3316 42.4229 38.3033C42.4375 38.275 42.4572 38.2499 42.4809 38.2293C42.5046 38.2086 42.5319 38.1929 42.5611 38.1831C42.5903 38.1732 42.6209 38.1694 42.6512 38.1718Z" fill="#A98E32"/>
<path d="M44.7151 39.8305C44.7278 39.8588 44.735 39.8897 44.7362 39.9214C44.7373 39.953 44.7324 39.9848 44.7218 40.0148C44.7112 40.0449 44.6951 40.0726 44.6743 40.0965C44.6535 40.1204 44.6286 40.1399 44.6008 40.1539C44.6008 40.1539 44.2936 40.311 43.8743 40.4524C43.455 40.5938 42.9198 40.7279 42.4181 40.6687C41.4324 40.5523 40.3318 39.772 40.3318 39.772C40.3067 39.7549 40.2852 39.7328 40.2686 39.7068C40.252 39.6808 40.2405 39.6515 40.2349 39.6205C40.2293 39.5896 40.2297 39.5576 40.236 39.5265C40.2423 39.4953 40.2544 39.4656 40.2716 39.4389C40.2889 39.4122 40.311 39.3891 40.3366 39.371C40.3622 39.3528 40.3909 39.34 40.4209 39.3333C40.451 39.3266 40.4819 39.3261 40.5117 39.3318C40.5416 39.3376 40.5699 39.3494 40.5951 39.3667C40.5951 39.3667 41.703 40.0978 42.4844 40.19C42.8662 40.2351 43.3566 40.1238 43.7432 39.9935C44.1297 39.8631 44.4078 39.7229 44.4078 39.7229C44.4635 39.6945 44.5271 39.6898 44.5847 39.71C44.6423 39.7302 44.6892 39.7735 44.7151 39.8305Z" fill="#A98E32"/>
<path d="M41.1619 37.0021C41.0517 37.5044 42.6462 38.4792 42.6462 38.4792C42.6462 38.4792 44.3513 37.8443 44.4051 37.364C44.4586 36.8837 43.5713 36.3762 42.9684 36.2878C42.3655 36.1995 41.2721 36.4998 41.1619 37.0021Z" fill="#A98E32"/>
<path d="M37.8095 32.2381C37.5909 32.2174 37.367 32.2611 37.1505 32.3666C36.934 32.4721 36.7293 32.6374 36.5479 32.8531C36.3665 33.0688 36.2121 33.3306 36.0935 33.6236C35.9748 33.9166 35.8943 34.2351 35.8565 34.5608C35.7802 35.2183 35.8823 35.8654 36.1404 36.3597C36.3985 36.854 36.7915 37.1551 37.2328 37.1968C37.4514 37.2175 37.6754 37.1739 37.8918 37.0684C38.1083 36.9628 38.3131 36.7975 38.4944 36.5818C38.6758 36.3661 38.8302 36.1043 38.9489 35.8113C39.0675 35.5183 39.148 35.1999 39.1859 34.8742C39.2621 34.2167 39.16 33.5696 38.9019 33.0753C38.6438 32.5809 38.2509 32.2798 37.8095 32.2381ZM38.5012 33.5911C38.5447 33.5946 38.5871 33.6067 38.6272 33.627C38.6665 33.648 38.7031 33.6767 38.7363 33.7125C38.7701 33.748 38.8001 33.7905 38.8255 33.8389C38.851 33.8872 38.8717 33.941 38.887 33.9988C38.9018 34.0569 38.9111 34.1184 38.9147 34.1818C38.9187 34.2446 38.9171 34.3087 38.9098 34.3726C38.9072 34.3967 38.9039 34.4208 38.8997 34.4447C38.8954 34.4688 38.8904 34.4927 38.8845 34.5163C38.8786 34.5393 38.8719 34.562 38.8645 34.5843C38.8569 34.6073 38.8486 34.6299 38.8395 34.6519C38.8308 34.6732 38.8214 34.694 38.8114 34.7142C38.801 34.735 38.79 34.7551 38.7784 34.7745C38.7675 34.7936 38.7561 34.812 38.7441 34.8296C38.7316 34.847 38.7185 34.8636 38.7051 34.8793C38.6915 34.8956 38.6774 34.911 38.6629 34.9254C38.6488 34.9395 38.6344 34.9526 38.6196 34.9647C38.6045 34.9765 38.589 34.9872 38.5734 34.9969C38.5577 35.0071 38.5418 35.0161 38.5258 35.024C38.5097 35.0319 38.4934 35.0387 38.477 35.0443C38.461 35.0499 38.4448 35.0545 38.4287 35.0578C38.4122 35.0607 38.3957 35.0623 38.3793 35.0628C38.3628 35.064 38.3465 35.064 38.3302 35.0628C38.2873 35.0585 38.2455 35.0459 38.206 35.0253C38.1661 35.005 38.1289 34.9768 38.0951 34.9413C38.0613 34.9053 38.0313 34.8622 38.006 34.8133C37.9811 34.7648 37.961 34.7111 37.9462 34.6534C37.9308 34.596 37.9209 34.535 37.9166 34.472C37.9125 34.4087 37.9142 34.344 37.9217 34.2795C37.9291 34.2154 37.9421 34.152 37.9603 34.0911C37.9791 34.03 38.0031 33.9719 38.0317 33.9184C38.0592 33.8647 38.0911 33.8158 38.1265 33.7728C38.1623 33.7304 38.2012 33.6945 38.2423 33.6659C38.2834 33.6374 38.3264 33.6165 38.3701 33.6039C38.4139 33.5912 38.4579 33.5869 38.5012 33.5911Z" fill="#A98E32"/>
<path d="M48.7066 33.3419C48.488 33.3212 48.264 33.3648 48.0475 33.4703C47.8311 33.5759 47.6263 33.7412 47.4449 33.9569C47.2636 34.1726 47.1092 34.4344 46.9905 34.7274C46.8719 35.0204 46.7914 35.3388 46.7535 35.6645C46.6772 36.322 46.7794 36.9691 47.0375 37.4634C47.2956 37.9578 47.6885 38.2589 48.1298 38.3006C48.5712 38.3424 49.0248 38.1214 49.3911 37.6862C49.7573 37.2509 50.0061 36.6371 50.0828 35.9796C50.1207 35.6539 50.1152 35.3273 50.0666 35.0185C50.0179 34.7096 49.9271 34.4246 49.7993 34.1796C49.6715 33.9347 49.5092 33.7346 49.3217 33.5909C49.1342 33.4471 48.9252 33.3625 48.7066 33.3419ZM49.4839 34.5351C49.5099 34.5372 49.5355 34.5424 49.5606 34.5506C49.5854 34.559 49.6095 34.5703 49.6326 34.5844C49.6562 34.599 49.6788 34.6164 49.7 34.6365C49.7207 34.6563 49.74 34.6786 49.758 34.7032C49.7762 34.7275 49.793 34.7542 49.8082 34.7829C49.8236 34.8118 49.8372 34.8427 49.8491 34.8754C49.8604 34.9079 49.8699 34.9419 49.8774 34.9772C49.8853 35.0126 49.8913 35.0493 49.8951 35.0867C49.899 35.1246 49.9009 35.1632 49.9006 35.2021C49.8999 35.2402 49.8971 35.2785 49.8924 35.3166C49.8911 35.3306 49.8896 35.3446 49.8878 35.3586C49.8853 35.372 49.8826 35.3853 49.8797 35.3986C49.8772 35.4126 49.8744 35.4265 49.8714 35.4403C49.8679 35.4537 49.8641 35.467 49.8602 35.4801C49.8567 35.4929 49.8529 35.5056 49.849 35.5182C49.8449 35.5316 49.8406 35.5448 49.836 35.5579C49.8314 35.5707 49.8266 35.5834 49.8215 35.5958C49.8169 35.608 49.8121 35.6201 49.8071 35.632C49.8014 35.6442 49.7955 35.6562 49.7894 35.668C49.7837 35.6796 49.7778 35.6911 49.7717 35.7023C49.765 35.7133 49.758 35.7241 49.7508 35.7347C49.7447 35.7451 49.7383 35.7554 49.7318 35.7655C49.7245 35.7759 49.717 35.7861 49.7093 35.796C49.7021 35.8054 49.6947 35.8144 49.6871 35.8232C49.6793 35.8326 49.6713 35.8416 49.6632 35.8503C49.6554 35.8591 49.6475 35.8675 49.6394 35.8757C49.6311 35.8833 49.6227 35.8906 49.6142 35.8976C49.6059 35.9047 49.5976 35.9114 49.5891 35.9178C49.5803 35.9243 49.5714 35.9305 49.5624 35.9363C49.5537 35.9422 49.5448 35.9478 49.5359 35.953C49.5266 35.9584 49.5172 35.9634 49.5078 35.968C49.499 35.9728 49.4903 35.9772 49.4814 35.9813C49.4716 35.985 49.4618 35.9883 49.452 35.9911C49.4428 35.9937 49.4336 35.9958 49.4244 35.9976C49.4153 36.0002 49.4061 36.0024 49.3969 36.0042C49.3872 36.0056 49.3776 36.0066 49.3679 36.0072C49.3589 36.0075 49.3499 36.0074 49.3409 36.007C49.3313 36.0073 49.3217 36.0072 49.3121 36.0067C49.2867 36.0039 49.2616 35.9982 49.2372 35.9896C49.2118 35.9813 49.1872 35.9699 49.1635 35.9556C49.1405 35.9415 49.1185 35.9247 49.0976 35.9053C49.0764 35.8856 49.0565 35.8633 49.038 35.8385C49.0197 35.8136 49.003 35.7864 48.9879 35.7572C48.9731 35.7282 48.96 35.6973 48.9487 35.6648C48.9368 35.6323 48.9268 35.5982 48.9187 35.5628C48.9114 35.5274 48.906 35.4908 48.9027 35.4535C48.8988 35.4161 48.8969 35.3781 48.8972 35.3397C48.8972 35.3011 48.8994 35.2622 48.9036 35.2234C48.9083 35.1852 48.9149 35.1472 48.9235 35.1098C48.932 35.0719 48.9426 35.0347 48.955 34.9987C48.9669 34.9629 48.9807 34.9282 48.9961 34.895C49.0119 34.8618 49.0294 34.8302 49.0484 34.8005C49.0676 34.7705 49.0882 34.7425 49.1101 34.7169C49.1315 34.6913 49.1541 34.668 49.1776 34.6472C49.2012 34.6265 49.2256 34.6084 49.2507 34.5931C49.2759 34.5779 49.3017 34.5656 49.3278 34.5562C49.3534 34.5467 49.3794 34.54 49.4053 34.5363C49.4314 34.5329 49.4575 34.5324 49.4832 34.535L49.4839 34.5351Z" fill="#A98E32"/>
<path d="M39.4032 30.4167C39.4298 30.4314 39.4532 30.4515 39.4721 30.4759C39.4909 30.5002 39.5048 30.5283 39.513 30.5586C39.5212 30.5889 39.5235 30.6208 39.5198 30.6524C39.5161 30.684 39.5064 30.7147 39.4914 30.7428C39.461 30.7993 39.4107 30.8416 39.3514 30.8605C39.2922 30.8793 39.2288 30.8732 39.1753 30.8433C38.5638 30.5034 37.9909 30.6199 37.5412 30.8253C37.0916 31.0308 36.7999 31.3205 36.7999 31.3205C36.7775 31.3428 36.7513 31.3604 36.7227 31.3723C36.6941 31.3842 36.6637 31.3902 36.6332 31.3899C36.6027 31.3896 36.5728 31.3831 36.5451 31.3707C36.5174 31.3583 36.4925 31.3403 36.4718 31.3177C36.4511 31.2951 36.4349 31.2683 36.4244 31.239C36.4138 31.2096 36.4089 31.1781 36.4101 31.1464C36.4113 31.1147 36.4185 31.0834 36.4312 31.0542C36.444 31.025 36.4621 30.9986 36.4845 30.9764C36.4845 30.9764 36.833 30.6275 37.3656 30.3841C37.8983 30.1407 38.6487 29.9974 39.4032 30.4167Z" fill="#A98E32"/>
<path d="M48.7282 31.0071C49.066 31.0858 49.357 31.2399 49.5896 31.4087C50.0547 31.7463 50.3168 32.153 50.3168 32.153C50.3335 32.179 50.3451 32.2082 50.3508 32.2392C50.3565 32.2701 50.3562 32.3021 50.35 32.3333C50.3438 32.3645 50.3318 32.3943 50.3146 32.4211C50.2975 32.4478 50.2755 32.4709 50.25 32.489C50.2245 32.5072 50.196 32.5201 50.166 32.527C50.1361 32.5339 50.1053 32.5346 50.0754 32.5291C50.0456 32.5236 50.0172 32.512 49.992 32.4949C49.9669 32.4779 49.9453 32.4557 49.9286 32.4297C49.9286 32.4297 49.7097 32.0925 49.317 31.8075C48.9244 31.5225 48.39 31.3019 47.7136 31.5202C47.6545 31.5391 47.5913 31.5332 47.5379 31.5037C47.4844 31.4742 47.445 31.4235 47.4283 31.3627C47.42 31.3325 47.4176 31.3007 47.4211 31.2691C47.4247 31.2375 47.4343 31.2068 47.4492 31.1787C47.4641 31.1506 47.4841 31.1256 47.5081 31.1053C47.5321 31.085 47.5595 31.0696 47.5889 31.0601C48.0062 30.9255 48.3903 30.9284 48.7282 31.0071Z" fill="#A98E32"/>
<path d="M54.428 44.6119C54.428 44.6119 58.141 57.6929 56.5339 62.4167C54.9267 67.1404 50.7747 70.4944 48.0195 70.3425C45.2642 70.1905 43.4941 68.8688 43.9244 66.6281C45.6734 62.1587 49.502 57.0162 49.6957 51.4885C49.811 46.2598 54.428 44.6119 54.428 44.6119Z" fill="#C1A538"/>
<path d="M30.3794 42.3219C30.3794 42.3219 21.6774 52.7706 21.2293 57.7401C20.7811 62.7096 23.2147 67.4599 25.7946 68.4392C28.3744 69.4184 30.5286 68.9288 31.0447 66.7063C31.2599 61.9117 29.8477 55.6579 31.9138 50.5273C33.9304 45.7017 30.3794 42.3219 30.3794 42.3219Z" fill="#C1A538"/>
<path d="M20.564 1.94453C21.1697 1.94453 78.8166 24.7878 78.8166 24.7878L58.2618 114.974L0.0091532 89.0741C0.0091532 89.0741 20.4783 0.830951 20.564 1.94453Z" fill="#08394D" fill-opacity="0.5"/>
<path fill-rule="evenodd" clip-rule="evenodd" d="M38.1479 50.7869C36.6086 50.7869 35.3609 52.0347 35.3609 53.5739V56.3608V56.363C35.637 56.3608 35.935 56.3608 36.2569 56.3608H40.0388C40.3607 56.3608 40.6587 56.3608 40.9348 56.363V56.3608V53.5739C40.9348 52.0347 39.6871 50.7869 38.1479 50.7869ZM42.7858 56.4754C42.7904 56.4379 42.7928 56.3996 42.7928 56.3608V53.5739C42.7928 51.0086 40.7132 48.929 38.1479 48.929C35.5825 48.929 33.5029 51.0086 33.5029 53.5739V56.3608C33.5029 56.3996 33.5053 56.4379 33.5099 56.4754C33.2109 56.526 32.9282 56.601 32.6544 56.7144C31.5162 57.1859 30.612 58.0901 30.1406 59.2283C29.9444 59.7018 29.8631 60.2018 29.8245 60.7673C29.787 61.3173 29.787 61.993 29.787 62.8308V62.8967C29.787 63.7345 29.787 64.4102 29.8245 64.9602C29.8631 65.5257 29.9444 66.0257 30.1406 66.4992C30.612 67.6374 31.5162 68.5416 32.6544 69.0131C33.1279 69.2092 33.6279 69.2906 34.1935 69.3291C34.7434 69.3667 35.4192 69.3667 36.2569 69.3667H40.0388C40.8766 69.3667 41.5523 69.3667 42.1023 69.3291C42.6678 69.2906 43.1678 69.2092 43.6413 69.0131C44.7795 68.5416 45.6837 67.6374 46.1552 66.4992C46.3513 66.0257 46.4327 65.5257 46.4712 64.9602C46.5087 64.4102 46.5087 63.7345 46.5087 62.8967V62.8308C46.5087 61.993 46.5087 61.3173 46.4712 60.7673C46.4327 60.2018 46.3513 59.7018 46.1552 59.2283C45.6837 58.0901 44.7795 57.1859 43.6413 56.7144C43.3676 56.601 43.0849 56.526 42.7858 56.4754ZM34.3199 58.252C33.849 58.2841 33.5748 58.3442 33.3654 58.431C32.6825 58.7138 32.14 59.2564 31.8571 59.9392C31.7704 60.1486 31.7103 60.4228 31.6782 60.8937C31.6455 61.373 31.645 61.9853 31.645 62.8637C31.645 63.7422 31.6455 64.3545 31.6782 64.8338C31.7103 65.3047 31.7704 65.5789 31.8571 65.7883C32.14 66.4711 32.6825 67.0137 33.3654 67.2965C33.5748 67.3833 33.849 67.4434 34.3199 67.4755C34.7992 67.5082 35.4115 67.5087 36.2899 67.5087H40.0058C40.8843 67.5087 41.4966 67.5082 41.9758 67.4755C42.4467 67.4434 42.721 67.3833 42.9304 67.2965C43.6132 67.0137 44.1558 66.4711 44.4386 65.7883C44.5254 65.5789 44.5855 65.3047 44.6176 64.8338C44.6503 64.3545 44.6508 63.7422 44.6508 62.8637C44.6508 61.9853 44.6503 61.373 44.6176 60.8937C44.5855 60.4228 44.5254 60.1486 44.4386 59.9392C44.1558 59.2564 43.6132 58.7138 42.9304 58.431C42.721 58.3442 42.4467 58.2841 41.9758 58.252C41.4966 58.2193 40.8843 58.2188 40.0058 58.2188H36.2899C35.4115 58.2188 34.7992 58.2193 34.3199 58.252ZM38.1479 61.0058C38.6609 61.0058 39.0769 61.4217 39.0769 61.9348V63.7927C39.0769 64.3058 38.6609 64.7217 38.1479 64.7217C37.6348 64.7217 37.2189 64.3058 37.2189 63.7927V61.9348C37.2189 61.4217 37.6348 61.0058 38.1479 61.0058Z" fill="white"/>
</g>
<defs>
<clipPath id="clip0_1756_9640">
<rect width="101.347" height="115" fill="white"/>
</clipPath>
</defs>
</svg>
