<svg width="16" height="16" viewBox="0 0 16 16" fill="none" xmlns="http://www.w3.org/2000/svg">
<path fill-rule="evenodd" clip-rule="evenodd" d="M7.99996 3.33333C6.89536 3.33333 5.99996 4.22877 5.99996 5.33333C5.99996 6.4379 6.89536 7.33333 7.99996 7.33333C9.10456 7.33333 9.99996 6.4379 9.99996 5.33333C9.99996 4.22877 9.10456 3.33333 7.99996 3.33333ZM4.66663 5.33333C4.66663 3.49239 6.15901 2 7.99996 2C9.84089 2 11.3333 3.49239 11.3333 5.33333C11.3333 7.17427 9.84089 8.66667 7.99996 8.66667C6.15901 8.66667 4.66663 7.17427 4.66663 5.33333ZM4.97069 11.1509C4.26785 11.4631 3.99996 11.8572 3.99996 12.3333C3.99996 12.4824 4.02647 12.5668 4.06481 12.628C4.10318 12.6892 4.19472 12.7929 4.44142 12.9045C4.96871 13.143 6.01069 13.3333 7.99996 13.3333C9.98923 13.3333 11.0312 13.143 11.5585 12.9045C11.8052 12.7929 11.8968 12.6892 11.9351 12.628C11.9734 12.5668 12 12.4824 12 12.3333C12 11.8572 11.7321 11.4631 11.0292 11.1509C10.3076 10.8305 9.24809 10.6667 7.99996 10.6667C6.75183 10.6667 5.69234 10.8305 4.97069 11.1509ZM4.42957 9.9324C5.39692 9.5028 6.67076 9.33333 7.99996 9.33333C9.32916 9.33333 10.603 9.5028 11.5704 9.9324C12.5565 10.3703 13.3333 11.1428 13.3333 12.3333C13.3333 12.6445 13.2765 12.9985 13.0648 13.3362C12.8532 13.6737 12.528 13.9293 12.1081 14.1193C11.302 14.4839 10.0107 14.6667 7.99996 14.6667C5.98923 14.6667 4.69788 14.4839 3.89183 14.1193C3.47187 13.9293 3.14674 13.6737 2.93511 13.3362C2.72345 12.9985 2.66663 12.6445 2.66663 12.3333C2.66663 11.1428 3.4434 10.3703 4.42957 9.9324Z" fill="#08394C"/>
</svg>
