<svg width="13" height="13" viewBox="0 0 13 13" fill="none" xmlns="http://www.w3.org/2000/svg">
<path fill-rule="evenodd" clip-rule="evenodd" d="M6.49996 2.70833C5.60247 2.70833 4.87496 3.43587 4.87496 4.33333C4.87496 5.23079 5.60247 5.95833 6.49996 5.95833C7.39745 5.95833 8.12496 5.23079 8.12496 4.33333C8.12496 3.43587 7.39745 2.70833 6.49996 2.70833ZM3.79163 4.33333C3.79163 2.83756 5.00419 1.625 6.49996 1.625C7.99572 1.625 9.20829 2.83756 9.20829 4.33333C9.20829 5.82909 7.99572 7.04167 6.49996 7.04167C5.00419 7.04167 3.79163 5.82909 3.79163 4.33333ZM4.03867 9.06013C3.46762 9.31374 3.24996 9.63398 3.24996 10.0208C3.24996 10.142 3.2715 10.2105 3.30265 10.2603C3.33383 10.31 3.4082 10.3942 3.60865 10.4849C4.03707 10.6787 4.88367 10.8333 6.49996 10.8333C8.11624 10.8333 8.96286 10.6787 9.39127 10.4849C9.59174 10.3942 9.66611 10.31 9.69726 10.2603C9.7284 10.2105 9.74996 10.142 9.74996 10.0208C9.74996 9.63398 9.53232 9.31374 8.96124 9.06013C8.37488 8.79981 7.51407 8.66667 6.49996 8.66667C5.48585 8.66667 4.62502 8.79981 4.03867 9.06013ZM3.59902 8.07008C4.38499 7.72102 5.41998 7.58333 6.49996 7.58333C7.57993 7.58333 8.61495 7.72102 9.40091 8.07008C10.2021 8.42584 10.8333 9.05353 10.8333 10.0208C10.8333 10.2736 10.7871 10.5613 10.6152 10.8357C10.4432 11.1099 10.179 11.3175 9.83782 11.4719C9.18289 11.7682 8.13368 11.9167 6.49996 11.9167C4.86624 11.9167 3.81702 11.7682 3.16211 11.4719C2.82088 11.3175 2.55672 11.1099 2.38477 10.8357C2.2128 10.5613 2.16663 10.2736 2.16663 10.0208C2.16663 9.05353 2.79775 8.42584 3.59902 8.07008Z" fill="white"/>
</svg>
