<svg width="41" height="41" viewBox="0 0 41 41" fill="none" xmlns="http://www.w3.org/2000/svg">
<g id="PerfilUrso" clip-path="url(#clip0_2259_3886)">
<mask id="mask0_2259_3886" style="mask-type:alpha" maskUnits="userSpaceOnUse" x="0" y="0" width="41" height="41">
<circle id="Ellipse 96" cx="20.0658" cy="20.8847" r="20" fill="#D9D9D9"/>
</mask>
<g mask="url(#mask0_2259_3886)">
<circle id="Ellipse 97" cx="20.0658" cy="20.8847" r="18.6667" fill="#F8FBFC" stroke="#F1C22E" stroke-width="2.66667"/>
<g id="g15905">
<g id="g34846">
<path id="path1314" d="M29.3147 15.8816C29.3147 15.8816 32.2006 13.8054 34.2237 15.9689C36.2468 18.1325 35.5127 20.2024 34.389 21.3634C33.2652 22.5245 31.6166 21.445 31.6166 21.445L29.3147 15.8816Z" fill="#7C513D"/>
<path id="path1314-8" d="M16.9294 12.1482C16.9294 12.1482 15.6688 8.82412 12.7877 9.51167C9.90651 10.1992 9.37625 12.3305 9.67249 13.9189C9.96873 15.5073 11.9393 15.5171 11.9393 15.5171L16.9294 12.1482Z" fill="#7C513D"/>
<path id="path1314-9-6" d="M15.8248 12.4151C15.8248 12.4151 14.9463 10.0986 12.9385 10.5777C10.9307 11.0569 10.5611 12.5421 10.7676 13.6491C10.974 14.756 12.3473 14.7628 12.3473 14.7628L15.8248 12.4151Z" fill="#5C3928"/>
<path id="path1314-9" d="M30.0259 16.6829C30.0259 16.6829 32.037 15.236 33.4469 16.7437C34.8567 18.2515 34.3452 19.6939 33.562 20.5031C32.7789 21.3122 31.63 20.5599 31.63 20.5599L30.0259 16.6829Z" fill="#5C3928"/>
</g>
<path id="path1395" d="M23.3154 12.7164C25.1428 13.3123 28.5642 15.0472 29.5536 16.0209C30.5429 16.9945 31.7936 19.0377 31.6413 21.4524C31.4891 23.8671 32.5656 25.4311 31.8175 27.7535C31.0694 30.0759 28.1584 30.7973 28.1584 30.7973C29.9324 33.6847 31.8175 37.1435 29.9324 37.9514C26.1991 39.5514 26.4658 38.4847 26.4658 38.4847L12.5991 37.9514C12.5991 37.9514 7.7991 37.9514 5.66577 32.618C8.21432 27.5228 10.1427 25.4516 10.1702 25.4084C10.1148 25.3631 8.47295 23.9991 8.50399 21.6269C8.53559 19.2144 9.95751 18.7449 11.4428 15.8885C12.928 13.0321 14.5125 12.7652 16.5385 12.2401C18.5645 11.7149 20.1096 11.725 23.3154 12.7164Z" fill="#7C513D"/>
<g id="g34850">
<path id="path14243" d="M19.9223 26.4886C18.2742 25.9926 17.2692 24.4905 17.6776 23.1336C18.086 21.7767 19.7531 21.0788 21.4012 21.5748C23.0492 22.0708 24.0542 23.5729 23.6458 24.9298C23.2375 26.2867 21.5704 26.9846 19.9223 26.4886Z" fill="#AA7A64" stroke="#AA7A64" stroke-width="1.36707" stroke-linecap="round"/>
<g id="path2589">
<path id="path12726" d="M20.7354 23.8891L20.2993 25.2665Z" fill="#341E12"/>
<path id="path12728" d="M20.7894 23.7178C20.7669 23.7107 20.7432 23.708 20.7196 23.7101C20.6961 23.7121 20.6732 23.7187 20.6522 23.7296C20.6312 23.7405 20.6126 23.7554 20.5974 23.7735C20.5822 23.7916 20.5707 23.8125 20.5636 23.835L20.1276 25.2121C20.1204 25.2347 20.1178 25.2584 20.1198 25.2819C20.1218 25.3054 20.1285 25.3283 20.1394 25.3493C20.1502 25.3703 20.1652 25.3889 20.1832 25.4041C20.2013 25.4193 20.2222 25.4308 20.2448 25.4379C20.2673 25.4451 20.291 25.4477 20.3145 25.4457C20.3381 25.4436 20.361 25.437 20.3819 25.4261C20.4029 25.4152 20.4215 25.4003 20.4367 25.3822C20.4519 25.3641 20.4634 25.3432 20.4705 25.3207L20.9066 23.9436C20.9137 23.9211 20.9164 23.8974 20.9143 23.8738C20.9123 23.8503 20.9057 23.8274 20.8948 23.8064C20.8839 23.7855 20.869 23.7668 20.8509 23.7516C20.8328 23.7364 20.8119 23.7249 20.7894 23.7178Z" fill="#341E12"/>
</g>
<path id="path2591" d="M18.8073 24.2538C18.7896 24.2696 18.7752 24.2886 18.7649 24.3099C18.7546 24.3312 18.7486 24.3543 18.7472 24.3779C18.7459 24.4015 18.7492 24.4252 18.757 24.4475C18.7648 24.4699 18.7769 24.4904 18.7927 24.5081C18.7927 24.5081 18.9667 24.7045 19.2261 24.9226C19.4856 25.1407 19.8306 25.3874 20.2094 25.4922C20.9537 25.6982 21.9795 25.4836 21.9795 25.4836C22.0027 25.4792 22.0248 25.4702 22.0446 25.4573C22.0643 25.4443 22.0813 25.4276 22.0946 25.4081C22.1079 25.3886 22.1172 25.3666 22.122 25.3435C22.1268 25.3204 22.127 25.2965 22.1226 25.2733C22.1182 25.25 22.1092 25.2278 22.0962 25.208C22.0832 25.1882 22.0664 25.1712 22.0467 25.1579C22.0271 25.1446 22.0051 25.1353 21.9818 25.1306C21.9586 25.1258 21.9347 25.1257 21.9114 25.1303C21.9114 25.1303 20.8951 25.3091 20.3051 25.1458C20.0168 25.066 19.6971 24.8479 19.458 24.6468C19.2188 24.4457 19.0607 24.2694 19.0607 24.2694C19.0291 24.2338 18.9847 24.2122 18.9372 24.2093C18.8897 24.2064 18.843 24.2224 18.8073 24.2538Z" fill="#341E12"/>
</g>
<path id="path1765" d="M22.2119 23.3496C22.1408 23.7249 20.7012 23.9295 20.7012 23.9295C20.7012 23.9295 19.6642 23.0015 19.7693 22.6576C19.8747 22.3138 20.6653 22.2239 21.1257 22.3381C21.5861 22.4524 22.283 22.9744 22.2119 23.3496Z" fill="#341E12"/>
<g id="g34833">
<path id="path2418" d="M24.9814 24.6211C24.2938 24.4142 23.976 23.4502 24.2716 22.4679C24.5673 21.4857 25.3643 20.8571 26.0519 21.0641C26.7395 21.271 27.0572 22.235 26.7616 23.2173C26.466 24.1996 25.6689 24.8281 24.9814 24.6211Z" fill="#341E12"/>
<path id="path2418-5" d="M26.0438 23.4364C25.8397 23.3749 25.7454 23.0888 25.8331 22.7972C25.9209 22.5057 26.1575 22.3191 26.3615 22.3805C26.5656 22.442 26.6599 22.7281 26.5722 23.0197C26.4845 23.3112 26.2479 23.4978 26.0438 23.4364Z" fill="#C9C6AF"/>
<path id="path2418-2" d="M16.8074 22.2194C16.1198 22.0124 15.8021 21.0484 16.0977 20.0661C16.3933 19.0839 17.1904 18.4553 17.8779 18.6623C18.5655 18.8692 18.8833 19.8332 18.5877 20.8155C18.292 21.7978 17.495 22.4263 16.8074 22.2194Z" fill="#341E12"/>
<path id="path2656" d="M25.4499 19.3572C25.4264 19.3596 25.4035 19.3665 25.3827 19.3777C25.3618 19.3889 25.3433 19.4041 25.3284 19.4224C25.3134 19.4408 25.3022 19.4619 25.2954 19.4846C25.2886 19.5072 25.2864 19.531 25.2888 19.5546C25.2937 19.602 25.3173 19.6455 25.3543 19.6756C25.3913 19.7056 25.4387 19.7198 25.4861 19.7149C26.0281 19.6597 26.4055 19.9052 26.6676 20.1759C26.9297 20.4466 27.0528 20.7292 27.0528 20.7292C27.0623 20.7509 27.0759 20.7705 27.0929 20.7869C27.1099 20.8033 27.13 20.8162 27.152 20.8249C27.174 20.8335 27.1975 20.8377 27.2212 20.8373C27.2448 20.8368 27.2682 20.8317 27.2898 20.8222C27.3115 20.8128 27.3311 20.7992 27.3476 20.7822C27.364 20.7652 27.3769 20.7451 27.3855 20.7231C27.3942 20.701 27.3984 20.6775 27.3979 20.6539C27.3975 20.6302 27.3924 20.6069 27.3829 20.5853C27.3829 20.5853 27.2366 20.2458 26.9262 19.9251C26.6157 19.6045 26.1186 19.2891 25.4499 19.3572Z" fill="#341E12"/>
<path id="path2656-7" d="M18.5618 17.0598C18.2951 17.0157 18.0395 17.0367 17.8215 17.0848C17.3856 17.1808 17.0752 17.3829 17.0752 17.3829C17.0554 17.3958 17.0383 17.4125 17.0249 17.432C17.0116 17.4515 17.0022 17.4734 16.9973 17.4966C16.9924 17.5197 16.9921 17.5436 16.9965 17.5668C17.0008 17.59 17.0097 17.6122 17.0227 17.632C17.0355 17.6518 17.0522 17.6689 17.0717 17.6823C17.0912 17.6957 17.1131 17.705 17.1363 17.7099C17.1594 17.7148 17.1833 17.7151 17.2065 17.7107C17.2298 17.7064 17.2519 17.6975 17.2717 17.6846C17.2717 17.6846 17.5303 17.5175 17.8982 17.4364C18.2662 17.3553 18.7169 17.3592 19.1383 17.7044C19.1751 17.7345 19.2224 17.7487 19.2697 17.744C19.317 17.7393 19.3606 17.7161 19.3908 17.6794C19.4058 17.6611 19.4171 17.6401 19.424 17.6175C19.4309 17.5948 19.4332 17.5711 19.4309 17.5475C19.4286 17.524 19.4216 17.5011 19.4105 17.4803C19.3993 17.4594 19.3841 17.441 19.3658 17.426C19.1059 17.2131 18.8285 17.1039 18.5618 17.0598Z" fill="#341E12"/>
<path id="path2418-5-1" d="M17.8565 20.9849C17.6524 20.9235 17.5581 20.6373 17.6459 20.3458C17.7336 20.0542 17.9702 19.8677 18.1743 19.9291C18.3784 19.9905 18.4727 20.2767 18.3849 20.5682C18.2972 20.8598 18.0606 21.0463 17.8565 20.9849Z" fill="#C9C6AF"/>
</g>
</g>
<circle id="Ellipse 98" cx="20.0658" cy="20.8847" r="18.6667" stroke="#03A64B" stroke-width="2.66667"/>
</g>
</g>
<defs>
<clipPath id="clip0_2259_3886">
<rect width="40" height="40" fill="white" transform="translate(0.0657959 0.884674)"/>
</clipPath>
</defs>
</svg>
