<svg width="41" height="41" viewBox="0 0 41 41" fill="none" xmlns="http://www.w3.org/2000/svg">
<g clip-path="url(#clip0_2259_3773)">
<mask id="mask0_2259_3773" style="mask-type:alpha" maskUnits="userSpaceOnUse" x="0" y="0" width="41" height="41">
<circle cx="20.8846" cy="20.8847" r="20" fill="#D9D9D9"/>
</mask>
<g mask="url(#mask0_2259_3773)">
<circle cx="20.8846" cy="20.8847" r="18.6667" fill="#F8FBFC" stroke="#F18322" stroke-width="2.66667"/>
<path d="M14.6437 28.2541C14.6437 28.2541 11.7487 31.7037 10.7513 35.018C9.75397 38.3324 11.2847 35.5514 11.2847 35.5514L20.8376 39.8652L30.042 36.9261C30.042 36.9261 30.3919 39.0536 30.042 35.5514C29.692 32.0491 29.1938 30.2439 29.1938 30.2439L14.6437 28.2541Z" fill="#EBA43E"/>
<path d="M22.6033 9.19643C22.6033 9.19643 25.1674 7.37831 28.0156 8.37761C30.8639 9.37691 30.8356 11.6197 30.8356 11.6197C30.8356 11.6197 33.0413 11.7313 34.1886 13.6405C35.336 15.5497 34.2917 18.4874 34.2917 18.4874C34.2917 18.4874 35.3029 18.8346 35.279 21.0173C35.255 23.2 33.4802 23.243 33.4802 23.243C33.4802 23.243 34.6426 24.3405 33.8203 26.1344C32.9981 27.9284 31.8059 27.7238 31.8059 27.7238C31.8059 27.7238 31.9377 29.0451 30.9958 29.6863C30.054 30.3275 29.4128 29.4019 29.4128 29.4019C29.4128 29.4019 29.4918 31.4757 27.6945 32.2537C25.8971 33.0318 24.7686 31.9667 24.7686 31.9667C24.7686 31.9667 24.6544 33.1316 23.3303 33.0418C22.0061 32.9521 22.0874 32.1551 22.0874 32.1551C22.0874 32.1551 21.9922 34.1093 20.0056 33.7193C18.0191 33.3293 18.0587 31.84 18.0587 31.84C18.0587 31.84 17.3705 32.7049 15.9206 32.1161C14.4707 31.5273 14.6219 30.2487 14.6219 30.2487C14.6219 30.2487 12.3975 31.4873 10.9626 29.1501C9.52781 26.8129 11.6439 25.0662 11.6439 25.0662C11.6439 25.0662 9.32983 24.7982 8.45045 22.7211C7.57106 20.6441 9.66781 19.8741 9.66781 19.8741C9.66781 19.8741 7.46697 19.9772 8.09958 17.906C8.7322 15.8348 10.4202 15.3944 10.4202 15.3944C10.4202 15.3944 9.99003 13.762 11.4099 12.232C12.8297 10.702 14.5494 11.639 14.5494 11.639C14.5494 11.639 13.9796 9.42952 17.3402 8.07452C20.7009 6.71952 22.6033 9.19643 22.6033 9.19643Z" fill="#623B20"/>
<path d="M21.9568 14.1238C23.1984 14.2688 24.6839 13.7491 26.0294 14.3941C27.375 15.0392 28.4153 15.8408 29.0545 17.6471C29.6937 19.4535 29.3713 23.7428 28.4218 25.7929C27.4723 27.8431 23.2541 30.4923 20.3948 29.9857C17.5354 29.4791 14.9635 26.9411 14.0451 24.8428C13.1266 22.7446 14.0903 18.3667 14.6222 17.03C15.154 15.6933 16.8587 13.9497 18.4167 13.6534C19.9748 13.3571 20.7152 13.9789 21.9568 14.1238Z" fill="#EBA43E"/>
<path d="M15.7521 13.4948C15.4166 12.4195 13.1052 11.282 11.9344 12.9316C10.7636 14.5812 11.7545 16.721 13.0858 16.8118C14.4171 16.9026 16.0876 14.5701 15.7521 13.4948Z" fill="#EBA43E"/>
<path d="M15.521 14.1701C15.2922 13.4366 13.7155 12.6606 12.9168 13.7859C12.1181 14.9111 12.7941 16.3708 13.7023 16.4327C14.6104 16.4947 15.7499 14.9036 15.521 14.1701Z" fill="#BC7714"/>
<path d="M28.7846 15.0034C29.1991 13.956 31.5886 12.9934 32.6336 14.7255C33.6786 16.4575 32.5313 18.5178 31.1969 18.5094C29.8625 18.501 28.3701 16.0507 28.7846 15.0034Z" fill="#EBA43E"/>
<path d="M28.9525 15.6628C29.2316 14.9424 30.8316 14.2769 31.5275 15.4651C32.2234 16.6532 31.4523 18.0708 30.5599 18.0674C29.6674 18.064 28.6735 16.3832 28.9525 15.6628Z" fill="#BC7714"/>
<path d="M18.7581 19.7031C18.4884 19.6865 18.2149 19.7509 17.9752 19.8876C17.7355 20.0242 17.5414 20.2264 17.4194 20.4663C17.2627 20.7743 17.2363 21.1223 17.3461 21.4336C17.4558 21.745 17.6926 21.9941 18.0044 22.1264C18.3163 22.2586 18.6776 22.263 19.0089 22.1387C19.3402 22.0144 19.6144 21.7714 19.7711 21.4633C19.8487 21.3108 19.8951 21.1468 19.9077 20.9808C19.9203 20.8148 19.8989 20.65 19.8445 20.4958C19.7902 20.3417 19.7041 20.2011 19.5911 20.0823C19.4781 19.9634 19.3405 19.8685 19.1861 19.803C19.0519 19.7461 18.9071 19.7123 18.7581 19.7031ZM24.4915 20.2837C24.3729 20.2762 24.255 20.2848 24.1411 20.309C23.977 20.3439 23.8239 20.4108 23.6903 20.506C23.5568 20.6012 23.4455 20.7228 23.3628 20.8638C23.2801 21.0048 23.2277 21.1625 23.2084 21.3279C23.1892 21.4932 23.2035 21.663 23.2506 21.8276C23.2978 21.9921 23.3768 22.1482 23.4831 22.2869C23.5894 22.4255 23.721 22.5441 23.8704 22.6358C24.0197 22.7275 24.1839 22.7905 24.3535 22.8212C24.5232 22.8519 24.6949 22.8498 24.859 22.8149C25.1903 22.7444 25.4702 22.5448 25.6372 22.26C25.8041 21.9753 25.8445 21.6286 25.7493 21.2963C25.671 21.0229 25.5057 20.776 25.2786 20.5932C25.0515 20.4104 24.7751 20.3017 24.4915 20.2837Z" fill="#341E12"/>
<path d="M18.8499 21.0132C19.0568 21.1009 19.3087 21.0064 19.4126 20.802C19.5166 20.5977 19.4331 20.3609 19.2263 20.2732C19.0195 20.1855 18.7676 20.2801 18.6636 20.4844C18.5597 20.6888 18.6431 20.9255 18.8499 21.0132Z" fill="#C9C6AF"/>
<path d="M25.0614 21.6675C24.8417 21.7142 24.6124 21.5735 24.5492 21.3531C24.4861 21.1327 24.6131 20.9162 24.8328 20.8694C25.0526 20.8227 25.2819 20.9635 25.345 21.1839C25.4081 21.4043 25.2812 21.6208 25.0614 21.6675Z" fill="#C9C6AF"/>
<path d="M24.7994 18.7167C24.5576 18.6677 24.2857 18.671 23.9948 18.7682C23.9535 18.782 23.9195 18.8116 23.9 18.8505C23.8806 18.8893 23.8774 18.9343 23.8911 18.9756C23.9049 19.0168 23.9344 19.0509 23.9733 19.0703C24.0122 19.0897 24.0572 19.093 24.0984 19.0793C24.57 18.9217 24.9558 19.0646 25.2434 19.2533C25.5309 19.442 25.6973 19.6691 25.6973 19.6691C25.723 19.7041 25.7616 19.7275 25.8045 19.7341C25.8474 19.7407 25.8912 19.7301 25.9262 19.7045C25.9613 19.6789 25.9849 19.6405 25.9916 19.5976C25.9984 19.5547 25.9879 19.5109 25.9625 19.4757C25.9625 19.4757 25.7637 19.2025 25.423 18.9789C25.2527 18.8672 25.0413 18.7658 24.7994 18.7167Z" fill="#623B20"/>
<path d="M18.7837 18.0873C18.5374 18.1014 18.3134 18.1711 18.1289 18.2575C17.7599 18.4302 17.5247 18.6728 17.5247 18.6728C17.4944 18.704 17.4777 18.7459 17.4783 18.7894C17.4789 18.8328 17.4966 18.8743 17.5277 18.9046C17.5589 18.9349 17.6008 18.9516 17.6443 18.9511C17.6877 18.9505 17.7292 18.9327 17.7596 18.9016C17.7596 18.9016 17.9571 18.7012 18.2686 18.5554C18.5801 18.4096 18.982 18.3234 19.4263 18.5465C19.4653 18.5658 19.5102 18.5689 19.5514 18.5551C19.5926 18.5412 19.6266 18.5117 19.646 18.4728C19.6557 18.4536 19.6615 18.4326 19.6631 18.4111C19.6646 18.3896 19.662 18.368 19.6552 18.3475C19.6484 18.3271 19.6377 18.3081 19.6236 18.2918C19.6095 18.2755 19.5924 18.2621 19.5731 18.2524C19.299 18.1148 19.0301 18.0732 18.7837 18.0873Z" fill="#623B20"/>
<path d="M20.7719 29.3396C22.983 29.552 24.9249 28.1672 25.1095 26.2465C25.294 24.3257 23.6513 22.5965 21.4403 22.384C19.2293 22.1716 17.2873 23.5564 17.1027 25.4771C16.9182 27.3979 18.5609 29.1272 20.7719 29.3396Z" fill="#F7DBB0"/>
<path d="M21.1627 25.0255C21.6436 25.3869 22.3626 25.9913 23.4294 25.9915C23.4294 25.9915 22.8046 28.431 20.8694 28.2258C18.9342 28.0205 18.9735 25.5532 18.9735 25.5532C19.7515 25.5912 20.1531 25.6171 21.1627 25.0255Z" fill="#691C1C"/>
<path d="M19.4946 27.328C19.4946 27.328 20.0683 26.0471 21.0546 26.1045C22.041 26.1619 22.5053 27.5975 22.5053 27.5975C21.19 28.4357 20.3597 28.3039 19.4946 27.328Z" fill="#F44754"/>
<path d="M21.9919 25.7343C21.9919 25.7343 22.1534 26.6612 22.3089 26.6775C22.4644 26.6939 22.7885 25.8108 22.7885 25.8108L21.9919 25.7343Z" fill="#CCC9AF"/>
<path d="M19.5925 25.4639C19.5925 25.4639 19.7539 26.3907 19.9095 26.4071C20.065 26.4235 20.3891 25.5403 20.3891 25.5403L19.5925 25.4639Z" fill="#CCC9AF"/>
<path d="M21.1733 24.829L21.08 24.8842C20.0886 25.4652 19.7599 25.4272 18.981 25.3893L18.8123 25.3808L18.8092 25.5505C18.8092 25.5505 18.7977 26.1925 19.0417 26.868C19.2857 27.5434 19.8157 28.279 20.852 28.3889C21.8893 28.4989 22.5942 27.8901 23.011 27.2784C23.4278 26.6668 23.5882 26.0323 23.5882 26.0323L23.6412 25.8272L23.4292 25.8276C22.4244 25.8273 21.7498 25.261 21.2614 24.8941L21.1733 24.829ZM21.142 25.2101C21.5793 25.5424 22.2606 26.0122 23.2017 26.0971C23.1666 26.2194 23.07 26.6078 22.7393 27.093C22.3599 27.6498 21.7842 28.1581 20.8863 28.0629C19.9874 27.9675 19.5699 27.366 19.3498 26.7564C19.158 26.2255 19.1668 25.8351 19.1651 25.7105C19.7927 25.7347 20.2937 25.6862 21.142 25.2101Z" fill="#623B20"/>
<path d="M24.3889 24.6728C24.3774 24.6709 24.3656 24.6703 24.354 24.6711C24.3334 24.6722 24.3132 24.6773 24.2946 24.6862C24.276 24.6952 24.2594 24.7076 24.2456 24.723C24.2319 24.7384 24.2213 24.7563 24.2145 24.7757C24.2076 24.7952 24.2047 24.8158 24.2059 24.8364C24.2059 24.8364 24.217 25.0661 24.1029 25.2944C23.9889 25.5226 23.7746 25.7498 23.2222 25.7585C22.1052 25.7761 21.3047 24.9123 21.3047 24.9123C21.2862 24.8924 21.2629 24.8776 21.237 24.8694C21.2111 24.8612 21.1836 24.8599 21.157 24.8656C21.1561 24.8657 21.1551 24.8659 21.1542 24.8661C21.1466 24.8678 21.1392 24.8701 21.132 24.873C21.1259 24.8752 21.12 24.8777 21.1142 24.8807C21.1123 24.8818 21.1104 24.883 21.1085 24.8842C21.1027 24.8871 21.097 24.8904 21.0916 24.8941C21.0916 24.8941 20.1407 25.5896 19.0474 25.3597C18.5068 25.246 18.3403 24.9822 18.2718 24.7364C18.2032 24.4906 18.2572 24.2671 18.2572 24.2671C18.2674 24.2268 18.2613 24.1841 18.2401 24.1484C18.2189 24.1126 18.1843 24.0868 18.1441 24.0765C18.1241 24.0715 18.1033 24.0704 18.0829 24.0734C18.0625 24.0764 18.0429 24.0834 18.0252 24.0939C18.0075 24.1045 17.9921 24.1185 17.9798 24.135C17.9675 24.1516 17.9586 24.1704 17.9536 24.1904C17.9536 24.1904 17.8766 24.486 17.9699 24.8206C18.0632 25.1553 18.3514 25.5332 18.9832 25.6661C19.9952 25.8789 20.8702 25.4078 21.1686 25.2194C21.4277 25.4627 22.1961 26.0889 23.2274 26.0727C23.873 26.0625 24.2279 25.7456 24.3832 25.4348C24.5385 25.1241 24.5193 24.8193 24.5193 24.8193C24.5173 24.7837 24.5034 24.7499 24.4797 24.7233C24.456 24.6968 24.424 24.6788 24.3889 24.6728Z" fill="#623B20"/>
<path d="M20.2418 23.9984C20.2374 23.5119 20.9448 23.3925 21.3702 23.4324C21.7956 23.4725 22.4777 23.7316 22.3843 24.1832C22.291 24.6349 21.2233 24.9755 21.2233 24.9755C21.2233 24.9755 20.2462 24.4848 20.2418 23.9984Z" fill="#341E12"/>
<circle cx="20.8846" cy="20.8847" r="18.6667" stroke="#F18322" stroke-width="2.66667"/>
</g>
</g>
<defs>
<clipPath id="clip0_2259_3773">
<rect width="40" height="40" fill="white" transform="translate(0.884644 0.884674)"/>
</clipPath>
</defs>
</svg>
