<svg width="75" height="75" viewBox="0 0 75 75" fill="none" xmlns="http://www.w3.org/2000/svg">
<g clip-path="url(#clip0_1812_2809)">
<mask id="mask0_1812_2809" style="mask-type:alpha" maskUnits="userSpaceOnUse" x="0" y="0" width="75" height="75">
<circle cx="37.5" cy="37.5" r="37.5" fill="#D9D9D9"/>
</mask>
<g mask="url(#mask0_1812_2809)">
<circle cx="37.5" cy="37.5" r="35" fill="#F8FBFC" stroke="#F1C22E" stroke-width="5"/>
<path d="M54.8416 28.1192C54.8416 28.1192 60.2526 24.2264 64.0459 28.283C67.8392 32.3396 66.4628 36.2207 64.3558 38.3977C62.2488 40.5747 59.1576 38.5506 59.1576 38.5506L54.8416 28.1192Z" fill="#7C513D"/>
<path d="M31.6192 21.1192C31.6192 21.1192 29.2555 14.8864 23.8534 16.1756C18.4512 17.4647 17.457 21.4609 18.0124 24.4392C18.5679 27.4174 22.2627 27.4357 22.2627 27.4357L31.6192 21.1192Z" fill="#7C513D"/>
<path d="M29.548 21.6196C29.548 21.6196 27.9008 17.2761 24.1361 18.1745C20.3715 19.0729 19.6786 21.8577 20.0657 23.9332C20.4528 26.0088 23.0277 26.0215 23.0277 26.0215L29.548 21.6196Z" fill="#5C3928"/>
<path d="M56.175 29.6216C56.175 29.6216 59.9459 26.9087 62.5894 29.7357C65.2329 32.5627 64.2737 35.2673 62.8054 36.7844C61.337 38.3016 59.1829 36.891 59.1829 36.891L56.175 29.6216Z" fill="#5C3928"/>
<path d="M43.593 22.1845C47.0195 23.3018 53.4346 26.5547 55.2896 28.3803C57.1446 30.2059 59.4896 34.0369 59.2042 38.5644C58.9187 43.092 60.9372 46.0244 59.5345 50.379C58.1317 54.7336 52.6736 56.0862 52.6736 56.0862C56 61.5 59.5345 67.9852 56 69.5C49 72.5 49.5 70.5 49.5 70.5L23.5 69.5C23.5 69.5 14.5 69.5 10.5 59.5C15.2785 49.9465 18.8942 46.063 18.9458 45.982C18.842 45.897 15.7635 43.3394 15.8217 38.8917C15.8809 34.3682 18.547 33.4879 21.3319 28.1322C24.1167 22.7765 27.0876 22.276 30.8863 21.2913C34.6851 20.3067 37.5821 20.3257 43.593 22.1845Z" fill="#7C513D"/>
<path d="M37.2311 48.0074C34.1409 47.0774 32.2566 44.2609 33.0223 41.7167C33.788 39.1725 36.9138 37.8639 40.0039 38.7939C43.0941 39.7239 44.9784 42.5403 44.2127 45.0845C43.447 47.6288 40.3212 48.9374 37.2311 48.0074Z" fill="#AA7A64" stroke="#AA7A64" stroke-width="2.56325" stroke-linecap="round"/>
<path d="M38.7559 43.1332L37.9382 45.7158L38.7559 43.1332Z" fill="#341E12"/>
<path d="M38.8571 42.812C38.8148 42.7986 38.7704 42.7937 38.7263 42.7975C38.6821 42.8013 38.6392 42.8138 38.5998 42.8342C38.5605 42.8546 38.5256 42.8825 38.4971 42.9164C38.4686 42.9504 38.4471 42.9895 38.4337 43.0318L37.6161 45.6139C37.6027 45.6561 37.5978 45.7005 37.6016 45.7447C37.6054 45.7888 37.6178 45.8318 37.6383 45.8711C37.6587 45.9104 37.6866 45.9453 37.7205 45.9738C37.7544 46.0023 37.7936 46.0239 37.8359 46.0372C37.8781 46.0506 37.9225 46.0555 37.9667 46.0517C38.0108 46.0479 38.0538 46.0355 38.0931 46.0151C38.1324 45.9947 38.1673 45.9667 38.1958 45.9328C38.2243 45.8989 38.2459 45.8597 38.2592 45.8175L39.0768 43.2354C39.0902 43.1932 39.0951 43.1487 39.0913 43.1046C39.0875 43.0604 39.0751 43.0175 39.0547 42.9782C39.0343 42.9388 39.0063 42.9039 38.9724 42.8754C38.9385 42.8469 38.8993 42.8254 38.8571 42.812Z" fill="#341E12"/>
<path d="M35.1406 43.8171C35.1074 43.8465 35.0804 43.8823 35.061 43.9222C35.0417 43.9621 35.0305 44.0054 35.0279 44.0497C35.0254 44.094 35.0316 44.1383 35.0462 44.1802C35.0608 44.2221 35.0835 44.2607 35.1131 44.2937C35.1131 44.2937 35.4394 44.662 35.9258 45.071C36.4123 45.4799 37.0593 45.9424 37.7695 46.139C39.165 46.5253 41.0884 46.1229 41.0884 46.1229C41.1319 46.1146 41.1733 46.0978 41.2104 46.0735C41.2474 46.0493 41.2793 46.0179 41.3042 45.9813C41.3291 45.9447 41.3465 45.9035 41.3555 45.8602C41.3645 45.8168 41.3649 45.7721 41.3566 45.7286C41.3484 45.6849 41.3315 45.6433 41.3071 45.6062C41.2828 45.569 41.2513 45.5371 41.2145 45.5122C41.1777 45.4872 41.1363 45.4698 41.0928 45.4609C41.0492 45.452 41.0044 45.4519 40.9607 45.4604C40.9607 45.4604 39.0551 45.7956 37.9489 45.4895C37.4082 45.3398 36.8089 44.9309 36.3605 44.5539C35.9121 44.1769 35.6156 43.8462 35.6156 43.8462C35.5564 43.7794 35.4731 43.7389 35.3841 43.7335C35.295 43.728 35.2075 43.7581 35.1406 43.8171Z" fill="#341E12"/>
<path d="M41.5238 42.1218C41.3904 42.8255 38.6912 43.209 38.6912 43.209C38.6912 43.209 36.7469 41.4691 36.944 40.8243C37.1415 40.1796 38.624 40.0109 39.4872 40.2252C40.3504 40.4394 41.6571 41.4181 41.5238 42.1218Z" fill="#341E12"/>
<path d="M46.7168 44.5058C45.4275 44.1178 44.8318 42.3102 45.3861 40.4685C45.9403 38.6267 47.4348 37.4482 48.724 37.8362C50.0132 38.2242 50.609 40.0318 50.0547 41.8736C49.5004 43.7153 48.006 44.8938 46.7168 44.5058Z" fill="#341E12"/>
<path d="M48.7089 42.2843C48.3262 42.1691 48.1494 41.6326 48.3139 41.0859C48.4784 40.5393 48.922 40.1895 49.3047 40.3046C49.6874 40.4198 49.8642 40.9563 49.6997 41.503C49.5351 42.0497 49.0916 42.3995 48.7089 42.2843Z" fill="#C9C6AF"/>
<path d="M31.3908 40.0025C30.1016 39.6145 29.5058 37.8069 30.0601 35.9652C30.6144 34.1234 32.1089 32.9449 33.3981 33.3329C34.6873 33.7209 35.2831 35.5285 34.7288 37.3702C34.1745 39.212 32.6801 40.3905 31.3908 40.0025Z" fill="#341E12"/>
<path d="M47.5954 34.636C47.5513 34.6403 47.5084 34.6534 47.4693 34.6744C47.4302 34.6953 47.3956 34.7238 47.3675 34.7582C47.3394 34.7926 47.3184 34.8322 47.3057 34.8747C47.2929 34.9172 47.2887 34.9618 47.2933 35.006C47.3025 35.0949 47.3467 35.1765 47.4161 35.2329C47.4854 35.2892 47.5744 35.3157 47.6633 35.3065C48.6794 35.203 49.3872 35.6634 49.8786 36.171C50.37 36.6786 50.6009 37.2083 50.6009 37.2083C50.6185 37.249 50.6441 37.2858 50.676 37.3166C50.7079 37.3474 50.7456 37.3716 50.7868 37.3878C50.8281 37.404 50.8722 37.4119 50.9165 37.4111C50.9609 37.4102 51.0046 37.4006 51.0452 37.3829C51.0859 37.3652 51.1227 37.3397 51.1535 37.3078C51.1843 37.2758 51.2085 37.2382 51.2247 37.1969C51.2409 37.1556 51.2488 37.1115 51.2479 37.0672C51.2471 37.0229 51.2375 36.9791 51.2197 36.9385C51.2197 36.9385 50.9455 36.3021 50.3633 35.7008C49.7812 35.0995 48.8491 34.5082 47.5954 34.636Z" fill="#341E12"/>
<path d="M34.68 30.3282C34.1798 30.2455 33.7006 30.285 33.292 30.375C32.4747 30.5552 31.8927 30.9341 31.8927 30.9341C31.8555 30.9583 31.8235 30.9895 31.7984 31.0261C31.7733 31.0626 31.7557 31.1038 31.7465 31.1471C31.7374 31.1905 31.7369 31.2353 31.745 31.2789C31.7532 31.3224 31.7699 31.364 31.7941 31.4011C31.8183 31.4382 31.8495 31.4703 31.8861 31.4954C31.9226 31.5204 31.9638 31.5381 32.0071 31.5472C32.0505 31.5564 32.0953 31.5569 32.1388 31.5487C32.1824 31.5406 32.224 31.5239 32.2611 31.4996C32.2611 31.4996 32.7459 31.1863 33.4358 31.0343C34.1257 30.8822 34.9708 30.8897 35.7609 31.5368C35.83 31.5932 35.9186 31.6199 36.0073 31.6111C36.0961 31.6024 36.1777 31.5588 36.2344 31.4899C36.2626 31.4557 36.2837 31.4162 36.2966 31.3738C36.3095 31.3314 36.3139 31.2868 36.3095 31.2427C36.3052 31.1986 36.2922 31.1557 36.2712 31.1167C36.2503 31.0776 36.2219 31.043 36.1876 31.0149C35.7001 30.6157 35.1801 30.4108 34.68 30.3282Z" fill="#341E12"/>
<path d="M33.3578 37.6879C32.9751 37.5727 32.7983 37.0362 32.9628 36.4895C33.1273 35.9429 33.5709 35.5931 33.9536 35.7082C34.3363 35.8234 34.5131 36.3599 34.3486 36.9066C34.1841 37.4532 33.7405 37.803 33.3578 37.6879Z" fill="#C9C6AF"/>
<circle cx="37.5" cy="37.5" r="35" stroke="#03A64B" stroke-width="5"/>
</g>
</g>
<defs>
<clipPath id="clip0_1812_2809">
<rect width="75" height="75" fill="white"/>
</clipPath>
</defs>
</svg>
