<svg width="166" height="166" viewBox="0 0 166 166" fill="none" xmlns="http://www.w3.org/2000/svg">
<g id="PerfilTigreMax" clip-path="url(#clip0_2228_3571)">
<mask id="mask0_2228_3571" style="mask-type:alpha" maskUnits="userSpaceOnUse" x="0" y="0" width="166" height="166">
<circle id="Ellipse 96" cx="83" cy="83" r="83" fill="#D9D9D9"/>
</mask>
<g mask="url(#mask0_2228_3571)">
<circle id="Ellipse 97" cx="83" cy="83" r="77.4667" fill="#F8FBFC" stroke="#F1C22E" stroke-width="11.0667"/>
<path id="Vector 27" d="M37.6267 143.867C37.6267 134.128 44.2667 116.2 49.8 108.453C69.72 103.289 105.775 99.0996 113.987 104.027C125.053 110.667 132.8 127.267 133.907 138.333L106.24 161.573C83.3689 159.729 37.6267 153.605 37.6267 143.867Z" fill="#DF730E"/>
<g id="g18470">
<path id="path8544" d="M134.982 149.543C134.986 149.669 134.993 149.798 134.995 149.963C134.999 150.172 135.001 150.411 135.001 150.677C135.001 150.943 134.994 151.238 134.985 151.555C134.979 151.714 134.976 151.879 134.968 152.05C134.962 152.221 134.952 152.397 134.941 152.579C134.931 152.761 134.917 152.946 134.903 153.138C134.89 153.33 134.872 153.527 134.854 153.728C134.838 153.929 134.814 154.134 134.791 154.344C134.767 154.554 134.744 154.768 134.716 154.986C134.688 155.204 134.659 155.425 134.627 155.65C134.594 155.875 134.559 156.103 134.521 156.334C134.482 156.565 134.441 156.8 134.397 157.037C134.353 157.274 134.303 157.513 134.253 157.755C134.202 157.997 134.148 158.242 134.091 158.488C134.033 158.734 133.971 158.98 133.906 159.229C133.841 159.478 133.773 159.73 133.701 159.982C133.628 160.234 133.551 160.487 133.47 160.74C133.389 160.994 133.304 161.247 133.215 161.502C133.125 161.756 133.032 162.011 132.934 162.266C132.835 162.521 132.734 162.776 132.626 163.031C132.572 163.158 132.516 163.285 132.459 163.412C132.403 163.539 132.346 163.665 132.288 163.792C132.229 163.919 132.169 164.046 132.108 164.172C132.047 164.298 131.984 164.424 131.92 164.549C131.857 164.675 131.792 164.8 131.726 164.925C131.66 165.05 131.591 165.176 131.523 165.3C131.454 165.424 131.384 165.548 131.312 165.672C131.241 165.795 131.168 165.918 131.093 166.04C131.018 166.163 130.942 166.285 130.865 166.406C130.787 166.527 130.709 166.648 130.629 166.769C130.549 166.889 130.464 167.009 130.375 167.131C130.285 167.252 130.189 167.376 130.09 167.498C129.992 167.62 129.889 167.744 129.782 167.867C129.674 167.99 129.562 168.113 129.447 168.237C129.331 168.362 129.21 168.486 129.086 168.611C128.962 168.736 128.834 168.861 128.702 168.986C128.57 169.112 128.433 169.238 128.294 169.364C128.154 169.49 128.013 169.615 127.867 169.742C127.72 169.868 127.57 169.996 127.417 170.123C127.264 170.25 127.107 170.376 126.948 170.503C126.788 170.63 126.625 170.757 126.459 170.884C126.294 171.011 126.126 171.14 125.955 171.267C125.784 171.394 125.608 171.521 125.432 171.648C125.255 171.776 125.076 171.902 124.894 172.029C124.713 172.156 124.53 172.284 124.343 172.411C124.157 172.538 123.967 172.664 123.776 172.79C123.585 172.917 123.393 173.044 123.198 173.17C123.003 173.296 122.806 173.421 122.608 173.547C122.211 173.799 121.807 174.048 121.397 174.296C120.988 174.545 120.573 174.793 120.153 175.038C119.734 175.284 119.309 175.527 118.882 175.768C118.455 176.009 118.026 176.247 117.594 176.483C117.163 176.719 116.73 176.952 116.297 177.183C115.864 177.413 115.431 177.641 114.998 177.865C114.566 178.09 114.136 178.311 113.707 178.528C113.279 178.745 112.853 178.958 112.431 179.167C112.009 179.376 111.59 179.581 111.177 179.782C110.764 179.982 110.355 180.178 109.954 180.369C109.552 180.56 109.159 180.746 108.772 180.927C108.385 181.108 108.007 181.282 107.637 181.452C107.268 181.622 106.908 181.788 106.559 181.946C105.86 182.263 105.202 182.554 104.599 182.819C103.996 183.084 103.447 183.322 102.963 183.53C102.478 183.739 102.058 183.916 101.713 184.061C101.023 184.35 100.635 184.508 100.635 184.508C100.635 184.508 100.774 184.502 101.033 184.487C101.292 184.473 101.672 184.449 102.156 184.418C102.641 184.386 103.229 184.345 103.905 184.296C104.582 184.247 105.347 184.185 106.182 184.115C106.599 184.082 107.034 184.043 107.484 184C107.935 183.96 108.4 183.916 108.879 183.87C109.359 183.825 109.852 183.771 110.357 183.72C110.862 183.669 111.377 183.612 111.902 183.553C112.427 183.493 112.962 183.433 113.504 183.367C114.045 183.302 114.594 183.234 115.148 183.161C115.702 183.091 116.26 183.014 116.822 182.934C117.384 182.856 117.949 182.772 118.515 182.685C119.08 182.599 119.647 182.509 120.213 182.415C120.778 182.321 121.342 182.224 121.902 182.122C122.183 182.073 122.462 182.019 122.741 181.967C123.019 181.913 123.295 181.862 123.571 181.807C123.848 181.753 124.122 181.695 124.395 181.638C124.668 181.581 124.94 181.524 125.209 181.465C125.479 181.406 125.747 181.346 126.013 181.285C126.278 181.224 126.541 181.162 126.802 181.099C127.062 181.036 127.32 180.971 127.576 180.905C127.832 180.84 128.086 180.773 128.336 180.705C128.587 180.638 128.833 180.569 129.077 180.5C129.321 180.43 129.562 180.358 129.8 180.286C130.037 180.214 130.271 180.141 130.501 180.067C130.731 179.992 130.958 179.917 131.181 179.84C131.403 179.764 131.621 179.686 131.836 179.607C132.05 179.528 132.26 179.447 132.465 179.366C132.671 179.284 132.872 179.201 133.069 179.118C133.202 179.06 133.33 179.001 133.459 178.943C134.615 170.753 135.544 160.239 134.985 149.541L134.982 149.543Z" fill="#341E12"/>
<path id="path9394" d="M127.887 119.681C127.888 119.685 127.914 119.848 127.953 120.156C127.992 120.467 128.045 120.921 128.096 121.492C128.122 121.777 128.145 122.092 128.17 122.433C128.192 122.774 128.214 123.141 128.232 123.531C128.247 123.921 128.259 124.333 128.269 124.765C128.275 125.197 128.278 125.648 128.272 126.116C128.267 126.585 128.251 127.07 128.228 127.567C128.204 128.065 128.171 128.576 128.127 129.097C128.106 129.357 128.08 129.621 128.052 129.886C128.025 130.151 127.993 130.418 127.959 130.687C127.925 130.955 127.887 131.227 127.847 131.499C127.806 131.77 127.762 132.044 127.714 132.318C127.666 132.592 127.614 132.866 127.559 133.141C127.503 133.417 127.443 133.692 127.379 133.968C127.315 134.244 127.247 134.521 127.175 134.796C127.103 135.072 127.026 135.348 126.945 135.623C126.863 135.898 126.778 136.171 126.688 136.444C126.597 136.717 126.501 136.988 126.4 137.258C126.3 137.528 126.194 137.797 126.083 138.063C125.972 138.33 125.857 138.596 125.735 138.858C125.674 138.989 125.609 139.123 125.541 139.259C125.472 139.394 125.399 139.533 125.322 139.673C125.168 139.953 124.999 140.242 124.816 140.539C124.632 140.835 124.434 141.139 124.223 141.45C124.012 141.761 123.786 142.079 123.55 142.403C123.313 142.727 123.065 143.057 122.806 143.392C122.546 143.727 122.277 144.068 121.997 144.412C121.717 144.757 121.426 145.105 121.128 145.457C120.83 145.81 120.524 146.165 120.21 146.523C119.896 146.881 119.573 147.243 119.246 147.606C118.918 147.968 118.584 148.334 118.245 148.699C117.906 149.065 117.561 149.431 117.213 149.798C116.865 150.165 116.513 150.531 116.159 150.896C115.449 151.628 114.73 152.357 114.008 153.077C113.286 153.796 112.562 154.505 111.846 155.198C111.13 155.891 110.421 156.567 109.73 157.22C109.038 157.874 108.364 158.504 107.715 159.105C107.067 159.705 106.444 160.276 105.857 160.81C105.27 161.344 104.72 161.842 104.213 162.296C103.2 163.205 102.365 163.94 101.784 164.448C101.203 164.956 100.875 165.236 100.875 165.236C100.875 165.236 101.393 165.044 102.301 164.692C102.755 164.515 103.307 164.298 103.94 164.046C104.573 163.794 105.289 163.507 106.068 163.188C106.848 162.869 107.694 162.518 108.588 162.14C109.483 161.761 110.427 161.356 111.405 160.926C112.382 160.497 113.391 160.043 114.419 159.571C114.933 159.335 115.45 159.094 115.971 158.849C116.491 158.604 117.014 158.355 117.537 158.102C118.06 157.849 118.583 157.592 119.105 157.331C119.626 157.071 120.147 156.807 120.663 156.54C121.179 156.274 121.693 156.006 122.199 155.735C122.706 155.464 123.206 155.19 123.7 154.915C124.193 154.639 124.678 154.363 125.154 154.085C125.63 153.806 126.095 153.527 126.55 153.247C127.004 152.967 127.447 152.687 127.875 152.406C128.304 152.125 128.719 151.843 129.119 151.562C129.518 151.281 129.902 151.002 130.268 150.722C130.451 150.583 130.627 150.443 130.801 150.303C130.975 150.164 131.144 150.026 131.308 149.887C131.472 149.749 131.632 149.609 131.786 149.472C131.94 149.334 132.089 149.196 132.232 149.06C132.375 148.923 132.513 148.787 132.645 148.651C132.778 148.515 132.903 148.38 133.023 148.245C133.144 148.11 133.259 147.976 133.367 147.843C133.475 147.709 133.578 147.576 133.674 147.444C133.77 147.312 133.859 147.18 133.941 147.05C134.024 146.919 134.101 146.789 134.17 146.659C134.239 146.53 134.3 146.403 134.355 146.275C134.41 146.148 134.457 146.023 134.497 145.897C134.537 145.772 134.571 145.647 134.596 145.524C134.621 145.4 134.638 145.279 134.647 145.158C134.648 145.114 134.65 145.067 134.655 145.023C133.816 136.065 131.805 127.198 127.887 119.681Z" fill="#341E12"/>
<g id="g4688">
<path id="path26092" d="M46.7439 105.715C84.1416 125.381 88.2266 115.094 115.406 100.32C117.653 100.107 118.915 100.214 118.915 100.214C118.915 100.214 116.732 107.106 123.892 112.928C123.958 114.575 124.059 117.007 123.919 118.094C123.778 119.18 123.826 120.693 119.388 126.725C114.951 132.757 100.77 145.933 84.7855 147.366C68.8014 148.798 46.8669 138.434 42.3282 123.588C44.9243 117.577 45.2047 116.608 45.3732 115.093C45.5418 113.579 46.02 112.17 46.4232 111.787C46.8266 111.403 49.1092 110.786 49.1092 110.786C49.1092 110.786 48.216 109.179 46.7439 105.715Z" fill="#D10F0F"/>
<path id="path-1-7" d="M51.064 126.51C51.308 126.832 51.5102 127.343 51.8131 128.055C51.9956 128.484 52.2262 129.006 52.5469 129.526C52.6567 129.705 52.7803 129.888 52.9199 130.072C53.0976 130.306 53.3301 130.579 53.6121 130.862C53.9644 131.215 54.4359 131.626 55.0228 131.997C57.9206 133.985 60.6027 135.151 64.5224 137.139C64.533 137.143 64.5413 137.151 64.5527 137.155C69.5287 139.613 75.2779 141.083 81.128 140.629C84.9643 140.275 88.5881 139.439 91.7784 138.496C92.6818 138.127 93.416 137.814 94.1253 137.406C95.1056 136.842 95.682 136.29 96.09 135.803C95.6239 136.232 94.9518 136.65 93.9344 136.977C93.2014 137.213 92.438 137.36 91.5196 137.517C88.302 138.118 84.7248 138.563 81.0293 138.561C75.6217 138.655 70.4025 137.013 65.9059 134.55L65.9361 134.566C62.4115 132.48 59.1809 130.8 56.8372 129.269C56.8129 129.253 56.7894 129.237 56.7642 129.223C56.3713 129.002 56.0043 128.743 55.669 128.5C55.4032 128.308 55.177 128.14 54.9442 127.98C54.77 127.86 54.5933 127.747 54.4147 127.64C53.8729 127.315 53.3502 127.074 52.8428 126.901C52.0146 126.619 51.4723 126.592 51.064 126.51Z" fill="#B50D0D"/>
<path id="path-1-5" d="M61.6276 125.52C62.9109 126.022 64.98 127.385 68.3532 128.793C69.2541 129.17 70.3005 129.55 71.4418 129.828C71.6295 129.873 71.8258 129.918 72.0295 129.96C73.0922 130.179 74.4517 130.353 75.9879 130.267C84.0159 130.11 95.9084 128.815 107.036 122.97C107.051 122.964 107.064 122.956 107.078 122.947C109.238 121.695 111.122 120.06 113.024 118.215L111.056 116.22C108.658 118.941 105.984 121.65 103.388 124.437C101.483 126.196 99.2931 127.656 97.1134 128.965C89.8619 132.741 82.1717 134.238 75.2707 134.072C74.4535 134.196 73.784 134.259 73.3651 134.262C73.7695 134.356 74.4227 134.549 75.2389 134.757C82.237 135.16 90.1576 133.913 97.7835 130.258C100.145 129.127 102.635 127.787 104.871 126.037C104.883 126.028 104.895 126.017 104.906 126.006C104.918 125.995 104.928 125.984 104.939 125.973C107.712 123.338 110.47 120.849 113.114 118.126C113.272 117.963 113.43 117.799 113.564 117.616C113.698 117.433 113.808 117.231 113.87 117.012C113.931 116.794 113.942 116.56 113.891 116.339C113.84 116.118 113.727 115.912 113.566 115.752C113.406 115.592 113.199 115.48 112.978 115.429C112.757 115.377 112.524 115.385 112.304 115.44C111.864 115.549 111.495 115.84 111.147 116.131C109.145 117.801 107.403 119.121 105.506 120.132L105.548 120.109C95.0274 125.525 83.6879 126.808 75.887 127.125C75.8601 127.127 75.8335 127.127 75.8067 127.13C74.572 127.261 73.4269 127.202 72.4762 127.107C72.2977 127.089 72.1238 127.07 71.9556 127.05C70.9408 126.928 69.9178 126.753 69.008 126.59C65.5819 125.976 62.9981 125.662 61.6276 125.52Z" fill="#B50D0D"/>
<path id="path-1-13" d="M47.772 108.38C48.0067 108.776 48.1982 109.318 48.4816 110.105C48.6616 110.606 48.8941 111.243 49.2074 111.865C49.4773 112.401 49.8402 112.994 50.3495 113.549C50.5894 113.81 50.8651 114.066 51.1816 114.303C51.4603 114.512 51.7933 114.722 52.1828 114.912L52.0648 114.857C54.0081 115.92 56.2845 116.812 59.0555 117.585C61.3287 118.22 63.6024 118.688 66.1255 119.197C66.1465 119.201 66.1686 119.207 66.1906 119.211C70.7979 120.045 75.4811 120.063 80.2612 119.589C84.8617 119.133 89.4172 118.237 93.8712 117.29C99.6813 115.897 104.822 113.297 109.132 110.507L109.091 110.53C111.024 109.42 112.671 108.108 114.011 106.916C115.759 105.36 117.467 103.549 118.301 102.683C117.345 103.53 115.565 105.052 113.613 106.412C112.155 107.428 110.427 108.482 108.48 109.305C108.473 109.308 108.465 109.311 108.46 109.317C108.453 109.32 108.448 109.325 108.44 109.328C103.966 111.689 98.8604 113.707 93.346 114.58C88.868 115.311 84.4273 115.978 79.9971 116.235C75.4328 116.5 71.1295 116.312 66.9953 115.441C64.4013 114.759 62.4172 114.262 60.2172 113.595C57.6267 112.809 55.6665 112.054 53.9009 111.238C53.8822 111.229 53.8622 111.22 53.8429 111.209C53.8241 111.199 53.8036 111.19 53.7827 111.183C53.58 111.12 53.3899 111.049 53.2116 110.979C53.0078 110.899 52.8037 110.813 52.59 110.716C52.1211 110.504 51.6715 110.272 51.176 110.009C50.5597 109.683 50.0942 109.43 49.5316 109.155C48.7877 108.793 48.1564 108.552 47.772 108.38Z" fill="#B50D0D"/>
</g>
<g id="g8262">
<path id="path23125" d="M79.2712 37.7064C78.7123 37.7423 78.141 37.7823 77.5601 37.8277C58.9593 39.2721 55.8629 42.5928 49.2758 43.4259C42.6886 44.2591 34.2775 51.7244 34.2775 51.7244L37.6001 68.9331C37.534 69.171 36.2878 75.8767 35.6177 83.0605C35.6177 83.0605 35.7381 83.1689 35.9757 83.3528C36.0952 83.4452 36.2443 83.557 36.4218 83.6837C36.5993 83.8105 36.8047 83.9521 37.0389 84.1051C37.273 84.258 37.5359 84.4223 37.8257 84.5938C37.9706 84.6795 38.1218 84.7671 38.2804 84.8559C38.439 84.9449 38.6051 85.035 38.7771 85.1259C38.9491 85.217 39.1282 85.3084 39.3136 85.4004C39.4992 85.4925 39.6909 85.5849 39.8896 85.6772C40.0884 85.7695 40.2932 85.8625 40.505 85.954C40.7167 86.0455 40.9346 86.1353 41.1593 86.2249C41.3841 86.3146 41.6152 86.4031 41.8527 86.49C42.0901 86.5768 42.3347 86.6617 42.5848 86.7446C42.8349 86.8276 43.0907 86.9084 43.3532 86.9867C43.6158 87.065 43.8852 87.1414 44.1601 87.2136C44.435 87.286 44.7157 87.3545 45.0028 87.4199C45.2899 87.4856 45.5833 87.5476 45.8825 87.6055C46.1816 87.6632 46.4867 87.7177 46.7978 87.767C47.1088 87.8162 47.4255 87.8604 47.7483 87.8995C48.071 87.9387 48.3997 87.9726 48.7341 88.0012C49.0685 88.0298 49.4079 88.0527 49.7537 88.0694C50.0995 88.0862 50.4511 88.0967 50.8082 88.1008C51.1653 88.1053 51.528 88.1029 51.8963 88.0931C52.2645 88.0839 52.6383 88.0666 53.0177 88.0437C53.3969 88.0194 53.782 87.9873 54.1721 87.9464C54.5622 87.9073 54.9576 87.8586 55.3584 87.8021C55.7592 87.7452 56.165 87.6803 56.5764 87.606C56.653 87.591 56.7048 87.5853 56.7326 87.5862C56.7456 87.5866 56.7564 87.5926 56.7564 87.5926C56.7587 87.5976 56.7546 87.6005 56.7469 87.6087C56.7296 87.6227 56.6889 87.6444 56.628 87.6714C56.5672 87.6984 56.4857 87.7326 56.3851 87.7716C56.1836 87.8496 55.9052 87.9502 55.5624 88.0701C55.2195 88.1901 54.8122 88.3298 54.3518 88.4847C53.4311 88.7941 52.3 89.1651 51.0532 89.5692C49.8065 89.9734 48.4436 90.4103 47.0625 90.8507C45.6561 91.2992 44.4621 91.6734 43.1172 92.0981C43.2698 92.1865 43.4248 92.2736 43.5834 92.3595C43.766 92.4585 43.9513 92.5568 44.1418 92.6524C44.3322 92.7481 44.5277 92.8416 44.7261 92.9334C44.9246 93.0252 45.1263 93.1149 45.3329 93.2025C45.5394 93.2899 45.7506 93.3745 45.9655 93.4574C46.1803 93.5404 46.3993 93.6211 46.6227 93.6992C46.8461 93.7773 47.0737 93.8538 47.3057 93.9267C47.5378 93.9996 47.7747 94.0688 48.0154 94.1363C48.2563 94.2035 48.5011 94.2678 48.7508 94.3293C49.0004 94.3907 49.2541 94.4494 49.5129 94.5046C49.7717 94.5598 50.0359 94.6111 50.3039 94.6595C50.5718 94.7079 50.8441 94.754 51.1214 94.7954C51.3987 94.8368 51.6798 94.8738 51.9666 94.9079C52.2534 94.942 52.5465 94.9733 52.8429 94.9998C53.1393 95.0263 53.4393 95.0487 53.7456 95.0671C54.0518 95.0855 54.3642 95.1004 54.6804 95.1104C54.9965 95.1204 55.3173 95.1252 55.6436 95.1265C55.9698 95.1276 56.3 95.1243 56.6365 95.1165C56.973 95.1092 57.3145 95.0964 57.6615 95.0814C58.0083 95.0631 58.3619 95.041 58.7194 95.0151C59.0768 94.9884 59.4387 94.9562 59.8068 94.9195C60.1748 94.8818 60.5492 94.8403 60.9282 94.7928C61.307 94.7441 61.6901 94.6914 62.08 94.6332C62.4699 94.5749 62.866 94.5119 63.267 94.4424C63.668 94.3728 64.0743 94.2972 64.4866 94.2161C64.8989 94.135 65.3174 94.0483 65.7412 93.9554C66.1649 93.8624 66.593 93.764 67.0283 93.6589C67.4636 93.5536 67.9056 93.4421 68.3526 93.3244C68.7996 93.2067 69.2516 93.0828 69.7105 92.952C70.1693 92.8214 70.6344 92.6831 71.1053 92.5391C71.5762 92.395 72.0282 92.262 72.4614 92.1389C72.8947 92.0158 73.3101 91.9029 73.7067 91.7999C74.1033 91.6969 74.4811 91.6039 74.8421 91.5206C75.203 91.4372 75.547 91.364 75.8732 91.2998C76.1994 91.2355 76.5076 91.1799 76.8 91.134C77.0925 91.0881 77.3686 91.0507 77.6282 91.0226C77.7582 91.0096 77.8842 90.9968 78.0059 90.9869C78.1277 90.9772 78.2451 90.971 78.3589 90.9656C78.4727 90.9602 78.5833 90.9573 78.6896 90.9561C78.7956 90.9549 78.8981 90.9565 78.9966 90.9583C79.095 90.9602 79.1903 90.9674 79.2812 90.9736C79.3722 90.9811 79.4588 90.9896 79.5422 91.0007C79.6256 91.0112 79.7055 91.0243 79.7819 91.0394C79.858 91.0556 79.9301 91.0714 79.9991 91.0901C80.0682 91.1093 80.1345 91.1286 80.1963 91.1511C80.2583 91.1736 80.3159 91.1989 80.3709 91.2251C80.4259 91.2514 80.4781 91.2783 80.5263 91.3084C80.5745 91.3381 80.6193 91.3699 80.6607 91.4032C80.7021 91.4365 80.7398 91.4719 80.7747 91.5087C80.8096 91.5455 80.8426 91.5855 80.8709 91.6256C80.8993 91.6659 80.9236 91.7072 80.9456 91.7507C80.969 91.7942 80.9868 91.8393 81.0026 91.8863C81.0183 91.9331 81.0317 91.9821 81.0415 92.0321C81.0522 92.082 81.0579 92.1328 81.0611 92.186C81.0628 92.2092 81.0626 92.2354 81.0632 92.26C81.1696 92.2507 81.2759 92.2417 81.3824 92.233C81.5513 92.2238 81.7202 92.2153 81.8892 92.2077C81.8876 92.1896 81.8847 92.1714 81.8836 92.1536C81.881 92.1003 81.8824 92.047 81.8845 91.9961C81.8892 91.9452 81.8966 91.896 81.9056 91.8477C81.9157 91.7994 81.9293 91.7535 81.9459 91.7076C81.9639 91.6616 81.9825 91.6162 82.0061 91.573C82.0294 91.5296 82.0575 91.4885 82.0877 91.4477C82.1179 91.407 82.15 91.3664 82.1871 91.3281C82.2243 91.2901 82.2648 91.2532 82.3091 91.2178C82.3534 91.1825 82.4019 91.1479 82.4534 91.1153C82.5048 91.0826 82.5605 91.0517 82.6192 91.022C82.6781 90.9923 82.7412 90.9646 82.8076 90.9378C82.8739 90.9104 82.9434 90.8842 83.0172 90.8603C83.0909 90.8351 83.1687 90.8151 83.2505 90.7941C83.4137 90.7521 83.5923 90.716 83.7871 90.6866C83.9819 90.6567 84.1912 90.6337 84.4186 90.6171C84.6461 90.6008 84.891 90.5906 85.1522 90.5885C85.4134 90.5857 85.6919 90.5882 85.9877 90.5983C86.2836 90.6088 86.5972 90.6257 86.9288 90.6506C87.2604 90.6752 87.6085 90.7077 87.9768 90.7472C88.3452 90.7867 88.7337 90.8336 89.1398 90.888C89.5459 90.9426 89.9718 91.0049 90.4167 91.0751C90.8616 91.1453 91.3253 91.2242 91.8101 91.3107C92.2948 91.3972 92.7718 91.4761 93.2431 91.5509C93.7143 91.6255 94.1801 91.6942 94.6381 91.7576C95.0961 91.8208 95.5469 91.8787 95.9918 91.9307C96.4367 91.9828 96.8757 92.0302 97.3076 92.0714C97.7396 92.1128 98.164 92.1487 98.5833 92.1797C99.0025 92.2107 99.4157 92.2369 99.8224 92.2578C100.229 92.2787 100.629 92.2937 101.024 92.3047C101.418 92.3157 101.805 92.3222 102.187 92.3238C102.57 92.3242 102.947 92.3224 103.317 92.3149C103.687 92.3082 104.052 92.294 104.41 92.2791C104.769 92.2627 105.121 92.2441 105.467 92.2178C105.814 92.1943 106.155 92.1659 106.491 92.1328C106.826 92.0996 107.156 92.0629 107.48 92.0223C107.804 91.9821 108.122 91.9365 108.435 91.8883C108.748 91.8401 109.057 91.7881 109.359 91.733C109.661 91.6777 109.958 91.6196 110.249 91.5577C110.541 91.4958 110.827 91.4298 111.108 91.3613C111.389 91.2927 111.665 91.2206 111.936 91.1459C112.207 91.0713 112.472 90.9941 112.733 90.9138C112.993 90.8333 113.25 90.7509 113.5 90.665C113.751 90.5791 113.996 90.4904 114.237 90.3994C114.478 90.3083 114.715 90.2139 114.946 90.118C115.178 90.0221 115.405 89.9239 115.627 89.8234C115.849 89.7231 116.067 89.621 116.28 89.5166C116.493 89.4119 116.7 89.3058 116.904 89.1975C117.109 89.089 117.308 88.978 117.503 88.8662C117.698 88.7543 117.89 88.6411 118.076 88.526C118.263 88.411 118.445 88.2947 118.623 88.1769C118.801 88.0591 118.974 87.9381 119.144 87.8178C119.314 87.6973 119.48 87.5768 119.642 87.4543C119.804 87.3317 119.962 87.2086 120.116 87.0842C120.27 86.9597 120.42 86.8345 120.567 86.7084C120.713 86.5826 120.855 86.4566 120.994 86.3295C121.133 86.2024 121.268 86.0728 121.399 85.9449C121.531 85.8169 121.659 85.6889 121.784 85.5605C121.908 85.4321 122.029 85.3035 122.146 85.1751C122.381 84.9176 122.603 84.6604 122.812 84.4043C123.021 84.1482 123.217 83.8928 123.401 83.6404C123.584 83.3882 123.755 83.1397 123.915 82.8938C124.075 82.6479 124.224 82.4053 124.362 82.1686C124.5 81.9321 124.627 81.7001 124.744 81.4752C124.862 81.2502 124.969 81.0328 125.067 80.8223C125.166 80.6117 125.255 80.409 125.335 80.2156C125.416 80.0221 125.49 79.8376 125.554 79.6639C125.619 79.4902 125.675 79.3268 125.725 79.1754C125.776 79.024 125.818 78.8852 125.855 78.7588C125.929 78.5061 125.981 78.3061 126.012 78.1692C126.043 78.0322 126.055 77.9581 126.055 77.9581C124.588 70.2784 122.332 64.0826 122.233 63.8434L123.466 46.3614L107.579 39.9236C103.541 39.8229 96.6118 36.602 79.2706 37.7141L79.2712 37.7064Z" fill="#DF730E"/>
<path id="path2056-3" d="M126.056 77.9504C126.056 77.9504 126.042 78.0246 126.012 78.1615C125.981 78.2985 125.93 78.4994 125.856 78.7522C125.819 78.8787 125.776 79.0174 125.726 79.1688C125.676 79.3202 125.619 79.4837 125.554 79.6574C125.489 79.8312 125.416 80.0156 125.336 80.209C125.255 80.4024 125.166 80.6041 125.068 80.8146C124.969 81.0251 124.862 81.2437 124.745 81.4686C124.627 81.6935 124.5 81.9254 124.363 82.1621C124.225 82.3989 124.075 82.6415 123.915 82.8873C123.755 83.1332 123.583 83.3816 123.4 83.6339C123.216 83.8862 123.021 84.1416 122.812 84.3977C122.604 84.6538 122.382 84.9111 122.147 85.1685C122.029 85.2972 121.909 85.4256 121.784 85.5539C121.66 85.6823 121.531 85.8103 121.4 85.9384C121.268 86.0664 121.133 86.1959 120.995 86.3229C120.856 86.4501 120.713 86.5759 120.567 86.7019C120.42 86.8279 120.27 86.9532 120.116 87.0776C119.962 87.202 119.805 87.3251 119.643 87.4477C119.481 87.5703 119.315 87.6908 119.145 87.8112C118.975 87.9317 118.801 88.0526 118.623 88.1703C118.445 88.2882 118.262 88.4042 118.076 88.5194C117.889 88.6344 117.698 88.7478 117.503 88.8596C117.308 88.9715 117.109 89.0813 116.905 89.1898C116.701 89.2981 116.492 89.4056 116.279 89.51C116.066 89.6147 115.848 89.7165 115.626 89.8169C115.404 89.9174 115.177 90.0157 114.945 90.1116C114.714 90.2075 114.479 90.3018 114.238 90.3928C113.997 90.4838 113.752 90.5725 113.501 90.6584C113.25 90.7443 112.994 90.8269 112.733 90.9072C112.472 90.9878 112.207 91.0647 111.936 91.1394C111.666 91.2141 111.39 91.2862 111.109 91.3547C110.828 91.4233 110.541 91.4893 110.25 91.5512C109.958 91.6131 109.662 91.6714 109.359 91.7265C109.057 91.7818 108.749 91.8338 108.435 91.8817C108.122 91.9299 107.804 91.975 107.48 92.0158C107.156 92.0561 106.826 92.0936 106.491 92.1262C106.156 92.1594 105.815 92.1877 105.468 92.2112C105.121 92.2347 104.769 92.255 104.411 92.2723C104.052 92.2887 103.688 92.3003 103.318 92.3091C102.947 92.3159 102.57 92.3197 102.188 92.318C101.806 92.3151 101.418 92.3099 101.024 92.2989C100.63 92.2879 100.229 92.2729 99.8228 92.252C99.4161 92.2311 99.0029 92.2049 98.5837 92.1739C98.1645 92.1429 97.74 92.107 97.308 92.0656C96.876 92.0242 96.4371 91.9769 95.9922 91.9249C95.5892 91.8779 95.1796 91.8247 94.7657 91.7685C94.6096 91.732 94.453 91.6963 94.2961 91.6614C93.9748 91.5921 93.652 91.5262 93.3277 91.4637C93.004 91.4008 92.6788 91.3413 92.3523 91.2852C92.0262 91.2293 91.6988 91.1769 91.3702 91.1278C91.1442 91.0947 90.9176 91.0632 90.6906 91.0334C90.6917 91.0611 90.6913 91.0881 90.6929 91.1154C90.6012 91.1002 90.5069 91.0839 90.4169 91.0696C89.972 90.9994 89.5472 90.937 89.1411 90.8824C88.735 90.8278 88.3464 90.7798 87.9781 90.7406C87.6097 90.701 87.2617 90.6696 86.9301 90.645C86.5985 90.6204 86.2837 90.6033 85.9879 90.5928C85.692 90.5824 85.4135 90.5794 85.1524 90.583C84.8912 90.5858 84.6474 90.5952 84.4199 90.6115C84.1924 90.6278 83.9821 90.6535 83.7873 90.6821C83.5925 90.712 83.415 90.7478 83.2519 90.7896C83.1704 90.81 83.0925 90.8316 83.0185 90.8557C82.9448 90.8809 82.8743 90.9064 82.8079 90.9333C82.7416 90.9606 82.6794 90.9877 82.6208 91.0174C82.5619 91.0472 82.5064 91.0783 82.455 91.1107C82.4035 91.1433 82.355 91.1779 82.3107 91.2132C82.2664 91.2486 82.2259 91.2855 82.1887 91.3236C82.1516 91.3616 82.1185 91.4012 82.0882 91.4419C82.058 91.4826 82.0312 91.525 82.0079 91.5684C81.9846 91.6118 81.9645 91.6571 81.9476 91.703C81.9296 91.749 81.9176 91.7948 81.9075 91.8431C81.8975 91.8915 81.89 91.9407 81.8863 91.9915C81.8816 92.0423 81.8823 92.0957 81.8855 92.149C81.8863 92.1671 81.8896 92.185 81.8911 92.2031C82.0612 92.1938 82.2311 92.1852 82.4013 92.1775C82.7397 92.1623 83.0788 92.1523 83.4172 92.1441C83.7561 92.1366 84.0945 92.1326 84.4331 92.1314C84.7712 92.1292 85.1091 92.1324 85.4467 92.1375C85.7845 92.1431 86.1221 92.1505 86.4591 92.1621C86.796 92.1734 87.1322 92.1877 87.468 92.2056C87.8036 92.2232 88.1391 92.2437 88.4733 92.2677C88.8078 92.2921 89.1415 92.3203 89.4742 92.351C89.8074 92.3816 90.1392 92.4153 90.4704 92.4521C90.5289 92.459 90.5869 92.4658 90.6454 92.4729C90.6418 92.4991 90.6407 92.5243 90.6371 92.5499C90.6266 92.6336 90.6165 92.7161 90.6046 92.7985C90.594 92.8809 90.5801 92.9637 90.5663 93.0452C90.5531 93.1266 90.5379 93.2072 90.5218 93.2875C90.5059 93.3678 90.4894 93.4484 90.4714 93.5278C90.4528 93.6073 90.4337 93.6857 90.4138 93.764C90.3926 93.8423 90.3733 93.9197 90.3513 93.997C90.3295 94.0743 90.3066 94.1509 90.283 94.227C90.2593 94.3032 90.2342 94.3788 90.2087 94.4538C90.1831 94.5287 90.157 94.6034 90.1296 94.6774C90.1021 94.7515 90.0736 94.824 90.0445 94.8968C90.0154 94.9696 89.9853 95.0425 89.9546 95.1141C89.9237 95.1857 89.8914 95.2567 89.8585 95.3271C89.826 95.3976 89.793 95.4664 89.7588 95.5357C89.7246 95.6049 89.6891 95.6742 89.6532 95.7423C89.6174 95.8103 89.5812 95.8776 89.5438 95.9447C89.5063 96.0115 89.4673 96.0782 89.4284 96.1438C89.3896 96.2094 89.3497 96.2741 89.3092 96.3385C89.2687 96.403 89.2282 96.4669 89.1864 96.5301C89.1445 96.5933 89.1008 96.6556 89.0576 96.7173C89.0144 96.7793 88.9709 96.8416 88.9263 96.9024C88.8818 96.9631 88.8361 97.0227 88.7901 97.082C88.7442 97.1416 88.6974 97.2001 88.6503 97.2582C88.603 97.3163 88.5553 97.3731 88.5066 97.4303C88.4582 97.4871 88.4089 97.5433 88.3593 97.5989C88.3095 97.6546 88.2592 97.71 88.2083 97.7644C88.1573 97.8185 88.1057 97.8736 88.0536 97.9265C88.0016 97.9794 87.9494 98.0313 87.8963 98.083C87.8431 98.1344 87.7893 98.1839 87.7352 98.2341C87.6812 98.2843 87.6259 98.3351 87.5705 98.384C87.5153 98.4328 87.4594 98.481 87.4031 98.5285C87.3468 98.576 87.2902 98.6224 87.2331 98.6684C87.1759 98.7144 87.1185 98.7604 87.0608 98.8051C87.0028 98.8498 86.9445 98.8941 86.8859 98.9373C86.827 98.9805 86.7679 99.0232 86.7084 99.0649C86.6487 99.1067 86.5897 99.1475 86.5293 99.188C86.469 99.2285 86.4079 99.268 86.3467 99.3067C86.2855 99.3456 86.2232 99.3834 86.1614 99.4208C86.0996 99.4582 86.0372 99.4957 85.9746 99.5316C85.9121 99.5675 85.8494 99.6025 85.7863 99.6369C85.7233 99.6713 85.6602 99.7046 85.5969 99.7375C85.5332 99.7704 85.4691 99.8033 85.4046 99.8347C85.3403 99.866 85.2768 99.8963 85.2122 99.9261C85.1476 99.956 85.0822 99.9859 85.0173 100.014C84.952 100.042 84.8863 100.07 84.8207 100.097C84.7552 100.124 84.6898 100.15 84.6239 100.175C84.558 100.2 84.4918 100.225 84.4258 100.248C84.3596 100.273 84.2937 100.295 84.2273 100.317C84.1607 100.339 84.094 100.359 84.0273 100.38C83.9605 100.399 83.8941 100.421 83.827 100.439C83.76 100.459 83.6923 100.476 83.6254 100.493C83.5582 100.51 83.4916 100.525 83.4244 100.541C83.357 100.556 83.2896 100.573 83.2222 100.586C83.1548 100.6 83.0879 100.612 83.0207 100.625C82.9532 100.636 82.8854 100.648 82.8178 100.658C82.7504 100.667 82.6831 100.679 82.6157 100.688C82.5483 100.697 82.4805 100.704 82.4132 100.711C82.3459 100.717 82.2789 100.724 82.2117 100.728C82.1446 100.733 82.078 100.737 82.011 100.741C81.944 100.745 81.8763 100.749 81.809 100.751C81.7417 100.753 81.6751 100.754 81.6078 100.755C81.5402 100.757 81.4729 100.756 81.4053 100.757C81.3376 100.756 81.2693 100.755 81.2013 100.754C81.1335 100.753 81.0661 100.749 80.9982 100.745C80.9303 100.742 80.8618 100.738 80.7937 100.734C80.7257 100.731 80.6572 100.724 80.5889 100.719C80.5208 100.713 80.4533 100.706 80.3851 100.699C80.3171 100.692 80.2491 100.684 80.1811 100.674C80.1129 100.665 80.0448 100.656 79.9768 100.646C79.9088 100.637 79.8401 100.624 79.7723 100.613C79.7044 100.601 79.6363 100.59 79.5686 100.576C79.5008 100.562 79.4334 100.55 79.3658 100.536C79.2983 100.521 79.2302 100.506 79.1629 100.49C79.0955 100.473 79.0289 100.458 78.9618 100.441C78.8946 100.424 78.8271 100.405 78.7606 100.387C78.6939 100.367 78.6268 100.348 78.5602 100.328C78.4937 100.309 78.4281 100.288 78.362 100.266C78.2958 100.244 78.2291 100.222 78.1634 100.199C78.0977 100.176 78.0322 100.152 77.9669 100.127C77.9017 100.103 77.8373 100.077 77.7725 100.051C77.7077 100.025 77.642 99.9985 77.5778 99.9713C77.5134 99.944 77.45 99.9167 77.3863 99.8879C77.3226 99.859 77.2589 99.8299 77.1958 99.7998C77.1325 99.7696 77.0708 99.7385 77.0084 99.7068C76.9458 99.675 76.8827 99.6435 76.8208 99.6104C76.7589 99.5773 76.6984 99.5416 76.6374 99.5069C76.5762 99.4722 76.5144 99.437 76.4539 99.4009C76.3936 99.3649 76.3354 99.3277 76.2758 99.29C76.2162 99.2524 76.1553 99.2148 76.0964 99.1758C76.0378 99.1368 75.9802 99.0972 75.9225 99.0566C75.8645 99.016 75.8076 98.9746 75.7506 98.9326C75.6936 98.8907 75.6368 98.8474 75.5807 98.8038C75.5247 98.7603 75.4691 98.7164 75.414 98.6715C75.3589 98.6263 75.3024 98.5802 75.2483 98.5334C75.1941 98.4869 75.1412 98.4395 75.088 98.3913C75.035 98.3432 74.9828 98.2952 74.9308 98.2457C74.8788 98.1962 74.827 98.1451 74.7757 98.094C74.7249 98.0429 74.6749 97.9914 74.625 97.9387C74.5754 97.8861 74.526 97.8326 74.4776 97.7784C74.4292 97.7243 74.3818 97.669 74.3343 97.6133C74.2871 97.5575 74.2405 97.5017 74.1945 97.4446C74.1485 97.3874 74.1036 97.3297 74.059 97.2709C74.0143 97.2122 73.9699 97.1515 73.9266 97.0914C73.8833 97.031 73.8404 96.97 73.7985 96.9079C73.7567 96.8461 73.7154 96.7843 73.675 96.7209C73.6346 96.6574 73.5946 96.5927 73.5557 96.5278C73.5168 96.4627 73.4783 96.3974 73.4409 96.3309C73.4034 96.2644 73.3675 96.1971 73.3315 96.1289C73.2955 96.0608 73.2596 95.9917 73.2251 95.9224C73.1906 95.8527 73.157 95.7821 73.1244 95.7109C73.0916 95.6397 73.0603 95.5672 73.0292 95.4944C72.9981 95.4215 72.9677 95.3484 72.9384 95.2739C72.9079 95.1995 72.8806 95.1247 72.853 95.0488C72.825 94.9729 72.7991 94.8948 72.7731 94.8173C72.7477 94.7397 72.7217 94.6614 72.6975 94.5822C72.6746 94.5029 72.6499 94.424 72.6276 94.3431C72.6046 94.2623 72.5846 94.1805 72.5643 94.098C72.5438 94.0157 72.5237 93.9318 72.5052 93.8479C72.4871 93.7639 72.4691 93.6796 72.4528 93.594C72.449 93.5735 72.445 93.5512 72.4411 93.5299C72.5275 93.5091 72.6137 93.4889 72.7003 93.4691C73.6408 93.2535 74.5925 93.0634 75.5528 92.8989C76.5133 92.7347 77.4816 92.5965 78.4552 92.4844C79.3224 92.3876 80.1931 92.3115 81.0654 92.2566C81.065 92.2333 81.0648 92.2071 81.0634 92.1839C81.0596 92.1307 81.0519 92.0803 81.0437 92.0299C81.0329 91.98 81.0222 91.9319 81.0059 91.8852C80.9901 91.8384 80.97 91.7924 80.9479 91.7486C80.9245 91.7052 80.9016 91.6637 80.8732 91.6234C80.8449 91.5831 80.8132 91.5443 80.7783 91.5075C80.7434 91.4707 80.7047 91.4354 80.663 91.4021C80.6216 91.3688 80.5768 91.3358 80.5286 91.306C80.4804 91.2762 80.4282 91.25 80.3732 91.2238C80.3182 91.1975 80.2604 91.1725 80.1986 91.1498C80.1366 91.1273 80.0718 91.1061 80.0027 91.0874C79.9336 91.0682 79.8605 91.0516 79.7843 91.0367C79.7082 91.0206 79.6283 91.009 79.5447 90.998C79.4613 90.9875 79.3744 90.9779 79.2837 90.9709C79.1927 90.9635 79.0988 90.9587 79.0002 90.9556C78.9018 90.9537 78.7993 90.9521 78.6932 90.9534C78.5872 90.9546 78.4764 90.9586 78.3626 90.9629C78.2488 90.9682 78.1301 90.9746 78.0084 90.9842C77.8865 90.9939 77.7605 91.0069 77.6307 91.02C77.3711 91.0486 77.0949 91.0841 76.8024 91.13C76.51 91.1759 76.2018 91.2313 75.8757 91.2958C75.5494 91.3601 75.2066 91.4342 74.8457 91.5176C74.4848 91.6011 74.1057 91.6927 73.7091 91.7957C73.3125 91.8987 72.8983 92.0116 72.465 92.1347C72.4063 92.1512 72.3447 92.1702 72.2853 92.1872C72.2843 92.1541 72.2832 92.121 72.282 92.0879L72.2769 92.0905C71.4515 92.2979 70.6356 92.5266 69.8309 92.7763C69.164 92.9863 68.5052 93.2106 67.8554 93.4488C67.5785 93.5194 67.3027 93.589 67.0306 93.6549C66.5953 93.7602 66.166 93.8584 65.7423 93.9514C65.3185 94.0444 64.9001 94.1326 64.4878 94.2135C64.0754 94.2946 63.6692 94.3702 63.2682 94.4397C62.8672 94.5092 62.4722 94.5719 62.0823 94.6304C61.6924 94.6889 61.3082 94.7417 60.9293 94.7891C60.5504 94.8379 60.1771 94.8788 59.809 94.9158C59.441 94.9535 59.0781 94.9873 58.7206 95.0138C58.3632 95.0405 58.0096 95.0618 57.6628 95.0798C57.3159 95.0981 56.9755 95.1082 56.6389 95.1148C56.3024 95.1221 55.9711 95.1262 55.6448 95.1249C55.3186 95.1238 54.9977 95.1177 54.6815 95.1077C54.3654 95.0977 54.0542 95.0837 53.748 95.0654C53.4418 95.047 53.1406 95.0236 52.8441 94.9971C52.5477 94.9706 52.2557 94.9392 51.9689 94.9052C51.6821 94.8711 51.3999 94.8346 51.1226 94.7927C50.8453 94.7513 50.573 94.7052 50.305 94.6568C50.0371 94.6084 49.7728 94.5579 49.5141 94.5029C49.2553 94.448 49.0017 94.3891 48.7521 94.3276C48.5025 94.2662 48.2574 94.2021 48.0167 94.1346C47.7758 94.0674 47.5389 93.9966 47.3069 93.9237C47.0747 93.8508 46.8484 93.7745 46.625 93.6961C46.4017 93.618 46.1816 93.5374 45.9666 93.4544C45.7518 93.3714 45.5418 93.287 45.3352 93.1995C45.1287 93.1121 44.9257 93.0221 44.7273 92.9304C44.5288 92.8389 44.3345 92.745 44.1441 92.6494C43.9537 92.5541 43.7671 92.4566 43.5846 92.3577C43.428 92.2728 43.2751 92.1855 43.1243 92.0983C43.0708 92.1145 43.0129 92.1343 42.9597 92.151C41.6361 92.5691 40.3894 92.9609 39.3152 93.2981C37.1716 93.9711 35.7234 94.4231 35.7169 94.4251C37.1563 99.1002 41.6262 104.836 49.0697 109.304C57.0117 114.553 68.3191 118.191 82.9541 117.029C97.6497 115.863 108.393 111.211 115.599 105.371C123.932 99.1904 127.59 91.6449 127.142 85.8345C126.936 83.152 126.538 80.4711 126.056 77.9504Z" fill="#F5CCB4"/>
</g>
<g id="g8249">
<path id="path8020-6-6" d="M80.3582 71.9529C80.3582 71.9529 71.7562 86.6362 72.2912 92.5323C72.8262 98.4284 77.7127 100.979 82.002 100.746C86.2913 100.514 90.9343 96.7151 90.6837 90.9953C90.433 85.2755 80.3582 71.9529 80.3582 71.9529Z" fill="#BA5C04"/>
<path id="path21311" d="M72.2748 92.0894C72.2757 92.142 72.276 92.1954 72.2791 92.2466C72.2831 92.3428 72.2889 92.4371 72.2972 92.5291C72.3054 92.6212 72.3161 92.7124 72.3241 92.8031C72.3348 92.8935 72.3454 92.9832 72.3585 93.072C72.3716 93.161 72.3847 93.2486 72.3977 93.336C72.4134 93.4232 72.429 93.5102 72.4448 93.596C72.4603 93.6817 72.4784 93.766 72.4972 93.8499C72.5152 93.9339 72.5358 94.0174 72.5563 94.1C72.5768 94.1823 72.5974 94.2643 72.6196 94.3452C72.6426 94.426 72.6655 94.505 72.6895 94.5842C72.7124 94.6635 72.7392 94.7418 72.7652 94.8193C72.7906 94.8969 72.8173 94.9747 72.845 95.0508C72.8729 95.1267 72.901 95.2017 72.9304 95.2762C72.9608 95.3506 72.9901 95.4238 73.0212 95.4966C73.0523 95.5695 73.085 95.6419 73.1175 95.7131C73.1503 95.7843 73.1839 95.8551 73.2182 95.9246C73.2525 95.9944 73.2885 96.0631 73.3245 96.1312C73.3605 96.1993 73.3964 96.2664 73.4339 96.3331C73.4714 96.3996 73.5098 96.465 73.5488 96.5301C73.5877 96.5951 73.6277 96.6599 73.668 96.7231C73.7084 96.7865 73.7498 96.8484 73.7916 96.9102C73.8335 96.972 73.8763 97.0332 73.9196 97.0936C73.9629 97.154 74.0073 97.2144 74.0521 97.2731C74.0969 97.3319 74.1416 97.3896 74.1876 97.4468C74.2335 97.5039 74.2802 97.5597 74.3274 97.6155C74.3746 97.6713 74.422 97.7265 74.4704 97.7806C74.5188 97.8348 74.5682 97.8881 74.6178 97.9409C74.6674 97.9936 74.7177 98.0451 74.7685 98.0962C74.8193 98.1474 74.8716 98.1982 74.9236 98.2479C74.9756 98.2975 75.0276 98.3457 75.0808 98.3936C75.1337 98.4417 75.1869 98.4891 75.241 98.5356C75.2952 98.5822 75.3507 98.6289 75.4058 98.6741C75.4609 98.719 75.5162 98.7628 75.5725 98.8064C75.6285 98.85 75.6853 98.893 75.7423 98.9352C75.7993 98.9771 75.8563 99.0186 75.9142 99.0592C75.9722 99.0998 76.0306 99.1393 76.0892 99.1783C76.1481 99.2173 76.208 99.255 76.2675 99.2926C76.3271 99.3303 76.3864 99.3671 76.4467 99.4034C76.507 99.4395 76.568 99.4747 76.6292 99.5094C76.6904 99.5441 76.7519 99.5785 76.8136 99.6119C76.8755 99.645 76.9375 99.6768 77.0001 99.7083C77.0627 99.7401 77.1256 99.771 77.1886 99.8012C77.2516 99.8314 77.3154 99.8618 77.3791 99.8903C77.4429 99.9192 77.5062 99.9465 77.5706 99.9737C77.6348 100.001 77.7004 100.028 77.7653 100.054C77.8301 100.079 77.8944 100.104 77.9597 100.129C78.0249 100.153 78.0905 100.177 78.1562 100.2C78.2219 100.223 78.2886 100.246 78.3547 100.267C78.4209 100.289 78.4864 100.309 78.553 100.33C78.6195 100.349 78.6866 100.369 78.7534 100.388C78.8201 100.407 78.8876 100.425 78.9545 100.442C79.0217 100.458 79.088 100.475 79.1554 100.491C79.2228 100.508 79.2908 100.522 79.3583 100.537C79.4258 100.551 79.4933 100.565 79.561 100.578C79.6288 100.592 79.6969 100.602 79.7647 100.614C79.8326 100.626 79.9012 100.637 79.9693 100.647C80.0374 100.658 80.1056 100.667 80.1736 100.675C80.2418 100.684 80.3095 100.693 80.3776 100.7C80.4457 100.706 80.5134 100.715 80.5813 100.72C80.6494 100.726 80.7179 100.73 80.7862 100.736C80.8543 100.739 80.9227 100.745 80.9907 100.747C81.0589 100.75 81.1258 100.751 81.1937 100.755C81.2615 100.756 81.33 100.757 81.3978 100.758C81.4655 100.759 81.5329 100.758 81.6003 100.756C81.6679 100.755 81.7352 100.754 81.8025 100.752C81.8698 100.75 81.9365 100.746 82.0035 100.742C82.0704 100.739 82.1381 100.734 82.2052 100.729C82.2723 100.724 82.3395 100.718 82.4068 100.712C82.474 100.705 82.5417 100.696 82.6092 100.689C82.6766 100.68 82.7438 100.671 82.8113 100.659C82.8787 100.65 82.9456 100.638 83.0131 100.626C83.0806 100.614 83.1484 100.602 83.2157 100.587C83.283 100.573 83.3496 100.558 83.4169 100.542C83.4842 100.528 83.5519 100.511 83.6189 100.494C83.6861 100.477 83.7537 100.459 83.8205 100.441C83.8875 100.421 83.954 100.401 84.0208 100.381C84.0875 100.361 84.1542 100.34 84.2209 100.318C84.2875 100.296 84.3533 100.273 84.4193 100.249C84.4855 100.225 84.5517 100.201 84.6174 100.176C84.6833 100.151 84.7487 100.125 84.8142 100.098C84.8797 100.071 84.9456 100.044 85.0108 100.016C85.0761 99.9883 85.1411 99.9574 85.2057 99.9273C85.2703 99.8975 85.3341 99.8672 85.3981 99.8358C85.4623 99.8045 85.5267 99.7716 85.5904 99.7387C85.654 99.7058 85.7168 99.6724 85.7801 99.638C85.8431 99.6036 85.9059 99.5687 85.9683 99.5328C86.0307 99.4969 86.0933 99.4594 86.1551 99.4219C86.2169 99.3845 86.2781 99.3466 86.3394 99.3079C86.4006 99.2689 86.4618 99.2294 86.5221 99.1892C86.5824 99.1488 86.6427 99.1078 86.7022 99.0661C86.7619 99.0244 86.8211 98.9816 86.8797 98.9384C86.9385 98.8952 86.9965 98.851 87.0545 98.8063C87.1125 98.7615 87.17 98.7158 87.2268 98.6696C87.284 98.6236 87.3406 98.5771 87.3969 98.5296C87.4531 98.4821 87.5089 98.4342 87.5643 98.3852C87.6194 98.3365 87.6747 98.2865 87.729 98.2363C87.7833 98.186 87.8369 98.1356 87.89 98.0842C87.9432 98.0325 87.9953 97.9806 88.0474 97.9276C88.0994 97.8747 88.1512 97.821 88.2021 97.7666C88.253 97.7124 88.3033 97.6567 88.3532 97.6011C88.403 97.5454 88.452 97.4893 88.5004 97.4324C88.5489 97.3756 88.5968 97.3187 88.6441 97.2604C88.6915 97.2023 88.738 97.1435 88.7839 97.0842C88.8299 97.0246 88.8755 96.964 88.9201 96.9035C88.9647 96.8427 89.0082 96.7815 89.0514 96.7195C89.0946 96.6575 89.1383 96.5944 89.1801 96.5312C89.222 96.468 89.2625 96.4041 89.303 96.3397C89.3434 96.2752 89.3831 96.2106 89.4222 96.145C89.461 96.0793 89.5001 96.0127 89.5375 95.9458C89.575 95.879 89.6112 95.8117 89.647 95.7434C89.6828 95.6754 89.7183 95.6061 89.7526 95.5368C89.7868 95.4676 89.8197 95.3987 89.8523 95.3283C89.8848 95.2578 89.9174 95.1869 89.9484 95.1153C89.9793 95.0436 90.0092 94.9707 90.0383 94.8979C90.0673 94.8251 90.0962 94.7526 90.1233 94.6786C90.1508 94.6046 90.1769 94.5299 90.2024 94.4549C90.228 94.38 90.253 94.3043 90.2767 94.2282C90.3004 94.152 90.3233 94.0755 90.3451 93.9982C90.3669 93.9208 90.3876 93.8433 90.4076 93.7651C90.4288 93.6868 90.4471 93.6082 90.4652 93.529C90.4837 93.4496 90.4996 93.369 90.5155 93.2887C90.5314 93.2083 90.546 93.1278 90.5601 93.0463C90.5733 92.9649 90.5867 92.8821 90.5984 92.7997C90.609 92.7174 90.6211 92.6347 90.6308 92.5511C90.6414 92.4675 90.6498 92.3839 90.6575 92.2995C90.6653 92.2149 90.6705 92.129 90.6768 92.0436C90.682 91.9582 90.6872 91.8723 90.689 91.7858C90.6916 91.6993 90.6941 91.6125 90.694 91.525C90.6939 91.4376 90.6938 91.3494 90.6911 91.2612C90.6892 91.1858 90.6873 91.1107 90.6853 91.0346C90.5818 91.02 90.4783 91.0057 90.3747 90.9918C90.0433 90.9497 89.7109 90.911 89.3776 90.8758C89.0445 90.84 88.7106 90.8076 88.3759 90.7787C88.0416 90.7503 87.7065 90.7254 87.3709 90.7039C87.0345 90.6825 86.6976 90.6645 86.3602 90.6501C86.0234 90.6353 85.6861 90.624 85.3484 90.6162C85.0107 90.6087 84.6727 90.6048 84.3345 90.6044C83.9955 90.6039 83.6564 90.607 83.3172 90.6135C82.9789 90.62 82.6406 90.6299 82.3023 90.6433C81.9631 90.6567 81.6241 90.6737 81.2852 90.6942C80.3055 90.7533 79.328 90.8415 78.3552 90.9586C77.3819 91.0758 76.4141 91.2218 75.4542 91.3963C74.4946 91.5709 73.5437 91.7738 72.604 92.0045C72.4925 92.0332 72.3812 92.0623 72.27 92.0918L72.2748 92.0894Z" fill="#341E12"/>
</g>
<g id="g8266">
<path id="path2054-5-1" d="M52.2713 42.9354C52.2713 42.9354 36.1366 35.5479 28.8619 46.1156C21.5871 56.6833 37.6238 68.9031 37.6238 68.9031L52.2713 42.9354Z" fill="#DF730E"/>
<path id="path2054-5-3-2" d="M104.554 39.8053C104.554 39.8053 119.685 30.5342 128.176 40.152C136.667 49.7698 122.213 63.8266 122.213 63.8266L104.554 39.8053Z" fill="#DF730E"/>
<path id="path8272" d="M39.0894 64.3426C37.0727 54.9446 45.9781 47.5232 48.9176 45.8351C48.9176 45.8351 35.8709 41.7739 31.811 48.512C27.751 55.2502 39.0894 64.3426 39.0894 64.3426Z" fill="#F5CCB4"/>
<path id="path8272-2" d="M120.434 59.4588C121.307 49.8868 111.575 43.5882 108.454 42.2652C108.454 42.2652 120.919 36.667 125.759 42.869C130.598 49.071 120.434 59.4588 120.434 59.4588Z" fill="#F5CCB4"/>
</g>
<g id="g8245">
<path id="path18524" d="M60.9324 82.4198C64.7992 83.0482 68.6745 80.4027 69.5881 76.5109C70.5017 72.6192 68.1077 68.9549 64.2409 68.3265C60.3741 67.6981 56.4989 70.3436 55.5853 74.2354C54.6717 78.1272 57.0657 81.7914 60.9324 82.4198Z" fill="#341E12"/>
<path id="path18524-9" d="M64.0582 75.5361C65.2898 75.7363 66.524 74.8937 66.815 73.6542C67.1059 72.4148 66.3435 71.2477 65.1119 71.0476C63.8804 70.8475 62.6462 71.69 62.3552 72.9295C62.0643 74.169 62.8267 75.336 64.0582 75.5361Z" fill="#E3DFC5"/>
<path id="path18524-0" d="M100.925 79.9933C97.1619 81.0814 92.9971 78.9202 91.6228 75.1663C90.2486 71.4124 92.1854 67.4872 95.9487 66.3991C99.7121 65.311 103.877 67.4721 105.251 71.2261C106.625 74.98 104.689 78.9052 100.925 79.9933Z" fill="#341E12"/>
<path id="path18524-9-4" d="M101.084 73.0861C99.8854 73.4326 98.5589 72.7444 98.1212 71.5488C97.6836 70.3532 98.3004 69.1031 99.499 68.7565C100.698 68.41 102.024 69.0983 102.462 70.2939C102.899 71.4895 102.283 72.7396 101.084 73.0861Z" fill="#E3DFC5"/>
<path id="path19276" d="M53.2643 67.0889C53.4966 66.619 59.9796 60.2672 67.9902 61.4957L53.2643 67.0889Z" fill="#341E12"/>
<path id="path19276-9" d="M103.889 63.9768C103.602 63.5382 96.4035 58.0107 88.5983 60.1921L103.889 63.9768Z" fill="#341E12"/>
</g>
<g id="g8237">
<path id="path23128" d="M35.6168 83.0598C35.6057 83.1775 35.593 83.2939 35.5825 83.4116C35.5824 83.4115 35.5825 83.4117 35.5825 83.4116C35.3381 86.1158 35.177 88.8741 35.1981 91.3692C35.2061 92.3074 35.3793 93.3361 35.7145 94.4252C35.7221 94.4231 37.1691 93.9713 39.3127 93.2983C40.3869 92.961 41.6337 92.5692 42.9572 92.1512C43.0105 92.135 43.0686 92.1151 43.1218 92.0985C43.1204 92.0976 43.1192 92.0972 43.1165 92.0965C44.461 91.6718 45.6547 91.2974 47.0607 90.8491C48.4418 90.4087 49.8047 89.9718 51.0515 89.5676C52.2983 89.1634 53.4294 88.7925 54.35 88.4831C54.8104 88.3283 55.2177 88.1885 55.5606 88.0685C55.9035 87.9485 56.1819 87.848 56.3833 87.77C56.4839 87.731 56.5654 87.6968 56.6263 87.6698C56.6872 87.6428 56.7273 87.6214 56.7451 87.6071C56.755 87.5987 56.7575 87.596 56.7546 87.591C56.7522 87.5859 56.7438 87.5838 56.7308 87.5846C56.703 87.5839 56.6513 87.5906 56.5746 87.6044C56.1633 87.6787 55.7574 87.7439 55.3566 87.8005C54.9558 87.8573 54.5604 87.9047 54.1703 87.9448C53.7802 87.9839 53.3951 88.0177 53.0159 88.0421C52.6366 88.0665 52.2627 88.0823 51.8945 88.0915C51.5262 88.1007 51.1635 88.1031 50.8064 88.0992C50.4493 88.0948 50.0977 88.0846 49.7519 88.0678C49.4062 88.0511 49.0667 88.0282 48.7323 87.9996C48.3979 87.971 48.0693 87.9373 47.7465 87.8979C47.4237 87.8585 47.107 87.8143 46.796 87.7653C46.485 87.7164 46.1798 87.6619 45.8807 87.6039C45.5815 87.5462 45.2881 87.484 45.001 87.4183C44.7139 87.3526 44.4333 87.2844 44.1584 87.212C43.8834 87.1396 43.614 87.0633 43.3515 86.9851C43.0889 86.907 42.8331 86.8259 42.583 86.743C42.333 86.66 42.0884 86.5752 41.8509 86.4884C41.6136 86.4015 41.3822 86.313 41.1575 86.2233C40.9327 86.1336 40.7149 86.0438 40.5032 85.9524C40.2915 85.8609 40.0865 85.7679 39.8878 85.6756C39.689 85.5833 39.4973 85.4909 39.3118 85.3988C39.1263 85.3068 38.9475 85.2154 38.7754 85.1243C38.6034 85.0333 38.4371 84.9432 38.2786 84.8543C38.1199 84.7656 37.9688 84.6779 37.8239 84.5922C37.5341 84.4206 37.2713 84.2565 37.0371 84.1035C36.8031 83.9505 36.5975 83.8088 36.42 83.6821C36.2425 83.5553 36.0934 83.4435 35.974 83.3512C35.7362 83.1673 35.6181 83.061 35.6168 83.0598Z" fill="#341E12"/>
<path id="path23128-8" d="M125.848 76.8963C125.873 77.0117 125.9 77.1258 125.924 77.2414C125.924 77.2414 125.923 77.2436 125.923 77.2437C126.491 79.899 126.983 82.6157 127.261 85.0952C127.366 86.0276 127.317 87.0697 127.115 88.1912C127.108 88.19 125.617 87.9151 123.408 87.5044C122.301 87.2985 121.016 87.0593 119.652 86.8031C119.597 86.7935 119.537 86.7807 119.482 86.7706C119.484 86.7695 119.485 86.769 119.487 86.768C118.102 86.5078 116.872 86.2794 115.422 86.0031C113.998 85.7317 112.593 85.4616 111.306 85.2101C110.02 84.9585 108.852 84.726 107.901 84.5294C107.426 84.4309 107.004 84.3412 106.65 84.2632C106.295 84.1852 106.006 84.1188 105.797 84.0655C105.693 84.0389 105.608 84.0147 105.544 83.9952C105.48 83.9757 105.438 83.9593 105.418 83.9473C105.408 83.9401 105.405 83.9377 105.407 83.9324C105.409 83.9271 105.417 83.924 105.43 83.9232C105.457 83.9192 105.51 83.9196 105.587 83.9241C106.005 83.9485 106.415 83.9645 106.82 83.9725C107.225 83.9808 107.623 83.9804 108.015 83.9734C108.407 83.9654 108.793 83.9527 109.173 83.9314C109.552 83.91 109.925 83.8809 110.292 83.8458C110.659 83.8108 111.019 83.7696 111.373 83.7229C111.727 83.6756 112.075 83.6233 112.416 83.5651C112.758 83.5069 113.092 83.4435 113.42 83.3749C113.749 83.3064 114.071 83.2335 114.387 83.1556C114.702 83.0777 115.012 82.9958 115.315 82.9099C115.617 82.8239 115.914 82.7332 116.204 82.6397C116.494 82.5465 116.778 82.4496 117.055 82.3499C117.332 82.2502 117.602 82.1488 117.867 82.0439C118.131 81.9391 118.389 81.8309 118.64 81.7217C118.892 81.6127 119.136 81.5015 119.374 81.3892C119.613 81.2768 119.845 81.1632 120.071 81.0485C120.296 80.9337 120.515 80.8181 120.727 80.702C120.94 80.586 121.145 80.4707 121.344 80.3545C121.543 80.2383 121.736 80.1214 121.922 80.0059C122.108 79.8904 122.287 79.7756 122.46 79.662C122.634 79.5483 122.8 79.4361 122.96 79.325C123.12 79.214 123.274 79.1046 123.421 78.9974C123.568 78.8902 123.707 78.785 123.841 78.6825C124.108 78.4774 124.349 78.2829 124.563 78.1029C124.777 77.923 124.964 77.7575 125.125 77.6105C125.286 77.4633 125.421 77.3343 125.528 77.2284C125.742 77.0173 125.847 76.8976 125.848 76.8963Z" fill="#341E12"/>
<path id="path17496" d="M61.7388 57.3329C61.7388 57.3329 79.769 49.4866 96.9565 55.2033L61.7388 57.3329Z" fill="#341E12"/>
<path id="path17498" d="M58.4164 52.0158C58.4242 52.0154 76.0653 40.4963 99.6154 49.5057L58.4164 52.0158Z" fill="#341E12"/>
<path id="path17498-6" d="M55.297 45.1343C55.3048 45.1338 75.3371 33.4707 101.886 42.2994L55.297 45.1343Z" fill="#341E12"/>
<path id="path23019" d="M37.5899 68.87C37.5899 68.87 47.1966 81.7398 54.6179 84.9077C55.1558 85.1373 35.8928 80.3303 35.8928 80.3303C36.331 75.9952 36.9687 72.5103 37.5899 68.87Z" fill="#341E12"/>
<path id="path23019-1" d="M122.26 63.7476C122.26 63.7476 114.268 77.6777 107.281 81.7137C106.774 82.0062 125.423 74.9218 125.423 74.9218C124.467 70.6706 123.391 67.2693 122.26 63.7476Z" fill="#341E12"/>
</g>
<g id="g8258">
<path id="path15492-8" d="M88.7456 104.262C88.6381 104.252 88.5297 104.262 88.4264 104.294C88.3231 104.325 88.227 104.377 88.1436 104.445C85.2785 106.832 82.4448 106.995 80.239 106.593C78.0332 106.191 76.5594 105.214 76.5594 105.214C76.4696 105.154 76.3688 105.112 76.2629 105.091C76.1569 105.069 76.0478 105.069 75.9418 105.09C75.8358 105.111 75.7349 105.153 75.6451 105.213C75.5552 105.273 75.4781 105.35 75.418 105.44C75.3581 105.53 75.3165 105.631 75.2956 105.737C75.2748 105.843 75.2751 105.952 75.2965 106.058C75.3179 106.164 75.36 106.265 75.4204 106.355C75.4809 106.444 75.5584 106.521 75.6486 106.581C75.6486 106.581 77.3989 107.742 79.9459 108.207C82.4929 108.671 85.9403 108.422 89.1971 105.709C89.3637 105.569 89.4681 105.369 89.4873 105.152C89.5065 104.935 89.4389 104.72 89.2995 104.553C89.1603 104.387 88.9615 104.282 88.7456 104.262Z" fill="#341E12"/>
<path id="path13759-9" d="M77.0328 104.574C76.8678 113.798 87.9703 115.57 87.2857 104.033L77.0328 104.574Z" fill="#F44754"/>
<path id="path25662" d="M82.0924 100.808L77.0503 105.943C77.0503 105.943 79.0083 104.615 82.2882 104.445C85.5678 104.272 87.3517 105.411 87.3517 105.411L82.0924 100.808Z" fill="#691C1C"/>
<path id="path13733-0-7" d="M67.9051 100.716C67.9051 100.716 65.4573 102.749 65.599 105.657C65.6102 105.874 65.7073 106.079 65.869 106.225C66.0308 106.371 66.2439 106.447 66.4615 106.436C66.6783 106.424 66.8818 106.328 67.0278 106.167C67.1738 106.007 67.2503 105.795 67.2406 105.578C67.1473 103.689 68.9924 101.947 68.9924 101.947C69.1555 101.803 69.2547 101.6 69.2681 101.382C69.2816 101.165 69.2083 100.951 69.0642 100.788C68.9199 100.624 68.7168 100.525 68.4995 100.512C68.2821 100.498 68.0684 100.572 67.9051 100.716Z" fill="#341E12"/>
<path id="path23295-0" d="M82.2988 100.162C82.1046 100.261 81.9576 100.434 81.8903 100.641C81.823 100.848 81.8409 101.074 81.9399 101.268C81.9399 101.268 83.1161 103.592 85.7729 104.857C88.4296 106.122 92.5531 106.233 98.0273 102.345C98.1153 102.283 98.1902 102.204 98.2476 102.112C98.305 102.021 98.3439 101.919 98.3619 101.812C98.38 101.706 98.3769 101.597 98.3528 101.492C98.3287 101.386 98.2841 101.287 98.2216 101.199C98.1591 101.111 98.0799 101.036 97.9884 100.979C97.897 100.921 97.7951 100.882 97.6887 100.864C97.5822 100.846 97.4732 100.849 97.368 100.873C97.2627 100.898 97.1632 100.942 97.0752 101.005C91.918 104.668 88.6037 104.387 86.479 103.375C84.3543 102.364 83.4044 100.521 83.4044 100.521C83.3554 100.425 83.2879 100.34 83.2058 100.27C83.1236 100.199 83.0285 100.146 82.9258 100.113C82.8232 100.08 82.7149 100.067 82.6073 100.075C82.4997 100.084 82.3949 100.113 82.2988 100.162Z" fill="#341E12"/>
<path id="path23295" d="M81.3091 99.9687C81.2105 100.014 81.1219 100.079 81.0485 100.159C80.9751 100.239 80.9183 100.333 80.8813 100.435C80.8813 100.435 80.1593 102.373 78.1714 103.633C76.1835 104.892 72.9269 105.569 67.3672 102.551C67.2723 102.5 67.1682 102.467 67.0608 102.456C66.9534 102.445 66.8448 102.455 66.7413 102.486C66.6378 102.516 66.5413 102.567 66.4574 102.635C66.3735 102.703 66.3039 102.787 66.2524 102.882C66.2009 102.977 66.1686 103.081 66.1573 103.188C66.146 103.296 66.156 103.404 66.1867 103.508C66.2174 103.611 66.2682 103.708 66.3362 103.792C66.4042 103.876 66.488 103.945 66.583 103.997C72.4843 107.2 76.5699 106.598 79.0556 105.023C81.5412 103.449 82.4249 101.001 82.4249 101.001C82.4999 100.796 82.4905 100.57 82.3988 100.372C82.3071 100.174 82.1406 100.021 81.9359 99.9462C81.7324 99.8702 81.507 99.879 81.3091 99.9687Z" fill="#341E12"/>
<path id="path13733-0-6" d="M96.4204 99.3117C96.2404 99.1889 96.019 99.1426 95.8049 99.183C95.5907 99.2234 95.4014 99.3472 95.2785 99.5271C95.1557 99.7071 95.1094 99.9285 95.1498 100.143C95.1902 100.357 95.314 100.546 95.4939 100.669C95.4939 100.669 97.5282 102.172 97.6636 104.059C97.6712 104.167 97.7 104.273 97.7485 104.369C97.7969 104.466 97.864 104.553 97.946 104.624C98.0279 104.694 98.1231 104.748 98.226 104.782C98.3288 104.816 98.4374 104.83 98.5454 104.821C98.7627 104.805 98.9646 104.703 99.1066 104.537C99.2486 104.372 99.3192 104.157 99.3028 103.94C99.0951 101.036 96.4204 99.3117 96.4204 99.3117Z" fill="#341E12"/>
</g>
<path id="path9394_2" d="M42.215 123.947C42.215 123.947 42.1988 129.019 42.197 129.33C42.1954 129.644 42.1971 130.1 42.2149 130.673C42.2239 130.96 42.2388 131.275 42.2553 131.617C42.2735 131.958 42.2964 132.325 42.3255 132.714C42.3571 133.103 42.3941 133.513 42.4364 133.943C42.4828 134.373 42.5336 134.822 42.5959 135.286C42.6567 135.75 42.7306 136.229 42.8139 136.721C42.8972 137.212 42.991 137.715 43.0972 138.227C43.1495 138.483 43.2069 138.742 43.2664 139.002C43.3259 139.261 43.3891 139.522 43.4553 139.785C43.5215 140.048 43.5912 140.313 43.6641 140.578C43.7374 140.843 43.8136 141.109 43.8944 141.375C43.9751 141.641 44.0592 141.907 44.1474 142.174C44.2355 142.441 44.3286 142.707 44.4249 142.973C44.5212 143.24 44.6221 143.506 44.727 143.771C44.8318 144.036 44.9412 144.301 45.0549 144.564C45.1687 144.827 45.286 145.088 45.4086 145.348C45.5312 145.608 45.6594 145.866 45.7916 146.122C45.9238 146.378 46.0615 146.632 46.2033 146.883C46.3454 147.135 46.492 147.385 46.644 147.631C46.7203 147.754 46.8007 147.878 46.8853 148.005C46.9699 148.131 47.0588 148.26 47.1519 148.39C47.3383 148.65 47.5408 148.916 47.7586 149.189C47.9765 149.461 48.2097 149.739 48.4567 150.022C48.7036 150.306 48.9654 150.594 49.2391 150.888C49.5128 151.181 49.7989 151.478 50.0966 151.78C50.3942 152.081 50.7029 152.387 51.0221 152.696C51.3414 153.004 51.6716 153.315 52.01 153.629C52.3484 153.943 52.6946 154.259 53.0494 154.577C53.4041 154.895 53.7679 155.215 54.1369 155.536C54.5056 155.857 54.881 156.179 55.2615 156.501C55.6418 156.823 56.0282 157.146 56.4177 157.468C56.807 157.791 57.2005 158.112 57.5965 158.432C58.3885 159.074 59.19 159.711 59.9931 160.338C60.7962 160.966 61.6007 161.583 62.3948 162.185C63.1889 162.787 63.9734 163.373 64.7384 163.938C65.5034 164.504 66.2483 165.049 66.9642 165.568C67.6801 166.086 68.3673 166.578 69.014 167.038C69.6608 167.497 70.2671 167.925 70.8246 168.315C71.9397 169.096 72.8565 169.725 73.4942 170.16C74.1319 170.594 74.4909 170.833 74.4909 170.833C74.4909 170.833 73.954 170.705 73.0099 170.464C72.5379 170.344 71.9643 170.194 71.3056 170.02C70.6469 169.846 69.9021 169.647 69.0895 169.423C68.2769 169.2 67.3956 168.953 66.4621 168.685C65.5286 168.417 64.5421 168.128 63.5205 167.819C62.4989 167.51 61.4422 167.181 60.3653 166.835C59.8268 166.663 59.2841 166.486 58.738 166.305C58.1919 166.124 57.6432 165.939 57.0936 165.751C56.5439 165.562 55.9933 165.37 55.4443 165.174C54.8952 164.978 54.3469 164.779 53.8024 164.576C53.2581 164.374 52.7162 164.17 52.1806 163.961C51.645 163.753 51.1154 163.541 50.5927 163.327C50.07 163.113 49.555 162.896 49.0493 162.677C48.5436 162.458 48.0475 162.237 47.5629 162.014C47.0783 161.79 46.6051 161.565 46.1457 161.337C45.6864 161.11 45.2402 160.88 44.8102 160.649C44.3801 160.418 43.9653 160.187 43.5687 159.953C43.3703 159.837 43.1781 159.719 42.9889 159.601C42.7999 159.484 42.6147 159.367 42.4354 159.249C42.2558 159.132 42.0807 159.012 41.9114 158.894C41.742 158.775 41.5775 158.657 41.4189 158.538C41.2602 158.42 41.1072 158.302 40.9596 158.183C40.812 158.064 40.6712 157.944 40.5354 157.825C40.3996 157.706 40.2695 157.586 40.1459 157.466C40.0224 157.347 39.9042 157.227 39.7933 157.107C39.6825 156.988 39.5786 156.868 39.4808 156.748C39.3831 156.628 39.291 156.508 39.2068 156.388C39.123 156.268 39.0465 156.149 38.9767 156.029C38.9072 155.91 38.8455 155.791 38.7904 155.671C38.7356 155.551 38.6874 155.431 38.6479 155.312C38.6079 155.192 38.5766 155.074 38.5531 154.955C38.5463 154.911 37.6286 154.865 37.6178 154.822C36.9617 143.931 38.3723 132.261 42.215 123.947Z" fill="#341E12"/>
</g>
<circle id="Ellipse 98" cx="83" cy="83" r="77.4667" stroke="#BE0503" stroke-width="11.0667"/>
</g>
</g>
<defs>
<clipPath id="clip0_2228_3571">
<rect width="166" height="166" fill="white"/>
</clipPath>
</defs>
</svg>
