<svg width="166" height="166" viewBox="0 0 166 166" fill="none" xmlns="http://www.w3.org/2000/svg">
<g id="PerfilPingaoMax" clip-path="url(#clip0_2228_3619)">
<mask id="mask0_2228_3619" style="mask-type:alpha" maskUnits="userSpaceOnUse" x="0" y="0" width="166" height="166">
<circle id="Ellipse 96" cx="83" cy="83" r="83" fill="#D9D9D9"/>
</mask>
<g mask="url(#mask0_2228_3619)">
<circle id="Ellipse 97" cx="83" cy="83" r="77.4667" fill="#F8FBFC" stroke="#F1C22E" stroke-width="11.0667"/>
<g id="g2052">
<path id="path26974" d="M44.1351 97.6402C38.7847 85.5988 39.8774 71.7507 46.8974 58.838C53.9173 45.9253 65.4818 37.6886 82.8917 37.6269C100.302 37.5653 113.039 47.4837 120.266 59.0522C127.492 70.6206 125.992 85.6778 124.028 98.2118C136.785 115.775 139.44 148.382 139.44 148.382L26.5601 147.948C26.5601 147.948 30.6848 115.609 44.1351 97.6402Z" fill="#2B3139"/>
<path id="path28896" d="M86.6741 72.4097C86.6741 72.4097 93.3424 55.1485 100.438 53.5034C107.533 51.8584 114.914 59.4359 117.394 66.7127C119.874 73.9895 121.111 80.4776 116.2 99.6C128.055 118.246 132.064 148.318 132.064 148.318L110.667 164.893L74.7949 170.998L40.9469 148.318C40.9469 148.318 40.6683 113.714 50.2043 99.1009C48.0551 87.4085 47.2681 73.2322 50.5917 66.1802C53.9153 59.1282 58.0152 52.8934 65.9538 53.6304C73.8924 54.3674 79.4787 72.8991 79.4787 72.8991L86.6741 72.4097Z" fill="#EBE7D4"/>
<path id="path30946" d="M62.4929 74.2065C65.5969 74.2065 68.1132 72.3442 68.1132 70.0468C68.1132 67.7495 65.5969 65.8872 62.4929 65.8872C59.3889 65.8872 56.8726 67.7495 56.8726 70.0468C56.8726 72.3442 59.3889 74.2065 62.4929 74.2065Z" fill="#1D1E20"/>
<path id="path30946-0" d="M102.63 74.2382C105.734 74.2382 108.25 72.3759 108.25 70.0786C108.25 67.7812 105.734 65.9189 102.63 65.9189C99.5255 65.9189 97.0093 67.7812 97.0093 70.0786C97.0093 72.3759 99.5255 74.2382 102.63 74.2382Z" fill="#1D1E20"/>
<path id="path27408" d="M77.3855 72.4918C79.3063 69.6726 81.6403 69.2602 83.1103 69.2568C84.5804 69.2541 86.4969 69.3413 88.6578 72.4282C87.0083 76.6582 83.1645 80.049 83.1645 80.049C83.1645 80.049 79.2751 77.0255 77.3855 72.4918Z" fill="#DEAF2F"/>
<path id="path32200" d="M64.7154 70.5867C65.3643 70.5867 65.8903 70.1176 65.8903 69.5389C65.8903 68.9601 65.3643 68.491 64.7154 68.491C64.0665 68.491 63.5405 68.9601 63.5405 69.5389C63.5405 70.1176 64.0665 70.5867 64.7154 70.5867Z" fill="#C9C6AF"/>
<path id="path32200-9" d="M105.222 70.5706C105.871 70.5706 106.397 70.1015 106.397 69.5228C106.397 68.9441 105.871 68.4749 105.222 68.4749C104.573 68.4749 104.047 68.9441 104.047 69.5228C104.047 70.1015 104.573 70.5706 105.222 70.5706Z" fill="#C9C6AF"/>
<path id="path346" d="M50.1597 98.7602C50.1597 98.7602 59.5975 142.494 54.3885 155.697C50.3849 165.844 39.6658 160.556 37.504 148.152C35.3422 135.749 36.5905 116.906 50.1597 98.7602Z" fill="#242930"/>
<path id="path346-3" d="M116.2 99.6C116.2 99.6 110.622 144.036 116.245 157.068C120.567 167.083 131.114 161.46 132.883 148.994C134.652 136.528 130.335 117.308 116.2 99.6Z" fill="#242930"/>
</g>
<circle id="Ellipse 98" cx="83" cy="83" r="77.4667" stroke="#127CA6" stroke-width="11.0667"/>
</g>
</g>
<defs>
<clipPath id="clip0_2228_3619">
<rect width="166" height="166" fill="white"/>
</clipPath>
</defs>
</svg>
