<svg width="41" height="41" viewBox="0 0 41 41" fill="none" xmlns="http://www.w3.org/2000/svg">
<g id="PerfilTigre" clip-path="url(#clip0_2259_3838)">
<mask id="mask0_2259_3838" style="mask-type:alpha" maskUnits="userSpaceOnUse" x="0" y="0" width="41" height="41">
<circle id="Ellipse 96" cx="20.041" cy="20.8847" r="20" fill="#D9D9D9"/>
</mask>
<g mask="url(#mask0_2259_3838)">
<circle id="Ellipse 97" cx="20.041" cy="20.8847" r="18.6667" fill="#F8FBFC" stroke="#F1C22E" stroke-width="2.66667"/>
<path id="Vector 27" d="M9.10767 35.5514C9.10767 33.2047 10.7077 28.8847 12.041 27.018C16.841 25.7736 25.529 24.7641 27.5077 25.9513C30.1743 27.5514 32.041 31.5514 32.3077 34.218L25.641 39.818C20.1299 39.3736 9.10767 37.898 9.10767 35.5514Z" fill="#DF730E"/>
<g id="g18470">
<path id="path8544" d="M32.5667 36.9193C32.5678 36.9495 32.5694 36.9807 32.5699 37.0203C32.5709 37.0707 32.5714 37.1282 32.5713 37.1924C32.5713 37.2566 32.5696 37.3275 32.5676 37.404C32.566 37.4423 32.5654 37.4822 32.5634 37.5233C32.562 37.5643 32.5596 37.6069 32.5568 37.6507C32.5545 37.6945 32.5511 37.7392 32.5476 37.7854C32.5445 37.8316 32.5403 37.8791 32.536 37.9275C32.532 37.9759 32.5264 38.0255 32.5208 38.0761C32.515 38.1267 32.5093 38.1783 32.5027 38.2308C32.496 38.2833 32.489 38.3365 32.4811 38.3907C32.4733 38.4449 32.4649 38.4998 32.4556 38.5556C32.4464 38.6113 32.4364 38.6678 32.4258 38.7249C32.4151 38.782 32.4033 38.8396 32.3911 38.8979C32.3788 38.9562 32.3659 39.0153 32.352 39.0745C32.3381 39.1338 32.3231 39.1931 32.3075 39.2531C32.2918 39.3132 32.2755 39.3739 32.2581 39.4346C32.2405 39.4953 32.2219 39.5562 32.2024 39.6173C32.1829 39.6784 32.1624 39.7394 32.1409 39.8007C32.1194 39.8622 32.0968 39.9236 32.0732 39.985C32.0495 40.0465 32.025 40.1079 31.999 40.1692C31.986 40.1999 31.9725 40.2306 31.9589 40.2611C31.9453 40.2917 31.9317 40.322 31.9176 40.3526C31.9035 40.3832 31.8889 40.4139 31.8742 40.4443C31.8594 40.4747 31.8444 40.5049 31.829 40.5351C31.8137 40.5654 31.7981 40.5956 31.7822 40.6257C31.7662 40.6558 31.7498 40.6861 31.7332 40.716C31.7166 40.746 31.6998 40.7759 31.6825 40.8055C31.6653 40.8353 31.6476 40.8649 31.6297 40.8944C31.6117 40.9239 31.5932 40.9533 31.5747 40.9825C31.556 41.0118 31.5372 41.041 31.5179 41.07C31.4986 41.099 31.4781 41.1279 31.4565 41.1572C31.4349 41.1864 31.4118 41.2162 31.388 41.2457C31.3642 41.2752 31.3396 41.3049 31.3136 41.3346C31.2877 41.3643 31.2608 41.3939 31.2329 41.4238C31.205 41.4537 31.1758 41.4838 31.146 41.5139C31.1161 41.544 31.0853 41.574 31.0535 41.6042C31.0217 41.6345 30.9887 41.665 30.9552 41.6953C30.9216 41.7257 30.8875 41.7559 30.8522 41.7863C30.8169 41.8168 30.7807 41.8476 30.7438 41.8782C30.707 41.9087 30.6692 41.9392 30.6308 41.9698C30.5923 42.0004 30.553 42.031 30.5131 42.0617C30.4732 42.0923 30.4329 42.1231 30.3916 42.1538C30.3503 42.1844 30.3081 42.2151 30.2655 42.2458C30.2229 42.2765 30.1798 42.3069 30.136 42.3376C30.0923 42.3681 30.0481 42.3989 30.0032 42.4296C29.9582 42.4601 29.9125 42.4904 29.8665 42.5209C29.8205 42.5514 29.7742 42.5821 29.7272 42.6124C29.6803 42.6428 29.6329 42.673 29.585 42.7033C29.4894 42.7639 29.3921 42.8239 29.2934 42.8838C29.1946 42.9436 29.0947 43.0035 28.9936 43.0626C28.8925 43.1217 28.7901 43.1804 28.6873 43.2385C28.5844 43.2966 28.4809 43.3538 28.377 43.4107C28.273 43.4676 28.1687 43.5238 28.0643 43.5794C27.96 43.6349 27.8556 43.6898 27.7514 43.7438C27.6473 43.7978 27.5436 43.8512 27.4404 43.9035C27.3371 43.9558 27.2345 44.0071 27.1327 44.0575C27.031 44.1078 26.9302 44.1573 26.8307 44.2056C26.7312 44.254 26.6325 44.301 26.5358 44.347C26.4391 44.393 26.3443 44.4379 26.2511 44.4815C26.1578 44.5251 26.0667 44.5671 25.9777 44.6081C25.8886 44.6491 25.8019 44.6889 25.7177 44.7271C25.5493 44.8034 25.3908 44.8735 25.2456 44.9374C25.1003 45.0014 24.968 45.0587 24.8512 45.1089C24.7345 45.159 24.6332 45.2019 24.5501 45.2367C24.3839 45.3065 24.2903 45.3444 24.2903 45.3444C24.2903 45.3444 24.3238 45.343 24.3863 45.3394C24.4487 45.3359 24.5402 45.3302 24.657 45.3227C24.7737 45.3152 24.9155 45.3052 25.0784 45.2934C25.2414 45.2816 25.4258 45.2665 25.6269 45.2498C25.7275 45.2417 25.8323 45.2325 25.9409 45.222C26.0494 45.2125 26.1614 45.2018 26.277 45.1908C26.3925 45.1798 26.5114 45.1668 26.633 45.1545C26.7546 45.1422 26.8788 45.1285 27.0053 45.1144C27.1318 45.0999 27.2607 45.0854 27.3912 45.0696C27.5217 45.0539 27.654 45.0374 27.7874 45.02C27.9209 45.0031 28.0555 44.9844 28.1909 44.9653C28.3263 44.9463 28.4624 44.9261 28.5987 44.9053C28.735 44.8844 28.8717 44.8628 29.0079 44.8402C29.1441 44.8175 29.2799 44.7942 29.415 44.7696C29.4826 44.7577 29.5499 44.7448 29.617 44.7322C29.684 44.7193 29.7507 44.7068 29.8172 44.6936C29.8838 44.6807 29.9498 44.6666 30.0156 44.6529C30.0814 44.6391 30.1469 44.6253 30.2118 44.6112C30.2768 44.597 30.3415 44.5825 30.4054 44.5678C30.4694 44.5531 30.5327 44.5382 30.5956 44.523C30.6584 44.5077 30.7206 44.4921 30.7822 44.4763C30.8439 44.4606 30.9051 44.4444 30.9654 44.4281C31.0257 44.4119 31.0851 44.3954 31.1439 44.3786C31.2027 44.3617 31.2608 44.3445 31.318 44.3272C31.3752 44.3098 31.4315 44.2923 31.487 44.2743C31.5425 44.2564 31.5972 44.2382 31.6508 44.2197C31.7044 44.2012 31.7569 44.1824 31.8086 44.1634C31.8603 44.1444 31.9108 44.125 31.9604 44.1053C32.0099 44.0857 32.0584 44.0658 32.1057 44.0455C32.1379 44.0318 32.1688 44.0176 32.1998 44.0035C32.4782 42.03 32.7022 39.4966 32.5675 36.9186L32.5667 36.9193Z" fill="#341E12"/>
<path id="path9394" d="M30.8572 29.7236C30.8573 29.7245 30.8636 29.7637 30.873 29.8378C30.8824 29.9129 30.8952 30.0222 30.9076 30.1598C30.9137 30.2287 30.9193 30.3045 30.9252 30.3866C30.9307 30.4687 30.9358 30.5573 30.9401 30.6511C30.9438 30.7451 30.9468 30.8444 30.9492 30.9485C30.9505 31.0526 30.9513 31.1614 30.9498 31.2742C30.9487 31.387 30.9449 31.5039 30.9392 31.6238C30.9335 31.7438 30.9256 31.8668 30.915 31.9924C30.9099 32.0552 30.9037 32.1186 30.897 32.1825C30.8902 32.2464 30.8827 32.3106 30.8744 32.3754C30.8662 32.4402 30.8572 32.5057 30.8474 32.5712C30.8376 32.6366 30.827 32.7024 30.8154 32.7685C30.8038 32.8345 30.7914 32.9006 30.778 32.9669C30.7646 33.0333 30.7501 33.0997 30.7347 33.1662C30.7194 33.2326 30.703 33.2993 30.6855 33.3658C30.6681 33.4322 30.6496 33.4987 30.63 33.5649C30.6104 33.6311 30.5899 33.697 30.5681 33.7627C30.5463 33.8285 30.5231 33.8938 30.4989 33.9589C30.4747 34.024 30.449 34.0887 30.4224 34.153C30.3957 34.2173 30.3678 34.2813 30.3386 34.3445C30.3239 34.3761 30.3083 34.4082 30.2917 34.441C30.2751 34.4737 30.2576 34.507 30.2391 34.5408C30.202 34.6084 30.1613 34.678 30.117 34.7495C30.0728 34.8209 30.025 34.8941 29.9741 34.9691C29.9233 35.044 29.869 35.1206 29.812 35.1987C29.755 35.2767 29.6952 35.3562 29.6327 35.4369C29.5702 35.5177 29.5052 35.5998 29.4378 35.6828C29.3703 35.7659 29.3003 35.8498 29.2285 35.9347C29.1566 36.0196 29.0829 36.1052 29.0072 36.1915C28.9316 36.2778 28.8538 36.3649 28.7748 36.4523C28.6959 36.5397 28.6154 36.6278 28.5337 36.7158C28.4521 36.8039 28.369 36.8923 28.2851 36.9806C28.2013 37.069 28.1165 37.1571 28.031 37.2453C27.8601 37.4216 27.6868 37.5973 27.5128 37.7706C27.3389 37.9439 27.1643 38.1148 26.9917 38.2818C26.8192 38.4488 26.6485 38.6116 26.4818 38.7691C26.3152 38.9265 26.1528 39.0785 25.9965 39.2232C25.8402 39.3679 25.6901 39.5055 25.5487 39.6342C25.4072 39.7629 25.2746 39.8828 25.1525 39.9922C24.9083 40.2111 24.7072 40.3883 24.5672 40.5107C24.4272 40.6331 24.3483 40.7007 24.3483 40.7007C24.3483 40.7007 24.473 40.6543 24.6919 40.5694C24.8013 40.527 24.9342 40.4746 25.0867 40.414C25.2393 40.3532 25.4117 40.284 25.5996 40.2071C25.7875 40.1301 25.9912 40.0457 26.2068 39.9545C26.4224 39.8633 26.65 39.7656 26.8854 39.6621C27.1209 39.5587 27.3641 39.4494 27.6118 39.3356C27.7356 39.2787 27.8603 39.2207 27.9857 39.1616C28.1111 39.1025 28.237 39.0425 28.363 38.9815C28.4891 38.9205 28.6152 38.8586 28.7409 38.7958C28.8666 38.7331 28.992 38.6695 29.1164 38.6053C29.2407 38.5411 29.3645 38.4766 29.4866 38.4112C29.6087 38.3458 29.7292 38.2798 29.8481 38.2135C29.9669 38.1472 30.0839 38.0805 30.1985 38.0135C30.3131 37.9465 30.4254 37.8793 30.5349 37.8118C30.6443 37.7443 30.751 37.6767 30.8543 37.609C30.9576 37.5414 31.0577 37.4733 31.1539 37.4057C31.2501 37.338 31.3426 37.2707 31.4308 37.2033C31.4748 37.1697 31.5174 37.1359 31.5593 37.1023C31.6011 37.0688 31.642 37.0355 31.6815 37.0022C31.7211 36.9688 31.7595 36.9352 31.7966 36.9019C31.8337 36.8687 31.8696 36.8357 31.9041 36.8027C31.9386 36.7697 31.9718 36.737 32.0037 36.7043C32.0356 36.6716 32.0658 36.6388 32.0948 36.6064C32.1239 36.5739 32.1515 36.5416 32.1776 36.5094C32.2037 36.4772 32.2285 36.4452 32.2516 36.4133C32.2746 36.3815 32.296 36.3498 32.3159 36.3184C32.3359 36.2869 32.3544 36.2554 32.3711 36.2243C32.3877 36.1932 32.4025 36.1624 32.4158 36.1318C32.4289 36.1012 32.4402 36.0709 32.45 36.0407C32.4596 36.0105 32.4676 35.9803 32.4736 35.9506C32.4798 35.9209 32.4838 35.8917 32.486 35.8625C32.4864 35.8518 32.4867 35.8407 32.488 35.8299C32.2858 33.6714 31.8013 31.5349 30.8572 29.7236Z" fill="#341E12"/>
<g id="g4688">
<path id="path26092" d="M11.3046 26.3581C20.3161 31.097 21.3004 28.6181 27.8496 25.0583C28.391 25.0068 28.6951 25.0326 28.6951 25.0326C28.6951 25.0326 28.1693 26.6933 29.8945 28.0963C29.9103 28.4932 29.9348 29.0793 29.9009 29.341C29.867 29.6027 29.8785 29.9673 28.8093 31.4208C27.7401 32.8743 24.3229 36.0494 20.4713 36.3945C16.6196 36.7397 11.3342 34.2423 10.2406 30.665C10.8661 29.2164 10.9337 28.9829 10.9743 28.618C11.0149 28.2531 11.1302 27.9137 11.2273 27.8212C11.3245 27.7288 11.8746 27.5802 11.8746 27.5802C11.8746 27.5802 11.6593 27.1928 11.3046 26.3581Z" fill="#D10F0F"/>
<path id="path-1-7" d="M12.3456 31.3689C12.4044 31.4466 12.4531 31.5698 12.5261 31.7414C12.5701 31.8447 12.6256 31.9704 12.7029 32.0958C12.7294 32.1388 12.7592 32.1829 12.7928 32.2273C12.8356 32.2837 12.8916 32.3494 12.9596 32.4176C13.0445 32.5028 13.1581 32.6019 13.2995 32.6912C13.9978 33.1702 14.6441 33.4513 15.5886 33.9302C15.5911 33.9313 15.5931 33.9331 15.5959 33.9341C16.7949 34.5262 18.1803 34.8806 19.5899 34.7711C20.5143 34.6858 21.3875 34.4844 22.1563 34.2571C22.374 34.1683 22.5509 34.0927 22.7218 33.9945C22.958 33.8587 23.0969 33.7257 23.1952 33.6082C23.0829 33.7115 22.921 33.8123 22.6758 33.8912C22.4992 33.948 22.3152 33.9836 22.0939 34.0214C21.3186 34.1662 20.4566 34.2733 19.5662 34.2728C18.2631 34.2956 17.0055 33.8998 15.9219 33.3064L15.9292 33.3103C15.0799 32.8075 14.3015 32.4027 13.7367 32.0339C13.7309 32.0299 13.7252 32.0262 13.7191 32.0228C13.6245 31.9695 13.536 31.9071 13.4552 31.8486C13.3912 31.8022 13.3367 31.7617 13.2806 31.7232C13.2386 31.6944 13.196 31.667 13.153 31.6412C13.0224 31.563 12.8965 31.5049 12.7742 31.4633C12.5747 31.3954 12.444 31.3887 12.3456 31.3689Z" fill="#B50D0D"/>
<path id="path-1-5" d="M14.891 31.1305C15.2002 31.2514 15.6988 31.5798 16.5116 31.9192C16.7287 32.0099 16.9808 32.1014 17.2559 32.1684C17.3011 32.1795 17.3484 32.1902 17.3975 32.2003C17.6536 32.2531 17.9811 32.2951 18.3513 32.2743C20.2858 32.2364 23.1514 31.9244 25.8328 30.5161C25.8364 30.5147 25.8396 30.5126 25.8428 30.5105C26.3634 30.2087 26.8173 29.8148 27.2757 29.3701L26.8016 28.8895C26.2235 29.5451 25.5794 30.198 24.9536 30.8696C24.4948 31.2935 23.967 31.6451 23.4418 31.9607C21.6944 32.8706 19.8414 33.2312 18.1785 33.1912C17.9816 33.221 17.8202 33.2362 17.7193 33.237C17.8167 33.2596 17.9742 33.3061 18.1708 33.3562C19.8571 33.4532 21.7657 33.1529 23.6032 32.2722C24.1724 31.9996 24.7722 31.6767 25.311 31.255C25.314 31.253 25.317 31.2503 25.3195 31.2476C25.3225 31.245 25.3248 31.2423 25.3275 31.2397C25.9956 30.6048 26.6601 30.005 27.2975 29.3487C27.3355 29.3095 27.3736 29.27 27.4059 29.2259C27.4382 29.1819 27.4647 29.133 27.4794 29.0804C27.4942 29.0278 27.4968 28.9716 27.4846 28.9183C27.4724 28.865 27.4451 28.8153 27.4064 28.7767C27.3676 28.7382 27.3177 28.7112 27.2645 28.6988C27.2114 28.6863 27.1552 28.6883 27.1022 28.7015C26.9961 28.7278 26.9072 28.798 26.8233 28.868C26.3409 29.2706 25.9211 29.5885 25.4642 29.8322L25.4742 29.8265C22.9391 31.1317 20.2067 31.4408 18.327 31.5173C18.3205 31.5176 18.3141 31.5177 18.3076 31.5184C18.0101 31.5501 17.7342 31.5358 17.5051 31.5129C17.4621 31.5086 17.4202 31.5039 17.3797 31.4991C17.1351 31.4698 16.8886 31.4276 16.6694 31.3883C15.8438 31.2404 15.2212 31.1647 14.891 31.1305Z" fill="#B50D0D"/>
<path id="path-1-13" d="M11.5523 27.0004C11.6089 27.0958 11.655 27.2263 11.7233 27.4161C11.7667 27.5367 11.8227 27.6902 11.8982 27.8401C11.9632 27.9692 12.0507 28.1123 12.1734 28.2459C12.2312 28.3088 12.2976 28.3706 12.3739 28.4276C12.4411 28.4779 12.5213 28.5286 12.6152 28.5744L12.5867 28.5611C13.055 28.8173 13.6035 29.0322 14.2712 29.2185C14.819 29.3713 15.3669 29.4843 15.9748 29.6068C15.9799 29.6077 15.9852 29.6093 15.9905 29.6102C17.1007 29.8112 18.2292 29.8155 19.381 29.7014C20.4896 29.5915 21.5873 29.3756 22.6606 29.1474C24.0606 28.8117 25.2994 28.1851 26.3378 27.5128L26.3279 27.5184C26.7937 27.2511 27.1907 26.9347 27.5135 26.6475C27.9346 26.2726 28.3463 25.8362 28.5473 25.6276C28.317 25.8317 27.8879 26.1985 27.4177 26.5262C27.0663 26.771 26.6498 27.025 26.1809 27.2233C26.179 27.224 26.1772 27.2248 26.176 27.2261C26.1742 27.2268 26.173 27.2281 26.1712 27.2289C25.093 27.7978 23.8628 28.284 22.534 28.4943C21.455 28.6704 20.3849 28.8312 19.3174 28.8931C18.2176 28.9569 17.1806 28.9116 16.1845 28.7018C15.5594 28.5375 15.0813 28.4177 14.5512 28.257C13.927 28.0677 13.4546 27.8857 13.0292 27.6892C13.0247 27.6869 13.0198 27.6847 13.0152 27.6819C13.0107 27.6797 13.0057 27.6775 13.0007 27.6759C12.9518 27.6605 12.906 27.6435 12.8631 27.6266C12.814 27.6072 12.7648 27.5865 12.7133 27.5633C12.6003 27.5123 12.492 27.4563 12.3726 27.393C12.2241 27.3142 12.1119 27.2533 11.9763 27.1872C11.7971 27.0998 11.6449 27.0418 11.5523 27.0004Z" fill="#B50D0D"/>
</g>
<g id="g8262">
<path id="path23125" d="M19.1425 9.97061C19.0079 9.97924 18.8702 9.98889 18.7302 9.99982C14.2481 10.3479 13.502 11.148 11.9147 11.3488C10.3274 11.5496 8.30068 13.3484 8.30068 13.3484L9.10131 17.4951C9.08539 17.5524 8.78509 19.1683 8.62361 20.8993C8.62361 20.8993 8.65262 20.9254 8.70989 20.9697C8.73867 20.992 8.77461 21.0189 8.81738 21.0495C8.86016 21.08 8.90965 21.1141 8.96608 21.151C9.02249 21.1879 9.08584 21.2275 9.15566 21.2688C9.19059 21.2894 9.22702 21.3105 9.26522 21.3319C9.30345 21.3534 9.34347 21.3751 9.38493 21.397C9.42638 21.4189 9.46952 21.441 9.5142 21.4631C9.55891 21.4853 9.60512 21.5076 9.653 21.5298C9.70089 21.5521 9.75024 21.5745 9.80128 21.5965C9.85229 21.6186 9.9048 21.6402 9.95894 21.6618C10.0131 21.6834 10.0688 21.7047 10.126 21.7257C10.1832 21.7466 10.2422 21.7671 10.3024 21.787C10.3627 21.807 10.4243 21.8265 10.4876 21.8454C10.5509 21.8642 10.6158 21.8826 10.682 21.9001C10.7483 21.9175 10.8159 21.934 10.8851 21.9498C10.9543 21.9656 11.025 21.9805 11.0971 21.9945C11.1691 22.0084 11.2427 22.0215 11.3176 22.0334C11.3926 22.0452 11.4689 22.0559 11.5467 22.0653C11.6244 22.0748 11.7036 22.0829 11.7842 22.0898C11.8648 22.0967 11.9466 22.1022 12.0299 22.1063C12.1132 22.1103 12.1979 22.1128 12.284 22.1138C12.37 22.1149 12.4574 22.1143 12.5462 22.112C12.6349 22.1098 12.725 22.1056 12.8164 22.1001C12.9078 22.0942 13.0006 22.0865 13.0946 22.0766C13.1886 22.0672 13.2838 22.0555 13.3804 22.0418C13.477 22.0282 13.5748 22.0125 13.6739 21.9946C13.6924 21.991 13.7049 21.9896 13.7116 21.9898C13.7147 21.9899 13.7173 21.9914 13.7173 21.9914C13.7178 21.9926 13.7169 21.9933 13.715 21.9953C13.7108 21.9986 13.701 22.0038 13.6864 22.0104C13.6717 22.0169 13.6521 22.0251 13.6278 22.0345C13.5793 22.0533 13.5122 22.0775 13.4296 22.1064C13.347 22.1354 13.2488 22.169 13.1379 22.2063C12.916 22.2809 12.6435 22.3703 12.343 22.4677C12.0426 22.5651 11.7142 22.6703 11.3814 22.7765C11.0425 22.8845 10.7548 22.9747 10.4307 23.077C10.4675 23.0983 10.5048 23.1193 10.5431 23.14C10.5871 23.1639 10.6317 23.1876 10.6776 23.2106C10.7235 23.2337 10.7706 23.2562 10.8184 23.2783C10.8663 23.3004 10.9148 23.3221 10.9646 23.3432C11.0144 23.3642 11.0653 23.3846 11.1171 23.4046C11.1688 23.4246 11.2216 23.444 11.2754 23.4628C11.3292 23.4817 11.3841 23.5001 11.44 23.5177C11.4959 23.5352 11.553 23.5519 11.611 23.5682C11.6691 23.5843 11.7281 23.5999 11.7882 23.6147C11.8484 23.6295 11.9095 23.6436 11.9719 23.6569C12.0342 23.6702 12.0979 23.6826 12.1625 23.6942C12.227 23.7059 12.2926 23.717 12.3595 23.727C12.4263 23.737 12.494 23.7459 12.5631 23.7541C12.6322 23.7623 12.7028 23.7699 12.7743 23.7762C12.8457 23.7826 12.918 23.788 12.9918 23.7925C13.0656 23.7969 13.1408 23.8005 13.217 23.8029C13.2932 23.8053 13.3705 23.8064 13.4491 23.8068C13.5277 23.807 13.6073 23.8062 13.6884 23.8044C13.7695 23.8026 13.8518 23.7995 13.9354 23.7959C14.019 23.7915 14.1042 23.7862 14.1903 23.7799C14.2764 23.7735 14.3636 23.7657 14.4523 23.7569C14.541 23.7478 14.6312 23.7378 14.7225 23.7264C14.8138 23.7146 14.9061 23.7019 15.0001 23.6879C15.094 23.6739 15.1895 23.6587 15.2861 23.6419C15.3827 23.6252 15.4806 23.6069 15.58 23.5874C15.6793 23.5679 15.7802 23.547 15.8823 23.5246C15.9844 23.5022 16.0876 23.4784 16.1924 23.4531C16.2973 23.4278 16.4038 23.4009 16.5115 23.3725C16.6193 23.3442 16.7282 23.3143 16.8387 23.2828C16.9493 23.2513 17.0614 23.218 17.1748 23.1833C17.2883 23.1486 17.3972 23.1165 17.5016 23.0869C17.606 23.0572 17.7061 23.03 17.8017 23.0052C17.8973 22.9804 17.9883 22.9579 18.0753 22.9379C18.1622 22.9178 18.2451 22.9002 18.3237 22.8847C18.4023 22.8692 18.4766 22.8558 18.5471 22.8447C18.6175 22.8337 18.6841 22.8246 18.7466 22.8179C18.778 22.8147 18.8083 22.8117 18.8376 22.8093C18.867 22.8069 18.8953 22.8054 18.9227 22.8041C18.9501 22.8029 18.9768 22.8021 19.0024 22.8018C19.0279 22.8016 19.0526 22.8019 19.0764 22.8024C19.1001 22.8028 19.123 22.8046 19.1449 22.8061C19.1669 22.8079 19.1877 22.8099 19.2078 22.8126C19.2279 22.8151 19.2472 22.8183 19.2656 22.8219C19.2839 22.8258 19.3013 22.8296 19.3179 22.8341C19.3346 22.8388 19.3506 22.8434 19.3654 22.8488C19.3804 22.8543 19.3943 22.8604 19.4075 22.8667C19.4208 22.873 19.4334 22.8795 19.445 22.8867C19.4566 22.8939 19.4674 22.9016 19.4774 22.9096C19.4873 22.9176 19.4964 22.9261 19.5048 22.935C19.5132 22.9439 19.5212 22.9535 19.528 22.9632C19.5348 22.9729 19.5407 22.9828 19.546 22.9933C19.5516 23.0038 19.5559 23.0147 19.5597 23.026C19.5635 23.0373 19.5668 23.0491 19.5691 23.0611C19.5717 23.0732 19.5731 23.0854 19.5738 23.0982C19.5742 23.1038 19.5742 23.1101 19.5743 23.1161C19.6 23.1138 19.6256 23.1116 19.6512 23.1095C19.6919 23.1073 19.7327 23.1053 19.7734 23.1034C19.773 23.0991 19.7723 23.0947 19.772 23.0904C19.7714 23.0776 19.7717 23.0647 19.7722 23.0524C19.7734 23.0402 19.7752 23.0283 19.7773 23.0167C19.7798 23.0051 19.783 22.994 19.7871 22.9829C19.7914 22.9719 19.7959 22.9609 19.8015 22.9505C19.8072 22.94 19.8139 22.9301 19.8212 22.9203C19.8285 22.9105 19.8362 22.9007 19.8452 22.8915C19.8541 22.8823 19.8639 22.8734 19.8746 22.8649C19.8852 22.8564 19.8969 22.8481 19.9093 22.8402C19.9217 22.8323 19.9351 22.8249 19.9493 22.8177C19.9635 22.8106 19.9787 22.8039 19.9947 22.7974C20.0107 22.7908 20.0274 22.7845 20.0452 22.7788C20.0629 22.7727 20.0817 22.7679 20.1014 22.7628C20.1407 22.7527 20.1838 22.744 20.2307 22.7369C20.2776 22.7297 20.3281 22.7242 20.3829 22.7202C20.4377 22.7163 20.4967 22.7138 20.5596 22.7133C20.6226 22.7126 20.6897 22.7132 20.761 22.7156C20.8323 22.7182 20.9078 22.7222 20.9877 22.7282C21.0676 22.7342 21.1515 22.742 21.2403 22.7515C21.329 22.761 21.4227 22.7723 21.5205 22.7854C21.6184 22.7986 21.721 22.8136 21.8282 22.8305C21.9354 22.8474 22.0471 22.8665 22.1639 22.8873C22.2808 22.9081 22.3957 22.9272 22.5092 22.9452C22.6228 22.9632 22.735 22.9797 22.8454 22.995C22.9558 23.0102 23.0644 23.0242 23.1716 23.0367C23.2788 23.0492 23.3846 23.0607 23.4887 23.0706C23.5927 23.0806 23.695 23.0892 23.796 23.0967C23.8971 23.1042 23.9966 23.1105 24.0946 23.1155C24.1926 23.1205 24.2891 23.1242 24.3841 23.1268C24.4791 23.1295 24.5724 23.131 24.6645 23.1314C24.7566 23.1315 24.8475 23.1311 24.9367 23.1293C25.0259 23.1277 25.1138 23.1242 25.2002 23.1207C25.2865 23.1167 25.3713 23.1122 25.4549 23.1059C25.5384 23.1002 25.6206 23.0934 25.7014 23.0854C25.7822 23.0774 25.8617 23.0685 25.9398 23.0588C26.0179 23.0491 26.0945 23.0381 26.17 23.0265C26.2454 23.0149 26.3198 23.0023 26.3926 22.9891C26.4655 22.9757 26.5369 22.9617 26.6072 22.9468C26.6774 22.9319 26.7464 22.916 26.8141 22.8995C26.8819 22.883 26.9483 22.8656 27.0136 22.8476C27.0788 22.8296 27.1427 22.811 27.2055 22.7917C27.2684 22.7723 27.3301 22.7524 27.3906 22.7317C27.451 22.711 27.51 22.6896 27.5681 22.6677C27.6262 22.6458 27.6832 22.623 27.7389 22.5999C27.7947 22.5768 27.8494 22.5531 27.9029 22.5289C27.9564 22.5047 28.009 22.4801 28.0603 22.455C28.1116 22.4298 28.1616 22.4042 28.2108 22.3781C28.26 22.352 28.308 22.3252 28.355 22.2983C28.4021 22.2713 28.4482 22.244 28.4932 22.2163C28.5382 22.1886 28.5819 22.1606 28.6249 22.1322C28.6678 22.1038 28.7096 22.0746 28.7505 22.0456C28.7914 22.0166 28.8315 21.9876 28.8705 21.958C28.9095 21.9285 28.9475 21.8988 28.9846 21.8689C29.0217 21.8389 29.058 21.8087 29.0932 21.7783C29.1285 21.748 29.1628 21.7176 29.1963 21.687C29.2297 21.6564 29.2622 21.6252 29.2939 21.5943C29.3256 21.5635 29.3566 21.5326 29.3866 21.5017C29.4166 21.4708 29.4456 21.4398 29.4739 21.4088C29.5305 21.3468 29.584 21.2848 29.6343 21.2231C29.6846 21.1614 29.7319 21.0998 29.7761 21.039C29.8203 20.9783 29.8615 20.9184 29.9001 20.8591C29.9386 20.7999 29.9746 20.7414 30.0078 20.6844C30.0411 20.6274 30.0716 20.5715 30.0999 20.5173C30.1282 20.4631 30.154 20.4107 30.1777 20.36C30.2014 20.3092 30.2229 20.2604 30.2423 20.2138C30.2618 20.1672 30.2795 20.1227 30.2951 20.0808C30.3107 20.039 30.3242 19.9996 30.3363 19.9631C30.3484 19.9266 30.3587 19.8932 30.3676 19.8627C30.3855 19.8019 30.3978 19.7537 30.4054 19.7207C30.4129 19.6877 30.4157 19.6698 30.4157 19.6698C30.0623 17.8193 29.5186 16.3263 29.4948 16.2687L29.7918 12.0561L25.9638 10.5049C24.9906 10.4806 23.321 9.70448 19.1424 9.97245L19.1425 9.97061Z" fill="#DF730E"/>
<path id="path2056-3" d="M30.416 19.6679C30.416 19.6679 30.4125 19.6858 30.4054 19.7188C30.3979 19.7518 30.3856 19.8002 30.3677 19.8611C30.3587 19.8916 30.3484 19.9251 30.3364 19.9615C30.3243 19.998 30.3105 20.0374 30.2949 20.0793C30.2793 20.1211 30.2618 20.1656 30.2424 20.2122C30.2229 20.2588 30.2015 20.3074 30.1778 20.3581C30.1541 20.4088 30.1283 20.4615 30.0999 20.5157C30.0716 20.5699 30.0411 20.6258 30.0079 20.6828C29.9746 20.7399 29.9387 20.7983 29.9001 20.8575C29.8616 20.9168 29.8201 20.9767 29.7759 21.0375C29.7317 21.0983 29.6846 21.1598 29.6344 21.2215C29.5841 21.2832 29.5306 21.3452 29.4739 21.4072C29.4456 21.4383 29.4166 21.4692 29.3866 21.5001C29.3566 21.531 29.3257 21.5619 29.294 21.5927C29.2623 21.6236 29.2298 21.6548 29.1963 21.6854C29.1629 21.7161 29.1285 21.7464 29.0933 21.7767C29.058 21.8071 29.0217 21.8373 28.9846 21.8673C28.9475 21.8972 28.9096 21.9269 28.8706 21.9564C28.8315 21.986 28.7915 22.015 28.7505 22.044C28.7096 22.0731 28.6678 22.1022 28.6249 22.1306C28.582 22.159 28.5379 22.1869 28.493 22.2147C28.448 22.2424 28.4021 22.2697 28.355 22.2967C28.308 22.3236 28.26 22.3501 28.2108 22.3762C28.1617 22.4023 28.1114 22.4282 28.0601 22.4534C28.0088 22.4786 27.9562 22.5032 27.9027 22.5273C27.8491 22.5516 27.7945 22.5752 27.7387 22.5983C27.6829 22.6214 27.6262 22.6442 27.5681 22.6661C27.5101 22.688 27.451 22.7094 27.3906 22.7301C27.3302 22.7508 27.2684 22.7707 27.2056 22.7901C27.1428 22.8095 27.0789 22.828 27.0136 22.846C26.9484 22.864 26.8819 22.8814 26.8142 22.8979C26.7465 22.9144 26.6775 22.9303 26.6072 22.9452C26.537 22.9602 26.4655 22.9742 26.3927 22.9875C26.3198 23.0008 26.2455 23.0133 26.17 23.0249C26.0946 23.0365 26.0179 23.0474 25.9398 23.0572C25.8617 23.0669 25.7823 23.0759 25.7015 23.0838C25.6207 23.0918 25.5385 23.0986 25.4549 23.1043C25.3713 23.1099 25.2866 23.1148 25.2002 23.119C25.1139 23.123 25.026 23.1257 24.9368 23.1279C24.8476 23.1295 24.7567 23.1304 24.6646 23.13C24.5725 23.1293 24.4792 23.1281 24.3842 23.1254C24.2891 23.1228 24.1927 23.1191 24.0947 23.1141C23.9967 23.1091 23.8971 23.1028 23.7961 23.0953C23.6951 23.0878 23.5928 23.0792 23.4887 23.0692C23.3846 23.0592 23.2789 23.0478 23.1717 23.0353C23.0745 23.024 22.9758 23.0112 22.8761 22.9976C22.8385 22.9888 22.8008 22.9802 22.763 22.9718C22.6855 22.9551 22.6077 22.9392 22.5296 22.9242C22.4516 22.909 22.3732 22.8947 22.2946 22.8811C22.216 22.8677 22.1371 22.855 22.0579 22.8432C22.0035 22.8352 21.9489 22.8277 21.8942 22.8205C21.8944 22.8271 21.8943 22.8336 21.8947 22.8402C21.8726 22.8366 21.8499 22.8326 21.8282 22.8292C21.721 22.8123 21.6186 22.7973 21.5208 22.7841C21.4229 22.7709 21.3293 22.7594 21.2405 22.7499C21.1518 22.7404 21.0679 22.7328 20.988 22.7269C20.9081 22.7209 20.8323 22.7168 20.761 22.7143C20.6897 22.7118 20.6226 22.7111 20.5596 22.7119C20.4967 22.7126 20.438 22.7149 20.3832 22.7188C20.3283 22.7227 20.2777 22.7289 20.2307 22.7358C20.1838 22.743 20.141 22.7517 20.1017 22.7617C20.0821 22.7666 20.0633 22.7718 20.0455 22.7777C20.0277 22.7837 20.0107 22.7899 19.9947 22.7963C19.9787 22.8029 19.9638 22.8095 19.9496 22.8166C19.9354 22.8238 19.9221 22.8313 19.9097 22.8391C19.8973 22.847 19.8856 22.8553 19.8749 22.8638C19.8642 22.8723 19.8545 22.8812 19.8455 22.8904C19.8366 22.8996 19.8286 22.9091 19.8213 22.9189C19.814 22.9287 19.8076 22.9389 19.8019 22.9494C19.7963 22.9598 19.7915 22.9708 19.7874 22.9818C19.7831 22.9929 19.7802 23.0039 19.7778 23.0156C19.7753 23.0272 19.7735 23.0391 19.7727 23.0513C19.7715 23.0636 19.7717 23.0765 19.7724 23.0893C19.7727 23.0936 19.7734 23.098 19.7738 23.1023C19.8148 23.1001 19.8557 23.098 19.8967 23.0962C19.9783 23.0925 20.06 23.0901 20.1415 23.0881C20.2232 23.0863 20.3047 23.0853 20.3863 23.085C20.4678 23.0845 20.5492 23.0853 20.6306 23.0865C20.712 23.0879 20.7933 23.0896 20.8745 23.0924C20.9557 23.0952 21.0367 23.0986 21.1176 23.1029C21.1985 23.1072 21.2793 23.1121 21.3599 23.1179C21.4405 23.1238 21.5209 23.1306 21.6011 23.138C21.6813 23.1453 21.7613 23.1534 21.8411 23.1623C21.8552 23.164 21.8692 23.1656 21.8833 23.1673C21.8824 23.1736 21.8821 23.1797 21.8813 23.1859C21.8787 23.2061 21.8763 23.2259 21.8734 23.2458C21.8709 23.2656 21.8675 23.2856 21.8642 23.3052C21.861 23.3249 21.8574 23.3443 21.8535 23.3636C21.8496 23.383 21.8457 23.4024 21.8413 23.4215C21.8369 23.4407 21.8323 23.4596 21.8275 23.4784C21.8223 23.4973 21.8177 23.516 21.8124 23.5346C21.8071 23.5532 21.8016 23.5717 21.7959 23.59C21.7902 23.6084 21.7842 23.6266 21.778 23.6447C21.7719 23.6627 21.7656 23.6807 21.759 23.6986C21.7524 23.7164 21.7455 23.7339 21.7385 23.7514C21.7315 23.769 21.7242 23.7865 21.7168 23.8038C21.7094 23.821 21.7016 23.8381 21.6937 23.8551C21.6858 23.8721 21.6779 23.8887 21.6696 23.9054C21.6614 23.922 21.6528 23.9387 21.6442 23.9551C21.6356 23.9715 21.6268 23.9877 21.6178 24.0039C21.6088 24.02 21.5994 24.0361 21.59 24.0519C21.5807 24.0677 21.571 24.0833 21.5613 24.0988C21.5515 24.1143 21.5418 24.1297 21.5317 24.145C21.5216 24.1602 21.5111 24.1752 21.5007 24.1901C21.4903 24.205 21.4798 24.22 21.469 24.2347C21.4583 24.2493 21.4473 24.2637 21.4362 24.278C21.4251 24.2923 21.4139 24.3064 21.4025 24.3204C21.3911 24.3344 21.3796 24.3481 21.3679 24.3619C21.3562 24.3756 21.3443 24.3891 21.3324 24.4025C21.3204 24.4159 21.3083 24.4293 21.296 24.4424C21.2837 24.4554 21.2713 24.4687 21.2587 24.4815C21.2462 24.4942 21.2336 24.5067 21.2208 24.5192C21.208 24.5316 21.195 24.5435 21.182 24.5556C21.169 24.5677 21.1557 24.5799 21.1423 24.5917C21.129 24.6034 21.1155 24.6151 21.102 24.6265C21.0884 24.638 21.0748 24.6492 21.061 24.6602C21.0473 24.6713 21.0334 24.6824 21.0195 24.6932C21.0055 24.7039 20.9915 24.7146 20.9774 24.725C20.9632 24.7354 20.9489 24.7457 20.9346 24.7558C20.9202 24.7658 20.906 24.7757 20.8914 24.7854C20.8769 24.7952 20.8622 24.8047 20.8474 24.814C20.8327 24.8234 20.8177 24.8325 20.8028 24.8415C20.7879 24.8506 20.7729 24.8596 20.7578 24.8682C20.7427 24.8769 20.7276 24.8853 20.7124 24.8936C20.6972 24.9019 20.682 24.9099 20.6668 24.9178C20.6514 24.9258 20.636 24.9337 20.6204 24.9413C20.6049 24.9488 20.5896 24.9561 20.5741 24.9633C20.5585 24.9705 20.5427 24.9777 20.5271 24.9846C20.5114 24.9911 20.4955 24.998 20.4797 25.0044C20.4639 25.011 20.4482 25.0171 20.4323 25.0232C20.4164 25.0292 20.4005 25.0352 20.3846 25.0409C20.3686 25.0469 20.3527 25.0521 20.3367 25.0575C20.3207 25.0628 20.3046 25.0677 20.2885 25.0726C20.2724 25.0773 20.2564 25.0824 20.2403 25.087C20.2241 25.0917 20.2078 25.0958 20.1917 25.1C20.1755 25.1041 20.1595 25.1075 20.1433 25.1115C20.127 25.115 20.1108 25.1191 20.0945 25.1222C20.0783 25.1257 20.0622 25.1286 20.046 25.1316C20.0297 25.1345 20.0134 25.1373 19.9971 25.1396C19.9809 25.1418 19.9646 25.1446 19.9484 25.1469C19.9322 25.1491 19.9158 25.1507 19.8996 25.1523C19.8834 25.1539 19.8672 25.1555 19.8511 25.1565C19.8349 25.1578 19.8188 25.1588 19.8027 25.1597C19.7866 25.1605 19.7702 25.1615 19.754 25.162C19.7378 25.1626 19.7217 25.1627 19.7055 25.1631C19.6892 25.1634 19.673 25.1632 19.6567 25.1635C19.6404 25.1633 19.624 25.163 19.6076 25.1627C19.5912 25.1625 19.575 25.1616 19.5586 25.1607C19.5423 25.1598 19.5258 25.1589 19.5094 25.158C19.493 25.1571 19.4765 25.1556 19.46 25.1543C19.4436 25.1528 19.4273 25.1513 19.4109 25.1495C19.3945 25.148 19.3781 25.1458 19.3617 25.1435C19.3453 25.1414 19.3289 25.1392 19.3125 25.1367C19.2961 25.1346 19.2796 25.1316 19.2632 25.1288C19.2469 25.126 19.2305 25.1232 19.2142 25.12C19.1978 25.1166 19.1816 25.1136 19.1653 25.1101C19.149 25.1067 19.1326 25.1029 19.1164 25.0991C19.1002 25.0951 19.0841 25.0914 19.0679 25.0873C19.0518 25.0832 19.0355 25.0787 19.0195 25.0742C19.0034 25.0696 18.9872 25.065 18.9712 25.0602C18.9551 25.0555 18.9393 25.0504 18.9234 25.0452C18.9075 25.0399 18.8914 25.0346 18.8756 25.029C18.8597 25.0235 18.8439 25.0177 18.8282 25.0118C18.8125 25.0059 18.797 24.9996 18.7814 24.9934C18.7657 24.9872 18.7499 24.9807 18.7345 24.9742C18.7189 24.9676 18.7037 24.961 18.6883 24.9541C18.673 24.9471 18.6576 24.9401 18.6424 24.9328C18.6272 24.9256 18.6123 24.9181 18.5972 24.9104C18.5822 24.9028 18.567 24.8952 18.552 24.8872C18.5371 24.8792 18.5225 24.8706 18.5079 24.8623C18.4931 24.8539 18.4782 24.8454 18.4636 24.8367C18.4491 24.8281 18.4351 24.8191 18.4207 24.81C18.4064 24.8009 18.3917 24.7919 18.3775 24.7825C18.3634 24.7731 18.3495 24.7636 18.3356 24.7538C18.3216 24.744 18.3079 24.734 18.2942 24.7239C18.2804 24.7138 18.2667 24.7034 18.2532 24.6929C18.2397 24.6824 18.2263 24.6718 18.2131 24.661C18.1998 24.6501 18.1862 24.639 18.1731 24.6277C18.1601 24.6165 18.1473 24.6051 18.1345 24.5935C18.1217 24.5819 18.1092 24.5703 18.0966 24.5584C18.0841 24.5464 18.0716 24.5341 18.0592 24.5218C18.047 24.5095 18.0349 24.4971 18.0229 24.4844C18.011 24.4717 17.9991 24.4588 17.9874 24.4458C17.9758 24.4327 17.9643 24.4194 17.9529 24.406C17.9415 24.3925 17.9303 24.3791 17.9192 24.3653C17.9081 24.3516 17.8973 24.3377 17.8866 24.3235C17.8758 24.3093 17.8651 24.2947 17.8546 24.2802C17.8442 24.2657 17.8339 24.251 17.8238 24.236C17.8137 24.2211 17.8037 24.2062 17.794 24.1909C17.7843 24.1757 17.7747 24.1601 17.7653 24.1444C17.7559 24.1287 17.7466 24.113 17.7376 24.097C17.7286 24.081 17.7199 24.0647 17.7112 24.0483C17.7026 24.0319 17.6939 24.0152 17.6856 23.9985C17.6773 23.9817 17.6692 23.9647 17.6614 23.9476C17.6534 23.9304 17.6459 23.9129 17.6384 23.8954C17.6309 23.8779 17.6236 23.8602 17.6165 23.8423C17.6092 23.8244 17.6026 23.8063 17.5959 23.788C17.5892 23.7697 17.5829 23.7509 17.5767 23.7323C17.5706 23.7136 17.5643 23.6947 17.5585 23.6756C17.5529 23.6565 17.547 23.6375 17.5416 23.618C17.5361 23.5985 17.5313 23.5788 17.5264 23.5589C17.5214 23.5391 17.5166 23.5189 17.5121 23.4987C17.5078 23.4784 17.5034 23.4581 17.4995 23.4375C17.4986 23.4325 17.4976 23.4272 17.4967 23.422C17.5175 23.417 17.5383 23.4121 17.5592 23.4074C17.7858 23.3554 18.0151 23.3096 18.2465 23.27C18.4779 23.2304 18.7113 23.1971 18.9459 23.1701C19.1548 23.1468 19.3646 23.1284 19.5748 23.1152C19.5747 23.1096 19.5747 23.1033 19.5743 23.0977C19.5734 23.0849 19.5716 23.0727 19.5696 23.0606C19.567 23.0486 19.5644 23.037 19.5605 23.0257C19.5567 23.0144 19.5518 23.0034 19.5465 22.9928C19.5409 22.9823 19.5354 22.9724 19.5285 22.9626C19.5217 22.9529 19.5141 22.9436 19.5057 22.9347C19.4972 22.9258 19.4879 22.9173 19.4779 22.9093C19.4679 22.9013 19.4571 22.8933 19.4455 22.8862C19.4339 22.879 19.4213 22.8727 19.408 22.8663C19.3948 22.86 19.3809 22.854 19.366 22.8485C19.351 22.8431 19.3354 22.838 19.3188 22.8335C19.3021 22.8289 19.2845 22.8249 19.2661 22.8213C19.2478 22.8174 19.2286 22.8146 19.2084 22.8119C19.1883 22.8094 19.1674 22.8071 19.1455 22.8054C19.1236 22.8036 19.101 22.8025 19.0772 22.8017C19.0535 22.8013 19.0288 22.8009 19.0032 22.8012C18.9777 22.8015 18.951 22.8024 18.9236 22.8035C18.8961 22.8048 18.8675 22.8063 18.8382 22.8086C18.8088 22.8109 18.7785 22.8141 18.7472 22.8172C18.6846 22.8241 18.6181 22.8327 18.5476 22.8438C18.4771 22.8548 18.4029 22.8682 18.3243 22.8837C18.2457 22.8992 18.1631 22.917 18.0761 22.9372C17.9891 22.9573 17.8978 22.9793 17.8022 23.0042C17.7067 23.029 17.6068 23.0562 17.5024 23.0858C17.4883 23.0898 17.4735 23.0944 17.4592 23.0985C17.4589 23.0905 17.4586 23.0825 17.4583 23.0746L17.4571 23.0752C17.2582 23.1252 17.0616 23.1803 16.8677 23.2404C16.707 23.291 16.5483 23.3451 16.3917 23.4025C16.325 23.4195 16.2585 23.4363 16.193 23.4522C16.0881 23.4775 15.9846 23.5012 15.8825 23.5236C15.7804 23.546 15.6796 23.5673 15.5802 23.5868C15.4809 23.6063 15.383 23.6245 15.2863 23.6413C15.1897 23.658 15.0945 23.6731 15.0006 23.6872C14.9066 23.7013 14.8141 23.714 14.7228 23.7255C14.6315 23.7372 14.5415 23.7471 14.4528 23.756C14.3641 23.7651 14.2767 23.7732 14.1906 23.7796C14.1044 23.786 14.0192 23.7912 13.9356 23.7955C13.8521 23.7999 13.77 23.8024 13.6889 23.8039C13.6078 23.8057 13.528 23.8067 13.4494 23.8064C13.3708 23.8061 13.2935 23.8046 13.2173 23.8022C13.1411 23.7998 13.0661 23.7965 12.9923 23.792C12.9185 23.7876 12.846 23.782 12.7745 23.7756C12.7031 23.7692 12.6327 23.7616 12.5636 23.7534C12.4945 23.7452 12.4265 23.7364 12.3597 23.7263C12.2929 23.7164 12.2273 23.7053 12.1627 23.6936C12.0981 23.6819 12.0345 23.6697 11.9721 23.6565C11.9098 23.6433 11.8486 23.6291 11.7885 23.6143C11.7283 23.5994 11.6693 23.584 11.6113 23.5678C11.5533 23.5516 11.4962 23.5345 11.4402 23.5169C11.3843 23.4994 11.3298 23.481 11.2759 23.4621C11.2221 23.4433 11.1691 23.4238 11.1173 23.4038C11.0655 23.3838 11.0149 23.3635 10.9651 23.3424C10.9154 23.3214 10.8665 23.2997 10.8187 23.2776C10.7708 23.2555 10.724 23.2329 10.6781 23.2099C10.6323 23.1869 10.5873 23.1634 10.5433 23.1396C10.5056 23.1191 10.4687 23.0981 10.4324 23.0771C10.4195 23.081 10.4056 23.0857 10.3927 23.0898C10.0738 23.1905 9.77338 23.2849 9.51454 23.3662C8.99801 23.5284 8.64905 23.6373 8.64749 23.6377C8.99433 24.7643 10.0714 26.1464 11.865 27.2231C13.7788 28.4878 16.5034 29.3644 20.0299 29.0845C23.571 28.8035 26.1599 27.6826 27.8962 26.2754C29.9042 24.786 30.7856 22.9678 30.6777 21.5677C30.6279 20.9213 30.532 20.2753 30.416 19.6679Z" fill="#F5CCB4"/>
</g>
<g id="g8249">
<path id="path8020-6-6" d="M19.4044 18.2227C19.4044 18.2227 17.3317 21.7609 17.4606 23.1816C17.5895 24.6024 18.7669 25.217 19.8005 25.1609C20.8341 25.1049 21.9529 24.1895 21.8925 22.8113C21.8321 21.433 19.4044 18.2227 19.4044 18.2227Z" fill="#BA5C04"/>
<path id="path21311" d="M17.4566 23.0749C17.4568 23.0876 17.4569 23.1005 17.4576 23.1128C17.4586 23.136 17.46 23.1587 17.462 23.1809C17.464 23.2031 17.4666 23.225 17.4685 23.2469C17.4711 23.2687 17.4736 23.2903 17.4768 23.3117C17.4799 23.3331 17.4831 23.3543 17.4862 23.3753C17.49 23.3963 17.4938 23.4173 17.4976 23.438C17.5013 23.4586 17.5057 23.4789 17.5102 23.4991C17.5145 23.5194 17.5195 23.5395 17.5244 23.5594C17.5294 23.5792 17.5343 23.599 17.5397 23.6185C17.5452 23.6379 17.5508 23.657 17.5565 23.6761C17.5621 23.6952 17.5685 23.714 17.5748 23.7327C17.5809 23.7514 17.5873 23.7702 17.594 23.7885C17.6007 23.8068 17.6075 23.8249 17.6146 23.8428C17.6219 23.8608 17.629 23.8784 17.6365 23.8959C17.644 23.9135 17.6518 23.9309 17.6597 23.9481C17.6676 23.9652 17.6757 23.9823 17.6839 23.9991C17.6922 24.0159 17.7009 24.0324 17.7096 24.0488C17.7182 24.0653 17.7269 24.0814 17.7359 24.0975C17.7449 24.1135 17.7542 24.1293 17.7636 24.145C17.773 24.1606 17.7826 24.1762 17.7923 24.1915C17.8021 24.2068 17.812 24.2217 17.8221 24.2365C17.8322 24.2514 17.8425 24.2662 17.8529 24.2807C17.8634 24.2953 17.8741 24.3098 17.8849 24.324C17.8957 24.3382 17.9064 24.3521 17.9175 24.3658C17.9286 24.3796 17.9398 24.3931 17.9512 24.4065C17.9626 24.4199 17.974 24.4333 17.9857 24.4463C17.9973 24.4593 18.0092 24.4722 18.0212 24.4849C18.0331 24.4976 18.0453 24.51 18.0575 24.5223C18.0697 24.5347 18.0823 24.5469 18.0949 24.5589C18.1074 24.5708 18.1199 24.5825 18.1327 24.594C18.1455 24.6056 18.1583 24.617 18.1714 24.6282C18.1844 24.6394 18.1978 24.6507 18.2111 24.6616C18.2243 24.6724 18.2377 24.683 18.2512 24.6935C18.2647 24.704 18.2784 24.7143 18.2922 24.7245C18.3059 24.7346 18.3196 24.7446 18.3336 24.7544C18.3475 24.7642 18.3616 24.7737 18.3757 24.7831C18.3899 24.7925 18.4044 24.8016 18.4187 24.8106C18.4331 24.8197 18.4474 24.8286 18.4619 24.8373C18.4764 24.846 18.4911 24.8545 18.5059 24.8629C18.5206 24.8712 18.5354 24.8795 18.5503 24.8876C18.5652 24.8955 18.5802 24.9032 18.5952 24.9108C18.6103 24.9184 18.6255 24.9259 18.6407 24.9332C18.6558 24.9405 18.6712 24.9478 18.6866 24.9547C18.7019 24.9616 18.7172 24.9682 18.7327 24.9748C18.7482 24.9813 18.764 24.9877 18.7796 24.994C18.7952 25.0002 18.8107 25.0062 18.8265 25.0121C18.8422 25.018 18.858 25.0238 18.8738 25.0294C18.8896 25.0349 18.9057 25.0403 18.9217 25.0455C18.9376 25.0508 18.9534 25.0556 18.9694 25.0605C18.9855 25.0652 19.0016 25.0701 19.0177 25.0746C19.0338 25.0792 19.0501 25.0834 19.0662 25.0875C19.0824 25.0916 19.0983 25.0956 19.1146 25.0994C19.1308 25.1035 19.1472 25.107 19.1635 25.1104C19.1797 25.1138 19.196 25.1172 19.2123 25.1203C19.2287 25.1237 19.2451 25.1263 19.2614 25.1291C19.2778 25.1318 19.2943 25.1345 19.3107 25.137C19.3271 25.1398 19.3435 25.1417 19.3599 25.1438C19.3764 25.1459 19.3927 25.148 19.4091 25.1497C19.4255 25.1513 19.4418 25.1534 19.4582 25.1546C19.4746 25.1561 19.4911 25.157 19.5075 25.1583C19.524 25.1592 19.5404 25.1607 19.5568 25.161C19.5732 25.1619 19.5894 25.1621 19.6058 25.163C19.6221 25.1633 19.6386 25.1635 19.6549 25.1638C19.6712 25.1641 19.6875 25.1637 19.7037 25.1634C19.72 25.163 19.7362 25.1627 19.7524 25.1623C19.7687 25.1618 19.7847 25.1608 19.8009 25.16C19.817 25.1591 19.8333 25.158 19.8495 25.1567C19.8656 25.1555 19.8818 25.1542 19.898 25.1526C19.9143 25.151 19.9306 25.1487 19.9468 25.1471C19.9631 25.1449 19.9793 25.1427 19.9955 25.1398C20.0118 25.1376 20.0279 25.1347 20.0442 25.1319C20.0604 25.129 20.0767 25.1262 20.093 25.1225C20.1092 25.119 20.1252 25.1156 20.1414 25.1118C20.1577 25.1083 20.174 25.1042 20.1901 25.1002C20.2063 25.0961 20.2226 25.0918 20.2387 25.0872C20.2549 25.0825 20.2709 25.0778 20.287 25.0729C20.3031 25.0682 20.3191 25.063 20.3352 25.0577C20.3512 25.0524 20.3671 25.0469 20.383 25.0412C20.3989 25.0352 20.4149 25.0296 20.4307 25.0235C20.4466 25.0175 20.4624 25.0112 20.4782 25.0047C20.4939 24.9981 20.5098 24.9917 20.5255 24.9848C20.5413 24.9783 20.5569 24.9708 20.5725 24.9636C20.5881 24.9564 20.6034 24.9491 20.6188 24.9415C20.6343 24.934 20.6498 24.926 20.6652 24.9181C20.6805 24.9102 20.6957 24.9022 20.7109 24.8939C20.7261 24.8856 20.7412 24.8772 20.7562 24.8685C20.7713 24.8599 20.7864 24.8508 20.8013 24.8418C20.8161 24.8328 20.8309 24.8236 20.8457 24.8143C20.8604 24.8049 20.8752 24.7954 20.8897 24.7857C20.9042 24.776 20.9188 24.7661 20.9331 24.756C20.9475 24.746 20.9617 24.7357 20.9759 24.7253C20.99 24.7149 21.004 24.7042 21.018 24.6934C21.032 24.6827 21.0458 24.6716 21.0595 24.6605C21.0733 24.6494 21.0869 24.6382 21.1005 24.6268C21.114 24.6153 21.1275 24.6038 21.1408 24.592C21.1541 24.5802 21.1674 24.5682 21.1805 24.5561C21.1936 24.544 21.2065 24.5318 21.2193 24.5194C21.2321 24.507 21.2447 24.4945 21.2572 24.4817C21.2698 24.469 21.2822 24.456 21.2945 24.4429C21.3068 24.4299 21.3189 24.4164 21.3309 24.403C21.3429 24.3896 21.3547 24.3761 21.3664 24.3624C21.3781 24.3487 21.3896 24.335 21.401 24.3209C21.4124 24.3069 21.4236 24.2928 21.4347 24.2785C21.4458 24.2641 21.4568 24.2495 21.4675 24.2349C21.4783 24.2203 21.4888 24.2055 21.4992 24.1906C21.5096 24.1757 21.5201 24.1605 21.5302 24.1452C21.5403 24.13 21.55 24.1146 21.5598 24.0991C21.5695 24.0836 21.5791 24.068 21.5885 24.0522C21.5979 24.0363 21.6073 24.0203 21.6163 24.0042C21.6253 23.9881 21.634 23.9719 21.6427 23.9554C21.6513 23.939 21.6599 23.9223 21.6681 23.9056C21.6764 23.8889 21.6843 23.8723 21.6921 23.8554C21.7 23.8384 21.7078 23.8213 21.7153 23.804C21.7228 23.7868 21.73 23.7692 21.737 23.7517C21.744 23.7341 21.7509 23.7166 21.7575 23.6988C21.7641 23.681 21.7704 23.663 21.7765 23.6449C21.7827 23.6269 21.7887 23.6086 21.7944 23.5903C21.8001 23.5719 21.8056 23.5535 21.8109 23.5349C21.8161 23.5162 21.8211 23.4976 21.8259 23.4787C21.8311 23.4598 21.8355 23.4409 21.8398 23.4218C21.8443 23.4027 21.8481 23.3832 21.852 23.3639C21.8558 23.3445 21.8593 23.3251 21.8627 23.3055C21.8659 23.2859 21.8691 23.2659 21.8719 23.2461C21.8745 23.2262 21.8774 23.2063 21.8797 23.1862C21.8823 23.166 21.8843 23.1459 21.8862 23.1255C21.8881 23.1052 21.8893 23.0845 21.8908 23.0639C21.8921 23.0433 21.8933 23.0226 21.8938 23.0018C21.8944 22.9809 21.895 22.96 21.895 22.9389C21.895 22.9179 21.8949 22.8966 21.8943 22.8753C21.8938 22.8572 21.8933 22.8391 21.8929 22.8207C21.8679 22.8172 21.843 22.8138 21.818 22.8104C21.7382 22.8003 21.6581 22.791 21.5778 22.7825C21.4975 22.7738 21.417 22.7661 21.3364 22.7591C21.2558 22.7522 21.1751 22.7462 21.0942 22.7411C21.0132 22.7359 20.932 22.7316 20.8507 22.7281C20.7695 22.7245 20.6882 22.7218 20.6069 22.7199C20.5255 22.7181 20.4441 22.7172 20.3626 22.7171C20.2809 22.717 20.1992 22.7177 20.1174 22.7193C20.0359 22.7208 19.9544 22.7232 19.8729 22.7265C19.7911 22.7297 19.7094 22.7338 19.6278 22.7387C19.3917 22.753 19.1562 22.7742 18.9218 22.8024C18.6872 22.8307 18.454 22.8659 18.2227 22.9079C17.9915 22.95 17.7624 22.9989 17.5359 23.0545C17.5091 23.0614 17.4822 23.0684 17.4555 23.0755L17.4566 23.0749Z" fill="#341E12"/>
</g>
<g id="g8266">
<path id="path2054-5-1" d="M12.6364 11.2306C12.6364 11.2306 8.74848 9.45046 6.99552 11.9969C5.24256 14.5433 9.10683 17.4879 9.10683 17.4879L12.6364 11.2306Z" fill="#DF730E"/>
<path id="path2054-5-3-2" d="M25.2345 10.4764C25.2345 10.4764 28.8805 8.24235 30.9265 10.5599C32.9725 12.8775 29.4897 16.2646 29.4897 16.2646L25.2345 10.4764Z" fill="#DF730E"/>
<path id="path8272" d="M9.46 16.3889C8.97406 14.1244 11.1199 12.3361 11.8283 11.9293C11.8283 11.9293 8.68448 10.9507 7.70618 12.5744C6.72787 14.198 9.46 16.3889 9.46 16.3889Z" fill="#F5CCB4"/>
<path id="path8272-2" d="M29.061 15.2122C29.2715 12.9056 26.9265 11.3879 26.1744 11.0691C26.1744 11.0691 29.178 9.72016 30.3441 11.2146C31.5103 12.7091 29.061 15.2122 29.061 15.2122Z" fill="#F5CCB4"/>
</g>
<g id="g8245">
<path id="path18524" d="M14.7235 20.7449C15.6552 20.8963 16.589 20.2588 16.8092 19.3211C17.0293 18.3833 16.4525 17.5003 15.5207 17.3489C14.589 17.1975 13.6552 17.835 13.435 18.7727C13.2149 19.7105 13.7917 20.5935 14.7235 20.7449Z" fill="#341E12"/>
<path id="path18524-9" d="M15.4766 19.0861C15.7734 19.1344 16.0708 18.9313 16.1409 18.6327C16.211 18.334 16.0273 18.0528 15.7306 18.0046C15.4338 17.9563 15.1364 18.1594 15.0663 18.458C14.9962 18.7567 15.1799 19.0379 15.4766 19.0861Z" fill="#E3DFC5"/>
<path id="path18524-0" d="M24.3603 20.1602C23.4535 20.4223 22.4499 19.9016 22.1187 18.997C21.7876 18.0925 22.2543 17.1466 23.1611 16.8845C24.068 16.6223 25.0715 17.143 25.4027 18.0476C25.7338 18.9521 25.2671 19.898 24.3603 20.1602Z" fill="#341E12"/>
<path id="path18524-9-4" d="M24.3985 18.4958C24.1097 18.5793 23.7901 18.4134 23.6846 18.1253C23.5792 17.8372 23.7278 17.536 24.0166 17.4525C24.3054 17.369 24.625 17.5348 24.7305 17.8229C24.836 18.111 24.6873 18.4123 24.3985 18.4958Z" fill="#E3DFC5"/>
<path id="path19276" d="M12.8757 17.0507C12.9317 16.9374 14.4939 15.4069 16.4242 15.7029Z" fill="#341E12"/>
<path id="path19276-9" d="M25.0745 16.3008C25.0054 16.1951 23.2707 14.8632 21.3899 15.3888Z" fill="#341E12"/>
</g>
<g id="g8237">
<path id="path23128" d="M8.62341 20.8991C8.62075 20.9275 8.61769 20.9555 8.61515 20.9839C8.61514 20.9839 8.61516 20.9839 8.61515 20.9839C8.55626 21.6355 8.51745 22.3002 8.52252 22.9014C8.52445 23.1275 8.56619 23.3753 8.64696 23.6378C8.6488 23.6373 8.99748 23.5284 9.51401 23.3662C9.77285 23.285 10.0733 23.1906 10.3922 23.0898C10.405 23.0859 10.419 23.0811 10.4319 23.0771C10.4315 23.0769 10.4312 23.0768 10.4306 23.0766C10.7545 22.9743 11.0422 22.8841 11.381 22.7761C11.7138 22.6699 12.0422 22.5647 12.3426 22.4673C12.6431 22.3699 12.9156 22.2805 13.1375 22.2059C13.2484 22.1686 13.3465 22.135 13.4292 22.106C13.5118 22.0771 13.5789 22.0529 13.6274 22.0341C13.6516 22.0247 13.6713 22.0165 13.6859 22.01C13.7006 22.0034 13.7103 21.9983 13.7146 21.9949C13.717 21.9928 13.7176 21.9922 13.7169 21.991C13.7163 21.9898 13.7143 21.9892 13.7111 21.9894C13.7044 21.9893 13.692 21.9909 13.6735 21.9942C13.5744 22.0121 13.4766 22.0278 13.38 22.0414C13.2834 22.0551 13.1881 22.0666 13.0941 22.0762C13.0001 22.0856 12.9074 22.0938 12.816 22.0997C12.7246 22.1055 12.6345 22.1094 12.5458 22.1116C12.457 22.1138 12.3696 22.1144 12.2836 22.1134C12.1975 22.1124 12.1128 22.1099 12.0295 22.1059C11.9462 22.1018 11.8644 22.0963 11.7838 22.0894C11.7032 22.0825 11.624 22.0744 11.5462 22.0649C11.4685 22.0554 11.3921 22.0448 11.3172 22.033C11.2423 22.0212 11.1687 22.0081 11.0967 21.9941C11.0246 21.9802 10.9539 21.9652 10.8847 21.9494C10.8155 21.9335 10.7479 21.9171 10.6816 21.8997C10.6154 21.8822 10.5505 21.8638 10.4872 21.845C10.4239 21.8262 10.3623 21.8066 10.302 21.7866C10.2418 21.7667 10.1828 21.7462 10.1256 21.7253C10.0684 21.7044 10.0127 21.683 9.95854 21.6614C9.90437 21.6398 9.85189 21.6181 9.80087 21.5961C9.74985 21.5741 9.70046 21.5517 9.65259 21.5294C9.60469 21.5072 9.55848 21.4849 9.51379 21.4627C9.46909 21.4406 9.42599 21.4185 9.38452 21.3966C9.34308 21.3747 9.30302 21.3529 9.26481 21.3315C9.22659 21.3102 9.19017 21.289 9.15525 21.2684C9.08543 21.227 9.02211 21.1875 8.96567 21.1506C8.90927 21.1138 8.85973 21.0796 8.81697 21.0491C8.7742 21.0185 8.73827 20.9916 8.70948 20.9693C8.65219 20.925 8.62373 20.8994 8.62341 20.8991Z" fill="#341E12"/>
<path id="path23128-8" d="M30.3658 19.4139C30.3718 19.4417 30.3783 19.4692 30.3842 19.4971C30.3842 19.4971 30.3839 19.4976 30.3839 19.4976C30.5206 20.1375 30.6392 20.7921 30.7064 21.3896C30.7316 21.6142 30.7199 21.8653 30.6712 22.1356C30.6693 22.1353 30.3101 22.0691 29.7778 21.9701C29.5111 21.9205 29.2015 21.8628 28.8728 21.8011C28.8596 21.7988 28.8451 21.7957 28.8319 21.7932C28.8322 21.793 28.8325 21.7929 28.8331 21.7926C28.4992 21.7299 28.2028 21.6749 27.8535 21.6083C27.5104 21.5429 27.1717 21.4778 26.8618 21.4172C26.5518 21.3566 26.2705 21.3006 26.0413 21.2532C25.9267 21.2295 25.8252 21.2078 25.7397 21.1891C25.6542 21.1703 25.5847 21.1543 25.5343 21.1414C25.5091 21.135 25.4886 21.1292 25.4733 21.1245C25.4579 21.1198 25.4477 21.1158 25.443 21.1129C25.4404 21.1112 25.4397 21.1106 25.4403 21.1094C25.4407 21.1081 25.4427 21.1073 25.4458 21.1071C25.4524 21.1062 25.465 21.1063 25.4837 21.1074C25.5843 21.1132 25.6832 21.1171 25.7808 21.119C25.8783 21.121 25.9743 21.1209 26.0687 21.1192C26.1632 21.1173 26.2563 21.1142 26.3477 21.1091C26.4391 21.104 26.529 21.0969 26.6174 21.0885C26.7058 21.08 26.7926 21.0701 26.8779 21.0589C26.9632 21.0475 27.047 21.0349 27.1292 21.0208C27.2115 21.0068 27.292 20.9915 27.3712 20.975C27.4504 20.9585 27.528 20.9409 27.6041 20.9222C27.6801 20.9034 27.7546 20.8837 27.8276 20.863C27.9006 20.8423 27.972 20.8204 28.0419 20.7979C28.1118 20.7754 28.1802 20.752 28.247 20.728C28.3137 20.704 28.3789 20.6796 28.4426 20.6543C28.5063 20.629 28.5685 20.603 28.6291 20.5767C28.6896 20.5504 28.7484 20.5236 28.8059 20.4965C28.8633 20.4694 28.9194 20.4421 28.9737 20.4144C29.0279 20.3868 29.0807 20.3589 29.1319 20.331C29.183 20.303 29.2325 20.2752 29.2805 20.2472C29.3285 20.2192 29.3749 20.191 29.4197 20.1632C29.4646 20.1354 29.5078 20.1077 29.5495 20.0803C29.5912 20.053 29.6314 20.0259 29.6699 19.9991C29.7084 19.9724 29.7456 19.946 29.781 19.9202C29.8163 19.8944 29.85 19.869 29.8821 19.8443C29.9465 19.7949 30.0046 19.748 30.0562 19.7047C30.1078 19.6613 30.1529 19.6214 30.1916 19.586C30.2304 19.5505 30.2629 19.5195 30.2888 19.4939C30.3403 19.4431 30.3655 19.4142 30.3658 19.4139Z" fill="#341E12"/>
<path id="path17496" d="M14.9179 14.6998C14.9179 14.6998 19.2625 12.8092 23.4041 14.1867Z" fill="#341E12"/>
<path id="path17498" d="M14.1173 13.4186C14.1191 13.4185 18.37 10.6428 24.0447 12.8138Z" fill="#341E12"/>
<path id="path17498-6" d="M13.3656 11.7604C13.3674 11.7603 18.1945 8.94992 24.5919 11.0773Z" fill="#341E12"/>
<path id="path23019" d="M9.09889 17.4799C9.09889 17.4799 11.4138 20.581 13.202 21.3444C13.3316 21.3997 8.68993 20.2414 8.68993 20.2414C8.79553 19.1968 8.94919 18.3571 9.09889 17.4799Z" fill="#341E12"/>
<path id="path23019-1" d="M29.5013 16.2456C29.5013 16.2456 27.5755 19.6022 25.8918 20.5747C25.7698 20.6452 30.2633 18.9381 30.2633 18.9381C30.0331 17.9138 29.7739 17.0942 29.5013 16.2456Z" fill="#341E12"/>
</g>
<g id="g8258">
<path id="path15492-8" d="M21.4254 26.0081C21.3995 26.0056 21.3734 26.0082 21.3485 26.0158C21.3236 26.0233 21.3004 26.0357 21.2804 26.0522C20.59 26.6273 19.9072 26.6666 19.3756 26.5698C18.8441 26.4729 18.489 26.2375 18.489 26.2375C18.4673 26.223 18.4431 26.2129 18.4175 26.2078C18.392 26.2027 18.3657 26.2026 18.3402 26.2077C18.3146 26.2127 18.2903 26.2228 18.2686 26.2373C18.247 26.2517 18.2284 26.2703 18.2139 26.292C18.1995 26.3136 18.1895 26.338 18.1844 26.3635C18.1794 26.3891 18.1795 26.4154 18.1847 26.441C18.1898 26.4665 18.2 26.4908 18.2145 26.5124C18.2291 26.534 18.2478 26.5525 18.2695 26.5669C18.2695 26.5669 18.6913 26.8468 19.305 26.9586C19.9187 27.0704 20.7494 27.0106 21.5342 26.3568C21.5743 26.3231 21.5995 26.2748 21.6041 26.2226C21.6087 26.1704 21.5925 26.1185 21.5589 26.0782C21.5253 26.0382 21.4774 26.013 21.4254 26.0081Z" fill="#341E12"/>
<path id="path13759-9" d="M18.6031 26.0834C18.5633 28.306 21.2387 28.733 21.0737 25.9528Z" fill="#F44754"/>
<path id="path25662" d="M19.8223 25.1757L18.6074 26.4131C18.6074 26.4131 19.0792 26.0932 19.8695 26.0522C20.6598 26.0105 21.0896 26.2849 21.0896 26.2849L19.8223 25.1757Z" fill="#691C1C"/>
<path id="path13733-0-7" d="M16.4037 25.1535C16.4037 25.1535 15.8138 25.6435 15.848 26.3442C15.8507 26.3966 15.8741 26.4458 15.9131 26.481C15.952 26.5162 16.0034 26.5345 16.0558 26.5318C16.108 26.5291 16.1571 26.5059 16.1923 26.4672C16.2274 26.4285 16.2459 26.3775 16.2435 26.3252C16.2211 25.87 16.6657 25.4502 16.6657 25.4502C16.705 25.4155 16.7289 25.3665 16.7321 25.3141C16.7354 25.2618 16.7177 25.2102 16.683 25.1709C16.6482 25.1316 16.5993 25.1077 16.5469 25.1044C16.4945 25.1012 16.443 25.1188 16.4037 25.1535Z" fill="#341E12"/>
<path id="path23295-0" d="M19.872 25.0202C19.8252 25.0441 19.7898 25.0856 19.7735 25.1355C19.7573 25.1855 19.7616 25.2399 19.7855 25.2867C19.7855 25.2867 20.0689 25.8466 20.7091 26.1514C21.3493 26.4562 22.3429 26.4832 23.662 25.5463C23.6832 25.5312 23.7012 25.5121 23.7151 25.4901C23.7289 25.468 23.7383 25.4435 23.7426 25.4178C23.747 25.3922 23.7462 25.3659 23.7404 25.3406C23.7346 25.3152 23.7239 25.2912 23.7088 25.27C23.6937 25.2488 23.6746 25.2308 23.6526 25.2169C23.6306 25.2031 23.606 25.1937 23.5804 25.1894C23.5547 25.185 23.5285 25.1858 23.5031 25.1916C23.4777 25.1974 23.4538 25.2081 23.4326 25.2232C22.1898 26.1059 21.3912 26.0382 20.8792 25.7945C20.3673 25.5507 20.1384 25.1067 20.1384 25.1067C20.1266 25.0836 20.1103 25.0629 20.0905 25.0461C20.0707 25.0292 20.0478 25.0163 20.0231 25.0083C19.9983 25.0003 19.9722 24.9972 19.9463 24.9993C19.9204 25.0013 19.8951 25.0084 19.872 25.0202Z" fill="#341E12"/>
<path id="path23295" d="M19.6334 24.9736C19.6097 24.9845 19.5883 25.0001 19.5706 25.0194C19.553 25.0387 19.5393 25.0614 19.5304 25.086C19.5304 25.086 19.3564 25.553 18.8774 25.8565C18.3983 26.1599 17.6136 26.3229 16.2739 25.5959C16.2511 25.5834 16.226 25.5757 16.2001 25.5729C16.1742 25.5702 16.1481 25.5726 16.1231 25.58C16.0982 25.5874 16.0749 25.5997 16.0547 25.6161C16.0345 25.6324 16.0177 25.6526 16.0053 25.6755C15.9929 25.6984 15.9851 25.7235 15.9824 25.7493C15.9797 25.7752 15.9821 25.8014 15.9895 25.8263C15.9969 25.8513 16.0091 25.8745 16.0255 25.8947C16.0419 25.915 16.0621 25.9317 16.085 25.9441C17.507 26.7159 18.4915 26.571 19.0904 26.1915C19.6894 25.8121 19.9023 25.2222 19.9023 25.2222C19.9204 25.1729 19.9181 25.1184 19.896 25.0708C19.8739 25.0231 19.8338 24.9862 19.7845 24.9681C19.7354 24.9498 19.6811 24.9519 19.6334 24.9736Z" fill="#341E12"/>
<path id="path13733-0-6" d="M23.2748 24.8152C23.2314 24.7856 23.178 24.7745 23.1264 24.7842C23.0748 24.794 23.0292 24.8238 22.9996 24.8672C22.97 24.9105 22.9589 24.9639 22.9686 25.0155C22.9783 25.0671 23.0082 25.1127 23.0515 25.1423C23.0515 25.1423 23.5417 25.5045 23.5743 25.9592C23.5761 25.9852 23.5831 26.0106 23.5948 26.034C23.6065 26.0573 23.6226 26.0781 23.6424 26.0952C23.6621 26.1123 23.685 26.1253 23.7098 26.1335C23.7346 26.1417 23.7608 26.1448 23.7868 26.1429C23.8392 26.1389 23.8878 26.1143 23.922 26.0745C23.9563 26.0346 23.9733 25.9829 23.9693 25.9305C23.9193 25.2308 23.2748 24.8152 23.2748 24.8152Z" fill="#341E12"/>
</g>
<path id="path9394_2" d="M10.2132 30.7514C10.2132 30.7514 10.2093 31.9737 10.2089 32.0485C10.2085 32.1241 10.2089 32.2342 10.2132 32.3723C10.2154 32.4413 10.2189 32.5173 10.2229 32.5996C10.2273 32.6817 10.2328 32.7702 10.2398 32.8639C10.2474 32.9577 10.2564 33.0566 10.2666 33.1602C10.2777 33.2638 10.29 33.3719 10.305 33.4837C10.3196 33.5955 10.3375 33.7111 10.3575 33.8295C10.3776 33.9479 10.4002 34.0691 10.4258 34.1925C10.4384 34.2542 10.4522 34.3164 10.4665 34.3791C10.4809 34.4417 10.4961 34.5046 10.5121 34.5679C10.528 34.6312 10.5448 34.6951 10.5624 34.759C10.58 34.8227 10.5984 34.8868 10.6179 34.951C10.6373 35.0152 10.6576 35.0793 10.6788 35.1435C10.7001 35.2078 10.7225 35.2719 10.7457 35.3361C10.7689 35.4003 10.7932 35.4645 10.8185 35.5284C10.8438 35.5922 10.8701 35.656 10.8975 35.7194C10.9249 35.7828 10.9532 35.8457 10.9827 35.9084C11.0123 35.971 11.0432 36.0331 11.075 36.0948C11.1069 36.1566 11.1401 36.2177 11.1742 36.2783C11.2085 36.3389 11.2438 36.3991 11.2804 36.4584C11.2988 36.488 11.3182 36.518 11.3386 36.5486C11.359 36.579 11.3804 36.61 11.4028 36.6413C11.4477 36.704 11.4965 36.7682 11.549 36.8338C11.6015 36.8995 11.6577 36.9664 11.7172 37.0347C11.7767 37.1029 11.8398 37.1725 11.9057 37.2431C11.9717 37.3138 12.0406 37.3855 12.1124 37.4581C12.1841 37.5308 12.2585 37.6046 12.3354 37.6789C12.4123 37.7532 12.4919 37.8282 12.5734 37.9038C12.655 37.9794 12.7384 38.0555 12.8239 38.1322C12.9094 38.2088 12.997 38.2859 13.0859 38.3632C13.1748 38.4405 13.2653 38.5182 13.3569 38.5959C13.4486 38.6735 13.5417 38.7513 13.6355 38.8289C13.7294 38.9065 13.8242 38.9839 13.9196 39.0611C14.1104 39.2157 14.3036 39.3693 14.4971 39.5205C14.6906 39.6716 14.8845 39.8203 15.0758 39.9654C15.2672 40.1105 15.4562 40.2516 15.6405 40.3879C15.8249 40.5242 16.0044 40.6556 16.1769 40.7805C16.3494 40.9054 16.515 41.024 16.6708 41.1347C16.8266 41.2455 16.9727 41.3487 17.1071 41.4426C17.3758 41.6306 17.5967 41.7823 17.7504 41.887C17.904 41.9918 17.9905 42.0494 17.9905 42.0494C17.9905 42.0494 17.8611 42.0184 17.6337 41.9603C17.5199 41.9313 17.3817 41.8953 17.223 41.8534C17.0642 41.8114 16.8848 41.7634 16.689 41.7096C16.4932 41.6558 16.2808 41.5964 16.0559 41.5317C15.8309 41.4671 15.5932 41.3974 15.347 41.3229C15.1009 41.2485 14.8462 41.1692 14.5868 41.086C14.457 41.0444 14.3262 41.0018 14.1946 40.9582C14.0631 40.9146 13.9308 40.8701 13.7984 40.8247C13.666 40.7792 13.5333 40.7329 13.401 40.6857C13.2687 40.6385 13.1365 40.5904 13.0054 40.5416C12.8742 40.4929 12.7436 40.4437 12.6146 40.3934C12.4855 40.3431 12.3579 40.2921 12.2319 40.2405C12.106 40.189 11.9819 40.1368 11.86 40.084C11.7382 40.0312 11.6186 39.978 11.5018 39.9241C11.3851 39.8703 11.2711 39.816 11.1604 39.7612C11.0497 39.7064 10.9422 39.6509 10.8386 39.5953C10.7349 39.5397 10.635 39.4839 10.5394 39.4277C10.4916 39.3996 10.4453 39.3712 10.3997 39.3428C10.3541 39.3146 10.3095 39.2864 10.2663 39.258C10.223 39.2297 10.1808 39.2009 10.14 39.1724C10.0992 39.1438 10.0596 39.1153 10.0214 39.0867C9.98312 39.0581 9.94626 39.0297 9.9107 39.001C9.87512 38.9723 9.8412 38.9435 9.80848 38.9148C9.77575 38.886 9.7444 38.8572 9.71463 38.8284C9.68486 38.7996 9.65638 38.7708 9.62967 38.7419C9.60295 38.713 9.57792 38.6841 9.55437 38.6554C9.53081 38.6265 9.50863 38.5975 9.48833 38.5686C9.46813 38.5397 9.44971 38.5109 9.43287 38.4821C9.41613 38.4533 9.40127 38.4246 9.38798 38.3958C9.3748 38.367 9.36318 38.338 9.35365 38.3092C9.34402 38.2805 9.33648 38.2519 9.3308 38.2232C9.32918 38.2127 9.10804 38.2016 9.10543 38.1911C8.94735 35.5668 9.28724 32.7549 10.2132 30.7514Z" fill="#341E12"/>
</g>
<circle id="Ellipse 98" cx="20.041" cy="20.8847" r="18.6667" stroke="#BE0503" stroke-width="2.66667"/>
</g>
</g>
<defs>
<clipPath id="clip0_2259_3838">
<rect width="40" height="40" fill="white" transform="translate(0.0410156 0.884674)"/>
</clipPath>
</defs>
</svg>
