<svg width="41" height="41" viewBox="0 0 41 41" fill="none" xmlns="http://www.w3.org/2000/svg">
<g id="PerfilPingao" clip-path="url(#clip0_2259_3824)">
<mask id="mask0_2259_3824" style="mask-type:alpha" maskUnits="userSpaceOnUse" x="0" y="0" width="41" height="41">
<circle id="Ellipse 96" cx="20.0162" cy="20.8847" r="20" fill="#D9D9D9"/>
</mask>
<g mask="url(#mask0_2259_3824)">
<circle id="Ellipse 97" cx="20.0162" cy="20.8847" r="18.6667" fill="#F8FBFC" stroke="#F1C22E" stroke-width="2.66667"/>
<g id="g2052">
<path id="path26974" d="M10.6512 24.4125C9.36196 21.5109 9.62526 18.174 11.3168 15.0625C13.0084 11.951 15.795 9.96628 19.9902 9.95142C24.1853 9.93657 27.2547 12.3265 28.9959 15.1141C30.7372 17.9017 30.3758 21.5299 29.9025 24.5502C32.9765 28.7823 33.6163 36.6393 33.6163 36.6393L6.41626 36.5348C6.41626 36.5348 7.41017 28.7423 10.6512 24.4125Z" fill="#2B3139"/>
<path id="path28896" d="M20.9016 18.3328C20.9016 18.3328 22.5084 14.1735 24.2181 13.7771C25.9278 13.3807 27.7063 15.2066 28.304 16.96C28.9016 18.7135 29.1996 20.2769 28.0163 24.8847C30.8729 29.3777 31.8389 36.624 31.8389 36.624L26.683 40.618L18.0392 42.0891L9.88302 36.624C9.88302 36.624 9.81589 28.2858 12.1137 24.7644C11.5958 21.947 11.4062 18.531 12.2071 16.8317C13.0079 15.1324 13.9959 13.6301 15.9088 13.8077C17.8217 13.9853 19.1678 18.4507 19.1678 18.4507L20.9016 18.3328Z" fill="#EBE7D4"/>
<path id="path30946" d="M15.0747 18.7658C15.8227 18.7658 16.429 18.317 16.429 17.7634C16.429 17.2099 15.8227 16.7611 15.0747 16.7611C14.3268 16.7611 13.7205 17.2099 13.7205 17.7634C13.7205 18.317 14.3268 18.7658 15.0747 18.7658Z" fill="#1D1E20"/>
<path id="path30946-0" d="M24.7462 18.7734C25.4942 18.7734 26.1005 18.3246 26.1005 17.7711C26.1005 17.2175 25.4942 16.7687 24.7462 16.7687C23.9983 16.7687 23.392 17.2175 23.392 17.7711C23.392 18.3246 23.9983 18.7734 24.7462 18.7734Z" fill="#1D1E20"/>
<path id="path27408" d="M18.6633 18.3525C19.1262 17.6732 19.6886 17.5739 20.0428 17.573C20.397 17.5724 20.8589 17.5934 21.3796 18.3372C20.9821 19.3565 20.0559 20.1736 20.0559 20.1736C20.0559 20.1736 19.1186 19.445 18.6633 18.3525Z" fill="#DEAF2F"/>
<path id="path32200" d="M15.6103 17.8935C15.7666 17.8935 15.8934 17.7804 15.8934 17.641C15.8934 17.5015 15.7666 17.3885 15.6103 17.3885C15.4539 17.3885 15.3271 17.5015 15.3271 17.641C15.3271 17.7804 15.4539 17.8935 15.6103 17.8935Z" fill="#C9C6AF"/>
<path id="path32200-9" d="M25.3709 17.8896C25.5272 17.8896 25.654 17.7766 25.654 17.6371C25.654 17.4977 25.5272 17.3846 25.3709 17.3846C25.2145 17.3846 25.0878 17.4977 25.0878 17.6371C25.0878 17.7766 25.2145 17.8896 25.3709 17.8896Z" fill="#C9C6AF"/>
<path id="path346" d="M12.1029 24.6823C12.1029 24.6823 14.3771 35.2206 13.1219 38.4019C12.1572 40.847 9.57428 39.5729 9.05336 36.584C8.53245 33.5952 8.83326 29.0548 12.1029 24.6823Z" fill="#242930"/>
<path id="path346-3" d="M28.0162 24.8847C28.0162 24.8847 26.672 35.5922 28.0269 38.7323C29.0684 41.1457 31.6098 39.7907 32.0361 36.7869C32.4624 33.7831 31.4222 29.1518 28.0162 24.8847Z" fill="#242930"/>
</g>
<circle id="Ellipse 98" cx="20.0162" cy="20.8847" r="18.6667" stroke="#127CA6" stroke-width="2.66667"/>
</g>
</g>
<defs>
<clipPath id="clip0_2259_3824">
<rect width="40" height="40" fill="white" transform="translate(0.0162354 0.884674)"/>
</clipPath>
</defs>
</svg>
