<svg width="41" height="41" viewBox="0 0 41 41" fill="none" xmlns="http://www.w3.org/2000/svg">
<g id="PerfilKoala" clip-path="url(#clip0_2259_3801)">
<mask id="mask0_2259_3801" style="mask-type:alpha" maskUnits="userSpaceOnUse" x="0" y="0" width="41" height="41">
<circle id="Ellipse 96" cx="20.9915" cy="20.8847" r="20" fill="#D9D9D9"/>
</mask>
<g mask="url(#mask0_2259_3801)">
<circle id="Ellipse 97" cx="20.9915" cy="20.8847" r="18.6667" fill="#F8FBFC" stroke="#BE2C53" stroke-width="2.66667"/>
<g id="g45151">
<path id="path20427-4" d="M15.0535 30.2931C15.0535 30.2931 13.3605 34.3028 13.5252 38.4846C13.7914 39.818 14.99 38.9227 14.99 38.9227L25.2581 40.0847L32.9914 33.9514C32.9914 33.9514 35.0125 37.8791 33.5252 33.9513C32.038 30.0235 29.3231 27.5048 29.3231 27.5048L15.0535 30.2931Z" fill="#999D9C"/>
<path id="path6427" d="M25.3599 47.1426C28.9045 46.5854 31.1029 41.8386 30.2702 36.5403C29.4374 31.242 25.8888 27.3985 22.3442 27.9557C18.7995 28.5128 16.6011 33.2596 17.4339 38.5579C18.2666 43.8562 21.8152 47.6997 25.3599 47.1426Z" fill="#C6C6C6"/>
<g id="g45133">
<path id="path38950" d="M15.1525 17.1719C15.1525 17.1719 10.4112 14.0881 7.537 16.507C4.66283 18.9258 5.10354 20.6381 5.60706 22.9011C6.11057 25.1641 8.02635 25.9504 9.95494 26.0679C11.8835 26.1854 13.5635 24.9326 13.5635 24.9326L15.1525 17.1719Z" fill="#A0A4A3"/>
<path id="path38950-9" d="M14.6167 18.4564C14.6167 18.4564 11.2619 16.2744 9.22824 17.9859C7.19456 19.6974 7.50639 20.909 7.86267 22.5102C8.21894 24.1114 9.57449 24.6678 10.9391 24.7509C12.3037 24.8341 13.4925 23.9477 13.4925 23.9477L14.6167 18.4564Z" fill="#CECECE"/>
<path id="path38950-5" d="M25.7565 15.4966C25.7565 15.4966 29.4624 11.5256 32.8008 12.5274C36.1392 13.5293 36.3914 16.2258 36.5992 18.0212C36.807 19.8167 35.232 21.6656 33.4324 22.3691C31.6329 23.0726 29.6496 22.3957 29.6496 22.3957L25.7565 15.4966Z" fill="#A0A4A3"/>
<path id="path38950-9-7" d="M26.6439 16.5443C26.6439 16.5443 29.1676 13.4383 31.6282 14.4434C34.0889 15.4485 34.1638 16.6974 34.3159 18.3307C34.468 19.964 33.3485 20.9093 32.0752 21.4071C30.8019 21.9049 29.3986 21.4259 29.3986 21.4259L26.6439 16.5443Z" fill="#CECECE"/>
</g>
<path id="path34932" d="M13.3095 19.9044C14.1957 16.72 16.6918 14.7936 19.8393 14.2552C22.9868 13.7167 26.5284 14.9345 28.0272 17.6282C29.5259 20.3219 31.8564 22.8396 30.8735 25.6609C29.8906 28.4822 26.0243 30.8667 22.5615 31.3418C19.0988 31.8168 14.6821 30.7753 13.0219 28.4313C11.3616 26.0872 12.4233 23.0887 13.3095 19.9044Z" fill="#A0A4A3"/>
<path id="path40753" d="M21.2686 22.4423C21.2686 22.4423 19.8219 24.6597 19.9691 25.513C20.1162 26.3664 21.1135 26.7178 21.9101 26.5798C22.7066 26.4419 23.5102 25.7804 23.3683 24.9138C23.2265 24.0471 21.2686 22.4423 21.2686 22.4423Z" fill="#5B6565"/>
<g id="g45126">
<path id="path41533" d="M24.9167 22.6834C25.8422 22.5379 26.496 21.8061 26.377 21.0489C26.258 20.2916 25.4112 19.7957 24.4857 19.9412C23.5602 20.0866 22.9064 20.8184 23.0254 21.5757C23.1445 22.3329 23.9912 22.8288 24.9167 22.6834Z" fill="#383F3F"/>
<path id="path2608-6" d="M16.7059 21.2331C16.7059 21.2331 17.7218 21.5359 18.1522 21.8335C18.5827 22.1312 19.2359 22.8546 19.2095 22.9296C19.1837 23.0047 18.1716 23.0335 17.0041 23.0421C16.3288 23.047 14.9919 23.2931 14.9919 23.2931C14.9919 23.2931 16.2158 22.4087 16.9425 22.3569C17.8934 22.2892 18.0531 22.5214 18.079 22.4613C18.0934 22.4284 16.7059 21.2331 16.7059 21.2331Z" fill="#383F3F"/>
<path id="path18524-9-6-7-0" d="M25.4958 21.3251C25.255 21.5571 24.8545 21.5598 24.6013 21.3311C24.348 21.1024 24.3379 20.729 24.5787 20.4969C24.8196 20.2649 25.2201 20.2622 25.4733 20.4909C25.7265 20.7196 25.7366 21.0931 25.4958 21.3251Z" fill="#C9D6D6"/>
</g>
<g id="g45122">
<path id="path43072" d="M25.1758 26.2723C25.1542 26.2688 25.1325 26.2704 25.1119 26.2772C25.0914 26.2839 25.0724 26.2955 25.056 26.3114C22.3001 28.9768 18.6453 27.316 18.6453 27.316C18.6247 27.3067 18.6031 27.3021 18.5816 27.3028C18.5601 27.3034 18.5392 27.3091 18.52 27.3197C18.5009 27.3302 18.4838 27.3453 18.4699 27.3641C18.456 27.383 18.4455 27.4052 18.439 27.4294C18.4325 27.4537 18.43 27.4796 18.4319 27.5056C18.4337 27.5316 18.4397 27.5572 18.4497 27.581C18.4596 27.6048 18.4732 27.6263 18.4897 27.6442C18.5061 27.6621 18.5252 27.6762 18.5458 27.6855C18.5458 27.6855 22.3669 29.4342 25.2709 26.6256C25.3038 26.5937 25.324 26.5465 25.3271 26.4945C25.3302 26.4425 25.3159 26.3898 25.2875 26.3482C25.2591 26.3066 25.219 26.2794 25.1758 26.2723Z" fill="#5B6565"/>
<path id="path13733-0-7-9" d="M18.7845 26.8623C18.7651 26.8625 18.7461 26.8673 18.7287 26.8765C18.7112 26.8857 18.6957 26.8991 18.6829 26.9159C18.6829 26.9159 18.2927 27.3925 18.3854 28.0204C18.3924 28.0674 18.4144 28.1102 18.4466 28.1395C18.4788 28.1688 18.5186 28.1821 18.5572 28.1766C18.5764 28.174 18.5947 28.1667 18.6112 28.1553C18.6276 28.1439 18.6418 28.1286 18.653 28.1101C18.6641 28.0917 18.672 28.0706 18.6762 28.048C18.6804 28.0254 18.6807 28.0017 18.6773 27.9784C18.6172 27.5703 18.9053 27.1673 18.9053 27.1673C18.9312 27.1337 18.9443 27.0882 18.9418 27.0409C18.9392 26.9935 18.9212 26.9482 18.8917 26.9149C18.8772 26.8982 18.8602 26.885 18.8418 26.876C18.8234 26.867 18.804 26.8623 18.7845 26.8623Z" fill="#5B6565"/>
<path id="path13733-0-6-8" d="M24.7849 25.9211C24.7664 25.9271 24.7493 25.9375 24.7345 25.9517C24.7198 25.9659 24.7077 25.9837 24.6989 26.004C24.6811 26.0448 24.6779 26.0935 24.69 26.1393C24.7021 26.1851 24.7285 26.2244 24.7635 26.2484C24.7635 26.2484 25.1615 26.5436 25.2293 26.9505C25.2332 26.9737 25.2408 26.9961 25.2518 27.0164C25.2627 27.0366 25.2766 27.0543 25.2929 27.0684C25.3092 27.0825 25.3274 27.0928 25.3465 27.0986C25.3657 27.1044 25.3854 27.1056 25.4044 27.1023C25.4429 27.0957 25.4766 27.0708 25.4983 27.033C25.52 26.9953 25.5278 26.9478 25.5201 26.9009C25.4156 26.2749 24.8981 25.9409 24.8981 25.9409C24.8808 25.9288 24.8619 25.9209 24.8424 25.9175C24.823 25.9141 24.8034 25.9153 24.7849 25.9211Z" fill="#5B6565"/>
</g>
<path id="path44786" d="M17.5178 14.9812C17.5178 14.9812 18.8304 13.0366 19.763 12.0263C20.6956 11.0159 20.2501 13.7978 20.2501 13.7978C20.2501 13.7978 22.8696 12.8822 22.0015 13.6959C21.1334 14.5096 20.9163 14.8798 19.6535 15.132C18.3907 15.3841 17.5178 14.9812 17.5178 14.9812Z" fill="#A0A4A3"/>
</g>
<circle id="Ellipse 98" cx="20.9915" cy="20.8847" r="18.6667" stroke="#BE2C53" stroke-width="2.66667"/>
</g>
</g>
<defs>
<clipPath id="clip0_2259_3801">
<rect width="40" height="40" fill="white" transform="translate(0.991455 0.884674)"/>
</clipPath>
</defs>
</svg>
