<svg width="41" height="41" viewBox="0 0 41 41" fill="none" xmlns="http://www.w3.org/2000/svg">
<g id="PerfilPassarin" clip-path="url(#clip0_2259_3911)">
<mask id="mask0_2259_3911" style="mask-type:alpha" maskUnits="userSpaceOnUse" x="0" y="0" width="41" height="41">
<circle id="Ellipse 96" cx="20.0906" cy="20.8847" r="20" fill="#D9D9D9"/>
</mask>
<g mask="url(#mask0_2259_3911)">
<circle id="Ellipse 97" cx="20.0906" cy="20.8847" r="18.6667" fill="#F8FBFC" stroke="#F1C22E" stroke-width="2.66667"/>
<g id="g45167">
<path id="path1020" d="M29.9366 38.8818C29.9591 38.7795 29.9795 38.6769 29.998 38.5739C30.0315 38.3622 30.0566 38.1493 30.0734 37.9357C30.0902 37.7221 30.0987 37.508 30.0987 37.2939C30.0988 37.2213 30.0979 37.1488 30.096 37.0762C30.0938 37.0036 30.0906 36.931 30.0864 36.8585C30.0827 36.7861 30.078 36.7138 30.0724 36.6415C30.0665 36.5694 30.0597 36.4973 30.052 36.4253C30.0442 36.3531 30.0356 36.281 30.0259 36.209C30.0164 36.137 30.0058 36.0651 29.9943 35.9934C29.9828 35.9217 29.9703 35.85 29.9569 35.7786C29.9433 35.7072 29.9288 35.6361 29.9133 35.5651C29.898 35.494 29.8818 35.4231 29.8647 35.3523C29.8473 35.2817 29.829 35.2112 29.8097 35.141C29.7907 35.0708 29.7708 35.0008 29.7499 34.9311C29.7287 34.8613 29.7066 34.7918 29.6836 34.7225C29.6608 34.6534 29.6371 34.5846 29.6124 34.5161C29.5878 34.4475 29.5622 34.3791 29.5357 34.3111C29.5091 34.2429 29.4816 34.1751 29.4532 34.1075C29.425 34.0403 29.3959 33.9733 29.3658 33.9067C29.3357 33.8402 29.3047 33.7739 29.2729 33.7081C29.2409 33.6422 29.208 33.5767 29.1743 33.5115C29.1409 33.4463 29.1065 33.3815 29.0714 33.3171C29.0358 33.2528 28.9994 33.1889 28.9622 33.1255C28.9252 33.0621 28.8874 32.9992 28.8487 32.9367C28.8101 32.8742 28.7707 32.8122 28.7304 32.7507C28.6899 32.6891 28.6485 32.6281 28.6064 32.5675C28.5645 32.5069 28.5217 32.4468 28.4782 32.3872C28.4346 32.3277 28.3902 32.2688 28.345 32.2104C28.2998 32.1518 28.2538 32.0938 28.207 32.0363C28.1603 31.979 28.1128 31.9221 28.0647 31.8659C28.0163 31.8096 27.9672 31.754 27.9174 31.6989C27.8677 31.6441 27.8172 31.5898 27.7659 31.5362C27.7148 31.4822 27.6629 31.4289 27.6103 31.3763C27.5576 31.3237 27.5043 31.2718 27.4503 31.2206C27.3965 31.1692 27.3421 31.1185 27.2869 31.0684C27.2314 31.0184 27.1753 30.9691 27.1185 30.9205C27.0619 30.8719 27.0046 30.824 26.9466 30.7767C26.8888 30.7295 26.8303 30.683 26.7712 30.6372C26.712 30.5914 26.6521 30.5463 26.5916 30.502C26.5314 30.4576 26.4705 30.4139 26.4091 30.371C26.3475 30.3279 26.2852 30.2857 26.2224 30.2441C26.1598 30.2028 26.0966 30.1621 26.0329 30.1223C25.9693 30.0823 25.9052 30.0431 25.8406 30.0046C25.7756 29.9663 25.7101 29.9287 25.6441 29.8919C25.5783 29.8552 25.5121 29.8193 25.4454 29.7841C25.3787 29.7488 25.3115 29.7143 25.2439 29.6806C25.1763 29.6471 25.1082 29.6145 25.0396 29.5826C24.971 29.5506 24.902 29.5193 24.8325 29.489C24.7631 29.4588 24.6934 29.4294 24.6233 29.4009C24.5532 29.3723 24.4827 29.3446 24.4119 29.3178C24.3409 29.2908 24.2695 29.2648 24.1978 29.2396C24.1262 29.2143 24.0544 29.1899 23.9822 29.1663C23.9099 29.1429 23.8374 29.1203 23.7645 29.0987C23.6918 29.0769 23.6187 29.056 23.5454 29.036C23.4719 29.0161 23.3982 28.997 23.3242 28.9789C23.2505 28.9609 23.1765 28.9437 23.1023 28.9275C23.0278 28.9111 22.9531 28.8956 22.8782 28.881C22.8035 28.8662 22.7286 28.8524 22.6535 28.8394C22.5783 28.8268 22.5029 28.815 22.4274 28.8042C22.3519 28.7932 22.2763 28.7831 22.2006 28.7739C22.1248 28.7648 22.049 28.7565 21.973 28.7492C21.897 28.7417 21.8209 28.7352 21.7447 28.7295C21.6687 28.7241 21.5926 28.7197 21.5165 28.7162C21.4402 28.7124 21.3639 28.7096 21.2875 28.7077C21.2112 28.7058 21.1349 28.7049 21.0586 28.7048C20.8331 28.7048 20.6078 28.7128 20.383 28.7288C20.1581 28.7448 19.9339 28.7687 19.7109 28.8006C19.488 28.8327 19.2664 28.8726 19.0466 28.9204C18.827 28.9681 18.6094 29.0235 18.3942 29.0867C18.1788 29.1498 17.9659 29.2205 17.756 29.2987C17.546 29.3768 17.3393 29.4624 17.136 29.5551C16.933 29.6481 16.7337 29.7482 16.5386 29.8553C16.3433 29.9623 16.1523 30.0763 15.9659 30.1969C15.7797 30.3177 15.5982 30.4451 15.422 30.5788C15.2459 30.7124 15.075 30.8522 14.9099 30.9979C14.7445 31.1434 14.585 31.2948 14.4315 31.4516C14.2782 31.6086 14.1311 31.771 13.9905 31.9384C13.8501 32.106 13.7164 32.2784 13.5897 32.4555C13.4626 32.6325 13.3425 32.8139 13.2297 32.9994C13.1171 33.1848 13.0118 33.3742 12.9141 33.5672C12.8162 33.7602 12.726 33.9567 12.6436 34.1561C12.5612 34.3553 12.4867 34.5574 12.4202 34.762C12.3539 34.9667 12.2956 35.1737 12.2455 35.3826C12.1952 35.5915 12.1532 35.802 12.1194 36.0138C12.0859 36.2256 12.0608 36.4385 12.044 36.6521C12.0272 36.8656 12.0187 37.0797 12.0187 37.2939C12.0206 37.4034 12.0246 37.5128 12.0309 37.6222C14.2581 39.1953 17.2807 40.2176 21.0349 40.197C24.9752 40.1755 27.8345 39.8571 29.9366 38.8818Z" fill="#B6DAE6"/>
<path id="path1746" d="M18.8109 12.3933C17.2095 12.391 15.8235 12.8006 14.9976 13.7382C13.3478 17.3762 13.2462 18.6762 11.5534 21.0451C9.86056 23.4139 6.63136 27.8288 7.90487 32.0779C8.52455 34.1456 9.92084 36.1313 12.0317 37.6222C12.0254 37.5129 12.0213 37.4034 12.0194 37.2939C12.0195 37.0798 12.0279 36.8657 12.0448 36.6521C12.0615 36.4386 12.0867 36.2257 12.1202 36.0139C12.1539 35.8021 12.196 35.5915 12.2463 35.3827C12.2964 35.1738 12.3546 34.9668 12.421 34.762C12.4875 34.5575 12.562 34.3554 12.6443 34.1562C12.7267 33.9567 12.817 33.7603 12.9148 33.5672C13.0126 33.3743 13.1178 33.1849 13.2305 32.9994C13.3433 32.8139 13.4633 32.6325 13.5904 32.4555C13.7172 32.2785 13.8509 32.106 13.9913 31.9385C14.1319 31.771 14.279 31.6086 14.4323 31.4517C14.5857 31.2948 14.7453 31.1435 14.9106 30.998C15.0758 30.8522 15.2466 30.7124 15.4228 30.5788C15.599 30.4451 15.7804 30.3178 15.9667 30.197C16.153 30.0763 16.3441 29.9624 16.5394 29.8553C16.7345 29.7482 16.9338 29.6481 17.1368 29.5552C17.34 29.4624 17.5468 29.3769 17.7567 29.2988C17.9666 29.2205 18.1796 29.1498 18.395 29.0867C18.6102 29.0236 18.8278 28.9681 19.0474 28.9205C19.2671 28.8727 19.4887 28.8327 19.7117 28.8007C19.9347 28.7688 20.1589 28.7448 20.3838 28.7288C20.6086 28.7129 20.8339 28.7049 21.0593 28.7049C21.1357 28.7049 21.212 28.7059 21.2883 28.7078C21.3647 28.7097 21.441 28.7125 21.5173 28.7162C21.5934 28.7197 21.6695 28.7242 21.7455 28.7296C21.8217 28.7352 21.8978 28.7418 21.9738 28.7493C22.0497 28.7566 22.1256 28.7648 22.2013 28.7739C22.2771 28.7831 22.3527 28.7932 22.4282 28.8042C22.5037 28.8151 22.5791 28.8268 22.6543 28.8395C22.7294 28.8524 22.8043 28.8663 22.879 28.881C22.9539 28.8956 23.0286 28.9111 23.103 28.9275C23.1772 28.9438 23.2512 28.9609 23.325 28.979C23.3989 28.9971 23.4727 29.0161 23.5462 29.036C23.6195 29.056 23.6925 29.0769 23.7653 29.0987C23.8381 29.1204 23.9107 29.1429 23.983 29.1664C24.0551 29.1899 24.127 29.2143 24.1985 29.2396C24.2703 29.2648 24.3417 29.2909 24.4127 29.3178C24.4835 29.3447 24.554 29.3724 24.624 29.4009C24.6942 29.4295 24.7639 29.4588 24.8333 29.489C24.9027 29.5194 24.9718 29.5506 25.0404 29.5827C25.1089 29.6145 25.177 29.6472 25.2447 29.6806C25.3123 29.7143 25.3795 29.7488 25.4462 29.7842C25.5129 29.8193 25.5791 29.8552 25.6448 29.892C25.7108 29.9287 25.7764 29.9663 25.8414 30.0047C25.906 30.0431 25.9701 30.0823 26.0337 30.1223C26.0974 30.1622 26.1606 30.2028 26.2232 30.2442C26.286 30.2857 26.3482 30.328 26.4099 30.371C26.4713 30.4139 26.5321 30.4576 26.5924 30.502C26.6528 30.5464 26.7127 30.5915 26.772 30.6373C26.8311 30.6831 26.8896 30.7296 26.9474 30.7768C27.0053 30.824 27.0626 30.8719 27.1193 30.9205C27.1761 30.9691 27.2322 31.0185 27.2877 31.0684C27.3428 31.1185 27.3973 31.1692 27.4511 31.2206C27.5051 31.2719 27.5584 31.3238 27.611 31.3763C27.6636 31.429 27.7155 31.4823 27.7667 31.5362C27.8179 31.5899 27.8684 31.6441 27.9182 31.699C27.968 31.754 28.0171 31.8097 28.0654 31.8659C28.1136 31.9222 28.161 31.979 28.2077 32.0364C28.2545 32.0938 28.3006 32.1519 28.3458 32.2104C28.391 32.2688 28.4354 32.3278 28.479 32.3872C28.5225 32.4468 28.5652 32.507 28.6071 32.5676C28.6493 32.6281 28.6907 32.6892 28.7312 32.7507C28.7715 32.8123 28.8109 32.8743 28.8495 32.9367C28.8882 32.9992 28.926 33.0621 28.9629 33.1255C29.0002 33.189 29.0366 33.2528 29.0721 33.3171C29.1073 33.3815 29.1416 33.4464 29.1751 33.5116C29.2088 33.5767 29.2417 33.6422 29.2736 33.7081C29.3055 33.774 29.3365 33.8402 29.3666 33.9068C29.3966 33.9734 29.4258 34.0403 29.454 34.1076C29.4824 34.1751 29.5099 34.243 29.5365 34.3112C29.563 34.3792 29.5886 34.4475 29.6132 34.5162C29.6379 34.5847 29.6616 34.6535 29.6844 34.7226C29.7074 34.7918 29.7295 34.8613 29.7506 34.9311C29.7715 35.0009 29.7915 35.0708 29.8105 35.141C29.8297 35.2113 29.8481 35.2817 29.8654 35.3524C29.8826 35.4231 29.8988 35.494 29.9141 35.5651C29.9296 35.6361 29.9441 35.7073 29.9577 35.7786C29.9711 35.8501 29.9836 35.9217 29.9951 35.9935C30.0066 36.0652 30.0171 36.1371 30.0267 36.209C30.0363 36.281 30.045 36.3531 30.0527 36.4253C30.0605 36.4973 30.0673 36.5694 30.0732 36.6416C30.0788 36.7139 30.0835 36.7862 30.0872 36.8586C30.0914 36.9311 30.0945 37.0037 30.0968 37.0763C30.0986 37.1488 30.0995 37.2214 30.0995 37.2939C30.0995 37.5081 30.091 37.7222 30.0741 37.9357C29.1751 37.5626 27.0783 36.1245 28.3458 37.6222C26.9542 36.6704 28.8906 35.2707 28.7312 37.0763C30.5302 36.2416 33.066 35.735 33.9573 33.7081C35.8902 29.313 32.8134 27.0479 31.3393 23.646C29.8652 20.2441 29.8164 17.0389 26.1374 14.6801C23.953 13.2796 21.1515 12.3967 18.8109 12.3933Z" fill="#409ABE"/>
<path id="path1606" d="M20.8526 15.3179C20.3674 15.803 18.6034 16.8189 16.971 15.844C15.3386 14.869 18.8042 12.3849 18.8042 12.3849C18.8042 12.3849 14.9238 8.02454 18.039 9.03733C21.1542 10.0501 21.53 12.7515 21.53 12.7515C21.5232 14.051 21.3377 14.8329 20.8526 15.3179Z" fill="#1F6885"/>
<path id="path1660" d="M17.6167 20.5783C18.0877 20.5783 18.4696 20.0145 18.4696 19.319C18.4696 18.6235 18.0877 18.0597 17.6167 18.0597C17.1457 18.0597 16.7639 18.6235 16.7639 19.319C16.7639 20.0145 17.1457 20.5783 17.6167 20.5783Z" fill="#1D1E20"/>
<path id="path1660-0" d="M23.9504 20.5675C24.4214 20.5675 24.8032 20.0037 24.8032 19.3082C24.8032 18.6127 24.4214 18.0489 23.9504 18.0489C23.4794 18.0489 23.0975 18.6127 23.0975 19.3082C23.0975 20.0037 23.4794 20.5675 23.9504 20.5675Z" fill="#1D1E20"/>
<path id="path1740" d="M19.1187 22.7527C19.6595 24.232 20.8194 25.6913 20.8194 25.6913C20.8194 25.6913 22.0827 24.3462 22.658 22.7527C23.2334 21.1591 21.3613 20.7463 20.8818 20.7504C20.4022 20.7545 18.5779 21.2733 19.1187 22.7527Z" fill="#DEAF2F"/>
<path id="path1803" d="M11.7106 20.8015C11.7106 20.8015 14.9912 23.019 14.4684 25.8387C13.9456 28.6584 12.1091 29.4094 12.1091 29.4094C12.1091 29.4094 11.2709 34.4177 8.98479 34.096C6.69864 33.7742 6.2073 31.6111 6.62559 29.1225C7.04387 26.6339 11.7106 20.8015 11.7106 20.8015Z" fill="#1F6885"/>
<path id="path1807" d="M30.6879 21.9412C30.6879 21.9412 26.9007 26.1159 28.1454 28.2298C29.39 30.3437 30.9509 30.3339 30.9509 30.3339C30.9509 30.3339 30.4462 32.2475 31.8117 34.0322C33.1773 35.8168 33.9416 35.1638 34.4898 34.7017C35.0379 34.2396 35.2489 31.9184 34.681 29.9514C34.1132 27.9843 30.6879 21.9412 30.6879 21.9412Z" fill="#1F6885"/>
</g>
<circle id="Ellipse 98" cx="20.0906" cy="20.8847" r="18.6667" stroke="#F1C22E" stroke-width="2.66667"/>
</g>
</g>
<defs>
<clipPath id="clip0_2259_3911">
<rect width="40" height="40" fill="white" transform="translate(0.0905762 0.884674)"/>
</clipPath>
</defs>
</svg>
