<svg width="166" height="166" viewBox="0 0 166 166" fill="none" xmlns="http://www.w3.org/2000/svg">
<g id="PerfilPassarinMax" clip-path="url(#clip0_2228_3533)">
<mask id="mask0_2228_3533" style="mask-type:alpha" maskUnits="userSpaceOnUse" x="0" y="0" width="166" height="166">
<circle id="Ellipse 96" cx="83" cy="83" r="83" fill="#D9D9D9"/>
</mask>
<g mask="url(#mask0_2228_3533)">
<circle id="Ellipse 97" cx="83" cy="83" r="77.4667" fill="#F8FBFC" stroke="#F1C22E" stroke-width="11.0667"/>
<g id="g45167">
<path id="path1020" d="M123.861 157.688C123.954 157.264 124.039 156.838 124.116 156.41C124.255 155.531 124.359 154.648 124.429 153.762C124.499 152.875 124.534 151.987 124.534 151.098C124.534 150.797 124.53 150.496 124.523 150.195C124.513 149.893 124.5 149.592 124.483 149.291C124.468 148.991 124.448 148.691 124.425 148.391C124.4 148.091 124.372 147.792 124.34 147.493C124.308 147.194 124.272 146.895 124.232 146.596C124.192 146.297 124.148 145.999 124.101 145.701C124.053 145.403 124.001 145.106 123.945 144.809C123.889 144.513 123.829 144.218 123.764 143.924C123.701 143.628 123.634 143.334 123.563 143.041C123.49 142.747 123.414 142.455 123.335 142.164C123.256 141.872 123.173 141.582 123.086 141.292C122.998 141.003 122.907 140.714 122.811 140.427C122.717 140.14 122.618 139.855 122.516 139.57C122.413 139.286 122.307 139.002 122.197 138.72C122.087 138.437 121.973 138.155 121.855 137.875C121.738 137.596 121.617 137.318 121.492 137.041C121.367 136.765 121.239 136.49 121.107 136.217C120.974 135.943 120.837 135.672 120.698 135.401C120.559 135.131 120.416 134.862 120.27 134.594C120.123 134.328 119.972 134.062 119.817 133.799C119.664 133.536 119.507 133.275 119.347 133.016C119.186 132.756 119.023 132.499 118.855 132.244C118.687 131.988 118.516 131.735 118.341 131.484C118.167 131.232 117.989 130.983 117.809 130.735C117.628 130.488 117.444 130.244 117.256 130.001C117.068 129.758 116.877 129.518 116.683 129.279C116.489 129.041 116.293 128.805 116.093 128.572C115.892 128.338 115.688 128.107 115.481 127.879C115.275 127.651 115.065 127.426 114.853 127.204C114.64 126.98 114.425 126.759 114.207 126.54C113.988 126.322 113.767 126.106 113.543 125.894C113.32 125.681 113.094 125.47 112.865 125.262C112.635 125.055 112.402 124.85 112.166 124.648C111.931 124.447 111.693 124.248 111.453 124.052C111.213 123.856 110.97 123.663 110.725 123.473C110.479 123.283 110.23 123.096 109.979 122.912C109.729 122.727 109.477 122.546 109.222 122.368C108.966 122.189 108.708 122.014 108.447 121.842C108.187 121.67 107.925 121.501 107.661 121.336C107.397 121.17 107.131 121.007 106.863 120.848C106.593 120.688 106.321 120.532 106.047 120.38C105.774 120.227 105.499 120.078 105.223 119.933C104.946 119.786 104.667 119.643 104.386 119.503C104.106 119.364 103.823 119.229 103.539 119.096C103.254 118.963 102.967 118.834 102.679 118.708C102.391 118.582 102.102 118.46 101.811 118.342C101.52 118.224 101.228 118.109 100.934 117.997C100.639 117.885 100.343 117.777 100.045 117.673C99.748 117.568 99.4498 117.466 99.1503 117.369C98.8504 117.271 98.5492 117.178 98.2469 117.088C97.945 116.998 97.6418 116.911 97.3376 116.828C97.0326 116.745 96.7267 116.666 96.4196 116.591C96.1136 116.516 95.8066 116.445 95.4987 116.377C95.1896 116.309 94.8797 116.245 94.5689 116.185C94.2588 116.123 93.948 116.066 93.6363 116.012C93.3242 115.96 93.0113 115.911 92.6979 115.866C92.3847 115.82 92.0708 115.778 91.7565 115.74C91.4422 115.702 91.1274 115.668 90.8122 115.638C90.4968 115.607 90.181 115.579 89.8649 115.556C89.5494 115.534 89.2337 115.515 88.9177 115.5C88.6012 115.485 88.2844 115.473 87.9675 115.465C87.6509 115.458 87.3341 115.454 87.0173 115.454C86.0818 115.453 85.1466 115.487 84.2136 115.553C83.2803 115.619 82.3499 115.719 81.4245 115.851C80.4993 115.984 79.5797 116.15 78.6675 116.348C77.7564 116.546 76.8533 116.776 75.9602 117.038C75.0661 117.3 74.1826 117.594 73.3115 117.918C72.4402 118.242 71.5821 118.597 70.7388 118.982C69.8963 119.368 69.0693 119.783 68.2595 120.228C67.4488 120.672 66.656 121.145 65.8826 121.646C65.1098 122.147 64.3569 122.676 63.6256 123.23C62.8946 123.785 62.1856 124.365 61.5002 124.97C60.814 125.574 60.1518 126.202 59.515 126.853C58.8786 127.504 58.2681 128.178 57.6848 128.873C57.1023 129.568 56.5474 130.284 56.0213 131.019C55.4939 131.753 54.9956 132.506 54.5274 133.276C54.06 134.045 53.6232 134.831 53.2176 135.632C52.8115 136.433 52.437 137.249 52.095 138.076C51.7532 138.903 51.444 139.742 51.1682 140.591C50.8927 141.44 50.6509 142.299 50.4431 143.166C50.2343 144.033 50.0598 144.907 49.9198 145.786C49.7808 146.665 49.6764 147.548 49.6069 148.435C49.5369 149.321 49.5018 150.209 49.5017 151.098C49.5095 151.552 49.5265 152.007 49.5526 152.46C58.7954 158.989 71.3391 163.231 86.9192 163.146C103.271 163.057 115.137 161.735 123.861 157.688Z" fill="#B6DAE6"/>
<path id="path1746" d="M77.6893 47.7607C71.0433 47.7511 65.2914 49.4509 61.8639 53.3419C55.0175 68.4395 54.5955 73.8345 47.5704 83.6654C40.5453 93.4963 27.1441 111.818 32.4291 129.452C35.0008 138.033 40.7954 146.273 49.5555 152.461C49.5294 152.007 49.5124 151.553 49.5046 151.098C49.5047 150.21 49.5398 149.321 49.6098 148.435C49.6793 147.549 49.7837 146.665 49.9227 145.786C50.0627 144.907 50.2373 144.033 50.446 143.167C50.6538 142.3 50.8957 141.44 51.1711 140.591C51.4469 139.742 51.7561 138.903 52.0979 138.077C52.4399 137.249 52.8144 136.434 53.2205 135.632C53.6261 134.832 54.0629 134.046 54.5303 133.276C54.9985 132.506 55.4967 131.753 56.0242 131.019C56.5503 130.284 57.1053 129.568 57.6878 128.873C58.2711 128.178 58.8816 127.504 59.518 126.853C60.1548 126.202 60.8169 125.574 61.5031 124.97C62.1885 124.365 62.8975 123.785 63.6285 123.23C64.3598 122.676 65.1127 122.147 65.8855 121.646C66.6589 121.145 67.4518 120.672 68.2625 120.228C69.0722 119.784 69.8992 119.368 70.7417 118.982C71.585 118.597 72.4431 118.242 73.3144 117.918C74.1855 117.594 75.0691 117.3 75.9632 117.038C76.8563 116.776 77.7593 116.546 78.6704 116.348C79.5826 116.15 80.5022 115.984 81.4274 115.851C82.3528 115.719 83.2832 115.619 84.2165 115.553C85.1494 115.487 86.0847 115.454 87.0202 115.454C87.337 115.454 87.6538 115.458 87.9704 115.466C88.2873 115.473 88.6041 115.485 88.9206 115.501C89.2366 115.515 89.5523 115.534 89.8678 115.556C90.1839 115.58 90.4997 115.607 90.815 115.638C91.1303 115.668 91.4451 115.702 91.7594 115.74C92.0737 115.778 92.3876 115.82 92.7008 115.866C93.0142 115.911 93.3271 115.96 93.6392 116.012C93.9509 116.066 94.2618 116.123 94.5719 116.185C94.8826 116.245 95.1925 116.31 95.5016 116.378C95.8095 116.445 96.1165 116.516 96.4225 116.591C96.7295 116.666 97.0356 116.745 97.3406 116.828C97.6448 116.911 97.9479 116.998 98.2498 117.088C98.5521 117.178 98.8533 117.272 99.1532 117.369C99.4527 117.467 99.7509 117.568 100.048 117.673C100.345 117.777 100.642 117.886 100.937 117.997C101.23 118.109 101.523 118.224 101.814 118.342C102.105 118.461 102.394 118.582 102.682 118.708C102.97 118.834 103.257 118.964 103.542 119.097C103.826 119.229 104.109 119.364 104.389 119.503C104.67 119.643 104.949 119.786 105.225 119.933C105.502 120.079 105.777 120.228 106.05 120.38C106.324 120.533 106.596 120.689 106.866 120.848C107.134 121.007 107.4 121.17 107.664 121.336C107.928 121.501 108.19 121.67 108.45 121.842C108.711 122.014 108.969 122.19 109.225 122.368C109.48 122.546 109.732 122.728 109.982 122.912C110.233 123.096 110.482 123.283 110.728 123.473C110.973 123.663 111.216 123.856 111.456 124.052C111.696 124.248 111.934 124.447 112.169 124.649C112.405 124.85 112.638 125.055 112.868 125.262C113.097 125.47 113.323 125.681 113.546 125.894C113.77 126.107 113.991 126.322 114.21 126.54C114.428 126.759 114.643 126.98 114.856 127.204C115.068 127.426 115.278 127.651 115.484 127.879C115.691 128.108 115.895 128.339 116.095 128.572C116.295 128.805 116.492 129.041 116.686 129.28C116.88 129.518 117.071 129.759 117.259 130.002C117.446 130.244 117.631 130.489 117.812 130.735C117.992 130.983 118.17 131.232 118.344 131.484C118.519 131.735 118.69 131.989 118.858 132.244C119.025 132.499 119.189 132.757 119.349 133.016C119.51 133.275 119.667 133.536 119.82 133.799C119.975 134.063 120.126 134.328 120.273 134.595C120.419 134.862 120.562 135.131 120.7 135.402C120.84 135.672 120.977 135.944 121.11 136.217C121.242 136.49 121.37 136.765 121.495 137.042C121.62 137.318 121.741 137.596 121.858 137.875C121.976 138.155 122.09 138.437 122.2 138.72C122.31 139.002 122.416 139.286 122.519 139.571C122.621 139.855 122.719 140.14 122.814 140.427C122.91 140.715 123.001 141.003 123.089 141.293C123.176 141.582 123.259 141.872 123.337 142.164C123.417 142.455 123.493 142.748 123.565 143.041C123.637 143.334 123.704 143.629 123.767 143.924C123.832 144.218 123.892 144.514 123.948 144.81C124.004 145.106 124.056 145.404 124.103 145.701C124.151 145.999 124.195 146.297 124.235 146.596C124.275 146.895 124.311 147.194 124.343 147.494C124.375 147.792 124.403 148.092 124.428 148.391C124.451 148.691 124.47 148.991 124.486 149.292C124.503 149.592 124.516 149.894 124.525 150.195C124.533 150.496 124.537 150.797 124.537 151.098C124.537 151.987 124.502 152.875 124.432 153.762C120.7 152.213 111.999 146.245 117.259 152.461C111.484 148.511 119.52 142.702 118.858 150.195C126.324 146.731 136.848 144.629 140.547 136.217C148.568 117.977 135.8 108.577 129.682 94.4594C123.565 80.3416 123.362 67.0397 108.094 57.2508C99.029 51.4386 87.4027 47.7748 77.6893 47.7607Z" fill="#409ABE"/>
<path id="path1606" d="M86.162 59.8977C84.1487 61.9106 76.8281 66.127 70.0537 62.0808C63.2793 58.0346 77.6613 47.7255 77.6613 47.7255C77.6613 47.7255 61.5579 29.6302 74.4859 33.8333C87.4139 38.0364 88.9736 49.247 88.9736 49.247C88.9453 54.6401 88.1753 57.8848 86.162 59.8977Z" fill="#1F6885"/>
<path id="path1660" d="M72.7336 81.7284C74.6882 81.7284 76.2728 79.3886 76.2728 76.5023C76.2728 73.6159 74.6882 71.2761 72.7336 71.2761C70.7789 71.2761 69.1943 73.6159 69.1943 76.5023C69.1943 79.3886 70.7789 81.7284 72.7336 81.7284Z" fill="#1D1E20"/>
<path id="path1660-0" d="M99.018 81.6836C100.973 81.6836 102.557 79.3438 102.557 76.4575C102.557 73.5712 100.973 71.2314 99.018 71.2314C97.0633 71.2314 95.4788 73.5712 95.4788 76.4575C95.4788 79.3438 97.0633 81.6836 99.018 81.6836Z" fill="#1D1E20"/>
<path id="path1740" d="M78.9669 90.7519C81.2111 96.8911 86.0246 102.947 86.0246 102.947C86.0246 102.947 91.2672 97.3653 93.6549 90.7519C96.0427 84.1385 88.2736 82.4257 86.2835 82.4425C84.2934 82.4595 76.7226 84.6127 78.9669 90.7519Z" fill="#DEAF2F"/>
<path id="path1803" d="M48.2232 82.6545C48.2232 82.6545 61.8375 91.8574 59.6678 103.559C57.4981 115.261 49.877 118.377 49.877 118.377C49.877 118.377 46.3985 139.162 36.9109 137.827C27.4234 136.491 25.3844 127.514 27.1202 117.187C28.8561 106.859 48.2232 82.6545 48.2232 82.6545Z" fill="#1F6885"/>
<path id="path1807" d="M126.979 87.3845C126.979 87.3845 111.262 104.709 116.428 113.482C121.593 122.255 128.071 122.214 128.071 122.214C128.071 122.214 125.976 130.156 131.643 137.562C137.31 144.968 140.482 142.258 142.757 140.34C145.031 138.423 145.907 128.79 143.551 120.627C141.194 112.463 126.979 87.3845 126.979 87.3845Z" fill="#1F6885"/>
</g>
<circle id="Ellipse 98" cx="83" cy="83" r="77.4667" stroke="#F1C22E" stroke-width="11.0667"/>
</g>
</g>
<defs>
<clipPath id="clip0_2228_3533">
<rect width="166" height="166" fill="white"/>
</clipPath>
</defs>
</svg>
